  0
SECTION
  2
HEADER
  9
$ACADVER
  1
AC1015
  9
$ACADMAINTVER
 70
     6
  9
$DWGCODEPAGE
  3
ANSI_1252
  9
$INSBASE
 10
0.0
 20
0.0
 30
0.0
  9
$EXTMIN
 10
9.875
 20
3.794239
 30
0.0
  9
$EXTMAX
 10
58.134148
 20
71.551003
 30
0.0
  9
$LIMMIN
 10
9.875
 20
3.794239
  9
$LIMMAX
 10
58.134148
 20
71.551003
  9
$ORTHOMODE
 70
     0
  9
$REGENMODE
 70
     1
  9
$FILLMODE
 70
     1
  9
$QTEXTMODE
 70
     0
  9
$MIRRTEXT
 70
     1
  9
$LTSCALE
 40
1.0
  9
$ATTMODE
 70
     1
  9
$TEXTSIZE
 40
0.2
  9
$TRACEWID
 40
0.05
  9
$TEXTSTYLE
  7
STANDARD
  9
$CLAYER
  8
0
  9
$CELTYPE
  6
Continuous
  9
$CECOLOR
 62
     7
  9
$CELTSCALE
 40
1.0
  9
$DISPSILH
 70
     0
  9
$DIMSCALE
 40
1.0
  9
$DIMASZ
 40
0.18
  9
$DIMEXO
 40
0.0625
  9
$DIMDLI
 40
0.38
  9
$DIMRND
 40
0.0
  9
$DIMDLE
 40
0.0
  9
$DIMEXE
 40
0.18
  9
$DIMTP
 40
0.0
  9
$DIMTM
 40
0.0
  9
$DIMTXT
 40
0.18
  9
$DIMCEN
 40
0.09
  9
$DIMTSZ
 40
0.0
  9
$DIMTOL
 70
     0
  9
$DIMLIM
 70
     0
  9
$DIMTIH
 70
     1
  9
$DIMTOH
 70
     1
  9
$DIMSE1
 70
     0
  9
$DIMSE2
 70
     0
  9
$DIMTAD
 70
     0
  9
$DIMZIN
 70
     0
  9
$DIMBLK
  1

  9
$DIMASO
 70
     0
  9
$DIMSHO
 70
     1
  9
$DIMPOST
  1
<>
  9
$DIMAPOST
  1
<>
  9
$DIMALT
 70
     0
  9
$DIMALTD
 70
     2
  9
$DIMALTF
 40
25.4
  9
$DIMLFAC
 40
1.0
  9
$DIMTOFL
 70
     0
  9
$DIMTVP
 40
0.0
  9
$DIMTIX
 70
     0
  9
$DIMSOXD
 70
     0
  9
$DIMSAH
 70
     0
  9
$DIMBLK1
  1

  9
$DIMBLK2
  1

  9
$DIMSTYLE
  2
STANDARD
  9
$DIMCLRD
 70
     0
  9
$DIMCLRE
 70
     0
  9
$DIMCLRT
 70
     0
  9
$DIMTFAC
 40
1.0
  9
$DIMGAP
 40
0.09
  9
$DIMJUST
 70
     0
  9
$DIMSD1
 70
     0
  9
$DIMSD2
 70
     0
  9
$DIMTOLJ
 70
     1
  9
$DIMTZIN
 70
     0
  9
$DIMALTZ
 70
     0
  9
$DIMALTTZ
 70
     0
  9
$DIMUPT
 70
     0
  9
$DIMDEC
 70
     4
  9
$DIMTDEC
 70
     4
  9
$DIMALTU
 70
     2
  9
$DIMALTTD
 70
     2
  9
$DIMTXSTY
  7
STANDARD
  9
$DIMAUNIT
 70
     0
  9
$DIMADEC
 70
     4
  9
$DIMALTRND
 40
0.0
  9
$DIMAZIN
 70
     0
  9
$DIMDSEP
 70
     0
  9
$DIMATFIT
 70
     0
  9
$DIMFRAC
 70
     0
  9
$DIMLDRBLK
  1

  9
$DIMLUNIT
 70
     2
  9
$DIMLWD
 70
     0
  9
$DIMLWE
 70
     0
  9
$DIMTMOVE
 70
     0
  9
$LUNITS
 70
     2
  9
$LUPREC
 70
     4
  9
$SKETCHINC
 40
0.1
  9
$FILLETRAD
 40
0.0
  9
$AUNITS
 70
     0
  9
$AUPREC
 70
     0
  9
$MENU
  1
acad
  9
$ELEVATION
 40
0.0
  9
$PELEVATION
 40
0.0
  9
$THICKNESS
 40
0.0
  9
$LIMCHECK
 70
     0
  9
$CHAMFERA
 40
0.0
  9
$CHAMFERB
 40
0.0
  9
$CHAMFERC
 40
0.0
  9
$CHAMFERD
 40
0.0
  9
$SKPOLY
 70
     0
  9
$TDCREATE
 40
0.000000000
  9
$TDUCREATE
 40
0.000000000
  9
$TDUPDATE
 40
0.000000000
  9
$TDUUPDATE
 40
0.000000000
  9
$TDINDWG
 40
0.0000000000
  9
$TDUSRTIMER
 40
0.0000000000
  9
$USRTIMER
 70
     1
  9
$ANGBASE
 50
0.0
  9
$ANGDIR
 70
     0
  9
$PDMODE
 70
     0
  9
$PDSIZE
 40
0.0
  9
$PLINEWID
 40
0.0
  9
$SPLFRAME
 70
     0
  9
$SPLINETYPE
 70
     6
  9
$SPLINESEGS
 70
     8
  9
$HANDSEED
  5
12F
  9
$SURFTAB1
 70
     6
  9
$SURFTAB2
 70
     6
  9
$SURFTYPE
 70
     6
  9
$SURFU
 70
     6
  9
$SURFV
 70
     6
  9
$UCSBASE
  2

  9
$UCSNAME
  2

  9
$UCSORG
 10
0.0
 20
0.0
 30
0.0
  9
$UCSXDIR
 10
1.0
 20
0.0
 30
0.0
  9
$UCSYDIR
 10
0.0
 20
1.0
 30
0.0
  9
$UCSORTHOREF
  2

  9
$UCSORTHOVIEW
 70
     0
  9
$UCSORGTOP
 10
0.0
 20
0.0
 30
0.0
  9
$UCSORGBOTTOM
 10
0.0
 20
0.0
 30
0.0
  9
$UCSORGLEFT
 10
0.0
 20
0.0
 30
0.0
  9
$UCSORGRIGHT
 10
0.0
 20
0.0
 30
0.0
  9
$UCSORGFRONT
 10
0.0
 20
0.0
 30
0.0
  9
$UCSORGBACK
 10
0.0
 20
0.0
 30
0.0
  9
$PUCSBASE
  2

  9
$PUCSNAME
  2

  9
$PUCSORG
 10
0.0
 20
0.0
 30
0.0
  9
$PUCSXDIR
 10
1.0
 20
0.0
 30
0.0
  9
$PUCSYDIR
 10
0.0
 20
1.0
 30
0.0
  9
$PUCSORTHOREF
  2

  9
$PUCSORTHOVIEW
 70
     0
  9
$PUCSORGTOP
 10
0.0
 20
0.0
 30
0.0
  9
$PUCSORGBOTTOM
 10
0.0
 20
0.0
 30
0.0
  9
$PUCSORGLEFT
 10
0.0
 20
0.0
 30
0.0
  9
$PUCSORGRIGHT
 10
0.0
 20
0.0
 30
0.0
  9
$PUCSORGFRONT
 10
0.0
 20
0.0
 30
0.0
  9
$PUCSORGBACK
 10
0.0
 20
0.0
 30
0.0
  9
$USERI1
 70
     0
  9
$USERI2
 70
     0
  9
$USERI3
 70
     0
  9
$USERI4
 70
     0
  9
$USERI5
 70
     0
  9
$USERR1
 40
0.0
  9
$USERR2
 40
0.0
  9
$USERR3
 40
0.0
  9
$USERR4
 40
0.0
  9
$USERR5
 40
0.0
  9
$WORLDVIEW
 70
     1
  9
$SHADEDGE
 70
     3
  9
$SHADEDIF
 70
    70
  9
$TILEMODE
 70
     1
  9
$MAXACTVP
 70
    16
  9
$PINSBASE
 10
0.0
 20
0.0
 30
0.0
  9
$PLIMCHECK
 70
     0
  9
$PEXTMIN
 10
0.0
 20
0.0
 30
0.0
  9
$PEXTMAX
 10
0.0
 20
0.0
 30
0.0
  9
$PLIMMIN
 10
0.0
 20
0.0
  9
$PLIMMAX
 10
0.0
 20
0.0
  9
$UNITMODE
 70
     0
  9
$VISRETAIN
 70
     0
  9
$PLINEGEN
 70
     1
  9
$PSLTSCALE
 70
     0
  9
$TREEDEPTH
 70
  3020
  9
$CMLSTYLE
  2
STANDARD
  9
$CMLJUST
 70
     0
  9
$CMLSCALE
 40
1.0
  9
$PROXYGRAPHICS
 70
     0
  9
$MEASUREMENT
 70
     0
  9
$CELWEIGHT
370
     0
  9
$ENDCAPS
280
     0
  9
$JOINSTYLE
280
     0
  9
$LWDISPLAY
290
     0
  9
$INSUNITS
 70
     0
  9
$HYPERLINKBASE
  1

  9
$XEDIT
290
     1
  9
$CEPSNTYPE
380
     0
  9
$PSTYLEMODE
290
     1
  9
$FINGERPRINTGUID
  2

  9
$VERSIONGUID
  2

  9
$EXTNAMES
290
     1
  9
$PSVPSCALE
 40
0.0
  0
ENDSEC
  0
SECTION
  2
CLASSES
  0
CLASS
  1
LWPOLYLINE
  2
AcDbPolyline
  3
AutoCAD 2000
 90
    32768
280
     0
281
     1
  0
CLASS
  1
IMAGE
  2
AcDbRasterImage
  3
ISM
 90
    32895
280
     0
281
     1
  0
CLASS
  1
OLE2FRAME
  2
AcDbOle2Frame
  3
AutoCAD 2000
 90
    32768
280
     0
281
     1
  0
CLASS
  1
HATCH
  2
AcDbHatch
  3
AutoCAD 2000
 90
    32768
280
     0
281
     1
  0
CLASS
  1
DICTIONARYVAR
  2
AcDbDictionaryVar
  3
AutoCAD 2000
 90
    32768
280
     0
281
     0
  0
CLASS
  1
RASTERVARIABLES
  2
AcDbRasterVariables
  3
ISM
 90
    32768
280
     0
281
     0
  0
CLASS
  1
IMAGEDEF
  2
AcDbRasterImageDef
  3
ISM
 90
    32768
280
     0
281
     0
  0
CLASS
  1
IMAGEDEF_REACTOR
  2
AcDbRasterImageDefReactor
  3
ISM
 90
    32769
280
     0
281
     0
  0
CLASS
  1
IDBUFFER
  2
AcDbIdBuffer
  3
AutoCAD 2000
 90
    32768
280
     0
281
     0
  0
CLASS
  1
SPATIAL_FILTER
  2
AcDbSpatialFilter
  3
AutoCAD 2000
 90
    32768
280
     0
281
     0
  0
CLASS
  1
XRECORD
  2
AcDbXrecord
  3
AutoCAD 2000
 90
    32768
280
     0
281
     0
  0
CLASS
  1
SORTENTSTABLE
  2
AcDbSortentsTable
  3
AutoCAD 2000
 90
    32768
280
     0
281
     0
  0
CLASS
  1
LAYER_INDEX
  2
AcDbLayerIndex
  3
AutoCAD 2000
 90
    32768
280
     0
281
     0
  0
CLASS
  1
SPATIAL_INDEX
  2
AcDbSpatialIndex
  3
AutoCAD 2000
 90
    32768
280
     0
281
     0
  0
CLASS
  1
OBJECT_PTR
  2
CAseDLPNTableRecord
  3
"ASE-LPNTableRecord"
 90
    32769
280
     0
281
     0
  0
CLASS
  1
LAYOUT
  2
AcDbLayout
  3
AutoCAD 2000
 90
        0
280
     0
281
     0
  0
CLASS
  1
PLOTSETTINGS
  2
AcDbPlotSettings
  3
AutoCAD 2000
 90
    32768
280
     0
281
     0
  0
CLASS
  1
ACDBDICTIONARYWDFLT
  2
AcDbDictionaryWithDefault
  3
AutoCAD 2000
 90
        0
280
     0
281
     0
  0
CLASS
  1
ACDBPLACEHOLDER
  2
AcDbPlaceHolder
  3
AutoCAD 2000
 90
        0
280
     0
281
     0
  0
ENDSEC
  0
SECTION
  2
TABLES
  0
TABLE
  2
VPORT
  5
7
100
AcDbSymbolTable
 70
     1
  0
VPORT
  5
15
100
AcDbSymbolTableRecord
100
AcDbViewportTableRecord
  2
*ACTIVE
 70
     0
 10
0.0
 20
0.0
 11
1.0
 21
1.0
 12
0.0
 22
0.0
 13
0.0
 23
0.0
 14
0.0
 24
0.0
 15
0.0
 25
0.0
 16
0.0
 26
0.0
 36
1.0
 17
21.479449
 27
47.054413
 37
1.0
 40
36.263908
 41
1.420382
 42
50.0
 43
0.0
 44
0.0
 50
0.0
 51
0.0
 71
     0
 72
   100
 73
     1
 74
     1
 75
     0
 76
     0
 77
     0
 78
     0
281
     0
 65
     0
110
0.0
120
0.0
130
0.0
111
1.0
121
0.0
131
0.0
112
0.0
122
1.0
132
0.0
345
0
346
0
 79
     0
146
0.0
  0
ENDTAB
  0
TABLE
  2
LTYPE
  5
4
100
AcDbSymbolTable
 70
    13
  0
LTYPE
  5
11
100
AcDbSymbolTableRecord
100
AcDbLinetypeTableRecord
  2
ByBlock
 70
    64
  3

 72
    65
 73
     0
 40
0.0
  0
LTYPE
  5
12
100
AcDbSymbolTableRecord
100
AcDbLinetypeTableRecord
  2
ByLayer
 70
    64
  3

 72
    65
 73
     0
 40
0.0
  0
LTYPE
  5
13
100
AcDbSymbolTableRecord
100
AcDbLinetypeTableRecord
  2
Continuous
 70
    64
  3
Solid line
 72
    65
 73
     0
 40
0.0
  0
LTYPE
  5
24
100
AcDbSymbolTableRecord
100
AcDbLinetypeTableRecord
  2
BORDER
 70
     0
  3
BORDER
 72
    65
 73
     6
 40
1.75
 49
0.5
 74
     0
 49
-0.25
 74
     0
 49
0.5
 74
     0
 49
-0.25
 74
     0
 49
0.0
 74
     0
 49
-0.25
 74
     0
  0
LTYPE
  5
25
100
AcDbSymbolTableRecord
100
AcDbLinetypeTableRecord
  2
CENTER
 70
     0
  3
CENTER
 72
    65
 73
     4
 40
2.0
 49
1.25
 74
     0
 49
-0.25
 74
     0
 49
0.25
 74
     0
 49
-0.25
 74
     0
  0
LTYPE
  5
26
100
AcDbSymbolTableRecord
100
AcDbLinetypeTableRecord
  2
DASHDOT
 70
     0
  3
DASHDOT
 72
    65
 73
     4
 40
1.0
 49
0.5
 74
     0
 49
-0.25
 74
     0
 49
0.0
 74
     0
 49
-0.25
 74
     0
  0
LTYPE
  5
27
100
AcDbSymbolTableRecord
100
AcDbLinetypeTableRecord
  2
DASHED
 70
     0
  3
DASHED
 72
    65
 73
     2
 40
0.75
 49
0.5
 74
     0
 49
-0.25
 74
     0
  0
LTYPE
  5
28
100
AcDbSymbolTableRecord
100
AcDbLinetypeTableRecord
  2
DIVIDE
 70
     0
  3
DIVIDE
 72
    65
 73
     6
 40
1.25
 49
0.5
 74
     0
 49
-0.25
 74
     0
 49
0.0
 74
     0
 49
-0.25
 74
     0
 49
0.0
 74
     0
 49
-0.25
 74
     0
  0
LTYPE
  5
29
100
AcDbSymbolTableRecord
100
AcDbLinetypeTableRecord
  2
DOT
 70
     0
  3
DOT
 72
    65
 73
     2
 40
0.25
 49
0.0
 74
     0
 49
-0.25
 74
     0
  0
LTYPE
  5
2A
100
AcDbSymbolTableRecord
100
AcDbLinetypeTableRecord
  2
HIDDEN
 70
     0
  3
HIDDEN
 72
    65
 73
     2
 40
0.375
 49
0.25
 74
     0
 49
-0.125
 74
     0
  0
LTYPE
  5
2B
100
AcDbSymbolTableRecord
100
AcDbLinetypeTableRecord
  2
PHANTOM
 70
     0
  3
PHANTOM
 72
    65
 73
     6
 40
2.5
 49
1.25
 74
     0
 49
-0.25
 74
     0
 49
0.25
 74
     0
 49
-0.25
 74
     0
 49
0.25
 74
     0
 49
-0.25
 74
     0
  0
LTYPE
  5
2C
100
AcDbSymbolTableRecord
100
AcDbLinetypeTableRecord
  2
$INVISIBLE
 70
     0
  3
$INVISIBLE
 72
    65
 73
     2
 40
200.0
 49
-100.0
 74
     0
 49
-100.0
 74
     0
  0
LTYPE
  5
2D
100
AcDbSymbolTableRecord
100
AcDbLinetypeTableRecord
  2
$SNAPEXT
 70
     0
  3
$SNAPEXT
 72
    65
 73
     2
 40
0.04
 49
0.02
 74
     0
 49
-0.02
 74
     0
  0
ENDTAB
  0
TABLE
  2
LAYER
  5
2
100
AcDbSymbolTable
 70
     1
  0
LAYER
  5
14
100
AcDbSymbolTableRecord
100
AcDbLayerTableRecord
  2
0
 70
     0
 62
     7
  6
Continuous
290
     1
370
    -3
390
0
1001
TCAD
1000
TCW_LAYER_ORDER
1002
{
1071
        0
1002
}
  0
ENDTAB
  0
TABLE
  2
STYLE
  5
3
100
AcDbSymbolTable
 70
     1
  0
STYLE
  5
17
100
AcDbSymbolTableRecord
100
AcDbTextStyleTableRecord
  2
STANDARD
 70
     0
 40
0.0
 41
1.0
 50
0.0
 71
     0
 42
0.0
  3
TXT.SHX
  4

  0
ENDTAB
  0
TABLE
  2
VIEW
  5
5
100
AcDbSymbolTable
 70
     1
  0
VIEW
  5
2E
100
AcDbSymbolTableRecord
100
AcDbViewTableRecord
  2
View_0
 70
     0
 40
8.267716
 10
5.846457
 20
4.133858
 41
11.692913
 11
0.0
 21
0.0
 31
1.0
 12
0.0
 22
0.0
 32
0.0
 42
50.0
 43
0.0
 44
0.0
 50
0.0
 71
     0
281
     0
 72
     0
110
0.0
120
0.0
130
0.0
111
1.0
121
0.0
131
0.0
112
0.0
122
1.0
132
0.0
  0
ENDTAB
  0
TABLE
  2
UCS
  5
6
100
AcDbSymbolTable
 70
     0
  0
ENDTAB
  0
TABLE
  2
APPID
  5
8
100
AcDbSymbolTable
 70
     2
  0
APPID
  5
16
100
AcDbSymbolTableRecord
100
AcDbRegAppTableRecord
  2
ACAD
 70
     0
  0
APPID
  5
23
100
AcDbSymbolTableRecord
100
AcDbRegAppTableRecord
  2
TCAD
 70
     0
  0
ENDTAB
  0
TABLE
  2
DIMSTYLE
  5
9
100
AcDbSymbolTable
 70
     1
100
AcDbDimStyleTable
 71
     0
  0
DIMSTYLE
105
18
100
AcDbSymbolTableRecord
100
AcDbDimStyleTableRecord
  2
STANDARD
 70
     0
  3
<>
  4
<>
 40
1.0
 41
0.18
 42
0.0625
 43
0.38
 44
0.18
 45
0.0
 46
0.0
 47
0.0
 48
0.0
 71
     0
 72
     0
 73
     1
 74
     1
 75
     0
 76
     0
 77
     0
 78
     0
 79
     0
140
0.18
141
0.09
142
0.0
143
25.4
144
1.0
145
0.0
146
1.0
147
0.09
148
0.01
170
     0
171
     2
172
     0
173
     0
174
     0
175
     0
176
     0
177
     0
178
     0
179
     4
271
     4
272
     4
273
     2
274
     2
275
     0
276
     0
277
     2
278
    46
279
     0
280
     0
281
     0
282
     0
283
     1
284
     0
285
     0
286
     0
288
     0
340
17
341
0
342
0
343
0
344
0
371
    -2
372
    -2
  0
ENDTAB
  0
TABLE
  2
BLOCK_RECORD
  5
1
100
AcDbSymbolTable
 70
     0
  0
BLOCK_RECORD
  5
A
100
AcDbSymbolTableRecord
100
AcDbBlockTableRecord
  2
*MODEL_SPACE
340
12D
  0
BLOCK_RECORD
  5
B
100
AcDbSymbolTableRecord
100
AcDbBlockTableRecord
  2
*PAPER_SPACE
340
12E
  0
ENDTAB
  0
ENDSEC
  0
SECTION
  2
BLOCKS
  0
BLOCK
  5
D
100
AcDbEntity
  8
0
100
AcDbBlockBegin
  2
*MODEL_SPACE
 70
     0
 10
0.0
 20
0.0
 30
0.0
  3
*MODEL_SPACE
  1

  0
ENDBLK
  5
E
100
AcDbEntity
  8
0
100
AcDbBlockEnd
  0
BLOCK
  5
F
100
AcDbEntity
 67
     1
  8
0
100
AcDbBlockBegin
  2
*PAPER_SPACE
 70
     0
 10
0.0
 20
0.0
 30
0.0
  3
*PAPER_SPACE
  1

  0
ENDBLK
  5
10
100
AcDbEntity
 67
     1
  8
0
100
AcDbBlockEnd
  0
ENDSEC
  0
SECTION
  2
ENTITIES
  0
LINE
  5
2F
100
AcDbEntity
  8
0
100
AcDbLine
 10
10.0
 20
10.0
 30
0.0
 11
10.0
 21
69.643
 31
0.0
  0
LINE
  5
30
100
AcDbEntity
  8
0
100
AcDbLine
 10
10.0
 20
69.643
 30
0.0
 11
10.319
 21
71.143
 31
0.0
  0
LINE
  5
31
100
AcDbEntity
  8
0
100
AcDbLine
 10
9.875
 20
69.643
 30
0.0
 11
10.125
 21
69.643
 31
0.0
  0
LINE
  5
32
100
AcDbEntity
  8
0
100
AcDbLine
 10
10.194
 20
71.143
 30
0.0
 11
10.444
 21
71.143
 31
0.0
  0
LINE
  5
33
100
AcDbEntity
  8
0
100
AcDbLine
 10
9.875
 20
66.296
 30
0.0
 11
10.125
 21
66.296
 31
0.0
  0
LINE
  5
34
100
AcDbEntity
  8
0
100
AcDbLine
 10
10.706
 20
11.13
 30
0.0
 11
10.706
 21
69.779
 31
0.0
  0
LINE
  5
35
100
AcDbEntity
  8
0
100
AcDbLine
 10
10.706
 20
69.779
 30
0.0
 11
11.025
 21
71.279
 31
0.0
  0
LINE
  5
36
100
AcDbEntity
  8
0
100
AcDbLine
 10
10.581
 20
69.779
 30
0.0
 11
10.831
 21
69.779
 31
0.0
  0
LINE
  5
37
100
AcDbEntity
  8
0
100
AcDbLine
 10
10.9
 20
71.279
 30
0.0
 11
11.15
 21
71.279
 31
0.0
  0
LINE
  5
38
100
AcDbEntity
  8
0
100
AcDbLine
 10
10.581
 20
66.488
 30
0.0
 11
10.831
 21
66.488
 31
0.0
  0
LINE
  5
39
100
AcDbEntity
  8
0
100
AcDbLine
 10
11.412
 20
12.26
 30
0.0
 11
11.412
 21
69.915
 31
0.0
  0
LINE
  5
3A
100
AcDbEntity
  8
0
100
AcDbLine
 10
11.412
 20
69.915
 30
0.0
 11
11.731
 21
71.415
 31
0.0
  0
LINE
  5
3B
100
AcDbEntity
  8
0
100
AcDbLine
 10
11.287
 20
69.915
 30
0.0
 11
11.537
 21
69.915
 31
0.0
  0
LINE
  5
3C
100
AcDbEntity
  8
0
100
AcDbLine
 10
11.606
 20
71.415
 30
0.0
 11
11.856
 21
71.415
 31
0.0
  0
LINE
  5
3D
100
AcDbEntity
  8
0
100
AcDbLine
 10
11.287
 20
66.68
 30
0.0
 11
11.537
 21
66.68
 31
0.0
  0
LINE
  5
3E
100
AcDbEntity
  8
0
100
AcDbLine
 10
12.119
 20
13.39
 30
0.0
 11
12.119
 21
70.051
 31
0.0
  0
LINE
  5
3F
100
AcDbEntity
  8
0
100
AcDbLine
 10
12.119
 20
70.051
 30
0.0
 11
12.437
 21
71.551
 31
0.0
  0
LINE
  5
40
100
AcDbEntity
  8
0
100
AcDbLine
 10
11.994
 20
70.051
 30
0.0
 11
12.244
 21
70.051
 31
0.0
  0
LINE
  5
41
100
AcDbEntity
  8
0
100
AcDbLine
 10
12.312
 20
71.551
 30
0.0
 11
12.562
 21
71.551
 31
0.0
  0
LINE
  5
42
100
AcDbEntity
  8
0
100
AcDbLine
 10
11.994
 20
66.872
 30
0.0
 11
12.244
 21
66.872
 31
0.0
  0
LINE
  5
43
100
AcDbEntity
  8
0
100
AcDbLine
 10
12.825
 20
14.521
 30
0.0
 11
12.825
 21
69.989
 31
0.0
  0
LINE
  5
44
100
AcDbEntity
  8
0
100
AcDbLine
 10
12.825
 20
69.989
 30
0.0
 11
13.144
 21
71.489
 31
0.0
  0
LINE
  5
45
100
AcDbEntity
  8
0
100
AcDbLine
 10
12.7
 20
69.989
 30
0.0
 11
12.95
 21
69.989
 31
0.0
  0
LINE
  5
46
100
AcDbEntity
  8
0
100
AcDbLine
 10
13.019
 20
71.489
 30
0.0
 11
13.269
 21
71.489
 31
0.0
  0
LINE
  5
47
100
AcDbEntity
  8
0
100
AcDbLine
 10
12.7
 20
66.876
 30
0.0
 11
12.95
 21
66.876
 31
0.0
  0
LINE
  5
48
100
AcDbEntity
  8
0
100
AcDbLine
 10
13.531
 20
15.651
 30
0.0
 11
13.531
 21
69.926
 31
0.0
  0
LINE
  5
49
100
AcDbEntity
  8
0
100
AcDbLine
 10
13.531
 20
69.926
 30
0.0
 11
13.85
 21
71.426
 31
0.0
  0
LINE
  5
4A
100
AcDbEntity
  8
0
100
AcDbLine
 10
13.406
 20
69.926
 30
0.0
 11
13.656
 21
69.926
 31
0.0
  0
LINE
  5
4B
100
AcDbEntity
  8
0
100
AcDbLine
 10
13.725
 20
71.426
 30
0.0
 11
13.975
 21
71.426
 31
0.0
  0
LINE
  5
4C
100
AcDbEntity
  8
0
100
AcDbLine
 10
13.406
 20
66.88
 30
0.0
 11
13.656
 21
66.88
 31
0.0
  0
LINE
  5
4D
100
AcDbEntity
  8
0
100
AcDbLine
 10
14.237
 20
16.781
 30
0.0
 11
14.237
 21
69.863
 31
0.0
  0
LINE
  5
4E
100
AcDbEntity
  8
0
100
AcDbLine
 10
14.237
 20
69.863
 30
0.0
 11
14.556
 21
71.363
 31
0.0
  0
LINE
  5
4F
100
AcDbEntity
  8
0
100
AcDbLine
 10
14.112
 20
69.863
 30
0.0
 11
14.362
 21
69.863
 31
0.0
  0
LINE
  5
50
100
AcDbEntity
  8
0
100
AcDbLine
 10
14.431
 20
71.363
 30
0.0
 11
14.681
 21
71.363
 31
0.0
  0
LINE
  5
51
100
AcDbEntity
  8
0
100
AcDbLine
 10
14.112
 20
66.884
 30
0.0
 11
14.362
 21
66.884
 31
0.0
  0
LINE
  5
52
100
AcDbEntity
  8
0
100
AcDbLine
 10
14.943
 20
17.911
 30
0.0
 11
14.943
 21
69.8
 31
0.0
  0
LINE
  5
53
100
AcDbEntity
  8
0
100
AcDbLine
 10
14.943
 20
69.8
 30
0.0
 11
15.262
 21
71.3
 31
0.0
  0
LINE
  5
54
100
AcDbEntity
  8
0
100
AcDbLine
 10
14.818
 20
69.8
 30
0.0
 11
15.068
 21
69.8
 31
0.0
  0
LINE
  5
55
100
AcDbEntity
  8
0
100
AcDbLine
 10
15.137
 20
71.3
 30
0.0
 11
15.387
 21
71.3
 31
0.0
  0
LINE
  5
56
100
AcDbEntity
  8
0
100
AcDbLine
 10
14.818
 20
66.888
 30
0.0
 11
15.068
 21
66.888
 31
0.0
  0
LINE
  5
57
100
AcDbEntity
  8
0
100
AcDbLine
 10
15.65
 20
19.041
 30
0.0
 11
15.65
 21
69.538
 31
0.0
  0
LINE
  5
58
100
AcDbEntity
  8
0
100
AcDbLine
 10
15.65
 20
69.538
 30
0.0
 11
15.968
 21
71.038
 31
0.0
  0
LINE
  5
59
100
AcDbEntity
  8
0
100
AcDbLine
 10
15.525
 20
69.538
 30
0.0
 11
15.775
 21
69.538
 31
0.0
  0
LINE
  5
5A
100
AcDbEntity
  8
0
100
AcDbLine
 10
15.843
 20
71.038
 30
0.0
 11
16.093
 21
71.038
 31
0.0
  0
LINE
  5
5B
100
AcDbEntity
  8
0
100
AcDbLine
 10
15.525
 20
66.704
 30
0.0
 11
15.775
 21
66.704
 31
0.0
  0
LINE
  5
5C
100
AcDbEntity
  8
0
100
AcDbLine
 10
16.356
 20
20.171
 30
0.0
 11
16.356
 21
69.078
 31
0.0
  0
LINE
  5
5D
100
AcDbEntity
  8
0
100
AcDbLine
 10
16.356
 20
69.078
 30
0.0
 11
16.675
 21
70.578
 31
0.0
  0
LINE
  5
5E
100
AcDbEntity
  8
0
100
AcDbLine
 10
16.231
 20
69.078
 30
0.0
 11
16.481
 21
69.078
 31
0.0
  0
LINE
  5
5F
100
AcDbEntity
  8
0
100
AcDbLine
 10
16.55
 20
70.578
 30
0.0
 11
16.8
 21
70.578
 31
0.0
  0
LINE
  5
60
100
AcDbEntity
  8
0
100
AcDbLine
 10
16.231
 20
66.334
 30
0.0
 11
16.481
 21
66.334
 31
0.0
  0
LINE
  5
61
100
AcDbEntity
  8
0
100
AcDbLine
 10
17.062
 20
21.302
 30
0.0
 11
17.062
 21
69.414
 31
0.0
  0
LINE
  5
62
100
AcDbEntity
  8
0
100
AcDbLine
 10
17.062
 20
69.414
 30
0.0
 11
17.381
 21
70.914
 31
0.0
  0
LINE
  5
63
100
AcDbEntity
  8
0
100
AcDbLine
 10
16.937
 20
69.414
 30
0.0
 11
17.187
 21
69.414
 31
0.0
  0
LINE
  5
64
100
AcDbEntity
  8
0
100
AcDbLine
 10
17.256
 20
70.914
 30
0.0
 11
17.506
 21
70.914
 31
0.0
  0
LINE
  5
65
100
AcDbEntity
  8
0
100
AcDbLine
 10
16.937
 20
66.713
 30
0.0
 11
17.187
 21
66.713
 31
0.0
  0
LINE
  5
66
100
AcDbEntity
  8
0
100
AcDbLine
 10
17.768
 20
22.432
 30
0.0
 11
17.768
 21
69.152
 31
0.0
  0
LINE
  5
67
100
AcDbEntity
  8
0
100
AcDbLine
 10
17.768
 20
69.152
 30
0.0
 11
18.087
 21
70.652
 31
0.0
  0
LINE
  5
68
100
AcDbEntity
  8
0
100
AcDbLine
 10
17.643
 20
69.152
 30
0.0
 11
17.893
 21
69.152
 31
0.0
  0
LINE
  5
69
100
AcDbEntity
  8
0
100
AcDbLine
 10
17.962
 20
70.652
 30
0.0
 11
18.212
 21
70.652
 31
0.0
  0
LINE
  5
6A
100
AcDbEntity
  8
0
100
AcDbLine
 10
17.643
 20
66.53
 30
0.0
 11
17.893
 21
66.53
 31
0.0
  0
LINE
  5
6B
100
AcDbEntity
  8
0
100
AcDbLine
 10
18.454
 20
23.53
 30
0.0
 11
18.454
 21
67.268
 31
0.0
  0
LINE
  5
6C
100
AcDbEntity
  8
0
100
AcDbLine
 10
18.454
 20
67.268
 30
0.0
 11
18.773
 21
68.768
 31
0.0
  0
LINE
  5
6D
100
AcDbEntity
  8
0
100
AcDbLine
 10
18.329
 20
67.268
 30
0.0
 11
18.579
 21
67.268
 31
0.0
  0
LINE
  5
6E
100
AcDbEntity
  8
0
100
AcDbLine
 10
18.648
 20
68.768
 30
0.0
 11
18.898
 21
68.768
 31
0.0
  0
LINE
  5
6F
100
AcDbEntity
  8
0
100
AcDbLine
 10
18.329
 20
64.813
 30
0.0
 11
18.579
 21
64.813
 31
0.0
  0
LINE
  5
70
100
AcDbEntity
  8
0
100
AcDbLine
 10
19.14
 20
24.627
 30
0.0
 11
19.14
 21
66.178
 31
0.0
  0
LINE
  5
71
100
AcDbEntity
  8
0
100
AcDbLine
 10
19.14
 20
66.178
 30
0.0
 11
19.459
 21
67.678
 31
0.0
  0
LINE
  5
72
100
AcDbEntity
  8
0
100
AcDbLine
 10
19.015
 20
66.178
 30
0.0
 11
19.265
 21
66.178
 31
0.0
  0
LINE
  5
73
100
AcDbEntity
  8
0
100
AcDbLine
 10
19.334
 20
67.678
 30
0.0
 11
19.584
 21
67.678
 31
0.0
  0
LINE
  5
74
100
AcDbEntity
  8
0
100
AcDbLine
 10
19.015
 20
63.847
 30
0.0
 11
19.265
 21
63.847
 31
0.0
  0
LINE
  5
75
100
AcDbEntity
  8
0
100
AcDbLine
 10
19.826
 20
25.725
 30
0.0
 11
19.826
 21
64.692
 31
0.0
  0
LINE
  5
76
100
AcDbEntity
  8
0
100
AcDbLine
 10
19.826
 20
64.692
 30
0.0
 11
20.145
 21
66.192
 31
0.0
  0
LINE
  5
77
100
AcDbEntity
  8
0
100
AcDbLine
 10
19.701
 20
64.692
 30
0.0
 11
19.951
 21
64.692
 31
0.0
  0
LINE
  5
78
100
AcDbEntity
  8
0
100
AcDbLine
 10
20.02
 20
66.192
 30
0.0
 11
20.27
 21
66.192
 31
0.0
  0
LINE
  5
79
100
AcDbEntity
  8
0
100
AcDbLine
 10
19.701
 20
62.505
 30
0.0
 11
19.951
 21
62.505
 31
0.0
  0
LINE
  5
7A
100
AcDbEntity
  8
0
100
AcDbLine
 10
20.512
 20
26.823
 30
0.0
 11
20.512
 21
63.205
 31
0.0
  0
LINE
  5
7B
100
AcDbEntity
  8
0
100
AcDbLine
 10
20.512
 20
63.205
 30
0.0
 11
20.831
 21
64.705
 31
0.0
  0
LINE
  5
7C
100
AcDbEntity
  8
0
100
AcDbLine
 10
20.387
 20
63.205
 30
0.0
 11
20.637
 21
63.205
 31
0.0
  0
LINE
  5
7D
100
AcDbEntity
  8
0
100
AcDbLine
 10
20.706
 20
64.705
 30
0.0
 11
20.956
 21
64.705
 31
0.0
  0
LINE
  5
7E
100
AcDbEntity
  8
0
100
AcDbLine
 10
20.387
 20
61.163
 30
0.0
 11
20.637
 21
61.163
 31
0.0
  0
LINE
  5
7F
100
AcDbEntity
  8
0
100
AcDbLine
 10
21.158
 20
27.856
 30
0.0
 11
21.158
 21
61.852
 31
0.0
  0
LINE
  5
80
100
AcDbEntity
  8
0
100
AcDbLine
 10
21.158
 20
61.852
 30
0.0
 11
21.477
 21
63.352
 31
0.0
  0
LINE
  5
81
100
AcDbEntity
  8
0
100
AcDbLine
 10
21.033
 20
61.852
 30
0.0
 11
21.283
 21
61.852
 31
0.0
  0
LINE
  5
82
100
AcDbEntity
  8
0
100
AcDbLine
 10
21.352
 20
63.352
 30
0.0
 11
21.602
 21
63.352
 31
0.0
  0
LINE
  5
83
100
AcDbEntity
  8
0
100
AcDbLine
 10
21.033
 20
59.945
 30
0.0
 11
21.283
 21
59.945
 31
0.0
  0
LINE
  5
84
100
AcDbEntity
  8
0
100
AcDbLine
 10
21.804
 20
28.89
 30
0.0
 11
21.804
 21
60.103
 31
0.0
  0
LINE
  5
85
100
AcDbEntity
  8
0
100
AcDbLine
 10
21.804
 20
60.103
 30
0.0
 11
22.122
 21
61.603
 31
0.0
  0
LINE
  5
86
100
AcDbEntity
  8
0
100
AcDbLine
 10
21.679
 20
60.103
 30
0.0
 11
21.929
 21
60.103
 31
0.0
  0
LINE
  5
87
100
AcDbEntity
  8
0
100
AcDbLine
 10
21.997
 20
61.603
 30
0.0
 11
22.247
 21
61.603
 31
0.0
  0
LINE
  5
88
100
AcDbEntity
  8
0
100
AcDbLine
 10
21.679
 20
58.351
 30
0.0
 11
21.929
 21
58.351
 31
0.0
  0
LINE
  5
89
100
AcDbEntity
  8
0
100
AcDbLine
 10
22.449
 20
29.923
 30
0.0
 11
22.449
 21
58.75
 31
0.0
  0
LINE
  5
8A
100
AcDbEntity
  8
0
100
AcDbLine
 10
22.449
 20
58.75
 30
0.0
 11
22.768
 21
60.25
 31
0.0
  0
LINE
  5
8B
100
AcDbEntity
  8
0
100
AcDbLine
 10
22.324
 20
58.75
 30
0.0
 11
22.574
 21
58.75
 31
0.0
  0
LINE
  5
8C
100
AcDbEntity
  8
0
100
AcDbLine
 10
22.643
 20
60.25
 30
0.0
 11
22.893
 21
60.25
 31
0.0
  0
LINE
  5
8D
100
AcDbEntity
  8
0
100
AcDbLine
 10
22.324
 20
57.132
 30
0.0
 11
22.574
 21
57.132
 31
0.0
  0
LINE
  5
8E
100
AcDbEntity
  8
0
100
AcDbLine
 10
23.055
 20
30.892
 30
0.0
 11
23.055
 21
57.135
 31
0.0
  0
LINE
  5
8F
100
AcDbEntity
  8
0
100
AcDbLine
 10
23.055
 20
57.135
 30
0.0
 11
23.373
 21
58.635
 31
0.0
  0
LINE
  5
90
100
AcDbEntity
  8
0
100
AcDbLine
 10
22.93
 20
57.135
 30
0.0
 11
23.18
 21
57.135
 31
0.0
  0
LINE
  5
91
100
AcDbEntity
  8
0
100
AcDbLine
 10
23.248
 20
58.635
 30
0.0
 11
23.498
 21
58.635
 31
0.0
  0
LINE
  5
92
100
AcDbEntity
  8
0
100
AcDbLine
 10
22.93
 20
55.662
 30
0.0
 11
23.18
 21
55.662
 31
0.0
  0
LINE
  5
93
100
AcDbEntity
  8
0
100
AcDbLine
 10
23.66
 20
31.86
 30
0.0
 11
23.66
 21
56.314
 31
0.0
  0
LINE
  5
94
100
AcDbEntity
  8
0
100
AcDbLine
 10
23.66
 20
56.314
 30
0.0
 11
23.979
 21
57.814
 31
0.0
  0
LINE
  5
95
100
AcDbEntity
  8
0
100
AcDbLine
 10
23.535
 20
56.314
 30
0.0
 11
23.785
 21
56.314
 31
0.0
  0
LINE
  5
96
100
AcDbEntity
  8
0
100
AcDbLine
 10
23.854
 20
57.814
 30
0.0
 11
24.104
 21
57.814
 31
0.0
  0
LINE
  5
97
100
AcDbEntity
  8
0
100
AcDbLine
 10
23.535
 20
54.942
 30
0.0
 11
23.785
 21
54.942
 31
0.0
  0
LINE
  5
98
100
AcDbEntity
  8
0
100
AcDbLine
 10
24.265
 20
32.829
 30
0.0
 11
24.265
 21
55.294
 31
0.0
  0
LINE
  5
99
100
AcDbEntity
  8
0
100
AcDbLine
 10
24.265
 20
55.294
 30
0.0
 11
24.584
 21
56.794
 31
0.0
  0
LINE
  5
9A
100
AcDbEntity
  8
0
100
AcDbLine
 10
24.14
 20
55.294
 30
0.0
 11
24.39
 21
55.294
 31
0.0
  0
LINE
  5
9B
100
AcDbEntity
  8
0
100
AcDbLine
 10
24.459
 20
56.794
 30
0.0
 11
24.709
 21
56.794
 31
0.0
  0
LINE
  5
9C
100
AcDbEntity
  8
0
100
AcDbLine
 10
24.14
 20
54.033
 30
0.0
 11
24.39
 21
54.033
 31
0.0
  0
LINE
  5
9D
100
AcDbEntity
  8
0
100
AcDbLine
 10
24.871
 20
33.798
 30
0.0
 11
24.871
 21
54.474
 31
0.0
  0
LINE
  5
9E
100
AcDbEntity
  8
0
100
AcDbLine
 10
24.871
 20
54.474
 30
0.0
 11
25.189
 21
55.974
 31
0.0
  0
LINE
  5
9F
100
AcDbEntity
  8
0
100
AcDbLine
 10
24.746
 20
54.474
 30
0.0
 11
24.996
 21
54.474
 31
0.0
  0
LINE
  5
A0
100
AcDbEntity
  8
0
100
AcDbLine
 10
25.064
 20
55.974
 30
0.0
 11
25.314
 21
55.974
 31
0.0
  0
LINE
  5
A1
100
AcDbEntity
  8
0
100
AcDbLine
 10
24.746
 20
53.313
 30
0.0
 11
24.996
 21
53.313
 31
0.0
  0
LINE
  5
A2
100
AcDbEntity
  8
0
100
AcDbLine
 10
25.476
 20
34.767
 30
0.0
 11
25.476
 21
53.853
 31
0.0
  0
LINE
  5
A3
100
AcDbEntity
  8
0
100
AcDbLine
 10
25.476
 20
53.853
 30
0.0
 11
25.795
 21
55.353
 31
0.0
  0
LINE
  5
A4
100
AcDbEntity
  8
0
100
AcDbLine
 10
25.351
 20
53.853
 30
0.0
 11
25.601
 21
53.853
 31
0.0
  0
LINE
  5
A5
100
AcDbEntity
  8
0
100
AcDbLine
 10
25.67
 20
55.353
 30
0.0
 11
25.92
 21
55.353
 31
0.0
  0
LINE
  5
A6
100
AcDbEntity
  8
0
100
AcDbLine
 10
25.351
 20
52.781
 30
0.0
 11
25.601
 21
52.781
 31
0.0
  0
LINE
  5
A7
100
AcDbEntity
  8
0
100
AcDbLine
 10
26.081
 20
35.735
 30
0.0
 11
26.081
 21
53.429
 31
0.0
  0
LINE
  5
A8
100
AcDbEntity
  8
0
100
AcDbLine
 10
26.081
 20
53.429
 30
0.0
 11
26.4
 21
54.929
 31
0.0
  0
LINE
  5
A9
100
AcDbEntity
  8
0
100
AcDbLine
 10
25.956
 20
53.429
 30
0.0
 11
26.206
 21
53.429
 31
0.0
  0
LINE
  5
AA
100
AcDbEntity
  8
0
100
AcDbLine
 10
26.275
 20
54.929
 30
0.0
 11
26.525
 21
54.929
 31
0.0
  0
LINE
  5
AB
100
AcDbEntity
  8
0
100
AcDbLine
 10
25.956
 20
52.436
 30
0.0
 11
26.206
 21
52.436
 31
0.0
  0
LINE
  5
AC
100
AcDbEntity
  8
0
100
AcDbLine
 10
26.686
 20
36.704
 30
0.0
 11
26.686
 21
53.006
 31
0.0
  0
LINE
  5
AD
100
AcDbEntity
  8
0
100
AcDbLine
 10
26.686
 20
53.006
 30
0.0
 11
27.005
 21
54.506
 31
0.0
  0
LINE
  5
AE
100
AcDbEntity
  8
0
100
AcDbLine
 10
26.561
 20
53.006
 30
0.0
 11
26.811
 21
53.006
 31
0.0
  0
LINE
  5
AF
100
AcDbEntity
  8
0
100
AcDbLine
 10
26.88
 20
54.506
 30
0.0
 11
27.13
 21
54.506
 31
0.0
  0
LINE
  5
B0
100
AcDbEntity
  8
0
100
AcDbLine
 10
26.561
 20
52.091
 30
0.0
 11
26.811
 21
52.091
 31
0.0
  0
LINE
  5
B1
100
AcDbEntity
  8
0
100
AcDbLine
 10
27.251
 20
37.608
 30
0.0
 11
27.251
 21
52.717
 31
0.0
  0
LINE
  5
B2
100
AcDbEntity
  8
0
100
AcDbLine
 10
27.251
 20
52.717
 30
0.0
 11
27.57
 21
54.217
 31
0.0
  0
LINE
  5
B3
100
AcDbEntity
  8
0
100
AcDbLine
 10
27.126
 20
52.717
 30
0.0
 11
27.376
 21
52.717
 31
0.0
  0
LINE
  5
B4
100
AcDbEntity
  8
0
100
AcDbLine
 10
27.445
 20
54.217
 30
0.0
 11
27.695
 21
54.217
 31
0.0
  0
LINE
  5
B5
100
AcDbEntity
  8
0
100
AcDbLine
 10
27.126
 20
51.869
 30
0.0
 11
27.376
 21
51.869
 31
0.0
  0
LINE
  5
B6
100
AcDbEntity
  8
0
100
AcDbLine
 10
27.816
 20
38.512
 30
0.0
 11
27.816
 21
52.429
 31
0.0
  0
LINE
  5
B7
100
AcDbEntity
  8
0
100
AcDbLine
 10
27.816
 20
52.429
 30
0.0
 11
28.135
 21
53.929
 31
0.0
  0
LINE
  5
B8
100
AcDbEntity
  8
0
100
AcDbLine
 10
27.691
 20
52.429
 30
0.0
 11
27.941
 21
52.429
 31
0.0
  0
LINE
  5
B9
100
AcDbEntity
  8
0
100
AcDbLine
 10
28.01
 20
53.929
 30
0.0
 11
28.26
 21
53.929
 31
0.0
  0
LINE
  5
BA
100
AcDbEntity
  8
0
100
AcDbLine
 10
27.691
 20
51.648
 30
0.0
 11
27.941
 21
51.648
 31
0.0
  0
LINE
  5
BB
100
AcDbEntity
  8
0
100
AcDbLine
 10
28.381
 20
39.416
 30
0.0
 11
28.381
 21
52.339
 31
0.0
  0
LINE
  5
BC
100
AcDbEntity
  8
0
100
AcDbLine
 10
28.381
 20
52.339
 30
0.0
 11
28.7
 21
53.839
 31
0.0
  0
LINE
  5
BD
100
AcDbEntity
  8
0
100
AcDbLine
 10
28.256
 20
52.339
 30
0.0
 11
28.506
 21
52.339
 31
0.0
  0
LINE
  5
BE
100
AcDbEntity
  8
0
100
AcDbLine
 10
28.575
 20
53.839
 30
0.0
 11
28.825
 21
53.839
 31
0.0
  0
LINE
  5
BF
100
AcDbEntity
  8
0
100
AcDbLine
 10
28.256
 20
51.614
 30
0.0
 11
28.506
 21
51.614
 31
0.0
  0
LINE
  5
C0
100
AcDbEntity
  8
0
100
AcDbLine
 10
28.946
 20
40.32
 30
0.0
 11
28.946
 21
52.249
 31
0.0
  0
LINE
  5
C1
100
AcDbEntity
  8
0
100
AcDbLine
 10
28.946
 20
52.249
 30
0.0
 11
29.265
 21
53.749
 31
0.0
  0
LINE
  5
C2
100
AcDbEntity
  8
0
100
AcDbLine
 10
28.821
 20
52.249
 30
0.0
 11
29.071
 21
52.249
 31
0.0
  0
LINE
  5
C3
100
AcDbEntity
  8
0
100
AcDbLine
 10
29.14
 20
53.749
 30
0.0
 11
29.39
 21
53.749
 31
0.0
  0
LINE
  5
C4
100
AcDbEntity
  8
0
100
AcDbLine
 10
28.821
 20
51.58
 30
0.0
 11
29.071
 21
51.58
 31
0.0
  0
LINE
  5
C5
100
AcDbEntity
  8
0
100
AcDbLine
 10
29.511
 20
41.225
 30
0.0
 11
29.511
 21
52.159
 31
0.0
  0
LINE
  5
C6
100
AcDbEntity
  8
0
100
AcDbLine
 10
29.511
 20
52.159
 30
0.0
 11
29.83
 21
53.659
 31
0.0
  0
LINE
  5
C7
100
AcDbEntity
  8
0
100
AcDbLine
 10
29.386
 20
52.159
 30
0.0
 11
29.636
 21
52.159
 31
0.0
  0
LINE
  5
C8
100
AcDbEntity
  8
0
100
AcDbLine
 10
29.705
 20
53.659
 30
0.0
 11
29.955
 21
53.659
 31
0.0
  0
LINE
  5
C9
100
AcDbEntity
  8
0
100
AcDbLine
 10
29.386
 20
51.545
 30
0.0
 11
29.636
 21
51.545
 31
0.0
  0
LINE
  5
CA
100
AcDbEntity
  8
0
100
AcDbLine
 10
30.076
 20
42.129
 30
0.0
 11
30.076
 21
52.467
 31
0.0
  0
LINE
  5
CB
100
AcDbEntity
  8
0
100
AcDbLine
 10
30.076
 20
52.467
 30
0.0
 11
30.395
 21
53.967
 31
0.0
  0
LINE
  5
CC
100
AcDbEntity
  8
0
100
AcDbLine
 10
29.951
 20
52.467
 30
0.0
 11
30.201
 21
52.467
 31
0.0
  0
LINE
  5
CD
100
AcDbEntity
  8
0
100
AcDbLine
 10
30.27
 20
53.967
 30
0.0
 11
30.52
 21
53.967
 31
0.0
  0
LINE
  5
CE
100
AcDbEntity
  8
0
100
AcDbLine
 10
29.951
 20
51.886
 30
0.0
 11
30.201
 21
51.886
 31
0.0
  0
LINE
  5
CF
100
AcDbEntity
  8
0
100
AcDbLine
 10
30.641
 20
43.033
 30
0.0
 11
30.641
 21
52.377
 31
0.0
  0
LINE
  5
D0
100
AcDbEntity
  8
0
100
AcDbLine
 10
30.641
 20
52.377
 30
0.0
 11
30.96
 21
53.877
 31
0.0
  0
LINE
  5
D1
100
AcDbEntity
  8
0
100
AcDbLine
 10
30.516
 20
52.377
 30
0.0
 11
30.766
 21
52.377
 31
0.0
  0
LINE
  5
D2
100
AcDbEntity
  8
0
100
AcDbLine
 10
30.835
 20
53.877
 30
0.0
 11
31.085
 21
53.877
 31
0.0
  0
LINE
  5
D3
100
AcDbEntity
  8
0
100
AcDbLine
 10
30.516
 20
51.852
 30
0.0
 11
30.766
 21
51.852
 31
0.0
  0
LINE
  5
D4
100
AcDbEntity
  8
0
100
AcDbLine
 10
31.166
 20
43.872
 30
0.0
 11
31.166
 21
52.62
 31
0.0
  0
LINE
  5
D5
100
AcDbEntity
  8
0
100
AcDbLine
 10
31.166
 20
52.62
 30
0.0
 11
31.485
 21
54.12
 31
0.0
  0
LINE
  5
D6
100
AcDbEntity
  8
0
100
AcDbLine
 10
31.041
 20
52.62
 30
0.0
 11
31.291
 21
52.62
 31
0.0
  0
LINE
  5
D7
100
AcDbEntity
  8
0
100
AcDbLine
 10
31.36
 20
54.12
 30
0.0
 11
31.61
 21
54.12
 31
0.0
  0
LINE
  5
D8
100
AcDbEntity
  8
0
100
AcDbLine
 10
31.041
 20
52.129
 30
0.0
 11
31.291
 21
52.129
 31
0.0
  0
LINE
  5
D9
100
AcDbEntity
  8
0
100
AcDbLine
 10
31.69
 20
44.712
 30
0.0
 11
31.69
 21
52.863
 31
0.0
  0
LINE
  5
DA
100
AcDbEntity
  8
0
100
AcDbLine
 10
31.69
 20
52.863
 30
0.0
 11
32.009
 21
54.363
 31
0.0
  0
LINE
  5
DB
100
AcDbEntity
  8
0
100
AcDbLine
 10
31.565
 20
52.863
 30
0.0
 11
31.815
 21
52.863
 31
0.0
  0
LINE
  5
DC
100
AcDbEntity
  8
0
100
AcDbLine
 10
31.884
 20
54.363
 30
0.0
 11
32.134
 21
54.363
 31
0.0
  0
LINE
  5
DD
100
AcDbEntity
  8
0
100
AcDbLine
 10
31.565
 20
52.405
 30
0.0
 11
31.815
 21
52.405
 31
0.0
  0
LINE
  5
DE
100
AcDbEntity
  8
0
100
AcDbLine
 10
32.215
 20
45.551
 30
0.0
 11
32.215
 21
53.106
 31
0.0
  0
LINE
  5
DF
100
AcDbEntity
  8
0
100
AcDbLine
 10
32.215
 20
53.106
 30
0.0
 11
32.534
 21
54.606
 31
0.0
  0
LINE
  5
E0
100
AcDbEntity
  8
0
100
AcDbLine
 10
32.09
 20
53.106
 30
0.0
 11
32.34
 21
53.106
 31
0.0
  0
LINE
  5
E1
100
AcDbEntity
  8
0
100
AcDbLine
 10
32.409
 20
54.606
 30
0.0
 11
32.659
 21
54.606
 31
0.0
  0
LINE
  5
E2
100
AcDbEntity
  8
0
100
AcDbLine
 10
32.09
 20
52.682
 30
0.0
 11
32.34
 21
52.682
 31
0.0
  0
LINE
  5
E3
100
AcDbEntity
  8
0
100
AcDbLine
 10
32.74
 20
46.391
 30
0.0
 11
32.74
 21
53.349
 31
0.0
  0
LINE
  5
E4
100
AcDbEntity
  8
0
100
AcDbLine
 10
32.74
 20
53.349
 30
0.0
 11
33.058
 21
54.849
 31
0.0
  0
LINE
  5
E5
100
AcDbEntity
  8
0
100
AcDbLine
 10
32.615
 20
53.349
 30
0.0
 11
32.865
 21
53.349
 31
0.0
  0
LINE
  5
E6
100
AcDbEntity
  8
0
100
AcDbLine
 10
32.933
 20
54.849
 30
0.0
 11
33.183
 21
54.849
 31
0.0
  0
LINE
  5
E7
100
AcDbEntity
  8
0
100
AcDbLine
 10
32.615
 20
52.958
 30
0.0
 11
32.865
 21
52.958
 31
0.0
  0
LINE
  5
E8
100
AcDbEntity
  8
0
100
AcDbLine
 10
33.264
 20
47.23
 30
0.0
 11
33.264
 21
53.592
 31
0.0
  0
LINE
  5
E9
100
AcDbEntity
  8
0
100
AcDbLine
 10
33.264
 20
53.592
 30
0.0
 11
33.583
 21
55.092
 31
0.0
  0
LINE
  5
EA
100
AcDbEntity
  8
0
100
AcDbLine
 10
33.139
 20
53.592
 30
0.0
 11
33.389
 21
53.592
 31
0.0
  0
LINE
  5
EB
100
AcDbEntity
  8
0
100
AcDbLine
 10
33.458
 20
55.092
 30
0.0
 11
33.708
 21
55.092
 31
0.0
  0
LINE
  5
EC
100
AcDbEntity
  8
0
100
AcDbLine
 10
33.139
 20
53.235
 30
0.0
 11
33.389
 21
53.235
 31
0.0
  0
LINE
  5
ED
100
AcDbEntity
  8
0
100
AcDbLine
 10
33.789
 20
48.07
 30
0.0
 11
33.789
 21
53.835
 31
0.0
  0
LINE
  5
EE
100
AcDbEntity
  8
0
100
AcDbLine
 10
33.789
 20
53.835
 30
0.0
 11
34.108
 21
55.335
 31
0.0
  0
LINE
  5
EF
100
AcDbEntity
  8
0
100
AcDbLine
 10
33.664
 20
53.835
 30
0.0
 11
33.914
 21
53.835
 31
0.0
  0
LINE
  5
F0
100
AcDbEntity
  8
0
100
AcDbLine
 10
33.983
 20
55.335
 30
0.0
 11
34.233
 21
55.335
 31
0.0
  0
LINE
  5
F1
100
AcDbEntity
  8
0
100
AcDbLine
 10
33.664
 20
53.511
 30
0.0
 11
33.914
 21
53.511
 31
0.0
  0
LINE
  5
F2
100
AcDbEntity
  8
0
100
AcDbLine
 10
34.313
 20
48.91
 30
0.0
 11
34.313
 21
54.079
 31
0.0
  0
LINE
  5
F3
100
AcDbEntity
  8
0
100
AcDbLine
 10
34.313
 20
54.079
 30
0.0
 11
34.632
 21
55.579
 31
0.0
  0
LINE
  5
F4
100
AcDbEntity
  8
0
100
AcDbLine
 10
34.188
 20
54.079
 30
0.0
 11
34.438
 21
54.079
 31
0.0
  0
LINE
  5
F5
100
AcDbEntity
  8
0
100
AcDbLine
 10
34.507
 20
55.579
 30
0.0
 11
34.757
 21
55.579
 31
0.0
  0
LINE
  5
F6
100
AcDbEntity
  8
0
100
AcDbLine
 10
34.188
 20
53.788
 30
0.0
 11
34.438
 21
53.788
 31
0.0
  0
LINE
  5
F7
100
AcDbEntity
  8
0
100
AcDbLine
 10
34.838
 20
49.749
 30
0.0
 11
34.838
 21
54.52
 31
0.0
  0
LINE
  5
F8
100
AcDbEntity
  8
0
100
AcDbLine
 10
34.838
 20
54.52
 30
0.0
 11
35.157
 21
56.02
 31
0.0
  0
LINE
  5
F9
100
AcDbEntity
  8
0
100
AcDbLine
 10
34.713
 20
54.52
 30
0.0
 11
34.963
 21
54.52
 31
0.0
  0
LINE
  5
FA
100
AcDbEntity
  8
0
100
AcDbLine
 10
35.032
 20
56.02
 30
0.0
 11
35.282
 21
56.02
 31
0.0
  0
LINE
  5
FB
100
AcDbEntity
  8
0
100
AcDbLine
 10
34.713
 20
54.252
 30
0.0
 11
34.963
 21
54.252
 31
0.0
  0
LINE
  5
FC
100
AcDbEntity
  8
0
100
AcDbLine
 10
35.363
 20
50.589
 30
0.0
 11
35.363
 21
54.963
 31
0.0
  0
LINE
  5
FD
100
AcDbEntity
  8
0
100
AcDbLine
 10
35.363
 20
54.963
 30
0.0
 11
35.681
 21
56.463
 31
0.0
  0
LINE
  5
FE
100
AcDbEntity
  8
0
100
AcDbLine
 10
35.238
 20
54.963
 30
0.0
 11
35.488
 21
54.963
 31
0.0
  0
LINE
  5
FF
100
AcDbEntity
  8
0
100
AcDbLine
 10
35.556
 20
56.463
 30
0.0
 11
35.806
 21
56.463
 31
0.0
  0
LINE
  5
100
100
AcDbEntity
  8
0
100
AcDbLine
 10
35.238
 20
54.717
 30
0.0
 11
35.488
 21
54.717
 31
0.0
  0
LINE
  5
101
100
AcDbEntity
  8
0
100
AcDbLine
 10
35.887
 20
51.428
 30
0.0
 11
35.887
 21
55.404
 31
0.0
  0
LINE
  5
102
100
AcDbEntity
  8
0
100
AcDbLine
 10
35.887
 20
55.404
 30
0.0
 11
36.206
 21
56.904
 31
0.0
  0
LINE
  5
103
100
AcDbEntity
  8
0
100
AcDbLine
 10
35.762
 20
55.404
 30
0.0
 11
36.012
 21
55.404
 31
0.0
  0
LINE
  5
104
100
AcDbEntity
  8
0
100
AcDbLine
 10
36.081
 20
56.904
 30
0.0
 11
36.331
 21
56.904
 31
0.0
  0
LINE
  5
105
100
AcDbEntity
  8
0
100
AcDbLine
 10
35.762
 20
55.181
 30
0.0
 11
36.012
 21
55.181
 31
0.0
  0
LINE
  5
106
100
AcDbEntity
  8
0
100
AcDbLine
 10
36.412
 20
52.268
 30
0.0
 11
36.412
 21
55.847
 31
0.0
  0
LINE
  5
107
100
AcDbEntity
  8
0
100
AcDbLine
 10
36.412
 20
55.847
 30
0.0
 11
36.731
 21
57.347
 31
0.0
  0
LINE
  5
108
100
AcDbEntity
  8
0
100
AcDbLine
 10
36.287
 20
55.847
 30
0.0
 11
36.537
 21
55.847
 31
0.0
  0
LINE
  5
109
100
AcDbEntity
  8
0
100
AcDbLine
 10
36.606
 20
57.347
 30
0.0
 11
36.856
 21
57.347
 31
0.0
  0
LINE
  5
10A
100
AcDbEntity
  8
0
100
AcDbLine
 10
36.287
 20
55.646
 30
0.0
 11
36.537
 21
55.646
 31
0.0
  0
LINE
  5
10B
100
AcDbEntity
  8
0
100
AcDbLine
 10
36.936
 20
53.107
 30
0.0
 11
36.936
 21
56.288
 31
0.0
  0
LINE
  5
10C
100
AcDbEntity
  8
0
100
AcDbLine
 10
36.936
 20
56.288
 30
0.0
 11
37.255
 21
57.788
 31
0.0
  0
LINE
  5
10D
100
AcDbEntity
  8
0
100
AcDbLine
 10
36.811
 20
56.288
 30
0.0
 11
37.061
 21
56.288
 31
0.0
  0
LINE
  5
10E
100
AcDbEntity
  8
0
100
AcDbLine
 10
37.13
 20
57.788
 30
0.0
 11
37.38
 21
57.788
 31
0.0
  0
LINE
  5
10F
100
AcDbEntity
  8
0
100
AcDbLine
 10
36.811
 20
56.11
 30
0.0
 11
37.061
 21
56.11
 31
0.0
  0
LINE
  5
110
100
AcDbEntity
  8
0
100
AcDbLine
 10
37.461
 20
53.947
 30
0.0
 11
37.461
 21
56.73
 31
0.0
  0
LINE
  5
111
100
AcDbEntity
  8
0
100
AcDbLine
 10
37.461
 20
56.73
 30
0.0
 11
37.78
 21
58.23
 31
0.0
  0
LINE
  5
112
100
AcDbEntity
  8
0
100
AcDbLine
 10
37.336
 20
56.73
 30
0.0
 11
37.586
 21
56.73
 31
0.0
  0
LINE
  5
113
100
AcDbEntity
  8
0
100
AcDbLine
 10
37.655
 20
58.23
 30
0.0
 11
37.905
 21
58.23
 31
0.0
  0
LINE
  5
114
100
AcDbEntity
  8
0
100
AcDbLine
 10
37.336
 20
56.574
 30
0.0
 11
37.586
 21
56.574
 31
0.0
  0
LINE
  5
115
100
AcDbEntity
  8
0
100
AcDbLine
 10
37.986
 20
54.786
 30
0.0
 11
37.986
 21
57.172
 31
0.0
  0
LINE
  5
116
100
AcDbEntity
  8
0
100
AcDbLine
 10
37.986
 20
57.172
 30
0.0
 11
38.304
 21
58.672
 31
0.0
  0
LINE
  5
117
100
AcDbEntity
  8
0
100
AcDbLine
 10
37.861
 20
57.172
 30
0.0
 11
38.111
 21
57.172
 31
0.0
  0
LINE
  5
118
100
AcDbEntity
  8
0
100
AcDbLine
 10
38.179
 20
58.672
 30
0.0
 11
38.429
 21
58.672
 31
0.0
  0
LINE
  5
119
100
AcDbEntity
  8
0
100
AcDbLine
 10
37.861
 20
57.038
 30
0.0
 11
38.111
 21
57.038
 31
0.0
  0
LINE
  5
11A
100
AcDbEntity
  8
0
100
AcDbLine
 10
10.0
 20
10.0
 30
0.0
 11
37.986
 21
54.786
 31
0.0
  0
TEXT
  5
11B
100
AcDbEntity
  8
0
100
AcDbText
 10
34.986
 20
22.0
 30
0.0
 40
0.617284
  1
String spacing in mm
100
AcDbText
1001
TCAD
1000
TCW40_TEXT
1002
{
1000
txt.shx
1070
     0
1070
  1025
1002
}
  0
TEXT
  5
11C
100
AcDbEntity
  8
0
100
AcDbText
 10
34.986
 20
21.0
 30
0.0
 40
0.617284
  1
From 01 to 06 =  13.325  Diag =  25.145
100
AcDbText
1001
TCAD
1000
TCW40_TEXT
1002
{
1000
txt.shx
1070
     0
1070
  1025
1002
}
  0
TEXT
  5
11D
100
AcDbEntity
  8
0
100
AcDbText
 10
34.986
 20
20.0
 30
0.0
 40
0.617284
  1
From 06 to 15 =  13.325  Diag =  25.145
100
AcDbText
1001
TCAD
1000
TCW40_TEXT
1002
{
1000
txt.shx
1070
     0
1070
  1025
1002
}
  0
TEXT
  5
11E
100
AcDbEntity
  8
0
100
AcDbText
 10
34.986
 20
19.0
 30
0.0
 40
0.617284
  1
From 15 to 22 =  14.35  Diag =  27.080
100
AcDbText
1001
TCAD
1000
TCW40_TEXT
1002
{
1000
txt.shx
1070
     0
1070
  1025
1002
}
  0
TEXT
  5
11F
100
AcDbEntity
  8
0
100
AcDbText
 10
34.986
 20
18.0
 30
0.0
 40
0.617284
  1
From 22 to 29 =  15.375  Diag =  29.014
100
AcDbText
1001
TCAD
1000
TCW40_TEXT
1002
{
1000
txt.shx
1070
     0
1070
  1025
1002
}
  0
TEXT
  5
120
100
AcDbEntity
  8
0
100
AcDbText
 10
34.986
 20
17.0
 30
0.0
 40
0.617284
  1
From 29 to 32 =  16.4  Diag =  30.948
100
AcDbText
1001
TCAD
1000
TCW40_TEXT
1002
{
1000
txt.shx
1070
     0
1070
  1025
1002
}
  0
TEXT
  5
121
100
AcDbEntity
  8
0
100
AcDbText
 10
34.986
 20
16.0
 30
0.0
 40
0.617284
  1
From 32 to 36 =  17.425  Diag =  32.882
100
AcDbText
1001
TCAD
1000
TCW40_TEXT
1002
{
1000
txt.shx
1070
     0
1070
  1025
1002
}
  0
TEXT
  5
122
100
AcDbEntity
  8
0
100
AcDbText
 10
34.986
 20
15.0
 30
0.0
 40
0.617284
  1
From 36 to 40 =  17.9375  Diag =  33.849
100
AcDbText
1001
TCAD
1000
TCW40_TEXT
1002
{
1000
txt.shx
1070
     0
1070
  1025
1002
}
  0
TEXT
  5
123
100
AcDbEntity
  8
0
100
AcDbText
 10
34.986
 20
14.0
 30
0.0
 40
0.617284
  1
Total spacing in file unit =  27.98566
100
AcDbText
1001
TCAD
1000
TCW40_TEXT
1002
{
1000
txt.shx
1070
     0
1070
  1025
1002
}
  0
TEXT
  5
124
100
AcDbEntity
  8
0
100
AcDbText
 10
34.986
 20
13.0
 30
0.0
 40
0.617284
  1
SoundBoard Length =  52.81111
100
AcDbText
1001
TCAD
1000
TCW40_TEXT
1002
{
1000
txt.shx
1070
     0
1070
  1025
1002
}
  0
TEXT
  5
125
100
AcDbEntity
  8
0
100
AcDbText
 10
34.986
 20
12.0
 30
0.0
 40
0.617284
  1
String Angle =  32  - First note = G7
100
AcDbText
1001
TCAD
1000
TCW40_TEXT
1002
{
1000
txt.shx
1070
     0
1070
  1025
1002
}
  0
TEXT
  5
126
100
AcDbEntity
  8
0
100
AcDbText
 10
34.986
 20
11.0
 30
0.0
 40
0.617284
  1
Space Ratio =  1.025
100
AcDbText
1001
TCAD
1000
TCW40_TEXT
1002
{
1000
txt.shx
1070
     0
1070
  1025
1002
}
  0
TEXT
  5
127
100
AcDbEntity
  8
0
100
AcDbText
 10
34.986
 20
10.0
 30
0.0
 40
0.617284
  1
Key length =  1.5  - Key Angle =  12
100
AcDbText
1001
TCAD
1000
TCW40_TEXT
1002
{
1000
txt.shx
1070
     0
1070
  1025
1002
}
  0
TEXT
  5
128
100
AcDbEntity
  8
0
100
AcDbText
 10
34.986
 20
8.0
 30
0.0
 40
0.617284
  1
British Unit
100
AcDbText
1001
TCAD
1000
TCW40_TEXT
1002
{
1000
txt.shx
1070
     0
1070
  1025
1002
}
  0
TEXT
  5
129
100
AcDbEntity
  8
0
100
AcDbText
 10
34.986
 20
7.0
 30
0.0
 40
0.617284
  1
Instrument = Erard Concert Harp
100
AcDbText
1001
TCAD
1000
TCW40_TEXT
1002
{
1000
txt.shx
1070
     0
1070
  1025
1002
}
  0
TEXT
  5
12A
100
AcDbEntity
  8
0
100
AcDbText
 10
34.986
 20
6.0
 30
0.0
 40
0.617284
  1
Owner = From French Harp Book
100
AcDbText
1001
TCAD
1000
TCW40_TEXT
1002
{
1000
txt.shx
1070
     0
1070
  1025
1002
}
  0
TEXT
  5
12B
100
AcDbEntity
  8
0
100
AcDbText
 10
34.986
 20
5.0
 30
0.0
 40
0.617284
  1
File name = ERARDORI
100
AcDbText
1001
TCAD
1000
TCW40_TEXT
1002
{
1000
txt.shx
1070
     0
1070
  1025
1002
}
  0
TEXT
  5
12C
100
AcDbEntity
  8
0
100
AcDbText
 10
34.986
 20
4.0
 30
0.0
 40
0.617284
  1
Date = 06-11-2019
100
AcDbText
1001
TCAD
1000
TCW40_TEXT
1002
{
1000
txt.shx
1070
     0
1070
  1025
1002
}
  0
ENDSEC
  0
SECTION
  2
OBJECTS
  0
DICTIONARY
  5
19
100
AcDbDictionary
280
     0
281
     1
  3
ACAD_GROUP
350
1A
  3
ACAD_MLINESTYLE
350
1B
  3
ACAD_LAYOUT
350
1E
  3
ACAD_PLOTSETTINGS
350
22
  3
ACAD_PLOTSTYLENAME
350
1F
  0
DICTIONARY
  5
1A
102
{ACAD_REACTORS
330
19
102
}
100
AcDbDictionary
280
     0
281
     1
  0
DICTIONARY
  5
1B
102
{ACAD_REACTORS
330
19
102
}
100
AcDbDictionary
280
     0
281
     1
  3
Standard
350
1C
  0
MLINESTYLE
  5
1C
100
AcDbMlineStyle
  2
STANDARD
 70
     0
  3

 62
   256
 51
90.0
 52
90.0
 71
     2
 49
0.5
 62
   256
  6
BYLAYER
 49
-0.5
 62
   256
  6
BYLAYER
  0
ACDBDICTIONARYWDFLT
  5
1F
102
{ACAD_REACTORS
330
19
102
}
100
AcDbDictionary
281
     1
  3
Normal
350
1D
100
AcDbDictionaryWithDefault
340
1D
  0
ACDBPLACEHOLDER
  5
1D
102
{ACAD_REACTORS
330
1F
102
}
  0
LAYOUT
  5
21
102
{ACAD_REACTORS
330
1E
102
}
100
AcDbPlotSettings
  1

  2

  4

  6

 40
0.0
 41
0.0
 42
0.0
 43
0.0
 44
0.0
 45
0.0
 46
0.0
 47
0.0
 48
0.0
 49
0.0
140
0.0
141
0.0
142
1.0
143
1.0
 70
     0
 72
     0
 73
     0
 74
     0
  7

 75
     0
147
1.0
148
0.0
149
0.0
100
AcDbLayout
  1
Layout1
 70
     0
 71
     0
 10
0.0
 20
0.0
 11
0.0
 21
0.0
 12
0.0
 22
0.0
 32
0.0
 14
0.0
 24
0.0
 34
0.0
 15
0.0
 25
0.0
 35
0.0
146
0.0
 13
0.0
 23
0.0
 33
0.0
 16
0.0
 26
0.0
 36
0.0
 17
0.0
 27
0.0
 37
0.0
 76
     0
330
B
331
0
345
0
346
0
  0
DICTIONARY
  5
1E
102
{ACAD_REACTORS
330
19
102
}
100
AcDbDictionary
280
     0
281
     1
  3
Model
350
12D
  3
_Paper_Space
350
12E
  0
DICTIONARY
  5
22
102
{ACAD_REACTORS
330
19
102
}
100
AcDbDictionary
280
     0
281
     1
  0
LAYOUT
  5
12D
100
AcDbPlotSettings
  1

  2

  4

  6

 40
0.0
 41
0.0
 42
0.0
 43
0.0
 44
0.0
 45
0.0
 46
0.0
 47
0.0
 48
0.0
 49
0.0
140
0.0
141
0.0
142
1.0
143
1.0
 70
     0
 72
     0
 73
     0
 74
     0
  7

 75
     0
147
1.0
148
0.0
149
0.0
100
AcDbLayout
  1
Model
 70
     0
 71
     0
 10
0.0
 20
0.0
 11
0.0
 21
0.0
 12
0.0
 22
0.0
 32
0.0
 14
0.0
 24
0.0
 34
0.0
 15
0.0
 25
0.0
 35
0.0
146
0.0
 13
0.0
 23
0.0
 33
0.0
 16
0.0
 26
0.0
 36
0.0
 17
0.0
 27
0.0
 37
0.0
 76
     0
330
A
331
0
345
0
346
0
  0
LAYOUT
  5
12E
100
AcDbPlotSettings
  1

  2

  4

  6

 40
0.0
 41
0.0
 42
0.0
 43
0.0
 44
0.0
 45
0.0
 46
0.0
 47
0.0
 48
0.0
 49
0.0
140
0.0
141
0.0
142
1.0
143
1.0
 70
     0
 72
     0
 73
     0
 74
     0
  7

 75
     0
147
1.0
148
0.0
149
0.0
100
AcDbLayout
  1
_Paper_Space
 70
     1
 71
     1
 10
0.0
 20
0.0
 11
0.0
 21
0.0
 12
0.0
 22
0.0
 32
0.0
 14
0.0
 24
0.0
 34
0.0
 15
0.0
 25
0.0
 35
0.0
146
0.0
 13
0.0
 23
0.0
 33
0.0
 16
0.0
 26
0.0
 36
0.0
 17
0.0
 27
0.0
 37
0.0
 76
     0
330
B
331
0
345
0
346
0
  0
ENDSEC
  0
EOF
