<?xml version="1.0" encoding="utf-8" ?>
<svg baseProfile="full" height="871" version="1.1" width="427" xmlns="http://www.w3.org/2000/svg" xmlns:ev="http://www.w3.org/2001/xml-events" xmlns:xlink="http://www.w3.org/1999/xlink"><defs /><rect fill="white" height="871" width="427" x="0" y="0" /><line opacity="0.15" stroke="#90EE90" stroke-dasharray="4,2" stroke-width="0.5" x1="45.0" x2="368.7339288263338" y1="69.58805890014798" y2="94.24152509693636" /><line opacity="0.15" stroke="#8B4513" stroke-width="0.8" x1="61.62195057359059" x2="382.92190749154156" y1="46.088058900147985" y2="82.74152509693636" /><path d="M 84.6,826.0 L 90.9,811.0 L 97.1,797.1 L 103.5,784.0 L 109.8,771.2 L 116.1,758.4 L 122.5,745.3 L 128.8,731.5 L 135.0,716.6 L 141.1,699.5 L 147.1,679.6 L 152.9,657.4 L 158.6,632.6 L 164.2,604.8 L 169.6,574.1 L 174.9,541.6 L 180.2,508.6 L 185.5,475.9 L 190.8,444.2 L 196.3,414.9 L 201.9,388.4 L 207.7,364.6 L 213.6,343.2 L 219.6,324.0 L 225.6,306.5 L 231.8,290.5 L 238.1,275.8 L 244.3,262.0 L 250.7,249.3 L 257.1,237.5 L 263.5,226.5 L 270.0,216.4 L 276.5,207.0 L 283.1,198.4 L 289.7,190.3 L 296.3,182.9 L 302.9,176.0 L 309.6,169.6 L 316.3,163.6 L 323.0,158.0 L 329.7,152.7 L 336.5,147.6 L 343.2,142.8 L 350.0,138.1 L 356.8,133.5 L 363.5,129.0 L 370.3,124.5" fill="none" stroke="black" stroke-width="0.5" /><g opacity="0.15" transform="rotate(-3.1, 45.6, 112.1)"><ellipse cx="45.575528334496624" cy="112.13055102508804" fill="#B8A8D4" rx="5.0" ry="2.55" stroke="#55438B" stroke-width="0.15" /><circle cx="48.075528334496624" cy="112.13055102508804" fill="#888" r="1.25" stroke="#444" stroke-width="0.1" /><circle cx="43.075528334496624" cy="112.13055102508804" fill="#888" r="1.25" stroke="#444" stroke-width="0.1" /></g><g opacity="0.15" transform="rotate(-3.1, 47.8, 152.2)"><ellipse cx="47.768153614640056" cy="152.1969645043456" fill="#D4C4A8" rx="5.0" ry="2.55" stroke="#8B7355" stroke-width="0.15" /><circle cx="50.268153614640056" cy="152.1969645043456" fill="#888" r="1.25" stroke="#444" stroke-width="0.1" /><circle cx="45.268153614640056" cy="152.1969645043456" fill="#888" r="1.25" stroke="#444" stroke-width="0.1" /></g><g opacity="0.15" transform="rotate(-3.1, 52.4, 109.0)"><ellipse cx="52.418821883846064" cy="108.95710087382633" fill="#B8A8D4" rx="5.0" ry="2.55" stroke="#55438B" stroke-width="0.15" /><circle cx="54.918821883846064" cy="108.95710087382633" fill="#888" r="1.25" stroke="#444" stroke-width="0.1" /><circle cx="49.918821883846064" cy="108.95710087382633" fill="#888" r="1.25" stroke="#444" stroke-width="0.1" /></g><g opacity="0.15" transform="rotate(-3.1, 54.6, 148.4)"><ellipse cx="54.576513177648124" cy="148.35693482985346" fill="#D4C4A8" rx="5.0" ry="2.55" stroke="#8B7355" stroke-width="0.15" /><circle cx="57.076513177648124" cy="148.35693482985346" fill="#888" r="1.25" stroke="#444" stroke-width="0.1" /><circle cx="52.076513177648124" cy="148.35693482985346" fill="#888" r="1.25" stroke="#444" stroke-width="0.1" /></g><g opacity="0.15" transform="rotate(-3.1, 59.3, 107.0)"><ellipse cx="59.327474795608296" cy="107.03078100284267" fill="#B8A8D4" rx="5.0" ry="2.5" stroke="#55438B" stroke-width="0.15" /><circle cx="61.827474795608296" cy="107.03078100284267" fill="#888" r="1.25" stroke="#444" stroke-width="0.1" /><circle cx="56.827474795608296" cy="107.03078100284267" fill="#888" r="1.25" stroke="#444" stroke-width="0.1" /></g><g opacity="0.15" transform="rotate(-3.1, 61.5, 145.8)"><ellipse cx="61.45009347109058" cy="145.76139021626523" fill="#D4C4A8" rx="5.0" ry="2.5" stroke="#8B7355" stroke-width="0.15" /><circle cx="63.95009347109058" cy="145.76139021626523" fill="#888" r="1.25" stroke="#444" stroke-width="0.1" /><circle cx="58.95009347109058" cy="145.76139021626523" fill="#888" r="1.25" stroke="#444" stroke-width="0.1" /></g><g opacity="0.15" transform="rotate(-3.1, 66.3, 105.8)"><ellipse cx="66.27034331006425" cy="105.75733312953616" fill="#B8A8D4" rx="5.0" ry="2.5" stroke="#55438B" stroke-width="0.15" /><circle cx="68.77034331006425" cy="105.75733312953616" fill="#888" r="1.25" stroke="#444" stroke-width="0.1" /><circle cx="63.77034331006425" cy="105.75733312953616" fill="#888" r="1.25" stroke="#444" stroke-width="0.1" /></g><g opacity="0.15" transform="rotate(-3.1, 68.4, 143.8)"><ellipse cx="68.3580279888517" cy="143.82136269187617" fill="#D4C4A8" rx="5.0" ry="2.5" stroke="#8B7355" stroke-width="0.15" /><circle cx="70.8580279888517" cy="143.82136269187617" fill="#888" r="1.25" stroke="#444" stroke-width="0.1" /><circle cx="65.8580279888517" cy="143.82136269187617" fill="#888" r="1.25" stroke="#444" stroke-width="0.1" /></g><g opacity="0.15" transform="rotate(-3.1, 73.4, 107.3)"><ellipse cx="73.36014191051619" cy="107.2874748187271" fill="#B8A8D4" rx="5.0" ry="2.5" stroke="#55438B" stroke-width="0.15" /><circle cx="75.86014191051619" cy="107.2874748187271" fill="#888" r="1.25" stroke="#444" stroke-width="0.1" /><circle cx="70.86014191051619" cy="107.2874748187271" fill="#888" r="1.25" stroke="#444" stroke-width="0.1" /></g><g opacity="0.15" transform="rotate(-3.1, 75.4, 144.6)"><ellipse cx="75.4058226095978" cy="144.55002161375853" fill="#D4C4A8" rx="5.0" ry="2.5" stroke="#8B7355" stroke-width="0.15" /><circle cx="77.9058226095978" cy="144.55002161375853" fill="#888" r="1.25" stroke="#444" stroke-width="0.1" /><circle cx="72.9058226095978" cy="144.55002161375853" fill="#888" r="1.25" stroke="#444" stroke-width="0.1" /></g><g opacity="0.15" transform="rotate(-3.1, 80.4, 108.8)"><ellipse cx="80.44732027790259" cy="108.76761840083111" fill="#B8A8D4" rx="5.0" ry="2.55" stroke="#55438B" stroke-width="0.15" /><circle cx="82.94732027790259" cy="108.76761840083111" fill="#888" r="1.25" stroke="#444" stroke-width="0.1" /><circle cx="77.94732027790259" cy="108.76761840083111" fill="#888" r="1.25" stroke="#444" stroke-width="0.1" /></g><g opacity="0.15" transform="rotate(-3.1, 82.5, 145.2)"><ellipse cx="82.45099698852846" cy="145.2286823223128" fill="#D4C4A8" rx="5.0" ry="2.55" stroke="#8B7355" stroke-width="0.15" /><circle cx="84.95099698852846" cy="145.2286823223128" fill="#888" r="1.25" stroke="#444" stroke-width="0.1" /><circle cx="79.95099698852846" cy="145.2286823223128" fill="#888" r="1.25" stroke="#444" stroke-width="0.1" /></g><g opacity="0.15" transform="rotate(-3.1, 87.5, 109.9)"><ellipse cx="87.51877647923968" cy="109.9477640033831" fill="#B8A8D4" rx="5.0" ry="2.5" stroke="#55438B" stroke-width="0.15" /><circle cx="90.01877647923968" cy="109.9477640033831" fill="#888" r="1.25" stroke="#444" stroke-width="0.1" /><circle cx="85.01877647923968" cy="109.9477640033831" fill="#888" r="1.25" stroke="#444" stroke-width="0.1" /></g><g opacity="0.15" transform="rotate(-3.1, 89.5, 145.6)"><ellipse cx="89.48044919199552" cy="145.60734493791608" fill="#D4C4A8" rx="5.0" ry="2.5" stroke="#8B7355" stroke-width="0.15" /><circle cx="91.98044919199552" cy="145.60734493791608" fill="#888" r="1.25" stroke="#444" stroke-width="0.1" /><circle cx="86.98044919199552" cy="145.60734493791608" fill="#888" r="1.25" stroke="#444" stroke-width="0.1" /></g><g opacity="0.15" transform="rotate(-3.2, 94.6, 110.4)"><ellipse cx="94.55092702690024" cy="110.37791176563735" fill="#B8A8D4" rx="5.0" ry="2.5" stroke="#55438B" stroke-width="0.15" /><circle cx="97.05092702690024" cy="110.37791176563735" fill="#888" r="1.25" stroke="#444" stroke-width="0.1" /><circle cx="92.05092702690024" cy="110.37791176563735" fill="#888" r="1.25" stroke="#444" stroke-width="0.1" /></g><g opacity="0.15" transform="rotate(-3.2, 96.5, 145.2)"><ellipse cx="96.47059573163932" cy="145.236009592007" fill="#D4C4A8" rx="5.0" ry="2.5" stroke="#8B7355" stroke-width="0.15" /><circle cx="98.97059573163932" cy="145.236009592007" fill="#888" r="1.25" stroke="#444" stroke-width="0.1" /><circle cx="93.97059573163932" cy="145.236009592007" fill="#888" r="1.25" stroke="#444" stroke-width="0.1" /></g><g opacity="0.15" transform="rotate(-3.2, 101.7, 112.2)"><ellipse cx="101.65663699184998" cy="112.21165169538085" fill="#B8A8D4" rx="5.0" ry="2.5" stroke="#55438B" stroke-width="0.15" /><circle cx="104.15663699184998" cy="112.21165169538085" fill="#888" r="1.25" stroke="#444" stroke-width="0.1" /><circle cx="99.15663699184998" cy="112.21165169538085" fill="#888" r="1.25" stroke="#444" stroke-width="0.1" /></g><g opacity="0.15" transform="rotate(-3.2, 103.5, 146.1)"><ellipse cx="103.52723169308513" cy="146.13336315115373" fill="#D4C4A8" rx="5.0" ry="2.5" stroke="#8B7355" stroke-width="0.15" /><circle cx="106.02723169308513" cy="146.13336315115373" fill="#888" r="1.25" stroke="#444" stroke-width="0.1" /><circle cx="101.02723169308513" cy="146.13336315115373" fill="#888" r="1.25" stroke="#444" stroke-width="0.1" /></g><g opacity="0.15" transform="rotate(-3.2, 108.8, 114.2)"><ellipse cx="108.7679268552215" cy="114.15185626889297" fill="#B8A8D4" rx="5.0" ry="2.45" stroke="#55438B" stroke-width="0.15" /><circle cx="111.2679268552215" cy="114.15185626889297" fill="#888" r="1.25" stroke="#444" stroke-width="0.1" /><circle cx="106.2679268552215" cy="114.15185626889297" fill="#888" r="1.25" stroke="#444" stroke-width="0.1" /></g><g opacity="0.15" transform="rotate(-3.2, 110.6, 147.0)"><ellipse cx="110.58251617639417" cy="147.0049231562963" fill="#D4C4A8" rx="5.0" ry="2.45" stroke="#8B7355" stroke-width="0.15" /><circle cx="113.08251617639417" cy="147.0049231562963" fill="#888" r="1.25" stroke="#444" stroke-width="0.1" /><circle cx="108.08251617639417" cy="147.0049231562963" fill="#888" r="1.25" stroke="#444" stroke-width="0.1" /></g><g opacity="0.15" transform="rotate(-3.2, 115.2, 103.8)"><ellipse cx="115.23354685919402" cy="103.77196036707858" fill="#B8A8D4" rx="5.0" ry="2.5" stroke="#55438B" stroke-width="0.15" /><circle cx="117.73354685919402" cy="103.77196036707858" fill="#888" r="1.25" stroke="#444" stroke-width="0.1" /><circle cx="112.73354685919402" cy="103.77196036707858" fill="#888" r="1.25" stroke="#444" stroke-width="0.1" /></g><g opacity="0.15" transform="rotate(-3.2, 117.0, 136.1)"><ellipse cx="117.02013348157107" cy="136.09070486862936" fill="#D4C4A8" rx="5.0" ry="2.5" stroke="#8B7355" stroke-width="0.15" /><circle cx="119.52013348157107" cy="136.09070486862936" fill="#888" r="1.25" stroke="#444" stroke-width="0.1" /><circle cx="114.52013348157107" cy="136.09070486862936" fill="#888" r="1.25" stroke="#444" stroke-width="0.1" /></g><g opacity="0.15" transform="rotate(-3.2, 122.0, 98.2)"><ellipse cx="121.95159056472929" cy="98.20858105802085" fill="#B8A8D4" rx="5.0" ry="2.5" stroke="#55438B" stroke-width="0.15" /><circle cx="124.45159056472929" cy="98.20858105802085" fill="#888" r="1.25" stroke="#444" stroke-width="0.1" /><circle cx="119.45159056472929" cy="98.20858105802085" fill="#888" r="1.25" stroke="#444" stroke-width="0.1" /></g><g opacity="0.15" transform="rotate(-3.2, 123.7, 129.6)"><ellipse cx="123.68924176250897" cy="129.5935837886385" fill="#D4C4A8" rx="5.0" ry="2.5" stroke="#8B7355" stroke-width="0.15" /><circle cx="126.18924176250897" cy="129.5935837886385" fill="#888" r="1.25" stroke="#444" stroke-width="0.1" /><circle cx="121.18924176250897" cy="129.5935837886385" fill="#888" r="1.25" stroke="#444" stroke-width="0.1" /></g><g opacity="0.15" transform="rotate(-3.2, 129.5, 109.1)"><ellipse cx="129.53123246450917" cy="109.0854285551452" fill="#B8A8D4" rx="5.0" ry="2.5" stroke="#55438B" stroke-width="0.15" /><circle cx="132.03123246450917" cy="109.0854285551452" fill="#888" r="1.25" stroke="#444" stroke-width="0.1" /><circle cx="127.03123246450917" cy="109.0854285551452" fill="#888" r="1.25" stroke="#444" stroke-width="0.1" /></g><g opacity="0.15" transform="rotate(-3.2, 131.2, 138.5)"><ellipse cx="131.16394274800126" cy="138.46804369863628" fill="#D4C4A8" rx="5.0" ry="2.5" stroke="#8B7355" stroke-width="0.15" /><circle cx="133.66394274800126" cy="138.46804369863628" fill="#888" r="1.25" stroke="#444" stroke-width="0.1" /><circle cx="128.66394274800126" cy="138.46804369863628" fill="#888" r="1.25" stroke="#444" stroke-width="0.1" /></g><g opacity="0.15" transform="rotate(-3.2, 136.5, 107.5)"><ellipse cx="136.4571934349788" cy="107.48931052054263" fill="#B8A8D4" rx="5.0" ry="2.5" stroke="#55438B" stroke-width="0.15" /><circle cx="138.9571934349788" cy="107.48931052054263" fill="#888" r="1.25" stroke="#444" stroke-width="0.1" /><circle cx="133.9571934349788" cy="107.48931052054263" fill="#888" r="1.25" stroke="#444" stroke-width="0.1" /></g><g opacity="0.15" transform="rotate(-3.2, 138.0, 135.4)"><ellipse cx="138.01282682772845" cy="135.40121477831815" fill="#D4C4A8" rx="5.0" ry="2.5" stroke="#8B7355" stroke-width="0.15" /><circle cx="140.51282682772845" cy="135.40121477831815" fill="#888" r="1.25" stroke="#444" stroke-width="0.1" /><circle cx="135.51282682772845" cy="135.40121477831815" fill="#888" r="1.25" stroke="#444" stroke-width="0.1" /></g><g opacity="0.15" transform="rotate(-3.1, 144.0, 107.7)"><ellipse cx="143.95197812237566" cy="107.73001437733376" fill="#B8A8D4" rx="5.0" ry="2.45" stroke="#55438B" stroke-width="0.15" /><circle cx="146.95197812237566" cy="107.73001437733376" fill="#888" r="1.0" stroke="#444" stroke-width="0.1" /><circle cx="140.95197812237566" cy="107.73001437733376" fill="#888" r="1.0" stroke="#444" stroke-width="0.1" /></g><g opacity="0.15" transform="rotate(-3.1, 145.4, 133.9)"><ellipse cx="145.3902259478031" cy="133.90815664940055" fill="#D4C4A8" rx="5.0" ry="2.45" stroke="#8B7355" stroke-width="0.15" /><circle cx="148.3902259478031" cy="133.90815664940055" fill="#888" r="1.0" stroke="#444" stroke-width="0.1" /><circle cx="142.3902259478031" cy="133.90815664940055" fill="#888" r="1.0" stroke="#444" stroke-width="0.1" /></g><g opacity="0.15" transform="rotate(-3.2, 150.9, 106.2)"><ellipse cx="150.88108232615218" cy="106.19389819602566" fill="#B8A8D4" rx="5.0" ry="2.45" stroke="#55438B" stroke-width="0.15" /><circle cx="153.88108232615218" cy="106.19389819602566" fill="#888" r="1.0" stroke="#444" stroke-width="0.1" /><circle cx="147.88108232615218" cy="106.19389819602566" fill="#888" r="1.0" stroke="#444" stroke-width="0.1" /></g><g opacity="0.15" transform="rotate(-3.2, 152.2, 130.6)"><ellipse cx="152.2282521583319" cy="130.6341712067242" fill="#D4C4A8" rx="5.0" ry="2.45" stroke="#8B7355" stroke-width="0.15" /><circle cx="155.2282521583319" cy="130.6341712067242" fill="#888" r="1.0" stroke="#444" stroke-width="0.1" /><circle cx="149.2282521583319" cy="130.6341712067242" fill="#888" r="1.0" stroke="#444" stroke-width="0.1" /></g><g opacity="0.15" transform="rotate(-3.2, 157.7, 101.7)"><ellipse cx="157.65539652084544" cy="101.70420710520477" fill="#B8A8D4" rx="5.0" ry="2.35" stroke="#55438B" stroke-width="0.15" /><circle cx="160.65539652084544" cy="101.70420710520477" fill="#888" r="1.0" stroke="#444" stroke-width="0.1" /><circle cx="154.65539652084544" cy="101.70420710520477" fill="#888" r="1.0" stroke="#444" stroke-width="0.1" /></g><g opacity="0.15" transform="rotate(-3.2, 158.9, 124.5)"><ellipse cx="158.91855827297906" cy="124.54151314835235" fill="#D4C4A8" rx="5.0" ry="2.35" stroke="#8B7355" stroke-width="0.15" /><circle cx="161.91855827297906" cy="124.54151314835235" fill="#888" r="1.0" stroke="#444" stroke-width="0.1" /><circle cx="155.91855827297906" cy="124.54151314835235" fill="#888" r="1.0" stroke="#444" stroke-width="0.1" /></g><g opacity="0.15" transform="rotate(-3.2, 164.7, 102.3)"><ellipse cx="164.6948990847189" cy="102.27458906659217" fill="#B8A8D4" rx="5.0" ry="2.3" stroke="#55438B" stroke-width="0.15" /><circle cx="167.6948990847189" cy="102.27458906659217" fill="#888" r="1.0" stroke="#444" stroke-width="0.1" /><circle cx="161.6948990847189" cy="102.27458906659217" fill="#888" r="1.0" stroke="#444" stroke-width="0.1" /></g><g opacity="0.15" transform="rotate(-3.2, 165.9, 123.2)"><ellipse cx="165.86005130410734" cy="123.24176577044841" fill="#D4C4A8" rx="5.0" ry="2.3" stroke="#8B7355" stroke-width="0.15" /><circle cx="168.86005130410734" cy="123.24176577044841" fill="#888" r="1.0" stroke="#444" stroke-width="0.1" /><circle cx="162.86005130410734" cy="123.24176577044841" fill="#888" r="1.0" stroke="#444" stroke-width="0.1" /></g><g opacity="0.15" transform="rotate(-3.2, 171.5, 99.2)"><ellipse cx="171.5452082883836" cy="99.23493978914746" fill="#B8A8D4" rx="5.0" ry="2.25" stroke="#55438B" stroke-width="0.15" /><circle cx="174.5452082883836" cy="99.23493978914746" fill="#888" r="1.0" stroke="#444" stroke-width="0.1" /><circle cx="168.5452082883836" cy="99.23493978914746" fill="#888" r="1.0" stroke="#444" stroke-width="0.1" /></g><g opacity="0.15" transform="rotate(-3.2, 172.6, 118.6)"><ellipse cx="172.62635221843266" cy="118.59914717864854" fill="#D4C4A8" rx="5.0" ry="2.25" stroke="#8B7355" stroke-width="0.15" /><circle cx="175.62635221843266" cy="118.59914717864854" fill="#888" r="1.0" stroke="#444" stroke-width="0.1" /><circle cx="169.62635221843266" cy="118.59914717864854" fill="#888" r="1.0" stroke="#444" stroke-width="0.1" /></g><g opacity="0.15" transform="rotate(-3.2, 178.6, 100.8)"><ellipse cx="178.63431496757792" cy="100.75178652584202" fill="#B8A8D4" rx="5.0" ry="2.25" stroke="#55438B" stroke-width="0.15" /><circle cx="181.63431496757792" cy="100.75178652584202" fill="#888" r="1.0" stroke="#444" stroke-width="0.1" /><circle cx="175.63431496757792" cy="100.75178652584202" fill="#888" r="1.0" stroke="#444" stroke-width="0.1" /></g><g opacity="0.15" transform="rotate(-3.2, 179.6, 118.4)"><ellipse cx="179.62451906563635" cy="118.3807646425314" fill="#D4C4A8" rx="5.0" ry="2.25" stroke="#8B7355" stroke-width="0.15" /><circle cx="182.62451906563635" cy="118.3807646425314" fill="#888" r="1.0" stroke="#444" stroke-width="0.1" /><circle cx="176.62451906563635" cy="118.3807646425314" fill="#888" r="1.0" stroke="#444" stroke-width="0.1" /></g><g opacity="0.15" transform="rotate(-3.2, 185.4, 95.7)"><ellipse cx="185.3789461007402" cy="95.69566050899095" fill="#B8A8D4" rx="5.0" ry="1.9" stroke="#55438B" stroke-width="0.15" /><circle cx="188.3789461007402" cy="95.69566050899095" fill="#888" r="1.0" stroke="#444" stroke-width="0.1" /><circle cx="182.3789461007402" cy="95.69566050899095" fill="#888" r="1.0" stroke="#444" stroke-width="0.1" /></g><g opacity="0.15" transform="rotate(-3.2, 186.3, 112.1)"><ellipse cx="186.3060744192294" cy="112.12108645960893" fill="#D4C4A8" rx="5.0" ry="1.9" stroke="#8B7355" stroke-width="0.15" /><circle cx="189.3060744192294" cy="112.12108645960893" fill="#888" r="1.0" stroke="#444" stroke-width="0.1" /><circle cx="183.3060744192294" cy="112.12108645960893" fill="#888" r="1.0" stroke="#444" stroke-width="0.1" /></g><g opacity="0.15" transform="rotate(-3.3, 192.4, 95.8)"><ellipse cx="192.39381996571137" cy="95.79603429577696" fill="#B8A8D4" rx="5.0" ry="1.85" stroke="#55438B" stroke-width="0.15" /><circle cx="195.39381996571137" cy="95.79603429577696" fill="#888" r="1.0" stroke="#444" stroke-width="0.1" /><circle cx="189.39381996571137" cy="95.79603429577696" fill="#888" r="1.0" stroke="#444" stroke-width="0.1" /></g><g opacity="0.15" transform="rotate(-3.3, 193.3, 110.9)"><ellipse cx="193.25094092893843" cy="110.88564790917883" fill="#D4C4A8" rx="5.0" ry="1.85" stroke="#8B7355" stroke-width="0.15" /><circle cx="196.25094092893843" cy="110.88564790917883" fill="#888" r="1.0" stroke="#444" stroke-width="0.1" /><circle cx="190.25094092893843" cy="110.88564790917883" fill="#888" r="1.0" stroke="#444" stroke-width="0.1" /></g><g opacity="0.15" transform="rotate(-3.3, 199.4, 95.8)"><ellipse cx="199.40326717867367" cy="95.79284031780298" fill="#B8A8D4" rx="5.0" ry="1.9" stroke="#55438B" stroke-width="0.15" /><circle cx="202.40326717867367" cy="95.79284031780298" fill="#888" r="1.0" stroke="#444" stroke-width="0.1" /><circle cx="196.40326717867367" cy="95.79284031780298" fill="#888" r="1.0" stroke="#444" stroke-width="0.1" /></g><g opacity="0.15" transform="rotate(-3.3, 200.2, 109.7)"><ellipse cx="200.19745063326855" cy="109.6815434868023" fill="#D4C4A8" rx="5.0" ry="1.9" stroke="#8B7355" stroke-width="0.15" /><circle cx="203.19745063326855" cy="109.6815434868023" fill="#888" r="1.0" stroke="#444" stroke-width="0.1" /><circle cx="197.19745063326855" cy="109.6815434868023" fill="#888" r="1.0" stroke="#444" stroke-width="0.1" /></g><g opacity="0.15" transform="rotate(-3.3, 206.4, 95.6)"><ellipse cx="206.4018963693352" cy="95.58320492130088" fill="#B8A8D4" rx="5.0" ry="1.85" stroke="#55438B" stroke-width="0.15" /><circle cx="209.4018963693352" cy="95.58320492130088" fill="#888" r="1.0" stroke="#444" stroke-width="0.1" /><circle cx="203.4018963693352" cy="95.58320492130088" fill="#888" r="1.0" stroke="#444" stroke-width="0.1" /></g><g opacity="0.15" transform="rotate(-3.3, 207.1, 108.4)"><ellipse cx="207.14007354289606" cy="108.4032545401376" fill="#D4C4A8" rx="5.0" ry="1.85" stroke="#8B7355" stroke-width="0.15" /><circle cx="210.14007354289606" cy="108.4032545401376" fill="#888" r="1.0" stroke="#444" stroke-width="0.1" /><circle cx="204.14007354289606" cy="108.4032545401376" fill="#888" r="1.0" stroke="#444" stroke-width="0.1" /></g><g opacity="0.15" transform="rotate(-3.3, 213.4, 94.8)"><ellipse cx="213.36874404660435" cy="94.76712316175758" fill="#B8A8D4" rx="5.0" ry="1.85" stroke="#55438B" stroke-width="0.15" /><circle cx="216.36874404660435" cy="94.76712316175758" fill="#888" r="1.0" stroke="#444" stroke-width="0.1" /><circle cx="210.36874404660435" cy="94.76712316175758" fill="#888" r="1.0" stroke="#444" stroke-width="0.1" /></g><g opacity="0.15" transform="rotate(-3.3, 214.1, 106.7)"><ellipse cx="214.05784618802224" cy="106.65077640218624" fill="#D4C4A8" rx="5.0" ry="1.85" stroke="#8B7355" stroke-width="0.15" /><circle cx="217.05784618802224" cy="106.65077640218624" fill="#888" r="1.0" stroke="#444" stroke-width="0.1" /><circle cx="211.05784618802224" cy="106.65077640218624" fill="#888" r="1.0" stroke="#444" stroke-width="0.1" /></g><g opacity="0.15" transform="rotate(-3.3, 220.4, 95.4)"><ellipse cx="220.41173826401612" cy="95.40395225897487" fill="#B8A8D4" rx="5.0" ry="1.85" stroke="#55438B" stroke-width="0.15" /><circle cx="223.41173826401612" cy="95.40395225897487" fill="#888" r="1.0" stroke="#444" stroke-width="0.1" /><circle cx="217.41173826401612" cy="95.40395225897487" fill="#888" r="1.0" stroke="#444" stroke-width="0.1" /></g><g opacity="0.15" transform="rotate(-3.3, 221.1, 106.4)"><ellipse cx="221.05190373033827" cy="106.3538520315251" fill="#D4C4A8" rx="5.0" ry="1.85" stroke="#8B7355" stroke-width="0.15" /><circle cx="224.05190373033827" cy="106.3538520315251" fill="#888" r="1.0" stroke="#444" stroke-width="0.1" /><circle cx="218.05190373033827" cy="106.3538520315251" fill="#888" r="1.0" stroke="#444" stroke-width="0.1" /></g><g opacity="0.15" transform="rotate(-3.4, 227.4, 94.9)"><ellipse cx="227.39674700010684" cy="94.93433077999407" fill="#B8A8D4" rx="5.0" ry="1.8" stroke="#55438B" stroke-width="0.15" /><circle cx="230.39674700010684" cy="94.93433077999407" fill="#888" r="1.0" stroke="#444" stroke-width="0.1" /><circle cx="224.39674700010684" cy="94.93433077999407" fill="#888" r="1.0" stroke="#444" stroke-width="0.1" /></g><g opacity="0.15" transform="rotate(-3.4, 228.0, 105.1)"><ellipse cx="227.99490704461826" cy="105.0827344928864" fill="#D4C4A8" rx="5.0" ry="1.8" stroke="#8B7355" stroke-width="0.15" /><circle cx="230.99490704461826" cy="105.0827344928864" fill="#888" r="1.0" stroke="#444" stroke-width="0.1" /><circle cx="224.99490704461826" cy="105.0827344928864" fill="#888" r="1.0" stroke="#444" stroke-width="0.1" /></g><g opacity="0.15" transform="rotate(-3.4, 234.4, 95.5)"><ellipse cx="234.43679020172257" cy="95.51475719094401" fill="#B8A8D4" rx="4.694722634776184" ry="1.8" stroke="#55438B" stroke-width="0.15" /><circle cx="237.13151283649876" cy="95.51475719094401" fill="#888" r="1.0" stroke="#444" stroke-width="0.1" /><circle cx="231.7420675669464" cy="95.51475719094401" fill="#888" r="1.0" stroke="#444" stroke-width="0.1" /></g><g opacity="0.15" transform="rotate(-3.4, 235.0, 104.9)"><ellipse cx="234.9929444709842" cy="104.86166215632329" fill="#D4C4A8" rx="4.694722634776184" ry="1.8" stroke="#8B7355" stroke-width="0.15" /><circle cx="237.6876671057604" cy="104.86166215632329" fill="#888" r="1.0" stroke="#444" stroke-width="0.1" /><circle cx="232.29822183620803" cy="104.86166215632329" fill="#888" r="1.0" stroke="#444" stroke-width="0.1" /></g><g opacity="0.15" transform="rotate(-3.3, 241.6, 94.7)"><ellipse cx="241.63861881460792" cy="94.67476280896676" fill="#B8A8D4" rx="4.450577844638616" ry="1.8" stroke="#55438B" stroke-width="0.15" /><circle cx="244.58919665924654" cy="94.67476280896676" fill="#888" r="0.75" stroke="#444" stroke-width="0.1" /><circle cx="238.6880409699693" cy="94.67476280896676" fill="#888" r="0.75" stroke="#444" stroke-width="0.1" /></g><g opacity="0.15" transform="rotate(-3.3, 242.1, 103.4)"><ellipse cx="242.1464813427156" cy="103.35321052306972" fill="#D4C4A8" rx="4.450577844638616" ry="1.8" stroke="#8B7355" stroke-width="0.15" /><circle cx="245.0970591873542" cy="103.35321052306972" fill="#888" r="0.75" stroke="#444" stroke-width="0.1" /><circle cx="239.19590349807697" cy="103.35321052306972" fill="#888" r="0.75" stroke="#444" stroke-width="0.1" /></g><g opacity="0.15" transform="rotate(-3.4, 248.7, 94.8)"><ellipse cx="248.6522599956322" cy="94.75151857042567" fill="#B8A8D4" rx="4.2115727065930315" ry="1.75" stroke="#55438B" stroke-width="0.15" /><circle cx="251.36383270222524" cy="94.75151857042567" fill="#888" r="0.75" stroke="#444" stroke-width="0.1" /><circle cx="245.94068728903915" cy="94.75151857042567" fill="#888" r="0.75" stroke="#444" stroke-width="0.1" /></g><g opacity="0.15" transform="rotate(-3.4, 249.1, 102.8)"><ellipse cx="249.12518728304522" cy="102.76337520430502" fill="#D4C4A8" rx="4.2115727065930315" ry="1.75" stroke="#8B7355" stroke-width="0.15" /><circle cx="251.83675998963827" cy="102.76337520430502" fill="#888" r="0.75" stroke="#444" stroke-width="0.1" /><circle cx="246.41361457645218" cy="102.76337520430502" fill="#888" r="0.75" stroke="#444" stroke-width="0.1" /></g><g opacity="0.15" transform="rotate(-3.4, 255.7, 95.7)"><ellipse cx="255.71292356785665" cy="95.72544769875822" fill="#B8A8D4" rx="3.977422054490276" ry="1.75" stroke="#55438B" stroke-width="0.15" /><circle cx="258.1903456223469" cy="95.72544769875822" fill="#888" r="0.75" stroke="#444" stroke-width="0.1" /><circle cx="253.2355015133664" cy="95.72544769875822" fill="#888" r="0.75" stroke="#444" stroke-width="0.1" /></g><g opacity="0.15" transform="rotate(-3.4, 256.2, 103.1)"><ellipse cx="256.15077665978765" cy="103.06806561477515" fill="#D4C4A8" rx="3.977422054490276" ry="1.75" stroke="#8B7355" stroke-width="0.15" /><circle cx="258.6281987142779" cy="103.06806561477515" fill="#888" r="0.75" stroke="#444" stroke-width="0.1" /><circle cx="253.6733546052974" cy="103.06806561477515" fill="#888" r="0.75" stroke="#444" stroke-width="0.1" /></g><g opacity="0.15" transform="rotate(-3.4, 262.6, 92.7)"><ellipse cx="262.5635719822168" cy="92.69212692874066" fill="#B8A8D4" rx="3.8839759245678636" ry="1.75" stroke="#55438B" stroke-width="0.15" /><circle cx="264.9475479067846" cy="92.69212692874066" fill="#888" r="0.75" stroke="#444" stroke-width="0.1" /><circle cx="260.17959605764895" cy="92.69212692874066" fill="#888" r="0.75" stroke="#444" stroke-width="0.1" /></g><g opacity="0.15" transform="rotate(-3.4, 263.0, 99.6)"><ellipse cx="262.9804912618547" cy="99.63531633155094" fill="#D4C4A8" rx="3.8839759245678636" ry="1.75" stroke="#8B7355" stroke-width="0.15" /><circle cx="265.36446718642253" cy="99.63531633155094" fill="#888" r="0.75" stroke="#444" stroke-width="0.1" /><circle cx="260.59651533728686" cy="99.63531633155094" fill="#888" r="0.75" stroke="#444" stroke-width="0.1" /></g><g opacity="0.15" transform="rotate(-3.5, 269.7, 95.2)"><ellipse cx="269.705481717728" cy="95.21615474091072" fill="#B8A8D4" rx="3.6634332967151266" ry="1.8" stroke="#55438B" stroke-width="0.15" /><circle cx="271.86891501444313" cy="95.21615474091072" fill="#888" r="0.75" stroke="#444" stroke-width="0.1" /><circle cx="267.54204842101285" cy="95.21615474091072" fill="#888" r="0.75" stroke="#444" stroke-width="0.1" /></g><g opacity="0.15" transform="rotate(-3.5, 270.1, 101.5)"><ellipse cx="270.0873260102088" cy="101.49009988716034" fill="#D4C4A8" rx="3.6634332967151266" ry="1.8" stroke="#8B7355" stroke-width="0.15" /><circle cx="272.25075930692395" cy="101.49009988716034" fill="#888" r="0.75" stroke="#444" stroke-width="0.1" /><circle cx="267.9238927134937" cy="101.49009988716034" fill="#888" r="0.75" stroke="#444" stroke-width="0.1" /></g><g opacity="0.15" transform="rotate(-3.5, 276.6, 93.7)"><ellipse cx="276.6347529599203" cy="93.6829082372841" fill="#B8A8D4" rx="3.5835852874659366" ry="1.75" stroke="#55438B" stroke-width="0.15" /><circle cx="278.71833824738627" cy="93.6829082372841" fill="#888" r="0.75" stroke="#444" stroke-width="0.1" /><circle cx="274.55116767245437" cy="93.6829082372841" fill="#888" r="0.75" stroke="#444" stroke-width="0.1" /></g><g opacity="0.15" transform="rotate(-3.5, 277.0, 99.6)"><ellipse cx="276.9956628138066" cy="99.55742070207475" fill="#D4C4A8" rx="3.5835852874659366" ry="1.75" stroke="#8B7355" stroke-width="0.15" /><circle cx="279.0792481012725" cy="99.55742070207475" fill="#888" r="0.75" stroke="#444" stroke-width="0.1" /><circle cx="274.9120775263406" cy="99.55742070207475" fill="#888" r="0.75" stroke="#444" stroke-width="0.1" /></g><g opacity="0.15" transform="rotate(-3.6, 283.6, 92.8)"><ellipse cx="283.5979454043611" cy="92.79683202616184" fill="#B8A8D4" rx="3.5098883812672597" ry="1.75" stroke="#55438B" stroke-width="0.15" /><circle cx="285.6078337856284" cy="92.79683202616184" fill="#888" r="0.75" stroke="#444" stroke-width="0.1" /><circle cx="281.5880570230938" cy="92.79683202616184" fill="#888" r="0.75" stroke="#444" stroke-width="0.1" /></g><g opacity="0.15" transform="rotate(-3.6, 283.9, 98.3)"><ellipse cx="283.93778182244193" cy="98.26926434440588" fill="#D4C4A8" rx="3.5098883812672597" ry="1.75" stroke="#8B7355" stroke-width="0.15" /><circle cx="285.9476702037092" cy="98.26926434440588" fill="#888" r="0.75" stroke="#444" stroke-width="0.1" /><circle cx="281.92789344117466" cy="98.26926434440588" fill="#888" r="0.75" stroke="#444" stroke-width="0.1" /></g><g opacity="0.15" transform="rotate(-3.6, 290.6, 92.5)"><ellipse cx="290.5927409527855" cy="92.51367319588496" fill="#B8A8D4" rx="3.44225760614772" ry="1.75" stroke="#55438B" stroke-width="0.15" /><circle cx="292.53499855893324" cy="92.51367319588496" fill="#888" r="0.75" stroke="#444" stroke-width="0.1" /><circle cx="288.65048334663777" cy="92.51367319588496" fill="#888" r="0.75" stroke="#444" stroke-width="0.1" /></g><g opacity="0.15" transform="rotate(-3.6, 290.9, 97.6)"><ellipse cx="290.9116421138399" cy="97.58666791194298" fill="#D4C4A8" rx="3.44225760614772" ry="1.75" stroke="#8B7355" stroke-width="0.15" /><circle cx="292.8538997199876" cy="97.58666791194298" fill="#888" r="0.75" stroke="#444" stroke-width="0.1" /><circle cx="288.96938450769215" cy="97.58666791194298" fill="#888" r="0.75" stroke="#444" stroke-width="0.1" /></g><g opacity="0.15" transform="rotate(-3.6, 297.6, 92.8)"><ellipse cx="297.61622163015636" cy="92.77770705233206" fill="#B8A8D4" rx="3.378698471128672" ry="1.75" stroke="#55438B" stroke-width="0.15" /><circle cx="299.49492010128506" cy="92.77770705233206" fill="#888" r="0.75" stroke="#444" stroke-width="0.1" /><circle cx="295.73752315902766" cy="92.77770705233206" fill="#888" r="0.75" stroke="#444" stroke-width="0.1" /></g><g opacity="0.15" transform="rotate(-3.6, 297.9, 97.4)"><ellipse cx="297.91404827292297" cy="97.44861544422542" fill="#D4C4A8" rx="3.378698471128672" ry="1.75" stroke="#8B7355" stroke-width="0.15" /><circle cx="299.79274674405167" cy="97.44861544422542" fill="#888" r="0.75" stroke="#444" stroke-width="0.1" /><circle cx="296.03534980179427" cy="97.44861544422542" fill="#888" r="0.75" stroke="#444" stroke-width="0.1" /></g><g opacity="0.15" transform="rotate(-3.7, 304.7, 93.5)"><ellipse cx="304.6634507253983" cy="93.49468701751698" fill="#B8A8D4" rx="3.3187723405830525" ry="1.7" stroke="#55438B" stroke-width="0.15" /><circle cx="306.4822230659814" cy="93.49468701751698" fill="#888" r="0.75" stroke="#444" stroke-width="0.1" /><circle cx="302.84467838481527" cy="93.49468701751698" fill="#888" r="0.75" stroke="#444" stroke-width="0.1" /></g><g opacity="0.15" transform="rotate(-3.7, 304.9, 97.8)"><ellipse cx="304.9403406649179" cy="97.76615001723371" fill="#D4C4A8" rx="3.3187723405830525" ry="1.7" stroke="#8B7355" stroke-width="0.15" /><circle cx="306.759113005501" cy="97.76615001723371" fill="#888" r="0.75" stroke="#444" stroke-width="0.1" /><circle cx="303.1215683243349" cy="97.76615001723371" fill="#888" r="0.75" stroke="#444" stroke-width="0.1" /></g><g opacity="0.15" transform="rotate(-3.8, 311.7, 94.7)"><ellipse cx="311.73413427016425" cy="94.65890197060105" fill="#B8A8D4" rx="3.2608850856080664" ry="1.65" stroke="#55438B" stroke-width="0.15" /><circle cx="313.49501935577234" cy="94.65890197060105" fill="#888" r="0.75" stroke="#444" stroke-width="0.1" /><circle cx="309.97324918455615" cy="94.65890197060105" fill="#888" r="0.75" stroke="#444" stroke-width="0.1" /></g><g opacity="0.15" transform="rotate(-3.8, 312.0, 98.5)"><ellipse cx="311.9899476783898" cy="98.52826848197981" fill="#D4C4A8" rx="3.2608850856080664" ry="1.65" stroke="#8B7355" stroke-width="0.15" /><circle cx="313.7508327639979" cy="98.52826848197981" fill="#888" r="0.75" stroke="#444" stroke-width="0.1" /><circle cx="310.2290625927817" cy="98.52826848197981" fill="#888" r="0.75" stroke="#444" stroke-width="0.1" /></g><g opacity="0.15" transform="rotate(-3.9, 318.8, 96.2)"><ellipse cx="318.8233405095122" cy="96.17612097199947" fill="#B8A8D4" rx="3.2049766626683933" ry="1.65" stroke="#55438B" stroke-width="0.15" /><circle cx="320.5283171721806" cy="96.17612097199947" fill="#888" r="0.75" stroke="#444" stroke-width="0.1" /><circle cx="317.1183638468438" cy="96.17612097199947" fill="#888" r="0.75" stroke="#444" stroke-width="0.1" /></g><g opacity="0.15" transform="rotate(-3.9, 319.1, 99.6)"><ellipse cx="319.0582143565326" cy="99.64602867512986" fill="#D4C4A8" rx="3.2049766626683933" ry="1.65" stroke="#8B7355" stroke-width="0.15" /><circle cx="320.763191019201" cy="99.64602867512986" fill="#888" r="0.75" stroke="#444" stroke-width="0.1" /><circle cx="317.3532376938642" cy="99.64602867512986" fill="#888" r="0.75" stroke="#444" stroke-width="0.1" /></g><g opacity="0.15" transform="rotate(-3.9, 325.8, 95.6)"><ellipse cx="325.80475557768466" cy="95.63674640598845" fill="#B8A8D4" rx="3.2158589266882984" ry="1.6" stroke="#55438B" stroke-width="0.15" /><circle cx="327.52061450437293" cy="95.63674640598845" fill="#888" r="0.75" stroke="#444" stroke-width="0.1" /><circle cx="324.0888966509964" cy="95.63674640598845" fill="#888" r="0.75" stroke="#444" stroke-width="0.1" /></g><g opacity="0.15" transform="rotate(-3.9, 326.0, 98.8)"><ellipse cx="326.02562214385887" cy="98.83946073457116" fill="#D4C4A8" rx="3.2158589266882984" ry="1.6" stroke="#8B7355" stroke-width="0.15" /><circle cx="327.74148107054714" cy="98.83946073457116" fill="#888" r="0.75" stroke="#444" stroke-width="0.1" /><circle cx="324.3097632171706" cy="98.83946073457116" fill="#888" r="0.75" stroke="#444" stroke-width="0.1" /></g><g opacity="0.15" transform="rotate(-4.0, 332.8, 95.3)"><ellipse cx="332.79929985519027" cy="95.34747880602436" fill="#B8A8D4" rx="3.226014007921499" ry="1.65" stroke="#55438B" stroke-width="0.15" /><circle cx="334.52531386311176" cy="95.34747880602436" fill="#888" r="0.75" stroke="#444" stroke-width="0.1" /><circle cx="331.0732858472688" cy="95.34747880602436" fill="#888" r="0.75" stroke="#444" stroke-width="0.1" /></g><g opacity="0.15" transform="rotate(-4.0, 333.0, 98.3)"><ellipse cx="333.0061576102788" cy="98.28299375651648" fill="#D4C4A8" rx="3.226014007921499" ry="1.65" stroke="#8B7355" stroke-width="0.15" /><circle cx="334.7321716182003" cy="98.28299375651648" fill="#888" r="0.75" stroke="#444" stroke-width="0.1" /><circle cx="331.2801436023573" cy="98.28299375651648" fill="#888" r="0.75" stroke="#444" stroke-width="0.1" /></g><g opacity="0.15" transform="rotate(-4.1, 339.8, 95.3)"><ellipse cx="339.8043636926515" cy="95.25834995947741" fill="#B8A8D4" rx="3.2335127356116686" ry="1.6" stroke="#55438B" stroke-width="0.15" /><circle cx="341.5378764282632" cy="95.25834995947741" fill="#888" r="0.75" stroke="#444" stroke-width="0.1" /><circle cx="338.07085095703985" cy="95.25834995947741" fill="#888" r="0.75" stroke="#444" stroke-width="0.1" /></g><g opacity="0.15" transform="rotate(-4.1, 340.0, 97.9)"><ellipse cx="339.9972105036482" cy="97.92665774424813" fill="#D4C4A8" rx="3.2335127356116686" ry="1.6" stroke="#8B7355" stroke-width="0.15" /><circle cx="341.7307232392599" cy="97.92665774424813" fill="#888" r="0.75" stroke="#444" stroke-width="0.1" /><circle cx="338.26369776803654" cy="97.92665774424813" fill="#888" r="0.75" stroke="#444" stroke-width="0.1" /></g><g opacity="0.15" transform="rotate(-4.3, 346.8, 95.4)"><ellipse cx="346.81996386064543" cy="95.36940560637993" fill="#B8A8D4" rx="3.2379794181173764" ry="1.6" stroke="#55438B" stroke-width="0.15" /><circle cx="348.5579432787628" cy="95.36940560637993" fill="#888" r="0.75" stroke="#444" stroke-width="0.1" /><circle cx="345.08198444252804" cy="95.36940560637993" fill="#888" r="0.75" stroke="#444" stroke-width="0.1" /></g><g opacity="0.15" transform="rotate(-4.3, 347.0, 97.8)"><ellipse cx="346.998796653284" cy="97.77049587060753" fill="#D4C4A8" rx="3.2379794181173764" ry="1.6" stroke="#8B7355" stroke-width="0.15" /><circle cx="348.7367760714014" cy="97.77049587060753" fill="#888" r="0.75" stroke="#444" stroke-width="0.1" /><circle cx="345.2608172351666" cy="97.77049587060753" fill="#888" r="0.75" stroke="#444" stroke-width="0.1" /></g><g opacity="0.15" transform="rotate(-4.4, 353.8, 95.5)"><ellipse cx="353.83826664144533" cy="95.53071401663806" fill="#B8A8D4" rx="3.2372258121883206" ry="1.6" stroke="#55438B" stroke-width="0.15" /><circle cx="355.5754924536337" cy="95.53071401663806" fill="#888" r="0.75" stroke="#444" stroke-width="0.1" /><circle cx="352.101040829257" cy="95.53071401663806" fill="#888" r="0.75" stroke="#444" stroke-width="0.1" /></g><g opacity="0.15" transform="rotate(-4.4, 354.0, 97.7)"><ellipse cx="354.00308080085597" cy="97.66457257380546" fill="#D4C4A8" rx="3.2372258121883206" ry="1.6" stroke="#8B7355" stroke-width="0.15" /><circle cx="355.7403066130443" cy="97.66457257380546" fill="#888" r="0.75" stroke="#444" stroke-width="0.1" /><circle cx="352.2658549886676" cy="97.66457257380546" fill="#888" r="0.75" stroke="#444" stroke-width="0.1" /></g><g opacity="0.15" transform="rotate(-4.6, 360.9, 95.8)"><ellipse cx="360.8619400350507" cy="95.79238175666546" fill="#B8A8D4" rx="3.229955530346075" ry="1.6" stroke="#55438B" stroke-width="0.15" /><circle cx="362.5918955653967" cy="95.79238175666546" fill="#888" r="0.75" stroke="#444" stroke-width="0.1" /><circle cx="359.13198450470463" cy="95.79238175666546" fill="#888" r="0.75" stroke="#444" stroke-width="0.1" /></g><g opacity="0.15" transform="rotate(-4.6, 361.0, 97.7)"><ellipse cx="361.0127282741619" cy="97.65898843914238" fill="#D4C4A8" rx="3.229955530346075" ry="1.6" stroke="#8B7355" stroke-width="0.15" /><circle cx="362.7426838045079" cy="97.65898843914238" fill="#888" r="0.75" stroke="#444" stroke-width="0.1" /><circle cx="359.2827727438158" cy="97.65898843914238" fill="#888" r="0.75" stroke="#444" stroke-width="0.1" /></g><g opacity="0.15" transform="rotate(-4.9, 367.9, 96.0)"><ellipse cx="367.8832117521557" cy="96.00458477741734" fill="#B8A8D4" rx="3.2154262188818308" ry="1.55" stroke="#55438B" stroke-width="0.15" /><circle cx="369.59863797103753" cy="96.00458477741734" fill="#888" r="0.75" stroke="#444" stroke-width="0.1" /><circle cx="366.1677855332739" cy="96.00458477741734" fill="#888" r="0.75" stroke="#444" stroke-width="0.1" /></g><g opacity="0.15" transform="rotate(-4.9, 368.0, 97.6)"><ellipse cx="368.01996179558" cy="97.60390954220532" fill="#D4C4A8" rx="3.2154262188818308" ry="1.55" stroke="#8B7355" stroke-width="0.15" /><circle cx="369.7353880144618" cy="97.60390954220532" fill="#888" r="0.75" stroke="#444" stroke-width="0.1" /><circle cx="366.3045355766982" cy="97.60390954220532" fill="#888" r="0.75" stroke="#444" stroke-width="0.1" /></g><path d="M 61.62,46.67 L 62.03,46.63 L 62.42,46.51 L 62.78,46.31 L 63.10,46.05 L 63.36,45.73 L 63.55,45.37 L 63.66,44.98 L 63.70,44.57 L 63.66,44.16 L 63.53,43.77 L 63.34,43.41 L 63.07,43.10 L 62.75,42.84 L 62.39,42.66 L 61.99,42.54 L 61.58,42.51 L 61.18,42.56 L 60.79,42.68 L 60.43,42.89 L 60.12,43.15 L 59.87,43.47 L 59.68,43.84 L 59.57,44.24 L 59.54,44.64 L 84.64,826.00" fill="none" stroke="#FF0000" stroke-width="1.1555" /><circle cx="45.0" cy="69.58805890014798" fill="#888" opacity="0.15" r="1.75" stroke="#444" stroke-width="0.15" /><circle cx="61.62195057359059" cy="44.588058900147985" fill="#654321" r="1.5" stroke="#333" stroke-width="0.15" /><path d="M 69.16,47.47 L 69.56,47.44 L 69.94,47.32 L 70.29,47.13 L 70.60,46.87 L 70.85,46.56 L 71.04,46.21 L 71.15,45.83 L 71.18,45.43 L 71.14,45.03 L 71.02,44.65 L 70.83,44.30 L 70.57,44.00 L 70.26,43.75 L 69.91,43.56 L 69.52,43.45 L 69.12,43.42 L 68.73,43.47 L 68.35,43.59 L 68.00,43.79 L 67.69,44.05 L 67.45,44.36 L 67.27,44.72 L 67.16,45.10 L 67.13,45.50 L 90.86,810.95" fill="none" stroke="#999999" stroke-width="1.054" /><circle cx="51.88030239243677" cy="67.1207910380557" fill="#888" opacity="0.15" r="1.75" stroke="#444" stroke-width="0.15" /><circle cx="69.15750777706005" cy="45.447705113240545" fill="#654321" r="1.5" stroke="#333" stroke-width="0.15" /><path d="M 76.69,48.29 L 77.08,48.25 L 77.46,48.14 L 77.80,47.95 L 78.10,47.70 L 78.35,47.40 L 78.53,47.05 L 78.64,46.68 L 78.68,46.29 L 78.63,45.90 L 78.52,45.53 L 78.33,45.19 L 78.08,44.89 L 77.77,44.64 L 77.43,44.47 L 77.05,44.36 L 76.66,44.33 L 76.27,44.37 L 75.90,44.49 L 75.56,44.68 L 75.26,44.93 L 75.02,45.24 L 74.84,45.59 L 74.74,45.97 L 74.71,46.36 L 97.15,797.10" fill="none" stroke="#999999" stroke-width="0.965" /><circle cx="58.82611091782533" cy="65.90345465270104" fill="#888" opacity="0.15" r="1.75" stroke="#444" stroke-width="0.15" /><circle cx="76.69306498052951" cy="46.30735132633322" fill="#654321" r="1.5" stroke="#333" stroke-width="0.15" /><path d="M 84.23,49.12 L 84.61,49.08 L 84.98,48.97 L 85.32,48.79 L 85.61,48.54 L 85.86,48.24 L 86.04,47.90 L 86.14,47.53 L 86.18,47.15 L 86.14,46.77 L 86.02,46.40 L 85.84,46.07 L 85.59,45.77 L 85.29,45.53 L 84.95,45.35 L 84.58,45.25 L 84.20,45.22 L 83.82,45.26 L 83.45,45.38 L 83.11,45.57 L 82.82,45.81 L 82.58,46.12 L 82.41,46.46 L 82.31,46.83 L 82.28,47.21 L 103.47,783.95" fill="none" stroke="#0000FF" stroke-width="0.9015" /><circle cx="65.80598809089989" cy="65.33618679060874" fill="#888" opacity="0.15" r="1.75" stroke="#444" stroke-width="0.15" /><circle cx="84.22862218399897" cy="47.16699753942578" fill="#654321" r="1.5" stroke="#333" stroke-width="0.15" /><path d="M 91.76,49.93 L 92.14,49.90 L 92.50,49.79 L 92.83,49.61 L 93.12,49.37 L 93.35,49.08 L 93.53,48.75 L 93.64,48.39 L 93.67,48.01 L 93.63,47.64 L 93.52,47.28 L 93.34,46.95 L 93.10,46.66 L 92.80,46.43 L 92.47,46.26 L 92.11,46.15 L 91.74,46.12 L 91.36,46.16 L 91.01,46.28 L 90.68,46.46 L 90.39,46.70 L 90.16,47.00 L 89.99,47.33 L 89.89,47.69 L 89.86,48.07 L 109.81,771.20" fill="none" stroke="#999999" stroke-width="0.813" /><circle cx="72.94028506410716" cy="67.71542424214044" fill="#888" opacity="0.15" r="1.75" stroke="#444" stroke-width="0.15" /><circle cx="91.76417938746843" cy="48.02664375251834" fill="#654321" r="1.5" stroke="#333" stroke-width="0.15" /><path d="M 99.30,50.75 L 99.66,50.71 L 100.02,50.61 L 100.34,50.43 L 100.62,50.20 L 100.85,49.91 L 101.02,49.59 L 101.13,49.24 L 101.16,48.87 L 101.12,48.51 L 101.01,48.16 L 100.84,47.84 L 100.60,47.56 L 100.32,47.33 L 99.99,47.16 L 99.64,47.06 L 99.27,47.02 L 98.91,47.07 L 98.56,47.18 L 98.24,47.36 L 97.96,47.59 L 97.73,47.88 L 97.57,48.21 L 97.47,48.56 L 97.44,48.93 L 116.15,758.40" fill="none" stroke="#999999" stroke-width="0.724" /><circle cx="80.07196164835028" cy="70.04466169367231" fill="#888" opacity="0.15" r="1.75" stroke="#444" stroke-width="0.15" /><circle cx="99.2997365909379" cy="48.88628996561101" fill="#654321" r="1.5" stroke="#333" stroke-width="0.15" /><path d="M 106.84,51.59 L 107.20,51.55 L 107.54,51.45 L 107.86,51.28 L 108.14,51.04 L 108.37,50.76 L 108.54,50.44 L 108.64,50.10 L 108.68,49.73 L 108.64,49.37 L 108.53,49.03 L 108.36,48.71 L 108.13,48.43 L 107.84,48.20 L 107.52,48.04 L 107.17,47.93 L 106.81,47.90 L 106.45,47.94 L 106.10,48.05 L 105.79,48.23 L 105.51,48.46 L 105.29,48.75 L 105.12,49.07 L 105.02,49.42 L 104.99,49.78 L 122.47,745.30" fill="none" stroke="#999999" stroke-width="0.686" /><circle cx="87.18791589880848" cy="72.073899145204" fill="#888" opacity="0.15" r="1.75" stroke="#444" stroke-width="0.15" /><circle cx="106.83529379440736" cy="49.74593617870357" fill="#654321" r="1.5" stroke="#333" stroke-width="0.15" /><path d="M 114.37,52.42 L 114.73,52.39 L 115.07,52.28 L 115.38,52.11 L 115.66,51.89 L 115.89,51.61 L 116.05,51.29 L 116.16,50.95 L 116.19,50.59 L 116.15,50.24 L 116.04,49.90 L 115.87,49.58 L 115.64,49.31 L 115.37,49.08 L 115.05,48.92 L 114.70,48.82 L 114.35,48.79 L 113.99,48.83 L 113.65,48.94 L 113.34,49.11 L 113.07,49.34 L 112.84,49.62 L 112.68,49.94 L 112.58,50.28 L 112.55,50.64 L 128.75,731.45" fill="none" stroke="#FF0000" stroke-width="0.635" /><circle cx="94.2645643148044" cy="73.35313659673591" fill="#888" opacity="0.15" r="1.75" stroke="#444" stroke-width="0.15" /><circle cx="114.37085099787683" cy="50.60558239179625" fill="#654321" r="1.5" stroke="#333" stroke-width="0.15" /><path d="M 121.91,53.26 L 122.26,53.22 L 122.59,53.12 L 122.91,52.95 L 123.18,52.73 L 123.40,52.46 L 123.56,52.14 L 123.67,51.81 L 123.70,51.46 L 123.66,51.10 L 123.56,50.77 L 123.39,50.46 L 123.16,50.19 L 122.89,49.97 L 122.58,49.80 L 122.24,49.70 L 121.89,49.67 L 121.54,49.71 L 121.20,49.82 L 120.89,49.99 L 120.62,50.22 L 120.40,50.49 L 120.24,50.81 L 120.14,51.14 L 120.11,51.50 L 134.99,716.60" fill="none" stroke="#999999" stroke-width="0.584" /><circle cx="101.4222616399368" cy="76.17887936189186" fill="#888" opacity="0.15" r="1.75" stroke="#444" stroke-width="0.15" /><circle cx="121.9064082013463" cy="51.46522860488881" fill="#654321" r="1.5" stroke="#333" stroke-width="0.15" /><path d="M 129.44,54.49 L 129.86,54.44 L 130.27,54.32 L 130.65,54.12 L 130.97,53.85 L 131.24,53.52 L 131.44,53.14 L 131.56,52.74 L 131.60,52.31 L 131.56,51.89 L 131.43,51.49 L 131.23,51.11 L 130.96,50.79 L 130.63,50.52 L 130.25,50.32 L 129.84,50.20 L 129.42,50.16 L 129.00,50.21 L 128.59,50.34 L 128.22,50.54 L 127.90,50.82 L 127.63,51.15 L 127.43,51.53 L 127.32,51.93 L 127.28,52.36 L 141.10,699.50" fill="none" stroke="#999999" stroke-width="1.321" /><circle cx="108.59288135228971" cy="79.25119596393415" fill="#888" opacity="0.15" r="1.75" stroke="#444" stroke-width="0.15" /><circle cx="129.44196540481576" cy="52.32487481798137" fill="#654321" r="1.5" stroke="#333" stroke-width="0.15" /><path d="M 136.98,55.32 L 137.40,55.28 L 137.80,55.16 L 138.17,54.96 L 138.49,54.69 L 138.76,54.37 L 138.95,54.00 L 139.07,53.59 L 139.11,53.18 L 139.07,52.76 L 138.95,52.36 L 138.75,51.99 L 138.48,51.67 L 138.15,51.40 L 137.78,51.21 L 137.38,51.09 L 136.96,51.05 L 136.54,51.09 L 136.14,51.22 L 135.77,51.42 L 135.45,51.69 L 135.19,52.02 L 135.00,52.39 L 134.88,52.79 L 134.84,53.21 L 147.07,679.60" fill="none" stroke="#0000FF" stroke-width="1.27" /><circle cx="115.08816612459637" cy="69.43735426495539" fill="#888" opacity="0.15" r="1.75" stroke="#444" stroke-width="0.15" /><circle cx="136.9775226082852" cy="53.18452103107404" fill="#654321" r="1.5" stroke="#333" stroke-width="0.15" /><path d="M 144.51,56.13 L 144.92,56.09 L 145.31,55.97 L 145.67,55.78 L 145.99,55.52 L 146.25,55.20 L 146.44,54.84 L 146.56,54.44 L 146.60,54.04 L 146.56,53.63 L 146.44,53.24 L 146.24,52.88 L 145.98,52.56 L 145.66,52.30 L 145.30,52.11 L 144.91,52.00 L 144.50,51.96 L 144.09,52.00 L 143.70,52.12 L 143.34,52.32 L 143.03,52.58 L 142.77,52.90 L 142.58,53.27 L 142.46,53.66 L 142.43,54.07 L 152.91,657.40" fill="none" stroke="#999999" stroke-width="1.1685" /><circle cx="121.85804947418626" cy="64.86316555337362" fill="#888" opacity="0.15" r="1.75" stroke="#444" stroke-width="0.15" /><circle cx="144.51307981175466" cy="54.0441672441666" fill="#654321" r="1.5" stroke="#333" stroke-width="0.15" /><path d="M 152.05,56.95 L 152.45,56.91 L 152.83,56.79 L 153.19,56.60 L 153.50,56.35 L 153.75,56.04 L 153.94,55.68 L 154.06,55.30 L 154.09,54.90 L 154.05,54.50 L 153.94,54.11 L 153.75,53.76 L 153.49,53.45 L 153.18,53.20 L 152.82,53.01 L 152.44,52.90 L 152.04,52.86 L 151.64,52.90 L 151.25,53.02 L 150.90,53.21 L 150.59,53.47 L 150.34,53.78 L 150.15,54.13 L 150.04,54.52 L 150.00,54.92 L 158.62,632.60" fill="none" stroke="#999999" stroke-width="1.092" /><circle cx="129.5488589137477" cy="77.86129344383426" fill="#888" opacity="0.15" r="1.75" stroke="#444" stroke-width="0.15" /><circle cx="152.04863701522413" cy="54.90381345725916" fill="#654321" r="1.5" stroke="#333" stroke-width="0.15" /><path d="M 159.58,57.78 L 159.98,57.74 L 160.36,57.62 L 160.70,57.44 L 161.01,57.19 L 161.26,56.88 L 161.45,56.53 L 161.56,56.15 L 161.60,55.76 L 161.56,55.37 L 161.44,54.99 L 161.26,54.64 L 161.01,54.34 L 160.70,54.09 L 160.35,53.90 L 159.97,53.79 L 159.58,53.75 L 159.18,53.79 L 158.81,53.91 L 158.46,54.09 L 158.15,54.34 L 157.90,54.65 L 157.72,55.00 L 157.61,55.38 L 157.57,55.77 L 164.17,604.80" fill="none" stroke="#999999" stroke-width="1.0285" /><circle cx="136.55646865521845" cy="77.82319451001126" fill="#888" opacity="0.15" r="1.75" stroke="#444" stroke-width="0.15" /><circle cx="159.58419421869357" cy="55.763459670351835" fill="#654321" r="1.5" stroke="#333" stroke-width="0.15" /><path d="M 166.87,58.61 L 167.22,58.58 L 167.55,58.47 L 167.85,58.31 L 168.12,58.09 L 168.34,57.82 L 168.50,57.52 L 168.60,57.19 L 168.64,56.84 L 168.60,56.50 L 168.50,56.17 L 168.34,55.86 L 168.12,55.60 L 167.85,55.38 L 167.54,55.21 L 167.21,55.11 L 166.87,55.08 L 166.52,55.11 L 166.19,55.22 L 165.89,55.38 L 165.62,55.60 L 165.40,55.87 L 165.24,56.17 L 165.14,56.50 L 165.11,56.85 L 169.58,574.15" fill="none" stroke="#FF0000" stroke-width="1.0285" /><circle cx="143.67639600694724" cy="79.92824324996138" fill="#888" opacity="0.15" r="1.25" stroke="#444" stroke-width="0.15" /><circle cx="166.87136245704886" cy="56.8447700049594" fill="#654321" r="1.25" stroke="#333" stroke-width="0.15" /><path d="M 173.91,59.38 L 174.25,59.35 L 174.57,59.25 L 174.87,59.09 L 175.13,58.87 L 175.35,58.61 L 175.51,58.31 L 175.61,57.99 L 175.64,57.65 L 175.61,57.31 L 175.51,56.99 L 175.35,56.69 L 175.14,56.42 L 174.87,56.21 L 174.57,56.05 L 174.25,55.95 L 173.91,55.92 L 173.57,55.95 L 173.25,56.05 L 172.95,56.21 L 172.69,56.42 L 172.47,56.68 L 172.31,56.98 L 172.21,57.31 L 172.18,57.65 L 174.88,541.65" fill="none" stroke="#999999" stroke-width="0.965" /><circle cx="150.70198576481457" cy="80.23322346664918" fill="#888" opacity="0.15" r="1.25" stroke="#444" stroke-width="0.15" /><circle cx="173.91014173029" cy="57.64774446108197" fill="#654321" r="1.25" stroke="#333" stroke-width="0.15" /><path d="M 180.95,60.12 L 181.27,60.09 L 181.59,59.99 L 181.88,59.84 L 182.13,59.63 L 182.34,59.38 L 182.49,59.09 L 182.59,58.78 L 182.62,58.45 L 182.59,58.13 L 182.49,57.82 L 182.34,57.53 L 182.13,57.27 L 181.88,57.07 L 181.59,56.91 L 181.28,56.81 L 180.95,56.78 L 180.63,56.81 L 180.32,56.91 L 180.03,57.06 L 179.77,57.27 L 179.57,57.52 L 179.41,57.80 L 179.31,58.12 L 179.28,58.44 L 180.16,508.60" fill="none" stroke="#999999" stroke-width="0.838" /><circle cx="157.5652945556567" cy="77.44169836971275" fill="#888" opacity="0.15" r="1.25" stroke="#444" stroke-width="0.15" /><circle cx="180.94892100353115" cy="58.45071891720454" fill="#654321" r="1.25" stroke="#333" stroke-width="0.15" /><path d="M 187.99,60.92 L 188.31,60.89 L 188.63,60.80 L 188.91,60.64 L 189.17,60.44 L 189.37,60.18 L 189.53,59.90 L 189.62,59.58 L 189.66,59.26 L 189.63,58.93 L 189.53,58.62 L 189.38,58.33 L 189.17,58.08 L 188.92,57.87 L 188.64,57.72 L 188.32,57.62 L 188.00,57.58 L 187.67,57.61 L 187.36,57.71 L 187.07,57.86 L 186.82,58.06 L 186.61,58.31 L 186.45,58.60 L 186.35,58.91 L 186.32,59.24 L 185.45,475.85" fill="none" stroke="#0000FF" stroke-width="0.838" /><circle cx="164.7086222593106" cy="79.993252423287" fill="#888" opacity="0.15" r="1.25" stroke="#444" stroke-width="0.15" /><circle cx="187.9877002767723" cy="59.25369337332711" fill="#654321" r="1.25" stroke="#333" stroke-width="0.15" /><path d="M 195.03,61.69 L 195.34,61.66 L 195.65,61.57 L 195.93,61.42 L 196.18,61.22 L 196.38,60.97 L 196.54,60.69 L 196.63,60.38 L 196.66,60.06 L 196.63,59.75 L 196.54,59.44 L 196.39,59.16 L 196.19,58.91 L 195.95,58.70 L 195.67,58.55 L 195.36,58.45 L 195.04,58.42 L 194.72,58.45 L 194.42,58.54 L 194.13,58.68 L 193.88,58.88 L 193.68,59.13 L 193.52,59.41 L 193.43,59.71 L 193.39,60.03 L 190.81,444.25" fill="none" stroke="#999999" stroke-width="0.7745" /><circle cx="171.64792233011315" cy="78.65172732635051" fill="#888" opacity="0.15" r="1.25" stroke="#444" stroke-width="0.15" /><circle cx="195.02647955001345" cy="60.05666782944968" fill="#654321" r="1.25" stroke="#333" stroke-width="0.15" /><path d="M 202.07,62.50 L 202.38,62.47 L 202.69,62.37 L 202.97,62.22 L 203.22,62.02 L 203.42,61.78 L 203.57,61.49 L 203.67,61.19 L 203.70,60.87 L 203.67,60.55 L 203.58,60.25 L 203.44,59.96 L 203.24,59.71 L 202.99,59.51 L 202.71,59.35 L 202.41,59.26 L 202.09,59.22 L 201.77,59.25 L 201.46,59.34 L 201.18,59.48 L 200.93,59.68 L 200.72,59.93 L 200.56,60.20 L 200.47,60.51 L 200.43,60.83 L 196.28,414.85" fill="none" stroke="#999999" stroke-width="0.7745" /><circle cx="178.8333594059457" cy="82.00677606630052" fill="#888" opacity="0.15" r="1.25" stroke="#444" stroke-width="0.15" /><circle cx="202.0652588232546" cy="60.85964228557225" fill="#654321" r="1.25" stroke="#333" stroke-width="0.15" /><path d="M 209.10,63.23 L 209.41,63.20 L 209.70,63.11 L 209.97,62.97 L 210.21,62.78 L 210.40,62.54 L 210.55,62.27 L 210.64,61.98 L 210.67,61.68 L 210.64,61.37 L 210.56,61.08 L 210.42,60.81 L 210.23,60.57 L 209.99,60.37 L 209.73,60.22 L 209.44,60.13 L 209.13,60.10 L 208.83,60.12 L 208.53,60.20 L 208.26,60.34 L 208.02,60.53 L 207.82,60.76 L 207.67,61.03 L 207.58,61.32 L 207.54,61.62 L 201.90,388.35" fill="none" stroke="#999999" stroke-width="0.635" /><circle cx="185.64480268145758" cy="78.2255979819671" fill="#888" opacity="0.15" r="1.25" stroke="#444" stroke-width="0.15" /><circle cx="209.10403809649574" cy="61.66261674169482" fill="#654321" r="1.25" stroke="#333" stroke-width="0.15" /><path d="M 216.14,64.03 L 216.45,64.00 L 216.74,63.92 L 217.01,63.77 L 217.25,63.58 L 217.44,63.35 L 217.59,63.08 L 217.68,62.79 L 217.71,62.48 L 217.68,62.18 L 217.60,61.89 L 217.46,61.61 L 217.27,61.38 L 217.04,61.18 L 216.77,61.03 L 216.48,60.93 L 216.18,60.90 L 215.87,60.92 L 215.58,61.00 L 215.31,61.14 L 215.07,61.33 L 214.87,61.56 L 214.71,61.82 L 214.62,62.11 L 214.58,62.41 L 207.67,364.65" fill="none" stroke="#FF0000" stroke-width="0.635" /><circle cx="192.73382762956925" cy="79.74099373452009" fill="#888" opacity="0.15" r="1.25" stroke="#444" stroke-width="0.15" /><circle cx="216.1428173697369" cy="62.46559119781739" fill="#654321" r="1.25" stroke="#333" stroke-width="0.15" /><path d="M 223.18,64.84 L 223.48,64.81 L 223.78,64.72 L 224.05,64.58 L 224.28,64.38 L 224.48,64.15 L 224.62,63.88 L 224.72,63.59 L 224.75,63.29 L 224.72,62.99 L 224.64,62.69 L 224.50,62.42 L 224.31,62.18 L 224.08,61.98 L 223.82,61.83 L 223.53,61.74 L 223.22,61.70 L 222.92,61.72 L 222.63,61.80 L 222.35,61.94 L 222.11,62.12 L 221.91,62.35 L 221.76,62.62 L 221.66,62.90 L 221.62,63.21 L 213.55,343.25" fill="none" stroke="#999999" stroke-width="0.635" /><circle cx="199.80993378161247" cy="81.00988417344888" fill="#888" opacity="0.15" r="1.25" stroke="#444" stroke-width="0.15" /><circle cx="223.18159664297804" cy="63.26856565393996" fill="#654321" r="1.25" stroke="#333" stroke-width="0.15" /><path d="M 230.22,65.61 L 230.52,65.58 L 230.80,65.49 L 231.07,65.35 L 231.30,65.17 L 231.49,64.94 L 231.63,64.68 L 231.72,64.39 L 231.76,64.10 L 231.73,63.80 L 231.65,63.51 L 231.52,63.25 L 231.33,63.01 L 231.11,62.82 L 230.85,62.67 L 230.56,62.57 L 230.27,62.54 L 229.97,62.56 L 229.68,62.63 L 229.42,62.76 L 229.18,62.94 L 228.98,63.17 L 228.83,63.42 L 228.73,63.70 L 228.69,64.00 L 219.55,324.00" fill="none" stroke="#999999" stroke-width="0.5715" /><circle cx="206.86787676850685" cy="81.93220077549131" fill="#888" opacity="0.15" r="1.25" stroke="#444" stroke-width="0.15" /><circle cx="230.2203759162192" cy="64.07154011006264" fill="#654321" r="1.25" stroke="#333" stroke-width="0.15" /><path d="M 237.26,66.41 L 237.56,66.38 L 237.84,66.30 L 238.10,66.16 L 238.34,65.97 L 238.53,65.74 L 238.67,65.48 L 238.76,65.20 L 238.79,64.90 L 238.77,64.61 L 238.69,64.32 L 238.56,64.05 L 238.37,63.82 L 238.15,63.62 L 237.89,63.48 L 237.61,63.38 L 237.31,63.34 L 237.02,63.36 L 236.73,63.43 L 236.46,63.56 L 236.22,63.74 L 236.02,63.96 L 235.87,64.22 L 235.77,64.50 L 235.73,64.79 L 225.65,306.50" fill="none" stroke="#0000FF" stroke-width="0.5715" /><circle cx="213.88669347853917" cy="82.10794354064728" fill="#888" opacity="0.15" r="1.25" stroke="#444" stroke-width="0.15" /><circle cx="237.25915518946036" cy="64.87451456618521" fill="#654321" r="1.25" stroke="#333" stroke-width="0.15" /><path d="M 244.30,67.21 L 244.59,67.18 L 244.88,67.10 L 245.14,66.96 L 245.37,66.77 L 245.56,66.55 L 245.71,66.29 L 245.80,66.00 L 245.83,65.71 L 245.81,65.41 L 245.73,65.13 L 245.60,64.86 L 245.42,64.63 L 245.19,64.43 L 244.94,64.28 L 244.66,64.18 L 244.36,64.14 L 244.07,64.16 L 243.78,64.23 L 243.51,64.36 L 243.27,64.54 L 243.07,64.76 L 242.91,65.01 L 242.81,65.29 L 242.77,65.58 L 231.82,290.50" fill="none" stroke="#999999" stroke-width="0.5715" /><circle cx="220.9815050596839" cy="83.73375482906545" fill="#888" opacity="0.15" r="1.25" stroke="#444" stroke-width="0.15" /><circle cx="244.2979344627015" cy="65.67748902230778" fill="#654321" r="1.25" stroke="#333" stroke-width="0.15" /><path d="M 251.34,67.98 L 251.63,67.96 L 251.90,67.87 L 252.16,67.74 L 252.39,67.56 L 252.57,67.33 L 252.72,67.08 L 252.81,66.80 L 252.84,66.52 L 252.82,66.23 L 252.74,65.95 L 252.61,65.69 L 252.44,65.46 L 252.22,65.26 L 251.97,65.12 L 251.69,65.02 L 251.41,64.98 L 251.12,64.99 L 250.84,65.06 L 250.57,65.19 L 250.34,65.36 L 250.14,65.57 L 249.99,65.82 L 249.88,66.09 L 249.84,66.37 L 238.05,275.75" fill="none" stroke="#999999" stroke-width="0.508" /><circle cx="228.0109864743251" cy="84.11299228059727" fill="#888" opacity="0.15" r="1.25" stroke="#444" stroke-width="0.15" /><circle cx="251.33671373594265" cy="66.48046347843035" fill="#654321" r="1.25" stroke="#333" stroke-width="0.15" /><path d="M 258.38,68.79 L 258.66,68.76 L 258.94,68.68 L 259.20,68.54 L 259.42,68.36 L 259.61,68.14 L 259.75,67.89 L 259.84,67.61 L 259.88,67.32 L 259.86,67.03 L 259.78,66.75 L 259.66,66.49 L 259.48,66.26 L 259.26,66.07 L 259.01,65.92 L 258.74,65.82 L 258.46,65.78 L 258.17,65.79 L 257.88,65.86 L 257.62,65.98 L 257.38,66.15 L 257.19,66.36 L 257.03,66.61 L 256.93,66.88 L 256.88,67.16 L 244.35,262.05" fill="none" stroke="#999999" stroke-width="0.508" /><circle cx="235.0954960572135" cy="85.54222973212904" fill="#888" opacity="0.15" r="1.25" stroke="#444" stroke-width="0.15" /><circle cx="258.37549300918386" cy="67.28343793455292" fill="#654321" r="1.25" stroke="#333" stroke-width="0.15" /><path d="M 265.17,69.56 L 265.41,69.54 L 265.64,69.47 L 265.85,69.36 L 266.04,69.21 L 266.20,69.02 L 266.31,68.81 L 266.39,68.58 L 266.42,68.34 L 266.40,68.10 L 266.34,67.87 L 266.24,67.65 L 266.09,67.46 L 265.91,67.30 L 265.70,67.18 L 265.48,67.09 L 265.24,67.06 L 265.00,67.07 L 264.76,67.12 L 264.54,67.22 L 264.35,67.36 L 264.18,67.53 L 264.05,67.74 L 263.96,67.96 L 263.92,68.20 L 250.69,249.30" fill="none" stroke="#FF0000" stroke-width="0.508" /><circle cx="242.09895313981337" cy="85.42489334677441" fill="#888" opacity="0.15" r="1.0" stroke="#444" stroke-width="0.15" /><circle cx="265.1658833173108" cy="68.3080765121905" fill="#654321" r="1.0" stroke="#333" stroke-width="0.15" /><path d="M 271.71,70.28 L 271.94,70.26 L 272.17,70.19 L 272.38,70.08 L 272.56,69.94 L 272.72,69.76 L 272.83,69.55 L 272.91,69.33 L 272.94,69.09 L 272.92,68.86 L 272.86,68.63 L 272.76,68.42 L 272.62,68.23 L 272.44,68.07 L 272.24,67.95 L 272.02,67.87 L 271.78,67.83 L 271.55,67.84 L 271.32,67.89 L 271.10,67.99 L 270.91,68.12 L 270.75,68.29 L 270.62,68.49 L 270.53,68.71 L 270.48,68.94 L 257.08,237.50" fill="none" stroke="#999999" stroke-width="0.457" /><circle cx="249.14958081492003" cy="86.20762548468201" fill="#888" opacity="0.15" r="1.0" stroke="#444" stroke-width="0.15" /><circle cx="271.70788466032366" cy="69.05437921134308" fill="#654321" r="1.0" stroke="#333" stroke-width="0.15" /><path d="M 278.25,71.03 L 278.48,71.01 L 278.71,70.94 L 278.92,70.83 L 279.10,70.68 L 279.26,70.50 L 279.37,70.30 L 279.45,70.08 L 279.48,69.84 L 279.46,69.61 L 279.40,69.38 L 279.30,69.17 L 279.16,68.98 L 278.99,68.82 L 278.79,68.70 L 278.57,68.61 L 278.33,68.57 L 278.10,68.58 L 277.87,68.63 L 277.65,68.73 L 277.46,68.86 L 277.29,69.03 L 277.16,69.23 L 277.07,69.45 L 277.03,69.68 L 263.51,226.55" fill="none" stroke="#999999" stroke-width="0.457" /><circle cx="256.2473719002294" cy="87.89028909932745" fill="#888" opacity="0.15" r="1.0" stroke="#444" stroke-width="0.15" /><circle cx="278.2498860033365" cy="69.80068191049554" fill="#654321" r="1.0" stroke="#333" stroke-width="0.15" /><path d="M 284.79,71.78 L 285.03,71.75 L 285.25,71.69 L 285.46,71.58 L 285.64,71.43 L 285.80,71.25 L 285.91,71.05 L 285.99,70.83 L 286.02,70.59 L 286.01,70.36 L 285.95,70.13 L 285.85,69.92 L 285.71,69.73 L 285.53,69.57 L 285.33,69.44 L 285.11,69.36 L 284.88,69.32 L 284.65,69.33 L 284.42,69.38 L 284.20,69.47 L 284.01,69.60 L 283.84,69.77 L 283.71,69.97 L 283.62,70.18 L 283.57,70.41 L 269.99,216.40" fill="none" stroke="#0000FF" stroke-width="0.457" /><circle cx="263.1201758321262" cy="85.27994208672442" fill="#888" opacity="0.15" r="1.0" stroke="#444" stroke-width="0.15" /><circle cx="284.7918873463493" cy="70.54698460964812" fill="#654321" r="1.0" stroke="#333" stroke-width="0.15" /><path d="M 291.33,72.52 L 291.57,72.50 L 291.79,72.43 L 292.00,72.32 L 292.19,72.18 L 292.34,72.00 L 292.45,71.80 L 292.53,71.57 L 292.56,71.34 L 292.55,71.11 L 292.49,70.88 L 292.39,70.67 L 292.25,70.48 L 292.08,70.32 L 291.88,70.19 L 291.66,70.11 L 291.43,70.07 L 291.20,70.07 L 290.97,70.12 L 290.75,70.21 L 290.55,70.34 L 290.39,70.51 L 290.26,70.70 L 290.16,70.92 L 290.11,71.15 L 276.51,207.00" fill="none" stroke="#999999" stroke-width="0.457" /><circle cx="270.2991989753243" cy="88.51260570136981" fill="#888" opacity="0.15" r="1.0" stroke="#444" stroke-width="0.15" /><circle cx="291.3338886893622" cy="71.2932873088007" fill="#654321" r="1.0" stroke="#333" stroke-width="0.15" /><path d="M 297.88,73.24 L 298.10,73.22 L 298.32,73.16 L 298.53,73.05 L 298.71,72.91 L 298.86,72.73 L 298.97,72.53 L 299.05,72.32 L 299.08,72.09 L 299.07,71.86 L 299.01,71.64 L 298.91,71.43 L 298.78,71.24 L 298.61,71.09 L 298.42,70.96 L 298.20,70.88 L 297.98,70.84 L 297.75,70.84 L 297.52,70.89 L 297.31,70.98 L 297.12,71.10 L 296.96,71.26 L 296.82,71.45 L 296.73,71.66 L 296.68,71.89 L 283.07,198.35" fill="none" stroke="#999999" stroke-width="0.4065" /><circle cx="277.2506145761457" cy="87.40225868876689" fill="#888" opacity="0.15" r="1.0" stroke="#444" stroke-width="0.15" /><circle cx="297.87589003237497" cy="72.03959000795317" fill="#654321" r="1.0" stroke="#333" stroke-width="0.15" /><path d="M 304.42,73.99 L 304.65,73.97 L 304.87,73.90 L 305.07,73.80 L 305.25,73.66 L 305.40,73.48 L 305.51,73.28 L 305.59,73.07 L 305.62,72.84 L 305.61,72.61 L 305.55,72.39 L 305.46,72.18 L 305.32,71.99 L 305.16,71.84 L 304.96,71.71 L 304.75,71.63 L 304.53,71.59 L 304.30,71.59 L 304.07,71.63 L 303.86,71.72 L 303.67,71.84 L 303.50,72.00 L 303.37,72.19 L 303.28,72.40 L 303.23,72.62 L 289.65,190.30" fill="none" stroke="#999999" stroke-width="0.4065" /><circle cx="284.23609164234904" cy="86.94184315290158" fill="#888" opacity="0.15" r="1.0" stroke="#444" stroke-width="0.15" /><circle cx="304.41789137538785" cy="72.78589270710575" fill="#654321" r="1.0" stroke="#333" stroke-width="0.15" /><path d="M 310.96,74.74 L 311.19,74.71 L 311.41,74.65 L 311.61,74.54 L 311.79,74.40 L 311.94,74.23 L 312.05,74.03 L 312.13,73.82 L 312.16,73.59 L 312.15,73.36 L 312.10,73.14 L 312.00,72.93 L 311.87,72.74 L 311.70,72.59 L 311.51,72.46 L 311.30,72.38 L 311.08,72.33 L 310.85,72.33 L 310.62,72.38 L 310.41,72.46 L 310.22,72.59 L 310.05,72.74 L 309.92,72.93 L 309.82,73.14 L 309.77,73.36 L 296.27,182.90" fill="none" stroke="#FF0000" stroke-width="0.4065" /><circle cx="291.2530169672742" cy="87.08149614029867" fill="#888" opacity="0.15" r="1.0" stroke="#444" stroke-width="0.15" /><circle cx="310.9598927184007" cy="73.53219540625832" fill="#654321" r="1.0" stroke="#333" stroke-width="0.15" /><path d="M 317.50,75.47 L 317.73,75.45 L 317.94,75.38 L 318.14,75.28 L 318.32,75.14 L 318.47,74.97 L 318.58,74.78 L 318.66,74.56 L 318.69,74.34 L 318.68,74.11 L 318.63,73.89 L 318.54,73.69 L 318.41,73.50 L 318.24,73.35 L 318.05,73.22 L 317.85,73.14 L 317.62,73.09 L 317.40,73.09 L 317.18,73.13 L 316.97,73.22 L 316.77,73.34 L 316.61,73.49 L 316.48,73.67 L 316.38,73.88 L 316.33,74.10 L 302.92,176.00" fill="none" stroke="#999999" stroke-width="0.381" /><circle cx="298.298762979653" cy="87.77108060443345" fill="#888" opacity="0.15" r="1.0" stroke="#444" stroke-width="0.15" /><circle cx="317.5018940614135" cy="74.2784981054109" fill="#654321" r="1.0" stroke="#333" stroke-width="0.15" /><path d="M 324.04,76.20 L 324.27,76.18 L 324.48,76.12 L 324.68,76.02 L 324.85,75.88 L 325.00,75.71 L 325.11,75.52 L 325.19,75.31 L 325.22,75.09 L 325.21,74.87 L 325.16,74.65 L 325.07,74.45 L 324.94,74.26 L 324.78,74.11 L 324.60,73.98 L 324.39,73.90 L 324.17,73.85 L 323.95,73.85 L 323.73,73.89 L 323.52,73.97 L 323.33,74.09 L 323.17,74.24 L 323.04,74.42 L 322.94,74.62 L 322.88,74.83 L 309.60,169.60" fill="none" stroke="#999999" stroke-width="0.3555" /><circle cx="305.36809608386125" cy="88.91073359183042" fill="#888" opacity="0.15" r="1.0" stroke="#444" stroke-width="0.15" /><circle cx="324.0438954044263" cy="75.02480080456337" fill="#654321" r="1.0" stroke="#333" stroke-width="0.15" /><path d="M 330.59,76.95 L 330.81,76.93 L 331.02,76.87 L 331.22,76.76 L 331.39,76.63 L 331.54,76.46 L 331.65,76.27 L 331.73,76.06 L 331.76,75.84 L 331.75,75.62 L 331.70,75.40 L 331.61,75.20 L 331.49,75.01 L 331.33,74.86 L 331.14,74.73 L 330.94,74.65 L 330.72,74.60 L 330.50,74.60 L 330.28,74.63 L 330.07,74.71 L 329.88,74.83 L 329.72,74.98 L 329.58,75.15 L 329.49,75.35 L 329.43,75.57 L 316.29,163.60" fill="none" stroke="#0000FF" stroke-width="0.3555" /><circle cx="312.4610090975948" cy="90.50031805596518" fill="#888" opacity="0.15" r="1.0" stroke="#444" stroke-width="0.15" /><circle cx="330.5858967474391" cy="75.77110350371595" fill="#654321" r="1.0" stroke="#333" stroke-width="0.15" /><path d="M 337.13,77.70 L 337.35,77.67 L 337.56,77.61 L 337.76,77.51 L 337.93,77.38 L 338.08,77.21 L 338.19,77.02 L 338.27,76.81 L 338.30,76.59 L 338.30,76.37 L 338.25,76.15 L 338.16,75.95 L 338.03,75.77 L 337.88,75.61 L 337.69,75.48 L 337.49,75.40 L 337.27,75.35 L 337.05,75.34 L 336.83,75.38 L 336.62,75.45 L 336.43,75.57 L 336.27,75.71 L 336.13,75.89 L 336.03,76.09 L 335.97,76.30 L 323.01,158.00" fill="none" stroke="#999999" stroke-width="0.3555" /><circle cx="319.5722684252295" cy="92.43997104336222" fill="#888" opacity="0.15" r="1.0" stroke="#444" stroke-width="0.15" /><circle cx="337.1278980904519" cy="76.51740620286853" fill="#654321" r="1.0" stroke="#333" stroke-width="0.15" /><path d="M 343.67,78.42 L 343.89,78.40 L 344.10,78.34 L 344.29,78.24 L 344.46,78.11 L 344.61,77.95 L 344.72,77.76 L 344.79,77.55 L 344.83,77.34 L 344.82,77.12 L 344.77,76.91 L 344.69,76.71 L 344.57,76.53 L 344.41,76.37 L 344.23,76.25 L 344.03,76.16 L 343.82,76.12 L 343.60,76.11 L 343.39,76.14 L 343.18,76.21 L 343.00,76.32 L 342.83,76.46 L 342.70,76.63 L 342.60,76.83 L 342.53,77.04 L 329.74,152.70" fill="none" stroke="#999999" stroke-width="0.3175" /><circle cx="326.56841019604167" cy="92.18305019387287" fill="#888" opacity="0.15" r="1.0" stroke="#444" stroke-width="0.15" /><circle cx="343.6698994334647" cy="77.26370890202111" fill="#654321" r="1.0" stroke="#333" stroke-width="0.15" /><path d="M 350.21,79.17 L 350.43,79.15 L 350.64,79.09 L 350.83,78.99 L 351.00,78.86 L 351.15,78.70 L 351.26,78.51 L 351.33,78.31 L 351.37,78.09 L 351.36,77.87 L 351.32,77.66 L 351.23,77.46 L 351.11,77.28 L 350.96,77.13 L 350.78,77.00 L 350.59,76.91 L 350.37,76.86 L 350.16,76.85 L 349.94,76.88 L 349.74,76.95 L 349.55,77.06 L 349.38,77.20 L 349.25,77.37 L 349.14,77.56 L 349.08,77.77 L 336.48,147.65" fill="none" stroke="#999999" stroke-width="0.3175" /><circle cx="333.57765391167464" cy="92.17612934438341" fill="#888" opacity="0.15" r="1.0" stroke="#444" stroke-width="0.15" /><circle cx="350.2119007764775" cy="78.01001160117357" fill="#654321" r="1.0" stroke="#333" stroke-width="0.15" /><path d="M 356.75,79.92 L 356.97,79.89 L 357.18,79.84 L 357.37,79.74 L 357.54,79.61 L 357.69,79.44 L 357.80,79.26 L 357.87,79.06 L 357.91,78.84 L 357.91,78.63 L 357.86,78.42 L 357.78,78.22 L 357.66,78.03 L 357.51,77.88 L 357.33,77.75 L 357.14,77.66 L 356.93,77.61 L 356.71,77.60 L 356.50,77.63 L 356.29,77.69 L 356.10,77.80 L 355.94,77.94 L 355.80,78.10 L 355.69,78.29 L 355.62,78.50 L 343.24,142.80" fill="none" stroke="#FF0000" stroke-width="0.3175" /><circle cx="340.59737918316415" cy="92.369208494894" fill="#888" opacity="0.15" r="1.0" stroke="#444" stroke-width="0.15" /><circle cx="356.75390211949025" cy="78.75631430032615" fill="#654321" r="1.0" stroke="#333" stroke-width="0.15" /><path d="M 363.30,80.66 L 363.51,80.64 L 363.72,80.58 L 363.91,80.49 L 364.08,80.35 L 364.23,80.19 L 364.34,80.01 L 364.41,79.81 L 364.45,79.60 L 364.45,79.38 L 364.41,79.17 L 364.32,78.97 L 364.21,78.79 L 364.06,78.63 L 363.89,78.51 L 363.69,78.41 L 363.48,78.36 L 363.27,78.34 L 363.05,78.37 L 362.85,78.43 L 362.66,78.54 L 362.49,78.67 L 362.35,78.83 L 362.24,79.02 L 362.17,79.22 L 350.01,138.15" fill="none" stroke="#999999" stroke-width="0.3175" /><circle cx="347.6275860105103" cy="92.76228764540463" fill="#888" opacity="0.15" r="1.0" stroke="#444" stroke-width="0.15" /><circle cx="363.29590346250313" cy="79.50261699947873" fill="#654321" r="1.0" stroke="#333" stroke-width="0.15" /><path d="M 369.84,81.41 L 370.05,81.39 L 370.26,81.33 L 370.45,81.23 L 370.62,81.10 L 370.76,80.94 L 370.88,80.76 L 370.95,80.56 L 370.99,80.35 L 370.99,80.14 L 370.95,79.92 L 370.87,79.72 L 370.76,79.54 L 370.61,79.39 L 370.44,79.26 L 370.25,79.16 L 370.04,79.11 L 369.82,79.09 L 369.61,79.11 L 369.41,79.17 L 369.22,79.27 L 369.05,79.40 L 368.90,79.56 L 368.79,79.75 L 368.72,79.95 L 356.77,133.55" fill="none" stroke="#999999" stroke-width="0.3175" /><circle cx="354.66041322682065" cy="93.20536679591521" fill="#888" opacity="0.15" r="1.0" stroke="#444" stroke-width="0.15" /><circle cx="369.8379048055159" cy="80.2489196986312" fill="#654321" r="1.0" stroke="#333" stroke-width="0.15" /><path d="M 376.38,82.15 L 376.59,82.13 L 376.80,82.08 L 376.99,81.98 L 377.16,81.85 L 377.30,81.69 L 377.42,81.51 L 377.49,81.31 L 377.53,81.10 L 377.53,80.89 L 377.50,80.68 L 377.42,80.48 L 377.31,80.30 L 377.16,80.14 L 376.99,80.01 L 376.80,79.92 L 376.60,79.86 L 376.39,79.84 L 376.17,79.86 L 375.97,79.91 L 375.78,80.01 L 375.60,80.13 L 375.46,80.29 L 375.35,80.47 L 375.27,80.67 L 363.55,129.05" fill="none" stroke="#0000FF" stroke-width="0.3175" /><circle cx="361.6984812210593" cy="93.74844594642582" fill="#888" opacity="0.15" r="1.0" stroke="#444" stroke-width="0.15" /><circle cx="376.3799061485287" cy="80.99522239778378" fill="#654321" r="1.0" stroke="#333" stroke-width="0.15" /><path d="M 382.92,82.90 L 383.13,82.88 L 383.34,82.82 L 383.53,82.73 L 383.70,82.60 L 383.84,82.45 L 383.95,82.27 L 384.03,82.07 L 384.07,81.86 L 384.08,81.65 L 384.04,81.44 L 383.97,81.24 L 383.86,81.06 L 383.72,80.90 L 383.55,80.77 L 383.36,80.67 L 383.16,80.61 L 382.95,80.58 L 382.74,80.60 L 382.53,80.65 L 382.34,80.74 L 382.17,80.86 L 382.02,81.01 L 381.90,81.19 L 381.82,81.39 L 370.32,124.50" fill="none" stroke="#999999" stroke-width="0.3175" /><circle cx="368.7339288263338" cy="94.24152509693636" fill="#888" opacity="0.15" r="1.0" stroke="#444" stroke-width="0.15" /><circle cx="382.92190749154156" cy="81.74152509693636" fill="#654321" r="1.0" stroke="#333" stroke-width="0.15" /></svg>