<?xml version="1.0" encoding="utf-8" ?>
<svg baseProfile="full" height="46.8vw" preserveAspectRatio="xMinYMin meet" version="1.1" viewBox="0 0 427 200" width="100vw" xmlns="http://www.w3.org/2000/svg" xmlns:ev="http://www.w3.org/2001/xml-events" xmlns:xlink="http://www.w3.org/1999/xlink"><defs /><rect fill="white" height="871" width="427" x="0" y="0" /><line opacity="1.0" stroke="#90EE90" stroke-dasharray="4,2" stroke-width="0.5" x1="45.0" x2="368.7339288263338" y1="69.58805890014798" y2="94.24152509693636" /><line opacity="1.0" stroke="#8B4513" stroke-width="0.8" x1="61.62195057359059" x2="382.92190749154156" y1="46.088058900147985" y2="82.74152509693636" /><path d="M 84.6,826.0 L 90.9,811.0 L 97.1,797.1 L 103.5,784.0 L 109.8,771.2 L 116.1,758.4 L 122.5,745.3 L 128.8,731.5 L 135.0,716.6 L 141.1,699.5 L 147.1,679.6 L 152.9,657.4 L 158.6,632.6 L 164.2,604.8 L 169.6,574.1 L 174.9,541.6 L 180.2,508.6 L 185.5,475.9 L 190.8,444.2 L 196.3,414.9 L 201.9,388.4 L 207.7,364.6 L 213.6,343.2 L 219.6,324.0 L 225.6,306.5 L 231.8,290.5 L 238.1,275.8 L 244.3,262.0 L 250.7,249.3 L 257.1,237.5 L 263.5,226.5 L 270.0,216.4 L 276.5,207.0 L 283.1,198.4 L 289.7,190.3 L 296.3,182.9 L 302.9,176.0 L 309.6,169.6 L 316.3,163.6 L 323.0,158.0 L 329.7,152.7 L 336.5,147.6 L 343.2,142.8 L 350.0,138.1 L 356.8,133.5 L 363.5,129.0 L 370.3,124.5" fill="none" stroke="black" stroke-width="0.5" /><g opacity="1.0" transform="rotate(-3.2, 45.0, 112.2)"><path d="M 47.53,109.61 A 2.55,2.55 0 0,1 47.53,114.71 L 42.53,114.71 A 2.55,2.55 0 0,1 42.53,109.61 L 47.53,109.61 Z" fill="#A8C4E8" stroke="#4A6B8B" stroke-width="0.15" /><circle cx="47.53105294821351" cy="112.16055558459163" fill="#6688AA" r="1.25" stroke="#334455" stroke-width="0.1" /><circle cx="42.53105294821351" cy="112.16055558459163" fill="#6688AA" r="1.25" stroke="#334455" stroke-width="0.1" /></g><g opacity="1.0" transform="rotate(-3.2, 47.3, 152.2)"><path d="M 49.75,149.68 A 2.55,2.55 0 0,1 49.75,154.78 L 44.75,154.78 A 2.55,2.55 0 0,1 44.75,149.68 L 49.75,149.68 Z" fill="#A8C4E8" stroke="#4A6B8B" stroke-width="0.15" /><circle cx="49.75423728363998" cy="152.2252850373244" fill="#6688AA" r="1.25" stroke="#334455" stroke-width="0.1" /><circle cx="44.75423728363998" cy="152.2252850373244" fill="#6688AA" r="1.25" stroke="#334455" stroke-width="0.1" /></g><g opacity="1.0" transform="rotate(-3.2, 51.9, 109.0)"><path d="M 54.42,106.43 A 2.55,2.55 0 0,1 54.42,111.53 L 49.42,111.53 A 2.55,2.55 0 0,1 49.42,106.43 L 54.42,106.43 Z" fill="#E8C4A8" stroke="#8B6B4A" stroke-width="0.15" /><circle cx="54.42217409284333" cy="108.98447549675336" fill="#AA8866" r="1.25" stroke="#554433" stroke-width="0.1" /><circle cx="49.42217409284333" cy="108.98447549675336" fill="#AA8866" r="1.25" stroke="#554433" stroke-width="0.1" /></g><g opacity="1.0" transform="rotate(-3.2, 54.1, 148.4)"><path d="M 56.61,145.83 A 2.55,2.55 0 0,1 56.61,150.93 L 51.61,150.93 A 2.55,2.55 0 0,1 51.61,145.83 L 56.61,145.83 Z" fill="#E8C4A8" stroke="#8B6B4A" stroke-width="0.15" /><circle cx="56.60774008527053" cy="148.38277303325367" fill="#AA8866" r="1.25" stroke="#554433" stroke-width="0.1" /><circle cx="51.60774008527053" cy="148.38277303325367" fill="#AA8866" r="1.25" stroke="#554433" stroke-width="0.1" /></g><g opacity="1.0" transform="rotate(-3.2, 58.9, 107.1)"><path d="M 61.37,104.56 A 2.50,2.50 0 0,1 61.37,109.56 L 56.37,109.56 A 2.50,2.50 0 0,1 56.37,104.56 L 61.37,104.56 Z" fill="#A8C4E8" stroke="#4A6B8B" stroke-width="0.15" /><circle cx="61.372764672299404" cy="107.05585151342007" fill="#6688AA" r="1.25" stroke="#334455" stroke-width="0.1" /><circle cx="56.372764672299404" cy="107.05585151342007" fill="#6688AA" r="1.25" stroke="#334455" stroke-width="0.1" /></g><g opacity="1.0" transform="rotate(-3.2, 61.0, 145.8)"><path d="M 63.52,143.29 A 2.50,2.50 0 0,1 63.52,148.29 L 58.52,148.29 A 2.50,2.50 0 0,1 58.52,143.29 L 63.52,143.29 Z" fill="#A8C4E8" stroke="#4A6B8B" stroke-width="0.15" /><circle cx="63.52090426598299" cy="145.785053627205" fill="#6688AA" r="1.25" stroke="#334455" stroke-width="0.1" /><circle cx="58.52090426598299" cy="145.785053627205" fill="#6688AA" r="1.25" stroke="#334455" stroke-width="0.1" /></g><g opacity="1.0" transform="rotate(-3.2, 65.8, 105.8)"><path d="M 68.35,103.28 A 2.50,2.50 0 0,1 68.35,108.28 L 63.35,108.28 A 2.50,2.50 0 0,1 63.35,103.28 L 68.35,103.28 Z" fill="#E8C4A8" stroke="#8B6B4A" stroke-width="0.15" /><circle cx="68.34555544257758" cy="105.78076476126091" fill="#AA8866" r="1.25" stroke="#554433" stroke-width="0.1" /><circle cx="63.34555544257758" cy="105.78076476126091" fill="#AA8866" r="1.25" stroke="#554433" stroke-width="0.1" /></g><g opacity="1.0" transform="rotate(-3.2, 68.0, 143.8)"><path d="M 70.46,141.34 A 2.50,2.50 0 0,1 70.46,146.34 L 65.46,146.34 A 2.50,2.50 0 0,1 65.46,141.34 L 70.46,141.34 Z" fill="#E8C4A8" stroke="#8B6B4A" stroke-width="0.15" /><circle cx="70.4570816323922" cy="143.8434792071654" fill="#AA8866" r="1.25" stroke="#554433" stroke-width="0.1" /><circle cx="65.4570816323922" cy="143.8434792071654" fill="#AA8866" r="1.25" stroke="#554433" stroke-width="0.1" /></g><g opacity="1.0" transform="rotate(-3.2, 73.0, 107.3)"><path d="M 75.48,104.81 A 2.50,2.50 0 0,1 75.48,109.81 L 70.48,109.81 A 2.50,2.50 0 0,1 70.48,104.81 L 75.48,104.81 Z" fill="#A8C4E8" stroke="#4A6B8B" stroke-width="0.15" /><circle cx="75.4770562416295" cy="107.30861674064272" fill="#6688AA" r="1.25" stroke="#334455" stroke-width="0.1" /><circle cx="70.4770562416295" cy="107.30861674064272" fill="#6688AA" r="1.25" stroke="#334455" stroke-width="0.1" /></g><g opacity="1.0" transform="rotate(-3.2, 75.0, 144.6)"><path d="M 77.54,142.07 A 2.50,2.50 0 0,1 77.54,147.07 L 72.54,147.07 A 2.50,2.50 0 0,1 72.54,142.07 L 77.54,142.07 Z" fill="#A8C4E8" stroke="#4A6B8B" stroke-width="0.15" /><circle cx="77.54423788717918" cy="144.5699769307754" fill="#6688AA" r="1.25" stroke="#334455" stroke-width="0.1" /><circle cx="72.54423788717918" cy="144.5699769307754" fill="#6688AA" r="1.25" stroke="#334455" stroke-width="0.1" /></g><g opacity="1.0" transform="rotate(-3.2, 80.1, 108.8)"><path d="M 82.61,106.24 A 2.55,2.55 0 0,1 82.61,111.34 L 77.61,111.34 A 2.55,2.55 0 0,1 77.61,106.24 L 82.61,106.24 Z" fill="#E8C4A8" stroke="#8B6B4A" stroke-width="0.15" /><circle cx="82.60617224633587" cy="108.78645565512466" fill="#AA8866" r="1.25" stroke="#554433" stroke-width="0.1" /><circle cx="77.60617224633587" cy="108.78645565512466" fill="#AA8866" r="1.25" stroke="#554433" stroke-width="0.1" /></g><g opacity="1.0" transform="rotate(-3.2, 82.1, 145.2)"><path d="M 84.63,142.70 A 2.55,2.55 0 0,1 84.63,147.80 L 79.63,147.80 A 2.55,2.55 0 0,1 79.63,142.70 L 84.63,142.70 Z" fill="#E8C4A8" stroke="#8B6B4A" stroke-width="0.15" /><circle cx="84.62899612471071" cy="145.246462322762" fill="#AA8866" r="1.25" stroke="#554433" stroke-width="0.1" /><circle cx="79.62899612471071" cy="145.246462322762" fill="#AA8866" r="1.25" stroke="#554433" stroke-width="0.1" /></g><g opacity="1.0" transform="rotate(-3.2, 87.2, 110.0)"><path d="M 89.70,107.47 A 2.50,2.50 0 0,1 89.70,112.47 L 84.70,112.47 A 2.50,2.50 0 0,1 84.70,107.47 L 89.70,107.47 Z" fill="#A8C4E8" stroke="#4A6B8B" stroke-width="0.15" /><circle cx="89.69553536804867" cy="109.96562832897621" fill="#6688AA" r="1.25" stroke="#334455" stroke-width="0.1" /><circle cx="84.69553536804867" cy="109.96562832897621" fill="#6688AA" r="1.25" stroke="#334455" stroke-width="0.1" /></g><g opacity="1.0" transform="rotate(-3.2, 89.2, 145.6)"><path d="M 91.68,143.12 A 2.50,2.50 0 0,1 91.68,148.12 L 86.68,148.12 A 2.50,2.50 0 0,1 86.68,143.12 L 91.68,143.12 Z" fill="#A8C4E8" stroke="#4A6B8B" stroke-width="0.15" /><circle cx="91.67535021033964" cy="145.62420661595672" fill="#6688AA" r="1.25" stroke="#334455" stroke-width="0.1" /><circle cx="86.67535021033964" cy="145.62420661595672" fill="#6688AA" r="1.25" stroke="#334455" stroke-width="0.1" /></g><g opacity="1.0" transform="rotate(-3.2, 94.3, 110.4)"><path d="M 96.75,107.89 A 2.50,2.50 0 0,1 96.75,112.89 L 91.75,112.89 A 2.50,2.50 0 0,1 91.75,107.89 L 96.75,107.89 Z" fill="#E8C4A8" stroke="#8B6B4A" stroke-width="0.15" /><circle cx="96.75171815702319" cy="110.3944617777961" fill="#AA8866" r="1.25" stroke="#554433" stroke-width="0.1" /><circle cx="91.75171815702319" cy="110.3944617777961" fill="#AA8866" r="1.25" stroke="#554433" stroke-width="0.1" /></g><g opacity="1.0" transform="rotate(-3.2, 96.2, 145.3)"><path d="M 98.69,142.75 A 2.50,2.50 0 0,1 98.69,147.75 L 93.69,147.75 A 2.50,2.50 0 0,1 93.69,142.75 L 98.69,142.75 Z" fill="#E8C4A8" stroke="#8B6B4A" stroke-width="0.15" /><circle cx="98.68818016523585" cy="145.25163072335806" fill="#AA8866" r="1.25" stroke="#554433" stroke-width="0.1" /><circle cx="93.68818016523585" cy="145.25163072335806" fill="#AA8866" r="1.25" stroke="#554433" stroke-width="0.1" /></g><g opacity="1.0" transform="rotate(-3.2, 101.4, 112.2)"><path d="M 103.88,109.73 A 2.50,2.50 0 0,1 103.88,114.73 L 98.88,114.73 A 2.50,2.50 0 0,1 98.88,109.73 L 103.88,109.73 Z" fill="#A8C4E8" stroke="#4A6B8B" stroke-width="0.15" /><circle cx="103.88146051382158" cy="112.2268889912691" fill="#6688AA" r="1.25" stroke="#334455" stroke-width="0.1" /><circle cx="98.88146051382158" cy="112.2268889912691" fill="#6688AA" r="1.25" stroke="#334455" stroke-width="0.1" /></g><g opacity="1.0" transform="rotate(-3.2, 103.3, 146.1)"><path d="M 105.77,143.65 A 2.50,2.50 0 0,1 105.77,148.65 L 100.77,148.65 A 2.50,2.50 0 0,1 100.77,143.65 L 105.77,143.65 Z" fill="#A8C4E8" stroke="#4A6B8B" stroke-width="0.15" /><circle cx="105.7674996840199" cy="146.14774524333734" fill="#6688AA" r="1.25" stroke="#334455" stroke-width="0.1" /><circle cx="100.7674996840199" cy="146.14774524333734" fill="#6688AA" r="1.25" stroke="#334455" stroke-width="0.1" /></g><g opacity="1.0" transform="rotate(-3.2, 108.1, 114.2)"><path d="M 110.65,111.74 A 2.45,2.45 0 0,1 110.65,116.64 L 105.65,116.64 A 2.45,2.45 0 0,1 105.65,111.74 L 110.65,111.74 Z" fill="#E8C4A8" stroke="#8B6B4A" stroke-width="0.15" /><circle cx="110.64550378406369" cy="114.18656681547714" fill="#AA8866" r="1.25" stroke="#554433" stroke-width="0.1" /><circle cx="105.64550378406369" cy="114.18656681547714" fill="#AA8866" r="1.25" stroke="#554433" stroke-width="0.1" /></g><g opacity="1.0" transform="rotate(-3.2, 110.0, 147.0)"><path d="M 112.50,144.59 A 2.45,2.45 0 0,1 112.50,149.49 L 107.50,149.49 A 2.45,2.45 0 0,1 107.50,144.59 L 112.50,144.59 Z" fill="#E8C4A8" stroke="#8B6B4A" stroke-width="0.15" /><circle cx="112.49502702790787" cy="147.03768554959618" fill="#AA8866" r="1.25" stroke="#554433" stroke-width="0.1" /><circle cx="107.49502702790787" cy="147.03768554959618" fill="#AA8866" r="1.25" stroke="#554433" stroke-width="0.1" /></g><g opacity="1.0" transform="rotate(-3.2, 114.6, 103.8)"><path d="M 117.14,101.31 A 2.50,2.50 0 0,1 117.14,106.31 L 112.14,106.31 A 2.50,2.50 0 0,1 112.14,101.31 L 117.14,101.31 Z" fill="#A8C4E8" stroke="#4A6B8B" stroke-width="0.15" /><circle cx="117.13515564837425" cy="103.80535143958491" fill="#6688AA" r="1.25" stroke="#334455" stroke-width="0.1" /><circle cx="112.13515564837425" cy="103.80535143958491" fill="#6688AA" r="1.25" stroke="#334455" stroke-width="0.1" /></g><g opacity="1.0" transform="rotate(-3.2, 116.5, 136.1)"><path d="M 118.96,133.62 A 2.50,2.50 0 0,1 118.96,138.62 L 113.96,138.62 A 2.50,2.50 0 0,1 113.96,133.62 L 118.96,133.62 Z" fill="#A8C4E8" stroke="#4A6B8B" stroke-width="0.15" /><circle cx="118.95532738874378" cy="136.12222184424093" fill="#6688AA" r="1.25" stroke="#334455" stroke-width="0.1" /><circle cx="113.95532738874378" cy="136.12222184424093" fill="#6688AA" r="1.25" stroke="#334455" stroke-width="0.1" /></g><g opacity="1.0" transform="rotate(-3.2, 121.4, 98.2)"><path d="M 123.90,95.74 A 2.50,2.50 0 0,1 123.90,100.74 L 118.90,100.74 A 2.50,2.50 0 0,1 118.90,95.74 L 123.90,95.74 Z" fill="#E8C4A8" stroke="#8B6B4A" stroke-width="0.15" /><circle cx="123.90102647875707" cy="98.23933527927" fill="#AA8866" r="1.25" stroke="#554433" stroke-width="0.1" /><circle cx="118.90102647875707" cy="98.23933527927" fill="#AA8866" r="1.25" stroke="#554433" stroke-width="0.1" /></g><g opacity="1.0" transform="rotate(-3.2, 123.2, 129.6)"><path d="M 125.67,127.12 A 2.50,2.50 0 0,1 125.67,132.12 L 120.67,132.12 A 2.50,2.50 0 0,1 120.67,127.12 L 125.67,127.12 Z" fill="#E8C4A8" stroke="#8B6B4A" stroke-width="0.15" /><circle cx="125.66957846427471" cy="129.62261190808204" fill="#AA8866" r="1.25" stroke="#554433" stroke-width="0.1" /><circle cx="120.66957846427471" cy="129.62261190808204" fill="#AA8866" r="1.25" stroke="#554433" stroke-width="0.1" /></g><g opacity="1.0" transform="rotate(-3.2, 129.0, 109.1)"><path d="M 131.52,106.61 A 2.50,2.50 0 0,1 131.52,111.61 L 126.52,111.61 A 2.50,2.50 0 0,1 126.52,106.61 L 131.52,106.61 Z" fill="#A8C4E8" stroke="#4A6B8B" stroke-width="0.15" /><circle cx="131.51672278049188" cy="109.11427205313635" fill="#6688AA" r="1.25" stroke="#334455" stroke-width="0.1" /><circle cx="126.51672278049188" cy="109.11427205313635" fill="#6688AA" r="1.25" stroke="#334455" stroke-width="0.1" /></g><g opacity="1.0" transform="rotate(-3.2, 130.7, 138.5)"><path d="M 133.18,136.00 A 2.50,2.50 0 0,1 133.18,141.00 L 128.18,141.00 A 2.50,2.50 0 0,1 128.18,136.00 L 133.18,136.00 Z" fill="#A8C4E8" stroke="#4A6B8B" stroke-width="0.15" /><circle cx="133.17831027363138" cy="138.49526833547804" fill="#6688AA" r="1.25" stroke="#334455" stroke-width="0.1" /><circle cx="128.17831027363138" cy="138.49526833547804" fill="#6688AA" r="1.25" stroke="#334455" stroke-width="0.1" /></g><g opacity="1.0" transform="rotate(-3.2, 136.0, 107.5)"><path d="M 138.47,105.02 A 2.50,2.50 0 0,1 138.47,110.02 L 133.47,110.02 A 2.50,2.50 0 0,1 133.47,105.02 L 138.47,105.02 Z" fill="#E8C4A8" stroke="#8B6B4A" stroke-width="0.15" /><circle cx="138.4726101900776" cy="107.51655496947183" fill="#AA8866" r="1.25" stroke="#554433" stroke-width="0.1" /><circle cx="133.4726101900776" cy="107.51655496947183" fill="#AA8866" r="1.25" stroke="#554433" stroke-width="0.1" /></g><g opacity="1.0" transform="rotate(-3.2, 137.6, 135.4)"><path d="M 140.06,132.93 A 2.50,2.50 0 0,1 140.06,137.93 L 135.06,137.93 A 2.50,2.50 0 0,1 135.06,132.93 L 140.06,132.93 Z" fill="#E8C4A8" stroke="#8B6B4A" stroke-width="0.15" /><circle cx="140.05544115051026" cy="135.4269301138254" fill="#AA8866" r="1.25" stroke="#554433" stroke-width="0.1" /><circle cx="135.05544115051026" cy="135.4269301138254" fill="#AA8866" r="1.25" stroke="#554433" stroke-width="0.1" /></g><g opacity="1.0" transform="rotate(-3.2, 143.5, 107.8)"><path d="M 146.47,105.31 A 2.45,2.45 0 0,1 146.47,110.21 L 140.47,110.21 A 2.45,2.45 0 0,1 140.47,105.31 L 146.47,105.31 Z" fill="#A8C4E8" stroke="#4A6B8B" stroke-width="0.15" /><circle cx="146.46736055123404" cy="107.7568921866922" fill="#6688AA" r="1.0" stroke="#334455" stroke-width="0.1" /><circle cx="140.46736055123404" cy="107.7568921866922" fill="#6688AA" r="1.0" stroke="#334455" stroke-width="0.1" /></g><g opacity="1.0" transform="rotate(-3.2, 144.9, 133.9)"><path d="M 147.93,131.48 A 2.45,2.45 0 0,1 147.93,136.38 L 141.93,136.38 A 2.45,2.45 0 0,1 141.93,131.48 L 147.93,131.48 Z" fill="#A8C4E8" stroke="#4A6B8B" stroke-width="0.15" /><circle cx="147.93280787092834" cy="133.93352592323515" fill="#6688AA" r="1.0" stroke="#334455" stroke-width="0.1" /><circle cx="141.93280787092834" cy="133.93352592323515" fill="#6688AA" r="1.0" stroke="#334455" stroke-width="0.1" /></g><g opacity="1.0" transform="rotate(-3.2, 150.4, 106.2)"><path d="M 153.43,103.77 A 2.45,2.45 0 0,1 153.43,108.67 L 147.43,108.67 A 2.45,2.45 0 0,1 147.43,103.77 L 153.43,103.77 Z" fill="#E8C4A8" stroke="#8B6B4A" stroke-width="0.15" /><circle cx="153.42639269776694" cy="106.2191992186938" fill="#AA8866" r="1.0" stroke="#554433" stroke-width="0.1" /><circle cx="147.42639269776694" cy="106.2191992186938" fill="#AA8866" r="1.0" stroke="#554433" stroke-width="0.1" /></g><g opacity="1.0" transform="rotate(-3.2, 151.8, 130.7)"><path d="M 154.80,128.21 A 2.45,2.45 0 0,1 154.80,133.11 L 148.80,133.11 A 2.45,2.45 0 0,1 148.80,128.21 L 154.80,128.21 Z" fill="#E8C4A8" stroke="#8B6B4A" stroke-width="0.15" /><circle cx="154.7990822978563" cy="130.65805219210506" fill="#AA8866" r="1.0" stroke="#554433" stroke-width="0.1" /><circle cx="148.7990822978563" cy="130.65805219210506" fill="#AA8866" r="1.0" stroke="#554433" stroke-width="0.1" /></g><g opacity="1.0" transform="rotate(-3.2, 157.3, 101.7)"><path d="M 160.26,99.38 A 2.35,2.35 0 0,1 160.26,104.08 L 154.26,104.08 A 2.35,2.35 0 0,1 154.26,99.38 L 160.26,99.38 Z" fill="#A8C4E8" stroke="#4A6B8B" stroke-width="0.15" /><circle cx="160.26055240556198" cy="101.72623862918817" fill="#6688AA" r="1.0" stroke="#334455" stroke-width="0.1" /><circle cx="154.26055240556198" cy="101.72623862918817" fill="#6688AA" r="1.0" stroke="#334455" stroke-width="0.1" /></g><g opacity="1.0" transform="rotate(-3.2, 158.5, 124.6)"><path d="M 161.55,122.21 A 2.35,2.35 0 0,1 161.55,126.91 L 155.55,126.91 A 2.35,2.35 0 0,1 155.55,122.21 L 161.55,122.21 Z" fill="#A8C4E8" stroke="#4A6B8B" stroke-width="0.15" /><circle cx="161.5458750550495" cy="124.56230813790955" fill="#6688AA" r="1.0" stroke="#334455" stroke-width="0.1" /><circle cx="155.5458750550495" cy="124.56230813790955" fill="#6688AA" r="1.0" stroke="#334455" stroke-width="0.1" /></g><g opacity="1.0" transform="rotate(-3.2, 164.3, 102.3)"><path d="M 167.30,100.00 A 2.30,2.30 0 0,1 167.30,104.60 L 161.30,104.60 A 2.30,2.30 0 0,1 161.30,100.00 L 167.30,100.00 Z" fill="#E8C4A8" stroke="#8B6B4A" stroke-width="0.15" /><circle cx="167.3000662864163" cy="102.29673934870061" fill="#AA8866" r="1.0" stroke="#554433" stroke-width="0.1" /><circle cx="161.3000662864163" cy="102.29673934870061" fill="#AA8866" r="1.0" stroke="#554433" stroke-width="0.1" /></g><g opacity="1.0" transform="rotate(-3.2, 165.5, 123.3)"><path d="M 168.49,120.96 A 2.30,2.30 0 0,1 168.49,125.56 L 162.49,125.56 A 2.30,2.30 0 0,1 162.49,120.96 L 168.49,120.96 Z" fill="#E8C4A8" stroke="#8B6B4A" stroke-width="0.15" /><circle cx="168.48737876798526" cy="123.26267285274912" fill="#AA8866" r="1.0" stroke="#554433" stroke-width="0.1" /><circle cx="162.48737876798526" cy="123.26267285274912" fill="#AA8866" r="1.0" stroke="#554433" stroke-width="0.1" /></g><g opacity="1.0" transform="rotate(-3.3, 171.2, 99.3)"><path d="M 174.18,97.01 A 2.25,2.25 0 0,1 174.18,101.51 L 168.18,101.51 A 2.25,2.25 0 0,1 168.18,97.01 L 174.18,97.01 Z" fill="#A8C4E8" stroke="#4A6B8B" stroke-width="0.15" /><circle cx="174.18030356729696" cy="99.25550676137414" fill="#6688AA" r="1.0" stroke="#334455" stroke-width="0.1" /><circle cx="168.18030356729696" cy="99.25550676137414" fill="#6688AA" r="1.0" stroke="#334455" stroke-width="0.1" /></g><g opacity="1.0" transform="rotate(-3.3, 172.3, 118.6)"><path d="M 175.28,116.37 A 2.25,2.25 0 0,1 175.28,120.87 L 169.28,120.87 A 2.25,2.25 0 0,1 169.28,116.37 L 175.28,116.37 Z" fill="#A8C4E8" stroke="#4A6B8B" stroke-width="0.15" /><circle cx="175.28192802562268" cy="118.61855981542294" fill="#6688AA" r="1.0" stroke="#334455" stroke-width="0.1" /><circle cx="169.28192802562268" cy="118.61855981542294" fill="#6688AA" r="1.0" stroke="#334455" stroke-width="0.1" /></g><g opacity="1.0" transform="rotate(-3.3, 178.3, 100.8)"><path d="M 181.27,98.52 A 2.25,2.25 0 0,1 181.27,103.02 L 175.27,103.02 A 2.25,2.25 0 0,1 175.27,98.52 L 181.27,98.52 Z" fill="#E8C4A8" stroke="#8B6B4A" stroke-width="0.15" /><circle cx="181.26942474058092" cy="100.77249471742039" fill="#AA8866" r="1.0" stroke="#554433" stroke-width="0.1" /><circle cx="175.26942474058092" cy="100.77249471742039" fill="#AA8866" r="1.0" stroke="#554433" stroke-width="0.1" /></g><g opacity="1.0" transform="rotate(-3.3, 179.3, 118.4)"><path d="M 182.28,116.15 A 2.25,2.25 0 0,1 182.28,120.65 L 176.28,120.65 A 2.25,2.25 0 0,1 176.28,116.15 L 182.28,116.15 Z" fill="#E8C4A8" stroke="#8B6B4A" stroke-width="0.15" /><circle cx="182.2801085534253" cy="118.40031057262422" fill="#AA8866" r="1.0" stroke="#554433" stroke-width="0.1" /><circle cx="176.2801085534253" cy="118.40031057262422" fill="#AA8866" r="1.0" stroke="#554433" stroke-width="0.1" /></g><g opacity="1.0" transform="rotate(-3.3, 185.1, 95.7)"><path d="M 188.08,93.81 A 1.90,1.90 0 0,1 188.08,97.61 L 182.08,97.61 A 1.90,1.90 0 0,1 182.08,93.81 L 188.08,93.81 Z" fill="#A8C4E8" stroke="#4A6B8B" stroke-width="0.15" /><circle cx="188.07978494827188" cy="95.71269997429044" fill="#6688AA" r="1.0" stroke="#334455" stroke-width="0.1" /><circle cx="182.07978494827188" cy="95.71269997429044" fill="#6688AA" r="1.0" stroke="#334455" stroke-width="0.1" /></g><g opacity="1.0" transform="rotate(-3.3, 186.0, 112.1)"><path d="M 189.02,110.24 A 1.90,1.90 0 0,1 189.02,114.04 L 183.02,114.04 A 1.90,1.90 0 0,1 183.02,110.24 L 189.02,110.24 Z" fill="#A8C4E8" stroke="#4A6B8B" stroke-width="0.15" /><circle cx="189.0237038920623" cy="112.13716957320685" fill="#6688AA" r="1.0" stroke="#334455" stroke-width="0.1" /><circle cx="183.0237038920623" cy="112.13716957320685" fill="#6688AA" r="1.0" stroke="#334455" stroke-width="0.1" /></g><g opacity="1.0" transform="rotate(-3.3, 192.1, 95.8)"><path d="M 195.09,93.96 A 1.85,1.85 0 0,1 195.09,97.66 L 189.09,97.66 A 1.85,1.85 0 0,1 189.09,93.96 L 195.09,93.96 Z" fill="#E8C4A8" stroke="#8B6B4A" stroke-width="0.15" /><circle cx="195.0946719645661" cy="95.81319349036494" fill="#AA8866" r="1.0" stroke="#554433" stroke-width="0.1" /><circle cx="189.0946719645661" cy="95.81319349036494" fill="#AA8866" r="1.0" stroke="#554433" stroke-width="0.1" /></g><g opacity="1.0" transform="rotate(-3.3, 193.0, 110.9)"><path d="M 195.97,109.05 A 1.85,1.85 0 0,1 195.97,112.75 L 189.97,112.75 A 1.85,1.85 0 0,1 189.97,109.05 L 195.97,109.05 Z" fill="#E8C4A8" stroke="#8B6B4A" stroke-width="0.15" /><circle cx="195.9685828149673" cy="110.90184403217677" fill="#AA8866" r="1.0" stroke="#554433" stroke-width="0.1" /><circle cx="189.9685828149673" cy="110.90184403217677" fill="#AA8866" r="1.0" stroke="#554433" stroke-width="0.1" /></g><g opacity="1.0" transform="rotate(-3.3, 199.1, 95.8)"><path d="M 202.10,93.91 A 1.90,1.90 0 0,1 202.10,97.71 L 196.10,97.71 A 1.90,1.90 0 0,1 196.10,93.91 L 202.10,93.91 Z" fill="#A8C4E8" stroke="#4A6B8B" stroke-width="0.15" /><circle cx="202.1041337961712" cy="95.8101267592441" fill="#6688AA" r="1.0" stroke="#334455" stroke-width="0.1" /><circle cx="196.1041337961712" cy="95.8101267592441" fill="#6688AA" r="1.0" stroke="#334455" stroke-width="0.1" /></g><g opacity="1.0" transform="rotate(-3.3, 199.9, 109.7)"><path d="M 202.92,107.80 A 1.90,1.90 0 0,1 202.92,111.60 L 196.92,111.60 A 1.90,1.90 0 0,1 196.92,107.80 L 202.92,107.80 Z" fill="#A8C4E8" stroke="#4A6B8B" stroke-width="0.15" /><circle cx="202.91510631745885" cy="109.69785971483611" fill="#6688AA" r="1.0" stroke="#334455" stroke-width="0.1" /><circle cx="196.91510631745885" cy="109.69785971483611" fill="#6688AA" r="1.0" stroke="#334455" stroke-width="0.1" /></g><g opacity="1.0" transform="rotate(-3.4, 206.1, 95.6)"><path d="M 209.13,93.75 A 1.85,1.85 0 0,1 209.13,97.45 L 203.13,97.45 A 1.85,1.85 0 0,1 203.13,93.75 L 209.13,93.75 Z" fill="#E8C4A8" stroke="#8B6B4A" stroke-width="0.15" /><circle cx="209.13268854735844" cy="95.59886505925078" fill="#AA8866" r="1.0" stroke="#554433" stroke-width="0.1" /><circle cx="203.13268854735844" cy="95.59886505925078" fill="#AA8866" r="1.0" stroke="#554433" stroke-width="0.1" /></g><g opacity="1.0" transform="rotate(-3.4, 206.9, 108.4)"><path d="M 209.89,106.57 A 1.85,1.85 0 0,1 209.89,110.27 L 203.89,110.27 A 1.85,1.85 0 0,1 203.89,106.57 L 209.89,106.57 Z" fill="#E8C4A8" stroke="#8B6B4A" stroke-width="0.15" /><circle cx="209.8859751949592" cy="108.41803574208154" fill="#AA8866" r="1.0" stroke="#554433" stroke-width="0.1" /><circle cx="203.8859751949592" cy="108.41803574208154" fill="#AA8866" r="1.0" stroke="#554433" stroke-width="0.1" /></g><g opacity="1.0" transform="rotate(-3.4, 213.1, 94.8)"><path d="M 216.10,92.93 A 1.85,1.85 0 0,1 216.10,96.63 L 210.10,96.63 A 1.85,1.85 0 0,1 210.10,92.93 L 216.10,92.93 Z" fill="#A8C4E8" stroke="#4A6B8B" stroke-width="0.15" /><circle cx="216.09955137482015" cy="94.78290465566238" fill="#6688AA" r="1.0" stroke="#334455" stroke-width="0.1" /><circle cx="210.09955137482015" cy="94.78290465566238" fill="#6688AA" r="1.0" stroke="#334455" stroke-width="0.1" /></g><g opacity="1.0" transform="rotate(-3.4, 213.8, 106.7)"><path d="M 216.80,104.82 A 1.85,1.85 0 0,1 216.80,108.52 L 210.80,108.52 A 1.85,1.85 0 0,1 210.80,104.82 L 216.80,104.82 Z" fill="#A8C4E8" stroke="#4A6B8B" stroke-width="0.15" /><circle cx="216.803762139963" cy="106.6656721488988" fill="#6688AA" r="1.0" stroke="#334455" stroke-width="0.1" /><circle cx="210.803762139963" cy="106.6656721488988" fill="#6688AA" r="1.0" stroke="#334455" stroke-width="0.1" /></g><g opacity="1.0" transform="rotate(-3.4, 220.1, 95.4)"><path d="M 223.14,93.57 A 1.85,1.85 0 0,1 223.14,97.27 L 217.14,97.27 A 1.85,1.85 0 0,1 217.14,93.57 L 223.14,93.57 Z" fill="#E8C4A8" stroke="#8B6B4A" stroke-width="0.15" /><circle cx="223.1425641179556" cy="95.41987536302724" fill="#AA8866" r="1.0" stroke="#554433" stroke-width="0.1" /><circle cx="217.1425641179556" cy="95.41987536302724" fill="#AA8866" r="1.0" stroke="#554433" stroke-width="0.1" /></g><g opacity="1.0" transform="rotate(-3.4, 220.8, 106.4)"><path d="M 223.80,104.52 A 1.85,1.85 0 0,1 223.80,108.22 L 217.80,108.22 A 1.85,1.85 0 0,1 217.80,104.52 L 223.80,104.52 Z" fill="#E8C4A8" stroke="#8B6B4A" stroke-width="0.15" /><circle cx="223.79783716823374" cy="106.36888144041825" fill="#AA8866" r="1.0" stroke="#554433" stroke-width="0.1" /><circle cx="217.79783716823374" cy="106.36888144041825" fill="#AA8866" r="1.0" stroke="#554433" stroke-width="0.1" /></g><g opacity="1.0" transform="rotate(-3.4, 227.2, 94.9)"><path d="M 230.16,93.15 A 1.80,1.80 0 0,1 230.16,96.75 L 224.16,96.75 A 1.80,1.80 0 0,1 224.16,93.15 L 230.16,93.15 Z" fill="#A8C4E8" stroke="#4A6B8B" stroke-width="0.15" /><circle cx="230.1574956456448" cy="94.9485914128079" fill="#6688AA" r="1.0" stroke="#334455" stroke-width="0.1" /><circle cx="224.1574956456448" cy="94.9485914128079" fill="#6688AA" r="1.0" stroke="#334455" stroke-width="0.1" /></g><g opacity="1.0" transform="rotate(-3.4, 227.8, 105.1)"><path d="M 230.77,103.30 A 1.80,1.80 0 0,1 230.77,106.90 L 224.77,106.90 A 1.80,1.80 0 0,1 224.77,103.30 L 230.77,103.30 Z" fill="#A8C4E8" stroke="#4A6B8B" stroke-width="0.15" /><circle cx="230.76908383686722" cy="105.09619473788212" fill="#6688AA" r="1.0" stroke="#334455" stroke-width="0.1" /><circle cx="224.76908383686722" cy="105.09619473788212" fill="#6688AA" r="1.0" stroke="#334455" stroke-width="0.1" /></g><g opacity="1.0" transform="rotate(-3.5, 234.2, 95.5)"><path d="M 236.89,93.73 A 1.80,1.80 0 0,1 236.89,97.33 L 231.50,97.33 A 1.80,1.80 0 0,1 231.50,93.73 L 236.89,93.73 Z" fill="#E8C4A8" stroke="#8B6B4A" stroke-width="0.15" /><circle cx="236.89228244488754" cy="95.52916419503447" fill="#AA8866" r="1.0" stroke="#554433" stroke-width="0.1" /><circle cx="231.50283717533517" cy="95.52916419503447" fill="#AA8866" r="1.0" stroke="#554433" stroke-width="0.1" /></g><g opacity="1.0" transform="rotate(-3.5, 234.8, 104.9)"><path d="M 237.46,103.08 A 1.80,1.80 0 0,1 237.46,106.68 L 232.07,106.68 A 1.80,1.80 0 0,1 232.07,103.08 L 237.46,103.08 Z" fill="#E8C4A8" stroke="#8B6B4A" stroke-width="0.15" /><circle cx="237.46186368430577" cy="104.87526055740705" fill="#AA8866" r="1.0" stroke="#554433" stroke-width="0.1" /><circle cx="232.0724184147534" cy="104.87526055740705" fill="#AA8866" r="1.0" stroke="#554433" stroke-width="0.1" /></g><g opacity="1.0" transform="rotate(-3.4, 241.4, 94.7)"><path d="M 244.35,92.89 A 1.80,1.80 0 0,1 244.35,96.49 L 238.45,96.49 A 1.80,1.80 0 0,1 238.45,92.89 L 244.35,92.89 Z" fill="#A8C4E8" stroke="#4A6B8B" stroke-width="0.15" /><circle cx="244.34993531509156" cy="94.6889501393473" fill="#6688AA" r="0.75" stroke="#334455" stroke-width="0.1" /><circle cx="238.44877962581432" cy="94.6889501393473" fill="#6688AA" r="0.75" stroke="#334455" stroke-width="0.1" /></g><g opacity="1.0" transform="rotate(-3.4, 241.9, 103.4)"><path d="M 244.87,101.57 A 1.80,1.80 0 0,1 244.87,105.17 L 238.97,105.17 A 1.80,1.80 0 0,1 238.97,101.57 L 244.87,101.57 Z" fill="#A8C4E8" stroke="#4A6B8B" stroke-width="0.15" /><circle cx="244.87122655058863" cy="103.36660157978145" fill="#6688AA" r="0.75" stroke="#334455" stroke-width="0.1" /><circle cx="238.9700708613114" cy="103.36660157978145" fill="#6688AA" r="0.75" stroke="#334455" stroke-width="0.1" /></g><g opacity="1.0" transform="rotate(-3.5, 248.4, 94.8)"><path d="M 251.15,93.01 A 1.75,1.75 0 0,1 251.15,96.51 L 245.73,96.51 A 1.75,1.75 0 0,1 245.73,93.01 L 251.15,93.01 Z" fill="#E8C4A8" stroke="#8B6B4A" stroke-width="0.15" /><circle cx="251.14860611604377" cy="94.76438588910196" fill="#AA8866" r="0.75" stroke="#554433" stroke-width="0.1" /><circle cx="245.72546070285773" cy="94.76438588910196" fill="#AA8866" r="0.75" stroke="#554433" stroke-width="0.1" /></g><g opacity="1.0" transform="rotate(-3.5, 248.9, 102.8)"><path d="M 251.63,101.03 A 1.75,1.75 0 0,1 251.63,104.53 L 246.21,104.53 A 1.75,1.75 0 0,1 246.21,101.03 L 251.63,101.03 Z" fill="#E8C4A8" stroke="#8B6B4A" stroke-width="0.15" /><circle cx="251.6336131435354" cy="102.77552033587676" fill="#AA8866" r="0.75" stroke="#554433" stroke-width="0.1" /><circle cx="246.21046773034936" cy="102.77552033587676" fill="#AA8866" r="0.75" stroke="#554433" stroke-width="0.1" /></g><g opacity="1.0" transform="rotate(-3.5, 255.5, 95.7)"><path d="M 257.98,93.99 A 1.75,1.75 0 0,1 257.98,97.49 L 253.02,97.49 A 1.75,1.75 0 0,1 253.02,93.99 L 257.98,93.99 Z" fill="#A8C4E8" stroke="#4A6B8B" stroke-width="0.15" /><circle cx="257.975139947977" cy="95.73845844090636" fill="#6688AA" r="0.75" stroke="#334455" stroke-width="0.1" /><circle cx="253.02029583899645" cy="95.73845844090636" fill="#6688AA" r="0.75" stroke="#334455" stroke-width="0.1" /></g><g opacity="1.0" transform="rotate(-3.5, 255.9, 103.1)"><path d="M 258.43,101.33 A 1.75,1.75 0 0,1 258.43,104.83 L 253.47,104.83 A 1.75,1.75 0 0,1 253.47,101.33 L 258.43,101.33 Z" fill="#A8C4E8" stroke="#4A6B8B" stroke-width="0.15" /><circle cx="258.42507160629685" cy="103.0803461200777" fill="#6688AA" r="0.75" stroke="#334455" stroke-width="0.1" /><circle cx="253.47022749731633" cy="103.0803461200777" fill="#6688AA" r="0.75" stroke="#334455" stroke-width="0.1" /></g><g opacity="1.0" transform="rotate(-3.5, 262.3, 92.7)"><path d="M 264.73,90.96 A 1.75,1.75 0 0,1 264.73,94.46 L 259.96,94.46 A 1.75,1.75 0 0,1 259.96,90.96 L 264.73,90.96 Z" fill="#E8C4A8" stroke="#8B6B4A" stroke-width="0.15" /><circle cx="264.7323573086853" cy="92.70523638501538" fill="#AA8866" r="0.75" stroke="#554433" stroke-width="0.1" /><circle cx="259.96440545954965" cy="92.70523638501538" fill="#AA8866" r="0.75" stroke="#554433" stroke-width="0.1" /></g><g opacity="1.0" transform="rotate(-3.5, 262.8, 99.6)"><path d="M 265.16,97.90 A 1.75,1.75 0 0,1 265.16,101.40 L 260.39,101.40 A 1.75,1.75 0 0,1 260.39,97.90 L 265.16,97.90 Z" fill="#E8C4A8" stroke="#8B6B4A" stroke-width="0.15" /><circle cx="265.16135430854604" cy="99.64769001058187" fill="#AA8866" r="0.75" stroke="#554433" stroke-width="0.1" /><circle cx="260.39340245941037" cy="99.64769001058187" fill="#AA8866" r="0.75" stroke="#554433" stroke-width="0.1" /></g><g opacity="1.0" transform="rotate(-3.6, 269.5, 95.2)"><path d="M 271.65,93.43 A 1.80,1.80 0 0,1 271.65,97.03 L 267.33,97.03 A 1.80,1.80 0 0,1 267.33,93.43 L 271.65,93.43 Z" fill="#A8C4E8" stroke="#4A6B8B" stroke-width="0.15" /><circle cx="271.65375557494843" cy="95.22945761458936" fill="#6688AA" r="0.75" stroke="#334455" stroke-width="0.1" /><circle cx="267.32688898151815" cy="95.22945761458936" fill="#6688AA" r="0.75" stroke="#334455" stroke-width="0.1" /></g><g opacity="1.0" transform="rotate(-3.6, 269.9, 101.5)"><path d="M 272.05,99.70 A 1.80,1.80 0 0,1 272.05,103.30 L 267.72,103.30 A 1.80,1.80 0 0,1 267.72,99.70 L 272.05,99.70 Z" fill="#A8C4E8" stroke="#4A6B8B" stroke-width="0.15" /><circle cx="272.0476758388539" cy="101.50265612791054" fill="#6688AA" r="0.75" stroke="#334455" stroke-width="0.1" /><circle cx="267.7208092454236" cy="101.50265612791054" fill="#6688AA" r="0.75" stroke="#334455" stroke-width="0.1" /></g><g opacity="1.0" transform="rotate(-3.6, 276.4, 93.7)"><path d="M 278.53,91.94 A 1.75,1.75 0 0,1 278.53,95.44 L 274.36,95.44 A 1.75,1.75 0 0,1 274.36,91.94 L 278.53,91.94 Z" fill="#E8C4A8" stroke="#8B6B4A" stroke-width="0.15" /><circle cx="278.52697148700196" cy="93.69484077496065" fill="#AA8866" r="0.75" stroke="#554433" stroke-width="0.1" /><circle cx="274.35980091207006" cy="93.69484077496065" fill="#AA8866" r="0.75" stroke="#554433" stroke-width="0.1" /></g><g opacity="1.0" transform="rotate(-3.6, 276.8, 99.6)"><path d="M 278.90,97.82 A 1.75,1.75 0 0,1 278.90,101.32 L 274.73,101.32 A 1.75,1.75 0 0,1 274.73,97.82 L 278.90,97.82 Z" fill="#E8C4A8" stroke="#8B6B4A" stroke-width="0.15" /><circle cx="278.89862193184473" cy="99.56868351787284" fill="#AA8866" r="0.75" stroke="#554433" stroke-width="0.1" /><circle cx="274.7314513569128" cy="99.56868351787284" fill="#AA8866" r="0.75" stroke="#554433" stroke-width="0.1" /></g><g opacity="1.0" transform="rotate(-3.7, 283.4, 92.8)"><path d="M 285.42,91.06 A 1.75,1.75 0 0,1 285.42,94.56 L 281.40,94.56 A 1.75,1.75 0 0,1 281.40,91.06 L 285.42,91.06 Z" fill="#A8C4E8" stroke="#4A6B8B" stroke-width="0.15" /><circle cx="285.41649156143114" cy="92.80890281546658" fill="#6688AA" r="0.75" stroke="#334455" stroke-width="0.1" /><circle cx="281.3967147988966" cy="92.80890281546658" fill="#6688AA" r="0.75" stroke="#334455" stroke-width="0.1" /></g><g opacity="1.0" transform="rotate(-3.7, 283.8, 98.3)"><path d="M 285.77,96.53 A 1.75,1.75 0 0,1 285.77,100.03 L 281.75,100.03 A 1.75,1.75 0 0,1 281.75,96.53 L 285.77,96.53 Z" fill="#A8C4E8" stroke="#4A6B8B" stroke-width="0.15" /><circle cx="285.76706719335806" cy="98.28065765236431" fill="#6688AA" r="0.75" stroke="#334455" stroke-width="0.1" /><circle cx="281.7472904308235" cy="98.28065765236431" fill="#6688AA" r="0.75" stroke="#334455" stroke-width="0.1" /></g><g opacity="1.0" transform="rotate(-3.7, 290.4, 92.5)"><path d="M 292.34,90.78 A 1.75,1.75 0 0,1 292.34,94.28 L 288.46,94.28 A 1.75,1.75 0 0,1 288.46,90.78 L 292.34,90.78 Z" fill="#E8C4A8" stroke="#8B6B4A" stroke-width="0.15" /><circle cx="292.34368606298386" cy="92.5259028730427" fill="#AA8866" r="0.75" stroke="#554433" stroke-width="0.1" /><circle cx="288.4591708506884" cy="92.5259028730427" fill="#AA8866" r="0.75" stroke="#554433" stroke-width="0.1" /></g><g opacity="1.0" transform="rotate(-3.7, 290.7, 97.6)"><path d="M 292.67,95.85 A 1.75,1.75 0 0,1 292.67,99.35 L 288.79,99.35 A 1.75,1.75 0 0,1 288.79,95.85 L 292.67,95.85 Z" fill="#E8C4A8" stroke="#8B6B4A" stroke-width="0.15" /><circle cx="292.67332476936605" cy="97.5982111900646" fill="#AA8866" r="0.75" stroke="#554433" stroke-width="0.1" /><circle cx="288.7888095570706" cy="97.5982111900646" fill="#AA8866" r="0.75" stroke="#554433" stroke-width="0.1" /></g><g opacity="1.0" transform="rotate(-3.8, 297.4, 92.8)"><path d="M 299.32,91.04 A 1.75,1.75 0 0,1 299.32,94.54 L 295.56,94.54 A 1.75,1.75 0 0,1 295.56,91.04 L 299.32,91.04 Z" fill="#A8C4E8" stroke="#4A6B8B" stroke-width="0.15" /><circle cx="299.3156408884712" cy="92.78933217594783" fill="#6688AA" r="0.75" stroke="#334455" stroke-width="0.1" /><circle cx="295.5582439462138" cy="92.78933217594783" fill="#6688AA" r="0.75" stroke="#334455" stroke-width="0.1" /></g><g opacity="1.0" transform="rotate(-3.8, 297.7, 97.5)"><path d="M 299.62,95.71 A 1.75,1.75 0 0,1 299.62,99.21 L 295.87,99.21 A 1.75,1.75 0 0,1 295.87,95.71 L 299.62,95.71 Z" fill="#A8C4E8" stroke="#4A6B8B" stroke-width="0.15" /><circle cx="299.6235297002788" cy="97.459588099788" fill="#6688AA" r="0.75" stroke="#334455" stroke-width="0.1" /><circle cx="295.8661327580214" cy="97.459588099788" fill="#6688AA" r="0.75" stroke="#334455" stroke-width="0.1" /></g><g opacity="1.0" transform="rotate(-3.8, 304.5, 93.5)"><path d="M 306.31,91.81 A 1.70,1.70 0 0,1 306.31,95.21 L 302.68,95.21 A 1.70,1.70 0 0,1 302.68,91.81 L 306.31,91.81 Z" fill="#E8C4A8" stroke="#8B6B4A" stroke-width="0.15" /><circle cx="306.31498035808175" cy="93.50571278456869" fill="#AA8866" r="0.75" stroke="#554433" stroke-width="0.1" /><circle cx="302.67743567691565" cy="93.50571278456869" fill="#AA8866" r="0.75" stroke="#554433" stroke-width="0.1" /></g><g opacity="1.0" transform="rotate(-3.8, 304.8, 97.8)"><path d="M 306.60,96.08 A 1.70,1.70 0 0,1 306.60,99.48 L 302.96,99.48 A 1.70,1.70 0 0,1 302.96,96.08 L 306.60,96.08 Z" fill="#E8C4A8" stroke="#8B6B4A" stroke-width="0.15" /><circle cx="306.6012569095312" cy="97.77655695553142" fill="#AA8866" r="0.75" stroke="#554433" stroke-width="0.1" /><circle cx="302.96371222836507" cy="97.77655695553142" fill="#AA8866" r="0.75" stroke="#554433" stroke-width="0.1" /></g><g opacity="1.0" transform="rotate(-3.9, 311.6, 94.7)"><path d="M 313.33,93.02 A 1.65,1.65 0 0,1 313.33,96.32 L 309.81,96.32 A 1.65,1.65 0 0,1 309.81,93.02 L 313.33,93.02 Z" fill="#A8C4E8" stroke="#4A6B8B" stroke-width="0.15" /><circle cx="313.3278287890638" cy="94.67015900106185" fill="#6688AA" r="0.75" stroke="#334455" stroke-width="0.1" /><circle cx="309.8060586178477" cy="94.67015900106185" fill="#6688AA" r="0.75" stroke="#334455" stroke-width="0.1" /></g><g opacity="1.0" transform="rotate(-3.9, 311.8, 98.5)"><path d="M 313.59,96.89 A 1.65,1.65 0 0,1 313.59,100.19 L 310.07,100.19 A 1.65,1.65 0 0,1 310.07,96.89 L 313.59,96.89 Z" fill="#A8C4E8" stroke="#4A6B8B" stroke-width="0.15" /><circle cx="313.593025882759" cy="98.5388937038689" fill="#6688AA" r="0.75" stroke="#334455" stroke-width="0.1" /><circle cx="310.0712557115429" cy="98.5388937038689" fill="#6688AA" r="0.75" stroke="#334455" stroke-width="0.1" /></g><g opacity="1.0" transform="rotate(-4.0, 318.7, 96.2)"><path d="M 320.36,94.54 A 1.65,1.65 0 0,1 320.36,97.84 L 316.95,97.84 A 1.65,1.65 0 0,1 316.95,94.54 L 320.36,94.54 Z" fill="#E8C4A8" stroke="#8B6B4A" stroke-width="0.15" /><circle cx="320.36119567695664" cy="96.18766018065412" fill="#AA8866" r="0.75" stroke="#554433" stroke-width="0.1" /><circle cx="316.95124235161984" cy="96.18766018065412" fill="#AA8866" r="0.75" stroke="#554433" stroke-width="0.1" /></g><g opacity="1.0" transform="rotate(-4.0, 318.9, 99.7)"><path d="M 320.61,98.01 A 1.65,1.65 0 0,1 320.61,101.31 L 317.20,101.31 A 1.65,1.65 0 0,1 317.20,98.01 L 320.61,98.01 Z" fill="#E8C4A8" stroke="#8B6B4A" stroke-width="0.15" /><circle cx="320.60544933276213" cy="99.65692023776762" fill="#AA8866" r="0.75" stroke="#554433" stroke-width="0.1" /><circle cx="317.19549600742533" cy="99.65692023776762" fill="#AA8866" r="0.75" stroke="#554433" stroke-width="0.1" /></g><g opacity="1.0" transform="rotate(-4.1, 325.7, 95.6)"><path d="M 327.37,94.05 A 1.60,1.60 0 0,1 327.37,97.25 L 323.94,97.25 A 1.60,1.60 0 0,1 323.94,94.05 L 327.37,94.05 Z" fill="#A8C4E8" stroke="#4A6B8B" stroke-width="0.15" /><circle cx="327.3714041895712" cy="95.64723233614131" fill="#6688AA" r="0.75" stroke="#334455" stroke-width="0.1" /><circle cx="323.93968633619465" cy="95.64723233614131" fill="#6688AA" r="0.75" stroke="#334455" stroke-width="0.1" /></g><g opacity="1.0" transform="rotate(-4.1, 325.9, 98.8)"><path d="M 327.60,97.25 A 1.60,1.60 0 0,1 327.60,100.45 L 324.17,100.45 A 1.60,1.60 0 0,1 324.17,97.25 L 327.60,97.25 Z" fill="#A8C4E8" stroke="#4A6B8B" stroke-width="0.15" /><circle cx="327.60064528721864" cy="98.84935813468701" fill="#6688AA" r="0.75" stroke="#334455" stroke-width="0.1" /><circle cx="324.1689274338421" cy="98.84935813468701" fill="#6688AA" r="0.75" stroke="#334455" stroke-width="0.1" /></g><g opacity="1.0" transform="rotate(-4.2, 332.7, 95.4)"><path d="M 334.38,93.71 A 1.65,1.65 0 0,1 334.38,97.01 L 330.92,97.01 A 1.65,1.65 0 0,1 330.92,93.71 L 334.38,93.71 Z" fill="#E8C4A8" stroke="#8B6B4A" stroke-width="0.15" /><circle cx="334.37617025885964" cy="95.35820229523256" fill="#AA8866" r="0.75" stroke="#554433" stroke-width="0.1" /><circle cx="330.92414224301666" cy="95.35820229523256" fill="#AA8866" r="0.75" stroke="#554433" stroke-width="0.1" /></g><g opacity="1.0" transform="rotate(-4.2, 332.9, 98.3)"><path d="M 334.59,96.64 A 1.65,1.65 0 0,1 334.59,99.94 L 331.14,99.94 A 1.65,1.65 0 0,1 331.14,96.64 L 334.59,96.64 Z" fill="#E8C4A8" stroke="#8B6B4A" stroke-width="0.15" /><circle cx="334.591398801246" cy="98.29311538252239" fill="#AA8866" r="0.75" stroke="#554433" stroke-width="0.1" /><circle cx="331.139370785403" cy="98.29311538252239" fill="#AA8866" r="0.75" stroke="#554433" stroke-width="0.1" /></g><g opacity="1.0" transform="rotate(-4.3, 339.7, 95.3)"><path d="M 341.39,93.67 A 1.60,1.60 0 0,1 341.39,96.87 L 337.92,96.87 A 1.60,1.60 0 0,1 337.92,93.67 L 341.39,93.67 Z" fill="#A8C4E8" stroke="#4A6B8B" stroke-width="0.15" /><circle cx="341.3888190305756" cy="95.26935774038725" fill="#6688AA" r="0.75" stroke="#334455" stroke-width="0.1" /><circle cx="337.92179355935224" cy="95.26935774038725" fill="#6688AA" r="0.75" stroke="#334455" stroke-width="0.1" /></g><g opacity="1.0" transform="rotate(-4.3, 339.9, 97.9)"><path d="M 341.59,96.34 A 1.60,1.60 0 0,1 341.59,99.54 L 338.12,99.54 A 1.60,1.60 0 0,1 338.12,96.34 L 341.59,96.34 Z" fill="#A8C4E8" stroke="#4A6B8B" stroke-width="0.15" /><circle cx="341.5900317904674" cy="97.93704770588852" fill="#6688AA" r="0.75" stroke="#334455" stroke-width="0.1" /><circle cx="338.12300631924404" cy="97.93704770588852" fill="#6688AA" r="0.75" stroke="#334455" stroke-width="0.1" /></g><g opacity="1.0" transform="rotate(-4.5, 346.7, 95.4)"><path d="M 348.41,93.78 A 1.60,1.60 0 0,1 348.41,96.98 L 344.93,96.98 A 1.60,1.60 0 0,1 344.93,93.78 L 348.41,93.78 Z" fill="#E8C4A8" stroke="#8B6B4A" stroke-width="0.15" /><circle cx="348.4090003429579" cy="95.3807596338911" fill="#AA8866" r="0.75" stroke="#554433" stroke-width="0.1" /><circle cx="344.9330415067231" cy="95.3807596338911" fill="#AA8866" r="0.75" stroke="#554433" stroke-width="0.1" /></g><g opacity="1.0" transform="rotate(-4.5, 346.9, 97.8)"><path d="M 348.60,96.18 A 1.60,1.60 0 0,1 348.60,99.38 L 345.12,99.38 A 1.60,1.60 0 0,1 345.12,96.18 L 348.60,96.18 Z" fill="#E8C4A8" stroke="#8B6B4A" stroke-width="0.15" /><circle cx="348.59619266023964" cy="97.78121264552078" fill="#AA8866" r="0.75" stroke="#554433" stroke-width="0.1" /><circle cx="345.12023382400486" cy="97.78121264552078" fill="#AA8866" r="0.75" stroke="#554433" stroke-width="0.1" /></g><g opacity="1.0" transform="rotate(-4.6, 353.7, 95.5)"><path d="M 355.43,93.94 A 1.60,1.60 0 0,1 355.43,97.14 L 351.95,97.14 A 1.60,1.60 0 0,1 351.95,93.94 L 355.43,93.94 Z" fill="#A8C4E8" stroke="#4A6B8B" stroke-width="0.15" /><circle cx="355.42670663081543" cy="95.54249883762986" fill="#6688AA" r="0.75" stroke="#334455" stroke-width="0.1" /><circle cx="351.95225500643875" cy="95.54249883762986" fill="#6688AA" r="0.75" stroke="#334455" stroke-width="0.1" /></g><g opacity="1.0" transform="rotate(-4.6, 353.9, 97.7)"><path d="M 355.60,96.08 A 1.60,1.60 0 0,1 355.60,99.28 L 352.13,99.28 A 1.60,1.60 0 0,1 352.13,96.08 L 355.60,96.08 Z" fill="#A8C4E8" stroke="#4A6B8B" stroke-width="0.15" /><circle cx="355.59987149679506" cy="97.6756959636192" fill="#6688AA" r="0.75" stroke="#334455" stroke-width="0.1" /><circle cx="352.1254198724184" cy="97.6756959636192" fill="#6688AA" r="0.75" stroke="#334455" stroke-width="0.1" /></g><g opacity="1.0" transform="rotate(-4.9, 360.7, 95.8)"><path d="M 362.44,94.20 A 1.60,1.60 0 0,1 362.44,97.40 L 358.98,97.40 A 1.60,1.60 0 0,1 358.98,94.20 L 362.44,94.20 Z" fill="#E8C4A8" stroke="#8B6B4A" stroke-width="0.15" /><circle cx="362.44333457404946" cy="95.80471690885486" fill="#AA8866" r="0.75" stroke="#554433" stroke-width="0.1" /><circle cx="358.98342351335737" cy="95.80471690885486" fill="#AA8866" r="0.75" stroke="#554433" stroke-width="0.1" /></g><g opacity="1.0" transform="rotate(-4.9, 360.9, 97.7)"><path d="M 362.60,96.07 A 1.60,1.60 0 0,1 362.60,99.27 L 359.14,99.27 A 1.60,1.60 0 0,1 359.14,96.07 L 362.60,96.07 Z" fill="#E8C4A8" stroke="#8B6B4A" stroke-width="0.15" /><circle cx="362.6024609009087" cy="97.67063127243705" fill="#AA8866" r="0.75" stroke="#554433" stroke-width="0.1" /><circle cx="359.1425498402166" cy="97.67063127243705" fill="#AA8866" r="0.75" stroke="#554433" stroke-width="0.1" /></g><g opacity="1.0" transform="rotate(-5.2, 367.7, 96.0)"><path d="M 369.45,94.47 A 1.55,1.55 0 0,1 369.45,97.57 L 366.02,97.57 A 1.55,1.55 0 0,1 366.02,94.47 L 369.45,94.47 Z" fill="#A8C4E8" stroke="#4A6B8B" stroke-width="0.15" /><circle cx="369.4504164881454" cy="96.01764692241022" fill="#6688AA" r="0.75" stroke="#334455" stroke-width="0.1" /><circle cx="366.01956405038175" cy="96.01764692241022" fill="#6688AA" r="0.75" stroke="#334455" stroke-width="0.1" /></g><g opacity="1.0" transform="rotate(-5.2, 367.9, 97.6)"><path d="M 369.60,96.07 A 1.55,1.55 0 0,1 369.60,99.17 L 366.16,99.17 A 1.55,1.55 0 0,1 366.16,96.07 L 369.60,96.07 Z" fill="#A8C4E8" stroke="#4A6B8B" stroke-width="0.15" /><circle cx="369.59548556417224" cy="97.61623856533254" fill="#6688AA" r="0.75" stroke="#334455" stroke-width="0.1" /><circle cx="366.1646331264086" cy="97.61623856533254" fill="#6688AA" r="0.75" stroke="#334455" stroke-width="0.1" /></g><path d="M 61.62,46.67 L 61.98,46.64 L 62.32,46.54 L 62.64,46.40 L 62.94,46.20 L 63.19,45.95 L 63.40,45.66 L 63.56,45.34 L 63.66,45.00 L 63.70,44.64 L 63.68,44.29 L 63.60,43.94 L 63.46,43.61 L 63.26,43.32 L 63.02,43.05 L 62.74,42.84 L 62.42,42.67 L 62.09,42.56 L 61.73,42.51 L 61.38,42.52 L 61.03,42.60 L 60.70,42.73 L 60.39,42.91 L 60.13,43.15 L 59.90,43.42 L 43.07,68.28 L 43.02,68.36 L 42.97,68.44 L 42.93,68.53 L 42.89,68.61 L 42.85,68.70 L 42.82,68.78 L 42.79,68.87 L 42.76,68.96 L 42.73,69.05 L 42.72,69.14 L 42.70,69.24 L 42.69,69.33 L 42.68,69.42 L 42.67,69.52 L 42.67,69.61 L 42.68,69.70 L 84.64,826.00" fill="none" stroke="#FF0000" stroke-width="1.1555" /><circle cx="45.0" cy="69.58805890014798" fill="#7799BB" opacity="1.0" r="1.75" stroke="#445566" stroke-width="0.15" /><circle cx="61.62195057359059" cy="44.588058900147985" fill="#7799BB" r="1.5" stroke="#445566" stroke-width="0.15" /><path d="M 69.16,47.47 L 69.50,47.45 L 69.83,47.36 L 70.14,47.22 L 70.42,47.03 L 70.67,46.80 L 70.87,46.53 L 71.03,46.23 L 71.13,45.90 L 71.18,45.57 L 71.17,45.23 L 71.11,44.89 L 70.99,44.58 L 70.82,44.28 L 70.60,44.02 L 70.34,43.80 L 70.05,43.63 L 69.73,43.50 L 69.40,43.43 L 69.06,43.42 L 68.72,43.47 L 68.40,43.57 L 68.09,43.72 L 67.82,43.92 L 67.58,44.17 L 50.11,65.69 L 50.05,65.77 L 49.99,65.85 L 49.93,65.94 L 49.88,66.03 L 49.83,66.12 L 49.79,66.22 L 49.75,66.31 L 49.72,66.41 L 49.69,66.51 L 49.66,66.61 L 49.64,66.71 L 49.62,66.82 L 49.61,66.92 L 49.61,67.02 L 49.60,67.13 L 49.61,67.23 L 90.86,810.95" fill="none" stroke="#999999" stroke-width="1.054" /><circle cx="51.88030239243677" cy="67.1207910380557" fill="#BB9977" opacity="1.0" r="1.75" stroke="#665544" stroke-width="0.15" /><circle cx="69.15750777706005" cy="45.447705113240545" fill="#BB9977" r="1.5" stroke="#665544" stroke-width="0.15" /><path d="M 76.69,48.29 L 77.02,48.26 L 77.34,48.18 L 77.64,48.05 L 77.91,47.87 L 78.15,47.65 L 78.35,47.39 L 78.51,47.11 L 78.61,46.80 L 78.67,46.47 L 78.67,46.15 L 78.62,45.82 L 78.51,45.52 L 78.36,45.23 L 78.16,44.97 L 77.92,44.75 L 77.64,44.57 L 77.34,44.43 L 77.03,44.35 L 76.70,44.32 L 76.37,44.35 L 76.06,44.43 L 75.76,44.56 L 75.48,44.74 L 75.24,44.96 L 57.19,64.38 L 57.12,64.47 L 57.05,64.55 L 56.98,64.64 L 56.92,64.74 L 56.87,64.83 L 56.82,64.93 L 56.77,65.03 L 56.73,65.14 L 56.69,65.24 L 56.66,65.35 L 56.64,65.46 L 56.62,65.57 L 56.60,65.68 L 56.60,65.79 L 56.59,65.90 L 56.60,66.01 L 97.15,797.10" fill="none" stroke="#999999" stroke-width="0.965" /><circle cx="58.82611091782533" cy="65.90345465270104" fill="#7799BB" opacity="1.0" r="1.75" stroke="#445566" stroke-width="0.15" /><circle cx="76.69306498052951" cy="46.30735132633322" fill="#7799BB" r="1.5" stroke="#445566" stroke-width="0.15" /><path d="M 84.23,49.12 L 84.55,49.09 L 84.85,49.02 L 85.14,48.89 L 85.41,48.72 L 85.65,48.51 L 85.85,48.26 L 86.00,47.98 L 86.11,47.68 L 86.17,47.37 L 86.18,47.05 L 86.13,46.74 L 86.04,46.44 L 85.89,46.15 L 85.71,45.90 L 85.48,45.67 L 85.22,45.49 L 84.94,45.35 L 84.63,45.26 L 84.32,45.22 L 84.00,45.23 L 83.69,45.29 L 83.39,45.40 L 83.12,45.56 L 82.87,45.76 L 64.28,63.75 L 64.19,63.84 L 64.12,63.93 L 64.04,64.02 L 63.98,64.11 L 63.91,64.21 L 63.86,64.31 L 63.81,64.42 L 63.76,64.53 L 63.72,64.64 L 63.68,64.75 L 63.66,64.86 L 63.63,64.98 L 63.62,65.09 L 63.61,65.21 L 63.61,65.33 L 63.61,65.44 L 103.47,783.95" fill="none" stroke="#0000FF" stroke-width="0.9015" /><circle cx="65.80598809089989" cy="65.33618679060874" fill="#BB9977" opacity="1.0" r="1.75" stroke="#665544" stroke-width="0.15" /><circle cx="84.22862218399897" cy="47.16699753942578" fill="#BB9977" r="1.5" stroke="#665544" stroke-width="0.15" /><path d="M 91.76,49.93 L 92.08,49.91 L 92.38,49.83 L 92.67,49.71 L 92.93,49.54 L 93.16,49.33 L 93.35,49.08 L 93.50,48.81 L 93.61,48.51 L 93.66,48.20 L 93.67,47.89 L 93.62,47.58 L 93.52,47.29 L 93.38,47.01 L 93.19,46.76 L 92.96,46.54 L 92.70,46.37 L 92.42,46.24 L 92.12,46.15 L 91.81,46.12 L 91.49,46.14 L 91.19,46.21 L 90.90,46.33 L 90.63,46.49 L 90.40,46.70 L 71.40,66.21 L 71.32,66.29 L 71.25,66.38 L 71.18,66.47 L 71.12,66.56 L 71.06,66.65 L 71.01,66.75 L 70.96,66.85 L 70.92,66.95 L 70.89,67.06 L 70.86,67.16 L 70.83,67.27 L 70.81,67.38 L 70.80,67.49 L 70.79,67.60 L 70.78,67.71 L 70.79,67.82 L 109.81,771.20" fill="none" stroke="#999999" stroke-width="0.813" /><circle cx="72.94028506410716" cy="67.71542424214044" fill="#7799BB" opacity="1.0" r="1.75" stroke="#445566" stroke-width="0.15" /><circle cx="91.76417938746843" cy="48.02664375251834" fill="#7799BB" r="1.5" stroke="#445566" stroke-width="0.15" /><path d="M 99.30,50.75 L 99.61,50.72 L 99.90,50.65 L 100.19,50.52 L 100.44,50.36 L 100.67,50.15 L 100.86,49.91 L 101.00,49.64 L 101.10,49.34 L 101.16,49.04 L 101.16,48.73 L 101.11,48.43 L 101.01,48.14 L 100.86,47.87 L 100.67,47.63 L 100.45,47.42 L 100.19,47.25 L 99.91,47.13 L 99.61,47.05 L 99.30,47.02 L 99.00,47.05 L 98.70,47.12 L 98.42,47.25 L 98.16,47.41 L 97.93,47.62 L 78.52,68.61 L 78.45,68.69 L 78.39,68.77 L 78.33,68.86 L 78.27,68.95 L 78.22,69.04 L 78.17,69.13 L 78.13,69.23 L 78.09,69.32 L 78.05,69.42 L 78.03,69.52 L 78.00,69.63 L 77.98,69.73 L 77.97,69.83 L 77.96,69.94 L 77.96,70.04 L 77.96,70.15 L 116.15,758.40" fill="none" stroke="#999999" stroke-width="0.724" /><circle cx="80.07196164835028" cy="70.04466169367231" fill="#BB9977" opacity="1.0" r="1.75" stroke="#665544" stroke-width="0.15" /><circle cx="99.2997365909379" cy="48.88628996561101" fill="#BB9977" r="1.5" stroke="#665544" stroke-width="0.15" /><path d="M 106.84,51.59 L 107.14,51.56 L 107.44,51.49 L 107.72,51.37 L 107.97,51.20 L 108.19,50.99 L 108.38,50.75 L 108.53,50.48 L 108.62,50.19 L 108.67,49.89 L 108.67,49.58 L 108.62,49.28 L 108.52,48.99 L 108.37,48.73 L 108.18,48.49 L 107.95,48.28 L 107.70,48.12 L 107.42,48.00 L 107.12,47.92 L 106.81,47.90 L 106.51,47.93 L 106.22,48.01 L 105.94,48.14 L 105.68,48.31 L 105.46,48.52 L 85.63,70.68 L 85.56,70.76 L 85.50,70.84 L 85.44,70.92 L 85.39,71.01 L 85.34,71.10 L 85.29,71.19 L 85.25,71.28 L 85.22,71.38 L 85.18,71.47 L 85.16,71.57 L 85.13,71.67 L 85.12,71.77 L 85.10,71.87 L 85.10,71.97 L 85.09,72.08 L 85.10,72.18 L 122.47,745.30" fill="none" stroke="#999999" stroke-width="0.686" /><circle cx="87.18791589880848" cy="72.073899145204" fill="#7799BB" opacity="1.0" r="1.75" stroke="#445566" stroke-width="0.15" /><circle cx="106.83529379440736" cy="49.74593617870357" fill="#7799BB" r="1.5" stroke="#445566" stroke-width="0.15" /><path d="M 114.37,52.42 L 114.67,52.40 L 114.96,52.32 L 115.24,52.20 L 115.49,52.04 L 115.71,51.83 L 115.90,51.60 L 116.04,51.33 L 116.13,51.04 L 116.18,50.75 L 116.18,50.45 L 116.13,50.15 L 116.03,49.87 L 115.89,49.60 L 115.70,49.37 L 115.48,49.16 L 115.22,49.00 L 114.95,48.88 L 114.65,48.81 L 114.35,48.79 L 114.05,48.82 L 113.76,48.89 L 113.49,49.02 L 113.24,49.18 L 113.02,49.39 L 92.73,71.97 L 92.66,72.05 L 92.60,72.13 L 92.54,72.21 L 92.49,72.30 L 92.44,72.38 L 92.39,72.47 L 92.35,72.57 L 92.32,72.66 L 92.28,72.76 L 92.26,72.85 L 92.24,72.95 L 92.22,73.05 L 92.21,73.15 L 92.20,73.25 L 92.20,73.35 L 92.20,73.45 L 128.75,731.45" fill="none" stroke="#FF0000" stroke-width="0.635" /><circle cx="94.2645643148044" cy="73.35313659673591" fill="#BB9977" opacity="1.0" r="1.75" stroke="#665544" stroke-width="0.15" /><circle cx="114.37085099787683" cy="50.60558239179625" fill="#BB9977" r="1.5" stroke="#665544" stroke-width="0.15" /><path d="M 121.91,53.26 L 122.20,53.23 L 122.49,53.16 L 122.77,53.04 L 123.02,52.87 L 123.24,52.67 L 123.42,52.43 L 123.56,52.16 L 123.65,51.88 L 123.69,51.58 L 123.69,51.28 L 123.63,50.99 L 123.53,50.71 L 123.38,50.45 L 123.19,50.22 L 122.97,50.02 L 122.71,49.86 L 122.43,49.75 L 122.14,49.69 L 121.84,49.67 L 121.55,49.71 L 121.26,49.79 L 120.99,49.93 L 120.75,50.10 L 120.54,50.31 L 99.86,74.86 L 99.80,74.94 L 99.74,75.02 L 99.69,75.10 L 99.64,75.18 L 99.60,75.26 L 99.56,75.35 L 99.52,75.44 L 99.49,75.53 L 99.46,75.62 L 99.43,75.71 L 99.42,75.80 L 99.40,75.90 L 99.39,75.99 L 99.38,76.09 L 99.38,76.18 L 99.38,76.28 L 134.99,716.60" fill="none" stroke="#999999" stroke-width="0.584" /><circle cx="101.4222616399368" cy="76.17887936189186" fill="#7799BB" opacity="1.0" r="1.75" stroke="#445566" stroke-width="0.15" /><circle cx="121.9064082013463" cy="51.46522860488881" fill="#7799BB" r="1.5" stroke="#445566" stroke-width="0.15" /><path d="M 129.44,54.49 L 129.80,54.45 L 130.16,54.36 L 130.49,54.21 L 130.79,54.01 L 131.06,53.76 L 131.27,53.47 L 131.44,53.15 L 131.55,52.80 L 131.60,52.44 L 131.59,52.08 L 131.52,51.72 L 131.39,51.38 L 131.20,51.07 L 130.96,50.79 L 130.68,50.56 L 130.37,50.37 L 130.03,50.25 L 129.67,50.18 L 129.31,50.17 L 128.95,50.22 L 128.60,50.33 L 128.28,50.50 L 127.99,50.72 L 127.74,50.99 L 106.70,77.76 L 106.63,77.85 L 106.57,77.94 L 106.52,78.03 L 106.46,78.12 L 106.41,78.22 L 106.37,78.32 L 106.33,78.42 L 106.30,78.52 L 106.27,78.62 L 106.24,78.73 L 106.22,78.83 L 106.20,78.94 L 106.19,79.05 L 106.18,79.15 L 106.18,79.26 L 106.19,79.37 L 141.10,699.50" fill="none" stroke="#999999" stroke-width="1.321" /><circle cx="108.59288135228971" cy="79.25119596393415" fill="#BB9977" opacity="1.0" r="1.75" stroke="#665544" stroke-width="0.15" /><circle cx="129.44196540481576" cy="52.32487481798137" fill="#BB9977" r="1.5" stroke="#665544" stroke-width="0.15" /><path d="M 136.98,55.32 L 137.31,55.29 L 137.64,55.21 L 137.95,55.09 L 138.23,54.91 L 138.49,54.69 L 138.71,54.44 L 138.88,54.15 L 139.01,53.84 L 139.09,53.52 L 139.11,53.18 L 139.09,52.85 L 139.01,52.52 L 138.88,52.21 L 138.70,51.93 L 138.49,51.67 L 138.23,51.46 L 137.95,51.28 L 137.64,51.15 L 137.31,51.08 L 136.98,51.05 L 136.64,51.08 L 136.32,51.15 L 136.01,51.28 L 135.72,51.46 L 113.68,67.51 L 113.57,67.60 L 113.46,67.70 L 113.35,67.80 L 113.25,67.91 L 113.16,68.03 L 113.08,68.15 L 113.00,68.28 L 112.94,68.41 L 112.88,68.54 L 112.83,68.68 L 112.78,68.82 L 112.75,68.97 L 112.73,69.11 L 112.71,69.26 L 112.70,69.41 L 112.71,69.55 L 147.07,679.60" fill="none" stroke="#0000FF" stroke-width="1.27" /><circle cx="115.08816612459637" cy="69.43735426495539" fill="#7799BB" opacity="1.0" r="1.75" stroke="#445566" stroke-width="0.15" /><circle cx="136.9775226082852" cy="53.18452103107404" fill="#7799BB" r="1.5" stroke="#445566" stroke-width="0.15" /><path d="M 144.51,56.13 L 144.82,56.11 L 145.13,56.04 L 145.41,55.92 L 145.68,55.77 L 145.93,55.58 L 146.14,55.35 L 146.31,55.09 L 146.45,54.81 L 146.54,54.52 L 146.59,54.21 L 146.59,53.90 L 146.55,53.59 L 146.46,53.30 L 146.33,53.02 L 146.15,52.76 L 145.94,52.53 L 145.70,52.33 L 145.44,52.18 L 145.15,52.06 L 144.85,51.99 L 144.54,51.96 L 144.23,51.98 L 143.92,52.04 L 143.63,52.15 L 120.87,62.75 L 120.72,62.83 L 120.57,62.92 L 120.43,63.02 L 120.30,63.13 L 120.17,63.25 L 120.06,63.37 L 119.95,63.51 L 119.86,63.66 L 119.78,63.81 L 119.70,63.96 L 119.64,64.13 L 119.59,64.29 L 119.56,64.46 L 119.54,64.63 L 119.52,64.80 L 119.53,64.98 L 152.91,657.40" fill="none" stroke="#999999" stroke-width="1.1685" /><circle cx="121.85804947418626" cy="64.86316555337362" fill="#BB9977" opacity="1.0" r="1.75" stroke="#665544" stroke-width="0.15" /><circle cx="144.51307981175466" cy="54.0441672441666" fill="#BB9977" r="1.5" stroke="#665544" stroke-width="0.15" /><path d="M 152.05,56.95 L 152.38,56.92 L 152.71,56.84 L 153.01,56.71 L 153.29,56.53 L 153.54,56.30 L 153.75,56.04 L 153.91,55.75 L 154.03,55.43 L 154.08,55.10 L 154.09,54.77 L 154.04,54.44 L 153.94,54.12 L 153.78,53.82 L 153.59,53.55 L 153.34,53.32 L 153.07,53.13 L 152.77,52.99 L 152.44,52.90 L 152.11,52.86 L 151.78,52.88 L 151.45,52.95 L 151.14,53.07 L 150.85,53.24 L 150.60,53.46 L 127.92,76.24 L 127.84,76.33 L 127.76,76.42 L 127.69,76.51 L 127.62,76.61 L 127.56,76.71 L 127.50,76.82 L 127.45,76.93 L 127.41,77.04 L 127.37,77.15 L 127.33,77.26 L 127.30,77.38 L 127.28,77.50 L 127.27,77.61 L 127.26,77.73 L 127.25,77.85 L 127.26,77.97 L 158.62,632.60" fill="none" stroke="#999999" stroke-width="1.092" /><circle cx="129.5488589137477" cy="77.86129344383426" fill="#7799BB" opacity="1.0" r="1.75" stroke="#445566" stroke-width="0.15" /><circle cx="152.04863701522413" cy="54.90381345725916" fill="#7799BB" r="1.5" stroke="#445566" stroke-width="0.15" /><path d="M 159.58,57.78 L 159.91,57.75 L 160.23,57.67 L 160.53,57.54 L 160.80,57.37 L 161.05,57.15 L 161.25,56.89 L 161.41,56.61 L 161.52,56.30 L 161.59,55.98 L 161.60,55.66 L 161.55,55.33 L 161.46,55.02 L 161.31,54.73 L 161.12,54.46 L 160.89,54.23 L 160.63,54.04 L 160.33,53.89 L 160.02,53.80 L 159.70,53.75 L 159.37,53.76 L 159.05,53.82 L 158.74,53.93 L 158.46,54.09 L 158.20,54.30 L 135.00,76.18 L 134.92,76.26 L 134.83,76.35 L 134.76,76.45 L 134.69,76.55 L 134.62,76.65 L 134.56,76.76 L 134.51,76.86 L 134.46,76.98 L 134.41,77.09 L 134.38,77.21 L 134.35,77.33 L 134.32,77.45 L 134.31,77.57 L 134.30,77.69 L 134.29,77.81 L 134.29,77.93 L 164.17,604.80" fill="none" stroke="#999999" stroke-width="1.0285" /><circle cx="136.55646865521845" cy="77.82319451001126" fill="#BB9977" opacity="1.0" r="1.75" stroke="#665544" stroke-width="0.15" /><circle cx="159.58419421869357" cy="55.763459670351835" fill="#BB9977" r="1.5" stroke="#665544" stroke-width="0.15" /><path d="M 166.87,58.61 L 167.16,58.59 L 167.44,58.52 L 167.70,58.40 L 167.94,58.24 L 168.16,58.05 L 168.34,57.83 L 168.48,57.57 L 168.58,57.30 L 168.63,57.02 L 168.63,56.73 L 168.59,56.45 L 168.50,56.17 L 168.37,55.92 L 168.20,55.68 L 167.99,55.48 L 167.76,55.32 L 167.50,55.19 L 167.22,55.12 L 166.93,55.08 L 166.64,55.10 L 166.36,55.16 L 166.09,55.26 L 165.85,55.41 L 165.63,55.59 L 142.43,78.68 L 142.37,78.74 L 142.31,78.81 L 142.25,78.89 L 142.20,78.96 L 142.15,79.04 L 142.11,79.12 L 142.07,79.21 L 142.03,79.29 L 142.00,79.38 L 141.97,79.47 L 141.95,79.56 L 141.93,79.65 L 141.92,79.74 L 141.91,79.83 L 141.91,79.92 L 141.91,80.01 L 169.58,574.15" fill="none" stroke="#FF0000" stroke-width="1.0285" /><circle cx="143.67639600694724" cy="79.92824324996138" fill="#7799BB" opacity="1.0" r="1.25" stroke="#445566" stroke-width="0.15" /><circle cx="166.87136245704886" cy="56.8447700049594" fill="#7799BB" r="1.25" stroke="#445566" stroke-width="0.15" /><path d="M 173.91,59.38 L 174.19,59.36 L 174.47,59.29 L 174.72,59.18 L 174.96,59.02 L 175.17,58.84 L 175.35,58.62 L 175.49,58.37 L 175.58,58.10 L 175.63,57.83 L 175.64,57.54 L 175.60,57.26 L 175.52,57.00 L 175.39,56.74 L 175.22,56.52 L 175.02,56.32 L 174.79,56.16 L 174.54,56.03 L 174.27,55.95 L 173.99,55.92 L 173.70,55.93 L 173.43,55.98 L 173.16,56.08 L 172.92,56.23 L 172.70,56.41 L 149.49,78.99 L 149.43,79.06 L 149.37,79.13 L 149.31,79.20 L 149.26,79.27 L 149.21,79.35 L 149.17,79.43 L 149.13,79.51 L 149.09,79.60 L 149.06,79.68 L 149.03,79.77 L 149.01,79.86 L 148.99,79.95 L 148.98,80.04 L 148.97,80.13 L 148.97,80.23 L 148.97,80.32 L 174.88,541.65" fill="none" stroke="#999999" stroke-width="0.965" /><circle cx="150.70198576481457" cy="80.23322346664918" fill="#BB9977" opacity="1.0" r="1.25" stroke="#665544" stroke-width="0.15" /><circle cx="173.91014173029" cy="57.64774446108197" fill="#BB9977" r="1.25" stroke="#665544" stroke-width="0.15" /><path d="M 180.95,60.12 L 181.21,60.10 L 181.47,60.04 L 181.72,59.93 L 181.94,59.79 L 182.14,59.62 L 182.31,59.41 L 182.45,59.19 L 182.55,58.94 L 182.60,58.68 L 182.62,58.41 L 182.59,58.15 L 182.52,57.89 L 182.41,57.65 L 182.27,57.43 L 182.09,57.23 L 181.88,57.07 L 181.65,56.94 L 181.40,56.84 L 181.14,56.79 L 180.87,56.78 L 180.61,56.82 L 180.36,56.89 L 180.12,57.00 L 179.90,57.16 L 156.51,76.15 L 156.44,76.21 L 156.37,76.28 L 156.30,76.35 L 156.24,76.43 L 156.18,76.51 L 156.13,76.59 L 156.08,76.67 L 156.04,76.76 L 156.00,76.85 L 155.97,76.94 L 155.95,77.04 L 155.93,77.13 L 155.91,77.23 L 155.90,77.33 L 155.90,77.42 L 155.90,77.52 L 180.16,508.60" fill="none" stroke="#999999" stroke-width="0.838" /><circle cx="157.5652945556567" cy="77.44169836971275" fill="#7799BB" opacity="1.0" r="1.25" stroke="#445566" stroke-width="0.15" /><circle cx="180.94892100353115" cy="58.45071891720454" fill="#7799BB" r="1.25" stroke="#445566" stroke-width="0.15" /><path d="M 187.99,60.92 L 188.26,60.90 L 188.52,60.84 L 188.76,60.73 L 188.99,60.59 L 189.19,60.41 L 189.36,60.20 L 189.50,59.97 L 189.59,59.72 L 189.64,59.45 L 189.66,59.18 L 189.62,58.92 L 189.55,58.66 L 189.43,58.42 L 189.28,58.20 L 189.09,58.00 L 188.88,57.84 L 188.64,57.72 L 188.38,57.63 L 188.12,57.59 L 187.85,57.59 L 187.58,57.63 L 187.33,57.72 L 187.09,57.85 L 186.88,58.01 L 163.60,78.75 L 163.53,78.81 L 163.47,78.88 L 163.41,78.95 L 163.35,79.02 L 163.30,79.10 L 163.25,79.18 L 163.21,79.26 L 163.17,79.35 L 163.14,79.43 L 163.11,79.52 L 163.08,79.61 L 163.07,79.70 L 163.05,79.80 L 163.04,79.89 L 163.04,79.98 L 163.04,80.07 L 185.45,475.85" fill="none" stroke="#0000FF" stroke-width="0.838" /><circle cx="164.7086222593106" cy="79.993252423287" fill="#BB9977" opacity="1.0" r="1.25" stroke="#665544" stroke-width="0.15" /><circle cx="187.9877002767723" cy="59.25369337332711" fill="#BB9977" r="1.25" stroke="#665544" stroke-width="0.15" /><path d="M 195.03,61.69 L 195.29,61.67 L 195.54,61.61 L 195.78,61.51 L 196.00,61.37 L 196.19,61.20 L 196.36,61.00 L 196.49,60.78 L 196.59,60.54 L 196.65,60.29 L 196.66,60.03 L 196.64,59.77 L 196.57,59.52 L 196.47,59.28 L 196.33,59.06 L 196.15,58.87 L 195.95,58.70 L 195.72,58.58 L 195.48,58.48 L 195.23,58.43 L 194.97,58.42 L 194.71,58.45 L 194.46,58.52 L 194.22,58.63 L 194.01,58.78 L 170.63,77.37 L 170.55,77.43 L 170.48,77.50 L 170.42,77.57 L 170.36,77.65 L 170.30,77.72 L 170.25,77.80 L 170.20,77.89 L 170.16,77.98 L 170.12,78.07 L 170.09,78.16 L 170.06,78.25 L 170.04,78.34 L 170.02,78.44 L 170.01,78.54 L 170.01,78.63 L 170.01,78.73 L 190.81,444.25" fill="none" stroke="#999999" stroke-width="0.7745" /><circle cx="171.64792233011315" cy="78.65172732635051" fill="#7799BB" opacity="1.0" r="1.25" stroke="#445566" stroke-width="0.15" /><circle cx="195.02647955001345" cy="60.05666782944968" fill="#7799BB" r="1.25" stroke="#445566" stroke-width="0.15" /><path d="M 202.07,62.50 L 202.33,62.48 L 202.59,62.41 L 202.83,62.31 L 203.05,62.17 L 203.25,61.99 L 203.42,61.79 L 203.55,61.56 L 203.64,61.31 L 203.69,61.05 L 203.70,60.78 L 203.67,60.52 L 203.59,60.27 L 203.48,60.03 L 203.33,59.81 L 203.14,59.63 L 202.93,59.47 L 202.69,59.35 L 202.44,59.27 L 202.18,59.23 L 201.92,59.23 L 201.65,59.27 L 201.40,59.36 L 201.17,59.49 L 200.96,59.65 L 177.73,80.80 L 177.67,80.86 L 177.61,80.92 L 177.55,80.99 L 177.49,81.07 L 177.44,81.14 L 177.40,81.22 L 177.36,81.30 L 177.32,81.38 L 177.29,81.46 L 177.26,81.55 L 177.24,81.64 L 177.22,81.73 L 177.21,81.81 L 177.20,81.90 L 177.20,81.99 L 177.20,82.08 L 196.28,414.85" fill="none" stroke="#999999" stroke-width="0.7745" /><circle cx="178.8333594059457" cy="82.00677606630052" fill="#BB9977" opacity="1.0" r="1.25" stroke="#665544" stroke-width="0.15" /><circle cx="202.0652588232546" cy="60.85964228557225" fill="#BB9977" r="1.25" stroke="#665544" stroke-width="0.15" /><path d="M 209.10,63.23 L 209.35,63.21 L 209.59,63.15 L 209.81,63.06 L 210.02,62.93 L 210.21,62.77 L 210.37,62.59 L 210.50,62.38 L 210.59,62.15 L 210.65,61.92 L 210.67,61.67 L 210.65,61.43 L 210.60,61.19 L 210.51,60.96 L 210.38,60.75 L 210.22,60.56 L 210.04,60.40 L 209.83,60.27 L 209.60,60.18 L 209.37,60.12 L 209.12,60.10 L 208.88,60.11 L 208.64,60.17 L 208.41,60.26 L 208.20,60.38 L 184.74,76.95 L 184.66,77.00 L 184.59,77.07 L 184.52,77.14 L 184.45,77.21 L 184.39,77.29 L 184.33,77.37 L 184.28,77.45 L 184.24,77.54 L 184.20,77.63 L 184.16,77.72 L 184.13,77.81 L 184.11,77.91 L 184.09,78.01 L 184.08,78.10 L 184.08,78.20 L 184.08,78.30 L 201.90,388.35" fill="none" stroke="#999999" stroke-width="0.635" /><circle cx="185.64480268145758" cy="78.2255979819671" fill="#7799BB" opacity="1.0" r="1.25" stroke="#445566" stroke-width="0.15" /><circle cx="209.10403809649574" cy="61.66261674169482" fill="#7799BB" r="1.25" stroke="#445566" stroke-width="0.15" /><path d="M 216.14,64.03 L 216.39,64.01 L 216.63,63.96 L 216.86,63.86 L 217.07,63.73 L 217.25,63.57 L 217.41,63.38 L 217.54,63.17 L 217.63,62.95 L 217.69,62.71 L 217.71,62.46 L 217.69,62.22 L 217.63,61.98 L 217.54,61.75 L 217.41,61.54 L 217.25,61.35 L 217.06,61.19 L 216.85,61.07 L 216.62,60.97 L 216.38,60.92 L 216.13,60.90 L 215.89,60.92 L 215.65,60.98 L 215.42,61.07 L 215.21,61.20 L 191.80,78.48 L 191.73,78.54 L 191.66,78.60 L 191.59,78.67 L 191.52,78.74 L 191.47,78.82 L 191.41,78.90 L 191.36,78.98 L 191.32,79.07 L 191.28,79.16 L 191.25,79.25 L 191.22,79.34 L 191.20,79.43 L 191.18,79.53 L 191.17,79.62 L 191.17,79.72 L 191.17,79.81 L 207.67,364.65" fill="none" stroke="#FF0000" stroke-width="0.635" /><circle cx="192.73382762956925" cy="79.74099373452009" fill="#BB9977" opacity="1.0" r="1.25" stroke="#665544" stroke-width="0.15" /><circle cx="216.1428173697369" cy="62.46559119781739" fill="#BB9977" r="1.25" stroke="#665544" stroke-width="0.15" /><path d="M 223.18,64.84 L 223.43,64.82 L 223.67,64.76 L 223.90,64.66 L 224.11,64.53 L 224.29,64.37 L 224.45,64.18 L 224.58,63.97 L 224.68,63.74 L 224.73,63.50 L 224.75,63.25 L 224.73,63.01 L 224.67,62.77 L 224.57,62.54 L 224.44,62.33 L 224.28,62.15 L 224.09,61.99 L 223.87,61.86 L 223.64,61.77 L 223.40,61.72 L 223.15,61.70 L 222.91,61.73 L 222.67,61.79 L 222.44,61.89 L 222.23,62.02 L 198.86,79.76 L 198.79,79.82 L 198.72,79.88 L 198.65,79.95 L 198.59,80.02 L 198.53,80.10 L 198.48,80.18 L 198.43,80.26 L 198.39,80.35 L 198.35,80.43 L 198.32,80.52 L 198.29,80.61 L 198.27,80.71 L 198.26,80.80 L 198.25,80.89 L 198.24,80.99 L 198.24,81.08 L 213.55,343.25" fill="none" stroke="#999999" stroke-width="0.635" /><circle cx="199.80993378161247" cy="81.00988417344888" fill="#7799BB" opacity="1.0" r="1.25" stroke="#445566" stroke-width="0.15" /><circle cx="223.18159664297804" cy="63.26856565393996" fill="#7799BB" r="1.25" stroke="#445566" stroke-width="0.15" /><path d="M 230.22,65.61 L 230.46,65.59 L 230.70,65.53 L 230.92,65.44 L 231.13,65.31 L 231.31,65.15 L 231.47,64.97 L 231.59,64.76 L 231.68,64.53 L 231.74,64.30 L 231.76,64.06 L 231.73,63.81 L 231.68,63.58 L 231.58,63.36 L 231.45,63.15 L 231.29,62.97 L 231.10,62.81 L 230.89,62.69 L 230.67,62.60 L 230.43,62.55 L 230.19,62.54 L 229.95,62.56 L 229.71,62.62 L 229.49,62.72 L 229.29,62.85 L 205.93,80.71 L 205.86,80.77 L 205.80,80.83 L 205.73,80.90 L 205.67,80.97 L 205.61,81.04 L 205.56,81.12 L 205.52,81.20 L 205.48,81.28 L 205.44,81.37 L 205.41,81.46 L 205.38,81.54 L 205.36,81.63 L 205.35,81.73 L 205.34,81.82 L 205.33,81.91 L 205.33,82.00 L 219.55,324.00" fill="none" stroke="#999999" stroke-width="0.5715" /><circle cx="206.86787676850685" cy="81.93220077549131" fill="#BB9977" opacity="1.0" r="1.25" stroke="#665544" stroke-width="0.15" /><circle cx="230.2203759162192" cy="64.07154011006264" fill="#BB9977" r="1.25" stroke="#665544" stroke-width="0.15" /><path d="M 237.26,66.41 L 237.50,66.39 L 237.73,66.33 L 237.96,66.24 L 238.16,66.12 L 238.35,65.96 L 238.50,65.78 L 238.63,65.57 L 238.72,65.35 L 238.78,65.11 L 238.79,64.87 L 238.78,64.63 L 238.72,64.39 L 238.62,64.17 L 238.50,63.97 L 238.34,63.78 L 238.16,63.63 L 237.95,63.50 L 237.73,63.41 L 237.49,63.36 L 237.25,63.34 L 237.01,63.36 L 236.78,63.42 L 236.55,63.51 L 236.35,63.64 L 212.98,80.87 L 212.90,80.93 L 212.83,80.99 L 212.76,81.06 L 212.70,81.13 L 212.64,81.20 L 212.59,81.28 L 212.54,81.36 L 212.50,81.45 L 212.46,81.53 L 212.43,81.62 L 212.40,81.71 L 212.38,81.80 L 212.37,81.90 L 212.36,81.99 L 212.35,82.08 L 212.35,82.18 L 225.65,306.50" fill="none" stroke="#0000FF" stroke-width="0.5715" /><circle cx="213.88669347853917" cy="82.10794354064728" fill="#7799BB" opacity="1.0" r="1.25" stroke="#445566" stroke-width="0.15" /><circle cx="237.25915518946036" cy="64.87451456618521" fill="#7799BB" r="1.25" stroke="#445566" stroke-width="0.15" /><path d="M 244.30,67.21 L 244.54,67.19 L 244.78,67.14 L 245.00,67.04 L 245.21,66.92 L 245.39,66.76 L 245.55,66.57 L 245.67,66.36 L 245.76,66.14 L 245.82,65.90 L 245.83,65.66 L 245.81,65.42 L 245.75,65.18 L 245.65,64.96 L 245.52,64.75 L 245.36,64.57 L 245.18,64.42 L 244.97,64.29 L 244.74,64.21 L 244.50,64.16 L 244.26,64.14 L 244.02,64.17 L 243.78,64.23 L 243.56,64.33 L 243.36,64.46 L 220.04,82.52 L 219.97,82.58 L 219.90,82.64 L 219.84,82.71 L 219.78,82.78 L 219.73,82.85 L 219.67,82.93 L 219.63,83.01 L 219.59,83.09 L 219.55,83.17 L 219.52,83.26 L 219.50,83.35 L 219.47,83.44 L 219.46,83.53 L 219.45,83.62 L 219.45,83.71 L 219.45,83.80 L 231.82,290.50" fill="none" stroke="#999999" stroke-width="0.5715" /><circle cx="220.9815050596839" cy="83.73375482906545" fill="#BB9977" opacity="1.0" r="1.25" stroke="#665544" stroke-width="0.15" /><circle cx="244.2979344627015" cy="65.67748902230778" fill="#BB9977" r="1.25" stroke="#665544" stroke-width="0.15" /><path d="M 251.34,67.98 L 251.57,67.97 L 251.80,67.91 L 252.02,67.82 L 252.22,67.69 L 252.40,67.54 L 252.56,67.36 L 252.68,67.16 L 252.77,66.94 L 252.82,66.71 L 252.84,66.47 L 252.82,66.23 L 252.76,66.00 L 252.67,65.78 L 252.54,65.58 L 252.39,65.40 L 252.21,65.25 L 252.00,65.13 L 251.78,65.04 L 251.55,64.99 L 251.31,64.98 L 251.08,65.00 L 250.85,65.06 L 250.63,65.15 L 250.43,65.28 L 227.10,82.91 L 227.03,82.97 L 226.97,83.03 L 226.90,83.10 L 226.84,83.17 L 226.79,83.24 L 226.74,83.31 L 226.69,83.39 L 226.65,83.47 L 226.61,83.56 L 226.58,83.64 L 226.56,83.73 L 226.54,83.82 L 226.52,83.91 L 226.51,84.00 L 226.51,84.09 L 226.51,84.18 L 238.05,275.75" fill="none" stroke="#999999" stroke-width="0.508" /><circle cx="228.0109864743251" cy="84.11299228059727" fill="#7799BB" opacity="1.0" r="1.25" stroke="#445566" stroke-width="0.15" /><circle cx="251.33671373594265" cy="66.48046347843035" fill="#7799BB" r="1.25" stroke="#445566" stroke-width="0.15" /><path d="M 258.38,68.79 L 258.61,68.77 L 258.84,68.71 L 259.06,68.62 L 259.27,68.49 L 259.45,68.34 L 259.60,68.16 L 259.72,67.95 L 259.81,67.73 L 259.86,67.50 L 259.88,67.26 L 259.86,67.02 L 259.80,66.79 L 259.70,66.57 L 259.57,66.37 L 259.41,66.20 L 259.23,66.05 L 259.02,65.93 L 258.80,65.84 L 258.57,65.79 L 258.33,65.78 L 258.09,65.81 L 257.86,65.87 L 257.65,65.97 L 257.45,66.10 L 234.17,84.36 L 234.10,84.42 L 234.03,84.48 L 233.97,84.54 L 233.92,84.61 L 233.86,84.68 L 233.81,84.76 L 233.77,84.83 L 233.73,84.91 L 233.69,85.00 L 233.66,85.08 L 233.64,85.17 L 233.62,85.25 L 233.61,85.34 L 233.60,85.43 L 233.59,85.52 L 233.59,85.61 L 244.35,262.05" fill="none" stroke="#999999" stroke-width="0.508" /><circle cx="235.0954960572135" cy="85.54222973212904" fill="#BB9977" opacity="1.0" r="1.25" stroke="#665544" stroke-width="0.15" /><circle cx="258.37549300918386" cy="67.28343793455292" fill="#BB9977" r="1.25" stroke="#665544" stroke-width="0.15" /><path d="M 265.17,69.56 L 265.36,69.55 L 265.55,69.50 L 265.74,69.42 L 265.90,69.32 L 266.05,69.19 L 266.18,69.04 L 266.28,68.87 L 266.36,68.69 L 266.41,68.50 L 266.42,68.30 L 266.40,68.11 L 266.36,67.91 L 266.28,67.73 L 266.18,67.57 L 266.05,67.42 L 265.90,67.29 L 265.73,67.19 L 265.54,67.11 L 265.35,67.07 L 265.16,67.05 L 264.96,67.07 L 264.77,67.12 L 264.59,67.20 L 264.42,67.30 L 241.35,84.42 L 241.29,84.47 L 241.23,84.52 L 241.18,84.57 L 241.13,84.63 L 241.08,84.69 L 241.04,84.75 L 241.00,84.82 L 240.97,84.89 L 240.94,84.96 L 240.91,85.03 L 240.89,85.10 L 240.87,85.18 L 240.86,85.25 L 240.85,85.33 L 240.85,85.40 L 240.85,85.48 L 250.69,249.30" fill="none" stroke="#FF0000" stroke-width="0.508" /><circle cx="242.09895313981337" cy="85.42489334677441" fill="#7799BB" opacity="1.0" r="1.0" stroke="#445566" stroke-width="0.15" /><circle cx="265.1658833173108" cy="68.3080765121905" fill="#7799BB" r="1.0" stroke="#445566" stroke-width="0.15" /><path d="M 271.71,70.28 L 271.90,70.27 L 272.09,70.22 L 272.27,70.15 L 272.43,70.05 L 272.58,69.92 L 272.71,69.77 L 272.81,69.61 L 272.88,69.43 L 272.92,69.24 L 272.94,69.04 L 272.92,68.85 L 272.87,68.66 L 272.80,68.48 L 272.69,68.32 L 272.56,68.17 L 272.42,68.05 L 272.25,67.95 L 272.07,67.88 L 271.88,67.84 L 271.69,67.83 L 271.49,67.84 L 271.30,67.89 L 271.13,67.97 L 270.96,68.08 L 248.41,85.23 L 248.35,85.28 L 248.29,85.33 L 248.24,85.38 L 248.19,85.44 L 248.15,85.49 L 248.11,85.56 L 248.07,85.62 L 248.04,85.69 L 248.01,85.75 L 247.98,85.82 L 247.96,85.90 L 247.94,85.97 L 247.93,86.04 L 247.92,86.11 L 247.92,86.19 L 247.92,86.26 L 257.08,237.50" fill="none" stroke="#999999" stroke-width="0.457" /><circle cx="249.14958081492003" cy="86.20762548468201" fill="#BB9977" opacity="1.0" r="1.0" stroke="#665544" stroke-width="0.15" /><circle cx="271.70788466032366" cy="69.05437921134308" fill="#BB9977" r="1.0" stroke="#665544" stroke-width="0.15" /><path d="M 278.25,71.03 L 278.45,71.01 L 278.64,70.97 L 278.82,70.89 L 278.98,70.79 L 279.13,70.66 L 279.25,70.51 L 279.35,70.34 L 279.43,70.16 L 279.47,69.97 L 279.48,69.77 L 279.46,69.58 L 279.41,69.39 L 279.33,69.21 L 279.22,69.04 L 279.09,68.90 L 278.93,68.78 L 278.76,68.68 L 278.58,68.62 L 278.38,68.58 L 278.19,68.57 L 277.99,68.60 L 277.81,68.65 L 277.63,68.74 L 277.47,68.85 L 255.47,86.94 L 255.41,86.99 L 255.36,87.04 L 255.31,87.09 L 255.27,87.15 L 255.23,87.20 L 255.19,87.26 L 255.16,87.33 L 255.13,87.39 L 255.10,87.46 L 255.08,87.52 L 255.06,87.59 L 255.04,87.66 L 255.03,87.73 L 255.02,87.80 L 255.02,87.87 L 255.02,87.94 L 263.51,226.55" fill="none" stroke="#999999" stroke-width="0.457" /><circle cx="256.2473719002294" cy="87.89028909932745" fill="#7799BB" opacity="1.0" r="1.0" stroke="#445566" stroke-width="0.15" /><circle cx="278.2498860033365" cy="69.80068191049554" fill="#7799BB" r="1.0" stroke="#445566" stroke-width="0.15" /><path d="M 284.79,71.78 L 284.98,71.76 L 285.17,71.72 L 285.35,71.64 L 285.51,71.54 L 285.65,71.42 L 285.78,71.28 L 285.88,71.11 L 285.96,70.94 L 286.00,70.75 L 286.02,70.56 L 286.01,70.37 L 285.97,70.19 L 285.90,70.01 L 285.80,69.84 L 285.68,69.70 L 285.53,69.57 L 285.37,69.47 L 285.20,69.39 L 285.01,69.34 L 284.82,69.32 L 284.63,69.33 L 284.45,69.37 L 284.27,69.44 L 284.10,69.53 L 262.43,84.26 L 262.37,84.31 L 262.31,84.36 L 262.25,84.41 L 262.20,84.47 L 262.15,84.53 L 262.10,84.59 L 262.06,84.66 L 262.02,84.73 L 261.99,84.80 L 261.96,84.87 L 261.94,84.95 L 261.92,85.02 L 261.91,85.10 L 261.90,85.18 L 261.89,85.25 L 261.89,85.33 L 269.99,216.40" fill="none" stroke="#0000FF" stroke-width="0.457" /><circle cx="263.1201758321262" cy="85.27994208672442" fill="#BB9977" opacity="1.0" r="1.0" stroke="#665544" stroke-width="0.15" /><circle cx="284.7918873463493" cy="70.54698460964812" fill="#BB9977" r="1.0" stroke="#665544" stroke-width="0.15" /><path d="M 291.33,72.52 L 291.53,72.51 L 291.72,72.46 L 291.90,72.38 L 292.07,72.28 L 292.21,72.15 L 292.34,72.00 L 292.44,71.83 L 292.51,71.65 L 292.55,71.46 L 292.56,71.26 L 292.54,71.07 L 292.49,70.88 L 292.41,70.70 L 292.30,70.54 L 292.17,70.39 L 292.02,70.27 L 291.85,70.18 L 291.66,70.11 L 291.47,70.07 L 291.27,70.07 L 291.08,70.09 L 290.89,70.15 L 290.72,70.23 L 290.56,70.34 L 269.52,87.56 L 269.47,87.61 L 269.42,87.66 L 269.37,87.71 L 269.32,87.77 L 269.28,87.82 L 269.24,87.88 L 269.21,87.95 L 269.18,88.01 L 269.15,88.08 L 269.13,88.14 L 269.11,88.21 L 269.09,88.28 L 269.08,88.35 L 269.07,88.42 L 269.07,88.49 L 269.07,88.56 L 276.51,207.00" fill="none" stroke="#999999" stroke-width="0.457" /><circle cx="270.2991989753243" cy="88.51260570136981" fill="#7799BB" opacity="1.0" r="1.0" stroke="#445566" stroke-width="0.15" /><circle cx="291.3338886893622" cy="71.2932873088007" fill="#7799BB" r="1.0" stroke="#445566" stroke-width="0.15" /><path d="M 297.88,73.24 L 298.06,73.23 L 298.25,73.18 L 298.42,73.11 L 298.59,73.01 L 298.73,72.89 L 298.85,72.74 L 298.95,72.58 L 299.02,72.41 L 299.07,72.22 L 299.08,72.03 L 299.06,71.84 L 299.02,71.66 L 298.94,71.49 L 298.84,71.33 L 298.72,71.18 L 298.58,71.06 L 298.41,70.96 L 298.24,70.89 L 298.05,70.85 L 297.86,70.84 L 297.68,70.85 L 297.49,70.90 L 297.32,70.97 L 297.16,71.07 L 276.53,86.44 L 276.47,86.48 L 276.42,86.53 L 276.37,86.58 L 276.32,86.64 L 276.28,86.70 L 276.24,86.76 L 276.20,86.82 L 276.16,86.88 L 276.13,86.95 L 276.11,87.02 L 276.09,87.09 L 276.07,87.16 L 276.06,87.23 L 276.05,87.31 L 276.05,87.38 L 276.05,87.45 L 283.07,198.35" fill="none" stroke="#999999" stroke-width="0.4065" /><circle cx="277.2506145761457" cy="87.40225868876689" fill="#BB9977" opacity="1.0" r="1.0" stroke="#665544" stroke-width="0.15" /><circle cx="297.87589003237497" cy="72.03959000795317" fill="#BB9977" r="1.0" stroke="#665544" stroke-width="0.15" /><path d="M 304.42,73.99 L 304.61,73.97 L 304.79,73.93 L 304.96,73.86 L 305.12,73.76 L 305.27,73.64 L 305.39,73.50 L 305.49,73.34 L 305.56,73.16 L 305.61,72.98 L 305.62,72.79 L 305.61,72.61 L 305.57,72.42 L 305.49,72.25 L 305.40,72.09 L 305.28,71.94 L 305.14,71.82 L 304.98,71.72 L 304.80,71.65 L 304.62,71.60 L 304.43,71.58 L 304.25,71.59 L 304.06,71.64 L 303.89,71.71 L 303.73,71.80 L 283.55,85.96 L 283.48,86.00 L 283.43,86.05 L 283.37,86.10 L 283.32,86.16 L 283.28,86.22 L 283.23,86.28 L 283.19,86.34 L 283.16,86.41 L 283.13,86.48 L 283.10,86.55 L 283.08,86.62 L 283.06,86.69 L 283.05,86.77 L 283.04,86.84 L 283.03,86.92 L 283.03,86.99 L 289.65,190.30" fill="none" stroke="#999999" stroke-width="0.4065" /><circle cx="284.23609164234904" cy="86.94184315290158" fill="#7799BB" opacity="1.0" r="1.0" stroke="#445566" stroke-width="0.15" /><circle cx="304.41789137538785" cy="72.78589270710575" fill="#7799BB" r="1.0" stroke="#445566" stroke-width="0.15" /><path d="M 310.96,74.74 L 311.15,74.72 L 311.33,74.68 L 311.50,74.61 L 311.66,74.51 L 311.81,74.39 L 311.93,74.25 L 312.03,74.09 L 312.10,73.91 L 312.15,73.73 L 312.16,73.55 L 312.15,73.36 L 312.11,73.18 L 312.04,73.00 L 311.94,72.84 L 311.82,72.70 L 311.68,72.57 L 311.53,72.47 L 311.35,72.40 L 311.17,72.35 L 310.99,72.33 L 310.80,72.34 L 310.62,72.38 L 310.44,72.45 L 310.28,72.54 L 290.57,86.09 L 290.51,86.13 L 290.45,86.18 L 290.40,86.24 L 290.35,86.29 L 290.30,86.35 L 290.25,86.41 L 290.21,86.48 L 290.18,86.54 L 290.15,86.61 L 290.12,86.68 L 290.10,86.75 L 290.08,86.83 L 290.06,86.90 L 290.05,86.98 L 290.05,87.05 L 290.05,87.13 L 296.27,182.90" fill="none" stroke="#FF0000" stroke-width="0.4065" /><circle cx="291.2530169672742" cy="87.08149614029867" fill="#BB9977" opacity="1.0" r="1.0" stroke="#665544" stroke-width="0.15" /><circle cx="310.9598927184007" cy="73.53219540625832" fill="#BB9977" r="1.0" stroke="#665544" stroke-width="0.15" /><path d="M 317.50,75.47 L 317.69,75.45 L 317.87,75.41 L 318.04,75.34 L 318.20,75.24 L 318.34,75.12 L 318.46,74.98 L 318.56,74.82 L 318.63,74.65 L 318.68,74.47 L 318.69,74.29 L 318.68,74.10 L 318.64,73.92 L 318.57,73.75 L 318.47,73.59 L 318.35,73.45 L 318.21,73.32 L 318.05,73.22 L 317.88,73.15 L 317.70,73.11 L 317.52,73.09 L 317.33,73.10 L 317.15,73.14 L 316.98,73.21 L 316.82,73.30 L 297.61,86.80 L 297.55,86.84 L 297.50,86.89 L 297.45,86.94 L 297.40,87.00 L 297.35,87.05 L 297.31,87.11 L 297.27,87.18 L 297.23,87.24 L 297.20,87.31 L 297.17,87.38 L 297.15,87.45 L 297.13,87.52 L 297.12,87.60 L 297.11,87.67 L 297.11,87.74 L 297.11,87.82 L 302.92,176.00" fill="none" stroke="#999999" stroke-width="0.381" /><circle cx="298.298762979653" cy="87.77108060443345" fill="#7799BB" opacity="1.0" r="1.0" stroke="#445566" stroke-width="0.15" /><circle cx="317.5018940614135" cy="74.2784981054109" fill="#7799BB" r="1.0" stroke="#445566" stroke-width="0.15" /><path d="M 324.04,76.20 L 324.23,76.19 L 324.41,76.14 L 324.58,76.07 L 324.74,75.98 L 324.88,75.86 L 325.00,75.71 L 325.09,75.56 L 325.17,75.38 L 325.21,75.20 L 325.22,75.02 L 325.21,74.83 L 325.16,74.65 L 325.09,74.48 L 324.99,74.33 L 324.87,74.19 L 324.73,74.07 L 324.57,73.97 L 324.40,73.90 L 324.22,73.86 L 324.03,73.85 L 323.85,73.86 L 323.67,73.91 L 323.50,73.98 L 323.34,74.08 L 304.67,87.97 L 304.61,88.01 L 304.56,88.06 L 304.51,88.11 L 304.46,88.16 L 304.42,88.22 L 304.38,88.28 L 304.34,88.34 L 304.31,88.40 L 304.28,88.47 L 304.25,88.53 L 304.23,88.60 L 304.21,88.67 L 304.20,88.74 L 304.19,88.81 L 304.19,88.88 L 304.19,88.96 L 309.60,169.60" fill="none" stroke="#999999" stroke-width="0.3555" /><circle cx="305.36809608386125" cy="88.91073359183042" fill="#BB9977" opacity="1.0" r="1.0" stroke="#665544" stroke-width="0.15" /><circle cx="324.0438954044263" cy="75.02480080456337" fill="#BB9977" r="1.0" stroke="#665544" stroke-width="0.15" /><path d="M 330.59,76.95 L 330.77,76.93 L 330.95,76.89 L 331.13,76.82 L 331.29,76.72 L 331.43,76.59 L 331.55,76.45 L 331.64,76.29 L 331.71,76.11 L 331.75,75.93 L 331.76,75.74 L 331.74,75.56 L 331.70,75.38 L 331.62,75.21 L 331.52,75.05 L 331.39,74.91 L 331.24,74.79 L 331.08,74.70 L 330.90,74.64 L 330.72,74.60 L 330.53,74.59 L 330.35,74.62 L 330.17,74.67 L 330.00,74.75 L 329.84,74.86 L 311.72,89.59 L 311.67,89.63 L 311.62,89.68 L 311.57,89.73 L 311.53,89.78 L 311.49,89.84 L 311.45,89.89 L 311.42,89.95 L 311.39,90.01 L 311.36,90.08 L 311.34,90.14 L 311.32,90.21 L 311.31,90.27 L 311.29,90.34 L 311.29,90.41 L 311.28,90.47 L 311.28,90.54 L 316.29,163.60" fill="none" stroke="#0000FF" stroke-width="0.3555" /><circle cx="312.4610090975948" cy="90.50031805596518" fill="#7799BB" opacity="1.0" r="1.0" stroke="#445566" stroke-width="0.15" /><circle cx="330.5858967474391" cy="75.77110350371595" fill="#7799BB" r="1.0" stroke="#445566" stroke-width="0.15" /><path d="M 337.13,77.70 L 337.32,77.68 L 337.50,77.63 L 337.68,77.56 L 337.84,77.46 L 337.98,77.33 L 338.10,77.18 L 338.19,77.02 L 338.26,76.84 L 338.30,76.65 L 338.30,76.46 L 338.28,76.28 L 338.23,76.09 L 338.14,75.92 L 338.04,75.77 L 337.90,75.63 L 337.75,75.52 L 337.58,75.43 L 337.40,75.37 L 337.21,75.34 L 337.02,75.34 L 336.83,75.38 L 336.65,75.44 L 336.49,75.53 L 336.34,75.65 L 318.78,91.57 L 318.73,91.61 L 318.69,91.66 L 318.65,91.71 L 318.61,91.76 L 318.58,91.81 L 318.54,91.87 L 318.51,91.92 L 318.49,91.98 L 318.46,92.04 L 318.44,92.10 L 318.43,92.16 L 318.41,92.23 L 318.40,92.29 L 318.40,92.35 L 318.39,92.42 L 318.40,92.48 L 323.01,158.00" fill="none" stroke="#999999" stroke-width="0.3555" /><circle cx="319.5722684252295" cy="92.43997104336222" fill="#BB9977" opacity="1.0" r="1.0" stroke="#665544" stroke-width="0.15" /><circle cx="337.1278980904519" cy="76.51740620286853" fill="#BB9977" r="1.0" stroke="#665544" stroke-width="0.15" /><path d="M 343.67,78.42 L 343.86,78.41 L 344.04,78.36 L 344.21,78.29 L 344.36,78.19 L 344.50,78.07 L 344.62,77.92 L 344.72,77.76 L 344.78,77.59 L 344.82,77.41 L 344.83,77.22 L 344.81,77.04 L 344.75,76.86 L 344.68,76.69 L 344.57,76.53 L 344.44,76.40 L 344.29,76.29 L 344.13,76.20 L 343.95,76.14 L 343.77,76.11 L 343.58,76.11 L 343.40,76.14 L 343.22,76.19 L 343.06,76.28 L 342.91,76.39 L 325.81,91.31 L 325.76,91.35 L 325.71,91.40 L 325.67,91.45 L 325.63,91.50 L 325.60,91.55 L 325.56,91.61 L 325.53,91.66 L 325.51,91.72 L 325.48,91.78 L 325.46,91.84 L 325.44,91.90 L 325.43,91.97 L 325.42,92.03 L 325.41,92.09 L 325.41,92.16 L 325.41,92.22 L 329.74,152.70" fill="none" stroke="#999999" stroke-width="0.3175" /><circle cx="326.56841019604167" cy="92.18305019387287" fill="#7799BB" opacity="1.0" r="1.0" stroke="#445566" stroke-width="0.15" /><circle cx="343.6698994334647" cy="77.26370890202111" fill="#7799BB" r="1.0" stroke="#445566" stroke-width="0.15" /><path d="M 350.21,79.17 L 350.40,79.15 L 350.58,79.11 L 350.75,79.04 L 350.90,78.94 L 351.04,78.82 L 351.16,78.67 L 351.26,78.51 L 351.32,78.34 L 351.36,78.16 L 351.37,77.97 L 351.35,77.79 L 351.30,77.61 L 351.22,77.44 L 351.12,77.29 L 350.99,77.15 L 350.84,77.04 L 350.68,76.95 L 350.51,76.89 L 350.32,76.86 L 350.14,76.85 L 349.95,76.88 L 349.78,76.94 L 349.61,77.02 L 349.46,77.13 L 332.83,91.29 L 332.78,91.34 L 332.73,91.38 L 332.69,91.43 L 332.65,91.48 L 332.61,91.54 L 332.58,91.59 L 332.55,91.65 L 332.52,91.71 L 332.49,91.77 L 332.47,91.83 L 332.45,91.89 L 332.44,91.95 L 332.43,92.02 L 332.42,92.08 L 332.42,92.15 L 332.42,92.21 L 336.48,147.65" fill="none" stroke="#999999" stroke-width="0.3175" /><circle cx="333.57765391167464" cy="92.17612934438341" fill="#BB9977" opacity="1.0" r="1.0" stroke="#665544" stroke-width="0.15" /><circle cx="350.2119007764775" cy="78.01001160117357" fill="#BB9977" r="1.0" stroke="#665544" stroke-width="0.15" /><path d="M 356.75,79.92 L 356.94,79.90 L 357.12,79.86 L 357.29,79.78 L 357.45,79.69 L 357.59,79.56 L 357.70,79.42 L 357.80,79.26 L 357.86,79.09 L 357.90,78.91 L 357.91,78.72 L 357.89,78.54 L 357.84,78.36 L 357.77,78.19 L 357.66,78.04 L 357.54,77.90 L 357.39,77.79 L 357.23,77.70 L 357.05,77.64 L 356.87,77.60 L 356.68,77.60 L 356.50,77.63 L 356.32,77.68 L 356.16,77.76 L 356.01,77.87 L 339.85,91.48 L 339.80,91.53 L 339.76,91.57 L 339.71,91.62 L 339.67,91.67 L 339.63,91.73 L 339.60,91.78 L 339.57,91.84 L 339.54,91.90 L 339.51,91.96 L 339.49,92.02 L 339.48,92.08 L 339.46,92.14 L 339.45,92.21 L 339.44,92.27 L 339.44,92.34 L 339.44,92.40 L 343.24,142.80" fill="none" stroke="#FF0000" stroke-width="0.3175" /><circle cx="340.59737918316415" cy="92.369208494894" fill="#7799BB" opacity="1.0" r="1.0" stroke="#445566" stroke-width="0.15" /><circle cx="356.75390211949025" cy="78.75631430032615" fill="#7799BB" r="1.0" stroke="#445566" stroke-width="0.15" /><path d="M 363.30,80.66 L 363.48,80.65 L 363.66,80.60 L 363.83,80.53 L 363.99,80.43 L 364.13,80.31 L 364.25,80.17 L 364.34,80.01 L 364.41,79.83 L 364.44,79.65 L 364.45,79.47 L 364.43,79.28 L 364.38,79.10 L 364.31,78.94 L 364.20,78.78 L 364.08,78.65 L 363.93,78.53 L 363.77,78.44 L 363.59,78.38 L 363.41,78.35 L 363.22,78.35 L 363.04,78.37 L 362.86,78.43 L 362.70,78.51 L 362.55,78.62 L 346.88,91.88 L 346.83,91.92 L 346.78,91.97 L 346.74,92.02 L 346.70,92.07 L 346.66,92.12 L 346.63,92.17 L 346.60,92.23 L 346.57,92.29 L 346.55,92.35 L 346.52,92.41 L 346.51,92.47 L 346.49,92.54 L 346.48,92.60 L 346.47,92.66 L 346.47,92.73 L 346.47,92.79 L 350.01,138.15" fill="none" stroke="#999999" stroke-width="0.3175" /><circle cx="347.6275860105103" cy="92.76228764540463" fill="#BB9977" opacity="1.0" r="1.0" stroke="#665544" stroke-width="0.15" /><circle cx="363.29590346250313" cy="79.50261699947873" fill="#BB9977" r="1.0" stroke="#665544" stroke-width="0.15" /><path d="M 369.84,81.41 L 370.02,81.39 L 370.20,81.35 L 370.37,81.28 L 370.53,81.18 L 370.67,81.05 L 370.79,80.91 L 370.88,80.75 L 370.95,80.58 L 370.99,80.40 L 371.00,80.21 L 370.98,80.03 L 370.93,79.85 L 370.85,79.68 L 370.74,79.53 L 370.62,79.39 L 370.47,79.28 L 370.31,79.19 L 370.13,79.13 L 369.95,79.10 L 369.76,79.09 L 369.58,79.12 L 369.40,79.18 L 369.24,79.26 L 369.09,79.37 L 353.91,92.32 L 353.86,92.37 L 353.82,92.41 L 353.77,92.46 L 353.73,92.51 L 353.70,92.56 L 353.66,92.62 L 353.63,92.67 L 353.60,92.73 L 353.58,92.79 L 353.56,92.85 L 353.54,92.91 L 353.52,92.98 L 353.51,93.04 L 353.51,93.10 L 353.50,93.17 L 353.50,93.23 L 356.77,133.55" fill="none" stroke="#999999" stroke-width="0.3175" /><circle cx="354.66041322682065" cy="93.20536679591521" fill="#7799BB" opacity="1.0" r="1.0" stroke="#445566" stroke-width="0.15" /><circle cx="369.8379048055159" cy="80.2489196986312" fill="#7799BB" r="1.0" stroke="#445566" stroke-width="0.15" /><path d="M 376.38,82.15 L 376.57,82.14 L 376.75,82.09 L 376.92,82.02 L 377.07,81.92 L 377.21,81.80 L 377.33,81.66 L 377.43,81.49 L 377.49,81.32 L 377.53,81.14 L 377.54,80.95 L 377.52,80.77 L 377.47,80.59 L 377.39,80.42 L 377.28,80.27 L 377.15,80.13 L 377.01,80.02 L 376.84,79.93 L 376.67,79.87 L 376.48,79.84 L 376.30,79.84 L 376.11,79.87 L 375.94,79.93 L 375.77,80.01 L 375.62,80.12 L 360.94,92.87 L 360.89,92.92 L 360.85,92.96 L 360.81,93.01 L 360.77,93.06 L 360.73,93.11 L 360.70,93.17 L 360.67,93.22 L 360.64,93.28 L 360.62,93.34 L 360.59,93.40 L 360.58,93.46 L 360.56,93.52 L 360.55,93.58 L 360.54,93.64 L 360.54,93.71 L 360.54,93.77 L 363.55,129.05" fill="none" stroke="#0000FF" stroke-width="0.3175" /><circle cx="361.6984812210593" cy="93.74844594642582" fill="#BB9977" opacity="1.0" r="1.0" stroke="#665544" stroke-width="0.15" /><circle cx="376.3799061485287" cy="80.99522239778378" fill="#BB9977" r="1.0" stroke="#665544" stroke-width="0.15" /><path d="M 382.92,82.90 L 383.11,82.89 L 383.29,82.84 L 383.46,82.77 L 383.62,82.67 L 383.76,82.54 L 383.88,82.40 L 383.97,82.24 L 384.03,82.06 L 384.07,81.88 L 384.08,81.70 L 384.06,81.51 L 384.01,81.33 L 383.93,81.16 L 383.82,81.01 L 383.69,80.88 L 383.54,80.76 L 383.38,80.68 L 383.20,80.62 L 383.02,80.59 L 382.83,80.59 L 382.65,80.62 L 382.47,80.67 L 382.31,80.76 L 382.16,80.87 L 367.97,93.37 L 367.92,93.41 L 367.88,93.46 L 367.84,93.51 L 367.80,93.56 L 367.76,93.61 L 367.73,93.66 L 367.70,93.72 L 367.67,93.77 L 367.65,93.83 L 367.63,93.89 L 367.61,93.95 L 367.60,94.01 L 367.59,94.07 L 367.58,94.13 L 367.58,94.20 L 367.58,94.26 L 370.32,124.50" fill="none" stroke="#999999" stroke-width="0.3175" /><circle cx="368.7339288263338" cy="94.24152509693636" fill="#7799BB" opacity="1.0" r="1.0" stroke="#445566" stroke-width="0.15" /><circle cx="382.92190749154156" cy="81.74152509693636" fill="#7799BB" r="1.0" stroke="#445566" stroke-width="0.15" /></svg>