<?xml version="1.0" encoding="utf-8" ?>
<svg baseProfile="full" height="100%" preserveAspectRatio="xMidYMid meet" version="1.1" viewBox="0 0 453 869" width="100%" xmlns="http://www.w3.org/2000/svg" xmlns:ev="http://www.w3.org/2001/xml-events" xmlns:xlink="http://www.w3.org/1999/xlink"><defs /><rect fill="white" height="869" width="453" x="0" y="0" /><line opacity="1.0" stroke="#90EE90" stroke-dasharray="4,2" stroke-width="0.5" x1="45.0" x2="368.7339288263338" y1="67.58805890014798" y2="92.24152509693636" /><line opacity="1.0" stroke="#8B4513" stroke-width="0.8" x1="85.0" x2="408.7339288263338" y1="45.53194362255306" y2="66.0076781065278" /><path d="M 84.6,824.0 L 90.9,809.0 L 97.1,795.1 L 103.5,782.0 L 109.8,769.2 L 116.1,756.4 L 122.5,743.3 L 128.8,729.5 L 135.0,714.6 L 141.1,697.5 L 147.1,677.6 L 152.9,655.4 L 158.6,630.6 L 164.2,602.8 L 169.6,572.1 L 174.9,539.6 L 180.2,506.6 L 185.5,473.9 L 190.8,442.2 L 196.3,412.9 L 201.9,386.4 L 207.7,362.6 L 213.6,341.2 L 219.6,322.0 L 225.6,304.5 L 231.8,288.5 L 238.1,273.8 L 244.3,260.0 L 250.7,247.3 L 257.1,235.5 L 263.5,224.5 L 270.0,214.4 L 276.5,205.0 L 283.1,196.4 L 289.7,188.3 L 296.3,180.9 L 302.9,174.0 L 309.6,167.6 L 316.3,161.6 L 323.0,156.0 L 329.7,150.7 L 336.5,145.6 L 343.2,140.8 L 350.0,136.1 L 356.8,131.5 L 363.5,127.0 L 370.3,122.5" fill="none" stroke="black" stroke-width="0.5" /><g opacity="1.0" transform="rotate(41.9, 45.6, 110.1)"><ellipse cx="45.575528334496624" cy="110.13055102508804" fill="#B8A8D4" rx="5.0" ry="2.55" stroke="#55438B" stroke-width="0.15" /><circle cx="48.075528334496624" cy="110.13055102508804" fill="#888" r="1.25" stroke="#444" stroke-width="0.1" /><circle cx="43.075528334496624" cy="110.13055102508804" fill="#888" r="1.25" stroke="#444" stroke-width="0.1" /></g><g opacity="1.0" transform="rotate(-3.1, 47.8, 150.2)"><ellipse cx="47.768153614640056" cy="150.1969645043456" fill="#D4C4A8" rx="5.0" ry="2.55" stroke="#8B7355" stroke-width="0.15" /><circle cx="50.268153614640056" cy="150.1969645043456" fill="#888" r="1.25" stroke="#444" stroke-width="0.1" /><circle cx="45.268153614640056" cy="150.1969645043456" fill="#888" r="1.25" stroke="#444" stroke-width="0.1" /></g><g opacity="1.0" transform="rotate(41.9, 52.4, 107.0)"><ellipse cx="52.418821883846064" cy="106.95710087382633" fill="#B8A8D4" rx="5.0" ry="2.55" stroke="#55438B" stroke-width="0.15" /><circle cx="54.918821883846064" cy="106.95710087382633" fill="#888" r="1.25" stroke="#444" stroke-width="0.1" /><circle cx="49.918821883846064" cy="106.95710087382633" fill="#888" r="1.25" stroke="#444" stroke-width="0.1" /></g><g opacity="1.0" transform="rotate(-3.1, 54.6, 146.4)"><ellipse cx="54.576513177648124" cy="146.35693482985346" fill="#D4C4A8" rx="5.0" ry="2.55" stroke="#8B7355" stroke-width="0.15" /><circle cx="57.076513177648124" cy="146.35693482985346" fill="#888" r="1.25" stroke="#444" stroke-width="0.1" /><circle cx="52.076513177648124" cy="146.35693482985346" fill="#888" r="1.25" stroke="#444" stroke-width="0.1" /></g><g opacity="1.0" transform="rotate(41.9, 59.3, 105.0)"><ellipse cx="59.327474795608296" cy="105.03078100284267" fill="#B8A8D4" rx="5.0" ry="2.5" stroke="#55438B" stroke-width="0.15" /><circle cx="61.827474795608296" cy="105.03078100284267" fill="#888" r="1.25" stroke="#444" stroke-width="0.1" /><circle cx="56.827474795608296" cy="105.03078100284267" fill="#888" r="1.25" stroke="#444" stroke-width="0.1" /></g><g opacity="1.0" transform="rotate(-3.1, 61.5, 143.8)"><ellipse cx="61.45009347109058" cy="143.76139021626523" fill="#D4C4A8" rx="5.0" ry="2.5" stroke="#8B7355" stroke-width="0.15" /><circle cx="63.95009347109058" cy="143.76139021626523" fill="#888" r="1.25" stroke="#444" stroke-width="0.1" /><circle cx="58.95009347109058" cy="143.76139021626523" fill="#888" r="1.25" stroke="#444" stroke-width="0.1" /></g><g opacity="1.0" transform="rotate(41.9, 66.3, 103.8)"><ellipse cx="66.27034331006425" cy="103.75733312953616" fill="#B8A8D4" rx="5.0" ry="2.5" stroke="#55438B" stroke-width="0.15" /><circle cx="68.77034331006425" cy="103.75733312953616" fill="#888" r="1.25" stroke="#444" stroke-width="0.1" /><circle cx="63.77034331006425" cy="103.75733312953616" fill="#888" r="1.25" stroke="#444" stroke-width="0.1" /></g><g opacity="1.0" transform="rotate(-3.1, 68.4, 141.8)"><ellipse cx="68.3580279888517" cy="141.82136269187617" fill="#D4C4A8" rx="5.0" ry="2.5" stroke="#8B7355" stroke-width="0.15" /><circle cx="70.8580279888517" cy="141.82136269187617" fill="#888" r="1.25" stroke="#444" stroke-width="0.1" /><circle cx="65.8580279888517" cy="141.82136269187617" fill="#888" r="1.25" stroke="#444" stroke-width="0.1" /></g><g opacity="1.0" transform="rotate(41.9, 73.4, 105.3)"><ellipse cx="73.36014191051619" cy="105.2874748187271" fill="#B8A8D4" rx="5.0" ry="2.5" stroke="#55438B" stroke-width="0.15" /><circle cx="75.86014191051619" cy="105.2874748187271" fill="#888" r="1.25" stroke="#444" stroke-width="0.1" /><circle cx="70.86014191051619" cy="105.2874748187271" fill="#888" r="1.25" stroke="#444" stroke-width="0.1" /></g><g opacity="1.0" transform="rotate(-3.1, 75.4, 142.6)"><ellipse cx="75.4058226095978" cy="142.55002161375853" fill="#D4C4A8" rx="5.0" ry="2.5" stroke="#8B7355" stroke-width="0.15" /><circle cx="77.9058226095978" cy="142.55002161375853" fill="#888" r="1.25" stroke="#444" stroke-width="0.1" /><circle cx="72.9058226095978" cy="142.55002161375853" fill="#888" r="1.25" stroke="#444" stroke-width="0.1" /></g><g opacity="1.0" transform="rotate(41.9, 80.4, 106.8)"><ellipse cx="80.44732027790259" cy="106.76761840083111" fill="#B8A8D4" rx="5.0" ry="2.55" stroke="#55438B" stroke-width="0.15" /><circle cx="82.94732027790259" cy="106.76761840083111" fill="#888" r="1.25" stroke="#444" stroke-width="0.1" /><circle cx="77.94732027790259" cy="106.76761840083111" fill="#888" r="1.25" stroke="#444" stroke-width="0.1" /></g><g opacity="1.0" transform="rotate(-3.1, 82.5, 143.2)"><ellipse cx="82.45099698852846" cy="143.2286823223128" fill="#D4C4A8" rx="5.0" ry="2.55" stroke="#8B7355" stroke-width="0.15" /><circle cx="84.95099698852846" cy="143.2286823223128" fill="#888" r="1.25" stroke="#444" stroke-width="0.1" /><circle cx="79.95099698852846" cy="143.2286823223128" fill="#888" r="1.25" stroke="#444" stroke-width="0.1" /></g><g opacity="1.0" transform="rotate(41.9, 87.5, 107.9)"><ellipse cx="87.51877647923968" cy="107.9477640033831" fill="#B8A8D4" rx="5.0" ry="2.5" stroke="#55438B" stroke-width="0.15" /><circle cx="90.01877647923968" cy="107.9477640033831" fill="#888" r="1.25" stroke="#444" stroke-width="0.1" /><circle cx="85.01877647923968" cy="107.9477640033831" fill="#888" r="1.25" stroke="#444" stroke-width="0.1" /></g><g opacity="1.0" transform="rotate(-3.1, 89.5, 143.6)"><ellipse cx="89.48044919199552" cy="143.60734493791608" fill="#D4C4A8" rx="5.0" ry="2.5" stroke="#8B7355" stroke-width="0.15" /><circle cx="91.98044919199552" cy="143.60734493791608" fill="#888" r="1.25" stroke="#444" stroke-width="0.1" /><circle cx="86.98044919199552" cy="143.60734493791608" fill="#888" r="1.25" stroke="#444" stroke-width="0.1" /></g><g opacity="1.0" transform="rotate(41.8, 94.6, 108.4)"><ellipse cx="94.55092702690024" cy="108.37791176563735" fill="#B8A8D4" rx="5.0" ry="2.5" stroke="#55438B" stroke-width="0.15" /><circle cx="97.05092702690024" cy="108.37791176563735" fill="#888" r="1.25" stroke="#444" stroke-width="0.1" /><circle cx="92.05092702690024" cy="108.37791176563735" fill="#888" r="1.25" stroke="#444" stroke-width="0.1" /></g><g opacity="1.0" transform="rotate(-3.2, 96.5, 143.2)"><ellipse cx="96.47059573163932" cy="143.236009592007" fill="#D4C4A8" rx="5.0" ry="2.5" stroke="#8B7355" stroke-width="0.15" /><circle cx="98.97059573163932" cy="143.236009592007" fill="#888" r="1.25" stroke="#444" stroke-width="0.1" /><circle cx="93.97059573163932" cy="143.236009592007" fill="#888" r="1.25" stroke="#444" stroke-width="0.1" /></g><g opacity="1.0" transform="rotate(41.8, 101.7, 110.2)"><ellipse cx="101.65663699184998" cy="110.21165169538085" fill="#B8A8D4" rx="5.0" ry="2.5" stroke="#55438B" stroke-width="0.15" /><circle cx="104.15663699184998" cy="110.21165169538085" fill="#888" r="1.25" stroke="#444" stroke-width="0.1" /><circle cx="99.15663699184998" cy="110.21165169538085" fill="#888" r="1.25" stroke="#444" stroke-width="0.1" /></g><g opacity="1.0" transform="rotate(-3.2, 103.5, 144.1)"><ellipse cx="103.52723169308513" cy="144.13336315115373" fill="#D4C4A8" rx="5.0" ry="2.5" stroke="#8B7355" stroke-width="0.15" /><circle cx="106.02723169308513" cy="144.13336315115373" fill="#888" r="1.25" stroke="#444" stroke-width="0.1" /><circle cx="101.02723169308513" cy="144.13336315115373" fill="#888" r="1.25" stroke="#444" stroke-width="0.1" /></g><g opacity="1.0" transform="rotate(41.8, 108.8, 112.2)"><ellipse cx="108.7679268552215" cy="112.15185626889297" fill="#B8A8D4" rx="5.0" ry="2.45" stroke="#55438B" stroke-width="0.15" /><circle cx="111.2679268552215" cy="112.15185626889297" fill="#888" r="1.25" stroke="#444" stroke-width="0.1" /><circle cx="106.2679268552215" cy="112.15185626889297" fill="#888" r="1.25" stroke="#444" stroke-width="0.1" /></g><g opacity="1.0" transform="rotate(-3.2, 110.6, 145.0)"><ellipse cx="110.58251617639417" cy="145.0049231562963" fill="#D4C4A8" rx="5.0" ry="2.45" stroke="#8B7355" stroke-width="0.15" /><circle cx="113.08251617639417" cy="145.0049231562963" fill="#888" r="1.25" stroke="#444" stroke-width="0.1" /><circle cx="108.08251617639417" cy="145.0049231562963" fill="#888" r="1.25" stroke="#444" stroke-width="0.1" /></g><g opacity="1.0" transform="rotate(41.8, 115.2, 101.8)"><ellipse cx="115.23354685919402" cy="101.77196036707858" fill="#B8A8D4" rx="5.0" ry="2.5" stroke="#55438B" stroke-width="0.15" /><circle cx="117.73354685919402" cy="101.77196036707858" fill="#888" r="1.25" stroke="#444" stroke-width="0.1" /><circle cx="112.73354685919402" cy="101.77196036707858" fill="#888" r="1.25" stroke="#444" stroke-width="0.1" /></g><g opacity="1.0" transform="rotate(-3.2, 117.0, 134.1)"><ellipse cx="117.02013348157107" cy="134.09070486862936" fill="#D4C4A8" rx="5.0" ry="2.5" stroke="#8B7355" stroke-width="0.15" /><circle cx="119.52013348157107" cy="134.09070486862936" fill="#888" r="1.25" stroke="#444" stroke-width="0.1" /><circle cx="114.52013348157107" cy="134.09070486862936" fill="#888" r="1.25" stroke="#444" stroke-width="0.1" /></g><g opacity="1.0" transform="rotate(41.8, 122.0, 96.2)"><ellipse cx="121.95159056472929" cy="96.20858105802085" fill="#B8A8D4" rx="5.0" ry="2.5" stroke="#55438B" stroke-width="0.15" /><circle cx="124.45159056472929" cy="96.20858105802085" fill="#888" r="1.25" stroke="#444" stroke-width="0.1" /><circle cx="119.45159056472929" cy="96.20858105802085" fill="#888" r="1.25" stroke="#444" stroke-width="0.1" /></g><g opacity="1.0" transform="rotate(-3.2, 123.7, 127.6)"><ellipse cx="123.68924176250897" cy="127.59358378863851" fill="#D4C4A8" rx="5.0" ry="2.5" stroke="#8B7355" stroke-width="0.15" /><circle cx="126.18924176250897" cy="127.59358378863851" fill="#888" r="1.25" stroke="#444" stroke-width="0.1" /><circle cx="121.18924176250897" cy="127.59358378863851" fill="#888" r="1.25" stroke="#444" stroke-width="0.1" /></g><g opacity="1.0" transform="rotate(41.8, 129.5, 107.1)"><ellipse cx="129.53123246450917" cy="107.0854285551452" fill="#B8A8D4" rx="5.0" ry="2.5" stroke="#55438B" stroke-width="0.15" /><circle cx="132.03123246450917" cy="107.0854285551452" fill="#888" r="1.25" stroke="#444" stroke-width="0.1" /><circle cx="127.03123246450917" cy="107.0854285551452" fill="#888" r="1.25" stroke="#444" stroke-width="0.1" /></g><g opacity="1.0" transform="rotate(-3.2, 131.2, 136.5)"><ellipse cx="131.16394274800126" cy="136.46804369863628" fill="#D4C4A8" rx="5.0" ry="2.5" stroke="#8B7355" stroke-width="0.15" /><circle cx="133.66394274800126" cy="136.46804369863628" fill="#888" r="1.25" stroke="#444" stroke-width="0.1" /><circle cx="128.66394274800126" cy="136.46804369863628" fill="#888" r="1.25" stroke="#444" stroke-width="0.1" /></g><g opacity="1.0" transform="rotate(41.8, 136.5, 105.5)"><ellipse cx="136.4571934349788" cy="105.48931052054263" fill="#B8A8D4" rx="5.0" ry="2.5" stroke="#55438B" stroke-width="0.15" /><circle cx="138.9571934349788" cy="105.48931052054263" fill="#888" r="1.25" stroke="#444" stroke-width="0.1" /><circle cx="133.9571934349788" cy="105.48931052054263" fill="#888" r="1.25" stroke="#444" stroke-width="0.1" /></g><g opacity="1.0" transform="rotate(-3.2, 138.0, 133.4)"><ellipse cx="138.01282682772845" cy="133.40121477831815" fill="#D4C4A8" rx="5.0" ry="2.5" stroke="#8B7355" stroke-width="0.15" /><circle cx="140.51282682772845" cy="133.40121477831815" fill="#888" r="1.25" stroke="#444" stroke-width="0.1" /><circle cx="135.51282682772845" cy="133.40121477831815" fill="#888" r="1.25" stroke="#444" stroke-width="0.1" /></g><g opacity="1.0" transform="rotate(41.9, 144.0, 105.7)"><ellipse cx="143.95197812237566" cy="105.73001437733376" fill="#B8A8D4" rx="5.0" ry="2.45" stroke="#55438B" stroke-width="0.15" /><circle cx="146.95197812237566" cy="105.73001437733376" fill="#888" r="1.0" stroke="#444" stroke-width="0.1" /><circle cx="140.95197812237566" cy="105.73001437733376" fill="#888" r="1.0" stroke="#444" stroke-width="0.1" /></g><g opacity="1.0" transform="rotate(-3.1, 145.4, 131.9)"><ellipse cx="145.3902259478031" cy="131.90815664940055" fill="#D4C4A8" rx="5.0" ry="2.45" stroke="#8B7355" stroke-width="0.15" /><circle cx="148.3902259478031" cy="131.90815664940055" fill="#888" r="1.0" stroke="#444" stroke-width="0.1" /><circle cx="142.3902259478031" cy="131.90815664940055" fill="#888" r="1.0" stroke="#444" stroke-width="0.1" /></g><g opacity="1.0" transform="rotate(41.8, 150.9, 104.2)"><ellipse cx="150.88108232615218" cy="104.19389819602566" fill="#B8A8D4" rx="5.0" ry="2.45" stroke="#55438B" stroke-width="0.15" /><circle cx="153.88108232615218" cy="104.19389819602566" fill="#888" r="1.0" stroke="#444" stroke-width="0.1" /><circle cx="147.88108232615218" cy="104.19389819602566" fill="#888" r="1.0" stroke="#444" stroke-width="0.1" /></g><g opacity="1.0" transform="rotate(-3.2, 152.2, 128.6)"><ellipse cx="152.2282521583319" cy="128.6341712067242" fill="#D4C4A8" rx="5.0" ry="2.45" stroke="#8B7355" stroke-width="0.15" /><circle cx="155.2282521583319" cy="128.6341712067242" fill="#888" r="1.0" stroke="#444" stroke-width="0.1" /><circle cx="149.2282521583319" cy="128.6341712067242" fill="#888" r="1.0" stroke="#444" stroke-width="0.1" /></g><g opacity="1.0" transform="rotate(41.8, 157.7, 99.7)"><ellipse cx="157.65539652084544" cy="99.70420710520477" fill="#B8A8D4" rx="5.0" ry="2.35" stroke="#55438B" stroke-width="0.15" /><circle cx="160.65539652084544" cy="99.70420710520477" fill="#888" r="1.0" stroke="#444" stroke-width="0.1" /><circle cx="154.65539652084544" cy="99.70420710520477" fill="#888" r="1.0" stroke="#444" stroke-width="0.1" /></g><g opacity="1.0" transform="rotate(-3.2, 158.9, 122.5)"><ellipse cx="158.91855827297906" cy="122.54151314835235" fill="#D4C4A8" rx="5.0" ry="2.35" stroke="#8B7355" stroke-width="0.15" /><circle cx="161.91855827297906" cy="122.54151314835235" fill="#888" r="1.0" stroke="#444" stroke-width="0.1" /><circle cx="155.91855827297906" cy="122.54151314835235" fill="#888" r="1.0" stroke="#444" stroke-width="0.1" /></g><g opacity="1.0" transform="rotate(41.8, 164.7, 100.3)"><ellipse cx="164.6948990847189" cy="100.27458906659217" fill="#B8A8D4" rx="5.0" ry="2.3" stroke="#55438B" stroke-width="0.15" /><circle cx="167.6948990847189" cy="100.27458906659217" fill="#888" r="1.0" stroke="#444" stroke-width="0.1" /><circle cx="161.6948990847189" cy="100.27458906659217" fill="#888" r="1.0" stroke="#444" stroke-width="0.1" /></g><g opacity="1.0" transform="rotate(-3.2, 165.9, 121.2)"><ellipse cx="165.86005130410734" cy="121.24176577044841" fill="#D4C4A8" rx="5.0" ry="2.3" stroke="#8B7355" stroke-width="0.15" /><circle cx="168.86005130410734" cy="121.24176577044841" fill="#888" r="1.0" stroke="#444" stroke-width="0.1" /><circle cx="162.86005130410734" cy="121.24176577044841" fill="#888" r="1.0" stroke="#444" stroke-width="0.1" /></g><g opacity="1.0" transform="rotate(41.8, 171.5, 97.2)"><ellipse cx="171.5452082883836" cy="97.23493978914746" fill="#B8A8D4" rx="5.0" ry="2.25" stroke="#55438B" stroke-width="0.15" /><circle cx="174.5452082883836" cy="97.23493978914746" fill="#888" r="1.0" stroke="#444" stroke-width="0.1" /><circle cx="168.5452082883836" cy="97.23493978914746" fill="#888" r="1.0" stroke="#444" stroke-width="0.1" /></g><g opacity="1.0" transform="rotate(-3.2, 172.6, 116.6)"><ellipse cx="172.62635221843266" cy="116.59914717864854" fill="#D4C4A8" rx="5.0" ry="2.25" stroke="#8B7355" stroke-width="0.15" /><circle cx="175.62635221843266" cy="116.59914717864854" fill="#888" r="1.0" stroke="#444" stroke-width="0.1" /><circle cx="169.62635221843266" cy="116.59914717864854" fill="#888" r="1.0" stroke="#444" stroke-width="0.1" /></g><g opacity="1.0" transform="rotate(41.8, 178.6, 98.8)"><ellipse cx="178.63431496757792" cy="98.75178652584202" fill="#B8A8D4" rx="5.0" ry="2.25" stroke="#55438B" stroke-width="0.15" /><circle cx="181.63431496757792" cy="98.75178652584202" fill="#888" r="1.0" stroke="#444" stroke-width="0.1" /><circle cx="175.63431496757792" cy="98.75178652584202" fill="#888" r="1.0" stroke="#444" stroke-width="0.1" /></g><g opacity="1.0" transform="rotate(-3.2, 179.6, 116.4)"><ellipse cx="179.62451906563635" cy="116.3807646425314" fill="#D4C4A8" rx="5.0" ry="2.25" stroke="#8B7355" stroke-width="0.15" /><circle cx="182.62451906563635" cy="116.3807646425314" fill="#888" r="1.0" stroke="#444" stroke-width="0.1" /><circle cx="176.62451906563635" cy="116.3807646425314" fill="#888" r="1.0" stroke="#444" stroke-width="0.1" /></g><g opacity="1.0" transform="rotate(41.8, 185.4, 93.7)"><ellipse cx="185.3789461007402" cy="93.69566050899095" fill="#B8A8D4" rx="5.0" ry="1.9" stroke="#55438B" stroke-width="0.15" /><circle cx="188.3789461007402" cy="93.69566050899095" fill="#888" r="1.0" stroke="#444" stroke-width="0.1" /><circle cx="182.3789461007402" cy="93.69566050899095" fill="#888" r="1.0" stroke="#444" stroke-width="0.1" /></g><g opacity="1.0" transform="rotate(-3.2, 186.3, 110.1)"><ellipse cx="186.3060744192294" cy="110.12108645960893" fill="#D4C4A8" rx="5.0" ry="1.9" stroke="#8B7355" stroke-width="0.15" /><circle cx="189.3060744192294" cy="110.12108645960893" fill="#888" r="1.0" stroke="#444" stroke-width="0.1" /><circle cx="183.3060744192294" cy="110.12108645960893" fill="#888" r="1.0" stroke="#444" stroke-width="0.1" /></g><g opacity="1.0" transform="rotate(41.7, 192.4, 93.8)"><ellipse cx="192.39381996571137" cy="93.79603429577696" fill="#B8A8D4" rx="5.0" ry="1.85" stroke="#55438B" stroke-width="0.15" /><circle cx="195.39381996571137" cy="93.79603429577696" fill="#888" r="1.0" stroke="#444" stroke-width="0.1" /><circle cx="189.39381996571137" cy="93.79603429577696" fill="#888" r="1.0" stroke="#444" stroke-width="0.1" /></g><g opacity="1.0" transform="rotate(-3.3, 193.3, 108.9)"><ellipse cx="193.25094092893843" cy="108.88564790917883" fill="#D4C4A8" rx="5.0" ry="1.85" stroke="#8B7355" stroke-width="0.15" /><circle cx="196.25094092893843" cy="108.88564790917883" fill="#888" r="1.0" stroke="#444" stroke-width="0.1" /><circle cx="190.25094092893843" cy="108.88564790917883" fill="#888" r="1.0" stroke="#444" stroke-width="0.1" /></g><g opacity="1.0" transform="rotate(41.7, 199.4, 93.8)"><ellipse cx="199.40326717867367" cy="93.79284031780298" fill="#B8A8D4" rx="5.0" ry="1.9" stroke="#55438B" stroke-width="0.15" /><circle cx="202.40326717867367" cy="93.79284031780298" fill="#888" r="1.0" stroke="#444" stroke-width="0.1" /><circle cx="196.40326717867367" cy="93.79284031780298" fill="#888" r="1.0" stroke="#444" stroke-width="0.1" /></g><g opacity="1.0" transform="rotate(-3.3, 200.2, 107.7)"><ellipse cx="200.19745063326855" cy="107.6815434868023" fill="#D4C4A8" rx="5.0" ry="1.9" stroke="#8B7355" stroke-width="0.15" /><circle cx="203.19745063326855" cy="107.6815434868023" fill="#888" r="1.0" stroke="#444" stroke-width="0.1" /><circle cx="197.19745063326855" cy="107.6815434868023" fill="#888" r="1.0" stroke="#444" stroke-width="0.1" /></g><g opacity="1.0" transform="rotate(41.7, 206.4, 93.6)"><ellipse cx="206.4018963693352" cy="93.58320492130088" fill="#B8A8D4" rx="5.0" ry="1.85" stroke="#55438B" stroke-width="0.15" /><circle cx="209.4018963693352" cy="93.58320492130088" fill="#888" r="1.0" stroke="#444" stroke-width="0.1" /><circle cx="203.4018963693352" cy="93.58320492130088" fill="#888" r="1.0" stroke="#444" stroke-width="0.1" /></g><g opacity="1.0" transform="rotate(-3.3, 207.1, 106.4)"><ellipse cx="207.14007354289606" cy="106.4032545401376" fill="#D4C4A8" rx="5.0" ry="1.85" stroke="#8B7355" stroke-width="0.15" /><circle cx="210.14007354289606" cy="106.4032545401376" fill="#888" r="1.0" stroke="#444" stroke-width="0.1" /><circle cx="204.14007354289606" cy="106.4032545401376" fill="#888" r="1.0" stroke="#444" stroke-width="0.1" /></g><g opacity="1.0" transform="rotate(41.7, 213.4, 92.8)"><ellipse cx="213.36874404660435" cy="92.76712316175758" fill="#B8A8D4" rx="5.0" ry="1.85" stroke="#55438B" stroke-width="0.15" /><circle cx="216.36874404660435" cy="92.76712316175758" fill="#888" r="1.0" stroke="#444" stroke-width="0.1" /><circle cx="210.36874404660435" cy="92.76712316175758" fill="#888" r="1.0" stroke="#444" stroke-width="0.1" /></g><g opacity="1.0" transform="rotate(-3.3, 214.1, 104.7)"><ellipse cx="214.05784618802224" cy="104.65077640218624" fill="#D4C4A8" rx="5.0" ry="1.85" stroke="#8B7355" stroke-width="0.15" /><circle cx="217.05784618802224" cy="104.65077640218624" fill="#888" r="1.0" stroke="#444" stroke-width="0.1" /><circle cx="211.05784618802224" cy="104.65077640218624" fill="#888" r="1.0" stroke="#444" stroke-width="0.1" /></g><g opacity="1.0" transform="rotate(41.7, 220.4, 93.4)"><ellipse cx="220.41173826401612" cy="93.40395225897487" fill="#B8A8D4" rx="5.0" ry="1.85" stroke="#55438B" stroke-width="0.15" /><circle cx="223.41173826401612" cy="93.40395225897487" fill="#888" r="1.0" stroke="#444" stroke-width="0.1" /><circle cx="217.41173826401612" cy="93.40395225897487" fill="#888" r="1.0" stroke="#444" stroke-width="0.1" /></g><g opacity="1.0" transform="rotate(-3.3, 221.1, 104.4)"><ellipse cx="221.05190373033827" cy="104.3538520315251" fill="#D4C4A8" rx="5.0" ry="1.85" stroke="#8B7355" stroke-width="0.15" /><circle cx="224.05190373033827" cy="104.3538520315251" fill="#888" r="1.0" stroke="#444" stroke-width="0.1" /><circle cx="218.05190373033827" cy="104.3538520315251" fill="#888" r="1.0" stroke="#444" stroke-width="0.1" /></g><g opacity="1.0" transform="rotate(41.6, 227.4, 92.9)"><ellipse cx="227.39674700010684" cy="92.93433077999407" fill="#B8A8D4" rx="5.0" ry="1.8" stroke="#55438B" stroke-width="0.15" /><circle cx="230.39674700010684" cy="92.93433077999407" fill="#888" r="1.0" stroke="#444" stroke-width="0.1" /><circle cx="224.39674700010684" cy="92.93433077999407" fill="#888" r="1.0" stroke="#444" stroke-width="0.1" /></g><g opacity="1.0" transform="rotate(-3.4, 228.0, 103.1)"><ellipse cx="227.99490704461826" cy="103.0827344928864" fill="#D4C4A8" rx="5.0" ry="1.8" stroke="#8B7355" stroke-width="0.15" /><circle cx="230.99490704461826" cy="103.0827344928864" fill="#888" r="1.0" stroke="#444" stroke-width="0.1" /><circle cx="224.99490704461826" cy="103.0827344928864" fill="#888" r="1.0" stroke="#444" stroke-width="0.1" /></g><g opacity="1.0" transform="rotate(41.6, 234.4, 93.5)"><ellipse cx="234.43679020172257" cy="93.51475719094401" fill="#B8A8D4" rx="4.694722634776184" ry="1.8" stroke="#55438B" stroke-width="0.15" /><circle cx="237.13151283649876" cy="93.51475719094401" fill="#888" r="1.0" stroke="#444" stroke-width="0.1" /><circle cx="231.7420675669464" cy="93.51475719094401" fill="#888" r="1.0" stroke="#444" stroke-width="0.1" /></g><g opacity="1.0" transform="rotate(-3.4, 235.0, 102.9)"><ellipse cx="234.9929444709842" cy="102.86166215632329" fill="#D4C4A8" rx="4.694722634776184" ry="1.8" stroke="#8B7355" stroke-width="0.15" /><circle cx="237.6876671057604" cy="102.86166215632329" fill="#888" r="1.0" stroke="#444" stroke-width="0.1" /><circle cx="232.29822183620803" cy="102.86166215632329" fill="#888" r="1.0" stroke="#444" stroke-width="0.1" /></g><g opacity="1.0" transform="rotate(41.7, 241.6, 92.7)"><ellipse cx="241.63861881460792" cy="92.67476280896676" fill="#B8A8D4" rx="4.450577844638616" ry="1.8" stroke="#55438B" stroke-width="0.15" /><circle cx="244.58919665924654" cy="92.67476280896676" fill="#888" r="0.75" stroke="#444" stroke-width="0.1" /><circle cx="238.6880409699693" cy="92.67476280896676" fill="#888" r="0.75" stroke="#444" stroke-width="0.1" /></g><g opacity="1.0" transform="rotate(-3.3, 242.1, 101.4)"><ellipse cx="242.1464813427156" cy="101.35321052306972" fill="#D4C4A8" rx="4.450577844638616" ry="1.8" stroke="#8B7355" stroke-width="0.15" /><circle cx="245.0970591873542" cy="101.35321052306972" fill="#888" r="0.75" stroke="#444" stroke-width="0.1" /><circle cx="239.19590349807697" cy="101.35321052306972" fill="#888" r="0.75" stroke="#444" stroke-width="0.1" /></g><g opacity="1.0" transform="rotate(41.6, 248.7, 92.8)"><ellipse cx="248.6522599956322" cy="92.75151857042567" fill="#B8A8D4" rx="4.2115727065930315" ry="1.75" stroke="#55438B" stroke-width="0.15" /><circle cx="251.36383270222524" cy="92.75151857042567" fill="#888" r="0.75" stroke="#444" stroke-width="0.1" /><circle cx="245.94068728903915" cy="92.75151857042567" fill="#888" r="0.75" stroke="#444" stroke-width="0.1" /></g><g opacity="1.0" transform="rotate(-3.4, 249.1, 100.8)"><ellipse cx="249.12518728304522" cy="100.76337520430502" fill="#D4C4A8" rx="4.2115727065930315" ry="1.75" stroke="#8B7355" stroke-width="0.15" /><circle cx="251.83675998963827" cy="100.76337520430502" fill="#888" r="0.75" stroke="#444" stroke-width="0.1" /><circle cx="246.41361457645218" cy="100.76337520430502" fill="#888" r="0.75" stroke="#444" stroke-width="0.1" /></g><g opacity="1.0" transform="rotate(41.6, 255.7, 93.7)"><ellipse cx="255.71292356785665" cy="93.72544769875822" fill="#B8A8D4" rx="3.977422054490276" ry="1.75" stroke="#55438B" stroke-width="0.15" /><circle cx="258.1903456223469" cy="93.72544769875822" fill="#888" r="0.75" stroke="#444" stroke-width="0.1" /><circle cx="253.2355015133664" cy="93.72544769875822" fill="#888" r="0.75" stroke="#444" stroke-width="0.1" /></g><g opacity="1.0" transform="rotate(-3.4, 256.2, 101.1)"><ellipse cx="256.15077665978765" cy="101.06806561477515" fill="#D4C4A8" rx="3.977422054490276" ry="1.75" stroke="#8B7355" stroke-width="0.15" /><circle cx="258.6281987142779" cy="101.06806561477515" fill="#888" r="0.75" stroke="#444" stroke-width="0.1" /><circle cx="253.6733546052974" cy="101.06806561477515" fill="#888" r="0.75" stroke="#444" stroke-width="0.1" /></g><g opacity="1.0" transform="rotate(41.6, 262.6, 90.7)"><ellipse cx="262.5635719822168" cy="90.69212692874066" fill="#B8A8D4" rx="3.8839759245678636" ry="1.75" stroke="#55438B" stroke-width="0.15" /><circle cx="264.9475479067846" cy="90.69212692874066" fill="#888" r="0.75" stroke="#444" stroke-width="0.1" /><circle cx="260.17959605764895" cy="90.69212692874066" fill="#888" r="0.75" stroke="#444" stroke-width="0.1" /></g><g opacity="1.0" transform="rotate(-3.4, 263.0, 97.6)"><ellipse cx="262.9804912618547" cy="97.63531633155094" fill="#D4C4A8" rx="3.8839759245678636" ry="1.75" stroke="#8B7355" stroke-width="0.15" /><circle cx="265.36446718642253" cy="97.63531633155094" fill="#888" r="0.75" stroke="#444" stroke-width="0.1" /><circle cx="260.59651533728686" cy="97.63531633155094" fill="#888" r="0.75" stroke="#444" stroke-width="0.1" /></g><g opacity="1.0" transform="rotate(41.5, 269.7, 93.2)"><ellipse cx="269.705481717728" cy="93.21615474091072" fill="#B8A8D4" rx="3.6634332967151266" ry="1.8" stroke="#55438B" stroke-width="0.15" /><circle cx="271.86891501444313" cy="93.21615474091072" fill="#888" r="0.75" stroke="#444" stroke-width="0.1" /><circle cx="267.54204842101285" cy="93.21615474091072" fill="#888" r="0.75" stroke="#444" stroke-width="0.1" /></g><g opacity="1.0" transform="rotate(-3.5, 270.1, 99.5)"><ellipse cx="270.0873260102088" cy="99.49009988716034" fill="#D4C4A8" rx="3.6634332967151266" ry="1.8" stroke="#8B7355" stroke-width="0.15" /><circle cx="272.25075930692395" cy="99.49009988716034" fill="#888" r="0.75" stroke="#444" stroke-width="0.1" /><circle cx="267.9238927134937" cy="99.49009988716034" fill="#888" r="0.75" stroke="#444" stroke-width="0.1" /></g><g opacity="1.0" transform="rotate(41.5, 276.6, 91.7)"><ellipse cx="276.6347529599203" cy="91.6829082372841" fill="#B8A8D4" rx="3.5835852874659366" ry="1.75" stroke="#55438B" stroke-width="0.15" /><circle cx="278.71833824738627" cy="91.6829082372841" fill="#888" r="0.75" stroke="#444" stroke-width="0.1" /><circle cx="274.55116767245437" cy="91.6829082372841" fill="#888" r="0.75" stroke="#444" stroke-width="0.1" /></g><g opacity="1.0" transform="rotate(-3.5, 277.0, 97.6)"><ellipse cx="276.9956628138066" cy="97.55742070207475" fill="#D4C4A8" rx="3.5835852874659366" ry="1.75" stroke="#8B7355" stroke-width="0.15" /><circle cx="279.0792481012725" cy="97.55742070207475" fill="#888" r="0.75" stroke="#444" stroke-width="0.1" /><circle cx="274.9120775263406" cy="97.55742070207475" fill="#888" r="0.75" stroke="#444" stroke-width="0.1" /></g><g opacity="1.0" transform="rotate(41.4, 283.6, 90.8)"><ellipse cx="283.5979454043611" cy="90.79683202616184" fill="#B8A8D4" rx="3.5098883812672597" ry="1.75" stroke="#55438B" stroke-width="0.15" /><circle cx="285.6078337856284" cy="90.79683202616184" fill="#888" r="0.75" stroke="#444" stroke-width="0.1" /><circle cx="281.5880570230938" cy="90.79683202616184" fill="#888" r="0.75" stroke="#444" stroke-width="0.1" /></g><g opacity="1.0" transform="rotate(-3.6, 283.9, 96.3)"><ellipse cx="283.93778182244193" cy="96.26926434440588" fill="#D4C4A8" rx="3.5098883812672597" ry="1.75" stroke="#8B7355" stroke-width="0.15" /><circle cx="285.9476702037092" cy="96.26926434440588" fill="#888" r="0.75" stroke="#444" stroke-width="0.1" /><circle cx="281.92789344117466" cy="96.26926434440588" fill="#888" r="0.75" stroke="#444" stroke-width="0.1" /></g><g opacity="1.0" transform="rotate(41.4, 290.6, 90.5)"><ellipse cx="290.5927409527855" cy="90.51367319588496" fill="#B8A8D4" rx="3.44225760614772" ry="1.75" stroke="#55438B" stroke-width="0.15" /><circle cx="292.53499855893324" cy="90.51367319588496" fill="#888" r="0.75" stroke="#444" stroke-width="0.1" /><circle cx="288.65048334663777" cy="90.51367319588496" fill="#888" r="0.75" stroke="#444" stroke-width="0.1" /></g><g opacity="1.0" transform="rotate(-3.6, 290.9, 95.6)"><ellipse cx="290.9116421138399" cy="95.58666791194298" fill="#D4C4A8" rx="3.44225760614772" ry="1.75" stroke="#8B7355" stroke-width="0.15" /><circle cx="292.8538997199876" cy="95.58666791194298" fill="#888" r="0.75" stroke="#444" stroke-width="0.1" /><circle cx="288.96938450769215" cy="95.58666791194298" fill="#888" r="0.75" stroke="#444" stroke-width="0.1" /></g><g opacity="1.0" transform="rotate(41.4, 297.6, 90.8)"><ellipse cx="297.61622163015636" cy="90.77770705233206" fill="#B8A8D4" rx="3.378698471128672" ry="1.75" stroke="#55438B" stroke-width="0.15" /><circle cx="299.49492010128506" cy="90.77770705233206" fill="#888" r="0.75" stroke="#444" stroke-width="0.1" /><circle cx="295.73752315902766" cy="90.77770705233206" fill="#888" r="0.75" stroke="#444" stroke-width="0.1" /></g><g opacity="1.0" transform="rotate(-3.6, 297.9, 95.4)"><ellipse cx="297.91404827292297" cy="95.44861544422542" fill="#D4C4A8" rx="3.378698471128672" ry="1.75" stroke="#8B7355" stroke-width="0.15" /><circle cx="299.79274674405167" cy="95.44861544422542" fill="#888" r="0.75" stroke="#444" stroke-width="0.1" /><circle cx="296.03534980179427" cy="95.44861544422542" fill="#888" r="0.75" stroke="#444" stroke-width="0.1" /></g><g opacity="1.0" transform="rotate(41.3, 304.7, 91.5)"><ellipse cx="304.6634507253983" cy="91.49468701751698" fill="#B8A8D4" rx="3.3187723405830525" ry="1.7" stroke="#55438B" stroke-width="0.15" /><circle cx="306.4822230659814" cy="91.49468701751698" fill="#888" r="0.75" stroke="#444" stroke-width="0.1" /><circle cx="302.84467838481527" cy="91.49468701751698" fill="#888" r="0.75" stroke="#444" stroke-width="0.1" /></g><g opacity="1.0" transform="rotate(-3.7, 304.9, 95.8)"><ellipse cx="304.9403406649179" cy="95.76615001723371" fill="#D4C4A8" rx="3.3187723405830525" ry="1.7" stroke="#8B7355" stroke-width="0.15" /><circle cx="306.759113005501" cy="95.76615001723371" fill="#888" r="0.75" stroke="#444" stroke-width="0.1" /><circle cx="303.1215683243349" cy="95.76615001723371" fill="#888" r="0.75" stroke="#444" stroke-width="0.1" /></g><g opacity="1.0" transform="rotate(41.2, 311.7, 92.7)"><ellipse cx="311.73413427016425" cy="92.65890197060105" fill="#B8A8D4" rx="3.2608850856080664" ry="1.65" stroke="#55438B" stroke-width="0.15" /><circle cx="313.49501935577234" cy="92.65890197060105" fill="#888" r="0.75" stroke="#444" stroke-width="0.1" /><circle cx="309.97324918455615" cy="92.65890197060105" fill="#888" r="0.75" stroke="#444" stroke-width="0.1" /></g><g opacity="1.0" transform="rotate(-3.8, 312.0, 96.5)"><ellipse cx="311.9899476783898" cy="96.52826848197981" fill="#D4C4A8" rx="3.2608850856080664" ry="1.65" stroke="#8B7355" stroke-width="0.15" /><circle cx="313.7508327639979" cy="96.52826848197981" fill="#888" r="0.75" stroke="#444" stroke-width="0.1" /><circle cx="310.2290625927817" cy="96.52826848197981" fill="#888" r="0.75" stroke="#444" stroke-width="0.1" /></g><g opacity="1.0" transform="rotate(41.1, 318.8, 94.2)"><ellipse cx="318.8233405095122" cy="94.17612097199947" fill="#B8A8D4" rx="3.2049766626683933" ry="1.65" stroke="#55438B" stroke-width="0.15" /><circle cx="320.5283171721806" cy="94.17612097199947" fill="#888" r="0.75" stroke="#444" stroke-width="0.1" /><circle cx="317.1183638468438" cy="94.17612097199947" fill="#888" r="0.75" stroke="#444" stroke-width="0.1" /></g><g opacity="1.0" transform="rotate(-3.9, 319.1, 97.6)"><ellipse cx="319.0582143565326" cy="97.64602867512986" fill="#D4C4A8" rx="3.2049766626683933" ry="1.65" stroke="#8B7355" stroke-width="0.15" /><circle cx="320.763191019201" cy="97.64602867512986" fill="#888" r="0.75" stroke="#444" stroke-width="0.1" /><circle cx="317.3532376938642" cy="97.64602867512986" fill="#888" r="0.75" stroke="#444" stroke-width="0.1" /></g><g opacity="1.0" transform="rotate(41.1, 325.8, 93.6)"><ellipse cx="325.80475557768466" cy="93.63674640598845" fill="#B8A8D4" rx="3.2158589266882984" ry="1.6" stroke="#55438B" stroke-width="0.15" /><circle cx="327.52061450437293" cy="93.63674640598845" fill="#888" r="0.75" stroke="#444" stroke-width="0.1" /><circle cx="324.0888966509964" cy="93.63674640598845" fill="#888" r="0.75" stroke="#444" stroke-width="0.1" /></g><g opacity="1.0" transform="rotate(-3.9, 326.0, 96.8)"><ellipse cx="326.02562214385887" cy="96.83946073457116" fill="#D4C4A8" rx="3.2158589266882984" ry="1.6" stroke="#8B7355" stroke-width="0.15" /><circle cx="327.74148107054714" cy="96.83946073457116" fill="#888" r="0.75" stroke="#444" stroke-width="0.1" /><circle cx="324.3097632171706" cy="96.83946073457116" fill="#888" r="0.75" stroke="#444" stroke-width="0.1" /></g><g opacity="1.0" transform="rotate(41.0, 332.8, 93.3)"><ellipse cx="332.79929985519027" cy="93.34747880602436" fill="#B8A8D4" rx="3.226014007921499" ry="1.65" stroke="#55438B" stroke-width="0.15" /><circle cx="334.52531386311176" cy="93.34747880602436" fill="#888" r="0.75" stroke="#444" stroke-width="0.1" /><circle cx="331.0732858472688" cy="93.34747880602436" fill="#888" r="0.75" stroke="#444" stroke-width="0.1" /></g><g opacity="1.0" transform="rotate(-4.0, 333.0, 96.3)"><ellipse cx="333.0061576102788" cy="96.28299375651648" fill="#D4C4A8" rx="3.226014007921499" ry="1.65" stroke="#8B7355" stroke-width="0.15" /><circle cx="334.7321716182003" cy="96.28299375651648" fill="#888" r="0.75" stroke="#444" stroke-width="0.1" /><circle cx="331.2801436023573" cy="96.28299375651648" fill="#888" r="0.75" stroke="#444" stroke-width="0.1" /></g><g opacity="1.0" transform="rotate(40.9, 339.8, 93.3)"><ellipse cx="339.8043636926515" cy="93.25834995947741" fill="#B8A8D4" rx="3.2335127356116686" ry="1.6" stroke="#55438B" stroke-width="0.15" /><circle cx="341.5378764282632" cy="93.25834995947741" fill="#888" r="0.75" stroke="#444" stroke-width="0.1" /><circle cx="338.07085095703985" cy="93.25834995947741" fill="#888" r="0.75" stroke="#444" stroke-width="0.1" /></g><g opacity="1.0" transform="rotate(-4.1, 340.0, 95.9)"><ellipse cx="339.9972105036482" cy="95.92665774424813" fill="#D4C4A8" rx="3.2335127356116686" ry="1.6" stroke="#8B7355" stroke-width="0.15" /><circle cx="341.7307232392599" cy="95.92665774424813" fill="#888" r="0.75" stroke="#444" stroke-width="0.1" /><circle cx="338.26369776803654" cy="95.92665774424813" fill="#888" r="0.75" stroke="#444" stroke-width="0.1" /></g><g opacity="1.0" transform="rotate(40.7, 346.8, 93.4)"><ellipse cx="346.81996386064543" cy="93.36940560637993" fill="#B8A8D4" rx="3.2379794181173764" ry="1.6" stroke="#55438B" stroke-width="0.15" /><circle cx="348.5579432787628" cy="93.36940560637993" fill="#888" r="0.75" stroke="#444" stroke-width="0.1" /><circle cx="345.08198444252804" cy="93.36940560637993" fill="#888" r="0.75" stroke="#444" stroke-width="0.1" /></g><g opacity="1.0" transform="rotate(-4.3, 347.0, 95.8)"><ellipse cx="346.998796653284" cy="95.77049587060753" fill="#D4C4A8" rx="3.2379794181173764" ry="1.6" stroke="#8B7355" stroke-width="0.15" /><circle cx="348.7367760714014" cy="95.77049587060753" fill="#888" r="0.75" stroke="#444" stroke-width="0.1" /><circle cx="345.2608172351666" cy="95.77049587060753" fill="#888" r="0.75" stroke="#444" stroke-width="0.1" /></g><g opacity="1.0" transform="rotate(40.6, 353.8, 93.5)"><ellipse cx="353.83826664144533" cy="93.53071401663806" fill="#B8A8D4" rx="3.2372258121883206" ry="1.6" stroke="#55438B" stroke-width="0.15" /><circle cx="355.5754924536337" cy="93.53071401663806" fill="#888" r="0.75" stroke="#444" stroke-width="0.1" /><circle cx="352.101040829257" cy="93.53071401663806" fill="#888" r="0.75" stroke="#444" stroke-width="0.1" /></g><g opacity="1.0" transform="rotate(-4.4, 354.0, 95.7)"><ellipse cx="354.00308080085597" cy="95.66457257380546" fill="#D4C4A8" rx="3.2372258121883206" ry="1.6" stroke="#8B7355" stroke-width="0.15" /><circle cx="355.7403066130443" cy="95.66457257380546" fill="#888" r="0.75" stroke="#444" stroke-width="0.1" /><circle cx="352.2658549886676" cy="95.66457257380546" fill="#888" r="0.75" stroke="#444" stroke-width="0.1" /></g><g opacity="1.0" transform="rotate(40.4, 360.9, 93.8)"><ellipse cx="360.8619400350507" cy="93.79238175666546" fill="#B8A8D4" rx="3.229955530346075" ry="1.6" stroke="#55438B" stroke-width="0.15" /><circle cx="362.5918955653967" cy="93.79238175666546" fill="#888" r="0.75" stroke="#444" stroke-width="0.1" /><circle cx="359.13198450470463" cy="93.79238175666546" fill="#888" r="0.75" stroke="#444" stroke-width="0.1" /></g><g opacity="1.0" transform="rotate(-4.6, 361.0, 95.7)"><ellipse cx="361.0127282741619" cy="95.65898843914238" fill="#D4C4A8" rx="3.229955530346075" ry="1.6" stroke="#8B7355" stroke-width="0.15" /><circle cx="362.7426838045079" cy="95.65898843914238" fill="#888" r="0.75" stroke="#444" stroke-width="0.1" /><circle cx="359.2827727438158" cy="95.65898843914238" fill="#888" r="0.75" stroke="#444" stroke-width="0.1" /></g><g opacity="1.0" transform="rotate(40.1, 367.9, 94.0)"><ellipse cx="367.8832117521557" cy="94.00458477741734" fill="#B8A8D4" rx="3.2154262188818308" ry="1.55" stroke="#55438B" stroke-width="0.15" /><circle cx="369.59863797103753" cy="94.00458477741734" fill="#888" r="0.75" stroke="#444" stroke-width="0.1" /><circle cx="366.1677855332739" cy="94.00458477741734" fill="#888" r="0.75" stroke="#444" stroke-width="0.1" /></g><g opacity="1.0" transform="rotate(-4.9, 368.0, 95.6)"><ellipse cx="368.01996179558" cy="95.60390954220532" fill="#D4C4A8" rx="3.2154262188818308" ry="1.55" stroke="#8B7355" stroke-width="0.15" /><circle cx="369.7353880144618" cy="95.60390954220532" fill="#888" r="0.75" stroke="#444" stroke-width="0.1" /><circle cx="366.3045355766982" cy="95.60390954220532" fill="#888" r="0.75" stroke="#444" stroke-width="0.1" /></g><line stroke="#FF0000" stroke-width="1.1555" x1="84.64187005621781" x2="41.88877878865546" y1="824.0" y2="108.5617423205756" /><path d="M 41.9,108.6 A 1.8,1.8 0 0,0 44.4,106.7" fill="none" stroke="#FF0000" stroke-width="1.1555" /><line stroke="#FF0000" stroke-width="1.1555" x1="44.35169200659892" x2="49.07023967346129" y1="106.74919556203508" y2="110.97809617569169" /><path d="M 49.1,111.0 A 1.8,1.8 0 0,0 45.6,112.1" fill="none" stroke="#FF0000" stroke-width="1.1555" /><line stroke="#FF0000" stroke-width="1.1555" x1="45.62969717300243" x2="42.675076691928254" y1="112.07004544425843" y2="67.70273964868375" /><path d="M 42.7,67.7 A 1.8,1.8 0 0,1 42.9,67.0" fill="none" stroke="#FF0000" stroke-width="1.1555" /><line stroke="#FF0000" stroke-width="1.1555" x1="42.925076691928254" x2="83.95" y1="66.95273964868375" y2="42.9819436225531" /><path d="M 84.0,43.0 A 1.5,1.5 0 0,1 84.1,42.5" fill="none" stroke="#FF0000" stroke-width="1.1555" /><circle cx="45.0" cy="67.58805890014798" fill="#888" opacity="1.0" r="1.75" stroke="#444" stroke-width="0.15" /><circle cx="85.0" cy="44.03194362255306" fill="#654321" r="1.5" stroke="#333" stroke-width="0.15" /><line stroke="#999999" stroke-width="1.054" x1="90.86273939999349" x2="48.78269218349289" y1="808.95" y2="105.38579063864961" /><path d="M 48.8,105.4 A 1.8,1.8 0 0,0 51.2,103.6" fill="none" stroke="#999999" stroke-width="1.054" /><line stroke="#999999" stroke-width="1.054" x1="51.19522755021934" x2="55.85944491499653" y1="103.63019917604254" y2="107.81007869154314" /><path d="M 55.9,107.8 A 1.8,1.8 0 0,0 52.5,108.9" fill="none" stroke="#999999" stroke-width="1.054" /><line stroke="#999999" stroke-width="1.054" x1="52.52304580629321" x2="49.60606926823348" y1="108.88766569270479" y2="65.23300822380088" /><path d="M 49.6,65.2 A 1.8,1.8 0 0,1 49.9,64.5" fill="none" stroke="#999999" stroke-width="1.054" /><line stroke="#999999" stroke-width="1.054" x1="49.85606926823348" x2="90.83030239243676" y1="64.48300822380088" y2="43.417113471656535" /><path d="M 90.8,43.4 A 1.5,1.5 0 0,1 91.0,42.9" fill="none" stroke="#999999" stroke-width="1.054" /><circle cx="51.88030239243677" cy="65.1207910380557" fill="#888" opacity="1.0" r="1.75" stroke="#444" stroke-width="0.15" /><circle cx="91.88030239243676" cy="44.46711347165649" fill="#654321" r="1.5" stroke="#333" stroke-width="0.15" /><line stroke="#999999" stroke-width="0.965" x1="97.14649807890882" x2="55.73572074182996" y1="795.1" y2="103.45729449982878" /><path d="M 55.7,103.5 A 1.7,1.7 0 0,0 58.1,101.8" fill="none" stroke="#999999" stroke-width="0.965" /><line stroke="#999999" stroke-width="0.965" x1="58.10310537126502" x2="62.720969033506755" y1="101.75144692215906" y2="105.88944820109225" /><path d="M 62.7,105.9 A 1.7,1.7 0 0,0 59.5,107.0" fill="none" stroke="#999999" stroke-width="0.965" /><line stroke="#999999" stroke-width="0.965" x1="59.47565553113316" x2="56.59632459583151" y1="106.9538724939514" y2="64.01349650041936" /><path d="M 56.6,64.0 A 1.8,1.8 0 0,1 56.8,63.3" fill="none" stroke="#999999" stroke-width="0.965" /><line stroke="#999999" stroke-width="0.965" x1="56.84632459583151" x2="97.77611091782533" y1="63.263496500419365" y2="43.85642649534236" /><path d="M 97.8,43.9 A 1.5,1.5 0 0,1 97.9,43.4" fill="none" stroke="#999999" stroke-width="0.965" /><circle cx="58.82611091782533" cy="63.90345465270104" fill="#888" opacity="1.0" r="1.75" stroke="#444" stroke-width="0.15" /><circle cx="98.82611091782533" cy="44.906426495342316" fill="#654321" r="1.5" stroke="#333" stroke-width="0.15" /><line stroke="#0000FF" stroke-width="0.9015" x1="103.46694220332228" x2="62.7102301081575" y1="781.95" y2="102.18233723967921" /><path d="M 62.7,102.2 A 1.7,1.7 0 0,0 65.0,100.5" fill="none" stroke="#0000FF" stroke-width="0.9015" /><line stroke="#0000FF" stroke-width="0.9015" x1="65.04483305368461" x2="69.6303962178448" y1="100.51183998726822" y2="104.62055128383759" /><path d="M 69.6,104.6 A 1.7,1.7 0 0,0 66.5,105.7" fill="none" stroke="#0000FF" stroke-width="0.9015" /><line stroke="#0000FF" stroke-width="0.9015" x1="66.45002225578573" x2="63.60791217067283" y1="105.67583623150676" y2="63.44464328611741" /><path d="M 63.6,63.4 A 1.8,1.8 0 0,1 63.9,62.7" fill="none" stroke="#0000FF" stroke-width="0.9015" /><line stroke="#0000FF" stroke-width="0.9015" x1="63.85791217067283" x2="104.75598809089988" y1="62.69464328611741" y2="44.297894315056965" /><path d="M 104.8,44.3 A 1.5,1.5 0 0,1 104.9,43.8" fill="none" stroke="#0000FF" stroke-width="0.9015" /><circle cx="65.80598809089989" cy="63.336186790608735" fill="#888" opacity="1.0" r="1.75" stroke="#444" stroke-width="0.15" /><circle cx="105.80598809089989" cy="45.34789431505692" fill="#654321" r="1.5" stroke="#333" stroke-width="0.15" /><line stroke="#999999" stroke-width="0.813" x1="109.80834943944895" x2="69.84413580476196" y1="769.2" y2="103.71034841394214" /><path d="M 69.8,103.7 A 1.7,1.7 0 0,0 72.1,102.1" fill="none" stroke="#999999" stroke-width="0.813" /><line stroke="#999999" stroke-width="0.813" x1="72.13231132489645" x2="76.67383058905499" y1="102.08897258283343" y2="106.15779191135687" /><path d="M 76.7,106.2 A 1.7,1.7 0 0,0 73.6,107.2" fill="none" stroke="#999999" stroke-width="0.813" /><line stroke="#999999" stroke-width="0.813" x1="73.58363372066066" x2="70.78640506247251" y1="107.19908196911501" y2="65.82169365711161" /><path d="M 70.8,65.8 A 1.8,1.8 0 0,1 71.0,65.1" fill="none" stroke="#999999" stroke-width="0.813" /><line stroke="#999999" stroke-width="0.813" x1="71.03640506247251" x2="111.89028506410716" y1="65.07169365711161" y2="44.74912897891454" /><path d="M 111.9,44.7 A 1.5,1.5 0 0,1 112.0,44.2" fill="none" stroke="#999999" stroke-width="0.813" /><circle cx="72.94028506410716" cy="65.71542424214044" fill="#888" opacity="1.0" r="1.75" stroke="#444" stroke-width="0.15" /><circle cx="112.94028506410716" cy="45.799128978914496" fill="#654321" r="1.5" stroke="#333" stroke-width="0.15" /><line stroke="#999999" stroke-width="0.724" x1="116.14713628661146" x2="76.97566700013735" y1="756.4" y2="105.18835046514937" /><path d="M 77.0,105.2 A 1.6,1.6 0 0,0 79.2,103.6" fill="none" stroke="#999999" stroke-width="0.724" /><line stroke="#999999" stroke-width="0.724" x1="79.21627757132067" x2="83.71468463855754" y1="103.61617082002454" y2="107.64592252510795" /><path d="M 83.7,107.6 A 1.6,1.6 0 0,0 80.7,108.7" fill="none" stroke="#999999" stroke-width="0.724" /><line stroke="#999999" stroke-width="0.724" x1="80.71487377725876" x2="77.96252729874429" y1="108.67227276481742" y2="68.14873246143338" /><path d="M 78.0,68.1 A 1.8,1.8 0 0,1 78.2,67.4" fill="none" stroke="#999999" stroke-width="0.724" /><line stroke="#999999" stroke-width="0.724" x1="78.21252729874429" x2="119.02196164835028" y1="67.39873246143338" y2="45.20019790670324" /><path d="M 119.0,45.2 A 1.5,1.5 0 0,1 119.2,44.7" fill="none" stroke="#999999" stroke-width="0.724" /><circle cx="80.07196164835028" cy="68.04466169367231" fill="#888" opacity="1.0" r="1.75" stroke="#444" stroke-width="0.15" /><circle cx="120.07196164835028" cy="46.25019790670319" fill="#654321" r="1.5" stroke="#333" stroke-width="0.15" /><line stroke="#999999" stroke-width="0.686" x1="122.47020079998907" x2="84.06600726115441" y1="743.3" y2="106.36770184516206" /><path d="M 84.1,106.4 A 1.6,1.6 0 0,0 86.3,104.8" fill="none" stroke="#999999" stroke-width="0.686" /><line stroke="#999999" stroke-width="0.686" x1="86.28599250524775" x2="90.7664857009331" y1="104.816383848648" y2="108.82962726451126" /><path d="M 90.8,108.8 A 1.6,1.6 0 0,0 87.8,109.9" fill="none" stroke="#999999" stroke-width="0.686" /><line stroke="#999999" stroke-width="0.686" x1="87.80547262878598" x2="85.09745427505277" y1="109.85122424891426" y2="70.17694864595308" /><path d="M 85.1,70.2 A 1.8,1.8 0 0,1 85.3,69.4" fill="none" stroke="#999999" stroke-width="0.686" /><line stroke="#999999" stroke-width="0.686" x1="85.34745427505277" x2="126.13791589880849" y1="69.42694864595308" y2="45.65027241807968" /><path d="M 126.1,45.7 A 1.5,1.5 0 0,1 126.3,45.2" fill="none" stroke="#999999" stroke-width="0.686" /><circle cx="87.18791589880848" cy="70.073899145204" fill="#888" opacity="1.0" r="1.75" stroke="#444" stroke-width="0.15" /><circle cx="127.18791589880848" cy="46.700272418079635" fill="#654321" r="1.5" stroke="#333" stroke-width="0.15" /><line stroke="#FF0000" stroke-width="0.635" x1="128.7539594789044" x2="91.12352864588647" y1="729.45" y2="106.79672030373001" /><path d="M 91.1,106.8 A 1.6,1.6 0 0,0 93.3,105.3" fill="none" stroke="#FF0000" stroke-width="0.635" /><line stroke="#FF0000" stroke-width="0.635" x1="93.31561398646899" x2="97.77233263343274" y1="105.27338053014614" y2="109.26484942872378" /><path d="M 97.8,109.3 A 1.6,1.6 0 0,0 94.9,110.3" fill="none" stroke="#FF0000" stroke-width="0.635" /><line stroke="#FF0000" stroke-width="0.635" x1="94.8631266431034" x2="92.19956843938284" y1="110.27871976319932" y2="71.45486311487105" /><path d="M 92.2,71.5 A 1.8,1.8 0 0,1 92.4,70.7" fill="none" stroke="#FF0000" stroke-width="0.635" /><line stroke="#FF0000" stroke-width="0.635" x1="92.44956843938284" x2="133.21456431480442" y1="70.70486311487105" y2="46.09786088842543" /><path d="M 133.2,46.1 A 1.5,1.5 0 0,1 133.4,45.6" fill="none" stroke="#FF0000" stroke-width="0.635" /><circle cx="94.2645643148044" cy="71.35313659673591" fill="#888" opacity="1.0" r="1.75" stroke="#444" stroke-width="0.15" /><circle cx="134.2645643148044" cy="47.147860888425384" fill="#654321" r="1.5" stroke="#333" stroke-width="0.15" /><line stroke="#999999" stroke-width="0.584" x1="134.98531037853667" x2="98.25458794193219" y1="714.6" y2="108.62937748304557" /><path d="M 98.3,108.6 A 1.5,1.5 0 0,0 100.4,107.1" fill="none" stroke="#999999" stroke-width="0.584" /><line stroke="#999999" stroke-width="0.584" x1="100.41847336572371" x2="104.85185646242815" y1="107.13391245448702" y2="111.10389635624358" /><path d="M 104.9,111.1 A 1.5,1.5 0 0,0 102.0,112.1" fill="none" stroke="#999999" stroke-width="0.584" /><line stroke="#999999" stroke-width="0.584" x1="101.9944511853327" x2="99.38273017663035" y1="112.11035965061183" y2="74.27925570463776" /><path d="M 99.4,74.3 A 1.8,1.8 0 0,1 99.6,73.5" fill="none" stroke="#999999" stroke-width="0.584" /><line stroke="#999999" stroke-width="0.584" x1="99.63273017663035" x2="140.3722616399368" y1="73.52925570463776" y2="46.55057559298973" /><path d="M 140.4,46.6 A 1.5,1.5 0 0,1 140.5,46.1" fill="none" stroke="#999999" stroke-width="0.584" /><circle cx="101.4222616399368" cy="74.17887936189186" fill="#888" opacity="1.0" r="1.75" stroke="#444" stroke-width="0.15" /><circle cx="141.4222616399368" cy="47.600575592989685" fill="#654321" r="1.5" stroke="#333" stroke-width="0.15" /><line stroke="#999999" stroke-width="1.321" x1="141.09874377478212" x2="104.99774096189304" y1="697.5" y2="110.58917091064404" /><path d="M 105.0,110.6 A 1.9,1.9 0 0,0 107.5,108.7" fill="none" stroke="#999999" stroke-width="1.321" /><line stroke="#999999" stroke-width="1.321" x1="107.5391583783107" x2="112.35203698964041" y1="108.68196455154066" y2="112.9910076523488" /><path d="M 112.4,113.0 A 1.9,1.9 0 0,0 108.7,114.1" fill="none" stroke="#999999" stroke-width="1.321" /><line stroke="#999999" stroke-width="1.321" x1="108.7486455465413" x2="106.18521337482541" y1="114.14906808941794" y2="77.36800846451945" /><path d="M 106.2,77.4 A 1.8,1.8 0 0,1 106.4,76.6" fill="none" stroke="#999999" stroke-width="1.321" /><line stroke="#999999" stroke-width="1.321" x1="106.43521337482541" x2="147.54288135228973" y1="76.61800846451945" y2="47.004107621121534" /><path d="M 147.5,47.0 A 1.5,1.5 0 0,1 147.7,46.5" fill="none" stroke="#999999" stroke-width="1.321" /><circle cx="108.59288135228971" cy="77.25119596393415" fill="#888" opacity="1.0" r="1.75" stroke="#444" stroke-width="0.15" /><circle cx="148.5928813522897" cy="48.05410762112149" fill="#654321" r="1.5" stroke="#333" stroke-width="0.15" /><line stroke="#0000FF" stroke-width="1.27" x1="147.06543538903506" x2="111.48875381113936" y1="677.6" y2="100.20812472375474" /><path d="M 111.5,100.2 A 1.9,1.9 0 0,0 114.0,98.3" fill="none" stroke="#0000FF" stroke-width="1.27" /><line stroke="#0000FF" stroke-width="1.27" x1="114.00595161677829" x2="118.79018665017301" y1="98.32965591790526" y2="102.61265258021285" /><path d="M 118.8,102.6 A 1.9,1.9 0 0,0 115.2,103.8" fill="none" stroke="#0000FF" stroke-width="1.27" /><line stroke="#0000FF" stroke-width="1.27" x1="115.23962070976201" x2="112.70596559737662" y1="103.76559741129813" y2="67.55287763105048" /><path d="M 112.7,67.6 A 1.8,1.8 0 0,1 113.0,66.8" fill="none" stroke="#0000FF" stroke-width="1.27" /><line stroke="#0000FF" stroke-width="1.27" x1="112.95596559737662" x2="154.0381661245964" y1="66.80287763105048" y2="47.4149256248993" /><path d="M 154.0,47.4 A 1.5,1.5 0 0,1 154.2,46.9" fill="none" stroke="#0000FF" stroke-width="1.27" /><circle cx="115.08816612459637" cy="67.43735426495539" fill="#888" opacity="1.0" r="1.75" stroke="#444" stroke-width="0.15" /><circle cx="155.08816612459637" cy="48.46492562489925" fill="#654321" r="1.5" stroke="#333" stroke-width="0.15" /><line stroke="#999999" stroke-width="1.1685" x1="152.91158911093697" x2="118.25734578838338" y1="655.4" y2="94.64242364821007" /><path d="M 118.3,94.6 A 1.8,1.8 0 0,0 120.7,92.8" fill="none" stroke="#999999" stroke-width="1.1685" /><line stroke="#999999" stroke-width="1.1685" x1="120.72545599219967" x2="125.45379913031279" y1="92.82102439649509" y2="97.05325927376555" /><path d="M 125.5,97.1 A 1.8,1.8 0 0,0 122.0,98.2" fill="none" stroke="#999999" stroke-width="1.1685" /><line stroke="#999999" stroke-width="1.1685" x1="122.00796440685235" x2="119.52653592080901" y1="98.19426377984314" y2="62.97615941567665" /><path d="M 119.5,63.0 A 1.8,1.8 0 0,1 119.8,62.2" fill="none" stroke="#999999" stroke-width="1.1685" /><line stroke="#999999" stroke-width="1.1685" x1="119.77653592080901" x2="160.80804947418625" y1="62.22615941567665" y2="47.84311161842868" /><path d="M 160.8,47.8 A 1.5,1.5 0 0,1 161.0,47.3" fill="none" stroke="#999999" stroke-width="1.1685" /><circle cx="121.85804947418626" cy="62.86316555337362" fill="#888" opacity="1.0" r="1.75" stroke="#444" stroke-width="0.15" /><circle cx="161.85804947418626" cy="48.893111618428634" fill="#654321" r="1.5" stroke="#333" stroke-width="0.15" /><line stroke="#999999" stroke-width="1.092" x1="158.621482606703" x2="125.87487081316378" y1="630.6" y2="105.51801184962812" /><path d="M 125.9,105.5 A 1.8,1.8 0 0,0 128.3,103.7" fill="none" stroke="#999999" stroke-width="1.092" /><line stroke="#999999" stroke-width="1.092" x1="128.3049567041806" x2="132.9927569732642" y1="103.73916500311725" y2="107.93341444847601" /><path d="M 133.0,107.9 A 1.8,1.8 0 0,0 129.6,109.1" fill="none" stroke="#999999" stroke-width="1.092" /><line stroke="#999999" stroke-width="1.092" x1="129.62736499077894" x2="127.25552842617903" y1="109.07389338127143" y2="75.97197892069573" /><path d="M 127.3,76.0 A 1.8,1.8 0 0,1 127.5,75.2" fill="none" stroke="#999999" stroke-width="1.092" /><line stroke="#999999" stroke-width="1.092" x1="127.50552842617903" x2="168.4988589137477" y1="75.22197892069573" y2="48.32954494539638" /><path d="M 168.5,48.3 A 1.5,1.5 0 0,1 168.6,47.8" fill="none" stroke="#999999" stroke-width="1.092" /><circle cx="129.5488589137477" cy="75.86129344383426" fill="#888" opacity="1.0" r="1.75" stroke="#444" stroke-width="0.15" /><circle cx="169.5488589137477" cy="49.37954494539633" fill="#654321" r="1.5" stroke="#333" stroke-width="0.15" /><line stroke="#999999" stroke-width="1.0285" x1="164.17415276461992" x2="132.83227857020768" y1="602.8" y2="103.92084244899831" /><path d="M 132.8,103.9 A 1.8,1.8 0 0,0 135.2,102.2" fill="none" stroke="#999999" stroke-width="1.0285" /><line stroke="#999999" stroke-width="1.0285" x1="135.23030473485593" x2="139.8850994203412" y1="102.17722654779811" y2="106.34055471612737" /><path d="M 139.9,106.3 A 1.8,1.8 0 0,0 136.6,107.5" fill="none" stroke="#999999" stroke-width="1.0285" /><line stroke="#999999" stroke-width="1.0285" x1="136.58621838000366" x2="134.29483408021127" y1="107.47926806145085" y2="75.93199300095739" /><path d="M 134.3,75.9 A 1.8,1.8 0 0,1 134.5,75.2" fill="none" stroke="#999999" stroke-width="1.0285" /><line stroke="#999999" stroke-width="1.0285" x1="134.54483408021127" x2="175.50646865521844" y1="75.18199300095739" y2="48.77276681266824" /><path d="M 175.5,48.8 A 1.5,1.5 0 0,1 175.7,48.3" fill="none" stroke="#999999" stroke-width="1.0285" /><circle cx="136.55646865521845" cy="75.82319451001126" fill="#888" opacity="1.0" r="1.75" stroke="#444" stroke-width="0.15" /><circle cx="176.55646865521845" cy="49.82276681266819" fill="#654321" r="1.5" stroke="#333" stroke-width="0.15" /><line stroke="#FF0000" stroke-width="1.0285" x1="169.57746075158013" x2="140.20561957260085" y1="572.15" y2="103.81328471423637" /><path d="M 140.2,103.8 A 1.5,1.5 0 0,0 142.4,102.4" fill="none" stroke="#FF0000" stroke-width="1.0285" /><line stroke="#FF0000" stroke-width="1.0285" x1="142.410515185446" x2="147.4487988307203" y1="102.3819107142026" y2="106.89541175964257" /><path d="M 147.4,106.9 A 1.5,1.5 0 0,0 144.7,108.0" fill="none" stroke="#FF0000" stroke-width="1.0285" /><line stroke="#FF0000" stroke-width="1.0285" x1="144.70041037426992" x2="141.91424588828443" y1="108.0225662848469" y2="78.01429568628146" /><path d="M 141.9,78.0 A 1.2,1.2 0 0,1 142.2,77.3" fill="none" stroke="#FF0000" stroke-width="1.0285" /><line stroke="#FF0000" stroke-width="1.0285" x1="142.16424588828443" x2="182.80139600694724" y1="77.26429568628146" y2="49.648092617342854" /><path d="M 182.8,49.6 A 1.2,1.2 0 0,1 183.0,49.1" fill="none" stroke="#FF0000" stroke-width="1.0285" /><circle cx="143.67639600694724" cy="77.92824324996138" fill="#888" opacity="1.0" r="1.25" stroke="#444" stroke-width="0.15" /><circle cx="183.67639600694724" cy="50.523092617342854" fill="#654321" r="1.25" stroke="#333" stroke-width="0.15" /><line stroke="#999999" stroke-width="0.965" x1="174.88381434686676" x2="147.16609296128874" y1="539.65" y2="102.27629554742236" /><path d="M 147.2,102.3 A 1.5,1.5 0 0,0 149.3,100.9" fill="none" stroke="#999999" stroke-width="0.965" /><line stroke="#999999" stroke-width="0.965" x1="149.33168588779927" x2="154.34715330804516" y1="100.8780298064753" y2="105.36946803592434" /><path d="M 154.3,105.4 A 1.5,1.5 0 0,0 151.7,106.5" fill="none" stroke="#999999" stroke-width="0.965" /><line stroke="#999999" stroke-width="0.965" x1="151.66305148769547" x2="148.97153227483747" y1="106.49007922568092" y2="78.31740760426476" /><path d="M 149.0,78.3 A 1.2,1.2 0 0,1 149.2,77.6" fill="none" stroke="#999999" stroke-width="0.965" /><line stroke="#999999" stroke-width="0.965" x1="149.22153227483747" x2="189.82698576481457" y1="77.56740760426476" y2="50.092451696408034" /><path d="M 189.8,50.1 A 1.2,1.2 0 0,1 190.0,49.6" fill="none" stroke="#999999" stroke-width="0.965" /><circle cx="150.70198576481457" cy="78.23322346664918" fill="#888" opacity="1.0" r="1.25" stroke="#444" stroke-width="0.15" /><circle cx="190.70198576481457" cy="50.967451696408034" fill="#654321" r="1.25" stroke="#333" stroke-width="0.15" /><line stroke="#999999" stroke-width="0.838" x1="180.16134366354768" x2="154.00346177356568" y1="506.6" y2="97.78407424438853" /><path d="M 154.0,97.8 A 1.4,1.4 0 0,0 156.1,96.5" fill="none" stroke="#999999" stroke-width="0.838" /><line stroke="#999999" stroke-width="0.838" x1="156.08970632648624" x2="161.0602672745011" y1="96.45217140194325" y2="100.90169495520581" /><path d="M 161.1,100.9 A 1.4,1.4 0 0,0 158.5,102.0" fill="none" stroke="#999999" stroke-width="0.838" /><line stroke="#999999" stroke-width="0.838" x1="158.50132261886165" x2="155.8982566546537" y1="101.9938862226544" y2="75.52260347844867" /><path d="M 155.9,75.5 A 1.2,1.2 0 0,1 156.1,74.8" fill="none" stroke="#999999" stroke-width="0.838" /><line stroke="#999999" stroke-width="0.838" x1="156.1482566546537" x2="196.6902945556567" y1="74.77260347844867" y2="50.52654672312417" /><path d="M 196.7,50.5 A 1.2,1.2 0 0,1 196.8,50.0" fill="none" stroke="#999999" stroke-width="0.838" /><circle cx="157.5652945556567" cy="75.44169836971275" fill="#888" opacity="1.0" r="1.25" stroke="#444" stroke-width="0.15" /><circle cx="197.5652945556567" cy="51.40154672312417" fill="#654321" r="1.25" stroke="#333" stroke-width="0.15" /><line stroke="#0000FF" stroke-width="0.838" x1="185.45459531401355" x2="161.04248108720319" y1="473.85" y2="98.35561447852069" /><path d="M 161.0,98.4 A 1.4,1.4 0 0,0 163.1,97.0" fill="none" stroke="#0000FF" stroke-width="0.838" /><line stroke="#0000FF" stroke-width="0.838" x1="163.12836935327056" x2="168.1000788844677" y1="97.02295769134548" y2="101.47119782946459" /><path d="M 168.1,101.5 A 1.4,1.4 0 0,0 165.5,102.6" fill="none" stroke="#0000FF" stroke-width="0.838" /><line stroke="#0000FF" stroke-width="0.838" x1="165.5450100240481" x2="163.0415565666749" y1="102.5808102839876" y2="78.07358284365876" /><path d="M 163.0,78.1 A 1.2,1.2 0 0,1 163.3,77.3" fill="none" stroke="#0000FF" stroke-width="0.838" /><line stroke="#0000FF" stroke-width="0.838" x1="163.2915565666749" x2="203.8336222593106" y1="77.32358284365876" y2="50.97835256850567" /><path d="M 203.8,51.0 A 1.2,1.2 0 0,1 204.0,50.5" fill="none" stroke="#0000FF" stroke-width="0.838" /><circle cx="164.7086222593106" cy="77.993252423287" fill="#888" opacity="1.0" r="1.25" stroke="#444" stroke-width="0.15" /><circle cx="204.7086222593106" cy="51.85335256850567" fill="#654321" r="1.25" stroke="#333" stroke-width="0.15" /><line stroke="#999999" stroke-width="0.7745" x1="190.80811591065486" x2="167.92400649772492" y1="442.25" y2="95.31542847640299" /><path d="M 167.9,95.3 A 1.4,1.4 0 0,0 170.0,94.0" fill="none" stroke="#999999" stroke-width="0.7745" /><line stroke="#999999" stroke-width="0.7745" x1="169.96951254722882" x2="174.92024403693117" y1="94.01529570069499" y2="98.44244085375419" /><path d="M 174.9,98.4 A 1.4,1.4 0 0,0 172.4,99.5" fill="none" stroke="#999999" stroke-width="0.7745" /><line stroke="#999999" stroke-width="0.7745" x1="172.42974969774278" x2="170.0125492701482" y1="99.54660229038802" y2="76.73010153920791" /><path d="M 170.0,76.7 A 1.2,1.2 0 0,1 170.3,76.0" fill="none" stroke="#999999" stroke-width="0.7745" /><line stroke="#999999" stroke-width="0.7745" x1="170.2625492701482" x2="210.77292233011315" y1="75.98010153920791" y2="51.41725394121477" /><path d="M 210.8,51.4 A 1.2,1.2 0 0,1 210.9,50.9" fill="none" stroke="#999999" stroke-width="0.7745" /><circle cx="171.64792233011315" cy="76.65172732635051" fill="#888" opacity="1.0" r="1.25" stroke="#444" stroke-width="0.15" /><circle cx="211.64792233011315" cy="52.29225394121477" fill="#654321" r="1.25" stroke="#333" stroke-width="0.15" /><line stroke="#999999" stroke-width="0.7745" x1="196.2769336217189" x2="175.01248514623288" y1="412.85" y2="96.83377780636215" /><path d="M 175.0,96.8 A 1.4,1.4 0 0,0 177.1,95.5" fill="none" stroke="#999999" stroke-width="0.7745" /><line stroke="#999999" stroke-width="0.7745" x1="177.05753756762243" x2="182.00975622623167" y1="95.53267202710333" y2="99.95815356550202" /><path d="M 182.0,100.0 A 1.4,1.4 0 0,0 179.5,101.1" fill="none" stroke="#999999" stroke-width="0.7745" /><line stroke="#999999" stroke-width="0.7745" x1="179.52445042841083" x2="177.19795201129907" y1="101.08331051433981" y2="80.08443053194821" /><path d="M 177.2,80.1 A 1.2,1.2 0 0,1 177.4,79.3" fill="none" stroke="#999999" stroke-width="0.7745" /><line stroke="#999999" stroke-width="0.7745" x1="177.44795201129907" x2="217.95835940594574" y1="79.33443053194821" y2="51.87172314760733" /><path d="M 218.0,51.9 A 1.2,1.2 0 0,1 218.1,51.4" fill="none" stroke="#999999" stroke-width="0.7745" /><circle cx="178.8333594059457" cy="80.00677606630052" fill="#888" opacity="1.0" r="1.25" stroke="#444" stroke-width="0.15" /><circle cx="218.83335940594574" cy="52.74672314760733" fill="#654321" r="1.25" stroke="#333" stroke-width="0.15" /><line stroke="#999999" stroke-width="0.635" x1="201.89773389270377" x2="181.82625075655534" y1="386.35" y2="91.77508710577956" /><path d="M 181.8,91.8 A 1.3,1.3 0 0,0 183.8,90.5" fill="none" stroke="#999999" stroke-width="0.635" /><line stroke="#999999" stroke-width="0.635" x1="183.78189186774281" x2="188.6884241280348" y1="90.5458938070168" y2="94.92812458021353" /><path d="M 188.7,94.9 A 1.3,1.3 0 0,0 186.3,96.0" fill="none" stroke="#999999" stroke-width="0.635" /><line stroke="#999999" stroke-width="0.635" x1="186.3390212168705" x2="184.07905674676365" y1="96.0165556828972" y2="76.29973244082055" /><path d="M 184.1,76.3 A 1.2,1.2 0 0,1 184.3,75.5" fill="none" stroke="#999999" stroke-width="0.635" /><line stroke="#999999" stroke-width="0.635" x1="184.32905674676365" x2="224.76980268145755" y1="75.54973244082055" y2="52.30253775041297" /><path d="M 224.8,52.3 A 1.2,1.2 0 0,1 224.9,51.8" fill="none" stroke="#999999" stroke-width="0.635" /><circle cx="185.64480268145758" cy="76.2255979819671" fill="#888" opacity="1.0" r="1.25" stroke="#444" stroke-width="0.15" /><circle cx="225.64480268145755" cy="53.17753775041297" fill="#654321" r="1.25" stroke="#333" stroke-width="0.15" /><line stroke="#FF0000" stroke-width="0.635" x1="207.66527594568112" x2="188.84045949153415" y1="362.65" y2="91.87704090319971" /><path d="M 188.8,91.9 A 1.3,1.3 0 0,0 190.8,90.6" fill="none" stroke="#FF0000" stroke-width="0.635" /><line stroke="#FF0000" stroke-width="0.635" x1="190.79564388211844" x2="195.7037367887171" y1="90.64683666688302" y2="95.02731944747165" /><path d="M 195.7,95.0 A 1.3,1.3 0 0,0 193.4,96.1" fill="none" stroke="#FF0000" stroke-width="0.635" /><line stroke="#FF0000" stroke-width="0.635" x1="193.35960901518635" x2="191.16804873328678" y1="96.13533606071769" y2="77.81442872588298" /><path d="M 191.2,77.8 A 1.2,1.2 0 0,1 191.4,77.1" fill="none" stroke="#FF0000" stroke-width="0.635" /><line stroke="#FF0000" stroke-width="0.635" x1="191.41804873328678" x2="231.85882762956925" y1="77.06442872588298" y2="52.750909019726805" /><path d="M 231.9,52.8 A 1.2,1.2 0 0,1 232.0,52.3" fill="none" stroke="#FF0000" stroke-width="0.635" /><circle cx="192.73382762956925" cy="77.74099373452009" fill="#888" opacity="1.0" r="1.25" stroke="#444" stroke-width="0.15" /><circle cx="232.73382762956925" cy="53.625909019726805" fill="#654321" r="1.25" stroke="#333" stroke-width="0.15" /><line stroke="#999999" stroke-width="0.635" x1="213.55335589100952" x2="195.84920036945084" y1="341.25" y2="91.87552652350132" /><path d="M 195.8,91.9 A 1.3,1.3 0 0,0 197.8,90.6" fill="none" stroke="#999999" stroke-width="0.635" /><line stroke="#999999" stroke-width="0.635" x1="197.80389862465248" x2="202.7136500457277" y1="90.6442481358257" y2="95.02287193264681" /><path d="M 202.7,95.0 A 1.3,1.3 0 0,0 200.4,96.2" fill="none" stroke="#999999" stroke-width="0.635" /><line stroke="#999999" stroke-width="0.635" x1="200.37531910603445" x2="198.24412018428973" y1="96.1511769540532" y2="79.08257549644713" /><path d="M 198.2,79.1 A 1.2,1.2 0 0,1 198.5,78.3" fill="none" stroke="#999999" stroke-width="0.635" /><line stroke="#999999" stroke-width="0.635" x1="198.49412018428973" x2="238.93493378161247" y1="78.33257549644713" y2="53.19846319260864" /><path d="M 238.9,53.2 A 1.2,1.2 0 0,1 239.1,52.7" fill="none" stroke="#999999" stroke-width="0.635" /><circle cx="199.80993378161247" cy="79.00988417344888" fill="#888" opacity="1.0" r="1.25" stroke="#444" stroke-width="0.15" /><circle cx="239.80993378161247" cy="54.07346319260864" fill="#654321" r="1.25" stroke="#333" stroke-width="0.15" /><line stroke="#999999" stroke-width="0.5715" x1="219.55411256179642" x2="202.87879241065048" y1="322.0" y2="91.66589101091779" /><path d="M 202.9,91.7 A 1.3,1.3 0 0,0 204.8,90.5" fill="none" stroke="#999999" stroke-width="0.5715" /><line stroke="#999999" stroke-width="0.5715" x1="204.79196225891968" x2="209.68288072767007" y1="90.46640876416757" y2="94.82475547015576" /><path d="M 209.7,94.8 A 1.3,1.3 0 0,0 207.4,95.9" fill="none" stroke="#999999" stroke-width="0.5715" /><line stroke="#999999" stroke-width="0.5715" x1="207.40962431027117" x2="205.33375301728182" y1="95.94685121287898" y2="80.00285754039942" /><path d="M 205.3,80.0 A 1.2,1.2 0 0,1 205.6,79.3" fill="none" stroke="#999999" stroke-width="0.5715" /><line stroke="#999999" stroke-width="0.5715" x1="205.58375301728182" x2="245.99287676850682" y1="79.25285754039942" y2="53.64486856978556" /><path d="M 246.0,53.6 A 1.2,1.2 0 0,1 246.1,53.1" fill="none" stroke="#999999" stroke-width="0.5715" /><circle cx="206.86787676850685" cy="79.93220077549131" fill="#888" opacity="1.0" r="1.25" stroke="#444" stroke-width="0.15" /><circle cx="246.86787676850682" cy="54.51986856978556" fill="#654321" r="1.25" stroke="#333" stroke-width="0.15" /><line stroke="#0000FF" stroke-width="0.5715" x1="225.64658284632864" x2="209.84488404133955" y1="304.5" y2="90.85160244094914" /><path d="M 209.8,90.9 A 1.3,1.3 0 0,0 211.8,89.7" fill="none" stroke="#0000FF" stroke-width="0.5715" /><line stroke="#0000FF" stroke-width="0.5715" x1="211.75754420416342" x2="216.65023238134725" y1="89.65098112508497" y2="94.00734105952642" /><path d="M 216.7,94.0 A 1.3,1.3 0 0,0 214.4,95.1" fill="none" stroke="#0000FF" stroke-width="0.5715" /><line stroke="#0000FF" stroke-width="0.5715" x1="214.38323058252902" x2="212.3525346552101" y1="95.14922751030633" y2="80.17783465096522" /><path d="M 212.4,80.2 A 1.2,1.2 0 0,1 212.6,79.4" fill="none" stroke="#0000FF" stroke-width="0.5715" /><line stroke="#0000FF" stroke-width="0.5715" x1="212.6025346552101" x2="253.01169347853917" y1="79.42783465096522" y2="54.08879926270777" /><path d="M 253.0,54.1 A 1.2,1.2 0 0,1 253.2,53.6" fill="none" stroke="#0000FF" stroke-width="0.5715" /><circle cx="213.88669347853917" cy="80.10794354064728" fill="#888" opacity="1.0" r="1.25" stroke="#444" stroke-width="0.15" /><circle cx="253.88669347853917" cy="54.96379926270777" fill="#654321" r="1.25" stroke="#333" stroke-width="0.15" /><line stroke="#999999" stroke-width="0.5715" x1="231.81766479978543" x2="216.88699685108074" y1="288.5" y2="91.49052460980852" /><path d="M 216.9,91.5 A 1.3,1.3 0 0,0 218.8,90.3" fill="none" stroke="#999999" stroke-width="0.5715" /><line stroke="#999999" stroke-width="0.5715" x1="218.79906115113528" x2="223.6938142524903" y1="90.2885744882077" y2="94.64261417042667" /><path d="M 223.7,94.6 A 1.3,1.3 0 0,0 221.4,95.8" fill="none" stroke="#999999" stroke-width="0.5715" /><line stroke="#999999" stroke-width="0.5715" x1="221.43430244893483" x2="219.4473057756169" y1="95.80689584486072" y2="81.80275207008515" /><path d="M 219.4,81.8 A 1.2,1.2 0 0,1 219.7,81.1" fill="none" stroke="#999999" stroke-width="0.5715" /><line stroke="#999999" stroke-width="0.5715" x1="219.6973057756169" x2="260.1065050596839" y1="81.05275207008515" y2="54.537536528758324" /><path d="M 260.1,54.5 A 1.2,1.2 0 0,1 260.3,54.0" fill="none" stroke="#999999" stroke-width="0.5715" /><circle cx="220.9815050596839" cy="81.73375482906545" fill="#888" opacity="1.0" r="1.25" stroke="#444" stroke-width="0.15" /><circle cx="260.9815050596839" cy="55.412536528758324" fill="#654321" r="1.25" stroke="#333" stroke-width="0.15" /><line stroke="#999999" stroke-width="0.508" x1="238.05425647734603" x2="223.90282097165777" y1="273.75" y2="91.021210618277" /><path d="M 223.9,91.0 A 1.3,1.3 0 0,0 225.8,89.9" fill="none" stroke="#999999" stroke-width="0.508" /><line stroke="#999999" stroke-width="0.508" x1="225.77298513714973" x2="230.64972073005387" y1="89.85075665044792" y2="94.1846083140938" /><path d="M 230.6,94.2 A 1.3,1.3 0 0,0 228.5,95.3" fill="none" stroke="#999999" stroke-width="0.508" /><line stroke="#999999" stroke-width="0.508" x1="228.4555443935779" x2="226.5084768744655" y1="95.34122974655486" y2="82.17993182294447" /><path d="M 226.5,82.2 A 1.2,1.2 0 0,1 226.8,81.4" fill="none" stroke="#999999" stroke-width="0.508" /><line stroke="#999999" stroke-width="0.508" x1="226.7584768744655" x2="267.13598647432514" y1="81.42993182294447" y2="54.98214174986708" /><path d="M 267.1,55.0 A 1.2,1.2 0 0,1 267.3,54.5" fill="none" stroke="#999999" stroke-width="0.508" /><circle cx="228.0109864743251" cy="82.11299228059727" fill="#888" opacity="1.0" r="1.25" stroke="#444" stroke-width="0.15" /><circle cx="268.01098647432514" cy="55.85714174986708" fill="#654321" r="1.25" stroke="#333" stroke-width="0.15" /><line stroke="#999999" stroke-width="0.508" x1="244.34587632315382" x2="231.17003130126255" y1="260.04999999999995" y2="91.80515723695441" /><path d="M 231.2,91.8 A 1.3,1.3 0 0,0 233.0,90.6" fill="none" stroke="#999999" stroke-width="0.508" /><line stroke="#999999" stroke-width="0.508" x1="233.0129434686141" x2="237.47989843326755" y1="90.62006851010256" y2="94.5852964800307" /><path d="M 237.5,94.6 A 1.3,1.3 0 0,0 235.3,95.7" fill="none" stroke="#999999" stroke-width="0.508" /><line stroke="#999999" stroke-width="0.508" x1="235.27157150274752" x2="233.59294182636555" y1="95.72671266987811" y2="83.608159872133" /><path d="M 233.6,83.6 A 1.2,1.2 0 0,1 233.8,82.9" fill="none" stroke="#999999" stroke-width="0.508" /><line stroke="#999999" stroke-width="0.508" x1="233.84294182636555" x2="274.2204960572135" y1="82.858159872133" y2="55.4302274284189" /><path d="M 274.2,55.4 A 1.2,1.2 0 0,1 274.4,54.9" fill="none" stroke="#999999" stroke-width="0.508" /><circle cx="235.0954960572135" cy="83.54222973212904" fill="#888" opacity="1.0" r="1.25" stroke="#444" stroke-width="0.15" /><circle cx="275.0954960572135" cy="56.3052274284189" fill="#654321" r="1.25" stroke="#333" stroke-width="0.15" /><line stroke="#FF0000" stroke-width="0.508" x1="250.68728355928044" x2="238.43206551691958" y1="247.29999999999995" y2="90.77940144229456" /><path d="M 238.4,90.8 A 1.0,1.0 0 0,0 240.0,89.9" fill="none" stroke="#FF0000" stroke-width="0.508" /><line stroke="#FF0000" stroke-width="0.508" x1="239.96380704751758" x2="244.62847091383662" y1="89.86105579470825" y2="94.00995045196305" /><path d="M 244.6,94.0 A 1.0,1.0 0 0,0 242.9,95.0" fill="none" stroke="#FF0000" stroke-width="0.508" /><line stroke="#FF0000" stroke-width="0.508" x1="242.90001945162356" x2="240.84620674929053" y1="94.97950294324937" y2="83.48095118326478" /><path d="M 240.8,83.5 A 1.0,1.0 0 0,1 241.1,82.7" fill="none" stroke="#FF0000" stroke-width="0.508" /><line stroke="#FF0000" stroke-width="0.508" x1="241.09620674929053" x2="281.3989531398134" y1="82.73095118326478" y2="56.29818664561651" /><path d="M 281.4,56.3 A 1.0,1.0 0 0,1 281.5,55.8" fill="none" stroke="#FF0000" stroke-width="0.508" /><circle cx="242.09895313981337" cy="83.42489334677441" fill="#888" opacity="1.0" r="1.0" stroke="#444" stroke-width="0.15" /><circle cx="282.0989531398134" cy="56.998186645616556" fill="#654321" r="1.0" stroke="#333" stroke-width="0.15" /><line stroke="#999999" stroke-width="0.457" x1="257.078478185726" x2="245.64883181318658" y1="235.5" y2="91.01444753561418" /><path d="M 245.6,91.0 A 1.0,1.0 0 0,0 247.1,90.1" fill="none" stroke="#999999" stroke-width="0.457" /><line stroke="#999999" stroke-width="0.457" x1="247.13252146793468" x2="251.45052623701875" y1="90.11372671916604" y2="93.95037514460648" /><path d="M 251.5,94.0 A 1.0,1.0 0 0,0 249.8,94.9" fill="none" stroke="#999999" stroke-width="0.457" /><line stroke="#999999" stroke-width="0.457" x1="249.76136890491344" x2="247.92228340627324" y1="94.89153999114762" y2="84.26196994832708" /><path d="M 247.9,84.3 A 1.0,1.0 0 0,1 248.2,83.5" fill="none" stroke="#999999" stroke-width="0.457" /><line stroke="#999999" stroke-width="0.457" x1="248.17228340627324" x2="288.44958081492007" y1="83.51196994832708" y2="56.74412933918654" /><path d="M 288.4,56.7 A 1.0,1.0 0 0,1 288.6,56.2" fill="none" stroke="#999999" stroke-width="0.457" /><circle cx="249.14958081492003" cy="84.20762548468201" fill="#888" opacity="1.0" r="1.0" stroke="#444" stroke-width="0.15" /><circle cx="289.14958081492" cy="57.44412933918659" fill="#654321" r="1.0" stroke="#333" stroke-width="0.15" /><line stroke="#999999" stroke-width="0.457" x1="263.51421942456216" x2="252.8835410571419" y1="224.54999999999995" y2="92.14496226615324" /><path d="M 252.9,92.1 A 1.0,1.0 0 0,0 254.4,91.2" fill="none" stroke="#999999" stroke-width="0.457" /><line stroke="#999999" stroke-width="0.457" x1="254.35211916169885" x2="258.34712769048144" y1="91.2353159945593" y2="94.78067903662748" /><path d="M 258.3,94.8 A 1.0,1.0 0 0,0 256.7,95.7" fill="none" stroke="#999999" stroke-width="0.457" /><line stroke="#999999" stroke-width="0.457" x1="256.6515693499839" x2="255.0200346772141" y1="95.71838723205246" y2="85.94372682945436" /><path d="M 255.0,85.9 A 1.0,1.0 0 0,1 255.3,85.2" fill="none" stroke="#999999" stroke-width="0.457" /><line stroke="#999999" stroke-width="0.457" x1="255.2700346772141" x2="295.54737190022945" y1="85.19372682945436" y2="57.193055054858064" /><path d="M 295.5,57.2 A 1.0,1.0 0 0,1 295.7,56.7" fill="none" stroke="#999999" stroke-width="0.457" /><circle cx="256.2473719002294" cy="85.89028909932745" fill="#888" opacity="1.0" r="1.0" stroke="#444" stroke-width="0.15" /><circle cx="296.2473719002294" cy="57.89305505485811" fill="#654321" r="1.0" stroke="#333" stroke-width="0.15" /><line stroke="#0000FF" stroke-width="0.457" x1="269.9918868868248" x2="259.8034411698971" y1="214.39999999999998" y2="89.17462195033522" /><path d="M 259.8,89.2 A 1.0,1.0 0 0,0 261.3,88.3" fill="none" stroke="#0000FF" stroke-width="0.457" /><line stroke="#0000FF" stroke-width="0.457" x1="261.26495455196334" x2="265.1329289106934" y1="88.26069556455184" y2="91.69046088238952" /><path d="M 265.1,91.7 A 1.0,1.0 0 0,0 263.4,92.6" fill="none" stroke="#0000FF" stroke-width="0.457" /><line stroke="#0000FF" stroke-width="0.457" x1="263.4363239099865" x2="261.89281157994924" y1="92.63095074212265" y2="83.33275536609631" /><path d="M 261.9,83.3 A 1.0,1.0 0 0,1 262.1,82.6" fill="none" stroke="#0000FF" stroke-width="0.457" /><line stroke="#0000FF" stroke-width="0.457" x1="262.14281157994924" x2="302.42017583212623" y1="82.58275536609631" y2="57.62775063644301" /><path d="M 302.4,57.6 A 1.0,1.0 0 0,1 302.6,57.1" fill="none" stroke="#0000FF" stroke-width="0.457" /><circle cx="263.1201758321262" cy="83.27994208672442" fill="#888" opacity="1.0" r="1.0" stroke="#444" stroke-width="0.15" /><circle cx="303.1201758321262" cy="58.32775063644306" fill="#654321" r="1.0" stroke="#333" stroke-width="0.15" /><line stroke="#999999" stroke-width="0.457" x1="276.5088601835496" x2="267.109202946711" y1="205.0" y2="91.84632064271943" /><path d="M 267.1,91.8 A 1.0,1.0 0 0,0 268.6,90.9" fill="none" stroke="#999999" stroke-width="0.457" /><line stroke="#999999" stroke-width="0.457" x1="268.5516987878525" x2="272.122845720354" y1="90.92178051684368" y2="94.08317227714838" /><path d="M 272.1,94.1 A 1.0,1.0 0 0,0 270.4,95.0" fill="none" stroke="#999999" stroke-width="0.457" /><line stroke="#999999" stroke-width="0.457" x1="270.4198394214638" x2="269.07178264761893" y1="95.02095788860436" y2="86.56419454204502" /><path d="M 269.1,86.6 A 1.0,1.0 0 0,1 269.3,85.8" fill="none" stroke="#999999" stroke-width="0.457" /><line stroke="#999999" stroke-width="0.457" x1="269.32178264761893" x2="309.5991989753243" y1="85.81419454204502" y2="58.08181417024491" /><path d="M 309.6,58.1 A 1.0,1.0 0 0,1 309.7,57.6" fill="none" stroke="#999999" stroke-width="0.457" /><circle cx="270.2991989753243" cy="86.51260570136981" fill="#888" opacity="1.0" r="1.0" stroke="#444" stroke-width="0.15" /><circle cx="310.2991989753243" cy="58.78181417024496" fill="#654321" r="1.0" stroke="#333" stroke-width="0.15" /><line stroke="#999999" stroke-width="0.4065" x1="283.06513931473677" x2="274.1227042732414" y1="196.35000000000002" y2="90.36581542752435" /><path d="M 274.1,90.4 A 1.0,1.0 0 0,0 275.5,89.5" fill="none" stroke="#999999" stroke-width="0.4065" /><line stroke="#999999" stroke-width="0.4065" x1="275.52521239997895" x2="278.97370279119446" y1="89.46308425304801" y2="92.512373403477" /><path d="M 279.0,92.5 A 1.0,1.0 0 0,0 277.3,93.4" fill="none" stroke="#999999" stroke-width="0.4065" /><line stroke="#999999" stroke-width="0.4065" x1="277.31609622537695" x2="276.04840204092756" y1="93.43064455086619" y2="85.45221449587996" /><path d="M 276.0,85.5 A 1.0,1.0 0 0,1 276.3,84.7" fill="none" stroke="#999999" stroke-width="0.4065" /><line stroke="#999999" stroke-width="0.4065" x1="276.29840204092756" x2="316.55061457614573" y1="84.70221449587996" y2="58.52148183389136" /><path d="M 316.6,58.5 A 1.0,1.0 0 0,1 316.7,58.0" fill="none" stroke="#999999" stroke-width="0.4065" /><circle cx="277.2506145761457" cy="85.40225868876689" fill="#888" opacity="1.0" r="1.0" stroke="#444" stroke-width="0.15" /><circle cx="317.2506145761457" cy="59.2214818338914" fill="#654321" r="1.0" stroke="#333" stroke-width="0.15" /><line stroke="#999999" stroke-width="0.4065" x1="289.6528631134937" x2="281.1402576796655" y1="188.29999999999995" y2="89.53001954848582" /><path d="M 281.1,89.5 A 1.0,1.0 0 0,0 282.5,88.6" fill="none" stroke="#999999" stroke-width="0.4065" /><line stroke="#999999" stroke-width="0.4065" x1="282.5349188962377" x2="285.8869269365793" y1="88.62266619228899" y2="91.58269841131698" /><path d="M 285.9,91.6 A 1.0,1.0 0 0,0 284.2,92.5" fill="none" stroke="#999999" stroke-width="0.4065" /><line stroke="#999999" stroke-width="0.4065" x1="284.23065616803" x2="283.0338397564543" y1="92.5081030594497" y2="84.99084279945714" /><path d="M 283.0,85.0 A 1.0,1.0 0 0,1 283.3,84.2" fill="none" stroke="#999999" stroke-width="0.4065" /><line stroke="#999999" stroke-width="0.4065" x1="283.2838397564543" x2="323.536091642349" y1="84.24084279945714" y2="58.96330383929569" /><path d="M 323.5,59.0 A 1.0,1.0 0 0,1 323.7,58.5" fill="none" stroke="#999999" stroke-width="0.4065" /><circle cx="284.23609164234904" cy="84.94184315290158" fill="#888" opacity="1.0" r="1.0" stroke="#444" stroke-width="0.15" /><circle cx="324.23609164234904" cy="59.663303839295736" fill="#654321" r="1.0" stroke="#333" stroke-width="0.15" /><line stroke="#FF0000" stroke-width="0.4065" x1="296.2746519687846" x2="288.1848098907073" y1="180.89999999999998" y2="89.29331188840513" /><path d="M 288.2,89.3 A 1.0,1.0 0 0,0 289.6,88.4" fill="none" stroke="#FF0000" stroke-width="0.4065" /><line stroke="#FF0000" stroke-width="0.4065" x1="289.5715926682433" x2="292.83620057790756" y1="88.38130551778272" y2="91.25974601008318" /><path d="M 292.8,91.3 A 1.0,1.0 0 0,0 291.2,92.2" fill="none" stroke="#FF0000" stroke-width="0.4065" /><line stroke="#FF0000" stroke-width="0.4065" x1="291.18254325619085" x2="290.0507207572402" y1="92.19432750783153" y2="85.12939588808342" /><path d="M 290.1,85.1 A 1.0,1.0 0 0,1 290.3,84.4" fill="none" stroke="#FF0000" stroke-width="0.4065" /><line stroke="#FF0000" stroke-width="0.4065" x1="290.3007207572402" x2="330.5530169672742" y1="84.37939588808342" y2="59.40711490466015" /><path d="M 330.6,59.4 A 1.0,1.0 0 0,1 330.7,58.9" fill="none" stroke="#FF0000" stroke-width="0.4065" /><circle cx="291.2530169672742" cy="85.08149614029867" fill="#888" opacity="1.0" r="1.0" stroke="#444" stroke-width="0.15" /><circle cx="331.2530169672742" cy="60.10711490466019" fill="#654321" r="1.0" stroke="#333" stroke-width="0.15" /><line stroke="#999999" stroke-width="0.381" x1="302.9226447137171" x2="295.26763095108083" y1="174.0" y2="89.60063507845314" /><path d="M 295.3,89.6 A 0.9,0.9 0 0,0 296.6,88.7" fill="none" stroke="#999999" stroke-width="0.381" /><line stroke="#999999" stroke-width="0.381" x1="296.63081175821765" x2="299.80480745866674" y1="88.69742922720707" y2="91.49092547376051" /><path d="M 299.8,91.5 A 0.9,0.9 0 0,0 298.2,92.4" fill="none" stroke="#999999" stroke-width="0.381" /><line stroke="#999999" stroke-width="0.381" x1="298.1776977564343" x2="297.10916289395186" y1="92.42397990042377" y2="85.81736111976886" /><path d="M 297.1,85.8 A 1.0,1.0 0 0,1 297.4,85.1" fill="none" stroke="#999999" stroke-width="0.381" /><line stroke="#999999" stroke-width="0.381" x1="297.35916289395186" x2="337.59876297965303" y1="85.06736111976886" y2="59.85274883964507" /><path d="M 337.6,59.9 A 1.0,1.0 0 0,1 337.7,59.4" fill="none" stroke="#999999" stroke-width="0.381" /><circle cx="298.298762979653" cy="85.77108060443345" fill="#888" opacity="1.0" r="1.0" stroke="#444" stroke-width="0.15" /><circle cx="338.298762979653" cy="60.55274883964512" fill="#654321" r="1.0" stroke="#333" stroke-width="0.15" /><line stroke="#999999" stroke-width="0.3555" x1="309.5968413482911" x2="302.3713659656439" y1="167.60000000000002" y2="90.35879722568166" /><path d="M 302.4,90.4 A 0.9,0.9 0 0,0 303.7,89.5" fill="none" stroke="#999999" stroke-width="0.3555" /><line stroke="#999999" stroke-width="0.3555" x1="303.7110578462325" x2="306.799766429912" y1="89.46433710787483" y2="92.17698326000857" /><path d="M 306.8,92.2 A 0.9,0.9 0 0,0 305.2,93.1" fill="none" stroke="#999999" stroke-width="0.3555" /><line stroke="#999999" stroke-width="0.3555" x1="305.2006015134733" x2="304.1911866463736" y1="93.11055004918637" y2="86.95522222467753" /><path d="M 304.2,87.0 A 1.0,1.0 0 0,1 304.4,86.2" fill="none" stroke="#999999" stroke-width="0.3555" /><line stroke="#999999" stroke-width="0.3555" x1="304.4411866463736" x2="344.6680960838612" y1="86.20522222467753" y2="60.29987462638394" /><path d="M 344.7,60.3 A 1.0,1.0 0 0,1 344.8,59.8" fill="none" stroke="#999999" stroke-width="0.3555" /><circle cx="305.36809608386125" cy="86.91073359183042" fill="#888" opacity="1.0" r="1.0" stroke="#444" stroke-width="0.15" /><circle cx="345.36809608386125" cy="60.999874626383985" fill="#654321" r="1.0" stroke="#333" stroke-width="0.15" /><line stroke="#0000FF" stroke-width="0.3555" x1="316.2920010945783" x2="309.48412967316654" y1="161.60000000000002" y2="91.56399868123049" /><path d="M 309.5,91.6 A 0.9,0.9 0 0,0 310.8,90.7" fill="none" stroke="#0000FF" stroke-width="0.3555" /><line stroke="#0000FF" stroke-width="0.3555" x1="310.8154522291485" x2="313.8322559927474" y1="90.66436450110291" y2="93.3070081709584" /><path d="M 313.8,93.3 A 0.9,0.9 0 0,0 312.2,94.3" fill="none" stroke="#0000FF" stroke-width="0.3555" /><line stroke="#0000FF" stroke-width="0.3555" x1="312.2409473082561" x2="311.28403367262433" y1="94.25737132051711" y2="88.54302533304474" /><path d="M 311.3,88.5 A 1.0,1.0 0 0,1 311.5,87.8" fill="none" stroke="#0000FF" stroke-width="0.3555" /><line stroke="#0000FF" stroke-width="0.3555" x1="311.53403367262433" x2="351.76100909759487" y1="87.79302533304474" y2="60.74849181060574" /><path d="M 351.8,60.7 A 1.0,1.0 0 0,1 351.9,60.2" fill="none" stroke="#0000FF" stroke-width="0.3555" /><circle cx="312.4610090975948" cy="88.50031805596518" fill="#888" opacity="1.0" r="1.0" stroke="#444" stroke-width="0.15" /><circle cx="352.4610090975948" cy="61.44849181060579" fill="#654321" r="1.0" stroke="#333" stroke-width="0.15" /><line stroke="#999999" stroke-width="0.3555" x1="323.0081239525787" x2="316.6137256727188" y1="156.0" y2="93.12141759879853" /><path d="M 316.6,93.1 A 0.9,0.9 0 0,0 317.9,92.2" fill="none" stroke="#999999" stroke-width="0.3555" /><line stroke="#999999" stroke-width="0.3555" x1="317.9361408689473" x2="320.8849356699309" y1="92.21620711087564" y2="94.79110954082182" /><path d="M 320.9,94.8 A 0.9,0.9 0 0,0 319.3,95.8" fill="none" stroke="#999999" stroke-width="0.3555" /><line stroke="#999999" stroke-width="0.3555" x1="319.30435596433904" x2="318.39521598082274" y1="95.76177631243604" y2="90.4805001146101" /><path d="M 318.4,90.5 A 1.0,1.0 0 0,1 318.6,89.7" fill="none" stroke="#999999" stroke-width="0.3555" /><line stroke="#999999" stroke-width="0.3555" x1="318.64521598082274" x2="358.87226842522944" y1="89.7305001146101" y2="61.19826937444418" /><path d="M 358.9,61.2 A 1.0,1.0 0 0,1 359.0,60.7" fill="none" stroke="#999999" stroke-width="0.3555" /><circle cx="319.5722684252295" cy="90.43997104336222" fill="#888" opacity="1.0" r="1.0" stroke="#444" stroke-width="0.15" /><circle cx="359.5722684252295" cy="61.898269374444226" fill="#654321" r="1.0" stroke="#333" stroke-width="0.15" /><line stroke="#999999" stroke-width="0.3175" x1="329.73996914436407" x2="323.60460305222205" y1="150.70000000000005" y2="92.57704582606505" /><path d="M 323.6,92.6 A 0.9,0.9 0 0,0 324.9,91.7" fill="none" stroke="#999999" stroke-width="0.3175" /><line stroke="#999999" stroke-width="0.3175" x1="324.9049405036493" x2="327.85565985735593" y1="91.69094122205183" y2="94.26093917823277" /><path d="M 327.9,94.3 A 0.9,0.9 0 0,0 326.3,95.2" fill="none" stroke="#999999" stroke-width="0.3175" /><line stroke="#999999" stroke-width="0.3175" x1="326.32133282060556" x2="325.4103001879919" y1="95.23444322313628" y2="90.22155696931577" /><path d="M 325.4,90.2 A 1.0,1.0 0 0,1 325.7,89.5" fill="none" stroke="#999999" stroke-width="0.3175" /><line stroke="#999999" stroke-width="0.3175" x1="325.6603001879919" x2="365.8684101960416" y1="89.47155696931577" y2="61.64076590803495" /><path d="M 365.9,61.6 A 1.0,1.0 0 0,1 366.0,61.1" fill="none" stroke="#999999" stroke-width="0.3175" /><circle cx="326.56841019604167" cy="90.18305019387287" fill="#888" opacity="1.0" r="1.0" stroke="#444" stroke-width="0.15" /><circle cx="366.56841019604167" cy="62.340765908034996" fill="#654321" r="1.0" stroke="#333" stroke-width="0.15" /><line stroke="#999999" stroke-width="0.3175" x1="336.4849162809702" x2="330.5899360361869" y1="145.64999999999998" y2="92.28495663673482" /><path d="M 330.6,92.3 A 0.9,0.9 0 0,0 331.9,91.4" fill="none" stroke="#999999" stroke-width="0.3175" /><line stroke="#999999" stroke-width="0.3175" x1="331.8902270205095" x2="334.8579894688513" y1="91.39700090002623" y2="93.97403650898991" /><path d="M 334.9,94.0 A 0.9,0.9 0 0,0 333.3,95.0" fill="none" stroke="#999999" stroke-width="0.3175" /><line stroke="#999999" stroke-width="0.3175" x1="333.34002931871777" x2="332.4194787044091" y1="94.9735051749127" y2="90.21262251875021" /><path d="M 332.4,90.2 A 1.0,1.0 0 0,1 332.7,89.5" fill="none" stroke="#999999" stroke-width="0.3175" /><line stroke="#999999" stroke-width="0.3175" x1="332.6694787044091" x2="372.87765391167466" y1="89.46262251875021" y2="62.084091121969436" /><path d="M 372.9,62.1 A 1.0,1.0 0 0,1 373.0,61.6" fill="none" stroke="#999999" stroke-width="0.3175" /><circle cx="333.57765391167464" cy="90.17612934438341" fill="#888" opacity="1.0" r="1.0" stroke="#444" stroke-width="0.15" /><circle cx="373.5776539116747" cy="62.78409112196948" fill="#654321" r="1.0" stroke="#333" stroke-width="0.15" /><line stroke="#FF0000" stroke-width="0.3175" x1="343.2403449734328" x2="337.58747155178787" y1="140.79999999999995" y2="92.19550330049515" /><path d="M 337.6,92.2 A 0.9,0.9 0 0,0 338.9,91.3" fill="none" stroke="#FF0000" stroke-width="0.3175" /><line stroke="#FF0000" stroke-width="0.3175" x1="338.8870841062306" x2="341.8692482584022" y1="91.30506613732985" y2="93.885224157106" /><path d="M 341.9,93.9 A 0.9,0.9 0 0,0 340.4,94.9" fill="none" stroke="#FF0000" stroke-width="0.3175" /><line stroke="#FF0000" stroke-width="0.3175" x1="340.3701256984177" x2="339.43913035537247" y1="94.91269602784234" y2="90.40328510592235" /><path d="M 339.4,90.4 A 1.0,1.0 0 0,1 339.7,89.7" fill="none" stroke="#FF0000" stroke-width="0.3175" /><line stroke="#FF0000" stroke-width="0.3175" x1="339.68913035537247" x2="379.89737918316416" y1="89.65328510592235" y2="62.52807928017876" /><path d="M 379.9,62.5 A 1.0,1.0 0 0,1 380.0,62.0" fill="none" stroke="#FF0000" stroke-width="0.3175" /><circle cx="340.59737918316415" cy="90.369208494894" fill="#888" opacity="1.0" r="1.0" stroke="#444" stroke-width="0.15" /><circle cx="380.5973791831642" cy="63.228079280178804" fill="#654321" r="1.0" stroke="#333" stroke-width="0.15" /><line stroke="#999999" stroke-width="0.3175" x1="350.0062552217521" x2="344.59741675991563" y1="136.14999999999998" y2="92.30921097286705" /><path d="M 344.6,92.3 A 0.9,0.9 0 0,0 345.9,91.4" fill="none" stroke="#999999" stroke-width="0.3175" /><line stroke="#999999" stroke-width="0.3175" x1="345.89558705982927" x2="348.88924822457136" y1="91.41549846608075" y2="93.99413579134875" /><path d="M 348.9,94.0 A 0.9,0.9 0 0,0 347.4,95.1" fill="none" stroke="#999999" stroke-width="0.3175" /><line stroke="#999999" stroke-width="0.3175" x1="347.4120752390007" x2="346.4692540453111" y1="95.05196084161253" y2="90.79341032038064" /><path d="M 346.5,90.8 A 1.0,1.0 0 0,1 346.7,90.0" fill="none" stroke="#999999" stroke-width="0.3175" /><line stroke="#999999" stroke-width="0.3175" x1="346.7192540453111" x2="386.92758601051037" y1="90.04341032038064" y2="62.97273038266292" /><path d="M 386.9,63.0 A 1.0,1.0 0 0,1 387.1,62.5" fill="none" stroke="#999999" stroke-width="0.3175" /><circle cx="347.6275860105103" cy="90.76228764540463" fill="#888" opacity="1.0" r="1.0" stroke="#444" stroke-width="0.15" /><circle cx="387.6275860105103" cy="63.67273038266296" fill="#654321" r="1.0" stroke="#333" stroke-width="0.15" /><line stroke="#999999" stroke-width="0.3175" x1="356.77478585903555" x2="351.6134597217796" y1="131.54999999999995" y2="92.47789108831148" /><path d="M 351.6,92.5 A 0.9,0.9 0 0,0 352.9,91.6" fill="none" stroke="#999999" stroke-width="0.3175" /><line stroke="#999999" stroke-width="0.3175" x1="352.9090115831041" x2="355.9087440152791" y1="91.57979328937097" y2="94.14936585085172" /><path d="M 355.9,94.1 A 0.9,0.9 0 0,0 354.5,95.2" fill="none" stroke="#999999" stroke-width="0.3175" /><line stroke="#999999" stroke-width="0.3175" x1="354.4573064230443" x2="353.50198792752167" y1="95.23999924602595" y2="91.23279649595008" /><path d="M 353.5,91.2 A 1.0,1.0 0 0,1 353.8,90.5" fill="none" stroke="#999999" stroke-width="0.3175" /><line stroke="#999999" stroke-width="0.3175" x1="353.75198792752167" x2="393.9604132268206" y1="90.48279649595008" y2="63.41754722121584" /><path d="M 394.0,63.4 A 1.0,1.0 0 0,1 394.1,62.9" fill="none" stroke="#999999" stroke-width="0.3175" /><circle cx="354.66041322682065" cy="91.20536679591521" fill="#888" opacity="1.0" r="1.0" stroke="#444" stroke-width="0.15" /><circle cx="394.66041322682065" cy="64.11754722121589" fill="#654321" r="1.0" stroke="#333" stroke-width="0.15" /><line stroke="#0000FF" stroke-width="0.3175" x1="363.5485572742474" x2="358.6390552219657" y1="127.04999999999995" y2="92.75299139629135" /><path d="M 358.6,92.8 A 0.9,0.9 0 0,0 359.9,91.8" fill="none" stroke="#0000FF" stroke-width="0.3175" /><line stroke="#0000FF" stroke-width="0.3175" x1="359.93042028548666" x2="362.92963071995507" y1="91.84901606330072" y2="94.39988031101336" /><path d="M 362.9,94.4 A 0.9,0.9 0 0,0 361.5,95.5" fill="none" stroke="#0000FF" stroke-width="0.3175" /><line stroke="#0000FF" stroke-width="0.3175" x1="361.5088284829368" x2="360.53995321142463" y1="95.52613644476628" y2="91.77112662965737" /><path d="M 360.5,91.8 A 1.0,1.0 0 0,1 360.8,91.0" fill="none" stroke="#0000FF" stroke-width="0.3175" /><line stroke="#0000FF" stroke-width="0.3175" x1="360.78995321142463" x2="400.99848122105936" y1="91.02112662965737" y2="63.86269553190618" /><path d="M 401.0,63.9 A 1.0,1.0 0 0,1 401.1,63.4" fill="none" stroke="#0000FF" stroke-width="0.3175" /><circle cx="361.6984812210593" cy="91.74844594642582" fill="#888" opacity="1.0" r="1.0" stroke="#444" stroke-width="0.15" /><circle cx="401.6984812210593" cy="64.56269553190623" fill="#654321" r="1.0" stroke="#333" stroke-width="0.15" /><line stroke="#999999" stroke-width="0.3175" x1="370.319708300495" x2="365.666683695149" y1="122.5" y2="92.98599896218502" /><path d="M 365.7,93.0 A 0.9,0.9 0 0,0 367.0,92.1" fill="none" stroke="#999999" stroke-width="0.3175" /><line stroke="#999999" stroke-width="0.3175" x1="366.9517965210532" x2="369.9438073297474" y1="92.07409108286731" y2="94.59474247078174" /><path d="M 369.9,94.6 A 0.9,0.9 0 0,0 368.6,95.8" fill="none" stroke="#999999" stroke-width="0.3175" /><line stroke="#999999" stroke-width="0.3175" x1="368.5602285021446" x2="367.57529414030955" y1="95.75999851071401" y2="92.25787217134223" /><path d="M 367.6,92.3 A 1.0,1.0 0 0,1 367.8,91.5" fill="none" stroke="#999999" stroke-width="0.3175" /><line stroke="#999999" stroke-width="0.3175" x1="367.82529414030955" x2="408.03392882633375" y1="91.50787217134223" y2="64.30767810652776" /><path d="M 408.0,64.3 A 1.0,1.0 0 0,1 408.2,63.8" fill="none" stroke="#999999" stroke-width="0.3175" /><circle cx="368.7339288263338" cy="92.24152509693636" fill="#888" opacity="1.0" r="1.0" stroke="#444" stroke-width="0.15" /><circle cx="408.7339288263338" cy="65.0076781065278" fill="#654321" r="1.0" stroke="#333" stroke-width="0.15" /></svg>