<?xml version="1.0" encoding="utf-8" ?>
<svg baseProfile="full" height="44.2vw" preserveAspectRatio="xMinYMin meet" version="1.1" viewBox="0 0 453 200" width="100vw" xmlns="http://www.w3.org/2000/svg" xmlns:ev="http://www.w3.org/2001/xml-events" xmlns:xlink="http://www.w3.org/1999/xlink"><defs /><rect fill="white" height="869" width="453" x="0" y="0" /><line opacity="1.0" stroke="#90EE90" stroke-dasharray="4,2" stroke-width="0.5" x1="45.0" x2="368.7339288263338" y1="67.58805890014798" y2="92.24152509693636" /><line opacity="1.0" stroke="#8B4513" stroke-width="0.8" x1="85.0" x2="408.7339288263338" y1="45.53194362255306" y2="66.0076781065278" /><path d="M 84.6,824.0 L 90.9,809.0 L 97.1,795.1 L 103.5,782.0 L 109.8,769.2 L 116.1,756.4 L 122.5,743.3 L 128.8,729.5 L 135.0,714.6 L 141.1,697.5 L 147.1,677.6 L 152.9,655.4 L 158.6,630.6 L 164.2,602.8 L 169.6,572.1 L 174.9,539.6 L 180.2,506.6 L 185.5,473.9 L 190.8,442.2 L 196.3,412.9 L 201.9,386.4 L 207.7,362.6 L 213.6,341.2 L 219.6,322.0 L 225.6,304.5 L 231.8,288.5 L 238.1,273.8 L 244.3,260.0 L 250.7,247.3 L 257.1,235.5 L 263.5,224.5 L 270.0,214.4 L 276.5,205.0 L 283.1,196.4 L 289.7,188.3 L 296.3,180.9 L 302.9,174.0 L 309.6,167.6 L 316.3,161.6 L 323.0,156.0 L 329.7,150.7 L 336.5,145.6 L 343.2,140.8 L 350.0,136.1 L 356.8,131.5 L 363.5,127.0 L 370.3,122.5" fill="none" stroke="black" stroke-width="0.5" /><g opacity="1.0" transform="rotate(41.8, 45.0, 110.2)"><ellipse cx="45.03105294821351" cy="110.16055558459163" fill="#B8A8D4" rx="5.0" ry="2.55" stroke="#55438B" stroke-width="0.15" /><circle cx="47.53105294821351" cy="110.16055558459163" fill="#888" r="1.25" stroke="#444" stroke-width="0.1" /><circle cx="42.53105294821351" cy="110.16055558459163" fill="#888" r="1.25" stroke="#444" stroke-width="0.1" /></g><g opacity="1.0" transform="rotate(-3.2, 47.3, 150.2)"><ellipse cx="47.25423728363998" cy="150.2252850373244" fill="#D4C4A8" rx="5.0" ry="2.55" stroke="#8B7355" stroke-width="0.15" /><circle cx="49.75423728363998" cy="150.2252850373244" fill="#888" r="1.25" stroke="#444" stroke-width="0.1" /><circle cx="44.75423728363998" cy="150.2252850373244" fill="#888" r="1.25" stroke="#444" stroke-width="0.1" /></g><g opacity="1.0" transform="rotate(41.8, 51.9, 107.0)"><ellipse cx="51.92217409284333" cy="106.98447549675336" fill="#B8A8D4" rx="5.0" ry="2.55" stroke="#55438B" stroke-width="0.15" /><circle cx="54.42217409284333" cy="106.98447549675336" fill="#888" r="1.25" stroke="#444" stroke-width="0.1" /><circle cx="49.42217409284333" cy="106.98447549675336" fill="#888" r="1.25" stroke="#444" stroke-width="0.1" /></g><g opacity="1.0" transform="rotate(-3.2, 54.1, 146.4)"><ellipse cx="54.10774008527053" cy="146.38277303325367" fill="#D4C4A8" rx="5.0" ry="2.55" stroke="#8B7355" stroke-width="0.15" /><circle cx="56.60774008527053" cy="146.38277303325367" fill="#888" r="1.25" stroke="#444" stroke-width="0.1" /><circle cx="51.60774008527053" cy="146.38277303325367" fill="#888" r="1.25" stroke="#444" stroke-width="0.1" /></g><g opacity="1.0" transform="rotate(41.8, 58.9, 105.1)"><ellipse cx="58.872764672299404" cy="105.05585151342007" fill="#B8A8D4" rx="5.0" ry="2.5" stroke="#55438B" stroke-width="0.15" /><circle cx="61.372764672299404" cy="105.05585151342007" fill="#888" r="1.25" stroke="#444" stroke-width="0.1" /><circle cx="56.372764672299404" cy="105.05585151342007" fill="#888" r="1.25" stroke="#444" stroke-width="0.1" /></g><g opacity="1.0" transform="rotate(-3.2, 61.0, 143.8)"><ellipse cx="61.02090426598299" cy="143.785053627205" fill="#D4C4A8" rx="5.0" ry="2.5" stroke="#8B7355" stroke-width="0.15" /><circle cx="63.52090426598299" cy="143.785053627205" fill="#888" r="1.25" stroke="#444" stroke-width="0.1" /><circle cx="58.52090426598299" cy="143.785053627205" fill="#888" r="1.25" stroke="#444" stroke-width="0.1" /></g><g opacity="1.0" transform="rotate(41.8, 65.8, 103.8)"><ellipse cx="65.84555544257758" cy="103.78076476126091" fill="#B8A8D4" rx="5.0" ry="2.5" stroke="#55438B" stroke-width="0.15" /><circle cx="68.34555544257758" cy="103.78076476126091" fill="#888" r="1.25" stroke="#444" stroke-width="0.1" /><circle cx="63.34555544257758" cy="103.78076476126091" fill="#888" r="1.25" stroke="#444" stroke-width="0.1" /></g><g opacity="1.0" transform="rotate(-3.2, 68.0, 141.8)"><ellipse cx="67.9570816323922" cy="141.8434792071654" fill="#D4C4A8" rx="5.0" ry="2.5" stroke="#8B7355" stroke-width="0.15" /><circle cx="70.4570816323922" cy="141.8434792071654" fill="#888" r="1.25" stroke="#444" stroke-width="0.1" /><circle cx="65.4570816323922" cy="141.8434792071654" fill="#888" r="1.25" stroke="#444" stroke-width="0.1" /></g><g opacity="1.0" transform="rotate(41.8, 73.0, 105.3)"><ellipse cx="72.9770562416295" cy="105.30861674064272" fill="#B8A8D4" rx="5.0" ry="2.5" stroke="#55438B" stroke-width="0.15" /><circle cx="75.4770562416295" cy="105.30861674064272" fill="#888" r="1.25" stroke="#444" stroke-width="0.1" /><circle cx="70.4770562416295" cy="105.30861674064272" fill="#888" r="1.25" stroke="#444" stroke-width="0.1" /></g><g opacity="1.0" transform="rotate(-3.2, 75.0, 142.6)"><ellipse cx="75.04423788717918" cy="142.5699769307754" fill="#D4C4A8" rx="5.0" ry="2.5" stroke="#8B7355" stroke-width="0.15" /><circle cx="77.54423788717918" cy="142.5699769307754" fill="#888" r="1.25" stroke="#444" stroke-width="0.1" /><circle cx="72.54423788717918" cy="142.5699769307754" fill="#888" r="1.25" stroke="#444" stroke-width="0.1" /></g><g opacity="1.0" transform="rotate(41.8, 80.1, 106.8)"><ellipse cx="80.10617224633587" cy="106.78645565512466" fill="#B8A8D4" rx="5.0" ry="2.55" stroke="#55438B" stroke-width="0.15" /><circle cx="82.60617224633587" cy="106.78645565512466" fill="#888" r="1.25" stroke="#444" stroke-width="0.1" /><circle cx="77.60617224633587" cy="106.78645565512466" fill="#888" r="1.25" stroke="#444" stroke-width="0.1" /></g><g opacity="1.0" transform="rotate(-3.2, 82.1, 143.2)"><ellipse cx="82.12899612471071" cy="143.246462322762" fill="#D4C4A8" rx="5.0" ry="2.55" stroke="#8B7355" stroke-width="0.15" /><circle cx="84.62899612471071" cy="143.246462322762" fill="#888" r="1.25" stroke="#444" stroke-width="0.1" /><circle cx="79.62899612471071" cy="143.246462322762" fill="#888" r="1.25" stroke="#444" stroke-width="0.1" /></g><g opacity="1.0" transform="rotate(41.8, 87.2, 108.0)"><ellipse cx="87.19553536804867" cy="107.96562832897621" fill="#B8A8D4" rx="5.0" ry="2.5" stroke="#55438B" stroke-width="0.15" /><circle cx="89.69553536804867" cy="107.96562832897621" fill="#888" r="1.25" stroke="#444" stroke-width="0.1" /><circle cx="84.69553536804867" cy="107.96562832897621" fill="#888" r="1.25" stroke="#444" stroke-width="0.1" /></g><g opacity="1.0" transform="rotate(-3.2, 89.2, 143.6)"><ellipse cx="89.17535021033964" cy="143.62420661595672" fill="#D4C4A8" rx="5.0" ry="2.5" stroke="#8B7355" stroke-width="0.15" /><circle cx="91.67535021033964" cy="143.62420661595672" fill="#888" r="1.25" stroke="#444" stroke-width="0.1" /><circle cx="86.67535021033964" cy="143.62420661595672" fill="#888" r="1.25" stroke="#444" stroke-width="0.1" /></g><g opacity="1.0" transform="rotate(41.8, 94.3, 108.4)"><ellipse cx="94.25171815702319" cy="108.3944617777961" fill="#B8A8D4" rx="5.0" ry="2.5" stroke="#55438B" stroke-width="0.15" /><circle cx="96.75171815702319" cy="108.3944617777961" fill="#888" r="1.25" stroke="#444" stroke-width="0.1" /><circle cx="91.75171815702319" cy="108.3944617777961" fill="#888" r="1.25" stroke="#444" stroke-width="0.1" /></g><g opacity="1.0" transform="rotate(-3.2, 96.2, 143.3)"><ellipse cx="96.18818016523585" cy="143.25163072335806" fill="#D4C4A8" rx="5.0" ry="2.5" stroke="#8B7355" stroke-width="0.15" /><circle cx="98.68818016523585" cy="143.25163072335806" fill="#888" r="1.25" stroke="#444" stroke-width="0.1" /><circle cx="93.68818016523585" cy="143.25163072335806" fill="#888" r="1.25" stroke="#444" stroke-width="0.1" /></g><g opacity="1.0" transform="rotate(41.8, 101.4, 110.2)"><ellipse cx="101.38146051382158" cy="110.2268889912691" fill="#B8A8D4" rx="5.0" ry="2.5" stroke="#55438B" stroke-width="0.15" /><circle cx="103.88146051382158" cy="110.2268889912691" fill="#888" r="1.25" stroke="#444" stroke-width="0.1" /><circle cx="98.88146051382158" cy="110.2268889912691" fill="#888" r="1.25" stroke="#444" stroke-width="0.1" /></g><g opacity="1.0" transform="rotate(-3.2, 103.3, 144.1)"><ellipse cx="103.2674996840199" cy="144.14774524333734" fill="#D4C4A8" rx="5.0" ry="2.5" stroke="#8B7355" stroke-width="0.15" /><circle cx="105.7674996840199" cy="144.14774524333734" fill="#888" r="1.25" stroke="#444" stroke-width="0.1" /><circle cx="100.7674996840199" cy="144.14774524333734" fill="#888" r="1.25" stroke="#444" stroke-width="0.1" /></g><g opacity="1.0" transform="rotate(41.8, 108.1, 112.2)"><ellipse cx="108.14550378406369" cy="112.18656681547714" fill="#B8A8D4" rx="5.0" ry="2.45" stroke="#55438B" stroke-width="0.15" /><circle cx="110.64550378406369" cy="112.18656681547714" fill="#888" r="1.25" stroke="#444" stroke-width="0.1" /><circle cx="105.64550378406369" cy="112.18656681547714" fill="#888" r="1.25" stroke="#444" stroke-width="0.1" /></g><g opacity="1.0" transform="rotate(-3.2, 110.0, 145.0)"><ellipse cx="109.99502702790787" cy="145.03768554959618" fill="#D4C4A8" rx="5.0" ry="2.45" stroke="#8B7355" stroke-width="0.15" /><circle cx="112.49502702790787" cy="145.03768554959618" fill="#888" r="1.25" stroke="#444" stroke-width="0.1" /><circle cx="107.49502702790787" cy="145.03768554959618" fill="#888" r="1.25" stroke="#444" stroke-width="0.1" /></g><g opacity="1.0" transform="rotate(41.8, 114.6, 101.8)"><ellipse cx="114.63515564837425" cy="101.80535143958491" fill="#B8A8D4" rx="5.0" ry="2.5" stroke="#55438B" stroke-width="0.15" /><circle cx="117.13515564837425" cy="101.80535143958491" fill="#888" r="1.25" stroke="#444" stroke-width="0.1" /><circle cx="112.13515564837425" cy="101.80535143958491" fill="#888" r="1.25" stroke="#444" stroke-width="0.1" /></g><g opacity="1.0" transform="rotate(-3.2, 116.5, 134.1)"><ellipse cx="116.45532738874378" cy="134.12222184424093" fill="#D4C4A8" rx="5.0" ry="2.5" stroke="#8B7355" stroke-width="0.15" /><circle cx="118.95532738874378" cy="134.12222184424093" fill="#888" r="1.25" stroke="#444" stroke-width="0.1" /><circle cx="113.95532738874378" cy="134.12222184424093" fill="#888" r="1.25" stroke="#444" stroke-width="0.1" /></g><g opacity="1.0" transform="rotate(41.8, 121.4, 96.2)"><ellipse cx="121.40102647875707" cy="96.23933527927" fill="#B8A8D4" rx="5.0" ry="2.5" stroke="#55438B" stroke-width="0.15" /><circle cx="123.90102647875707" cy="96.23933527927" fill="#888" r="1.25" stroke="#444" stroke-width="0.1" /><circle cx="118.90102647875707" cy="96.23933527927" fill="#888" r="1.25" stroke="#444" stroke-width="0.1" /></g><g opacity="1.0" transform="rotate(-3.2, 123.2, 127.6)"><ellipse cx="123.16957846427471" cy="127.62261190808204" fill="#D4C4A8" rx="5.0" ry="2.5" stroke="#8B7355" stroke-width="0.15" /><circle cx="125.66957846427471" cy="127.62261190808204" fill="#888" r="1.25" stroke="#444" stroke-width="0.1" /><circle cx="120.66957846427471" cy="127.62261190808204" fill="#888" r="1.25" stroke="#444" stroke-width="0.1" /></g><g opacity="1.0" transform="rotate(41.8, 129.0, 107.1)"><ellipse cx="129.01672278049188" cy="107.11427205313635" fill="#B8A8D4" rx="5.0" ry="2.5" stroke="#55438B" stroke-width="0.15" /><circle cx="131.51672278049188" cy="107.11427205313635" fill="#888" r="1.25" stroke="#444" stroke-width="0.1" /><circle cx="126.51672278049188" cy="107.11427205313635" fill="#888" r="1.25" stroke="#444" stroke-width="0.1" /></g><g opacity="1.0" transform="rotate(-3.2, 130.7, 136.5)"><ellipse cx="130.67831027363138" cy="136.49526833547804" fill="#D4C4A8" rx="5.0" ry="2.5" stroke="#8B7355" stroke-width="0.15" /><circle cx="133.17831027363138" cy="136.49526833547804" fill="#888" r="1.25" stroke="#444" stroke-width="0.1" /><circle cx="128.17831027363138" cy="136.49526833547804" fill="#888" r="1.25" stroke="#444" stroke-width="0.1" /></g><g opacity="1.0" transform="rotate(41.8, 136.0, 105.5)"><ellipse cx="135.9726101900776" cy="105.51655496947183" fill="#B8A8D4" rx="5.0" ry="2.5" stroke="#55438B" stroke-width="0.15" /><circle cx="138.4726101900776" cy="105.51655496947183" fill="#888" r="1.25" stroke="#444" stroke-width="0.1" /><circle cx="133.4726101900776" cy="105.51655496947183" fill="#888" r="1.25" stroke="#444" stroke-width="0.1" /></g><g opacity="1.0" transform="rotate(-3.2, 137.6, 133.4)"><ellipse cx="137.55544115051026" cy="133.4269301138254" fill="#D4C4A8" rx="5.0" ry="2.5" stroke="#8B7355" stroke-width="0.15" /><circle cx="140.05544115051026" cy="133.4269301138254" fill="#888" r="1.25" stroke="#444" stroke-width="0.1" /><circle cx="135.05544115051026" cy="133.4269301138254" fill="#888" r="1.25" stroke="#444" stroke-width="0.1" /></g><g opacity="1.0" transform="rotate(41.8, 143.5, 105.8)"><ellipse cx="143.46736055123404" cy="105.7568921866922" fill="#B8A8D4" rx="5.0" ry="2.45" stroke="#55438B" stroke-width="0.15" /><circle cx="146.46736055123404" cy="105.7568921866922" fill="#888" r="1.0" stroke="#444" stroke-width="0.1" /><circle cx="140.46736055123404" cy="105.7568921866922" fill="#888" r="1.0" stroke="#444" stroke-width="0.1" /></g><g opacity="1.0" transform="rotate(-3.2, 144.9, 131.9)"><ellipse cx="144.93280787092834" cy="131.93352592323515" fill="#D4C4A8" rx="5.0" ry="2.45" stroke="#8B7355" stroke-width="0.15" /><circle cx="147.93280787092834" cy="131.93352592323515" fill="#888" r="1.0" stroke="#444" stroke-width="0.1" /><circle cx="141.93280787092834" cy="131.93352592323515" fill="#888" r="1.0" stroke="#444" stroke-width="0.1" /></g><g opacity="1.0" transform="rotate(41.8, 150.4, 104.2)"><ellipse cx="150.42639269776694" cy="104.2191992186938" fill="#B8A8D4" rx="5.0" ry="2.45" stroke="#55438B" stroke-width="0.15" /><circle cx="153.42639269776694" cy="104.2191992186938" fill="#888" r="1.0" stroke="#444" stroke-width="0.1" /><circle cx="147.42639269776694" cy="104.2191992186938" fill="#888" r="1.0" stroke="#444" stroke-width="0.1" /></g><g opacity="1.0" transform="rotate(-3.2, 151.8, 128.7)"><ellipse cx="151.7990822978563" cy="128.65805219210506" fill="#D4C4A8" rx="5.0" ry="2.45" stroke="#8B7355" stroke-width="0.15" /><circle cx="154.7990822978563" cy="128.65805219210506" fill="#888" r="1.0" stroke="#444" stroke-width="0.1" /><circle cx="148.7990822978563" cy="128.65805219210506" fill="#888" r="1.0" stroke="#444" stroke-width="0.1" /></g><g opacity="1.0" transform="rotate(41.8, 157.3, 99.7)"><ellipse cx="157.26055240556198" cy="99.72623862918817" fill="#B8A8D4" rx="5.0" ry="2.35" stroke="#55438B" stroke-width="0.15" /><circle cx="160.26055240556198" cy="99.72623862918817" fill="#888" r="1.0" stroke="#444" stroke-width="0.1" /><circle cx="154.26055240556198" cy="99.72623862918817" fill="#888" r="1.0" stroke="#444" stroke-width="0.1" /></g><g opacity="1.0" transform="rotate(-3.2, 158.5, 122.6)"><ellipse cx="158.5458750550495" cy="122.56230813790955" fill="#D4C4A8" rx="5.0" ry="2.35" stroke="#8B7355" stroke-width="0.15" /><circle cx="161.5458750550495" cy="122.56230813790955" fill="#888" r="1.0" stroke="#444" stroke-width="0.1" /><circle cx="155.5458750550495" cy="122.56230813790955" fill="#888" r="1.0" stroke="#444" stroke-width="0.1" /></g><g opacity="1.0" transform="rotate(41.8, 164.3, 100.3)"><ellipse cx="164.3000662864163" cy="100.29673934870061" fill="#B8A8D4" rx="5.0" ry="2.3" stroke="#55438B" stroke-width="0.15" /><circle cx="167.3000662864163" cy="100.29673934870061" fill="#888" r="1.0" stroke="#444" stroke-width="0.1" /><circle cx="161.3000662864163" cy="100.29673934870061" fill="#888" r="1.0" stroke="#444" stroke-width="0.1" /></g><g opacity="1.0" transform="rotate(-3.2, 165.5, 121.3)"><ellipse cx="165.48737876798526" cy="121.26267285274912" fill="#D4C4A8" rx="5.0" ry="2.3" stroke="#8B7355" stroke-width="0.15" /><circle cx="168.48737876798526" cy="121.26267285274912" fill="#888" r="1.0" stroke="#444" stroke-width="0.1" /><circle cx="162.48737876798526" cy="121.26267285274912" fill="#888" r="1.0" stroke="#444" stroke-width="0.1" /></g><g opacity="1.0" transform="rotate(41.7, 171.2, 97.3)"><ellipse cx="171.18030356729696" cy="97.25550676137414" fill="#B8A8D4" rx="5.0" ry="2.25" stroke="#55438B" stroke-width="0.15" /><circle cx="174.18030356729696" cy="97.25550676137414" fill="#888" r="1.0" stroke="#444" stroke-width="0.1" /><circle cx="168.18030356729696" cy="97.25550676137414" fill="#888" r="1.0" stroke="#444" stroke-width="0.1" /></g><g opacity="1.0" transform="rotate(-3.3, 172.3, 116.6)"><ellipse cx="172.28192802562268" cy="116.61855981542294" fill="#D4C4A8" rx="5.0" ry="2.25" stroke="#8B7355" stroke-width="0.15" /><circle cx="175.28192802562268" cy="116.61855981542294" fill="#888" r="1.0" stroke="#444" stroke-width="0.1" /><circle cx="169.28192802562268" cy="116.61855981542294" fill="#888" r="1.0" stroke="#444" stroke-width="0.1" /></g><g opacity="1.0" transform="rotate(41.7, 178.3, 98.8)"><ellipse cx="178.26942474058092" cy="98.77249471742039" fill="#B8A8D4" rx="5.0" ry="2.25" stroke="#55438B" stroke-width="0.15" /><circle cx="181.26942474058092" cy="98.77249471742039" fill="#888" r="1.0" stroke="#444" stroke-width="0.1" /><circle cx="175.26942474058092" cy="98.77249471742039" fill="#888" r="1.0" stroke="#444" stroke-width="0.1" /></g><g opacity="1.0" transform="rotate(-3.3, 179.3, 116.4)"><ellipse cx="179.2801085534253" cy="116.40031057262422" fill="#D4C4A8" rx="5.0" ry="2.25" stroke="#8B7355" stroke-width="0.15" /><circle cx="182.2801085534253" cy="116.40031057262422" fill="#888" r="1.0" stroke="#444" stroke-width="0.1" /><circle cx="176.2801085534253" cy="116.40031057262422" fill="#888" r="1.0" stroke="#444" stroke-width="0.1" /></g><g opacity="1.0" transform="rotate(41.7, 185.1, 93.7)"><ellipse cx="185.07978494827188" cy="93.71269997429044" fill="#B8A8D4" rx="5.0" ry="1.9" stroke="#55438B" stroke-width="0.15" /><circle cx="188.07978494827188" cy="93.71269997429044" fill="#888" r="1.0" stroke="#444" stroke-width="0.1" /><circle cx="182.07978494827188" cy="93.71269997429044" fill="#888" r="1.0" stroke="#444" stroke-width="0.1" /></g><g opacity="1.0" transform="rotate(-3.3, 186.0, 110.1)"><ellipse cx="186.0237038920623" cy="110.13716957320685" fill="#D4C4A8" rx="5.0" ry="1.9" stroke="#8B7355" stroke-width="0.15" /><circle cx="189.0237038920623" cy="110.13716957320685" fill="#888" r="1.0" stroke="#444" stroke-width="0.1" /><circle cx="183.0237038920623" cy="110.13716957320685" fill="#888" r="1.0" stroke="#444" stroke-width="0.1" /></g><g opacity="1.0" transform="rotate(41.7, 192.1, 93.8)"><ellipse cx="192.0946719645661" cy="93.81319349036494" fill="#B8A8D4" rx="5.0" ry="1.85" stroke="#55438B" stroke-width="0.15" /><circle cx="195.0946719645661" cy="93.81319349036494" fill="#888" r="1.0" stroke="#444" stroke-width="0.1" /><circle cx="189.0946719645661" cy="93.81319349036494" fill="#888" r="1.0" stroke="#444" stroke-width="0.1" /></g><g opacity="1.0" transform="rotate(-3.3, 193.0, 108.9)"><ellipse cx="192.9685828149673" cy="108.90184403217677" fill="#D4C4A8" rx="5.0" ry="1.85" stroke="#8B7355" stroke-width="0.15" /><circle cx="195.9685828149673" cy="108.90184403217677" fill="#888" r="1.0" stroke="#444" stroke-width="0.1" /><circle cx="189.9685828149673" cy="108.90184403217677" fill="#888" r="1.0" stroke="#444" stroke-width="0.1" /></g><g opacity="1.0" transform="rotate(41.7, 199.1, 93.8)"><ellipse cx="199.1041337961712" cy="93.8101267592441" fill="#B8A8D4" rx="5.0" ry="1.9" stroke="#55438B" stroke-width="0.15" /><circle cx="202.1041337961712" cy="93.8101267592441" fill="#888" r="1.0" stroke="#444" stroke-width="0.1" /><circle cx="196.1041337961712" cy="93.8101267592441" fill="#888" r="1.0" stroke="#444" stroke-width="0.1" /></g><g opacity="1.0" transform="rotate(-3.3, 199.9, 107.7)"><ellipse cx="199.91510631745885" cy="107.69785971483611" fill="#D4C4A8" rx="5.0" ry="1.9" stroke="#8B7355" stroke-width="0.15" /><circle cx="202.91510631745885" cy="107.69785971483611" fill="#888" r="1.0" stroke="#444" stroke-width="0.1" /><circle cx="196.91510631745885" cy="107.69785971483611" fill="#888" r="1.0" stroke="#444" stroke-width="0.1" /></g><g opacity="1.0" transform="rotate(41.6, 206.1, 93.6)"><ellipse cx="206.13268854735844" cy="93.59886505925078" fill="#B8A8D4" rx="5.0" ry="1.85" stroke="#55438B" stroke-width="0.15" /><circle cx="209.13268854735844" cy="93.59886505925078" fill="#888" r="1.0" stroke="#444" stroke-width="0.1" /><circle cx="203.13268854735844" cy="93.59886505925078" fill="#888" r="1.0" stroke="#444" stroke-width="0.1" /></g><g opacity="1.0" transform="rotate(-3.4, 206.9, 106.4)"><ellipse cx="206.8859751949592" cy="106.41803574208154" fill="#D4C4A8" rx="5.0" ry="1.85" stroke="#8B7355" stroke-width="0.15" /><circle cx="209.8859751949592" cy="106.41803574208154" fill="#888" r="1.0" stroke="#444" stroke-width="0.1" /><circle cx="203.8859751949592" cy="106.41803574208154" fill="#888" r="1.0" stroke="#444" stroke-width="0.1" /></g><g opacity="1.0" transform="rotate(41.6, 213.1, 92.8)"><ellipse cx="213.09955137482015" cy="92.78290465566238" fill="#B8A8D4" rx="5.0" ry="1.85" stroke="#55438B" stroke-width="0.15" /><circle cx="216.09955137482015" cy="92.78290465566238" fill="#888" r="1.0" stroke="#444" stroke-width="0.1" /><circle cx="210.09955137482015" cy="92.78290465566238" fill="#888" r="1.0" stroke="#444" stroke-width="0.1" /></g><g opacity="1.0" transform="rotate(-3.4, 213.8, 104.7)"><ellipse cx="213.803762139963" cy="104.6656721488988" fill="#D4C4A8" rx="5.0" ry="1.85" stroke="#8B7355" stroke-width="0.15" /><circle cx="216.803762139963" cy="104.6656721488988" fill="#888" r="1.0" stroke="#444" stroke-width="0.1" /><circle cx="210.803762139963" cy="104.6656721488988" fill="#888" r="1.0" stroke="#444" stroke-width="0.1" /></g><g opacity="1.0" transform="rotate(41.6, 220.1, 93.4)"><ellipse cx="220.1425641179556" cy="93.41987536302724" fill="#B8A8D4" rx="5.0" ry="1.85" stroke="#55438B" stroke-width="0.15" /><circle cx="223.1425641179556" cy="93.41987536302724" fill="#888" r="1.0" stroke="#444" stroke-width="0.1" /><circle cx="217.1425641179556" cy="93.41987536302724" fill="#888" r="1.0" stroke="#444" stroke-width="0.1" /></g><g opacity="1.0" transform="rotate(-3.4, 220.8, 104.4)"><ellipse cx="220.79783716823374" cy="104.36888144041825" fill="#D4C4A8" rx="5.0" ry="1.85" stroke="#8B7355" stroke-width="0.15" /><circle cx="223.79783716823374" cy="104.36888144041825" fill="#888" r="1.0" stroke="#444" stroke-width="0.1" /><circle cx="217.79783716823374" cy="104.36888144041825" fill="#888" r="1.0" stroke="#444" stroke-width="0.1" /></g><g opacity="1.0" transform="rotate(41.6, 227.2, 92.9)"><ellipse cx="227.1574956456448" cy="92.9485914128079" fill="#B8A8D4" rx="5.0" ry="1.8" stroke="#55438B" stroke-width="0.15" /><circle cx="230.1574956456448" cy="92.9485914128079" fill="#888" r="1.0" stroke="#444" stroke-width="0.1" /><circle cx="224.1574956456448" cy="92.9485914128079" fill="#888" r="1.0" stroke="#444" stroke-width="0.1" /></g><g opacity="1.0" transform="rotate(-3.4, 227.8, 103.1)"><ellipse cx="227.76908383686722" cy="103.09619473788212" fill="#D4C4A8" rx="5.0" ry="1.8" stroke="#8B7355" stroke-width="0.15" /><circle cx="230.76908383686722" cy="103.09619473788212" fill="#888" r="1.0" stroke="#444" stroke-width="0.1" /><circle cx="224.76908383686722" cy="103.09619473788212" fill="#888" r="1.0" stroke="#444" stroke-width="0.1" /></g><g opacity="1.0" transform="rotate(41.5, 234.2, 93.5)"><ellipse cx="234.19755981011136" cy="93.52916419503447" fill="#B8A8D4" rx="4.694722634776184" ry="1.8" stroke="#55438B" stroke-width="0.15" /><circle cx="236.89228244488754" cy="93.52916419503447" fill="#888" r="1.0" stroke="#444" stroke-width="0.1" /><circle cx="231.50283717533517" cy="93.52916419503447" fill="#888" r="1.0" stroke="#444" stroke-width="0.1" /></g><g opacity="1.0" transform="rotate(-3.5, 234.8, 102.9)"><ellipse cx="234.76714104952958" cy="102.87526055740705" fill="#D4C4A8" rx="4.694722634776184" ry="1.8" stroke="#8B7355" stroke-width="0.15" /><circle cx="237.46186368430577" cy="102.87526055740705" fill="#888" r="1.0" stroke="#444" stroke-width="0.1" /><circle cx="232.0724184147534" cy="102.87526055740705" fill="#888" r="1.0" stroke="#444" stroke-width="0.1" /></g><g opacity="1.0" transform="rotate(41.6, 241.4, 92.7)"><ellipse cx="241.39935747045294" cy="92.6889501393473" fill="#B8A8D4" rx="4.450577844638616" ry="1.8" stroke="#55438B" stroke-width="0.15" /><circle cx="244.34993531509156" cy="92.6889501393473" fill="#888" r="0.75" stroke="#444" stroke-width="0.1" /><circle cx="238.44877962581432" cy="92.6889501393473" fill="#888" r="0.75" stroke="#444" stroke-width="0.1" /></g><g opacity="1.0" transform="rotate(-3.4, 241.9, 101.4)"><ellipse cx="241.92064870595001" cy="101.36660157978145" fill="#D4C4A8" rx="4.450577844638616" ry="1.8" stroke="#8B7355" stroke-width="0.15" /><circle cx="244.87122655058863" cy="101.36660157978145" fill="#888" r="0.75" stroke="#444" stroke-width="0.1" /><circle cx="238.9700708613114" cy="101.36660157978145" fill="#888" r="0.75" stroke="#444" stroke-width="0.1" /></g><g opacity="1.0" transform="rotate(41.5, 248.4, 92.8)"><ellipse cx="248.43703340945075" cy="92.76438588910196" fill="#B8A8D4" rx="4.2115727065930315" ry="1.75" stroke="#55438B" stroke-width="0.15" /><circle cx="251.14860611604377" cy="92.76438588910196" fill="#888" r="0.75" stroke="#444" stroke-width="0.1" /><circle cx="245.72546070285773" cy="92.76438588910196" fill="#888" r="0.75" stroke="#444" stroke-width="0.1" /></g><g opacity="1.0" transform="rotate(-3.5, 248.9, 100.8)"><ellipse cx="248.92204043694238" cy="100.77552033587676" fill="#D4C4A8" rx="4.2115727065930315" ry="1.75" stroke="#8B7355" stroke-width="0.15" /><circle cx="251.6336131435354" cy="100.77552033587676" fill="#888" r="0.75" stroke="#444" stroke-width="0.1" /><circle cx="246.21046773034936" cy="100.77552033587676" fill="#888" r="0.75" stroke="#444" stroke-width="0.1" /></g><g opacity="1.0" transform="rotate(41.5, 255.5, 93.7)"><ellipse cx="255.49771789348674" cy="93.73845844090636" fill="#B8A8D4" rx="3.977422054490276" ry="1.75" stroke="#55438B" stroke-width="0.15" /><circle cx="257.975139947977" cy="93.73845844090636" fill="#888" r="0.75" stroke="#444" stroke-width="0.1" /><circle cx="253.02029583899645" cy="93.73845844090636" fill="#888" r="0.75" stroke="#444" stroke-width="0.1" /></g><g opacity="1.0" transform="rotate(-3.5, 255.9, 101.1)"><ellipse cx="255.9476495518066" cy="101.0803461200777" fill="#D4C4A8" rx="3.977422054490276" ry="1.75" stroke="#8B7355" stroke-width="0.15" /><circle cx="258.42507160629685" cy="101.0803461200777" fill="#888" r="0.75" stroke="#444" stroke-width="0.1" /><circle cx="253.47022749731633" cy="101.0803461200777" fill="#888" r="0.75" stroke="#444" stroke-width="0.1" /></g><g opacity="1.0" transform="rotate(41.5, 262.3, 90.7)"><ellipse cx="262.3483813841175" cy="90.70523638501538" fill="#B8A8D4" rx="3.8839759245678636" ry="1.75" stroke="#55438B" stroke-width="0.15" /><circle cx="264.7323573086853" cy="90.70523638501538" fill="#888" r="0.75" stroke="#444" stroke-width="0.1" /><circle cx="259.96440545954965" cy="90.70523638501538" fill="#888" r="0.75" stroke="#444" stroke-width="0.1" /></g><g opacity="1.0" transform="rotate(-3.5, 262.8, 97.6)"><ellipse cx="262.7773783839782" cy="97.64769001058187" fill="#D4C4A8" rx="3.8839759245678636" ry="1.75" stroke="#8B7355" stroke-width="0.15" /><circle cx="265.16135430854604" cy="97.64769001058187" fill="#888" r="0.75" stroke="#444" stroke-width="0.1" /><circle cx="260.39340245941037" cy="97.64769001058187" fill="#888" r="0.75" stroke="#444" stroke-width="0.1" /></g><g opacity="1.0" transform="rotate(41.4, 269.5, 93.2)"><ellipse cx="269.4903222782333" cy="93.22945761458936" fill="#B8A8D4" rx="3.6634332967151266" ry="1.8" stroke="#55438B" stroke-width="0.15" /><circle cx="271.65375557494843" cy="93.22945761458936" fill="#888" r="0.75" stroke="#444" stroke-width="0.1" /><circle cx="267.32688898151815" cy="93.22945761458936" fill="#888" r="0.75" stroke="#444" stroke-width="0.1" /></g><g opacity="1.0" transform="rotate(-3.6, 269.9, 99.5)"><ellipse cx="269.88424254213874" cy="99.50265612791054" fill="#D4C4A8" rx="3.6634332967151266" ry="1.8" stroke="#8B7355" stroke-width="0.15" /><circle cx="272.0476758388539" cy="99.50265612791054" fill="#888" r="0.75" stroke="#444" stroke-width="0.1" /><circle cx="267.7208092454236" cy="99.50265612791054" fill="#888" r="0.75" stroke="#444" stroke-width="0.1" /></g><g opacity="1.0" transform="rotate(41.4, 276.4, 91.7)"><ellipse cx="276.443386199536" cy="91.69484077496065" fill="#B8A8D4" rx="3.5835852874659366" ry="1.75" stroke="#55438B" stroke-width="0.15" /><circle cx="278.52697148700196" cy="91.69484077496065" fill="#888" r="0.75" stroke="#444" stroke-width="0.1" /><circle cx="274.35980091207006" cy="91.69484077496065" fill="#888" r="0.75" stroke="#444" stroke-width="0.1" /></g><g opacity="1.0" transform="rotate(-3.6, 276.8, 97.6)"><ellipse cx="276.8150366443788" cy="97.56868351787284" fill="#D4C4A8" rx="3.5835852874659366" ry="1.75" stroke="#8B7355" stroke-width="0.15" /><circle cx="278.89862193184473" cy="97.56868351787284" fill="#888" r="0.75" stroke="#444" stroke-width="0.1" /><circle cx="274.7314513569128" cy="97.56868351787284" fill="#888" r="0.75" stroke="#444" stroke-width="0.1" /></g><g opacity="1.0" transform="rotate(41.3, 283.4, 90.8)"><ellipse cx="283.40660318016387" cy="90.80890281546658" fill="#B8A8D4" rx="3.5098883812672597" ry="1.75" stroke="#55438B" stroke-width="0.15" /><circle cx="285.41649156143114" cy="90.80890281546658" fill="#888" r="0.75" stroke="#444" stroke-width="0.1" /><circle cx="281.3967147988966" cy="90.80890281546658" fill="#888" r="0.75" stroke="#444" stroke-width="0.1" /></g><g opacity="1.0" transform="rotate(-3.7, 283.8, 96.3)"><ellipse cx="283.7571788120908" cy="96.28065765236431" fill="#D4C4A8" rx="3.5098883812672597" ry="1.75" stroke="#8B7355" stroke-width="0.15" /><circle cx="285.76706719335806" cy="96.28065765236431" fill="#888" r="0.75" stroke="#444" stroke-width="0.1" /><circle cx="281.7472904308235" cy="96.28065765236431" fill="#888" r="0.75" stroke="#444" stroke-width="0.1" /></g><g opacity="1.0" transform="rotate(41.3, 290.4, 90.5)"><ellipse cx="290.40142845683613" cy="90.5259028730427" fill="#B8A8D4" rx="3.44225760614772" ry="1.75" stroke="#55438B" stroke-width="0.15" /><circle cx="292.34368606298386" cy="90.5259028730427" fill="#888" r="0.75" stroke="#444" stroke-width="0.1" /><circle cx="288.4591708506884" cy="90.5259028730427" fill="#888" r="0.75" stroke="#444" stroke-width="0.1" /></g><g opacity="1.0" transform="rotate(-3.7, 290.7, 95.6)"><ellipse cx="290.7310671632183" cy="95.5982111900646" fill="#D4C4A8" rx="3.44225760614772" ry="1.75" stroke="#8B7355" stroke-width="0.15" /><circle cx="292.67332476936605" cy="95.5982111900646" fill="#888" r="0.75" stroke="#444" stroke-width="0.1" /><circle cx="288.7888095570706" cy="95.5982111900646" fill="#888" r="0.75" stroke="#444" stroke-width="0.1" /></g><g opacity="1.0" transform="rotate(41.2, 297.4, 90.8)"><ellipse cx="297.4369424173425" cy="90.78933217594783" fill="#B8A8D4" rx="3.378698471128672" ry="1.75" stroke="#55438B" stroke-width="0.15" /><circle cx="299.3156408884712" cy="90.78933217594783" fill="#888" r="0.75" stroke="#444" stroke-width="0.1" /><circle cx="295.5582439462138" cy="90.78933217594783" fill="#888" r="0.75" stroke="#444" stroke-width="0.1" /></g><g opacity="1.0" transform="rotate(-3.8, 297.7, 95.5)"><ellipse cx="297.7448312291501" cy="95.459588099788" fill="#D4C4A8" rx="3.378698471128672" ry="1.75" stroke="#8B7355" stroke-width="0.15" /><circle cx="299.6235297002788" cy="95.459588099788" fill="#888" r="0.75" stroke="#444" stroke-width="0.1" /><circle cx="295.8661327580214" cy="95.459588099788" fill="#888" r="0.75" stroke="#444" stroke-width="0.1" /></g><g opacity="1.0" transform="rotate(41.2, 304.5, 91.5)"><ellipse cx="304.4962080174987" cy="91.50571278456869" fill="#B8A8D4" rx="3.3187723405830525" ry="1.7" stroke="#55438B" stroke-width="0.15" /><circle cx="306.31498035808175" cy="91.50571278456869" fill="#888" r="0.75" stroke="#444" stroke-width="0.1" /><circle cx="302.67743567691565" cy="91.50571278456869" fill="#888" r="0.75" stroke="#444" stroke-width="0.1" /></g><g opacity="1.0" transform="rotate(-3.8, 304.8, 95.8)"><ellipse cx="304.7824845689481" cy="95.77655695553142" fill="#D4C4A8" rx="3.3187723405830525" ry="1.7" stroke="#8B7355" stroke-width="0.15" /><circle cx="306.6012569095312" cy="95.77655695553142" fill="#888" r="0.75" stroke="#444" stroke-width="0.1" /><circle cx="302.96371222836507" cy="95.77655695553142" fill="#888" r="0.75" stroke="#444" stroke-width="0.1" /></g><g opacity="1.0" transform="rotate(41.1, 311.6, 92.7)"><ellipse cx="311.56694370345576" cy="92.67015900106185" fill="#B8A8D4" rx="3.2608850856080664" ry="1.65" stroke="#55438B" stroke-width="0.15" /><circle cx="313.3278287890638" cy="92.67015900106185" fill="#888" r="0.75" stroke="#444" stroke-width="0.1" /><circle cx="309.8060586178477" cy="92.67015900106185" fill="#888" r="0.75" stroke="#444" stroke-width="0.1" /></g><g opacity="1.0" transform="rotate(-3.9, 311.8, 96.5)"><ellipse cx="311.83214079715094" cy="96.5388937038689" fill="#D4C4A8" rx="3.2608850856080664" ry="1.65" stroke="#8B7355" stroke-width="0.15" /><circle cx="313.593025882759" cy="96.5388937038689" fill="#888" r="0.75" stroke="#444" stroke-width="0.1" /><circle cx="310.0712557115429" cy="96.5388937038689" fill="#888" r="0.75" stroke="#444" stroke-width="0.1" /></g><g opacity="1.0" transform="rotate(41.0, 318.7, 94.2)"><ellipse cx="318.65621901428824" cy="94.18766018065412" fill="#B8A8D4" rx="3.2049766626683933" ry="1.65" stroke="#55438B" stroke-width="0.15" /><circle cx="320.36119567695664" cy="94.18766018065412" fill="#888" r="0.75" stroke="#444" stroke-width="0.1" /><circle cx="316.95124235161984" cy="94.18766018065412" fill="#888" r="0.75" stroke="#444" stroke-width="0.1" /></g><g opacity="1.0" transform="rotate(-4.0, 318.9, 97.7)"><ellipse cx="318.90047267009373" cy="97.65692023776762" fill="#D4C4A8" rx="3.2049766626683933" ry="1.65" stroke="#8B7355" stroke-width="0.15" /><circle cx="320.60544933276213" cy="97.65692023776762" fill="#888" r="0.75" stroke="#444" stroke-width="0.1" /><circle cx="317.19549600742533" cy="97.65692023776762" fill="#888" r="0.75" stroke="#444" stroke-width="0.1" /></g><g opacity="1.0" transform="rotate(40.9, 325.7, 93.6)"><ellipse cx="325.6555452628829" cy="93.64723233614131" fill="#B8A8D4" rx="3.2158589266882984" ry="1.6" stroke="#55438B" stroke-width="0.15" /><circle cx="327.3714041895712" cy="93.64723233614131" fill="#888" r="0.75" stroke="#444" stroke-width="0.1" /><circle cx="323.93968633619465" cy="93.64723233614131" fill="#888" r="0.75" stroke="#444" stroke-width="0.1" /></g><g opacity="1.0" transform="rotate(-4.1, 325.9, 96.8)"><ellipse cx="325.88478636053037" cy="96.84935813468701" fill="#D4C4A8" rx="3.2158589266882984" ry="1.6" stroke="#8B7355" stroke-width="0.15" /><circle cx="327.60064528721864" cy="96.84935813468701" fill="#888" r="0.75" stroke="#444" stroke-width="0.1" /><circle cx="324.1689274338421" cy="96.84935813468701" fill="#888" r="0.75" stroke="#444" stroke-width="0.1" /></g><g opacity="1.0" transform="rotate(40.8, 332.7, 93.4)"><ellipse cx="332.65015625093815" cy="93.35820229523256" fill="#B8A8D4" rx="3.226014007921499" ry="1.65" stroke="#55438B" stroke-width="0.15" /><circle cx="334.37617025885964" cy="93.35820229523256" fill="#888" r="0.75" stroke="#444" stroke-width="0.1" /><circle cx="330.92414224301666" cy="93.35820229523256" fill="#888" r="0.75" stroke="#444" stroke-width="0.1" /></g><g opacity="1.0" transform="rotate(-4.2, 332.9, 96.3)"><ellipse cx="332.8653847933245" cy="96.29311538252239" fill="#D4C4A8" rx="3.226014007921499" ry="1.65" stroke="#8B7355" stroke-width="0.15" /><circle cx="334.591398801246" cy="96.29311538252239" fill="#888" r="0.75" stroke="#444" stroke-width="0.1" /><circle cx="331.139370785403" cy="96.29311538252239" fill="#888" r="0.75" stroke="#444" stroke-width="0.1" /></g><g opacity="1.0" transform="rotate(40.7, 339.7, 93.3)"><ellipse cx="339.6553062949639" cy="93.26935774038725" fill="#B8A8D4" rx="3.2335127356116686" ry="1.6" stroke="#55438B" stroke-width="0.15" /><circle cx="341.3888190305756" cy="93.26935774038725" fill="#888" r="0.75" stroke="#444" stroke-width="0.1" /><circle cx="337.92179355935224" cy="93.26935774038725" fill="#888" r="0.75" stroke="#444" stroke-width="0.1" /></g><g opacity="1.0" transform="rotate(-4.3, 339.9, 95.9)"><ellipse cx="339.8565190548557" cy="95.93704770588852" fill="#D4C4A8" rx="3.2335127356116686" ry="1.6" stroke="#8B7355" stroke-width="0.15" /><circle cx="341.5900317904674" cy="95.93704770588852" fill="#888" r="0.75" stroke="#444" stroke-width="0.1" /><circle cx="338.12300631924404" cy="95.93704770588852" fill="#888" r="0.75" stroke="#444" stroke-width="0.1" /></g><g opacity="1.0" transform="rotate(40.5, 346.7, 93.4)"><ellipse cx="346.6710209248405" cy="93.3807596338911" fill="#B8A8D4" rx="3.2379794181173764" ry="1.6" stroke="#55438B" stroke-width="0.15" /><circle cx="348.4090003429579" cy="93.3807596338911" fill="#888" r="0.75" stroke="#444" stroke-width="0.1" /><circle cx="344.9330415067231" cy="93.3807596338911" fill="#888" r="0.75" stroke="#444" stroke-width="0.1" /></g><g opacity="1.0" transform="rotate(-4.5, 346.9, 95.8)"><ellipse cx="346.85821324212225" cy="95.78121264552078" fill="#D4C4A8" rx="3.2379794181173764" ry="1.6" stroke="#8B7355" stroke-width="0.15" /><circle cx="348.59619266023964" cy="95.78121264552078" fill="#888" r="0.75" stroke="#444" stroke-width="0.1" /><circle cx="345.12023382400486" cy="95.78121264552078" fill="#888" r="0.75" stroke="#444" stroke-width="0.1" /></g><g opacity="1.0" transform="rotate(40.4, 353.7, 93.5)"><ellipse cx="353.6894808186271" cy="93.54249883762986" fill="#B8A8D4" rx="3.2372258121883206" ry="1.6" stroke="#55438B" stroke-width="0.15" /><circle cx="355.42670663081543" cy="93.54249883762986" fill="#888" r="0.75" stroke="#444" stroke-width="0.1" /><circle cx="351.95225500643875" cy="93.54249883762986" fill="#888" r="0.75" stroke="#444" stroke-width="0.1" /></g><g opacity="1.0" transform="rotate(-4.6, 353.9, 95.7)"><ellipse cx="353.8626456846067" cy="95.6756959636192" fill="#D4C4A8" rx="3.2372258121883206" ry="1.6" stroke="#8B7355" stroke-width="0.15" /><circle cx="355.59987149679506" cy="95.6756959636192" fill="#888" r="0.75" stroke="#444" stroke-width="0.1" /><circle cx="352.1254198724184" cy="95.6756959636192" fill="#888" r="0.75" stroke="#444" stroke-width="0.1" /></g><g opacity="1.0" transform="rotate(40.1, 360.7, 93.8)"><ellipse cx="360.7133790437034" cy="93.80471690885486" fill="#B8A8D4" rx="3.229955530346075" ry="1.6" stroke="#55438B" stroke-width="0.15" /><circle cx="362.44333457404946" cy="93.80471690885486" fill="#888" r="0.75" stroke="#444" stroke-width="0.1" /><circle cx="358.98342351335737" cy="93.80471690885486" fill="#888" r="0.75" stroke="#444" stroke-width="0.1" /></g><g opacity="1.0" transform="rotate(-4.9, 360.9, 95.7)"><ellipse cx="360.87250537056264" cy="95.67063127243705" fill="#D4C4A8" rx="3.229955530346075" ry="1.6" stroke="#8B7355" stroke-width="0.15" /><circle cx="362.6024609009087" cy="95.67063127243705" fill="#888" r="0.75" stroke="#444" stroke-width="0.1" /><circle cx="359.1425498402166" cy="95.67063127243705" fill="#888" r="0.75" stroke="#444" stroke-width="0.1" /></g><g opacity="1.0" transform="rotate(39.8, 367.7, 94.0)"><ellipse cx="367.73499026926356" cy="94.01764692241022" fill="#B8A8D4" rx="3.2154262188818308" ry="1.55" stroke="#55438B" stroke-width="0.15" /><circle cx="369.4504164881454" cy="94.01764692241022" fill="#888" r="0.75" stroke="#444" stroke-width="0.1" /><circle cx="366.01956405038175" cy="94.01764692241022" fill="#888" r="0.75" stroke="#444" stroke-width="0.1" /></g><g opacity="1.0" transform="rotate(-5.2, 367.9, 95.6)"><ellipse cx="367.8800593452904" cy="95.61623856533254" fill="#D4C4A8" rx="3.2154262188818308" ry="1.55" stroke="#8B7355" stroke-width="0.15" /><circle cx="369.59548556417224" cy="95.61623856533254" fill="#888" r="0.75" stroke="#444" stroke-width="0.1" /><circle cx="366.1646331264086" cy="95.61623856533254" fill="#888" r="0.75" stroke="#444" stroke-width="0.1" /></g><line stroke="#FF0000" stroke-width="1.1555" x1="84.64187005621781" x2="41.34310790365647" y1="824.0" y2="108.59455931593675" /><path d="M 41.3,108.6 A 1.8,1.8 0 0,0 43.8,106.8" fill="none" stroke="#FF0000" stroke-width="1.1555" /><line stroke="#FF0000" stroke-width="1.1555" x1="43.804637928760506" x2="48.52640971532785" y1="106.78013455681116" y2="111.00543498165837" /><path d="M 48.5,111.0 A 1.8,1.8 0 0,0 45.1,112.1" fill="none" stroke="#FF0000" stroke-width="1.1555" /><line stroke="#FF0000" stroke-width="1.1555" x1="45.083315572656" x2="42.675076691928254" y1="112.07650587320973" y2="67.70273964868375" /><path d="M 42.7,67.7 A 1.8,1.8 0 0,1 42.9,67.0" fill="none" stroke="#FF0000" stroke-width="1.1555" /><line stroke="#FF0000" stroke-width="1.1555" x1="42.925076691928254" x2="83.95" y1="66.95273964868375" y2="42.9819436225531" /><path d="M 84.0,43.0 A 1.5,1.5 0 0,1 84.1,42.5" fill="none" stroke="#FF0000" stroke-width="1.1555" /><circle cx="45.0" cy="67.58805890014798" fill="#888" opacity="1.0" r="1.75" stroke="#444" stroke-width="0.15" /><circle cx="85.0" cy="44.03194362255306" fill="#654321" r="1.5" stroke="#333" stroke-width="0.15" /><line stroke="#999999" stroke-width="1.054" x1="90.86273939999349" x2="48.284933606271366" y1="808.95" y2="105.41573820332178" /><path d="M 48.3,105.4 A 1.8,1.8 0 0,0 50.7,103.7" fill="none" stroke="#999999" stroke-width="1.054" /><line stroke="#999999" stroke-width="1.054" x1="50.69622629465043" x2="55.363399741581006" y1="103.65844032013456" y2="107.83501887276066" /><path d="M 55.4,107.8 A 1.8,1.8 0 0,0 52.0,108.9" fill="none" stroke="#999999" stroke-width="1.054" /><line stroke="#999999" stroke-width="1.054" x1="52.02471993931096" x2="49.60606926823348" y1="108.89378419167508" y2="65.23300822380088" /><path d="M 49.6,65.2 A 1.8,1.8 0 0,1 49.9,64.5" fill="none" stroke="#999999" stroke-width="1.054" /><line stroke="#999999" stroke-width="1.054" x1="49.85606926823348" x2="90.83030239243676" y1="64.48300822380088" y2="43.417113471656535" /><path d="M 90.8,43.4 A 1.5,1.5 0 0,1 91.0,42.9" fill="none" stroke="#999999" stroke-width="1.054" /><circle cx="51.88030239243677" cy="65.1207910380557" fill="#888" opacity="1.0" r="1.75" stroke="#444" stroke-width="0.15" /><circle cx="91.88030239243676" cy="44.46711347165649" fill="#654321" r="1.5" stroke="#333" stroke-width="0.15" /><line stroke="#999999" stroke-width="0.965" x1="97.14649807890882" x2="55.27997455571141" y1="795.1" y2="103.48473212389297" /><path d="M 55.3,103.5 A 1.7,1.7 0 0,0 57.6,101.8" fill="none" stroke="#999999" stroke-width="0.965" /><line stroke="#999999" stroke-width="0.965" x1="57.64623460978121" x2="62.26682398874732" y1="101.77732493799942" y2="105.91228239588122" /><path d="M 62.3,105.9 A 1.7,1.7 0 0,0 59.0,107.0" fill="none" stroke="#999999" stroke-width="0.965" /><line stroke="#999999" stroke-width="0.965" x1="59.01945279675493" x2="56.59632459583151" y1="106.95962408927937" y2="64.01349650041936" /><path d="M 56.6,64.0 A 1.8,1.8 0 0,1 56.8,63.3" fill="none" stroke="#999999" stroke-width="0.965" /><line stroke="#999999" stroke-width="0.965" x1="56.84632459583151" x2="97.77611091782533" y1="63.263496500419365" y2="43.85642649534236" /><path d="M 97.8,43.9 A 1.5,1.5 0 0,1 97.9,43.4" fill="none" stroke="#999999" stroke-width="0.965" /><circle cx="58.82611091782533" cy="63.90345465270104" fill="#888" opacity="1.0" r="1.75" stroke="#444" stroke-width="0.15" /><circle cx="98.82611091782533" cy="44.906426495342316" fill="#654321" r="1.5" stroke="#333" stroke-width="0.15" /><line stroke="#0000FF" stroke-width="0.9015" x1="103.46694220332228" x2="62.284456419031166" y1="781.95" y2="102.20799910549601" /><path d="M 62.3,102.2 A 1.7,1.7 0 0,0 64.6,100.5" fill="none" stroke="#0000FF" stroke-width="0.9015" /><line stroke="#0000FF" stroke-width="0.9015" x1="64.6180125680055" x2="69.20614837961584" y1="100.53603987059807" y2="104.64187813157196" /><path d="M 69.2,104.6 A 1.7,1.7 0 0,0 66.0,105.7" fill="none" stroke="#0000FF" stroke-width="0.9015" /><line stroke="#0000FF" stroke-width="0.9015" x1="66.02385663925836" x2="63.60791217067283" y1="105.68123408126621" y2="63.44464328611741" /><path d="M 63.6,63.4 A 1.8,1.8 0 0,1 63.9,62.7" fill="none" stroke="#0000FF" stroke-width="0.9015" /><line stroke="#0000FF" stroke-width="0.9015" x1="63.85791217067283" x2="104.75598809089988" y1="62.69464328611741" y2="44.297894315056965" /><path d="M 104.8,44.3 A 1.5,1.5 0 0,1 104.9,43.8" fill="none" stroke="#0000FF" stroke-width="0.9015" /><circle cx="65.80598809089989" cy="63.336186790608735" fill="#888" opacity="1.0" r="1.75" stroke="#444" stroke-width="0.15" /><circle cx="105.80598809089989" cy="45.34789431505692" fill="#654321" r="1.5" stroke="#333" stroke-width="0.15" /><line stroke="#999999" stroke-width="0.813" x1="109.80834943944895" x2="69.46014068551833" y1="769.2" y2="103.73351940918849" /><path d="M 69.5,103.7 A 1.7,1.7 0 0,0 71.7,102.1" fill="none" stroke="#999999" stroke-width="0.813" /><line stroke="#999999" stroke-width="0.813" x1="71.74738025616789" x2="76.29124656010555" y1="102.11082352175276" y2="106.17702161909483" /><path d="M 76.3,106.2 A 1.7,1.7 0 0,0 73.2,107.2" fill="none" stroke="#999999" stroke-width="0.813" /><line stroke="#999999" stroke-width="0.813" x1="73.19933568637609" x2="70.78640506247251" y1="107.20403072976865" y2="65.82169365711161" /><path d="M 70.8,65.8 A 1.8,1.8 0 0,1 71.0,65.1" fill="none" stroke="#999999" stroke-width="0.813" /><line stroke="#999999" stroke-width="0.813" x1="71.03640506247251" x2="111.89028506410716" y1="65.07169365711161" y2="44.74912897891454" /><path d="M 111.9,44.7 A 1.5,1.5 0 0,1 112.0,44.2" fill="none" stroke="#999999" stroke-width="0.813" /><circle cx="72.94028506410716" cy="65.71542424214044" fill="#888" opacity="1.0" r="1.75" stroke="#444" stroke-width="0.15" /><circle cx="112.94028506410716" cy="45.799128978914496" fill="#654321" r="1.5" stroke="#333" stroke-width="0.15" /><line stroke="#999999" stroke-width="0.724" x1="116.14713628661146" x2="76.63369009834531" y1="756.4" y2="105.20901106795918" /><path d="M 76.6,105.2 A 1.6,1.6 0 0,0 78.9,103.6" fill="none" stroke="#999999" stroke-width="0.724" /><line stroke="#999999" stroke-width="0.724" x1="78.87347473403844" x2="83.37399739584879" y1="103.63565498812329" y2="107.66304380939721" /><path d="M 83.4,107.7 A 1.6,1.6 0 0,0 80.4,108.7" fill="none" stroke="#999999" stroke-width="0.724" /><line stroke="#999999" stroke-width="0.724" x1="80.37267455328973" x2="77.96252729874429" y1="108.67675671858376" y2="68.14873246143338" /><path d="M 78.0,68.1 A 1.8,1.8 0 0,1 78.2,67.4" fill="none" stroke="#999999" stroke-width="0.724" /><line stroke="#999999" stroke-width="0.724" x1="78.21252729874429" x2="119.02196164835028" y1="67.39873246143338" y2="45.20019790670324" /><path d="M 119.0,45.2 A 1.5,1.5 0 0,1 119.2,44.7" fill="none" stroke="#999999" stroke-width="0.724" /><circle cx="80.07196164835028" cy="68.04466169367231" fill="#888" opacity="1.0" r="1.75" stroke="#444" stroke-width="0.15" /><circle cx="120.07196164835028" cy="46.25019790670319" fill="#654321" r="1.5" stroke="#333" stroke-width="0.15" /><line stroke="#999999" stroke-width="0.686" x1="122.47020079998907" x2="83.74196271487466" y1="743.3" y2="106.38732302693609" /><path d="M 83.7,106.4 A 1.6,1.6 0 0,0 86.0,104.8" fill="none" stroke="#999999" stroke-width="0.686" /><line stroke="#999999" stroke-width="0.686" x1="85.96115841375618" x2="90.44369283148909" y1="104.83487577811695" y2="108.84583915184555" /><path d="M 90.4,108.8 A 1.6,1.6 0 0,0 87.5,109.9" fill="none" stroke="#999999" stroke-width="0.686" /><line stroke="#999999" stroke-width="0.686" x1="87.48122172270119" x2="85.09745427505277" y1="109.85535310546311" y2="70.17694864595308" /><path d="M 85.1,70.2 A 1.8,1.8 0 0,1 85.3,69.4" fill="none" stroke="#999999" stroke-width="0.686" /><line stroke="#999999" stroke-width="0.686" x1="85.34745427505277" x2="126.13791589880849" y1="69.42694864595308" y2="45.65027241807968" /><path d="M 126.1,45.7 A 1.5,1.5 0 0,1 126.3,45.2" fill="none" stroke="#999999" stroke-width="0.686" /><circle cx="87.18791589880848" cy="70.073899145204" fill="#888" opacity="1.0" r="1.75" stroke="#444" stroke-width="0.15" /><circle cx="127.18791589880848" cy="46.700272418079635" fill="#654321" r="1.5" stroke="#333" stroke-width="0.15" /><line stroke="#FF0000" stroke-width="0.635" x1="128.7539594789044" x2="90.82355840585029" y1="729.45" y2="106.81492171125069" /><path d="M 90.8,106.8 A 1.6,1.6 0 0,0 93.0,105.3" fill="none" stroke="#FF0000" stroke-width="0.635" /><line stroke="#FF0000" stroke-width="0.635" x1="93.01490959523964" x2="97.47355068815348" y1="105.2905260372404" y2="109.27984736687608" /><path d="M 97.5,109.3 A 1.6,1.6 0 0,0 94.6,110.3" fill="none" stroke="#FF0000" stroke-width="0.635" /><line stroke="#FF0000" stroke-width="0.635" x1="94.56297974953773" x2="92.19956843938284" y1="110.28247322754726" y2="71.45486311487105" /><path d="M 92.2,71.5 A 1.8,1.8 0 0,1 92.4,70.7" fill="none" stroke="#FF0000" stroke-width="0.635" /><line stroke="#FF0000" stroke-width="0.635" x1="92.44956843938284" x2="133.21456431480442" y1="70.70486311487105" y2="46.09786088842543" /><path d="M 133.2,46.1 A 1.5,1.5 0 0,1 133.4,45.6" fill="none" stroke="#FF0000" stroke-width="0.635" /><circle cx="94.2645643148044" cy="71.35313659673591" fill="#888" opacity="1.0" r="1.75" stroke="#444" stroke-width="0.15" /><circle cx="134.2645643148044" cy="47.147860888425384" fill="#654321" r="1.5" stroke="#333" stroke-width="0.15" /><line stroke="#999999" stroke-width="0.584" x1="134.98531037853667" x2="97.9786914020588" y1="714.6" y2="108.64616390666356" /><path d="M 98.0,108.6 A 1.5,1.5 0 0,0 100.1,107.1" fill="none" stroke="#999999" stroke-width="0.584" /><line stroke="#999999" stroke-width="0.584" x1="100.14189571159034" x2="104.57708589503865" y1="107.14971380921179" y2="111.11767876608769" /><path d="M 104.6,111.1 A 1.5,1.5 0 0,0 101.7,112.1" fill="none" stroke="#999999" stroke-width="0.584" /><line stroke="#999999" stroke-width="0.584" x1="101.71840176480322" x2="99.38273017663035" y1="112.11370524258325" y2="74.27925570463776" /><path d="M 99.4,74.3 A 1.8,1.8 0 0,1 99.6,73.5" fill="none" stroke="#999999" stroke-width="0.584" /><line stroke="#999999" stroke-width="0.584" x1="99.63273017663035" x2="140.3722616399368" y1="73.52925570463776" y2="46.55057559298973" /><path d="M 140.4,46.6 A 1.5,1.5 0 0,1 140.5,46.1" fill="none" stroke="#999999" stroke-width="0.584" /><circle cx="101.4222616399368" cy="74.17887936189186" fill="#888" opacity="1.0" r="1.75" stroke="#444" stroke-width="0.15" /><circle cx="141.4222616399368" cy="47.600575592989685" fill="#654321" r="1.5" stroke="#333" stroke-width="0.15" /><line stroke="#999999" stroke-width="1.321" x1="141.09874377478212" x2="104.37365831039916" y1="697.5" y2="110.62789144134217" /><path d="M 104.4,110.6 A 1.9,1.9 0 0,0 106.9,108.7" fill="none" stroke="#999999" stroke-width="1.321" /><line stroke="#999999" stroke-width="1.321" x1="106.91304622492535" x2="111.73050422007634" y1="108.7179836948178" y2="113.02190649117142" /><path d="M 111.7,113.0 A 1.9,1.9 0 0,0 108.1,114.2" fill="none" stroke="#999999" stroke-width="1.321" /><line stroke="#999999" stroke-width="1.321" x1="108.1227078590614" x2="106.18521337482541" y1="114.15004250635877" y2="77.36800846451945" /><path d="M 106.2,77.4 A 1.8,1.8 0 0,1 106.4,76.6" fill="none" stroke="#999999" stroke-width="1.321" /><line stroke="#999999" stroke-width="1.321" x1="106.43521337482541" x2="147.54288135228973" y1="76.61800846451945" y2="47.004107621121534" /><path d="M 147.5,47.0 A 1.5,1.5 0 0,1 147.7,46.5" fill="none" stroke="#999999" stroke-width="1.321" /><circle cx="108.59288135228971" cy="77.25119596393415" fill="#888" opacity="1.0" r="1.75" stroke="#444" stroke-width="0.15" /><circle cx="148.5928813522897" cy="48.05410762112149" fill="#654321" r="1.5" stroke="#333" stroke-width="0.15" /><line stroke="#0000FF" stroke-width="1.27" x1="147.06543538903506" x2="110.88873946298585" y1="677.6" y2="100.24540828102147" /><path d="M 110.9,100.2 A 1.9,1.9 0 0,0 113.4,98.4" fill="none" stroke="#0000FF" stroke-width="1.27" /><line stroke="#0000FF" stroke-width="1.27" x1="113.40398377882477" x2="118.19266717771191" y1="98.36432458301579" y2="102.64234708989011" /><path d="M 118.2,102.6 A 1.9,1.9 0 0,0 114.6,103.8" fill="none" stroke="#0000FF" stroke-width="1.27" /><line stroke="#0000FF" stroke-width="1.27" x1="114.63784737052066" x2="112.70596559737662" y1="103.76646561833832" y2="67.55287763105048" /><path d="M 112.7,67.6 A 1.8,1.8 0 0,1 113.0,66.8" fill="none" stroke="#0000FF" stroke-width="1.27" /><line stroke="#0000FF" stroke-width="1.27" x1="112.95596559737662" x2="154.0381661245964" y1="66.80287763105048" y2="47.4149256248993" /><path d="M 154.0,47.4 A 1.5,1.5 0 0,1 154.2,46.9" fill="none" stroke="#0000FF" stroke-width="1.27" /><circle cx="115.08816612459637" cy="67.43735426495539" fill="#888" opacity="1.0" r="1.75" stroke="#444" stroke-width="0.15" /><circle cx="155.08816612459637" cy="48.46492562489925" fill="#654321" r="1.5" stroke="#333" stroke-width="0.15" /><line stroke="#999999" stroke-width="1.1685" x1="152.91158911093697" x2="117.70524145666964" y1="655.4" y2="94.67681597686817" /><path d="M 117.7,94.7 A 1.8,1.8 0 0,0 120.2,92.9" fill="none" stroke="#999999" stroke-width="1.1685" /><line stroke="#999999" stroke-width="1.1685" x1="120.17155711698184" x2="124.904065015755" y1="92.85298751014534" y2="97.08056481590506" /><path d="M 124.9,97.1 A 1.8,1.8 0 0,0 121.5,98.2" fill="none" stroke="#999999" stroke-width="1.1685" /><line stroke="#999999" stroke-width="1.1685" x1="121.4543064827087" x2="119.52653592080901" y1="98.19503755220046" y2="62.97615941567665" /><path d="M 119.5,63.0 A 1.8,1.8 0 0,1 119.8,62.2" fill="none" stroke="#999999" stroke-width="1.1685" /><line stroke="#999999" stroke-width="1.1685" x1="119.77653592080901" x2="160.80804947418625" y1="62.22615941567665" y2="47.84311161842868" /><path d="M 160.8,47.8 A 1.5,1.5 0 0,1 161.0,47.3" fill="none" stroke="#999999" stroke-width="1.1685" /><circle cx="121.85804947418626" cy="62.86316555337362" fill="#888" opacity="1.0" r="1.75" stroke="#444" stroke-width="0.15" /><circle cx="161.85804947418626" cy="48.893111618428634" fill="#654321" r="1.5" stroke="#333" stroke-width="0.15" /><line stroke="#999999" stroke-width="1.092" x1="158.621482606703" x2="125.35882239717668" y1="630.6" y2="105.55044967194794" /><path d="M 125.4,105.6 A 1.8,1.8 0 0,0 127.8,103.8" fill="none" stroke="#999999" stroke-width="1.092" /><line stroke="#999999" stroke-width="1.092" x1="127.78715881758986" x2="132.47907904000826" y1="103.76921533296957" y2="107.9588554606147" /><path d="M 132.5,108.0 A 1.8,1.8 0 0,0 129.1,109.1" fill="none" stroke="#999999" stroke-width="1.092" /><line stroke="#999999" stroke-width="1.092" x1="129.1097326239022" x2="127.25552842617903" y1="109.07354332612533" y2="75.97197892069573" /><path d="M 127.3,76.0 A 1.8,1.8 0 0,1 127.5,75.2" fill="none" stroke="#999999" stroke-width="1.092" /><line stroke="#999999" stroke-width="1.092" x1="127.50552842617903" x2="168.4988589137477" y1="75.22197892069573" y2="48.32954494539638" /><path d="M 168.5,48.3 A 1.5,1.5 0 0,1 168.6,47.8" fill="none" stroke="#999999" stroke-width="1.092" /><circle cx="129.5488589137477" cy="75.86129344383426" fill="#888" opacity="1.0" r="1.75" stroke="#444" stroke-width="0.15" /><circle cx="169.5488589137477" cy="49.37954494539633" fill="#654321" r="1.5" stroke="#333" stroke-width="0.15" /><line stroke="#999999" stroke-width="1.0285" x1="164.17415276461992" x2="132.34616867778522" y1="602.8" y2="103.95161988257041" /><path d="M 132.3,104.0 A 1.8,1.8 0 0,0 134.7,102.2" fill="none" stroke="#999999" stroke-width="1.0285" /><line stroke="#999999" stroke-width="1.0285" x1="134.7424946654697" x2="139.4013440292215" y1="102.2056680911387" y2="106.36445849305778" /><path d="M 139.4,106.4 A 1.8,1.8 0 0,0 136.1,107.5" fill="none" stroke="#999999" stroke-width="1.0285" /><line stroke="#999999" stroke-width="1.0285" x1="136.09852211221767" x2="134.29483408021127" y1="107.47816504852005" y2="75.93199300095739" /><path d="M 134.3,75.9 A 1.8,1.8 0 0,1 134.5,75.2" fill="none" stroke="#999999" stroke-width="1.0285" /><line stroke="#999999" stroke-width="1.0285" x1="134.54483408021127" x2="175.50646865521844" y1="75.18199300095739" y2="48.77276681266824" /><path d="M 175.5,48.8 A 1.5,1.5 0 0,1 175.7,48.3" fill="none" stroke="#999999" stroke-width="1.0285" /><circle cx="136.55646865521845" cy="75.82319451001126" fill="#888" opacity="1.0" r="1.75" stroke="#444" stroke-width="0.15" /><circle cx="176.55646865521845" cy="49.82276681266819" fill="#654321" r="1.5" stroke="#333" stroke-width="0.15" /><line stroke="#FF0000" stroke-width="1.0285" x1="169.57746075158013" x2="139.71901245519345" y1="572.15" y2="103.84405619378094" /><path d="M 139.7,103.8 A 1.5,1.5 0 0,0 141.9,102.4" fill="none" stroke="#FF0000" stroke-width="1.0285" /><line stroke="#FF0000" stroke-width="1.0285" x1="141.92241961566805" x2="146.96539027241667" y1="102.41039198041517" y2="106.91865558546283" /><path d="M 147.0,106.9 A 1.5,1.5 0 0,0 144.2,108.0" fill="none" stroke="#FF0000" stroke-width="1.0285" /><line stroke="#FF0000" stroke-width="1.0285" x1="144.21341470010327" x2="141.91424588828443" y1="108.02333893653781" y2="78.01429568628146" /><path d="M 141.9,78.0 A 1.2,1.2 0 0,1 142.2,77.3" fill="none" stroke="#FF0000" stroke-width="1.0285" /><line stroke="#FF0000" stroke-width="1.0285" x1="142.16424588828443" x2="182.80139600694724" y1="77.26429568628146" y2="49.648092617342854" /><path d="M 182.8,49.6 A 1.2,1.2 0 0,1 183.0,49.1" fill="none" stroke="#FF0000" stroke-width="1.0285" /><circle cx="143.67639600694724" cy="77.92824324996138" fill="#888" opacity="1.0" r="1.25" stroke="#444" stroke-width="0.15" /><circle cx="183.67639600694724" cy="50.523092617342854" fill="#654321" r="1.25" stroke="#333" stroke-width="0.15" /><line stroke="#999999" stroke-width="0.965" x1="174.88381434686676" x2="146.7094029999502" y1="539.65" y2="102.30547680274537" /><path d="M 146.7,102.3 A 1.5,1.5 0 0,0 148.9,100.9" fill="none" stroke="#999999" stroke-width="0.965" /><line stroke="#999999" stroke-width="0.965" x1="148.87353467850332" x2="153.8936893185914" y1="100.90495051468736" y2="105.39114915073844" /><path d="M 153.9,105.4 A 1.5,1.5 0 0,0 151.2,106.5" fill="none" stroke="#999999" stroke-width="0.965" /><line stroke="#999999" stroke-width="0.965" x1="151.20593235311748" x2="148.97153227483747" y1="106.48983223017501" y2="78.31740760426476" /><path d="M 149.0,78.3 A 1.2,1.2 0 0,1 149.2,77.6" fill="none" stroke="#999999" stroke-width="0.965" /><line stroke="#999999" stroke-width="0.965" x1="149.22153227483747" x2="189.82698576481457" y1="77.56740760426476" y2="50.092451696408034" /><path d="M 189.8,50.1 A 1.2,1.2 0 0,1 190.0,49.6" fill="none" stroke="#999999" stroke-width="0.965" /><circle cx="150.70198576481457" cy="78.23322346664918" fill="#888" opacity="1.0" r="1.25" stroke="#444" stroke-width="0.15" /><circle cx="190.70198576481457" cy="50.967451696408034" fill="#654321" r="1.25" stroke="#333" stroke-width="0.15" /><line stroke="#999999" stroke-width="0.838" x1="180.16134366354768" x2="153.60675606653024" y1="506.6" y2="97.80965053717296" /><path d="M 153.6,97.8 A 1.4,1.4 0 0,0 155.7,96.5" fill="none" stroke="#999999" stroke-width="0.838" /><line stroke="#999999" stroke-width="0.838" x1="155.69170714870035" x2="160.6665836071905" y1="96.47572381457451" y2="100.92042180338433" /><path d="M 160.7,100.9 A 1.4,1.4 0 0,0 158.1,102.0" fill="none" stroke="#999999" stroke-width="0.838" /><line stroke="#999999" stroke-width="0.838" x1="158.10431809500614" x2="155.8982566546537" y1="101.99325957504516" y2="75.52260347844867" /><path d="M 155.9,75.5 A 1.2,1.2 0 0,1 156.1,74.8" fill="none" stroke="#999999" stroke-width="0.838" /><line stroke="#999999" stroke-width="0.838" x1="156.1482566546537" x2="196.6902945556567" y1="74.77260347844867" y2="50.52654672312417" /><path d="M 196.7,50.5 A 1.2,1.2 0 0,1 196.8,50.0" fill="none" stroke="#999999" stroke-width="0.838" /><circle cx="157.5652945556567" cy="75.44169836971275" fill="#888" opacity="1.0" r="1.25" stroke="#444" stroke-width="0.15" /><circle cx="197.5652945556567" cy="51.40154672312417" fill="#654321" r="1.25" stroke="#333" stroke-width="0.15" /><line stroke="#0000FF" stroke-width="0.838" x1="185.45459531401355" x2="160.64562210030772" y1="473.85" y2="98.3816261956838" /><path d="M 160.6,98.4 A 1.4,1.4 0 0,0 162.7,97.0" fill="none" stroke="#0000FF" stroke-width="0.838" /><line stroke="#0000FF" stroke-width="0.838" x1="162.7301006715938" x2="167.70650892016155" y1="97.04676550753277" y2="101.48974839435061" /><path d="M 167.7,101.5 A 1.4,1.4 0 0,0 165.1,102.6" fill="none" stroke="#0000FF" stroke-width="0.838" /><line stroke="#0000FF" stroke-width="0.838" x1="165.14760811424713" x2="163.0415565666749" y1="102.57855571306379" y2="78.07358284365876" /><path d="M 163.0,78.1 A 1.2,1.2 0 0,1 163.3,77.3" fill="none" stroke="#0000FF" stroke-width="0.838" /><line stroke="#0000FF" stroke-width="0.838" x1="163.2915565666749" x2="203.8336222593106" y1="77.32358284365876" y2="50.97835256850567" /><path d="M 203.8,51.0 A 1.2,1.2 0 0,1 204.0,50.5" fill="none" stroke="#0000FF" stroke-width="0.838" /><circle cx="164.7086222593106" cy="77.993252423287" fill="#888" opacity="1.0" r="1.25" stroke="#444" stroke-width="0.15" /><circle cx="204.7086222593106" cy="51.85335256850567" fill="#654321" r="1.25" stroke="#333" stroke-width="0.15" /><line stroke="#999999" stroke-width="0.7745" x1="190.80811591065486" x2="167.55707357359364" y1="442.25" y2="95.33982659465732" /><path d="M 167.6,95.3 A 1.4,1.4 0 0,0 169.6,94.0" fill="none" stroke="#999999" stroke-width="0.7745" /><line stroke="#999999" stroke-width="0.7745" x1="169.60120335464785" x2="174.55661457764978" y1="94.03753105552869" y2="98.45943744308715" /><path d="M 174.6,98.5 A 1.4,1.4 0 0,0 172.1,99.5" fill="none" stroke="#999999" stroke-width="0.7745" /><line stroke="#999999" stroke-width="0.7745" x1="172.06221845881907" x2="170.0125492701482" y1="99.54349439381758" y2="76.73010153920791" /><path d="M 170.0,76.7 A 1.2,1.2 0 0,1 170.3,76.0" fill="none" stroke="#999999" stroke-width="0.7745" /><line stroke="#999999" stroke-width="0.7745" x1="170.2625492701482" x2="210.77292233011315" y1="75.98010153920791" y2="51.41725394121477" /><path d="M 210.8,51.4 A 1.2,1.2 0 0,1 210.9,50.9" fill="none" stroke="#999999" stroke-width="0.7745" /><circle cx="171.64792233011315" cy="76.65172732635051" fill="#888" opacity="1.0" r="1.25" stroke="#444" stroke-width="0.15" /><circle cx="211.64792233011315" cy="52.29225394121477" fill="#654321" r="1.25" stroke="#333" stroke-width="0.15" /><line stroke="#999999" stroke-width="0.7745" x1="196.2769336217189" x2="174.64536912566905" y1="412.85" y2="96.85869493614473" /><path d="M 174.6,96.9 A 1.4,1.4 0 0,0 176.7,95.6" fill="none" stroke="#999999" stroke-width="0.7745" /><line stroke="#999999" stroke-width="0.7745" x1="176.68890861344033" x2="181.64626521267274" y1="95.55521420480602" y2="99.97493953987282" /><path d="M 181.6,100.0 A 1.4,1.4 0 0,0 179.2,101.1" fill="none" stroke="#999999" stroke-width="0.7745" /><line stroke="#999999" stroke-width="0.7745" x1="179.1564050886385" x2="177.19795201129907" y1="101.07839629666012" y2="80.08443053194821" /><path d="M 177.2,80.1 A 1.2,1.2 0 0,1 177.4,79.3" fill="none" stroke="#999999" stroke-width="0.7745" /><line stroke="#999999" stroke-width="0.7745" x1="177.44795201129907" x2="217.95835940594574" y1="79.33443053194821" y2="51.87172314760733" /><path d="M 218.0,51.9 A 1.2,1.2 0 0,1 218.1,51.4" fill="none" stroke="#999999" stroke-width="0.7745" /><circle cx="178.8333594059457" cy="80.00677606630052" fill="#888" opacity="1.0" r="1.25" stroke="#444" stroke-width="0.15" /><circle cx="218.83335940594574" cy="52.74672314760733" fill="#654321" r="1.25" stroke="#333" stroke-width="0.15" /><line stroke="#999999" stroke-width="0.635" x1="201.89773389270377" x2="181.52512812875196" y1="386.35" y2="91.79575936458025" /><path d="M 181.5,91.8 A 1.3,1.3 0 0,0 183.5,90.6" fill="none" stroke="#999999" stroke-width="0.635" /><line stroke="#999999" stroke-width="0.635" x1="183.47951165892698" x2="188.39052114908554" y1="90.56456752799636" y2="94.94178024368784" /><path d="M 188.4,94.9 A 1.3,1.3 0 0,0 186.0,96.0" fill="none" stroke="#999999" stroke-width="0.635" /><line stroke="#999999" stroke-width="0.635" x1="186.03724930964304" x2="184.07905674676365" y1="96.01228330371191" y2="76.29973244082055" /><path d="M 184.1,76.3 A 1.2,1.2 0 0,1 184.3,75.5" fill="none" stroke="#999999" stroke-width="0.635" /><line stroke="#999999" stroke-width="0.635" x1="184.32905674676365" x2="224.76980268145755" y1="75.54973244082055" y2="52.30253775041297" /><path d="M 224.8,52.3 A 1.2,1.2 0 0,1 224.9,51.8" fill="none" stroke="#999999" stroke-width="0.635" /><circle cx="185.64480268145758" cy="76.2255979819671" fill="#888" opacity="1.0" r="1.25" stroke="#444" stroke-width="0.15" /><circle cx="225.64480268145755" cy="53.17753775041297" fill="#654321" r="1.25" stroke="#333" stroke-width="0.15" /><line stroke="#FF0000" stroke-width="0.635" x1="207.66527594568112" x2="188.53917840017033" y1="362.65" y2="91.89815515817918" /><path d="M 188.5,91.9 A 1.3,1.3 0 0,0 190.5,90.7" fill="none" stroke="#FF0000" stroke-width="0.635" /><line stroke="#FF0000" stroke-width="0.635" x1="190.49299271542262" x2="195.4059568062082" y1="90.66577612324261" y2="95.04079489045819" /><path d="M 195.4,95.0 A 1.3,1.3 0 0,0 193.1,96.1" fill="none" stroke="#FF0000" stroke-width="0.635" /><line stroke="#FF0000" stroke-width="0.635" x1="193.0573927248195" x2="191.16804873328678" y1="96.12965915988718" y2="77.81442872588298" /><path d="M 191.2,77.8 A 1.2,1.2 0 0,1 191.4,77.1" fill="none" stroke="#FF0000" stroke-width="0.635" /><line stroke="#FF0000" stroke-width="0.635" x1="191.41804873328678" x2="231.85882762956925" y1="77.06442872588298" y2="52.750909019726805" /><path d="M 231.9,52.8 A 1.2,1.2 0 0,1 232.0,52.3" fill="none" stroke="#FF0000" stroke-width="0.635" /><circle cx="192.73382762956925" cy="77.74099373452009" fill="#888" opacity="1.0" r="1.25" stroke="#444" stroke-width="0.15" /><circle cx="232.73382762956925" cy="53.625909019726805" fill="#654321" r="1.25" stroke="#333" stroke-width="0.15" /><line stroke="#999999" stroke-width="0.635" x1="213.55335589100952" x2="195.547751799289" y1="341.25" y2="91.8971107732965" /><path d="M 195.5,91.9 A 1.3,1.3 0 0,0 197.5,90.7" fill="none" stroke="#999999" stroke-width="0.635" /><line stroke="#999999" stroke-width="0.635" x1="197.50096016979722" x2="202.41600119361817" y1="90.66347030775489" y2="95.03615565030975" /><path d="M 202.4,95.0 A 1.3,1.3 0 0,0 200.1,96.1" fill="none" stroke="#999999" stroke-width="0.635" /><line stroke="#999999" stroke-width="0.635" x1="200.07260858165452" x2="198.24412018428973" y1="96.14406985151061" y2="79.08257549644713" /><path d="M 198.2,79.1 A 1.2,1.2 0 0,1 198.5,78.3" fill="none" stroke="#999999" stroke-width="0.635" /><line stroke="#999999" stroke-width="0.635" x1="198.49412018428973" x2="238.93493378161247" y1="78.33257549644713" y2="53.19846319260864" /><path d="M 238.9,53.2 A 1.2,1.2 0 0,1 239.1,52.7" fill="none" stroke="#999999" stroke-width="0.635" /><circle cx="199.80993378161247" cy="79.00988417344888" fill="#888" opacity="1.0" r="1.25" stroke="#444" stroke-width="0.15" /><circle cx="239.80993378161247" cy="54.07346319260864" fill="#654321" r="1.25" stroke="#333" stroke-width="0.15" /><line stroke="#999999" stroke-width="0.5715" x1="219.55411256179642" x2="202.60732724823848" y1="322.0" y2="91.68570488683565" /><path d="M 202.6,91.7 A 1.3,1.3 0 0,0 204.5,90.5" fill="none" stroke="#999999" stroke-width="0.5715" /><line stroke="#999999" stroke-width="0.5715" x1="204.519082032043" x2="209.41513394503772" y1="90.4839685700025" y2="94.83654770688463" /><path d="M 209.4,94.8 A 1.3,1.3 0 0,0 207.1,95.9" fill="none" stroke="#999999" stroke-width="0.5715" /><line stroke="#999999" stroke-width="0.5715" x1="207.13690197646773" x2="205.33375301728182" y1="95.93961727712144" y2="80.00285754039942" /><path d="M 205.3,80.0 A 1.2,1.2 0 0,1 205.6,79.3" fill="none" stroke="#999999" stroke-width="0.5715" /><line stroke="#999999" stroke-width="0.5715" x1="205.58375301728182" x2="245.99287676850682" y1="79.25285754039942" y2="53.64486856978556" /><path d="M 246.0,53.6 A 1.2,1.2 0 0,1 246.1,53.1" fill="none" stroke="#999999" stroke-width="0.5715" /><circle cx="206.86787676850685" cy="79.93220077549131" fill="#888" opacity="1.0" r="1.25" stroke="#444" stroke-width="0.15" /><circle cx="246.86787676850682" cy="54.51986856978556" fill="#654321" r="1.25" stroke="#333" stroke-width="0.15" /><line stroke="#0000FF" stroke-width="0.5715" x1="225.64658284632864" x2="209.57325877571566" y1="304.5" y2="90.87186580884304" /><path d="M 209.6,90.9 A 1.3,1.3 0 0,0 211.5,89.7" fill="none" stroke="#0000FF" stroke-width="0.5715" /><line stroke="#0000FF" stroke-width="0.5715" x1="211.48439089195784" x2="216.38261390201987" y1="89.6688136583407" y2="94.01894938280498" /><path d="M 216.4,94.0 A 1.3,1.3 0 0,0 214.1,95.1" fill="none" stroke="#0000FF" stroke-width="0.5715" /><line stroke="#0000FF" stroke-width="0.5715" x1="214.11002002979407" x2="212.3525346552101" y1="95.14076019444758" y2="80.17783465096522" /><path d="M 212.4,80.2 A 1.2,1.2 0 0,1 212.6,79.4" fill="none" stroke="#0000FF" stroke-width="0.5715" /><line stroke="#0000FF" stroke-width="0.5715" x1="212.6025346552101" x2="253.01169347853917" y1="79.42783465096522" y2="54.08879926270777" /><path d="M 253.0,54.1 A 1.2,1.2 0 0,1 253.2,53.6" fill="none" stroke="#0000FF" stroke-width="0.5715" /><circle cx="213.88669347853917" cy="80.10794354064728" fill="#888" opacity="1.0" r="1.25" stroke="#444" stroke-width="0.15" /><circle cx="253.88669347853917" cy="54.96379926270777" fill="#654321" r="1.25" stroke="#333" stroke-width="0.15" /><line stroke="#999999" stroke-width="0.5715" x1="231.81766479978543" x2="216.61518599622244" y1="288.5" y2="91.51131281939024" /><path d="M 216.6,91.5 A 1.3,1.3 0 0,0 218.5,90.3" fill="none" stroke="#999999" stroke-width="0.5715" /><line stroke="#999999" stroke-width="0.5715" x1="218.5255900779867" x2="223.42634603392764" y1="90.30672565909924" y2="94.65400763038565" /><path d="M 223.4,94.7 A 1.3,1.3 0 0,0 221.2,95.8" fill="none" stroke="#999999" stroke-width="0.5715" /><line stroke="#999999" stroke-width="0.5715" x1="221.16050644914577" x2="219.4473057756169" y1="95.79706551542529" y2="81.80275207008515" /><path d="M 219.4,81.8 A 1.2,1.2 0 0,1 219.7,81.1" fill="none" stroke="#999999" stroke-width="0.5715" /><line stroke="#999999" stroke-width="0.5715" x1="219.6973057756169" x2="260.1065050596839" y1="81.05275207008515" y2="54.537536528758324" /><path d="M 260.1,54.5 A 1.2,1.2 0 0,1 260.3,54.0" fill="none" stroke="#999999" stroke-width="0.5715" /><circle cx="220.9815050596839" cy="81.73375482906545" fill="#888" opacity="1.0" r="1.25" stroke="#444" stroke-width="0.15" /><circle cx="260.9815050596839" cy="55.412536528758324" fill="#654321" r="1.25" stroke="#333" stroke-width="0.15" /><line stroke="#999999" stroke-width="0.508" x1="238.05425647734603" x2="223.6610411783792" y1="273.75" y2="91.04009619306521" /><path d="M 223.7,91.0 A 1.3,1.3 0 0,0 225.5,89.9" fill="none" stroke="#999999" stroke-width="0.508" /><line stroke="#999999" stroke-width="0.508" x1="225.52965492701156" x2="230.41212093222617" y1="89.86716859294688" y2="94.19456342049716" /><path d="M 230.4,94.2 A 1.3,1.3 0 0,0 228.2,95.3" fill="none" stroke="#999999" stroke-width="0.508" /><line stroke="#999999" stroke-width="0.508" x1="228.2118820419387" x2="226.5084768744655" y1="95.33180123138368" y2="82.17993182294447" /><path d="M 226.5,82.2 A 1.2,1.2 0 0,1 226.8,81.4" fill="none" stroke="#999999" stroke-width="0.508" /><line stroke="#999999" stroke-width="0.508" x1="226.7584768744655" x2="267.13598647432514" y1="81.42993182294447" y2="54.98214174986708" /><path d="M 267.1,55.0 A 1.2,1.2 0 0,1 267.3,54.5" fill="none" stroke="#999999" stroke-width="0.508" /><circle cx="228.0109864743251" cy="82.11299228059727" fill="#888" opacity="1.0" r="1.25" stroke="#444" stroke-width="0.15" /><circle cx="268.01098647432514" cy="55.85714174986708" fill="#654321" r="1.25" stroke="#333" stroke-width="0.15" /><line stroke="#999999" stroke-width="0.508" x1="244.34587632315382" x2="230.92834830942166" y1="260.04999999999995" y2="91.82425895421477" /><path d="M 230.9,91.8 A 1.3,1.3 0 0,0 232.8,90.6" fill="none" stroke="#999999" stroke-width="0.508" /><line stroke="#999999" stroke-width="0.508" x1="232.76955610449767" x2="237.24220281313143" y1="90.63652396591351" y2="94.59533072167858" /><path d="M 237.2,94.6 A 1.3,1.3 0 0,0 235.0,95.7" fill="none" stroke="#999999" stroke-width="0.508" /><line stroke="#999999" stroke-width="0.508" x1="235.0270775146563" x2="233.59294182636555" y1="95.71569702354714" y2="83.608159872133" /><path d="M 233.6,83.6 A 1.2,1.2 0 0,1 233.8,82.9" fill="none" stroke="#999999" stroke-width="0.508" /><line stroke="#999999" stroke-width="0.508" x1="233.84294182636555" x2="274.2204960572135" y1="82.858159872133" y2="55.4302274284189" /><path d="M 274.2,55.4 A 1.2,1.2 0 0,1 274.4,54.9" fill="none" stroke="#999999" stroke-width="0.508" /><circle cx="235.0954960572135" cy="83.54222973212904" fill="#888" opacity="1.0" r="1.25" stroke="#444" stroke-width="0.15" /><circle cx="275.0954960572135" cy="56.3052274284189" fill="#654321" r="1.25" stroke="#333" stroke-width="0.15" /><line stroke="#FF0000" stroke-width="0.508" x1="250.68728355928044" x2="238.18987506737048" y1="247.29999999999995" y2="90.79855296798519" /><path d="M 238.2,90.8 A 1.0,1.0 0 0,0 239.7,89.9" fill="none" stroke="#FF0000" stroke-width="0.508" /><line stroke="#FF0000" stroke-width="0.508" x1="239.72019368579177" x2="244.39127210328166" y1="89.87783815268529" y2="94.01950958827763" /><path d="M 244.4,94.0 A 1.0,1.0 0 0,0 242.7,95.0" fill="none" stroke="#FF0000" stroke-width="0.508" /><line stroke="#FF0000" stroke-width="0.508" x1="242.6571966134994" x2="240.84620674929053" y1="94.97161748730355" y2="83.48095118326478" /><path d="M 240.8,83.5 A 1.0,1.0 0 0,1 241.1,82.7" fill="none" stroke="#FF0000" stroke-width="0.508" /><line stroke="#FF0000" stroke-width="0.508" x1="241.09620674929053" x2="281.3989531398134" y1="82.73095118326478" y2="56.29818664561651" /><path d="M 281.4,56.3 A 1.0,1.0 0 0,1 281.5,55.8" fill="none" stroke="#FF0000" stroke-width="0.508" /><circle cx="242.09895313981337" cy="83.42489334677441" fill="#888" opacity="1.0" r="1.0" stroke="#444" stroke-width="0.15" /><circle cx="282.0989531398134" cy="56.998186645616556" fill="#654321" r="1.0" stroke="#333" stroke-width="0.15" /><line stroke="#999999" stroke-width="0.457" x1="257.078478185726" x2="245.43098948533765" y1="235.5" y2="91.03184539797553" /><path d="M 245.4,91.0 A 1.0,1.0 0 0,0 246.9,90.1" fill="none" stroke="#999999" stroke-width="0.457" /><line stroke="#999999" stroke-width="0.457" x1="246.91331934665587" x2="251.23710410593907" y1="90.1288884980994" y2="93.95902187458353" /><path d="M 251.2,94.0 A 1.0,1.0 0 0,0 249.5,94.9" fill="none" stroke="#999999" stroke-width="0.457" /><line stroke="#999999" stroke-width="0.457" x1="249.5425140359256" x2="247.92228340627324" y1="94.88365472309124" y2="84.26196994832708" /><path d="M 247.9,84.3 A 1.0,1.0 0 0,1 248.2,83.5" fill="none" stroke="#999999" stroke-width="0.457" /><line stroke="#999999" stroke-width="0.457" x1="248.17228340627324" x2="288.44958081492007" y1="83.51196994832708" y2="56.74412933918654" /><path d="M 288.4,56.7 A 1.0,1.0 0 0,1 288.6,56.2" fill="none" stroke="#999999" stroke-width="0.457" /><circle cx="249.14958081492003" cy="84.20762548468201" fill="#888" opacity="1.0" r="1.0" stroke="#444" stroke-width="0.15" /><circle cx="289.14958081492" cy="57.44412933918659" fill="#654321" r="1.0" stroke="#333" stroke-width="0.15" /><line stroke="#999999" stroke-width="0.457" x1="263.51421942456216" x2="252.66573919387656" y1="224.54999999999995" y2="92.16262969400225" /><path d="M 252.7,92.2 A 1.0,1.0 0 0,0 254.1,91.3" fill="none" stroke="#999999" stroke-width="0.457" /><line stroke="#999999" stroke-width="0.457" x1="254.13281887469552" x2="258.1336543866089" y1="91.25056873182007" y2="94.78935488694742" /><path d="M 258.1,94.8 A 1.0,1.0 0 0,0 256.4,95.7" fill="none" stroke="#999999" stroke-width="0.457" /><line stroke="#999999" stroke-width="0.457" x1="256.43197496470924" x2="255.0200346772141" y1="95.70914229419407" y2="85.94372682945436" /><path d="M 255.0,85.9 A 1.0,1.0 0 0,1 255.3,85.2" fill="none" stroke="#999999" stroke-width="0.457" /><line stroke="#999999" stroke-width="0.457" x1="255.2700346772141" x2="295.54737190022945" y1="85.19372682945436" y2="57.193055054858064" /><path d="M 295.5,57.2 A 1.0,1.0 0 0,1 295.7,56.7" fill="none" stroke="#999999" stroke-width="0.457" /><circle cx="256.2473719002294" cy="85.89028909932745" fill="#888" opacity="1.0" r="1.0" stroke="#444" stroke-width="0.15" /><circle cx="296.2473719002294" cy="57.89305505485811" fill="#654321" r="1.0" stroke="#333" stroke-width="0.15" /><line stroke="#0000FF" stroke-width="0.457" x1="269.9918868868248" x2="259.58561490112925" y1="214.39999999999998" y2="89.19253521787141" /><path d="M 259.6,89.2 A 1.0,1.0 0 0,0 261.0,88.3" fill="none" stroke="#0000FF" stroke-width="0.457" /><line stroke="#0000FF" stroke-width="0.457" x1="261.0455362082324" x2="264.91947112359475" y1="88.27606777073765" y2="91.69909918262567" /><path d="M 264.9,91.7 A 1.0,1.0 0 0,0 263.2,92.6" fill="none" stroke="#0000FF" stroke-width="0.457" /><line stroke="#0000FF" stroke-width="0.457" x1="263.2162517736984" x2="261.89281157994924" y1="92.62084576548773" y2="83.33275536609631" /><path d="M 261.9,83.3 A 1.0,1.0 0 0,1 262.1,82.6" fill="none" stroke="#0000FF" stroke-width="0.457" /><line stroke="#0000FF" stroke-width="0.457" x1="262.14281157994924" x2="302.42017583212623" y1="82.58275536609631" y2="57.62775063644301" /><path d="M 302.4,57.6 A 1.0,1.0 0 0,1 302.6,57.1" fill="none" stroke="#0000FF" stroke-width="0.457" /><circle cx="263.1201758321262" cy="83.27994208672442" fill="#888" opacity="1.0" r="1.0" stroke="#444" stroke-width="0.15" /><circle cx="303.1201758321262" cy="58.32775063644306" fill="#654321" r="1.0" stroke="#333" stroke-width="0.15" /><line stroke="#999999" stroke-width="0.457" x1="276.5088601835496" x2="266.89141153178855" y1="205.0" y2="91.8646236153736" /><path d="M 266.9,91.9 A 1.0,1.0 0 0,0 268.3,90.9" fill="none" stroke="#999999" stroke-width="0.457" /><line stroke="#999999" stroke-width="0.457" x1="268.3321250588856" x2="271.90935071920603" y1="90.93730855084345" y2="94.09182037532344" /><path d="M 271.9,94.1 A 1.0,1.0 0 0,0 270.2,95.0" fill="none" stroke="#999999" stroke-width="0.457" /><line stroke="#999999" stroke-width="0.457" x1="270.1987278051341" x2="269.07178264761893" y1="95.0091130400973" y2="86.56419454204502" /><path d="M 269.1,86.6 A 1.0,1.0 0 0,1 269.3,85.8" fill="none" stroke="#999999" stroke-width="0.457" /><line stroke="#999999" stroke-width="0.457" x1="269.32178264761893" x2="309.5991989753243" y1="85.81419454204502" y2="58.08181417024491" /><path d="M 309.6,58.1 A 1.0,1.0 0 0,1 309.7,57.6" fill="none" stroke="#999999" stroke-width="0.457" /><circle cx="270.2991989753243" cy="86.51260570136981" fill="#888" opacity="1.0" r="1.0" stroke="#444" stroke-width="0.15" /><circle cx="310.2991989753243" cy="58.78181417024496" fill="#654321" r="1.0" stroke="#333" stroke-width="0.15" /><line stroke="#999999" stroke-width="0.4065" x1="283.06513931473677" x2="273.9289334866629" y1="196.35000000000002" y2="90.38234329744273" /><path d="M 273.9,90.4 A 1.0,1.0 0 0,0 275.3,89.5" fill="none" stroke="#999999" stroke-width="0.4065" /><line stroke="#999999" stroke-width="0.4065" x1="275.32978867907724" x2="278.78384874841095" y1="89.47704922984815" y2="92.52002792492033" /><path d="M 278.8,92.5 A 1.0,1.0 0 0,0 277.1,93.4" fill="none" stroke="#999999" stroke-width="0.4065" /><line stroke="#999999" stroke-width="0.4065" x1="277.11910230639296" x2="276.04840204092756" y1="93.4195793453033" y2="85.45221449587996" /><path d="M 276.0,85.5 A 1.0,1.0 0 0,1 276.3,84.7" fill="none" stroke="#999999" stroke-width="0.4065" /><line stroke="#999999" stroke-width="0.4065" x1="276.29840204092756" x2="316.55061457614573" y1="84.70221449587996" y2="58.52148183389136" /><path d="M 316.6,58.5 A 1.0,1.0 0 0,1 316.7,58.0" fill="none" stroke="#999999" stroke-width="0.4065" /><circle cx="277.2506145761457" cy="85.40225868876689" fill="#888" opacity="1.0" r="1.0" stroke="#444" stroke-width="0.15" /><circle cx="317.2506145761457" cy="59.2214818338914" fill="#654321" r="1.0" stroke="#333" stroke-width="0.15" /><line stroke="#999999" stroke-width="0.4065" x1="289.6528631134937" x2="280.94643401805774" y1="188.29999999999995" y2="89.54691608830296" /><path d="M 280.9,89.5 A 1.0,1.0 0 0,0 282.3,88.6" fill="none" stroke="#999999" stroke-width="0.4065" /><line stroke="#999999" stroke-width="0.4065" x1="282.3393118313965" x2="285.6971225986541" y1="88.63682740079992" y2="91.5902754689887" /><path d="M 285.7,91.6 A 1.0,1.0 0 0,0 284.0,92.5" fill="none" stroke="#999999" stroke-width="0.4065" /><line stroke="#999999" stroke-width="0.4065" x1="284.0329796967528" x2="283.0338397564543" y1="92.49600304474836" y2="84.99084279945714" /><path d="M 283.0,85.0 A 1.0,1.0 0 0,1 283.3,84.2" fill="none" stroke="#999999" stroke-width="0.4065" /><line stroke="#999999" stroke-width="0.4065" x1="283.2838397564543" x2="323.536091642349" y1="84.24084279945714" y2="58.96330383929569" /><path d="M 323.5,59.0 A 1.0,1.0 0 0,1 323.7,58.5" fill="none" stroke="#999999" stroke-width="0.4065" /><circle cx="284.23609164234904" cy="84.94184315290158" fill="#888" opacity="1.0" r="1.0" stroke="#444" stroke-width="0.15" /><circle cx="324.23609164234904" cy="59.663303839295736" fill="#654321" r="1.0" stroke="#333" stroke-width="0.15" /><line stroke="#FF0000" stroke-width="0.4065" x1="296.2746519687846" x2="287.9909195899218" y1="180.89999999999998" y2="89.31064128678145" /><path d="M 288.0,89.3 A 1.0,1.0 0 0,0 289.4,88.4" fill="none" stroke="#FF0000" stroke-width="0.4065" /><line stroke="#FF0000" stroke-width="0.4065" x1="289.3757687714629" x2="292.64646230526245" y1="88.3957014873896" y2="91.2672251734349" /><path d="M 292.6,91.3 A 1.0,1.0 0 0,0 291.0,92.2" fill="none" stroke="#FF0000" stroke-width="0.4065" /><line stroke="#FF0000" stroke-width="0.4065" x1="290.984077598657" x2="290.0507207572402" y1="92.18111668803704" y2="85.12939588808342" /><path d="M 290.1,85.1 A 1.0,1.0 0 0,1 290.3,84.4" fill="none" stroke="#FF0000" stroke-width="0.4065" /><line stroke="#FF0000" stroke-width="0.4065" x1="290.3007207572402" x2="330.5530169672742" y1="84.37939588808342" y2="59.40711490466015" /><path d="M 330.6,59.4 A 1.0,1.0 0 0,1 330.7,58.9" fill="none" stroke="#FF0000" stroke-width="0.4065" /><circle cx="291.2530169672742" cy="85.08149614029867" fill="#888" opacity="1.0" r="1.0" stroke="#444" stroke-width="0.15" /><circle cx="331.2530169672742" cy="60.10711490466019" fill="#654321" r="1.0" stroke="#333" stroke-width="0.15" /><line stroke="#999999" stroke-width="0.381" x1="302.9226447137171" x2="295.0858213411776" y1="174.0" y2="89.61732266457648" /><path d="M 295.1,89.6 A 0.9,0.9 0 0,0 296.4,88.7" fill="none" stroke="#999999" stroke-width="0.381" /><line stroke="#999999" stroke-width="0.381" x1="296.44705314616385" x2="299.6270597025491" y1="88.71118211490159" y2="91.49783392080133" /><path d="M 299.6,91.5 A 0.9,0.9 0 0,0 298.0,92.4" fill="none" stroke="#999999" stroke-width="0.381" /><line stroke="#999999" stroke-width="0.381" x1="297.9909948526581" x2="297.10916289395186" y1="92.41069461548659" y2="85.81736111976886" /><path d="M 297.1,85.8 A 1.0,1.0 0 0,1 297.4,85.1" fill="none" stroke="#999999" stroke-width="0.381" /><line stroke="#999999" stroke-width="0.381" x1="297.35916289395186" x2="337.59876297965303" y1="85.06736111976886" y2="59.85274883964507" /><path d="M 337.6,59.9 A 1.0,1.0 0 0,1 337.7,59.4" fill="none" stroke="#999999" stroke-width="0.381" /><circle cx="298.298762979653" cy="85.77108060443345" fill="#888" opacity="1.0" r="1.0" stroke="#444" stroke-width="0.15" /><circle cx="338.298762979653" cy="60.55274883964512" fill="#654321" r="1.0" stroke="#333" stroke-width="0.15" /><line stroke="#999999" stroke-width="0.3555" x1="309.5968413482911" x2="302.20163247809614" y1="167.60000000000002" y2="90.37486298947226" /><path d="M 302.2,90.4 A 0.9,0.9 0 0,0 303.5,89.5" fill="none" stroke="#999999" stroke-width="0.3555" /><line stroke="#999999" stroke-width="0.3555" x1="303.53935539227723" x2="306.63401802735007" y1="89.47746082648348" y2="92.18331245520699" /><path d="M 306.6,92.2 A 0.9,0.9 0 0,0 305.0,93.1" fill="none" stroke="#999999" stroke-width="0.3555" /><line stroke="#999999" stroke-width="0.3555" x1="305.0256466113556" x2="304.1911866463736" y1="93.097249718831" y2="86.95522222467753" /><path d="M 304.2,87.0 A 1.0,1.0 0 0,1 304.4,86.2" fill="none" stroke="#999999" stroke-width="0.3555" /><line stroke="#999999" stroke-width="0.3555" x1="304.4411866463736" x2="344.6680960838612" y1="86.20522222467753" y2="60.29987462638394" /><path d="M 344.7,60.3 A 1.0,1.0 0 0,1 344.8,59.8" fill="none" stroke="#999999" stroke-width="0.3555" /><circle cx="305.36809608386125" cy="86.91073359183042" fill="#888" opacity="1.0" r="1.0" stroke="#444" stroke-width="0.15" /><circle cx="345.36809608386125" cy="60.999874626383985" fill="#654321" r="1.0" stroke="#333" stroke-width="0.15" /><line stroke="#0000FF" stroke-width="0.3555" x1="316.2920010945783" x2="309.3142902370686" y1="161.60000000000002" y2="91.5807159048154" /><path d="M 309.3,91.6 A 0.9,0.9 0 0,0 310.6,90.7" fill="none" stroke="#0000FF" stroke-width="0.3555" /><line stroke="#0000FF" stroke-width="0.3555" x1="310.64342698003895" x2="313.66663111784663" y1="90.67785549223436" y2="93.31317468638031" /><path d="M 313.7,93.3 A 0.9,0.9 0 0,0 312.1,94.2" fill="none" stroke="#0000FF" stroke-width="0.3555" /><line stroke="#0000FF" stroke-width="0.3555" x1="312.06488096133955" x2="311.28403367262433" y1="94.24286833687302" y2="88.54302533304474" /><path d="M 311.3,88.5 A 1.0,1.0 0 0,1 311.5,87.8" fill="none" stroke="#0000FF" stroke-width="0.3555" /><line stroke="#0000FF" stroke-width="0.3555" x1="311.53403367262433" x2="351.76100909759487" y1="87.79302533304474" y2="60.74849181060574" /><path d="M 351.8,60.7 A 1.0,1.0 0 0,1 351.9,60.2" fill="none" stroke="#0000FF" stroke-width="0.3555" /><circle cx="312.4610090975948" cy="88.50031805596518" fill="#888" opacity="1.0" r="1.0" stroke="#444" stroke-width="0.15" /><circle cx="352.4610090975948" cy="61.44849181060579" fill="#654321" r="1.0" stroke="#333" stroke-width="0.15" /><line stroke="#999999" stroke-width="0.3555" x1="323.0081239525787" x2="316.4437609309095" y1="156.0" y2="93.13893420991087" /><path d="M 316.4,93.1 A 0.9,0.9 0 0,0 317.8,92.2" fill="none" stroke="#999999" stroke-width="0.3555" /><line stroke="#999999" stroke-width="0.3555" x1="317.7637241176843" x2="320.7194692221673" y1="92.2301519674453" y2="94.7970731153141" /><path d="M 320.7,94.8 A 0.9,0.9 0 0,0 319.1,95.7" fill="none" stroke="#999999" stroke-width="0.3555" /><line stroke="#999999" stroke-width="0.3555" x1="319.12695643215807" x2="318.39521598082274" y1="95.74601576166617" y2="90.4805001146101" /><path d="M 318.4,90.5 A 1.0,1.0 0 0,1 318.6,89.7" fill="none" stroke="#999999" stroke-width="0.3555" /><line stroke="#999999" stroke-width="0.3555" x1="318.64521598082274" x2="358.87226842522944" y1="89.7305001146101" y2="61.19826937444418" /><path d="M 358.9,61.2 A 1.0,1.0 0 0,1 359.0,60.7" fill="none" stroke="#999999" stroke-width="0.3555" /><circle cx="319.5722684252295" cy="90.43997104336222" fill="#888" opacity="1.0" r="1.0" stroke="#444" stroke-width="0.15" /><circle cx="359.5722684252295" cy="61.898269374444226" fill="#654321" r="1.0" stroke="#333" stroke-width="0.15" /><line stroke="#999999" stroke-width="0.3175" x1="329.73996914436407" x2="323.4526290808861" y1="150.70000000000005" y2="92.59328890811207" /><path d="M 323.5,92.6 A 0.9,0.9 0 0,0 324.8,91.7" fill="none" stroke="#999999" stroke-width="0.3175" /><line stroke="#999999" stroke-width="0.3175" x1="324.75064487035576" x2="327.70807483083115" y1="91.70378687487926" y2="94.26605973856795" /><path d="M 327.7,94.3 A 0.9,0.9 0 0,0 326.2,95.2" fill="none" stroke="#999999" stroke-width="0.3175" /><line stroke="#999999" stroke-width="0.3175" x1="326.16246873973154" x2="325.4103001879919" y1="95.22008461037717" y2="90.22155696931577" /><path d="M 325.4,90.2 A 1.0,1.0 0 0,1 325.7,89.5" fill="none" stroke="#999999" stroke-width="0.3175" /><line stroke="#999999" stroke-width="0.3175" x1="325.6603001879919" x2="365.8684101960416" y1="89.47155696931577" y2="61.64076590803495" /><path d="M 365.9,61.6 A 1.0,1.0 0 0,1 366.0,61.1" fill="none" stroke="#999999" stroke-width="0.3175" /><circle cx="326.56841019604167" cy="90.18305019387287" fill="#888" opacity="1.0" r="1.0" stroke="#444" stroke-width="0.15" /><circle cx="366.56841019604167" cy="62.340765908034996" fill="#654321" r="1.0" stroke="#333" stroke-width="0.15" /><line stroke="#999999" stroke-width="0.3175" x1="336.4849162809702" x2="330.4377712696688" y1="145.64999999999998" y2="92.3019852059906" /><path d="M 330.4,92.3 A 0.9,0.9 0 0,0 331.7,91.4" fill="none" stroke="#999999" stroke-width="0.3175" /><line stroke="#999999" stroke-width="0.3175" x1="331.7355246557697" x2="334.7106243372646" y1="91.41032485410312" y2="93.97888639022085" /><path d="M 334.7,94.0 A 0.9,0.9 0 0,0 333.2,95.0" fill="none" stroke="#999999" stroke-width="0.3175" /><line stroke="#999999" stroke-width="0.3175" x1="333.1803493887227" x2="332.4194787044091" y1="94.95860957569028" y2="90.21262251875021" /><path d="M 332.4,90.2 A 1.0,1.0 0 0,1 332.7,89.5" fill="none" stroke="#999999" stroke-width="0.3175" /><line stroke="#999999" stroke-width="0.3175" x1="332.6694787044091" x2="372.87765391167466" y1="89.46262251875021" y2="62.084091121969436" /><path d="M 372.9,62.1 A 1.0,1.0 0 0,1 373.0,61.6" fill="none" stroke="#999999" stroke-width="0.3175" /><circle cx="333.57765391167464" cy="90.17612934438341" fill="#888" opacity="1.0" r="1.0" stroke="#444" stroke-width="0.15" /><circle cx="373.5776539116747" cy="62.78409112196948" fill="#654321" r="1.0" stroke="#333" stroke-width="0.15" /><line stroke="#FF0000" stroke-width="0.3175" x1="343.2403449734328" x2="337.4350923305878" y1="140.79999999999995" y2="92.21346771906781" /><path d="M 337.4,92.2 A 0.9,0.9 0 0,0 338.7,91.3" fill="none" stroke="#FF0000" stroke-width="0.3175" /><line stroke="#FF0000" stroke-width="0.3175" x1="338.731906390713" x2="341.72214637159027" y1="91.31895979474712" y2="93.88975408723252" /><path d="M 341.7,93.9 A 0.9,0.9 0 0,0 340.2,94.9" fill="none" stroke="#FF0000" stroke-width="0.3175" /><line stroke="#FF0000" stroke-width="0.3175" x1="340.2095636080177" x2="339.43913035537247" y1="94.89732364885367" y2="90.40328510592235" /><path d="M 339.4,90.4 A 1.0,1.0 0 0,1 339.7,89.7" fill="none" stroke="#FF0000" stroke-width="0.3175" /><line stroke="#FF0000" stroke-width="0.3175" x1="339.68913035537247" x2="379.89737918316416" y1="89.65328510592235" y2="62.52807928017876" /><path d="M 379.9,62.5 A 1.0,1.0 0 0,1 380.0,62.0" fill="none" stroke="#FF0000" stroke-width="0.3175" /><circle cx="340.59737918316415" cy="90.369208494894" fill="#888" opacity="1.0" r="1.0" stroke="#444" stroke-width="0.15" /><circle cx="380.5973791831642" cy="63.228079280178804" fill="#654321" r="1.0" stroke="#333" stroke-width="0.15" /><line stroke="#999999" stroke-width="0.3175" x1="350.0062552217521" x2="344.44479569441523" y1="136.14999999999998" y2="92.3283103480295" /><path d="M 344.4,92.3 A 0.9,0.9 0 0,0 345.7,91.4" fill="none" stroke="#999999" stroke-width="0.3175" /><line stroke="#999999" stroke-width="0.3175" x1="345.7398462129754" x2="348.7424680581007" y1="91.43008302338319" y2="93.99828077272548" /><path d="M 348.7,94.0 A 0.9,0.9 0 0,0 347.3,95.0" fill="none" stroke="#999999" stroke-width="0.3175" /><line stroke="#999999" stroke-width="0.3175" x1="347.25057929149284" x2="346.4692540453111" y1="95.03621071111115" y2="90.79341032038064" /><path d="M 346.5,90.8 A 1.0,1.0 0 0,1 346.7,90.0" fill="none" stroke="#999999" stroke-width="0.3175" /><line stroke="#999999" stroke-width="0.3175" x1="346.7192540453111" x2="386.92758601051037" y1="90.04341032038064" y2="62.97273038266292" /><path d="M 386.9,63.0 A 1.0,1.0 0 0,1 387.1,62.5" fill="none" stroke="#999999" stroke-width="0.3175" /><circle cx="347.6275860105103" cy="90.76228764540463" fill="#888" opacity="1.0" r="1.0" stroke="#444" stroke-width="0.15" /><circle cx="387.6275860105103" cy="63.67273038266296" fill="#654321" r="1.0" stroke="#333" stroke-width="0.15" /><line stroke="#999999" stroke-width="0.3175" x1="356.77478585903555" x2="351.46057016862176" y1="131.54999999999995" y2="92.49839191662238" /><path d="M 351.5,92.5 A 0.9,0.9 0 0,0 352.8,91.6" fill="none" stroke="#999999" stroke-width="0.3175" /><line stroke="#999999" stroke-width="0.3175" x1="352.7525969318543" x2="355.76236374978737" y1="91.5952301786516" y2="94.15304203940809" /><path d="M 355.8,94.2 A 0.9,0.9 0 0,0 354.3,95.2" fill="none" stroke="#999999" stroke-width="0.3175" /><line stroke="#999999" stroke-width="0.3175" x1="354.29484796846714" x2="353.50198792752167" y1="95.22401762707659" y2="91.23279649595008" /><path d="M 353.5,91.2 A 1.0,1.0 0 0,1 353.8,90.5" fill="none" stroke="#999999" stroke-width="0.3175" /><line stroke="#999999" stroke-width="0.3175" x1="353.75198792752167" x2="393.9604132268206" y1="90.48279649595008" y2="63.41754722121584" /><path d="M 394.0,63.4 A 1.0,1.0 0 0,1 394.1,62.9" fill="none" stroke="#999999" stroke-width="0.3175" /><circle cx="354.66041322682065" cy="91.20536679591521" fill="#888" opacity="1.0" r="1.0" stroke="#444" stroke-width="0.15" /><circle cx="394.66041322682065" cy="64.11754722121589" fill="#654321" r="1.0" stroke="#333" stroke-width="0.15" /><line stroke="#0000FF" stroke-width="0.3175" x1="363.5485572742474" x2="358.4858726462393" y1="127.04999999999995" y2="92.77526828811699" /><path d="M 358.5,92.8 A 0.9,0.9 0 0,0 359.8,91.9" fill="none" stroke="#0000FF" stroke-width="0.3175" /><line stroke="#0000FF" stroke-width="0.3175" x1="359.77318605598555" x2="362.7837632632553" y1="91.8655324390786" y2="94.4029714077144" /><path d="M 362.8,94.4 A 0.9,0.9 0 0,0 361.3,95.5" fill="none" stroke="#0000FF" stroke-width="0.3175" /><line stroke="#0000FF" stroke-width="0.3175" x1="361.3454403912342" x2="360.53995321142463" y1="95.51014708258003" y2="91.77112662965737" /><path d="M 360.5,91.8 A 1.0,1.0 0 0,1 360.8,91.0" fill="none" stroke="#0000FF" stroke-width="0.3175" /><line stroke="#0000FF" stroke-width="0.3175" x1="360.78995321142463" x2="400.99848122105936" y1="91.02112662965737" y2="63.86269553190618" /><path d="M 401.0,63.9 A 1.0,1.0 0 0,1 401.1,63.4" fill="none" stroke="#0000FF" stroke-width="0.3175" /><circle cx="361.6984812210593" cy="91.74844594642582" fill="#888" opacity="1.0" r="1.0" stroke="#444" stroke-width="0.15" /><circle cx="401.6984812210593" cy="64.56269553190623" fill="#654321" r="1.0" stroke="#333" stroke-width="0.15" /><line stroke="#999999" stroke-width="0.3175" x1="370.319708300495" x2="365.5131927664711" y1="122.5" y2="93.01060692962153" /><path d="M 365.5,93.0 A 0.9,0.9 0 0,0 366.8,92.1" fill="none" stroke="#999999" stroke-width="0.3175" /><line stroke="#999999" stroke-width="0.3175" x1="366.79354377243544" x2="369.7986283996147" y1="92.09202527446439" y2="94.59707586920865" /><path d="M 369.8,94.6 A 0.9,0.9 0 0,0 368.4,95.7" fill="none" stroke="#999999" stroke-width="0.3175" /><line stroke="#999999" stroke-width="0.3175" x1="368.39608517446493" x2="367.57529414030955" y1="95.74434578758724" y2="92.25787217134223" /><path d="M 367.6,92.3 A 1.0,1.0 0 0,1 367.8,91.5" fill="none" stroke="#999999" stroke-width="0.3175" /><line stroke="#999999" stroke-width="0.3175" x1="367.82529414030955" x2="408.03392882633375" y1="91.50787217134223" y2="64.30767810652776" /><path d="M 408.0,64.3 A 1.0,1.0 0 0,1 408.2,63.8" fill="none" stroke="#999999" stroke-width="0.3175" /><circle cx="368.7339288263338" cy="92.24152509693636" fill="#888" opacity="1.0" r="1.0" stroke="#444" stroke-width="0.15" /><circle cx="408.7339288263338" cy="65.0076781065278" fill="#654321" r="1.0" stroke="#333" stroke-width="0.15" /></svg>