<?xml version="1.0" encoding="utf-8" ?>
<svg baseProfile="full" height="44.2vw" preserveAspectRatio="xMinYMin meet" version="1.1" viewBox="0 0 453 200" width="100vw" xmlns="http://www.w3.org/2000/svg" xmlns:ev="http://www.w3.org/2001/xml-events" xmlns:xlink="http://www.w3.org/1999/xlink"><defs /><rect fill="white" height="869" width="453" x="0" y="0" /><line opacity="1.0" stroke="#90EE90" stroke-dasharray="4,2" stroke-width="0.5" x1="45.0" x2="368.7339288263338" y1="67.58805890014798" y2="92.24152509693636" /><line opacity="1.0" stroke="#8B4513" stroke-width="0.8" x1="85.0" x2="408.7339288263338" y1="45.53194362255306" y2="66.0076781065278" /><path d="M 84.6,824.0 L 90.9,809.0 L 97.1,795.1 L 103.5,782.0 L 109.8,769.2 L 116.1,756.4 L 122.5,743.3 L 128.8,729.5 L 135.0,714.6 L 141.1,697.5 L 147.1,677.6 L 152.9,655.4 L 158.6,630.6 L 164.2,602.8 L 169.6,572.1 L 174.9,539.6 L 180.2,506.6 L 185.5,473.9 L 190.8,442.2 L 196.3,412.9 L 201.9,386.4 L 207.7,362.6 L 213.6,341.2 L 219.6,322.0 L 225.6,304.5 L 231.8,288.5 L 238.1,273.8 L 244.3,260.0 L 250.7,247.3 L 257.1,235.5 L 263.5,224.5 L 270.0,214.4 L 276.5,205.0 L 283.1,196.4 L 289.7,188.3 L 296.3,180.9 L 302.9,174.0 L 309.6,167.6 L 316.3,161.6 L 323.0,156.0 L 329.7,150.7 L 336.5,145.6 L 343.2,140.8 L 350.0,136.1 L 356.8,131.5 L 363.5,127.0 L 370.3,122.5" fill="none" stroke="black" stroke-width="0.5" /><g opacity="1.0" transform="rotate(-3.2, 45.0, 110.2)"><path d="M 47.53,107.61 A 2.55,2.55 0 0,1 47.53,112.71 L 42.53,112.71 A 2.55,2.55 0 0,1 42.53,107.61 L 47.53,107.61 Z" fill="#B8A8D4" stroke="#55438B" stroke-width="0.15" /><circle cx="47.53105294821351" cy="110.16055558459163" fill="#888" r="1.25" stroke="#444" stroke-width="0.1" /><circle cx="42.53105294821351" cy="110.16055558459163" fill="#888" r="1.25" stroke="#444" stroke-width="0.1" /></g><g opacity="1.0" transform="rotate(-3.2, 47.3, 150.2)"><path d="M 49.75,147.68 A 2.55,2.55 0 0,1 49.75,152.78 L 44.75,152.78 A 2.55,2.55 0 0,1 44.75,147.68 L 49.75,147.68 Z" fill="#D4C4A8" stroke="#8B7355" stroke-width="0.15" /><circle cx="49.75423728363998" cy="150.2252850373244" fill="#888" r="1.25" stroke="#444" stroke-width="0.1" /><circle cx="44.75423728363998" cy="150.2252850373244" fill="#888" r="1.25" stroke="#444" stroke-width="0.1" /></g><g opacity="1.0" transform="rotate(-3.2, 51.9, 107.0)"><path d="M 54.42,104.43 A 2.55,2.55 0 0,1 54.42,109.53 L 49.42,109.53 A 2.55,2.55 0 0,1 49.42,104.43 L 54.42,104.43 Z" fill="#B8A8D4" stroke="#55438B" stroke-width="0.15" /><circle cx="54.42217409284333" cy="106.98447549675336" fill="#888" r="1.25" stroke="#444" stroke-width="0.1" /><circle cx="49.42217409284333" cy="106.98447549675336" fill="#888" r="1.25" stroke="#444" stroke-width="0.1" /></g><g opacity="1.0" transform="rotate(-3.2, 54.1, 146.4)"><path d="M 56.61,143.83 A 2.55,2.55 0 0,1 56.61,148.93 L 51.61,148.93 A 2.55,2.55 0 0,1 51.61,143.83 L 56.61,143.83 Z" fill="#D4C4A8" stroke="#8B7355" stroke-width="0.15" /><circle cx="56.60774008527053" cy="146.38277303325367" fill="#888" r="1.25" stroke="#444" stroke-width="0.1" /><circle cx="51.60774008527053" cy="146.38277303325367" fill="#888" r="1.25" stroke="#444" stroke-width="0.1" /></g><g opacity="1.0" transform="rotate(-3.2, 58.9, 105.1)"><path d="M 61.37,102.56 A 2.50,2.50 0 0,1 61.37,107.56 L 56.37,107.56 A 2.50,2.50 0 0,1 56.37,102.56 L 61.37,102.56 Z" fill="#B8A8D4" stroke="#55438B" stroke-width="0.15" /><circle cx="61.372764672299404" cy="105.05585151342007" fill="#888" r="1.25" stroke="#444" stroke-width="0.1" /><circle cx="56.372764672299404" cy="105.05585151342007" fill="#888" r="1.25" stroke="#444" stroke-width="0.1" /></g><g opacity="1.0" transform="rotate(-3.2, 61.0, 143.8)"><path d="M 63.52,141.29 A 2.50,2.50 0 0,1 63.52,146.29 L 58.52,146.29 A 2.50,2.50 0 0,1 58.52,141.29 L 63.52,141.29 Z" fill="#D4C4A8" stroke="#8B7355" stroke-width="0.15" /><circle cx="63.52090426598299" cy="143.785053627205" fill="#888" r="1.25" stroke="#444" stroke-width="0.1" /><circle cx="58.52090426598299" cy="143.785053627205" fill="#888" r="1.25" stroke="#444" stroke-width="0.1" /></g><g opacity="1.0" transform="rotate(-3.2, 65.8, 103.8)"><path d="M 68.35,101.28 A 2.50,2.50 0 0,1 68.35,106.28 L 63.35,106.28 A 2.50,2.50 0 0,1 63.35,101.28 L 68.35,101.28 Z" fill="#B8A8D4" stroke="#55438B" stroke-width="0.15" /><circle cx="68.34555544257758" cy="103.78076476126091" fill="#888" r="1.25" stroke="#444" stroke-width="0.1" /><circle cx="63.34555544257758" cy="103.78076476126091" fill="#888" r="1.25" stroke="#444" stroke-width="0.1" /></g><g opacity="1.0" transform="rotate(-3.2, 68.0, 141.8)"><path d="M 70.46,139.34 A 2.50,2.50 0 0,1 70.46,144.34 L 65.46,144.34 A 2.50,2.50 0 0,1 65.46,139.34 L 70.46,139.34 Z" fill="#D4C4A8" stroke="#8B7355" stroke-width="0.15" /><circle cx="70.4570816323922" cy="141.8434792071654" fill="#888" r="1.25" stroke="#444" stroke-width="0.1" /><circle cx="65.4570816323922" cy="141.8434792071654" fill="#888" r="1.25" stroke="#444" stroke-width="0.1" /></g><g opacity="1.0" transform="rotate(-3.2, 73.0, 105.3)"><path d="M 75.48,102.81 A 2.50,2.50 0 0,1 75.48,107.81 L 70.48,107.81 A 2.50,2.50 0 0,1 70.48,102.81 L 75.48,102.81 Z" fill="#B8A8D4" stroke="#55438B" stroke-width="0.15" /><circle cx="75.4770562416295" cy="105.30861674064272" fill="#888" r="1.25" stroke="#444" stroke-width="0.1" /><circle cx="70.4770562416295" cy="105.30861674064272" fill="#888" r="1.25" stroke="#444" stroke-width="0.1" /></g><g opacity="1.0" transform="rotate(-3.2, 75.0, 142.6)"><path d="M 77.54,140.07 A 2.50,2.50 0 0,1 77.54,145.07 L 72.54,145.07 A 2.50,2.50 0 0,1 72.54,140.07 L 77.54,140.07 Z" fill="#D4C4A8" stroke="#8B7355" stroke-width="0.15" /><circle cx="77.54423788717918" cy="142.5699769307754" fill="#888" r="1.25" stroke="#444" stroke-width="0.1" /><circle cx="72.54423788717918" cy="142.5699769307754" fill="#888" r="1.25" stroke="#444" stroke-width="0.1" /></g><g opacity="1.0" transform="rotate(-3.2, 80.1, 106.8)"><path d="M 82.61,104.24 A 2.55,2.55 0 0,1 82.61,109.34 L 77.61,109.34 A 2.55,2.55 0 0,1 77.61,104.24 L 82.61,104.24 Z" fill="#B8A8D4" stroke="#55438B" stroke-width="0.15" /><circle cx="82.60617224633587" cy="106.78645565512466" fill="#888" r="1.25" stroke="#444" stroke-width="0.1" /><circle cx="77.60617224633587" cy="106.78645565512466" fill="#888" r="1.25" stroke="#444" stroke-width="0.1" /></g><g opacity="1.0" transform="rotate(-3.2, 82.1, 143.2)"><path d="M 84.63,140.70 A 2.55,2.55 0 0,1 84.63,145.80 L 79.63,145.80 A 2.55,2.55 0 0,1 79.63,140.70 L 84.63,140.70 Z" fill="#D4C4A8" stroke="#8B7355" stroke-width="0.15" /><circle cx="84.62899612471071" cy="143.246462322762" fill="#888" r="1.25" stroke="#444" stroke-width="0.1" /><circle cx="79.62899612471071" cy="143.246462322762" fill="#888" r="1.25" stroke="#444" stroke-width="0.1" /></g><g opacity="1.0" transform="rotate(-3.2, 87.2, 108.0)"><path d="M 89.70,105.47 A 2.50,2.50 0 0,1 89.70,110.47 L 84.70,110.47 A 2.50,2.50 0 0,1 84.70,105.47 L 89.70,105.47 Z" fill="#B8A8D4" stroke="#55438B" stroke-width="0.15" /><circle cx="89.69553536804867" cy="107.96562832897621" fill="#888" r="1.25" stroke="#444" stroke-width="0.1" /><circle cx="84.69553536804867" cy="107.96562832897621" fill="#888" r="1.25" stroke="#444" stroke-width="0.1" /></g><g opacity="1.0" transform="rotate(-3.2, 89.2, 143.6)"><path d="M 91.68,141.12 A 2.50,2.50 0 0,1 91.68,146.12 L 86.68,146.12 A 2.50,2.50 0 0,1 86.68,141.12 L 91.68,141.12 Z" fill="#D4C4A8" stroke="#8B7355" stroke-width="0.15" /><circle cx="91.67535021033964" cy="143.62420661595672" fill="#888" r="1.25" stroke="#444" stroke-width="0.1" /><circle cx="86.67535021033964" cy="143.62420661595672" fill="#888" r="1.25" stroke="#444" stroke-width="0.1" /></g><g opacity="1.0" transform="rotate(-3.2, 94.3, 108.4)"><path d="M 96.75,105.89 A 2.50,2.50 0 0,1 96.75,110.89 L 91.75,110.89 A 2.50,2.50 0 0,1 91.75,105.89 L 96.75,105.89 Z" fill="#B8A8D4" stroke="#55438B" stroke-width="0.15" /><circle cx="96.75171815702319" cy="108.3944617777961" fill="#888" r="1.25" stroke="#444" stroke-width="0.1" /><circle cx="91.75171815702319" cy="108.3944617777961" fill="#888" r="1.25" stroke="#444" stroke-width="0.1" /></g><g opacity="1.0" transform="rotate(-3.2, 96.2, 143.3)"><path d="M 98.69,140.75 A 2.50,2.50 0 0,1 98.69,145.75 L 93.69,145.75 A 2.50,2.50 0 0,1 93.69,140.75 L 98.69,140.75 Z" fill="#D4C4A8" stroke="#8B7355" stroke-width="0.15" /><circle cx="98.68818016523585" cy="143.25163072335806" fill="#888" r="1.25" stroke="#444" stroke-width="0.1" /><circle cx="93.68818016523585" cy="143.25163072335806" fill="#888" r="1.25" stroke="#444" stroke-width="0.1" /></g><g opacity="1.0" transform="rotate(-3.2, 101.4, 110.2)"><path d="M 103.88,107.73 A 2.50,2.50 0 0,1 103.88,112.73 L 98.88,112.73 A 2.50,2.50 0 0,1 98.88,107.73 L 103.88,107.73 Z" fill="#B8A8D4" stroke="#55438B" stroke-width="0.15" /><circle cx="103.88146051382158" cy="110.2268889912691" fill="#888" r="1.25" stroke="#444" stroke-width="0.1" /><circle cx="98.88146051382158" cy="110.2268889912691" fill="#888" r="1.25" stroke="#444" stroke-width="0.1" /></g><g opacity="1.0" transform="rotate(-3.2, 103.3, 144.1)"><path d="M 105.77,141.65 A 2.50,2.50 0 0,1 105.77,146.65 L 100.77,146.65 A 2.50,2.50 0 0,1 100.77,141.65 L 105.77,141.65 Z" fill="#D4C4A8" stroke="#8B7355" stroke-width="0.15" /><circle cx="105.7674996840199" cy="144.14774524333734" fill="#888" r="1.25" stroke="#444" stroke-width="0.1" /><circle cx="100.7674996840199" cy="144.14774524333734" fill="#888" r="1.25" stroke="#444" stroke-width="0.1" /></g><g opacity="1.0" transform="rotate(-3.2, 108.1, 112.2)"><path d="M 110.65,109.74 A 2.45,2.45 0 0,1 110.65,114.64 L 105.65,114.64 A 2.45,2.45 0 0,1 105.65,109.74 L 110.65,109.74 Z" fill="#B8A8D4" stroke="#55438B" stroke-width="0.15" /><circle cx="110.64550378406369" cy="112.18656681547714" fill="#888" r="1.25" stroke="#444" stroke-width="0.1" /><circle cx="105.64550378406369" cy="112.18656681547714" fill="#888" r="1.25" stroke="#444" stroke-width="0.1" /></g><g opacity="1.0" transform="rotate(-3.2, 110.0, 145.0)"><path d="M 112.50,142.59 A 2.45,2.45 0 0,1 112.50,147.49 L 107.50,147.49 A 2.45,2.45 0 0,1 107.50,142.59 L 112.50,142.59 Z" fill="#D4C4A8" stroke="#8B7355" stroke-width="0.15" /><circle cx="112.49502702790787" cy="145.03768554959618" fill="#888" r="1.25" stroke="#444" stroke-width="0.1" /><circle cx="107.49502702790787" cy="145.03768554959618" fill="#888" r="1.25" stroke="#444" stroke-width="0.1" /></g><g opacity="1.0" transform="rotate(-3.2, 114.6, 101.8)"><path d="M 117.14,99.31 A 2.50,2.50 0 0,1 117.14,104.31 L 112.14,104.31 A 2.50,2.50 0 0,1 112.14,99.31 L 117.14,99.31 Z" fill="#B8A8D4" stroke="#55438B" stroke-width="0.15" /><circle cx="117.13515564837425" cy="101.80535143958491" fill="#888" r="1.25" stroke="#444" stroke-width="0.1" /><circle cx="112.13515564837425" cy="101.80535143958491" fill="#888" r="1.25" stroke="#444" stroke-width="0.1" /></g><g opacity="1.0" transform="rotate(-3.2, 116.5, 134.1)"><path d="M 118.96,131.62 A 2.50,2.50 0 0,1 118.96,136.62 L 113.96,136.62 A 2.50,2.50 0 0,1 113.96,131.62 L 118.96,131.62 Z" fill="#D4C4A8" stroke="#8B7355" stroke-width="0.15" /><circle cx="118.95532738874378" cy="134.12222184424093" fill="#888" r="1.25" stroke="#444" stroke-width="0.1" /><circle cx="113.95532738874378" cy="134.12222184424093" fill="#888" r="1.25" stroke="#444" stroke-width="0.1" /></g><g opacity="1.0" transform="rotate(-3.2, 121.4, 96.2)"><path d="M 123.90,93.74 A 2.50,2.50 0 0,1 123.90,98.74 L 118.90,98.74 A 2.50,2.50 0 0,1 118.90,93.74 L 123.90,93.74 Z" fill="#B8A8D4" stroke="#55438B" stroke-width="0.15" /><circle cx="123.90102647875707" cy="96.23933527927" fill="#888" r="1.25" stroke="#444" stroke-width="0.1" /><circle cx="118.90102647875707" cy="96.23933527927" fill="#888" r="1.25" stroke="#444" stroke-width="0.1" /></g><g opacity="1.0" transform="rotate(-3.2, 123.2, 127.6)"><path d="M 125.67,125.12 A 2.50,2.50 0 0,1 125.67,130.12 L 120.67,130.12 A 2.50,2.50 0 0,1 120.67,125.12 L 125.67,125.12 Z" fill="#D4C4A8" stroke="#8B7355" stroke-width="0.15" /><circle cx="125.66957846427471" cy="127.62261190808204" fill="#888" r="1.25" stroke="#444" stroke-width="0.1" /><circle cx="120.66957846427471" cy="127.62261190808204" fill="#888" r="1.25" stroke="#444" stroke-width="0.1" /></g><g opacity="1.0" transform="rotate(-3.2, 129.0, 107.1)"><path d="M 131.52,104.61 A 2.50,2.50 0 0,1 131.52,109.61 L 126.52,109.61 A 2.50,2.50 0 0,1 126.52,104.61 L 131.52,104.61 Z" fill="#B8A8D4" stroke="#55438B" stroke-width="0.15" /><circle cx="131.51672278049188" cy="107.11427205313635" fill="#888" r="1.25" stroke="#444" stroke-width="0.1" /><circle cx="126.51672278049188" cy="107.11427205313635" fill="#888" r="1.25" stroke="#444" stroke-width="0.1" /></g><g opacity="1.0" transform="rotate(-3.2, 130.7, 136.5)"><path d="M 133.18,134.00 A 2.50,2.50 0 0,1 133.18,139.00 L 128.18,139.00 A 2.50,2.50 0 0,1 128.18,134.00 L 133.18,134.00 Z" fill="#D4C4A8" stroke="#8B7355" stroke-width="0.15" /><circle cx="133.17831027363138" cy="136.49526833547804" fill="#888" r="1.25" stroke="#444" stroke-width="0.1" /><circle cx="128.17831027363138" cy="136.49526833547804" fill="#888" r="1.25" stroke="#444" stroke-width="0.1" /></g><g opacity="1.0" transform="rotate(-3.2, 136.0, 105.5)"><path d="M 138.47,103.02 A 2.50,2.50 0 0,1 138.47,108.02 L 133.47,108.02 A 2.50,2.50 0 0,1 133.47,103.02 L 138.47,103.02 Z" fill="#B8A8D4" stroke="#55438B" stroke-width="0.15" /><circle cx="138.4726101900776" cy="105.51655496947183" fill="#888" r="1.25" stroke="#444" stroke-width="0.1" /><circle cx="133.4726101900776" cy="105.51655496947183" fill="#888" r="1.25" stroke="#444" stroke-width="0.1" /></g><g opacity="1.0" transform="rotate(-3.2, 137.6, 133.4)"><path d="M 140.06,130.93 A 2.50,2.50 0 0,1 140.06,135.93 L 135.06,135.93 A 2.50,2.50 0 0,1 135.06,130.93 L 140.06,130.93 Z" fill="#D4C4A8" stroke="#8B7355" stroke-width="0.15" /><circle cx="140.05544115051026" cy="133.4269301138254" fill="#888" r="1.25" stroke="#444" stroke-width="0.1" /><circle cx="135.05544115051026" cy="133.4269301138254" fill="#888" r="1.25" stroke="#444" stroke-width="0.1" /></g><g opacity="1.0" transform="rotate(-3.2, 143.5, 105.8)"><path d="M 146.47,103.31 A 2.45,2.45 0 0,1 146.47,108.21 L 140.47,108.21 A 2.45,2.45 0 0,1 140.47,103.31 L 146.47,103.31 Z" fill="#B8A8D4" stroke="#55438B" stroke-width="0.15" /><circle cx="146.46736055123404" cy="105.7568921866922" fill="#888" r="1.0" stroke="#444" stroke-width="0.1" /><circle cx="140.46736055123404" cy="105.7568921866922" fill="#888" r="1.0" stroke="#444" stroke-width="0.1" /></g><g opacity="1.0" transform="rotate(-3.2, 144.9, 131.9)"><path d="M 147.93,129.48 A 2.45,2.45 0 0,1 147.93,134.38 L 141.93,134.38 A 2.45,2.45 0 0,1 141.93,129.48 L 147.93,129.48 Z" fill="#D4C4A8" stroke="#8B7355" stroke-width="0.15" /><circle cx="147.93280787092834" cy="131.93352592323515" fill="#888" r="1.0" stroke="#444" stroke-width="0.1" /><circle cx="141.93280787092834" cy="131.93352592323515" fill="#888" r="1.0" stroke="#444" stroke-width="0.1" /></g><g opacity="1.0" transform="rotate(-3.2, 150.4, 104.2)"><path d="M 153.43,101.77 A 2.45,2.45 0 0,1 153.43,106.67 L 147.43,106.67 A 2.45,2.45 0 0,1 147.43,101.77 L 153.43,101.77 Z" fill="#B8A8D4" stroke="#55438B" stroke-width="0.15" /><circle cx="153.42639269776694" cy="104.2191992186938" fill="#888" r="1.0" stroke="#444" stroke-width="0.1" /><circle cx="147.42639269776694" cy="104.2191992186938" fill="#888" r="1.0" stroke="#444" stroke-width="0.1" /></g><g opacity="1.0" transform="rotate(-3.2, 151.8, 128.7)"><path d="M 154.80,126.21 A 2.45,2.45 0 0,1 154.80,131.11 L 148.80,131.11 A 2.45,2.45 0 0,1 148.80,126.21 L 154.80,126.21 Z" fill="#D4C4A8" stroke="#8B7355" stroke-width="0.15" /><circle cx="154.7990822978563" cy="128.65805219210506" fill="#888" r="1.0" stroke="#444" stroke-width="0.1" /><circle cx="148.7990822978563" cy="128.65805219210506" fill="#888" r="1.0" stroke="#444" stroke-width="0.1" /></g><g opacity="1.0" transform="rotate(-3.2, 157.3, 99.7)"><path d="M 160.26,97.38 A 2.35,2.35 0 0,1 160.26,102.08 L 154.26,102.08 A 2.35,2.35 0 0,1 154.26,97.38 L 160.26,97.38 Z" fill="#B8A8D4" stroke="#55438B" stroke-width="0.15" /><circle cx="160.26055240556198" cy="99.72623862918817" fill="#888" r="1.0" stroke="#444" stroke-width="0.1" /><circle cx="154.26055240556198" cy="99.72623862918817" fill="#888" r="1.0" stroke="#444" stroke-width="0.1" /></g><g opacity="1.0" transform="rotate(-3.2, 158.5, 122.6)"><path d="M 161.55,120.21 A 2.35,2.35 0 0,1 161.55,124.91 L 155.55,124.91 A 2.35,2.35 0 0,1 155.55,120.21 L 161.55,120.21 Z" fill="#D4C4A8" stroke="#8B7355" stroke-width="0.15" /><circle cx="161.5458750550495" cy="122.56230813790955" fill="#888" r="1.0" stroke="#444" stroke-width="0.1" /><circle cx="155.5458750550495" cy="122.56230813790955" fill="#888" r="1.0" stroke="#444" stroke-width="0.1" /></g><g opacity="1.0" transform="rotate(-3.2, 164.3, 100.3)"><path d="M 167.30,98.00 A 2.30,2.30 0 0,1 167.30,102.60 L 161.30,102.60 A 2.30,2.30 0 0,1 161.30,98.00 L 167.30,98.00 Z" fill="#B8A8D4" stroke="#55438B" stroke-width="0.15" /><circle cx="167.3000662864163" cy="100.29673934870061" fill="#888" r="1.0" stroke="#444" stroke-width="0.1" /><circle cx="161.3000662864163" cy="100.29673934870061" fill="#888" r="1.0" stroke="#444" stroke-width="0.1" /></g><g opacity="1.0" transform="rotate(-3.2, 165.5, 121.3)"><path d="M 168.49,118.96 A 2.30,2.30 0 0,1 168.49,123.56 L 162.49,123.56 A 2.30,2.30 0 0,1 162.49,118.96 L 168.49,118.96 Z" fill="#D4C4A8" stroke="#8B7355" stroke-width="0.15" /><circle cx="168.48737876798526" cy="121.26267285274912" fill="#888" r="1.0" stroke="#444" stroke-width="0.1" /><circle cx="162.48737876798526" cy="121.26267285274912" fill="#888" r="1.0" stroke="#444" stroke-width="0.1" /></g><g opacity="1.0" transform="rotate(-3.3, 171.2, 97.3)"><path d="M 174.18,95.01 A 2.25,2.25 0 0,1 174.18,99.51 L 168.18,99.51 A 2.25,2.25 0 0,1 168.18,95.01 L 174.18,95.01 Z" fill="#B8A8D4" stroke="#55438B" stroke-width="0.15" /><circle cx="174.18030356729696" cy="97.25550676137414" fill="#888" r="1.0" stroke="#444" stroke-width="0.1" /><circle cx="168.18030356729696" cy="97.25550676137414" fill="#888" r="1.0" stroke="#444" stroke-width="0.1" /></g><g opacity="1.0" transform="rotate(-3.3, 172.3, 116.6)"><path d="M 175.28,114.37 A 2.25,2.25 0 0,1 175.28,118.87 L 169.28,118.87 A 2.25,2.25 0 0,1 169.28,114.37 L 175.28,114.37 Z" fill="#D4C4A8" stroke="#8B7355" stroke-width="0.15" /><circle cx="175.28192802562268" cy="116.61855981542294" fill="#888" r="1.0" stroke="#444" stroke-width="0.1" /><circle cx="169.28192802562268" cy="116.61855981542294" fill="#888" r="1.0" stroke="#444" stroke-width="0.1" /></g><g opacity="1.0" transform="rotate(-3.3, 178.3, 98.8)"><path d="M 181.27,96.52 A 2.25,2.25 0 0,1 181.27,101.02 L 175.27,101.02 A 2.25,2.25 0 0,1 175.27,96.52 L 181.27,96.52 Z" fill="#B8A8D4" stroke="#55438B" stroke-width="0.15" /><circle cx="181.26942474058092" cy="98.77249471742039" fill="#888" r="1.0" stroke="#444" stroke-width="0.1" /><circle cx="175.26942474058092" cy="98.77249471742039" fill="#888" r="1.0" stroke="#444" stroke-width="0.1" /></g><g opacity="1.0" transform="rotate(-3.3, 179.3, 116.4)"><path d="M 182.28,114.15 A 2.25,2.25 0 0,1 182.28,118.65 L 176.28,118.65 A 2.25,2.25 0 0,1 176.28,114.15 L 182.28,114.15 Z" fill="#D4C4A8" stroke="#8B7355" stroke-width="0.15" /><circle cx="182.2801085534253" cy="116.40031057262422" fill="#888" r="1.0" stroke="#444" stroke-width="0.1" /><circle cx="176.2801085534253" cy="116.40031057262422" fill="#888" r="1.0" stroke="#444" stroke-width="0.1" /></g><g opacity="1.0" transform="rotate(-3.3, 185.1, 93.7)"><path d="M 188.08,91.81 A 1.90,1.90 0 0,1 188.08,95.61 L 182.08,95.61 A 1.90,1.90 0 0,1 182.08,91.81 L 188.08,91.81 Z" fill="#B8A8D4" stroke="#55438B" stroke-width="0.15" /><circle cx="188.07978494827188" cy="93.71269997429044" fill="#888" r="1.0" stroke="#444" stroke-width="0.1" /><circle cx="182.07978494827188" cy="93.71269997429044" fill="#888" r="1.0" stroke="#444" stroke-width="0.1" /></g><g opacity="1.0" transform="rotate(-3.3, 186.0, 110.1)"><path d="M 189.02,108.24 A 1.90,1.90 0 0,1 189.02,112.04 L 183.02,112.04 A 1.90,1.90 0 0,1 183.02,108.24 L 189.02,108.24 Z" fill="#D4C4A8" stroke="#8B7355" stroke-width="0.15" /><circle cx="189.0237038920623" cy="110.13716957320685" fill="#888" r="1.0" stroke="#444" stroke-width="0.1" /><circle cx="183.0237038920623" cy="110.13716957320685" fill="#888" r="1.0" stroke="#444" stroke-width="0.1" /></g><g opacity="1.0" transform="rotate(-3.3, 192.1, 93.8)"><path d="M 195.09,91.96 A 1.85,1.85 0 0,1 195.09,95.66 L 189.09,95.66 A 1.85,1.85 0 0,1 189.09,91.96 L 195.09,91.96 Z" fill="#B8A8D4" stroke="#55438B" stroke-width="0.15" /><circle cx="195.0946719645661" cy="93.81319349036494" fill="#888" r="1.0" stroke="#444" stroke-width="0.1" /><circle cx="189.0946719645661" cy="93.81319349036494" fill="#888" r="1.0" stroke="#444" stroke-width="0.1" /></g><g opacity="1.0" transform="rotate(-3.3, 193.0, 108.9)"><path d="M 195.97,107.05 A 1.85,1.85 0 0,1 195.97,110.75 L 189.97,110.75 A 1.85,1.85 0 0,1 189.97,107.05 L 195.97,107.05 Z" fill="#D4C4A8" stroke="#8B7355" stroke-width="0.15" /><circle cx="195.9685828149673" cy="108.90184403217677" fill="#888" r="1.0" stroke="#444" stroke-width="0.1" /><circle cx="189.9685828149673" cy="108.90184403217677" fill="#888" r="1.0" stroke="#444" stroke-width="0.1" /></g><g opacity="1.0" transform="rotate(-3.3, 199.1, 93.8)"><path d="M 202.10,91.91 A 1.90,1.90 0 0,1 202.10,95.71 L 196.10,95.71 A 1.90,1.90 0 0,1 196.10,91.91 L 202.10,91.91 Z" fill="#B8A8D4" stroke="#55438B" stroke-width="0.15" /><circle cx="202.1041337961712" cy="93.8101267592441" fill="#888" r="1.0" stroke="#444" stroke-width="0.1" /><circle cx="196.1041337961712" cy="93.8101267592441" fill="#888" r="1.0" stroke="#444" stroke-width="0.1" /></g><g opacity="1.0" transform="rotate(-3.3, 199.9, 107.7)"><path d="M 202.92,105.80 A 1.90,1.90 0 0,1 202.92,109.60 L 196.92,109.60 A 1.90,1.90 0 0,1 196.92,105.80 L 202.92,105.80 Z" fill="#D4C4A8" stroke="#8B7355" stroke-width="0.15" /><circle cx="202.91510631745885" cy="107.69785971483611" fill="#888" r="1.0" stroke="#444" stroke-width="0.1" /><circle cx="196.91510631745885" cy="107.69785971483611" fill="#888" r="1.0" stroke="#444" stroke-width="0.1" /></g><g opacity="1.0" transform="rotate(-3.4, 206.1, 93.6)"><path d="M 209.13,91.75 A 1.85,1.85 0 0,1 209.13,95.45 L 203.13,95.45 A 1.85,1.85 0 0,1 203.13,91.75 L 209.13,91.75 Z" fill="#B8A8D4" stroke="#55438B" stroke-width="0.15" /><circle cx="209.13268854735844" cy="93.59886505925078" fill="#888" r="1.0" stroke="#444" stroke-width="0.1" /><circle cx="203.13268854735844" cy="93.59886505925078" fill="#888" r="1.0" stroke="#444" stroke-width="0.1" /></g><g opacity="1.0" transform="rotate(-3.4, 206.9, 106.4)"><path d="M 209.89,104.57 A 1.85,1.85 0 0,1 209.89,108.27 L 203.89,108.27 A 1.85,1.85 0 0,1 203.89,104.57 L 209.89,104.57 Z" fill="#D4C4A8" stroke="#8B7355" stroke-width="0.15" /><circle cx="209.8859751949592" cy="106.41803574208154" fill="#888" r="1.0" stroke="#444" stroke-width="0.1" /><circle cx="203.8859751949592" cy="106.41803574208154" fill="#888" r="1.0" stroke="#444" stroke-width="0.1" /></g><g opacity="1.0" transform="rotate(-3.4, 213.1, 92.8)"><path d="M 216.10,90.93 A 1.85,1.85 0 0,1 216.10,94.63 L 210.10,94.63 A 1.85,1.85 0 0,1 210.10,90.93 L 216.10,90.93 Z" fill="#B8A8D4" stroke="#55438B" stroke-width="0.15" /><circle cx="216.09955137482015" cy="92.78290465566238" fill="#888" r="1.0" stroke="#444" stroke-width="0.1" /><circle cx="210.09955137482015" cy="92.78290465566238" fill="#888" r="1.0" stroke="#444" stroke-width="0.1" /></g><g opacity="1.0" transform="rotate(-3.4, 213.8, 104.7)"><path d="M 216.80,102.82 A 1.85,1.85 0 0,1 216.80,106.52 L 210.80,106.52 A 1.85,1.85 0 0,1 210.80,102.82 L 216.80,102.82 Z" fill="#D4C4A8" stroke="#8B7355" stroke-width="0.15" /><circle cx="216.803762139963" cy="104.6656721488988" fill="#888" r="1.0" stroke="#444" stroke-width="0.1" /><circle cx="210.803762139963" cy="104.6656721488988" fill="#888" r="1.0" stroke="#444" stroke-width="0.1" /></g><g opacity="1.0" transform="rotate(-3.4, 220.1, 93.4)"><path d="M 223.14,91.57 A 1.85,1.85 0 0,1 223.14,95.27 L 217.14,95.27 A 1.85,1.85 0 0,1 217.14,91.57 L 223.14,91.57 Z" fill="#B8A8D4" stroke="#55438B" stroke-width="0.15" /><circle cx="223.1425641179556" cy="93.41987536302724" fill="#888" r="1.0" stroke="#444" stroke-width="0.1" /><circle cx="217.1425641179556" cy="93.41987536302724" fill="#888" r="1.0" stroke="#444" stroke-width="0.1" /></g><g opacity="1.0" transform="rotate(-3.4, 220.8, 104.4)"><path d="M 223.80,102.52 A 1.85,1.85 0 0,1 223.80,106.22 L 217.80,106.22 A 1.85,1.85 0 0,1 217.80,102.52 L 223.80,102.52 Z" fill="#D4C4A8" stroke="#8B7355" stroke-width="0.15" /><circle cx="223.79783716823374" cy="104.36888144041825" fill="#888" r="1.0" stroke="#444" stroke-width="0.1" /><circle cx="217.79783716823374" cy="104.36888144041825" fill="#888" r="1.0" stroke="#444" stroke-width="0.1" /></g><g opacity="1.0" transform="rotate(-3.4, 227.2, 92.9)"><path d="M 230.16,91.15 A 1.80,1.80 0 0,1 230.16,94.75 L 224.16,94.75 A 1.80,1.80 0 0,1 224.16,91.15 L 230.16,91.15 Z" fill="#B8A8D4" stroke="#55438B" stroke-width="0.15" /><circle cx="230.1574956456448" cy="92.9485914128079" fill="#888" r="1.0" stroke="#444" stroke-width="0.1" /><circle cx="224.1574956456448" cy="92.9485914128079" fill="#888" r="1.0" stroke="#444" stroke-width="0.1" /></g><g opacity="1.0" transform="rotate(-3.4, 227.8, 103.1)"><path d="M 230.77,101.30 A 1.80,1.80 0 0,1 230.77,104.90 L 224.77,104.90 A 1.80,1.80 0 0,1 224.77,101.30 L 230.77,101.30 Z" fill="#D4C4A8" stroke="#8B7355" stroke-width="0.15" /><circle cx="230.76908383686722" cy="103.09619473788212" fill="#888" r="1.0" stroke="#444" stroke-width="0.1" /><circle cx="224.76908383686722" cy="103.09619473788212" fill="#888" r="1.0" stroke="#444" stroke-width="0.1" /></g><g opacity="1.0" transform="rotate(-3.5, 234.2, 93.5)"><path d="M 236.89,91.73 A 1.80,1.80 0 0,1 236.89,95.33 L 231.50,95.33 A 1.80,1.80 0 0,1 231.50,91.73 L 236.89,91.73 Z" fill="#B8A8D4" stroke="#55438B" stroke-width="0.15" /><circle cx="236.89228244488754" cy="93.52916419503447" fill="#888" r="1.0" stroke="#444" stroke-width="0.1" /><circle cx="231.50283717533517" cy="93.52916419503447" fill="#888" r="1.0" stroke="#444" stroke-width="0.1" /></g><g opacity="1.0" transform="rotate(-3.5, 234.8, 102.9)"><path d="M 237.46,101.08 A 1.80,1.80 0 0,1 237.46,104.68 L 232.07,104.68 A 1.80,1.80 0 0,1 232.07,101.08 L 237.46,101.08 Z" fill="#D4C4A8" stroke="#8B7355" stroke-width="0.15" /><circle cx="237.46186368430577" cy="102.87526055740705" fill="#888" r="1.0" stroke="#444" stroke-width="0.1" /><circle cx="232.0724184147534" cy="102.87526055740705" fill="#888" r="1.0" stroke="#444" stroke-width="0.1" /></g><g opacity="1.0" transform="rotate(-3.4, 241.4, 92.7)"><path d="M 244.35,90.89 A 1.80,1.80 0 0,1 244.35,94.49 L 238.45,94.49 A 1.80,1.80 0 0,1 238.45,90.89 L 244.35,90.89 Z" fill="#B8A8D4" stroke="#55438B" stroke-width="0.15" /><circle cx="244.34993531509156" cy="92.6889501393473" fill="#888" r="0.75" stroke="#444" stroke-width="0.1" /><circle cx="238.44877962581432" cy="92.6889501393473" fill="#888" r="0.75" stroke="#444" stroke-width="0.1" /></g><g opacity="1.0" transform="rotate(-3.4, 241.9, 101.4)"><path d="M 244.87,99.57 A 1.80,1.80 0 0,1 244.87,103.17 L 238.97,103.17 A 1.80,1.80 0 0,1 238.97,99.57 L 244.87,99.57 Z" fill="#D4C4A8" stroke="#8B7355" stroke-width="0.15" /><circle cx="244.87122655058863" cy="101.36660157978145" fill="#888" r="0.75" stroke="#444" stroke-width="0.1" /><circle cx="238.9700708613114" cy="101.36660157978145" fill="#888" r="0.75" stroke="#444" stroke-width="0.1" /></g><g opacity="1.0" transform="rotate(-3.5, 248.4, 92.8)"><path d="M 251.15,91.01 A 1.75,1.75 0 0,1 251.15,94.51 L 245.73,94.51 A 1.75,1.75 0 0,1 245.73,91.01 L 251.15,91.01 Z" fill="#B8A8D4" stroke="#55438B" stroke-width="0.15" /><circle cx="251.14860611604377" cy="92.76438588910196" fill="#888" r="0.75" stroke="#444" stroke-width="0.1" /><circle cx="245.72546070285773" cy="92.76438588910196" fill="#888" r="0.75" stroke="#444" stroke-width="0.1" /></g><g opacity="1.0" transform="rotate(-3.5, 248.9, 100.8)"><path d="M 251.63,99.03 A 1.75,1.75 0 0,1 251.63,102.53 L 246.21,102.53 A 1.75,1.75 0 0,1 246.21,99.03 L 251.63,99.03 Z" fill="#D4C4A8" stroke="#8B7355" stroke-width="0.15" /><circle cx="251.6336131435354" cy="100.77552033587676" fill="#888" r="0.75" stroke="#444" stroke-width="0.1" /><circle cx="246.21046773034936" cy="100.77552033587676" fill="#888" r="0.75" stroke="#444" stroke-width="0.1" /></g><g opacity="1.0" transform="rotate(-3.5, 255.5, 93.7)"><path d="M 257.98,91.99 A 1.75,1.75 0 0,1 257.98,95.49 L 253.02,95.49 A 1.75,1.75 0 0,1 253.02,91.99 L 257.98,91.99 Z" fill="#B8A8D4" stroke="#55438B" stroke-width="0.15" /><circle cx="257.975139947977" cy="93.73845844090636" fill="#888" r="0.75" stroke="#444" stroke-width="0.1" /><circle cx="253.02029583899645" cy="93.73845844090636" fill="#888" r="0.75" stroke="#444" stroke-width="0.1" /></g><g opacity="1.0" transform="rotate(-3.5, 255.9, 101.1)"><path d="M 258.43,99.33 A 1.75,1.75 0 0,1 258.43,102.83 L 253.47,102.83 A 1.75,1.75 0 0,1 253.47,99.33 L 258.43,99.33 Z" fill="#D4C4A8" stroke="#8B7355" stroke-width="0.15" /><circle cx="258.42507160629685" cy="101.0803461200777" fill="#888" r="0.75" stroke="#444" stroke-width="0.1" /><circle cx="253.47022749731633" cy="101.0803461200777" fill="#888" r="0.75" stroke="#444" stroke-width="0.1" /></g><g opacity="1.0" transform="rotate(-3.5, 262.3, 90.7)"><path d="M 264.73,88.96 A 1.75,1.75 0 0,1 264.73,92.46 L 259.96,92.46 A 1.75,1.75 0 0,1 259.96,88.96 L 264.73,88.96 Z" fill="#B8A8D4" stroke="#55438B" stroke-width="0.15" /><circle cx="264.7323573086853" cy="90.70523638501538" fill="#888" r="0.75" stroke="#444" stroke-width="0.1" /><circle cx="259.96440545954965" cy="90.70523638501538" fill="#888" r="0.75" stroke="#444" stroke-width="0.1" /></g><g opacity="1.0" transform="rotate(-3.5, 262.8, 97.6)"><path d="M 265.16,95.90 A 1.75,1.75 0 0,1 265.16,99.40 L 260.39,99.40 A 1.75,1.75 0 0,1 260.39,95.90 L 265.16,95.90 Z" fill="#D4C4A8" stroke="#8B7355" stroke-width="0.15" /><circle cx="265.16135430854604" cy="97.64769001058187" fill="#888" r="0.75" stroke="#444" stroke-width="0.1" /><circle cx="260.39340245941037" cy="97.64769001058187" fill="#888" r="0.75" stroke="#444" stroke-width="0.1" /></g><g opacity="1.0" transform="rotate(-3.6, 269.5, 93.2)"><path d="M 271.65,91.43 A 1.80,1.80 0 0,1 271.65,95.03 L 267.33,95.03 A 1.80,1.80 0 0,1 267.33,91.43 L 271.65,91.43 Z" fill="#B8A8D4" stroke="#55438B" stroke-width="0.15" /><circle cx="271.65375557494843" cy="93.22945761458936" fill="#888" r="0.75" stroke="#444" stroke-width="0.1" /><circle cx="267.32688898151815" cy="93.22945761458936" fill="#888" r="0.75" stroke="#444" stroke-width="0.1" /></g><g opacity="1.0" transform="rotate(-3.6, 269.9, 99.5)"><path d="M 272.05,97.70 A 1.80,1.80 0 0,1 272.05,101.30 L 267.72,101.30 A 1.80,1.80 0 0,1 267.72,97.70 L 272.05,97.70 Z" fill="#D4C4A8" stroke="#8B7355" stroke-width="0.15" /><circle cx="272.0476758388539" cy="99.50265612791054" fill="#888" r="0.75" stroke="#444" stroke-width="0.1" /><circle cx="267.7208092454236" cy="99.50265612791054" fill="#888" r="0.75" stroke="#444" stroke-width="0.1" /></g><g opacity="1.0" transform="rotate(-3.6, 276.4, 91.7)"><path d="M 278.53,89.94 A 1.75,1.75 0 0,1 278.53,93.44 L 274.36,93.44 A 1.75,1.75 0 0,1 274.36,89.94 L 278.53,89.94 Z" fill="#B8A8D4" stroke="#55438B" stroke-width="0.15" /><circle cx="278.52697148700196" cy="91.69484077496065" fill="#888" r="0.75" stroke="#444" stroke-width="0.1" /><circle cx="274.35980091207006" cy="91.69484077496065" fill="#888" r="0.75" stroke="#444" stroke-width="0.1" /></g><g opacity="1.0" transform="rotate(-3.6, 276.8, 97.6)"><path d="M 278.90,95.82 A 1.75,1.75 0 0,1 278.90,99.32 L 274.73,99.32 A 1.75,1.75 0 0,1 274.73,95.82 L 278.90,95.82 Z" fill="#D4C4A8" stroke="#8B7355" stroke-width="0.15" /><circle cx="278.89862193184473" cy="97.56868351787284" fill="#888" r="0.75" stroke="#444" stroke-width="0.1" /><circle cx="274.7314513569128" cy="97.56868351787284" fill="#888" r="0.75" stroke="#444" stroke-width="0.1" /></g><g opacity="1.0" transform="rotate(-3.7, 283.4, 90.8)"><path d="M 285.42,89.06 A 1.75,1.75 0 0,1 285.42,92.56 L 281.40,92.56 A 1.75,1.75 0 0,1 281.40,89.06 L 285.42,89.06 Z" fill="#B8A8D4" stroke="#55438B" stroke-width="0.15" /><circle cx="285.41649156143114" cy="90.80890281546658" fill="#888" r="0.75" stroke="#444" stroke-width="0.1" /><circle cx="281.3967147988966" cy="90.80890281546658" fill="#888" r="0.75" stroke="#444" stroke-width="0.1" /></g><g opacity="1.0" transform="rotate(-3.7, 283.8, 96.3)"><path d="M 285.77,94.53 A 1.75,1.75 0 0,1 285.77,98.03 L 281.75,98.03 A 1.75,1.75 0 0,1 281.75,94.53 L 285.77,94.53 Z" fill="#D4C4A8" stroke="#8B7355" stroke-width="0.15" /><circle cx="285.76706719335806" cy="96.28065765236431" fill="#888" r="0.75" stroke="#444" stroke-width="0.1" /><circle cx="281.7472904308235" cy="96.28065765236431" fill="#888" r="0.75" stroke="#444" stroke-width="0.1" /></g><g opacity="1.0" transform="rotate(-3.7, 290.4, 90.5)"><path d="M 292.34,88.78 A 1.75,1.75 0 0,1 292.34,92.28 L 288.46,92.28 A 1.75,1.75 0 0,1 288.46,88.78 L 292.34,88.78 Z" fill="#B8A8D4" stroke="#55438B" stroke-width="0.15" /><circle cx="292.34368606298386" cy="90.5259028730427" fill="#888" r="0.75" stroke="#444" stroke-width="0.1" /><circle cx="288.4591708506884" cy="90.5259028730427" fill="#888" r="0.75" stroke="#444" stroke-width="0.1" /></g><g opacity="1.0" transform="rotate(-3.7, 290.7, 95.6)"><path d="M 292.67,93.85 A 1.75,1.75 0 0,1 292.67,97.35 L 288.79,97.35 A 1.75,1.75 0 0,1 288.79,93.85 L 292.67,93.85 Z" fill="#D4C4A8" stroke="#8B7355" stroke-width="0.15" /><circle cx="292.67332476936605" cy="95.5982111900646" fill="#888" r="0.75" stroke="#444" stroke-width="0.1" /><circle cx="288.7888095570706" cy="95.5982111900646" fill="#888" r="0.75" stroke="#444" stroke-width="0.1" /></g><g opacity="1.0" transform="rotate(-3.8, 297.4, 90.8)"><path d="M 299.32,89.04 A 1.75,1.75 0 0,1 299.32,92.54 L 295.56,92.54 A 1.75,1.75 0 0,1 295.56,89.04 L 299.32,89.04 Z" fill="#B8A8D4" stroke="#55438B" stroke-width="0.15" /><circle cx="299.3156408884712" cy="90.78933217594783" fill="#888" r="0.75" stroke="#444" stroke-width="0.1" /><circle cx="295.5582439462138" cy="90.78933217594783" fill="#888" r="0.75" stroke="#444" stroke-width="0.1" /></g><g opacity="1.0" transform="rotate(-3.8, 297.7, 95.5)"><path d="M 299.62,93.71 A 1.75,1.75 0 0,1 299.62,97.21 L 295.87,97.21 A 1.75,1.75 0 0,1 295.87,93.71 L 299.62,93.71 Z" fill="#D4C4A8" stroke="#8B7355" stroke-width="0.15" /><circle cx="299.6235297002788" cy="95.459588099788" fill="#888" r="0.75" stroke="#444" stroke-width="0.1" /><circle cx="295.8661327580214" cy="95.459588099788" fill="#888" r="0.75" stroke="#444" stroke-width="0.1" /></g><g opacity="1.0" transform="rotate(-3.8, 304.5, 91.5)"><path d="M 306.31,89.81 A 1.70,1.70 0 0,1 306.31,93.21 L 302.68,93.21 A 1.70,1.70 0 0,1 302.68,89.81 L 306.31,89.81 Z" fill="#B8A8D4" stroke="#55438B" stroke-width="0.15" /><circle cx="306.31498035808175" cy="91.50571278456869" fill="#888" r="0.75" stroke="#444" stroke-width="0.1" /><circle cx="302.67743567691565" cy="91.50571278456869" fill="#888" r="0.75" stroke="#444" stroke-width="0.1" /></g><g opacity="1.0" transform="rotate(-3.8, 304.8, 95.8)"><path d="M 306.60,94.08 A 1.70,1.70 0 0,1 306.60,97.48 L 302.96,97.48 A 1.70,1.70 0 0,1 302.96,94.08 L 306.60,94.08 Z" fill="#D4C4A8" stroke="#8B7355" stroke-width="0.15" /><circle cx="306.6012569095312" cy="95.77655695553142" fill="#888" r="0.75" stroke="#444" stroke-width="0.1" /><circle cx="302.96371222836507" cy="95.77655695553142" fill="#888" r="0.75" stroke="#444" stroke-width="0.1" /></g><g opacity="1.0" transform="rotate(-3.9, 311.6, 92.7)"><path d="M 313.33,91.02 A 1.65,1.65 0 0,1 313.33,94.32 L 309.81,94.32 A 1.65,1.65 0 0,1 309.81,91.02 L 313.33,91.02 Z" fill="#B8A8D4" stroke="#55438B" stroke-width="0.15" /><circle cx="313.3278287890638" cy="92.67015900106185" fill="#888" r="0.75" stroke="#444" stroke-width="0.1" /><circle cx="309.8060586178477" cy="92.67015900106185" fill="#888" r="0.75" stroke="#444" stroke-width="0.1" /></g><g opacity="1.0" transform="rotate(-3.9, 311.8, 96.5)"><path d="M 313.59,94.89 A 1.65,1.65 0 0,1 313.59,98.19 L 310.07,98.19 A 1.65,1.65 0 0,1 310.07,94.89 L 313.59,94.89 Z" fill="#D4C4A8" stroke="#8B7355" stroke-width="0.15" /><circle cx="313.593025882759" cy="96.5388937038689" fill="#888" r="0.75" stroke="#444" stroke-width="0.1" /><circle cx="310.0712557115429" cy="96.5388937038689" fill="#888" r="0.75" stroke="#444" stroke-width="0.1" /></g><g opacity="1.0" transform="rotate(-4.0, 318.7, 94.2)"><path d="M 320.36,92.54 A 1.65,1.65 0 0,1 320.36,95.84 L 316.95,95.84 A 1.65,1.65 0 0,1 316.95,92.54 L 320.36,92.54 Z" fill="#B8A8D4" stroke="#55438B" stroke-width="0.15" /><circle cx="320.36119567695664" cy="94.18766018065412" fill="#888" r="0.75" stroke="#444" stroke-width="0.1" /><circle cx="316.95124235161984" cy="94.18766018065412" fill="#888" r="0.75" stroke="#444" stroke-width="0.1" /></g><g opacity="1.0" transform="rotate(-4.0, 318.9, 97.7)"><path d="M 320.61,96.01 A 1.65,1.65 0 0,1 320.61,99.31 L 317.20,99.31 A 1.65,1.65 0 0,1 317.20,96.01 L 320.61,96.01 Z" fill="#D4C4A8" stroke="#8B7355" stroke-width="0.15" /><circle cx="320.60544933276213" cy="97.65692023776762" fill="#888" r="0.75" stroke="#444" stroke-width="0.1" /><circle cx="317.19549600742533" cy="97.65692023776762" fill="#888" r="0.75" stroke="#444" stroke-width="0.1" /></g><g opacity="1.0" transform="rotate(-4.1, 325.7, 93.6)"><path d="M 327.37,92.05 A 1.60,1.60 0 0,1 327.37,95.25 L 323.94,95.25 A 1.60,1.60 0 0,1 323.94,92.05 L 327.37,92.05 Z" fill="#B8A8D4" stroke="#55438B" stroke-width="0.15" /><circle cx="327.3714041895712" cy="93.64723233614131" fill="#888" r="0.75" stroke="#444" stroke-width="0.1" /><circle cx="323.93968633619465" cy="93.64723233614131" fill="#888" r="0.75" stroke="#444" stroke-width="0.1" /></g><g opacity="1.0" transform="rotate(-4.1, 325.9, 96.8)"><path d="M 327.60,95.25 A 1.60,1.60 0 0,1 327.60,98.45 L 324.17,98.45 A 1.60,1.60 0 0,1 324.17,95.25 L 327.60,95.25 Z" fill="#D4C4A8" stroke="#8B7355" stroke-width="0.15" /><circle cx="327.60064528721864" cy="96.84935813468701" fill="#888" r="0.75" stroke="#444" stroke-width="0.1" /><circle cx="324.1689274338421" cy="96.84935813468701" fill="#888" r="0.75" stroke="#444" stroke-width="0.1" /></g><g opacity="1.0" transform="rotate(-4.2, 332.7, 93.4)"><path d="M 334.38,91.71 A 1.65,1.65 0 0,1 334.38,95.01 L 330.92,95.01 A 1.65,1.65 0 0,1 330.92,91.71 L 334.38,91.71 Z" fill="#B8A8D4" stroke="#55438B" stroke-width="0.15" /><circle cx="334.37617025885964" cy="93.35820229523256" fill="#888" r="0.75" stroke="#444" stroke-width="0.1" /><circle cx="330.92414224301666" cy="93.35820229523256" fill="#888" r="0.75" stroke="#444" stroke-width="0.1" /></g><g opacity="1.0" transform="rotate(-4.2, 332.9, 96.3)"><path d="M 334.59,94.64 A 1.65,1.65 0 0,1 334.59,97.94 L 331.14,97.94 A 1.65,1.65 0 0,1 331.14,94.64 L 334.59,94.64 Z" fill="#D4C4A8" stroke="#8B7355" stroke-width="0.15" /><circle cx="334.591398801246" cy="96.29311538252239" fill="#888" r="0.75" stroke="#444" stroke-width="0.1" /><circle cx="331.139370785403" cy="96.29311538252239" fill="#888" r="0.75" stroke="#444" stroke-width="0.1" /></g><g opacity="1.0" transform="rotate(-4.3, 339.7, 93.3)"><path d="M 341.39,91.67 A 1.60,1.60 0 0,1 341.39,94.87 L 337.92,94.87 A 1.60,1.60 0 0,1 337.92,91.67 L 341.39,91.67 Z" fill="#B8A8D4" stroke="#55438B" stroke-width="0.15" /><circle cx="341.3888190305756" cy="93.26935774038725" fill="#888" r="0.75" stroke="#444" stroke-width="0.1" /><circle cx="337.92179355935224" cy="93.26935774038725" fill="#888" r="0.75" stroke="#444" stroke-width="0.1" /></g><g opacity="1.0" transform="rotate(-4.3, 339.9, 95.9)"><path d="M 341.59,94.34 A 1.60,1.60 0 0,1 341.59,97.54 L 338.12,97.54 A 1.60,1.60 0 0,1 338.12,94.34 L 341.59,94.34 Z" fill="#D4C4A8" stroke="#8B7355" stroke-width="0.15" /><circle cx="341.5900317904674" cy="95.93704770588852" fill="#888" r="0.75" stroke="#444" stroke-width="0.1" /><circle cx="338.12300631924404" cy="95.93704770588852" fill="#888" r="0.75" stroke="#444" stroke-width="0.1" /></g><g opacity="1.0" transform="rotate(-4.5, 346.7, 93.4)"><path d="M 348.41,91.78 A 1.60,1.60 0 0,1 348.41,94.98 L 344.93,94.98 A 1.60,1.60 0 0,1 344.93,91.78 L 348.41,91.78 Z" fill="#B8A8D4" stroke="#55438B" stroke-width="0.15" /><circle cx="348.4090003429579" cy="93.3807596338911" fill="#888" r="0.75" stroke="#444" stroke-width="0.1" /><circle cx="344.9330415067231" cy="93.3807596338911" fill="#888" r="0.75" stroke="#444" stroke-width="0.1" /></g><g opacity="1.0" transform="rotate(-4.5, 346.9, 95.8)"><path d="M 348.60,94.18 A 1.60,1.60 0 0,1 348.60,97.38 L 345.12,97.38 A 1.60,1.60 0 0,1 345.12,94.18 L 348.60,94.18 Z" fill="#D4C4A8" stroke="#8B7355" stroke-width="0.15" /><circle cx="348.59619266023964" cy="95.78121264552078" fill="#888" r="0.75" stroke="#444" stroke-width="0.1" /><circle cx="345.12023382400486" cy="95.78121264552078" fill="#888" r="0.75" stroke="#444" stroke-width="0.1" /></g><g opacity="1.0" transform="rotate(-4.6, 353.7, 93.5)"><path d="M 355.43,91.94 A 1.60,1.60 0 0,1 355.43,95.14 L 351.95,95.14 A 1.60,1.60 0 0,1 351.95,91.94 L 355.43,91.94 Z" fill="#B8A8D4" stroke="#55438B" stroke-width="0.15" /><circle cx="355.42670663081543" cy="93.54249883762986" fill="#888" r="0.75" stroke="#444" stroke-width="0.1" /><circle cx="351.95225500643875" cy="93.54249883762986" fill="#888" r="0.75" stroke="#444" stroke-width="0.1" /></g><g opacity="1.0" transform="rotate(-4.6, 353.9, 95.7)"><path d="M 355.60,94.08 A 1.60,1.60 0 0,1 355.60,97.28 L 352.13,97.28 A 1.60,1.60 0 0,1 352.13,94.08 L 355.60,94.08 Z" fill="#D4C4A8" stroke="#8B7355" stroke-width="0.15" /><circle cx="355.59987149679506" cy="95.6756959636192" fill="#888" r="0.75" stroke="#444" stroke-width="0.1" /><circle cx="352.1254198724184" cy="95.6756959636192" fill="#888" r="0.75" stroke="#444" stroke-width="0.1" /></g><g opacity="1.0" transform="rotate(-4.9, 360.7, 93.8)"><path d="M 362.44,92.20 A 1.60,1.60 0 0,1 362.44,95.40 L 358.98,95.40 A 1.60,1.60 0 0,1 358.98,92.20 L 362.44,92.20 Z" fill="#B8A8D4" stroke="#55438B" stroke-width="0.15" /><circle cx="362.44333457404946" cy="93.80471690885486" fill="#888" r="0.75" stroke="#444" stroke-width="0.1" /><circle cx="358.98342351335737" cy="93.80471690885486" fill="#888" r="0.75" stroke="#444" stroke-width="0.1" /></g><g opacity="1.0" transform="rotate(-4.9, 360.9, 95.7)"><path d="M 362.60,94.07 A 1.60,1.60 0 0,1 362.60,97.27 L 359.14,97.27 A 1.60,1.60 0 0,1 359.14,94.07 L 362.60,94.07 Z" fill="#D4C4A8" stroke="#8B7355" stroke-width="0.15" /><circle cx="362.6024609009087" cy="95.67063127243705" fill="#888" r="0.75" stroke="#444" stroke-width="0.1" /><circle cx="359.1425498402166" cy="95.67063127243705" fill="#888" r="0.75" stroke="#444" stroke-width="0.1" /></g><g opacity="1.0" transform="rotate(-5.2, 367.7, 94.0)"><path d="M 369.45,92.47 A 1.55,1.55 0 0,1 369.45,95.57 L 366.02,95.57 A 1.55,1.55 0 0,1 366.02,92.47 L 369.45,92.47 Z" fill="#B8A8D4" stroke="#55438B" stroke-width="0.15" /><circle cx="369.4504164881454" cy="94.01764692241022" fill="#888" r="0.75" stroke="#444" stroke-width="0.1" /><circle cx="366.01956405038175" cy="94.01764692241022" fill="#888" r="0.75" stroke="#444" stroke-width="0.1" /></g><g opacity="1.0" transform="rotate(-5.2, 367.9, 95.6)"><path d="M 369.60,94.07 A 1.55,1.55 0 0,1 369.60,97.17 L 366.16,97.17 A 1.55,1.55 0 0,1 366.16,94.07 L 369.60,94.07 Z" fill="#D4C4A8" stroke="#8B7355" stroke-width="0.15" /><circle cx="369.59548556417224" cy="95.61623856533254" fill="#888" r="0.75" stroke="#444" stroke-width="0.1" /><circle cx="366.1646331264086" cy="95.61623856533254" fill="#888" r="0.75" stroke="#444" stroke-width="0.1" /></g><path d="M 85.00,46.11 L 85.32,46.09 L 85.63,46.01 L 85.92,45.90 L 86.19,45.73 L 86.44,45.53 L 86.65,45.30 L 86.82,45.03 L 86.95,44.74 L 87.04,44.43 L 87.08,44.12 L 87.07,43.80 L 87.01,43.49 L 86.90,43.19 L 86.75,42.91 L 86.56,42.66 L 86.33,42.44 L 86.07,42.25 L 85.79,42.11 L 85.49,42.01 L 85.18,41.96 L 84.86,41.96 L 84.54,42.00 L 84.24,42.10 L 83.96,42.24 L 43.83,65.58 L 43.69,65.66 L 43.57,65.75 L 43.44,65.86 L 43.33,65.97 L 43.22,66.08 L 43.12,66.21 L 43.03,66.34 L 42.95,66.48 L 42.88,66.62 L 42.82,66.77 L 42.77,66.92 L 42.73,67.07 L 42.70,67.23 L 42.68,67.38 L 42.67,67.54 L 42.68,67.70 L 84.64,824.00" fill="none" stroke="#FF0000" stroke-width="1.1555" /><circle cx="45.0" cy="67.58805890014798" fill="#888" opacity="1.0" r="1.75" stroke="#444" stroke-width="0.15" /><circle cx="85.0" cy="44.03194362255306" fill="#654321" r="1.5" stroke="#333" stroke-width="0.15" /><path d="M 91.88,46.49 L 92.18,46.47 L 92.48,46.40 L 92.76,46.29 L 93.03,46.14 L 93.27,45.95 L 93.47,45.72 L 93.64,45.47 L 93.77,45.19 L 93.86,44.90 L 93.90,44.60 L 93.90,44.29 L 93.85,43.99 L 93.76,43.70 L 93.62,43.43 L 93.45,43.18 L 93.24,42.96 L 93.00,42.77 L 92.73,42.63 L 92.44,42.52 L 92.15,42.46 L 91.84,42.44 L 91.54,42.47 L 91.24,42.54 L 90.96,42.66 L 50.85,63.09 L 50.70,63.17 L 50.57,63.26 L 50.44,63.36 L 50.31,63.47 L 50.20,63.58 L 50.09,63.71 L 50.00,63.84 L 49.91,63.98 L 49.83,64.12 L 49.77,64.27 L 49.71,64.43 L 49.67,64.58 L 49.63,64.74 L 49.61,64.91 L 49.60,65.07 L 49.61,65.23 L 90.86,808.95" fill="none" stroke="#999999" stroke-width="1.054" /><circle cx="51.88030239243677" cy="65.1207910380557" fill="#888" opacity="1.0" r="1.75" stroke="#444" stroke-width="0.15" /><circle cx="91.88030239243676" cy="44.46711347165649" fill="#654321" r="1.5" stroke="#333" stroke-width="0.15" /><path d="M 98.83,46.89 L 99.12,46.87 L 99.41,46.80 L 99.68,46.69 L 99.94,46.55 L 100.17,46.36 L 100.37,46.15 L 100.54,45.90 L 100.67,45.64 L 100.76,45.36 L 100.80,45.06 L 100.80,44.77 L 100.76,44.48 L 100.68,44.19 L 100.55,43.93 L 100.38,43.68 L 100.19,43.46 L 99.96,43.28 L 99.70,43.13 L 99.43,43.02 L 99.14,42.95 L 98.85,42.92 L 98.55,42.94 L 98.26,43.01 L 97.99,43.11 L 57.88,61.88 L 57.73,61.96 L 57.59,62.04 L 57.46,62.14 L 57.33,62.24 L 57.21,62.36 L 57.10,62.48 L 57.00,62.61 L 56.91,62.75 L 56.83,62.90 L 56.76,63.05 L 56.71,63.20 L 56.66,63.36 L 56.63,63.52 L 56.60,63.68 L 56.59,63.85 L 56.60,64.01 L 97.15,795.10" fill="none" stroke="#999999" stroke-width="0.965" /><circle cx="58.82611091782533" cy="63.90345465270104" fill="#888" opacity="1.0" r="1.75" stroke="#444" stroke-width="0.15" /><circle cx="98.82611091782533" cy="44.906426495342316" fill="#654321" r="1.5" stroke="#333" stroke-width="0.15" /><path d="M 105.81,47.30 L 106.09,47.28 L 106.38,47.21 L 106.65,47.11 L 106.90,46.97 L 107.12,46.79 L 107.32,46.58 L 107.49,46.34 L 107.61,46.08 L 107.70,45.80 L 107.75,45.52 L 107.75,45.23 L 107.71,44.94 L 107.63,44.67 L 107.51,44.40 L 107.36,44.16 L 107.16,43.95 L 106.94,43.76 L 106.69,43.61 L 106.43,43.50 L 106.15,43.43 L 105.86,43.40 L 105.57,43.41 L 105.29,43.47 L 105.02,43.56 L 64.91,61.32 L 64.77,61.40 L 64.62,61.48 L 64.49,61.57 L 64.36,61.68 L 64.24,61.79 L 64.13,61.91 L 64.02,62.04 L 63.93,62.18 L 63.85,62.33 L 63.78,62.48 L 63.72,62.63 L 63.67,62.79 L 63.64,62.95 L 63.62,63.11 L 63.61,63.28 L 63.61,63.44 L 103.47,781.95" fill="none" stroke="#0000FF" stroke-width="0.9015" /><circle cx="65.80598809089989" cy="63.336186790608735" fill="#888" opacity="1.0" r="1.75" stroke="#444" stroke-width="0.15" /><circle cx="105.80598809089989" cy="45.34789431505692" fill="#654321" r="1.5" stroke="#333" stroke-width="0.15" /><path d="M 112.94,47.71 L 113.23,47.68 L 113.50,47.62 L 113.77,47.52 L 114.02,47.37 L 114.24,47.19 L 114.43,46.98 L 114.59,46.75 L 114.72,46.49 L 114.80,46.22 L 114.84,45.94 L 114.84,45.65 L 114.80,45.37 L 114.71,45.10 L 114.59,44.84 L 114.43,44.60 L 114.23,44.40 L 114.01,44.22 L 113.76,44.08 L 113.49,43.97 L 113.21,43.91 L 112.93,43.89 L 112.64,43.92 L 112.37,43.98 L 112.10,44.09 L 71.99,63.78 L 71.85,63.85 L 71.72,63.94 L 71.59,64.03 L 71.47,64.13 L 71.36,64.24 L 71.26,64.36 L 71.17,64.49 L 71.08,64.62 L 71.01,64.76 L 70.94,64.90 L 70.89,65.05 L 70.85,65.20 L 70.81,65.35 L 70.79,65.51 L 70.78,65.66 L 70.79,65.82 L 109.81,769.20" fill="none" stroke="#999999" stroke-width="0.813" /><circle cx="72.94028506410716" cy="65.71542424214044" fill="#888" opacity="1.0" r="1.75" stroke="#444" stroke-width="0.15" /><circle cx="112.94028506410716" cy="45.799128978914496" fill="#654321" r="1.5" stroke="#333" stroke-width="0.15" /><path d="M 120.07,48.11 L 120.35,48.09 L 120.63,48.03 L 120.89,47.92 L 121.13,47.78 L 121.35,47.60 L 121.54,47.39 L 121.70,47.16 L 121.82,46.90 L 121.89,46.63 L 121.93,46.35 L 121.93,46.07 L 121.88,45.80 L 121.79,45.53 L 121.66,45.28 L 121.49,45.05 L 121.30,44.85 L 121.07,44.68 L 120.82,44.55 L 120.56,44.45 L 120.28,44.40 L 120.00,44.39 L 119.72,44.42 L 119.45,44.50 L 119.19,44.61 L 79.07,66.18 L 78.94,66.26 L 78.82,66.34 L 78.70,66.44 L 78.59,66.54 L 78.49,66.64 L 78.40,66.76 L 78.31,66.88 L 78.23,67.01 L 78.16,67.14 L 78.11,67.27 L 78.06,67.41 L 78.02,67.56 L 77.99,67.70 L 77.97,67.85 L 77.96,68.00 L 77.96,68.15 L 116.15,756.40" fill="none" stroke="#999999" stroke-width="0.724" /><circle cx="80.07196164835028" cy="68.04466169367231" fill="#888" opacity="1.0" r="1.75" stroke="#444" stroke-width="0.15" /><circle cx="120.07196164835028" cy="46.25019790670319" fill="#654321" r="1.5" stroke="#333" stroke-width="0.15" /><path d="M 127.19,48.54 L 127.47,48.52 L 127.74,48.46 L 128.00,48.35 L 128.24,48.21 L 128.46,48.03 L 128.65,47.82 L 128.80,47.59 L 128.92,47.33 L 129.00,47.06 L 129.03,46.78 L 129.02,46.50 L 128.97,46.22 L 128.87,45.96 L 128.74,45.71 L 128.57,45.49 L 128.37,45.29 L 128.14,45.12 L 127.89,45.00 L 127.63,44.91 L 127.35,44.86 L 127.07,44.86 L 126.79,44.90 L 126.52,44.98 L 126.27,45.10 L 86.14,68.26 L 86.02,68.34 L 85.90,68.42 L 85.79,68.51 L 85.69,68.61 L 85.59,68.72 L 85.50,68.83 L 85.42,68.95 L 85.35,69.07 L 85.29,69.20 L 85.23,69.33 L 85.18,69.47 L 85.15,69.61 L 85.12,69.75 L 85.10,69.89 L 85.10,70.03 L 85.10,70.18 L 122.47,743.30" fill="none" stroke="#999999" stroke-width="0.686" /><circle cx="87.18791589880848" cy="70.073899145204" fill="#888" opacity="1.0" r="1.75" stroke="#444" stroke-width="0.15" /><circle cx="127.18791589880848" cy="46.700272418079635" fill="#654321" r="1.5" stroke="#333" stroke-width="0.15" /><path d="M 134.26,48.97 L 134.54,48.94 L 134.81,48.88 L 135.07,48.78 L 135.31,48.63 L 135.53,48.46 L 135.71,48.25 L 135.86,48.01 L 135.98,47.76 L 136.05,47.49 L 136.08,47.22 L 136.07,46.94 L 136.02,46.66 L 135.92,46.40 L 135.79,46.16 L 135.62,45.94 L 135.42,45.74 L 135.19,45.58 L 134.94,45.46 L 134.68,45.38 L 134.40,45.34 L 134.12,45.34 L 133.85,45.38 L 133.58,45.46 L 133.33,45.59 L 93.20,69.58 L 93.09,69.65 L 92.97,69.74 L 92.87,69.83 L 92.77,69.93 L 92.68,70.03 L 92.59,70.14 L 92.51,70.26 L 92.44,70.38 L 92.38,70.50 L 92.33,70.63 L 92.28,70.76 L 92.25,70.90 L 92.22,71.04 L 92.20,71.18 L 92.20,71.32 L 92.20,71.45 L 128.75,729.45" fill="none" stroke="#FF0000" stroke-width="0.635" /><circle cx="94.2645643148044" cy="71.35313659673591" fill="#888" opacity="1.0" r="1.75" stroke="#444" stroke-width="0.15" /><circle cx="134.2645643148044" cy="47.147860888425384" fill="#654321" r="1.5" stroke="#333" stroke-width="0.15" /><path d="M 141.42,49.39 L 141.70,49.37 L 141.97,49.31 L 142.23,49.20 L 142.46,49.06 L 142.68,48.88 L 142.86,48.67 L 143.01,48.44 L 143.12,48.18 L 143.19,47.91 L 143.21,47.64 L 143.20,47.36 L 143.14,47.09 L 143.04,46.83 L 142.90,46.59 L 142.73,46.37 L 142.52,46.18 L 142.29,46.03 L 142.04,45.92 L 141.77,45.84 L 141.49,45.81 L 141.22,45.82 L 140.94,45.87 L 140.68,45.97 L 140.44,46.10 L 100.30,72.47 L 100.19,72.55 L 100.09,72.63 L 99.99,72.72 L 99.90,72.82 L 99.82,72.92 L 99.74,73.03 L 99.67,73.14 L 99.60,73.25 L 99.55,73.37 L 99.50,73.50 L 99.46,73.62 L 99.43,73.75 L 99.40,73.88 L 99.39,74.01 L 99.38,74.15 L 99.38,74.28 L 134.99,714.60" fill="none" stroke="#999999" stroke-width="0.584" /><circle cx="101.4222616399368" cy="74.17887936189186" fill="#888" opacity="1.0" r="1.75" stroke="#444" stroke-width="0.15" /><circle cx="141.4222616399368" cy="47.600575592989685" fill="#654321" r="1.5" stroke="#333" stroke-width="0.15" /><path d="M 148.59,50.21 L 148.93,50.19 L 149.26,50.11 L 149.57,49.98 L 149.86,49.80 L 150.12,49.58 L 150.34,49.33 L 150.52,49.04 L 150.65,48.72 L 150.73,48.39 L 150.75,48.06 L 150.73,47.72 L 150.65,47.39 L 150.52,47.08 L 150.34,46.79 L 150.12,46.53 L 149.87,46.31 L 149.58,46.13 L 149.26,46.00 L 148.94,45.92 L 148.60,45.89 L 148.26,45.92 L 147.93,46.00 L 147.62,46.13 L 147.33,46.30 L 107.18,75.30 L 107.06,75.39 L 106.95,75.49 L 106.84,75.59 L 106.74,75.70 L 106.65,75.82 L 106.57,75.95 L 106.49,76.07 L 106.42,76.21 L 106.36,76.34 L 106.31,76.48 L 106.26,76.63 L 106.23,76.77 L 106.21,76.92 L 106.19,77.07 L 106.18,77.22 L 106.19,77.37 L 141.10,697.50" fill="none" stroke="#999999" stroke-width="1.321" /><circle cx="108.59288135228971" cy="77.25119596393415" fill="#888" opacity="1.0" r="1.75" stroke="#444" stroke-width="0.15" /><circle cx="148.5928813522897" cy="48.05410762112149" fill="#654321" r="1.5" stroke="#333" stroke-width="0.15" /><path d="M 155.09,50.60 L 155.41,50.58 L 155.72,50.51 L 156.01,50.39 L 156.29,50.23 L 156.54,50.03 L 156.75,49.80 L 156.93,49.54 L 157.07,49.25 L 157.17,48.95 L 157.22,48.63 L 157.22,48.32 L 157.17,48.00 L 157.08,47.70 L 156.94,47.41 L 156.77,47.15 L 156.55,46.91 L 156.31,46.71 L 156.03,46.55 L 155.74,46.43 L 155.43,46.36 L 155.11,46.33 L 154.79,46.35 L 154.48,46.42 L 154.18,46.53 L 114.08,65.28 L 113.92,65.36 L 113.77,65.45 L 113.63,65.55 L 113.49,65.66 L 113.37,65.79 L 113.25,65.92 L 113.14,66.06 L 113.05,66.21 L 112.96,66.36 L 112.89,66.52 L 112.82,66.69 L 112.78,66.85 L 112.74,67.03 L 112.71,67.20 L 112.70,67.38 L 112.71,67.55 L 147.07,677.60" fill="none" stroke="#0000FF" stroke-width="1.27" /><circle cx="115.08816612459637" cy="67.43735426495539" fill="#888" opacity="1.0" r="1.75" stroke="#444" stroke-width="0.15" /><circle cx="155.08816612459637" cy="48.46492562489925" fill="#654321" r="1.5" stroke="#333" stroke-width="0.15" /><path d="M 161.86,50.98 L 162.16,50.96 L 162.45,50.89 L 162.73,50.78 L 163.00,50.64 L 163.24,50.46 L 163.45,50.24 L 163.63,50.00 L 163.77,49.73 L 163.87,49.45 L 163.93,49.15 L 163.94,48.85 L 163.91,48.55 L 163.84,48.26 L 163.73,47.98 L 163.58,47.72 L 163.39,47.48 L 163.17,47.28 L 162.93,47.10 L 162.66,46.97 L 162.37,46.87 L 162.07,46.82 L 161.77,46.81 L 161.47,46.84 L 161.18,46.92 L 121.10,60.65 L 120.93,60.72 L 120.76,60.80 L 120.59,60.90 L 120.44,61.01 L 120.30,61.13 L 120.16,61.26 L 120.04,61.40 L 119.93,61.55 L 119.83,61.71 L 119.74,61.88 L 119.67,62.05 L 119.61,62.23 L 119.57,62.41 L 119.54,62.60 L 119.53,62.79 L 119.53,62.98 L 152.91,655.40" fill="none" stroke="#999999" stroke-width="1.1685" /><circle cx="121.85804947418626" cy="62.86316555337362" fill="#888" opacity="1.0" r="1.75" stroke="#444" stroke-width="0.15" /><circle cx="161.85804947418626" cy="48.893111618428634" fill="#654321" r="1.5" stroke="#333" stroke-width="0.15" /><path d="M 169.55,51.43 L 169.86,51.40 L 170.17,51.33 L 170.47,51.21 L 170.74,51.04 L 170.98,50.84 L 171.19,50.60 L 171.36,50.33 L 171.48,50.04 L 171.56,49.74 L 171.59,49.42 L 171.58,49.10 L 171.51,48.79 L 171.40,48.50 L 171.24,48.22 L 171.04,47.98 L 170.80,47.76 L 170.54,47.59 L 170.25,47.46 L 169.95,47.37 L 169.63,47.34 L 169.32,47.35 L 169.00,47.41 L 168.71,47.52 L 168.43,47.67 L 128.29,73.94 L 128.17,74.03 L 128.05,74.12 L 127.94,74.22 L 127.84,74.33 L 127.74,74.44 L 127.66,74.56 L 127.58,74.69 L 127.50,74.82 L 127.44,74.95 L 127.39,75.09 L 127.34,75.23 L 127.30,75.38 L 127.28,75.53 L 127.26,75.67 L 127.25,75.82 L 127.26,75.97 L 158.62,630.60" fill="none" stroke="#999999" stroke-width="1.092" /><circle cx="129.5488589137477" cy="75.86129344383426" fill="#888" opacity="1.0" r="1.75" stroke="#444" stroke-width="0.15" /><circle cx="169.5488589137477" cy="49.37954494539633" fill="#654321" r="1.5" stroke="#333" stroke-width="0.15" /><path d="M 176.56,51.84 L 176.87,51.81 L 177.17,51.74 L 177.46,51.62 L 177.72,51.46 L 177.96,51.26 L 178.17,51.03 L 178.34,50.77 L 178.46,50.48 L 178.54,50.18 L 178.57,49.87 L 178.55,49.56 L 178.49,49.26 L 178.38,48.96 L 178.22,48.69 L 178.03,48.45 L 177.80,48.24 L 177.54,48.07 L 177.26,47.94 L 176.96,47.85 L 176.65,47.81 L 176.34,47.82 L 176.04,47.88 L 175.74,47.98 L 175.47,48.13 L 135.33,73.92 L 135.21,74.00 L 135.09,74.09 L 134.98,74.19 L 134.88,74.30 L 134.78,74.41 L 134.70,74.53 L 134.62,74.66 L 134.54,74.79 L 134.48,74.92 L 134.43,75.06 L 134.38,75.20 L 134.34,75.34 L 134.32,75.49 L 134.30,75.64 L 134.29,75.78 L 134.29,75.93 L 164.17,602.80" fill="none" stroke="#999999" stroke-width="1.0285" /><circle cx="136.55646865521845" cy="75.82319451001126" fill="#888" opacity="1.0" r="1.75" stroke="#444" stroke-width="0.15" /><circle cx="176.55646865521845" cy="49.82276681266819" fill="#654321" r="1.5" stroke="#333" stroke-width="0.15" /><path d="M 183.68,52.29 L 183.95,52.27 L 184.22,52.20 L 184.47,52.10 L 184.71,51.96 L 184.92,51.78 L 185.10,51.57 L 185.24,51.34 L 185.35,51.08 L 185.42,50.82 L 185.44,50.54 L 185.42,50.27 L 185.36,50.00 L 185.26,49.75 L 185.12,49.51 L 184.95,49.30 L 184.74,49.12 L 184.51,48.97 L 184.26,48.86 L 183.99,48.79 L 183.72,48.76 L 183.44,48.77 L 183.17,48.83 L 182.92,48.93 L 182.68,49.07 L 142.68,76.47 L 142.59,76.54 L 142.50,76.61 L 142.42,76.69 L 142.34,76.77 L 142.27,76.86 L 142.21,76.95 L 142.15,77.04 L 142.10,77.14 L 142.05,77.25 L 142.01,77.35 L 141.98,77.46 L 141.95,77.57 L 141.93,77.68 L 141.92,77.79 L 141.91,77.90 L 141.91,78.01 L 169.58,572.15" fill="none" stroke="#FF0000" stroke-width="1.0285" /><circle cx="143.67639600694724" cy="77.92824324996138" fill="#888" opacity="1.0" r="1.25" stroke="#444" stroke-width="0.15" /><circle cx="183.67639600694724" cy="50.523092617342854" fill="#654321" r="1.25" stroke="#333" stroke-width="0.15" /><path d="M 190.70,52.70 L 190.97,52.68 L 191.23,52.62 L 191.48,52.51 L 191.71,52.37 L 191.92,52.20 L 192.10,52.00 L 192.24,51.77 L 192.34,51.52 L 192.41,51.26 L 192.43,50.99 L 192.42,50.72 L 192.36,50.46 L 192.26,50.21 L 192.12,49.97 L 191.95,49.77 L 191.75,49.59 L 191.52,49.44 L 191.27,49.33 L 191.01,49.26 L 190.75,49.24 L 190.48,49.25 L 190.21,49.31 L 189.96,49.40 L 189.73,49.54 L 149.73,76.80 L 149.64,76.87 L 149.55,76.94 L 149.47,77.01 L 149.40,77.09 L 149.33,77.18 L 149.26,77.27 L 149.20,77.36 L 149.15,77.46 L 149.10,77.56 L 149.07,77.66 L 149.03,77.77 L 149.01,77.88 L 148.99,77.99 L 148.97,78.10 L 148.97,78.21 L 148.97,78.32 L 174.88,539.65" fill="none" stroke="#999999" stroke-width="0.965" /><circle cx="150.70198576481457" cy="78.23322346664918" fill="#888" opacity="1.0" r="1.25" stroke="#444" stroke-width="0.15" /><circle cx="190.70198576481457" cy="50.967451696408034" fill="#654321" r="1.25" stroke="#333" stroke-width="0.15" /><path d="M 197.57,53.07 L 197.82,53.05 L 198.07,52.99 L 198.31,52.90 L 198.53,52.77 L 198.72,52.60 L 198.89,52.41 L 199.03,52.20 L 199.14,51.96 L 199.20,51.72 L 199.23,51.46 L 199.22,51.21 L 199.17,50.96 L 199.09,50.71 L 198.96,50.49 L 198.81,50.29 L 198.62,50.11 L 198.41,49.96 L 198.18,49.85 L 197.94,49.78 L 197.69,49.74 L 197.43,49.74 L 197.18,49.78 L 196.93,49.86 L 196.71,49.97 L 156.71,74.01 L 156.61,74.07 L 156.52,74.14 L 156.44,74.21 L 156.36,74.29 L 156.28,74.38 L 156.21,74.46 L 156.15,74.56 L 156.09,74.66 L 156.04,74.76 L 156.00,74.86 L 155.97,74.97 L 155.94,75.08 L 155.92,75.19 L 155.90,75.30 L 155.90,75.41 L 155.90,75.52 L 180.16,506.60" fill="none" stroke="#999999" stroke-width="0.838" /><circle cx="157.5652945556567" cy="75.44169836971275" fill="#888" opacity="1.0" r="1.25" stroke="#444" stroke-width="0.15" /><circle cx="197.5652945556567" cy="51.40154672312417" fill="#654321" r="1.25" stroke="#333" stroke-width="0.15" /><path d="M 204.71,53.52 L 204.97,53.50 L 205.22,53.44 L 205.46,53.35 L 205.68,53.21 L 205.88,53.05 L 206.05,52.85 L 206.18,52.63 L 206.29,52.40 L 206.35,52.14 L 206.38,51.89 L 206.36,51.63 L 206.31,51.38 L 206.22,51.14 L 206.09,50.91 L 205.92,50.71 L 205.73,50.54 L 205.52,50.39 L 205.28,50.29 L 205.03,50.22 L 204.78,50.19 L 204.52,50.20 L 204.27,50.24 L 204.02,50.33 L 203.80,50.46 L 163.80,76.60 L 163.71,76.66 L 163.62,76.73 L 163.54,76.80 L 163.47,76.88 L 163.40,76.96 L 163.33,77.05 L 163.27,77.14 L 163.22,77.23 L 163.18,77.33 L 163.14,77.43 L 163.10,77.54 L 163.08,77.64 L 163.06,77.75 L 163.05,77.86 L 163.04,77.97 L 163.04,78.07 L 185.45,473.85" fill="none" stroke="#0000FF" stroke-width="0.838" /><circle cx="164.7086222593106" cy="77.993252423287" fill="#888" opacity="1.0" r="1.25" stroke="#444" stroke-width="0.15" /><circle cx="204.7086222593106" cy="51.85335256850567" fill="#654321" r="1.25" stroke="#333" stroke-width="0.15" /><path d="M 211.65,53.93 L 211.90,53.91 L 212.14,53.85 L 212.38,53.76 L 212.59,53.63 L 212.79,53.47 L 212.95,53.28 L 213.09,53.07 L 213.19,52.84 L 213.26,52.60 L 213.28,52.35 L 213.27,52.10 L 213.22,51.85 L 213.14,51.61 L 213.02,51.39 L 212.86,51.19 L 212.68,51.02 L 212.47,50.88 L 212.25,50.77 L 212.01,50.69 L 211.76,50.66 L 211.51,50.66 L 211.26,50.70 L 211.02,50.78 L 210.80,50.89 L 170.80,75.25 L 170.70,75.31 L 170.62,75.38 L 170.53,75.45 L 170.46,75.53 L 170.38,75.61 L 170.32,75.70 L 170.26,75.79 L 170.20,75.88 L 170.15,75.98 L 170.11,76.08 L 170.08,76.19 L 170.05,76.29 L 170.03,76.40 L 170.02,76.51 L 170.01,76.62 L 170.01,76.73 L 190.81,442.25" fill="none" stroke="#999999" stroke-width="0.7745" /><circle cx="171.64792233011315" cy="76.65172732635051" fill="#888" opacity="1.0" r="1.25" stroke="#444" stroke-width="0.15" /><circle cx="211.64792233011315" cy="52.29225394121477" fill="#654321" r="1.25" stroke="#333" stroke-width="0.15" /><path d="M 218.83,54.38 L 219.09,54.36 L 219.34,54.31 L 219.57,54.21 L 219.79,54.08 L 219.98,53.91 L 220.15,53.72 L 220.29,53.50 L 220.39,53.27 L 220.45,53.02 L 220.47,52.77 L 220.45,52.51 L 220.40,52.26 L 220.30,52.03 L 220.17,51.81 L 220.01,51.61 L 219.82,51.44 L 219.61,51.30 L 219.37,51.20 L 219.13,51.14 L 218.87,51.11 L 218.62,51.12 L 218.37,51.18 L 218.13,51.27 L 217.91,51.39 L 177.91,78.65 L 177.83,78.72 L 177.75,78.78 L 177.67,78.85 L 177.60,78.93 L 177.53,79.01 L 177.47,79.10 L 177.42,79.18 L 177.37,79.28 L 177.32,79.37 L 177.29,79.47 L 177.26,79.57 L 177.23,79.67 L 177.21,79.77 L 177.20,79.88 L 177.20,79.98 L 177.20,80.08 L 196.28,412.85" fill="none" stroke="#999999" stroke-width="0.7745" /><circle cx="178.8333594059457" cy="80.00677606630052" fill="#888" opacity="1.0" r="1.25" stroke="#444" stroke-width="0.15" /><circle cx="218.83335940594574" cy="52.74672314760733" fill="#654321" r="1.25" stroke="#333" stroke-width="0.15" /><path d="M 225.64,54.75 L 225.88,54.73 L 226.12,54.67 L 226.34,54.58 L 226.54,54.46 L 226.73,54.31 L 226.89,54.13 L 227.02,53.93 L 227.12,53.71 L 227.18,53.48 L 227.21,53.25 L 227.20,53.01 L 227.16,52.77 L 227.08,52.55 L 226.97,52.34 L 226.82,52.14 L 226.65,51.98 L 226.46,51.84 L 226.25,51.73 L 226.02,51.66 L 225.78,51.62 L 225.54,51.61 L 225.31,51.65 L 225.08,51.72 L 224.86,51.82 L 184.86,74.87 L 184.77,74.92 L 184.68,74.99 L 184.60,75.06 L 184.52,75.13 L 184.45,75.21 L 184.38,75.29 L 184.32,75.38 L 184.27,75.47 L 184.22,75.57 L 184.18,75.67 L 184.15,75.77 L 184.12,75.87 L 184.10,75.98 L 184.08,76.09 L 184.08,76.19 L 184.08,76.30 L 201.90,386.35" fill="none" stroke="#999999" stroke-width="0.635" /><circle cx="185.64480268145758" cy="76.2255979819671" fill="#888" opacity="1.0" r="1.25" stroke="#444" stroke-width="0.15" /><circle cx="225.64480268145755" cy="53.17753775041297" fill="#654321" r="1.25" stroke="#333" stroke-width="0.15" /><path d="M 232.73,55.19 L 232.97,55.17 L 233.21,55.12 L 233.43,55.03 L 233.64,54.91 L 233.82,54.75 L 233.98,54.57 L 234.11,54.37 L 234.21,54.15 L 234.27,53.92 L 234.30,53.68 L 234.29,53.44 L 234.24,53.21 L 234.16,52.98 L 234.05,52.77 L 233.90,52.58 L 233.73,52.41 L 233.53,52.28 L 233.31,52.17 L 233.08,52.10 L 232.85,52.06 L 232.61,52.06 L 232.37,52.10 L 232.14,52.18 L 231.92,52.28 L 191.92,76.40 L 191.84,76.46 L 191.75,76.52 L 191.67,76.59 L 191.60,76.66 L 191.53,76.74 L 191.46,76.82 L 191.40,76.91 L 191.35,77.00 L 191.30,77.10 L 191.26,77.19 L 191.23,77.29 L 191.20,77.40 L 191.19,77.50 L 191.17,77.60 L 191.17,77.71 L 191.17,77.81 L 207.67,362.65" fill="none" stroke="#FF0000" stroke-width="0.635" /><circle cx="192.73382762956925" cy="77.74099373452009" fill="#888" opacity="1.0" r="1.25" stroke="#444" stroke-width="0.15" /><circle cx="232.73382762956925" cy="53.625909019726805" fill="#654321" r="1.25" stroke="#333" stroke-width="0.15" /><path d="M 239.81,55.64 L 240.05,55.62 L 240.29,55.57 L 240.51,55.48 L 240.72,55.35 L 240.90,55.20 L 241.06,55.02 L 241.19,54.81 L 241.29,54.59 L 241.35,54.36 L 241.38,54.12 L 241.37,53.88 L 241.32,53.64 L 241.23,53.42 L 241.12,53.21 L 240.97,53.02 L 240.79,52.85 L 240.59,52.71 L 240.37,52.61 L 240.14,52.54 L 239.90,52.51 L 239.66,52.51 L 239.42,52.55 L 239.19,52.63 L 238.98,52.74 L 198.98,77.68 L 198.89,77.74 L 198.81,77.80 L 198.73,77.87 L 198.66,77.94 L 198.59,78.02 L 198.53,78.10 L 198.47,78.19 L 198.42,78.28 L 198.38,78.37 L 198.34,78.47 L 198.31,78.57 L 198.28,78.67 L 198.26,78.77 L 198.25,78.88 L 198.24,78.98 L 198.24,79.08 L 213.55,341.25" fill="none" stroke="#999999" stroke-width="0.635" /><circle cx="199.80993378161247" cy="79.00988417344888" fill="#888" opacity="1.0" r="1.25" stroke="#444" stroke-width="0.15" /><circle cx="239.80993378161247" cy="54.07346319260864" fill="#654321" r="1.25" stroke="#333" stroke-width="0.15" /><path d="M 246.87,56.06 L 247.10,56.04 L 247.33,55.98 L 247.55,55.89 L 247.76,55.77 L 247.94,55.62 L 248.10,55.44 L 248.22,55.24 L 248.32,55.02 L 248.38,54.80 L 248.40,54.56 L 248.39,54.32 L 248.34,54.09 L 248.26,53.87 L 248.14,53.66 L 248.00,53.48 L 247.82,53.32 L 247.62,53.18 L 247.41,53.08 L 247.18,53.02 L 246.95,52.99 L 246.71,52.99 L 246.48,53.03 L 246.25,53.11 L 246.04,53.22 L 206.04,78.64 L 205.96,78.69 L 205.88,78.75 L 205.81,78.82 L 205.74,78.89 L 205.67,78.97 L 205.61,79.05 L 205.55,79.14 L 205.51,79.22 L 205.46,79.31 L 205.42,79.41 L 205.39,79.50 L 205.37,79.60 L 205.35,79.70 L 205.34,79.80 L 205.33,79.90 L 205.33,80.00 L 219.55,322.00" fill="none" stroke="#999999" stroke-width="0.5715" /><circle cx="206.86787676850685" cy="79.93220077549131" fill="#888" opacity="1.0" r="1.25" stroke="#444" stroke-width="0.15" /><circle cx="246.86787676850682" cy="54.51986856978556" fill="#654321" r="1.25" stroke="#333" stroke-width="0.15" /><path d="M 253.89,56.50 L 254.12,56.48 L 254.35,56.43 L 254.57,56.34 L 254.78,56.22 L 254.96,56.06 L 255.11,55.89 L 255.24,55.69 L 255.34,55.47 L 255.40,55.24 L 255.42,55.01 L 255.41,54.77 L 255.36,54.54 L 255.28,54.32 L 255.16,54.11 L 255.02,53.92 L 254.84,53.76 L 254.65,53.63 L 254.43,53.53 L 254.21,53.46 L 253.97,53.43 L 253.74,53.44 L 253.50,53.48 L 253.28,53.55 L 253.07,53.66 L 213.07,78.81 L 212.99,78.86 L 212.91,78.93 L 212.83,78.99 L 212.76,79.07 L 212.69,79.14 L 212.63,79.22 L 212.58,79.31 L 212.53,79.40 L 212.48,79.49 L 212.44,79.58 L 212.41,79.68 L 212.39,79.78 L 212.37,79.87 L 212.36,79.98 L 212.35,80.08 L 212.35,80.18 L 225.65,304.50" fill="none" stroke="#0000FF" stroke-width="0.5715" /><circle cx="213.88669347853917" cy="80.10794354064728" fill="#888" opacity="1.0" r="1.25" stroke="#444" stroke-width="0.15" /><circle cx="253.88669347853917" cy="54.96379926270777" fill="#654321" r="1.25" stroke="#333" stroke-width="0.15" /><path d="M 260.98,56.95 L 261.22,56.93 L 261.45,56.87 L 261.67,56.78 L 261.87,56.66 L 262.06,56.51 L 262.21,56.33 L 262.34,56.13 L 262.43,55.91 L 262.49,55.68 L 262.52,55.44 L 262.50,55.20 L 262.45,54.97 L 262.37,54.75 L 262.25,54.54 L 262.10,54.36 L 261.92,54.20 L 261.72,54.07 L 261.51,53.97 L 261.28,53.91 L 261.04,53.88 L 260.80,53.89 L 260.57,53.93 L 260.35,54.01 L 260.14,54.13 L 220.14,80.45 L 220.06,80.51 L 219.98,80.57 L 219.91,80.64 L 219.84,80.71 L 219.77,80.79 L 219.71,80.87 L 219.66,80.95 L 219.61,81.04 L 219.57,81.13 L 219.54,81.22 L 219.50,81.31 L 219.48,81.41 L 219.46,81.51 L 219.45,81.60 L 219.45,81.70 L 219.45,81.80 L 231.82,288.50" fill="none" stroke="#999999" stroke-width="0.5715" /><circle cx="220.9815050596839" cy="81.73375482906545" fill="#888" opacity="1.0" r="1.25" stroke="#444" stroke-width="0.15" /><circle cx="260.9815050596839" cy="55.412536528758324" fill="#654321" r="1.25" stroke="#333" stroke-width="0.15" /><path d="M 268.01,57.36 L 268.24,57.34 L 268.47,57.29 L 268.69,57.20 L 268.89,57.08 L 269.06,56.93 L 269.22,56.76 L 269.34,56.56 L 269.43,56.34 L 269.49,56.12 L 269.51,55.89 L 269.50,55.65 L 269.45,55.43 L 269.37,55.21 L 269.25,55.01 L 269.11,54.83 L 268.93,54.67 L 268.74,54.54 L 268.53,54.44 L 268.30,54.38 L 268.07,54.35 L 267.84,54.36 L 267.61,54.41 L 267.39,54.49 L 267.19,54.60 L 227.19,80.86 L 227.11,80.91 L 227.03,80.97 L 226.96,81.04 L 226.89,81.11 L 226.83,81.18 L 226.77,81.26 L 226.72,81.34 L 226.67,81.43 L 226.63,81.52 L 226.59,81.61 L 226.57,81.70 L 226.54,81.79 L 226.52,81.89 L 226.51,81.99 L 226.51,82.08 L 226.51,82.18 L 238.05,273.75" fill="none" stroke="#999999" stroke-width="0.508" /><circle cx="228.0109864743251" cy="82.11299228059727" fill="#888" opacity="1.0" r="1.25" stroke="#444" stroke-width="0.15" /><circle cx="268.01098647432514" cy="55.85714174986708" fill="#654321" r="1.25" stroke="#333" stroke-width="0.15" /><path d="M 275.10,57.81 L 275.33,57.79 L 275.56,57.74 L 275.77,57.65 L 275.97,57.53 L 276.15,57.38 L 276.31,57.20 L 276.43,57.00 L 276.52,56.78 L 276.58,56.56 L 276.60,56.32 L 276.58,56.09 L 276.53,55.86 L 276.45,55.64 L 276.33,55.44 L 276.18,55.26 L 276.00,55.11 L 275.81,54.98 L 275.59,54.89 L 275.37,54.83 L 275.13,54.80 L 274.90,54.81 L 274.67,54.86 L 274.45,54.95 L 274.25,55.06 L 234.25,82.30 L 234.17,82.36 L 234.10,82.42 L 234.03,82.48 L 233.96,82.55 L 233.90,82.63 L 233.85,82.70 L 233.80,82.78 L 233.75,82.87 L 233.71,82.96 L 233.68,83.04 L 233.65,83.14 L 233.62,83.23 L 233.61,83.32 L 233.60,83.42 L 233.59,83.51 L 233.59,83.61 L 244.35,260.05" fill="none" stroke="#999999" stroke-width="0.508" /><circle cx="235.0954960572135" cy="83.54222973212904" fill="#888" opacity="1.0" r="1.25" stroke="#444" stroke-width="0.15" /><circle cx="275.0954960572135" cy="56.3052274284189" fill="#654321" r="1.25" stroke="#333" stroke-width="0.15" /><path d="M 282.10,58.25 L 282.29,58.24 L 282.48,58.19 L 282.66,58.12 L 282.83,58.02 L 282.98,57.89 L 283.11,57.75 L 283.21,57.58 L 283.29,57.40 L 283.33,57.21 L 283.35,57.02 L 283.34,56.83 L 283.30,56.64 L 283.23,56.46 L 283.13,56.29 L 283.01,56.14 L 282.87,56.01 L 282.70,55.90 L 282.53,55.82 L 282.34,55.77 L 282.15,55.75 L 281.95,55.75 L 281.76,55.79 L 281.58,55.86 L 281.41,55.95 L 241.41,82.38 L 241.34,82.43 L 241.28,82.48 L 241.22,82.53 L 241.16,82.59 L 241.11,82.65 L 241.06,82.72 L 241.02,82.78 L 240.98,82.86 L 240.95,82.93 L 240.92,83.00 L 240.89,83.08 L 240.87,83.16 L 240.86,83.24 L 240.85,83.32 L 240.85,83.40 L 240.85,83.48 L 250.69,247.30" fill="none" stroke="#FF0000" stroke-width="0.508" /><circle cx="242.09895313981337" cy="83.42489334677441" fill="#888" opacity="1.0" r="1.0" stroke="#444" stroke-width="0.15" /><circle cx="282.0989531398134" cy="56.998186645616556" fill="#654321" r="1.0" stroke="#333" stroke-width="0.15" /><path d="M 289.15,58.67 L 289.34,58.66 L 289.53,58.61 L 289.70,58.54 L 289.87,58.44 L 290.01,58.32 L 290.14,58.18 L 290.24,58.01 L 290.31,57.84 L 290.36,57.65 L 290.38,57.46 L 290.37,57.27 L 290.33,57.09 L 290.26,56.91 L 290.16,56.74 L 290.04,56.60 L 289.90,56.47 L 289.74,56.37 L 289.56,56.29 L 289.38,56.24 L 289.19,56.22 L 289.00,56.22 L 288.81,56.26 L 288.63,56.33 L 288.47,56.42 L 248.47,83.19 L 248.40,83.23 L 248.34,83.28 L 248.28,83.34 L 248.23,83.39 L 248.18,83.45 L 248.13,83.52 L 248.09,83.58 L 248.05,83.65 L 248.02,83.72 L 247.99,83.80 L 247.97,83.87 L 247.95,83.95 L 247.93,84.03 L 247.93,84.10 L 247.92,84.18 L 247.92,84.26 L 257.08,235.50" fill="none" stroke="#999999" stroke-width="0.457" /><circle cx="249.14958081492003" cy="84.20762548468201" fill="#888" opacity="1.0" r="1.0" stroke="#444" stroke-width="0.15" /><circle cx="289.14958081492" cy="57.44412933918659" fill="#654321" r="1.0" stroke="#333" stroke-width="0.15" /><path d="M 296.25,59.12 L 296.44,59.11 L 296.63,59.06 L 296.80,58.99 L 296.97,58.89 L 297.11,58.76 L 297.24,58.62 L 297.34,58.46 L 297.41,58.28 L 297.46,58.09 L 297.48,57.90 L 297.46,57.71 L 297.42,57.52 L 297.35,57.35 L 297.25,57.18 L 297.13,57.03 L 296.98,56.91 L 296.82,56.81 L 296.64,56.73 L 296.46,56.68 L 296.27,56.66 L 296.07,56.68 L 295.89,56.72 L 295.71,56.79 L 295.54,56.89 L 255.54,84.88 L 255.48,84.93 L 255.42,84.98 L 255.37,85.03 L 255.32,85.09 L 255.27,85.15 L 255.22,85.21 L 255.18,85.28 L 255.15,85.35 L 255.11,85.42 L 255.09,85.49 L 255.06,85.56 L 255.05,85.64 L 255.03,85.71 L 255.02,85.79 L 255.02,85.87 L 255.02,85.94 L 263.51,224.55" fill="none" stroke="#999999" stroke-width="0.457" /><circle cx="256.2473719002294" cy="85.89028909932745" fill="#888" opacity="1.0" r="1.0" stroke="#444" stroke-width="0.15" /><circle cx="296.2473719002294" cy="57.89305505485811" fill="#654321" r="1.0" stroke="#333" stroke-width="0.15" /><path d="M 303.12,59.56 L 303.31,59.54 L 303.49,59.50 L 303.67,59.43 L 303.83,59.33 L 303.98,59.21 L 304.10,59.07 L 304.20,58.91 L 304.28,58.73 L 304.33,58.55 L 304.35,58.36 L 304.34,58.17 L 304.30,57.99 L 304.24,57.81 L 304.14,57.65 L 304.03,57.50 L 303.89,57.37 L 303.73,57.26 L 303.56,57.18 L 303.38,57.13 L 303.19,57.10 L 303.00,57.10 L 302.82,57.14 L 302.64,57.20 L 302.47,57.29 L 262.47,82.24 L 262.40,82.28 L 262.34,82.33 L 262.28,82.39 L 262.22,82.44 L 262.17,82.50 L 262.12,82.57 L 262.07,82.64 L 262.03,82.71 L 262.00,82.78 L 261.97,82.86 L 261.94,82.93 L 261.92,83.01 L 261.91,83.09 L 261.90,83.17 L 261.89,83.25 L 261.89,83.33 L 269.99,214.40" fill="none" stroke="#0000FF" stroke-width="0.457" /><circle cx="263.1201758321262" cy="83.27994208672442" fill="#888" opacity="1.0" r="1.0" stroke="#444" stroke-width="0.15" /><circle cx="303.1201758321262" cy="58.32775063644306" fill="#654321" r="1.0" stroke="#333" stroke-width="0.15" /><path d="M 310.30,60.01 L 310.49,60.00 L 310.68,59.95 L 310.85,59.88 L 311.02,59.78 L 311.16,59.65 L 311.29,59.51 L 311.39,59.35 L 311.46,59.17 L 311.51,58.98 L 311.53,58.79 L 311.51,58.60 L 311.47,58.42 L 311.40,58.24 L 311.30,58.07 L 311.18,57.93 L 311.04,57.80 L 310.87,57.70 L 310.70,57.62 L 310.51,57.57 L 310.32,57.55 L 310.13,57.56 L 309.94,57.61 L 309.76,57.68 L 309.60,57.77 L 269.60,85.50 L 269.54,85.55 L 269.48,85.60 L 269.42,85.65 L 269.37,85.71 L 269.32,85.77 L 269.28,85.83 L 269.24,85.90 L 269.20,85.97 L 269.17,86.04 L 269.14,86.11 L 269.12,86.18 L 269.10,86.26 L 269.08,86.33 L 269.08,86.41 L 269.07,86.49 L 269.07,86.56 L 276.51,205.00" fill="none" stroke="#999999" stroke-width="0.457" /><circle cx="270.2991989753243" cy="86.51260570136981" fill="#888" opacity="1.0" r="1.0" stroke="#444" stroke-width="0.15" /><circle cx="310.2991989753243" cy="58.78181417024496" fill="#654321" r="1.0" stroke="#333" stroke-width="0.15" /><path d="M 317.25,60.42 L 317.44,60.41 L 317.62,60.37 L 317.79,60.30 L 317.95,60.20 L 318.09,60.08 L 318.22,59.94 L 318.31,59.78 L 318.39,59.61 L 318.44,59.43 L 318.45,59.25 L 318.44,59.06 L 318.40,58.88 L 318.34,58.70 L 318.24,58.54 L 318.13,58.40 L 317.99,58.27 L 317.83,58.17 L 317.66,58.09 L 317.48,58.04 L 317.30,58.02 L 317.11,58.03 L 316.93,58.06 L 316.76,58.13 L 316.59,58.21 L 276.59,84.40 L 276.53,84.44 L 276.47,84.49 L 276.41,84.54 L 276.36,84.60 L 276.31,84.66 L 276.26,84.72 L 276.22,84.78 L 276.18,84.85 L 276.15,84.92 L 276.12,84.99 L 276.09,85.07 L 276.08,85.14 L 276.06,85.22 L 276.05,85.30 L 276.05,85.37 L 276.05,85.45 L 283.07,196.35" fill="none" stroke="#999999" stroke-width="0.4065" /><circle cx="277.2506145761457" cy="85.40225868876689" fill="#888" opacity="1.0" r="1.0" stroke="#444" stroke-width="0.15" /><circle cx="317.2506145761457" cy="59.2214818338914" fill="#654321" r="1.0" stroke="#333" stroke-width="0.15" /><path d="M 324.24,60.87 L 324.42,60.85 L 324.60,60.81 L 324.77,60.74 L 324.93,60.64 L 325.08,60.53 L 325.20,60.39 L 325.30,60.23 L 325.37,60.06 L 325.42,59.88 L 325.44,59.70 L 325.43,59.51 L 325.39,59.33 L 325.33,59.15 L 325.24,58.99 L 325.12,58.85 L 324.98,58.72 L 324.83,58.62 L 324.66,58.54 L 324.48,58.49 L 324.30,58.46 L 324.12,58.47 L 323.93,58.50 L 323.76,58.56 L 323.59,58.65 L 283.59,83.92 L 283.53,83.97 L 283.47,84.02 L 283.41,84.07 L 283.35,84.13 L 283.30,84.19 L 283.25,84.25 L 283.21,84.31 L 283.17,84.38 L 283.14,84.45 L 283.11,84.53 L 283.08,84.60 L 283.06,84.68 L 283.05,84.76 L 283.04,84.83 L 283.03,84.91 L 283.03,84.99 L 289.65,188.30" fill="none" stroke="#999999" stroke-width="0.4065" /><circle cx="284.23609164234904" cy="84.94184315290158" fill="#888" opacity="1.0" r="1.0" stroke="#444" stroke-width="0.15" /><circle cx="324.23609164234904" cy="59.663303839295736" fill="#654321" r="1.0" stroke="#333" stroke-width="0.15" /><path d="M 331.25,61.31 L 331.44,61.30 L 331.62,61.25 L 331.79,61.18 L 331.95,61.09 L 332.09,60.97 L 332.21,60.83 L 332.31,60.68 L 332.39,60.51 L 332.44,60.33 L 332.46,60.14 L 332.45,59.96 L 332.41,59.78 L 332.35,59.60 L 332.25,59.44 L 332.14,59.29 L 332.01,59.17 L 331.85,59.06 L 331.68,58.98 L 331.51,58.93 L 331.32,58.91 L 331.14,58.91 L 330.96,58.94 L 330.78,59.00 L 330.62,59.09 L 290.62,84.06 L 290.55,84.10 L 290.49,84.15 L 290.43,84.21 L 290.37,84.26 L 290.32,84.32 L 290.27,84.38 L 290.23,84.45 L 290.19,84.52 L 290.15,84.59 L 290.12,84.66 L 290.10,84.74 L 290.08,84.82 L 290.06,84.89 L 290.05,84.97 L 290.05,85.05 L 290.05,85.13 L 296.27,180.90" fill="none" stroke="#FF0000" stroke-width="0.4065" /><circle cx="291.2530169672742" cy="85.08149614029867" fill="#888" opacity="1.0" r="1.0" stroke="#444" stroke-width="0.15" /><circle cx="331.2530169672742" cy="60.10711490466019" fill="#654321" r="1.0" stroke="#333" stroke-width="0.15" /><path d="M 338.30,61.74 L 338.48,61.73 L 338.66,61.69 L 338.83,61.62 L 338.99,61.52 L 339.13,61.41 L 339.25,61.27 L 339.35,61.11 L 339.42,60.95 L 339.47,60.77 L 339.49,60.59 L 339.48,60.40 L 339.44,60.22 L 339.38,60.05 L 339.29,59.89 L 339.17,59.75 L 339.04,59.62 L 338.89,59.52 L 338.72,59.44 L 338.55,59.39 L 338.36,59.36 L 338.18,59.37 L 338.00,59.40 L 337.83,59.46 L 337.66,59.55 L 297.66,84.76 L 297.60,84.81 L 297.54,84.86 L 297.48,84.91 L 297.42,84.96 L 297.37,85.02 L 297.33,85.08 L 297.28,85.15 L 297.25,85.22 L 297.21,85.29 L 297.18,85.36 L 297.16,85.43 L 297.14,85.51 L 297.12,85.58 L 297.11,85.66 L 297.11,85.74 L 297.11,85.82 L 302.92,174.00" fill="none" stroke="#999999" stroke-width="0.381" /><circle cx="298.298762979653" cy="85.77108060443345" fill="#888" opacity="1.0" r="1.0" stroke="#444" stroke-width="0.15" /><circle cx="338.298762979653" cy="60.55274883964512" fill="#654321" r="1.0" stroke="#333" stroke-width="0.15" /><path d="M 345.37,62.18 L 345.55,62.16 L 345.73,62.12 L 345.90,62.05 L 346.05,61.96 L 346.19,61.84 L 346.31,61.70 L 346.41,61.55 L 346.48,61.38 L 346.53,61.21 L 346.55,61.03 L 346.54,60.84 L 346.50,60.67 L 346.43,60.50 L 346.34,60.34 L 346.23,60.20 L 346.09,60.07 L 345.94,59.97 L 345.78,59.90 L 345.60,59.85 L 345.42,59.82 L 345.24,59.83 L 345.06,59.86 L 344.89,59.92 L 344.73,60.01 L 304.73,85.92 L 304.67,85.97 L 304.61,86.01 L 304.55,86.06 L 304.50,86.12 L 304.45,86.18 L 304.40,86.24 L 304.36,86.30 L 304.32,86.37 L 304.29,86.44 L 304.26,86.51 L 304.24,86.58 L 304.22,86.65 L 304.20,86.73 L 304.20,86.80 L 304.19,86.88 L 304.19,86.96 L 309.60,167.60" fill="none" stroke="#999999" stroke-width="0.3555" /><circle cx="305.36809608386125" cy="86.91073359183042" fill="#888" opacity="1.0" r="1.0" stroke="#444" stroke-width="0.15" /><circle cx="345.36809608386125" cy="60.999874626383985" fill="#654321" r="1.0" stroke="#333" stroke-width="0.15" /><path d="M 352.46,62.63 L 352.64,62.61 L 352.82,62.57 L 352.99,62.50 L 353.15,62.41 L 353.29,62.29 L 353.41,62.15 L 353.51,61.99 L 353.58,61.82 L 353.62,61.65 L 353.64,61.47 L 353.63,61.28 L 353.59,61.10 L 353.52,60.93 L 353.43,60.78 L 353.31,60.63 L 353.17,60.51 L 353.02,60.41 L 352.85,60.34 L 352.68,60.29 L 352.49,60.27 L 352.31,60.28 L 352.13,60.32 L 351.96,60.38 L 351.80,60.47 L 311.80,87.52 L 311.74,87.57 L 311.68,87.62 L 311.63,87.67 L 311.58,87.72 L 311.53,87.78 L 311.49,87.84 L 311.45,87.90 L 311.41,87.97 L 311.38,88.03 L 311.35,88.10 L 311.33,88.17 L 311.31,88.25 L 311.30,88.32 L 311.29,88.39 L 311.28,88.47 L 311.28,88.54 L 316.29,161.60" fill="none" stroke="#0000FF" stroke-width="0.3555" /><circle cx="312.4610090975948" cy="88.50031805596518" fill="#888" opacity="1.0" r="1.0" stroke="#444" stroke-width="0.15" /><circle cx="352.4610090975948" cy="61.44849181060579" fill="#654321" r="1.0" stroke="#333" stroke-width="0.15" /><path d="M 359.57,63.08 L 359.76,63.06 L 359.94,63.02 L 360.11,62.95 L 360.26,62.85 L 360.40,62.73 L 360.52,62.59 L 360.62,62.44 L 360.69,62.27 L 360.73,62.09 L 360.75,61.90 L 360.74,61.72 L 360.69,61.54 L 360.62,61.37 L 360.53,61.21 L 360.41,61.07 L 360.27,60.95 L 360.11,60.85 L 359.94,60.78 L 359.76,60.74 L 359.58,60.72 L 359.40,60.73 L 359.22,60.78 L 359.05,60.84 L 358.89,60.94 L 318.89,89.48 L 318.83,89.53 L 318.78,89.57 L 318.72,89.62 L 318.68,89.68 L 318.63,89.73 L 318.59,89.79 L 318.55,89.85 L 318.52,89.92 L 318.49,89.98 L 318.46,90.05 L 318.44,90.12 L 318.42,90.19 L 318.41,90.26 L 318.40,90.34 L 318.39,90.41 L 318.40,90.48 L 323.01,156.00" fill="none" stroke="#999999" stroke-width="0.3555" /><circle cx="319.5722684252295" cy="90.43997104336222" fill="#888" opacity="1.0" r="1.0" stroke="#444" stroke-width="0.15" /><circle cx="359.5722684252295" cy="61.898269374444226" fill="#654321" r="1.0" stroke="#333" stroke-width="0.15" /><path d="M 366.57,63.50 L 366.75,63.49 L 366.92,63.44 L 367.09,63.37 L 367.25,63.28 L 367.38,63.16 L 367.50,63.03 L 367.60,62.87 L 367.67,62.71 L 367.71,62.53 L 367.73,62.35 L 367.71,62.17 L 367.67,61.99 L 367.61,61.83 L 367.51,61.67 L 367.40,61.53 L 367.26,61.41 L 367.11,61.32 L 366.94,61.24 L 366.77,61.20 L 366.59,61.18 L 366.41,61.19 L 366.23,61.23 L 366.06,61.30 L 365.91,61.39 L 325.91,89.23 L 325.85,89.28 L 325.79,89.32 L 325.74,89.37 L 325.69,89.42 L 325.65,89.48 L 325.61,89.54 L 325.57,89.60 L 325.53,89.66 L 325.50,89.73 L 325.48,89.80 L 325.45,89.87 L 325.44,89.93 L 325.42,90.01 L 325.41,90.08 L 325.41,90.15 L 325.41,90.22 L 329.74,150.70" fill="none" stroke="#999999" stroke-width="0.3175" /><circle cx="326.56841019604167" cy="90.18305019387287" fill="#888" opacity="1.0" r="1.0" stroke="#444" stroke-width="0.15" /><circle cx="366.56841019604167" cy="62.340765908034996" fill="#654321" r="1.0" stroke="#333" stroke-width="0.15" /><path d="M 373.58,63.94 L 373.76,63.93 L 373.93,63.89 L 374.10,63.82 L 374.25,63.72 L 374.39,63.61 L 374.51,63.47 L 374.61,63.32 L 374.68,63.15 L 374.72,62.98 L 374.74,62.80 L 374.72,62.62 L 374.68,62.44 L 374.62,62.27 L 374.53,62.12 L 374.41,61.98 L 374.28,61.86 L 374.12,61.76 L 373.96,61.69 L 373.78,61.64 L 373.60,61.63 L 373.42,61.64 L 373.25,61.67 L 373.08,61.74 L 372.92,61.83 L 332.92,89.22 L 332.86,89.26 L 332.81,89.31 L 332.76,89.36 L 332.71,89.41 L 332.66,89.47 L 332.62,89.53 L 332.58,89.59 L 332.54,89.65 L 332.51,89.72 L 332.49,89.79 L 332.46,89.85 L 332.45,89.92 L 332.43,90.00 L 332.42,90.07 L 332.42,90.14 L 332.42,90.21 L 336.48,145.65" fill="none" stroke="#999999" stroke-width="0.3175" /><circle cx="333.57765391167464" cy="90.17612934438341" fill="#888" opacity="1.0" r="1.0" stroke="#444" stroke-width="0.15" /><circle cx="373.5776539116747" cy="62.78409112196948" fill="#654321" r="1.0" stroke="#333" stroke-width="0.15" /><path d="M 380.60,64.39 L 380.78,64.37 L 380.95,64.33 L 381.12,64.26 L 381.27,64.17 L 381.41,64.05 L 381.53,63.92 L 381.62,63.76 L 381.70,63.60 L 381.74,63.42 L 381.76,63.24 L 381.74,63.06 L 381.71,62.89 L 381.64,62.72 L 381.55,62.56 L 381.43,62.43 L 381.30,62.31 L 381.15,62.21 L 380.98,62.13 L 380.81,62.09 L 380.63,62.07 L 380.45,62.08 L 380.27,62.12 L 380.10,62.18 L 379.95,62.27 L 339.95,89.41 L 339.89,89.45 L 339.83,89.50 L 339.78,89.55 L 339.73,89.60 L 339.68,89.66 L 339.64,89.72 L 339.60,89.78 L 339.57,89.84 L 339.53,89.91 L 339.51,89.98 L 339.49,90.04 L 339.47,90.11 L 339.45,90.19 L 339.44,90.26 L 339.44,90.33 L 339.44,90.40 L 343.24,140.80" fill="none" stroke="#FF0000" stroke-width="0.3175" /><circle cx="340.59737918316415" cy="90.369208494894" fill="#888" opacity="1.0" r="1.0" stroke="#444" stroke-width="0.15" /><circle cx="380.5973791831642" cy="63.228079280178804" fill="#654321" r="1.0" stroke="#333" stroke-width="0.15" /><path d="M 387.63,64.83 L 387.81,64.82 L 387.98,64.78 L 388.15,64.71 L 388.30,64.61 L 388.44,64.50 L 388.56,64.36 L 388.65,64.21 L 388.73,64.04 L 388.77,63.87 L 388.79,63.69 L 388.77,63.51 L 388.74,63.33 L 388.67,63.17 L 388.58,63.01 L 388.46,62.87 L 388.33,62.75 L 388.18,62.65 L 388.01,62.58 L 387.84,62.53 L 387.66,62.51 L 387.48,62.52 L 387.30,62.56 L 387.13,62.62 L 386.98,62.71 L 346.98,89.80 L 346.92,89.85 L 346.86,89.89 L 346.81,89.94 L 346.76,89.99 L 346.71,90.05 L 346.67,90.11 L 346.63,90.17 L 346.60,90.23 L 346.57,90.30 L 346.54,90.37 L 346.52,90.43 L 346.50,90.51 L 346.48,90.58 L 346.47,90.65 L 346.47,90.72 L 346.47,90.79 L 350.01,136.15" fill="none" stroke="#999999" stroke-width="0.3175" /><circle cx="347.6275860105103" cy="90.76228764540463" fill="#888" opacity="1.0" r="1.0" stroke="#444" stroke-width="0.15" /><circle cx="387.6275860105103" cy="63.67273038266296" fill="#654321" r="1.0" stroke="#333" stroke-width="0.15" /><path d="M 394.66,65.28 L 394.84,65.26 L 395.02,65.22 L 395.18,65.15 L 395.34,65.06 L 395.47,64.94 L 395.59,64.81 L 395.69,64.65 L 395.76,64.49 L 395.80,64.31 L 395.82,64.13 L 395.81,63.95 L 395.77,63.78 L 395.70,63.61 L 395.61,63.45 L 395.50,63.32 L 395.36,63.20 L 395.21,63.10 L 395.05,63.02 L 394.87,62.98 L 394.69,62.96 L 394.51,62.97 L 394.34,63.01 L 394.17,63.07 L 394.01,63.16 L 354.01,90.25 L 353.95,90.29 L 353.90,90.33 L 353.84,90.38 L 353.79,90.44 L 353.75,90.49 L 353.70,90.55 L 353.67,90.61 L 353.63,90.67 L 353.60,90.74 L 353.57,90.81 L 353.55,90.88 L 353.53,90.95 L 353.52,91.02 L 353.51,91.09 L 353.50,91.16 L 353.50,91.23 L 356.77,131.55" fill="none" stroke="#999999" stroke-width="0.3175" /><circle cx="354.66041322682065" cy="91.20536679591521" fill="#888" opacity="1.0" r="1.0" stroke="#444" stroke-width="0.15" /><circle cx="394.66041322682065" cy="64.11754722121589" fill="#654321" r="1.0" stroke="#333" stroke-width="0.15" /><path d="M 401.70,65.72 L 401.88,65.71 L 402.05,65.67 L 402.22,65.60 L 402.37,65.50 L 402.51,65.39 L 402.63,65.25 L 402.73,65.10 L 402.80,64.93 L 402.84,64.76 L 402.86,64.58 L 402.85,64.40 L 402.81,64.22 L 402.74,64.05 L 402.65,63.90 L 402.53,63.76 L 402.40,63.64 L 402.25,63.54 L 402.08,63.47 L 401.91,63.42 L 401.73,63.40 L 401.55,63.41 L 401.37,63.45 L 401.20,63.51 L 401.05,63.60 L 361.05,90.79 L 360.99,90.83 L 360.93,90.88 L 360.88,90.93 L 360.83,90.98 L 360.79,91.03 L 360.74,91.09 L 360.70,91.15 L 360.67,91.22 L 360.64,91.28 L 360.61,91.35 L 360.59,91.42 L 360.57,91.49 L 360.56,91.56 L 360.55,91.63 L 360.54,91.70 L 360.54,91.77 L 363.55,127.05" fill="none" stroke="#0000FF" stroke-width="0.3175" /><circle cx="361.6984812210593" cy="91.74844594642582" fill="#888" opacity="1.0" r="1.0" stroke="#444" stroke-width="0.15" /><circle cx="401.6984812210593" cy="64.56269553190623" fill="#654321" r="1.0" stroke="#333" stroke-width="0.15" /><path d="M 408.73,66.17 L 408.91,66.15 L 409.09,66.11 L 409.26,66.04 L 409.41,65.95 L 409.55,65.83 L 409.67,65.70 L 409.76,65.54 L 409.83,65.38 L 409.88,65.20 L 409.89,65.02 L 409.88,64.84 L 409.84,64.67 L 409.77,64.50 L 409.68,64.34 L 409.57,64.20 L 409.43,64.08 L 409.28,63.99 L 409.12,63.91 L 408.94,63.87 L 408.76,63.85 L 408.58,63.86 L 408.41,63.90 L 408.24,63.96 L 408.08,64.05 L 368.08,91.28 L 368.02,91.33 L 367.97,91.37 L 367.92,91.42 L 367.87,91.47 L 367.82,91.53 L 367.78,91.58 L 367.74,91.64 L 367.71,91.71 L 367.67,91.77 L 367.65,91.84 L 367.63,91.91 L 367.61,91.97 L 367.59,92.04 L 367.58,92.12 L 367.58,92.19 L 367.58,92.26 L 370.32,122.50" fill="none" stroke="#999999" stroke-width="0.3175" /><circle cx="368.7339288263338" cy="92.24152509693636" fill="#888" opacity="1.0" r="1.0" stroke="#444" stroke-width="0.15" /><circle cx="408.7339288263338" cy="65.0076781065278" fill="#654321" r="1.0" stroke="#333" stroke-width="0.15" /></svg>