<?xml version="1.0" encoding="utf-8" ?>
<svg baseProfile="full" height="872" version="1.1" width="434" xmlns="http://www.w3.org/2000/svg" xmlns:ev="http://www.w3.org/2001/xml-events" xmlns:xlink="http://www.w3.org/1999/xlink"><defs /><rect fill="white" height="872" width="434" x="0" y="0" /><line stroke="#90EE90" stroke-dasharray="4,2" stroke-width="0.5" x1="45.0" x2="368.7339288263338" y1="70.58805890014798" y2="95.24152509693636" /><line stroke="#8B4513" stroke-width="0.8" x1="63.56518899452307" x2="389.3106552353589" y1="46.35252723300289" y2="89.41175696537232" /><path d="M 63.57,46.93 L 63.92,46.90 L 64.26,46.81 L 64.58,46.67 L 64.87,46.47 L 65.13,46.22 L 65.34,45.94 L 65.49,45.62 L 65.60,45.29 L 65.64,44.94 L 65.63,44.59 L 65.55,44.24 L 65.42,43.91 L 65.23,43.61 L 65.00,43.35 L 64.72,43.13 L 64.42,42.96 L 64.08,42.84 L 63.74,42.78 L 63.38,42.78 L 63.03,42.84 L 62.70,42.96 L 62.40,43.14 L 62.12,43.36 L 61.89,43.62 L 43.12,69.21 L 43.07,69.29 L 43.01,69.38 L 42.96,69.46 L 42.92,69.55 L 42.87,69.64 L 42.84,69.73 L 42.80,69.82 L 42.77,69.92 L 42.74,70.01 L 42.72,70.11 L 42.70,70.21 L 42.69,70.31 L 42.68,70.41 L 42.67,70.50 L 42.67,70.60 L 42.68,70.70 L 84.64,827.00" fill="none" stroke="#FF0000" stroke-width="1.1555" /><circle cx="45.0" cy="70.58805890014798" fill="#888" r="1.75" stroke="#444" stroke-width="0.15" /><circle cx="63.56518899452307" cy="44.85252723300289" fill="#654321" r="1.5" stroke="#333" stroke-width="0.15" /><path d="M 70.65,47.82 L 70.98,47.79 L 71.31,47.70 L 71.62,47.57 L 71.90,47.38 L 72.15,47.15 L 72.35,46.88 L 72.51,46.58 L 72.62,46.26 L 72.67,45.93 L 72.66,45.59 L 72.60,45.26 L 72.49,44.94 L 72.32,44.65 L 72.11,44.38 L 71.85,44.16 L 71.57,43.98 L 71.25,43.85 L 70.93,43.78 L 70.59,43.76 L 70.25,43.80 L 69.93,43.89 L 69.62,44.04 L 69.35,44.23 L 69.11,44.47 L 50.15,66.64 L 50.08,66.72 L 50.02,66.81 L 49.96,66.90 L 49.90,66.99 L 49.85,67.09 L 49.80,67.18 L 49.76,67.28 L 49.73,67.38 L 49.69,67.49 L 49.67,67.59 L 49.64,67.70 L 49.63,67.80 L 49.61,67.91 L 49.61,68.02 L 49.60,68.13 L 49.61,68.23 L 90.86,811.95" fill="none" stroke="#999999" stroke-width="1.054" /><circle cx="51.88030239243677" cy="68.1207910380557" fill="#888" r="1.75" stroke="#444" stroke-width="0.15" /><circle cx="70.64661217367167" cy="45.78859744457611" fill="#654321" r="1.5" stroke="#333" stroke-width="0.15" /><path d="M 77.73,48.71 L 78.05,48.68 L 78.37,48.60 L 78.67,48.47 L 78.94,48.29 L 79.18,48.07 L 79.38,47.82 L 79.54,47.53 L 79.65,47.22 L 79.70,46.90 L 79.70,46.58 L 79.65,46.25 L 79.55,45.94 L 79.40,45.66 L 79.20,45.40 L 78.96,45.17 L 78.69,44.99 L 78.40,44.86 L 78.08,44.77 L 77.76,44.74 L 77.43,44.76 L 77.11,44.84 L 76.81,44.97 L 76.54,45.14 L 76.29,45.36 L 57.21,65.36 L 57.13,65.45 L 57.06,65.53 L 57.00,65.63 L 56.93,65.72 L 56.88,65.82 L 56.82,65.92 L 56.78,66.02 L 56.73,66.12 L 56.70,66.23 L 56.67,66.34 L 56.64,66.45 L 56.62,66.56 L 56.61,66.67 L 56.60,66.79 L 56.59,66.90 L 56.60,67.01 L 97.15,798.10" fill="none" stroke="#999999" stroke-width="0.965" /><circle cx="58.82611091782533" cy="66.90345465270104" fill="#888" r="1.75" stroke="#444" stroke-width="0.15" /><circle cx="77.72803535282029" cy="46.724667656149336" fill="#654321" r="1.5" stroke="#333" stroke-width="0.15" /><path d="M 84.81,49.61 L 85.13,49.59 L 85.43,49.51 L 85.73,49.38 L 85.99,49.21 L 86.23,49.00 L 86.43,48.75 L 86.58,48.48 L 86.69,48.18 L 86.75,47.87 L 86.76,47.55 L 86.71,47.23 L 86.62,46.93 L 86.48,46.65 L 86.29,46.39 L 86.06,46.17 L 85.81,45.98 L 85.52,45.84 L 85.22,45.75 L 84.90,45.71 L 84.58,45.72 L 84.27,45.79 L 83.98,45.90 L 83.70,46.06 L 83.46,46.26 L 64.28,64.75 L 64.20,64.84 L 64.12,64.92 L 64.05,65.02 L 63.98,65.11 L 63.91,65.21 L 63.86,65.31 L 63.81,65.42 L 63.76,65.53 L 63.72,65.64 L 63.69,65.75 L 63.66,65.86 L 63.63,65.98 L 63.62,66.09 L 63.61,66.21 L 63.61,66.33 L 63.61,66.44 L 103.47,784.95" fill="none" stroke="#0000FF" stroke-width="0.9015" /><circle cx="65.80598809089989" cy="66.33618679060874" fill="#888" r="1.75" stroke="#444" stroke-width="0.15" /><circle cx="84.80945853196889" cy="47.66073786772267" fill="#654321" r="1.5" stroke="#333" stroke-width="0.15" /><path d="M 91.89,50.50 L 92.20,50.48 L 92.51,50.40 L 92.79,50.28 L 93.06,50.11 L 93.29,49.89 L 93.48,49.65 L 93.63,49.37 L 93.74,49.08 L 93.79,48.77 L 93.79,48.46 L 93.74,48.15 L 93.64,47.85 L 93.50,47.57 L 93.31,47.32 L 93.08,47.11 L 92.82,46.93 L 92.54,46.80 L 92.23,46.72 L 91.92,46.69 L 91.61,46.71 L 91.30,46.78 L 91.02,46.90 L 90.75,47.07 L 90.51,47.28 L 71.38,67.22 L 71.31,67.30 L 71.24,67.39 L 71.18,67.48 L 71.11,67.57 L 71.06,67.66 L 71.01,67.76 L 70.96,67.86 L 70.92,67.96 L 70.88,68.06 L 70.85,68.17 L 70.83,68.28 L 70.81,68.38 L 70.80,68.49 L 70.79,68.60 L 70.78,68.71 L 70.79,68.82 L 109.81,772.20" fill="none" stroke="#999999" stroke-width="0.813" /><circle cx="72.94028506410716" cy="68.71542424214044" fill="#888" r="1.75" stroke="#444" stroke-width="0.15" /><circle cx="91.89088171111749" cy="48.5968080792959" fill="#654321" r="1.5" stroke="#333" stroke-width="0.15" /><path d="M 98.97,51.39 L 99.28,51.37 L 99.58,51.29 L 99.86,51.17 L 100.12,51.00 L 100.35,50.79 L 100.53,50.55 L 100.68,50.27 L 100.78,49.98 L 100.83,49.68 L 100.83,49.37 L 100.77,49.06 L 100.67,48.77 L 100.52,48.50 L 100.33,48.26 L 100.10,48.05 L 99.84,47.89 L 99.56,47.77 L 99.26,47.69 L 98.95,47.67 L 98.64,47.70 L 98.35,47.78 L 98.06,47.91 L 97.81,48.08 L 97.58,48.29 L 78.50,69.64 L 78.43,69.72 L 78.37,69.80 L 78.31,69.88 L 78.25,69.97 L 78.20,70.06 L 78.16,70.15 L 78.12,70.24 L 78.08,70.34 L 78.05,70.44 L 78.02,70.54 L 78.00,70.64 L 77.98,70.74 L 77.97,70.84 L 77.96,70.94 L 77.96,71.05 L 77.96,71.15 L 116.15,759.40" fill="none" stroke="#999999" stroke-width="0.724" /><circle cx="80.07196164835028" cy="71.04466169367231" fill="#888" r="1.75" stroke="#444" stroke-width="0.15" /><circle cx="98.97230489026609" cy="49.53287829086912" fill="#654321" r="1.5" stroke="#333" stroke-width="0.15" /><path d="M 106.05,52.31 L 106.36,52.29 L 106.66,52.21 L 106.94,52.09 L 107.20,51.92 L 107.42,51.71 L 107.61,51.46 L 107.75,51.19 L 107.85,50.90 L 107.89,50.59 L 107.89,50.29 L 107.83,49.98 L 107.73,49.69 L 107.57,49.43 L 107.38,49.19 L 107.15,48.99 L 106.89,48.83 L 106.60,48.71 L 106.30,48.64 L 106.00,48.63 L 105.69,48.66 L 105.39,48.75 L 105.12,48.88 L 104.87,49.06 L 104.65,49.28 L 85.59,71.72 L 85.53,71.80 L 85.47,71.88 L 85.42,71.96 L 85.37,72.04 L 85.32,72.13 L 85.28,72.22 L 85.24,72.31 L 85.21,72.40 L 85.18,72.49 L 85.15,72.59 L 85.13,72.69 L 85.12,72.78 L 85.10,72.88 L 85.10,72.98 L 85.09,73.08 L 85.10,73.18 L 122.47,746.30" fill="none" stroke="#999999" stroke-width="0.686" /><circle cx="87.18791589880848" cy="73.073899145204" fill="#888" r="1.75" stroke="#444" stroke-width="0.15" /><circle cx="106.05372806941469" cy="50.468948502442345" fill="#654321" r="1.5" stroke="#333" stroke-width="0.15" /><path d="M 113.14,53.22 L 113.44,53.20 L 113.73,53.12 L 114.01,53.00 L 114.26,52.83 L 114.48,52.62 L 114.67,52.38 L 114.81,52.11 L 114.90,51.82 L 114.95,51.52 L 114.94,51.22 L 114.89,50.92 L 114.78,50.64 L 114.63,50.37 L 114.44,50.14 L 114.21,49.94 L 113.95,49.78 L 113.67,49.67 L 113.37,49.60 L 113.07,49.59 L 112.77,49.63 L 112.47,49.71 L 112.20,49.85 L 111.95,50.02 L 111.74,50.24 L 92.68,73.03 L 92.62,73.10 L 92.56,73.18 L 92.51,73.26 L 92.46,73.34 L 92.42,73.43 L 92.37,73.52 L 92.34,73.60 L 92.30,73.70 L 92.28,73.79 L 92.25,73.88 L 92.23,73.98 L 92.22,74.07 L 92.21,74.17 L 92.20,74.26 L 92.20,74.36 L 92.20,74.45 L 128.75,732.45" fill="none" stroke="#FF0000" stroke-width="0.635" /><circle cx="94.2645643148044" cy="74.35313659673591" fill="#888" r="1.75" stroke="#444" stroke-width="0.15" /><circle cx="113.1351512485633" cy="51.40501871401568" fill="#654321" r="1.5" stroke="#333" stroke-width="0.15" /><path d="M 120.22,54.13 L 120.52,54.11 L 120.81,54.03 L 121.09,53.91 L 121.34,53.74 L 121.56,53.53 L 121.74,53.29 L 121.88,53.02 L 121.97,52.73 L 122.01,52.43 L 122.00,52.13 L 121.93,51.83 L 121.82,51.55 L 121.67,51.29 L 121.47,51.06 L 121.24,50.87 L 120.98,50.72 L 120.69,50.61 L 120.39,50.56 L 120.09,50.55 L 119.79,50.60 L 119.51,50.70 L 119.24,50.84 L 119.00,51.03 L 118.80,51.25 L 99.80,75.93 L 99.75,76.01 L 99.70,76.08 L 99.65,76.16 L 99.61,76.24 L 99.57,76.32 L 99.53,76.40 L 99.50,76.48 L 99.47,76.57 L 99.45,76.66 L 99.43,76.74 L 99.41,76.83 L 99.40,76.92 L 99.39,77.01 L 99.38,77.10 L 99.38,77.19 L 99.38,77.28 L 134.99,717.60" fill="none" stroke="#999999" stroke-width="0.584" /><circle cx="101.4222616399368" cy="77.17887936189186" fill="#888" r="1.75" stroke="#444" stroke-width="0.15" /><circle cx="120.2165744277119" cy="52.341088925588906" fill="#654321" r="1.5" stroke="#333" stroke-width="0.15" /><path d="M 127.30,55.44 L 127.67,55.41 L 128.02,55.31 L 128.36,55.16 L 128.66,54.95 L 128.93,54.70 L 129.14,54.40 L 129.31,54.07 L 129.41,53.72 L 129.46,53.35 L 129.44,52.98 L 129.36,52.62 L 129.22,52.28 L 129.02,51.97 L 128.77,51.70 L 128.48,51.47 L 128.16,51.30 L 127.81,51.18 L 127.44,51.12 L 127.08,51.13 L 126.71,51.20 L 126.37,51.33 L 126.05,51.51 L 125.77,51.75 L 125.53,52.03 L 106.62,78.86 L 106.57,78.95 L 106.51,79.03 L 106.47,79.12 L 106.42,79.21 L 106.38,79.30 L 106.34,79.39 L 106.31,79.48 L 106.28,79.58 L 106.25,79.68 L 106.23,79.77 L 106.21,79.87 L 106.20,79.97 L 106.19,80.07 L 106.18,80.17 L 106.18,80.27 L 106.19,80.37 L 141.10,700.50" fill="none" stroke="#999999" stroke-width="1.321" /><circle cx="108.59288135228971" cy="80.25119596393415" fill="#888" r="1.75" stroke="#444" stroke-width="0.15" /><circle cx="127.29799760686052" cy="53.27715913716213" fill="#654321" r="1.5" stroke="#333" stroke-width="0.15" /><path d="M 134.38,56.35 L 134.72,56.32 L 135.05,56.24 L 135.36,56.11 L 135.65,55.93 L 135.91,55.70 L 136.13,55.44 L 136.30,55.15 L 136.42,54.83 L 136.50,54.50 L 136.51,54.16 L 136.48,53.82 L 136.39,53.49 L 136.25,53.18 L 136.06,52.90 L 135.83,52.65 L 135.56,52.44 L 135.27,52.27 L 134.95,52.15 L 134.61,52.09 L 134.27,52.08 L 133.93,52.13 L 133.61,52.22 L 133.30,52.37 L 133.02,52.57 L 113.57,68.60 L 113.47,68.69 L 113.37,68.79 L 113.27,68.89 L 113.19,69.00 L 113.11,69.11 L 113.03,69.23 L 112.97,69.35 L 112.91,69.47 L 112.85,69.60 L 112.81,69.73 L 112.77,69.87 L 112.74,70.00 L 112.72,70.14 L 112.71,70.28 L 112.70,70.41 L 112.71,70.55 L 147.07,680.60" fill="none" stroke="#0000FF" stroke-width="1.27" /><circle cx="115.08816612459637" cy="70.43735426495539" fill="#888" r="1.75" stroke="#444" stroke-width="0.15" /><circle cx="134.37942078600912" cy="54.213229348735354" fill="#654321" r="1.5" stroke="#333" stroke-width="0.15" /><path d="M 141.46,57.23 L 141.77,57.21 L 142.08,57.14 L 142.37,57.02 L 142.65,56.86 L 142.89,56.67 L 143.10,56.43 L 143.28,56.17 L 143.41,55.88 L 143.50,55.58 L 143.54,55.27 L 143.54,54.96 L 143.48,54.64 L 143.38,54.35 L 143.24,54.07 L 143.06,53.81 L 142.84,53.58 L 142.59,53.39 L 142.31,53.25 L 142.01,53.14 L 141.70,53.08 L 141.39,53.07 L 141.07,53.10 L 140.77,53.18 L 140.48,53.31 L 120.76,63.80 L 120.62,63.89 L 120.48,63.98 L 120.35,64.08 L 120.23,64.19 L 120.12,64.31 L 120.01,64.44 L 119.91,64.57 L 119.83,64.71 L 119.75,64.86 L 119.69,65.01 L 119.63,65.16 L 119.59,65.32 L 119.55,65.48 L 119.53,65.65 L 119.52,65.81 L 119.53,65.98 L 152.91,658.40" fill="none" stroke="#999999" stroke-width="1.1685" /><circle cx="121.85804947418626" cy="65.86316555337362" fill="#888" r="1.75" stroke="#444" stroke-width="0.15" /><circle cx="141.46084396515772" cy="55.14929956030858" fill="#654321" r="1.5" stroke="#333" stroke-width="0.15" /><path d="M 148.54,58.13 L 148.88,58.10 L 149.21,58.02 L 149.53,57.88 L 149.81,57.69 L 150.06,57.46 L 150.27,57.19 L 150.43,56.89 L 150.53,56.56 L 150.58,56.22 L 150.58,55.88 L 150.52,55.55 L 150.40,55.23 L 150.23,54.93 L 150.01,54.66 L 149.76,54.44 L 149.47,54.26 L 149.15,54.13 L 148.82,54.06 L 148.48,54.04 L 148.14,54.08 L 147.81,54.18 L 147.50,54.32 L 147.22,54.52 L 146.98,54.76 L 127.80,77.38 L 127.73,77.46 L 127.67,77.55 L 127.61,77.64 L 127.55,77.73 L 127.50,77.82 L 127.45,77.92 L 127.41,78.02 L 127.37,78.12 L 127.34,78.23 L 127.32,78.33 L 127.29,78.44 L 127.28,78.54 L 127.26,78.65 L 127.26,78.76 L 127.25,78.86 L 127.26,78.97 L 158.62,633.60" fill="none" stroke="#999999" stroke-width="1.092" /><circle cx="129.5488589137477" cy="78.86129344383426" fill="#888" r="1.75" stroke="#444" stroke-width="0.15" /><circle cx="148.54226714430632" cy="56.085369771881915" fill="#654321" r="1.5" stroke="#333" stroke-width="0.15" /><path d="M 155.62,59.04 L 155.96,59.01 L 156.28,58.93 L 156.59,58.79 L 156.87,58.61 L 157.11,58.38 L 157.31,58.12 L 157.47,57.82 L 157.58,57.50 L 157.63,57.18 L 157.63,56.84 L 157.57,56.51 L 157.46,56.20 L 157.30,55.90 L 157.09,55.64 L 156.84,55.42 L 156.56,55.24 L 156.25,55.11 L 155.93,55.03 L 155.60,55.01 L 155.26,55.04 L 154.94,55.13 L 154.64,55.26 L 154.36,55.45 L 154.12,55.68 L 134.87,77.32 L 134.79,77.40 L 134.73,77.49 L 134.66,77.58 L 134.61,77.67 L 134.55,77.77 L 134.50,77.87 L 134.46,77.97 L 134.42,78.07 L 134.39,78.17 L 134.36,78.28 L 134.33,78.39 L 134.32,78.49 L 134.30,78.60 L 134.29,78.71 L 134.29,78.82 L 134.29,78.93 L 164.17,605.80" fill="none" stroke="#999999" stroke-width="1.0285" /><circle cx="136.55646865521845" cy="78.82319451001126" fill="#888" r="1.75" stroke="#444" stroke-width="0.15" /><circle cx="155.62369032345492" cy="57.02143998345514" fill="#654321" r="1.5" stroke="#333" stroke-width="0.15" /><path d="M 162.71,59.97 L 163.00,59.95 L 163.28,59.87 L 163.55,59.75 L 163.80,59.59 L 164.01,59.39 L 164.19,59.16 L 164.33,58.89 L 164.42,58.61 L 164.47,58.32 L 164.46,58.03 L 164.41,57.74 L 164.30,57.46 L 164.16,57.21 L 163.97,56.98 L 163.75,56.78 L 163.50,56.63 L 163.22,56.52 L 162.93,56.46 L 162.64,56.44 L 162.35,56.48 L 162.06,56.56 L 161.80,56.69 L 161.56,56.87 L 161.35,57.07 L 142.32,79.80 L 142.27,79.86 L 142.22,79.93 L 142.18,80.00 L 142.14,80.07 L 142.10,80.14 L 142.06,80.21 L 142.03,80.29 L 142.00,80.37 L 141.98,80.44 L 141.96,80.52 L 141.94,80.60 L 141.93,80.69 L 141.92,80.77 L 141.91,80.85 L 141.91,80.93 L 141.91,81.01 L 169.58,575.15" fill="none" stroke="#FF0000" stroke-width="1.0285" /><circle cx="143.67639600694724" cy="80.92824324996138" fill="#888" r="1.25" stroke="#444" stroke-width="0.15" /><circle cx="162.70511350260352" cy="58.20751019502836" fill="#654321" r="1.25" stroke="#333" stroke-width="0.15" /><path d="M 169.79,60.88 L 170.07,60.85 L 170.35,60.78 L 170.62,60.66 L 170.86,60.51 L 171.07,60.31 L 171.24,60.08 L 171.38,59.82 L 171.47,59.55 L 171.51,59.27 L 171.51,58.98 L 171.46,58.69 L 171.36,58.42 L 171.22,58.17 L 171.04,57.95 L 170.82,57.76 L 170.58,57.60 L 170.31,57.49 L 170.03,57.43 L 169.74,57.41 L 169.46,57.44 L 169.18,57.52 L 168.92,57.64 L 168.68,57.81 L 168.48,58.01 L 149.39,80.10 L 149.34,80.16 L 149.29,80.23 L 149.24,80.30 L 149.20,80.37 L 149.16,80.44 L 149.13,80.52 L 149.09,80.59 L 149.06,80.67 L 149.04,80.75 L 149.02,80.83 L 149.00,80.91 L 148.99,80.99 L 148.98,81.07 L 148.97,81.15 L 148.97,81.24 L 148.97,81.32 L 174.88,542.65" fill="none" stroke="#999999" stroke-width="0.965" /><circle cx="150.70198576481457" cy="81.23322346664918" fill="#888" r="1.25" stroke="#444" stroke-width="0.15" /><circle cx="169.78653668175212" cy="59.143580406601586" fill="#654321" r="1.25" stroke="#333" stroke-width="0.15" /><path d="M 176.87,61.75 L 177.14,61.73 L 177.40,61.66 L 177.65,61.55 L 177.88,61.41 L 178.08,61.23 L 178.25,61.02 L 178.38,60.78 L 178.48,60.53 L 178.53,60.26 L 178.53,59.99 L 178.50,59.72 L 178.42,59.46 L 178.30,59.22 L 178.14,59.00 L 177.95,58.81 L 177.73,58.65 L 177.48,58.53 L 177.22,58.45 L 176.96,58.41 L 176.68,58.42 L 176.42,58.47 L 176.16,58.57 L 175.93,58.70 L 175.72,58.87 L 156.41,77.23 L 156.35,77.30 L 156.29,77.36 L 156.24,77.43 L 156.18,77.51 L 156.14,77.58 L 156.09,77.66 L 156.05,77.74 L 156.02,77.82 L 155.98,77.91 L 155.96,77.99 L 155.94,78.08 L 155.92,78.17 L 155.91,78.25 L 155.90,78.34 L 155.90,78.43 L 155.90,78.52 L 180.16,509.60" fill="none" stroke="#999999" stroke-width="0.838" /><circle cx="157.5652945556567" cy="78.44169836971275" fill="#888" r="1.25" stroke="#444" stroke-width="0.15" /><circle cx="176.86795986090073" cy="60.07965061817481" fill="#654321" r="1.25" stroke="#333" stroke-width="0.15" /><path d="M 183.95,62.68 L 184.22,62.66 L 184.49,62.60 L 184.74,62.49 L 184.97,62.34 L 185.17,62.15 L 185.34,61.94 L 185.47,61.70 L 185.56,61.44 L 185.61,61.17 L 185.61,60.89 L 185.57,60.62 L 185.49,60.36 L 185.36,60.12 L 185.19,59.90 L 184.99,59.71 L 184.77,59.56 L 184.52,59.45 L 184.25,59.37 L 183.98,59.35 L 183.71,59.36 L 183.44,59.43 L 183.19,59.53 L 182.95,59.68 L 182.75,59.86 L 163.51,79.84 L 163.45,79.90 L 163.40,79.96 L 163.34,80.03 L 163.30,80.10 L 163.25,80.18 L 163.21,80.25 L 163.18,80.33 L 163.15,80.41 L 163.12,80.49 L 163.09,80.57 L 163.08,80.65 L 163.06,80.73 L 163.05,80.82 L 163.04,80.90 L 163.04,80.99 L 163.04,81.07 L 185.45,476.85" fill="none" stroke="#0000FF" stroke-width="0.838" /><circle cx="164.7086222593106" cy="80.993252423287" fill="#888" r="1.25" stroke="#444" stroke-width="0.15" /><circle cx="183.94938304004933" cy="61.01572082974815" fill="#654321" r="1.25" stroke="#333" stroke-width="0.15" /><path d="M 191.03,63.59 L 191.29,63.57 L 191.55,63.50 L 191.79,63.40 L 192.02,63.26 L 192.22,63.08 L 192.38,62.88 L 192.51,62.65 L 192.61,62.40 L 192.66,62.14 L 192.67,61.88 L 192.63,61.61 L 192.56,61.36 L 192.44,61.12 L 192.29,60.91 L 192.10,60.72 L 191.89,60.56 L 191.66,60.44 L 191.40,60.36 L 191.14,60.32 L 190.88,60.32 L 190.62,60.37 L 190.37,60.45 L 190.14,60.58 L 189.93,60.74 L 170.54,78.44 L 170.48,78.51 L 170.42,78.57 L 170.36,78.64 L 170.31,78.71 L 170.26,78.79 L 170.21,78.86 L 170.17,78.94 L 170.13,79.03 L 170.10,79.11 L 170.08,79.20 L 170.05,79.28 L 170.03,79.37 L 170.02,79.46 L 170.01,79.55 L 170.01,79.64 L 170.01,79.73 L 190.81,445.25" fill="none" stroke="#999999" stroke-width="0.7745" /><circle cx="171.64792233011315" cy="79.65172732635051" fill="#888" r="1.25" stroke="#444" stroke-width="0.15" /><circle cx="191.03080621919796" cy="61.95179104132137" fill="#654321" r="1.25" stroke="#333" stroke-width="0.15" /><path d="M 198.11,64.53 L 198.38,64.50 L 198.64,64.44 L 198.89,64.33 L 199.11,64.18 L 199.31,64.00 L 199.48,63.79 L 199.61,63.55 L 199.70,63.30 L 199.74,63.04 L 199.74,62.77 L 199.70,62.50 L 199.62,62.25 L 199.49,62.01 L 199.33,61.79 L 199.13,61.61 L 198.91,61.46 L 198.67,61.35 L 198.41,61.28 L 198.14,61.25 L 197.87,61.27 L 197.61,61.33 L 197.36,61.43 L 197.13,61.58 L 196.93,61.76 L 177.65,81.87 L 177.60,81.94 L 177.54,82.00 L 177.49,82.07 L 177.45,82.14 L 177.40,82.21 L 177.37,82.28 L 177.33,82.36 L 177.30,82.43 L 177.27,82.51 L 177.25,82.59 L 177.23,82.67 L 177.22,82.75 L 177.21,82.84 L 177.20,82.92 L 177.20,83.00 L 177.20,83.08 L 196.28,415.85" fill="none" stroke="#999999" stroke-width="0.7745" /><circle cx="178.8333594059457" cy="83.00677606630052" fill="#888" r="1.25" stroke="#444" stroke-width="0.15" /><circle cx="198.11222939834659" cy="62.887861252894595" fill="#654321" r="1.25" stroke="#333" stroke-width="0.15" /><path d="M 205.19,65.39 L 205.44,65.37 L 205.68,65.31 L 205.91,65.22 L 206.12,65.09 L 206.31,64.92 L 206.47,64.73 L 206.60,64.52 L 206.69,64.29 L 206.75,64.05 L 206.76,63.80 L 206.74,63.55 L 206.67,63.31 L 206.57,63.08 L 206.44,62.87 L 206.27,62.69 L 206.08,62.53 L 205.87,62.41 L 205.63,62.32 L 205.39,62.27 L 205.14,62.26 L 204.90,62.28 L 204.66,62.35 L 204.43,62.45 L 204.22,62.59 L 184.67,77.99 L 184.60,78.05 L 184.54,78.12 L 184.47,78.19 L 184.41,78.26 L 184.36,78.33 L 184.31,78.41 L 184.26,78.49 L 184.22,78.57 L 184.18,78.66 L 184.15,78.75 L 184.13,78.84 L 184.11,78.93 L 184.09,79.02 L 184.08,79.11 L 184.08,79.21 L 184.08,79.30 L 201.90,389.35" fill="none" stroke="#999999" stroke-width="0.635" /><circle cx="185.64480268145758" cy="79.2255979819671" fill="#888" r="1.25" stroke="#444" stroke-width="0.15" /><circle cx="205.19365257749513" cy="63.82393146446782" fill="#654321" r="1.25" stroke="#333" stroke-width="0.15" /><path d="M 212.28,66.33 L 212.52,66.31 L 212.77,66.25 L 213.00,66.15 L 213.21,66.02 L 213.40,65.86 L 213.56,65.66 L 213.68,65.45 L 213.77,65.22 L 213.83,64.97 L 213.84,64.72 L 213.82,64.47 L 213.75,64.23 L 213.65,64.01 L 213.51,63.80 L 213.34,63.61 L 213.15,63.46 L 212.93,63.34 L 212.70,63.25 L 212.45,63.20 L 212.20,63.19 L 211.95,63.23 L 211.71,63.30 L 211.49,63.40 L 211.28,63.55 L 191.74,79.53 L 191.67,79.59 L 191.61,79.65 L 191.55,79.72 L 191.49,79.79 L 191.43,79.86 L 191.39,79.94 L 191.34,80.02 L 191.30,80.10 L 191.27,80.19 L 191.24,80.27 L 191.21,80.36 L 191.19,80.45 L 191.18,80.54 L 191.17,80.63 L 191.17,80.72 L 191.17,80.81 L 207.67,365.65" fill="none" stroke="#FF0000" stroke-width="0.635" /><circle cx="192.73382762956925" cy="80.74099373452009" fill="#888" r="1.25" stroke="#444" stroke-width="0.15" /><circle cx="212.27507575664373" cy="64.76000167604116" fill="#654321" r="1.25" stroke="#333" stroke-width="0.15" /><path d="M 219.36,67.26 L 219.61,67.24 L 219.85,67.18 L 220.08,67.09 L 220.29,66.95 L 220.48,66.79 L 220.64,66.60 L 220.77,66.38 L 220.86,66.15 L 220.91,65.90 L 220.92,65.65 L 220.90,65.40 L 220.83,65.16 L 220.73,64.93 L 220.59,64.73 L 220.42,64.54 L 220.22,64.39 L 220.00,64.27 L 219.77,64.18 L 219.52,64.14 L 219.27,64.13 L 219.02,64.16 L 218.78,64.24 L 218.56,64.35 L 218.35,64.49 L 198.81,80.81 L 198.74,80.87 L 198.67,80.93 L 198.61,81.00 L 198.56,81.07 L 198.51,81.14 L 198.46,81.22 L 198.41,81.30 L 198.38,81.38 L 198.34,81.46 L 198.31,81.55 L 198.29,81.63 L 198.27,81.72 L 198.25,81.81 L 198.25,81.90 L 198.24,81.99 L 198.24,82.08 L 213.55,344.25" fill="none" stroke="#999999" stroke-width="0.635" /><circle cx="199.80993378161247" cy="82.00988417344888" fill="#888" r="1.25" stroke="#444" stroke-width="0.15" /><circle cx="219.35649893579236" cy="65.69607188761438" fill="#654321" r="1.25" stroke="#333" stroke-width="0.15" /><path d="M 226.44,68.17 L 226.68,68.15 L 226.92,68.09 L 227.15,67.99 L 227.35,67.86 L 227.54,67.70 L 227.70,67.51 L 227.82,67.30 L 227.91,67.07 L 227.96,66.83 L 227.97,66.59 L 227.95,66.35 L 227.88,66.11 L 227.78,65.89 L 227.64,65.68 L 227.48,65.50 L 227.28,65.35 L 227.07,65.23 L 226.84,65.15 L 226.60,65.10 L 226.35,65.10 L 226.11,65.13 L 225.88,65.20 L 225.66,65.31 L 225.46,65.45 L 205.89,81.75 L 205.82,81.81 L 205.76,81.87 L 205.70,81.94 L 205.64,82.01 L 205.59,82.08 L 205.54,82.16 L 205.50,82.23 L 205.46,82.31 L 205.43,82.39 L 205.40,82.48 L 205.38,82.56 L 205.36,82.65 L 205.34,82.74 L 205.34,82.83 L 205.33,82.91 L 205.33,83.00 L 219.55,325.00" fill="none" stroke="#999999" stroke-width="0.5715" /><circle cx="206.86787676850685" cy="82.93220077549131" fill="#888" r="1.25" stroke="#444" stroke-width="0.15" /><circle cx="226.43792211494096" cy="66.6321420991876" fill="#654321" r="1.25" stroke="#333" stroke-width="0.15" /><path d="M 233.52,69.10 L 233.76,69.08 L 234.00,69.03 L 234.22,68.93 L 234.43,68.80 L 234.61,68.64 L 234.77,68.46 L 234.90,68.25 L 234.99,68.02 L 235.04,67.78 L 235.05,67.54 L 235.03,67.30 L 234.97,67.06 L 234.87,66.84 L 234.74,66.64 L 234.58,66.45 L 234.39,66.30 L 234.18,66.18 L 233.95,66.09 L 233.71,66.04 L 233.47,66.03 L 233.22,66.06 L 232.99,66.13 L 232.77,66.23 L 232.57,66.36 L 212.93,81.90 L 212.86,81.96 L 212.80,82.02 L 212.74,82.09 L 212.68,82.16 L 212.62,82.23 L 212.57,82.31 L 212.53,82.39 L 212.49,82.47 L 212.45,82.55 L 212.42,82.64 L 212.40,82.73 L 212.38,82.82 L 212.36,82.91 L 212.36,83.00 L 212.35,83.09 L 212.35,83.18 L 225.65,307.50" fill="none" stroke="#0000FF" stroke-width="0.5715" /><circle cx="213.88669347853917" cy="83.10794354064728" fill="#888" r="1.25" stroke="#444" stroke-width="0.15" /><circle cx="233.51934529408956" cy="67.56821231076083" fill="#654321" r="1.25" stroke="#333" stroke-width="0.15" /><path d="M 240.60,70.04 L 240.84,70.02 L 241.08,69.96 L 241.31,69.87 L 241.52,69.74 L 241.70,69.58 L 241.86,69.39 L 241.98,69.18 L 242.07,68.95 L 242.12,68.71 L 242.14,68.46 L 242.11,68.22 L 242.05,67.98 L 241.94,67.76 L 241.81,67.56 L 241.64,67.38 L 241.45,67.23 L 241.24,67.11 L 241.01,67.02 L 240.77,66.98 L 240.52,66.97 L 240.28,67.00 L 240.04,67.07 L 239.82,67.18 L 239.62,67.32 L 220.00,83.55 L 219.94,83.61 L 219.87,83.67 L 219.81,83.74 L 219.76,83.81 L 219.71,83.88 L 219.66,83.95 L 219.62,84.03 L 219.58,84.11 L 219.54,84.19 L 219.52,84.28 L 219.49,84.36 L 219.47,84.45 L 219.46,84.54 L 219.45,84.63 L 219.45,84.71 L 219.45,84.80 L 231.82,291.50" fill="none" stroke="#999999" stroke-width="0.5715" /><circle cx="220.9815050596839" cy="84.73375482906545" fill="#888" r="1.25" stroke="#444" stroke-width="0.15" /><circle cx="240.60076847323816" cy="68.50428252233405" fill="#654321" r="1.25" stroke="#333" stroke-width="0.15" /><path d="M 247.68,70.94 L 247.92,70.93 L 248.15,70.87 L 248.37,70.78 L 248.58,70.65 L 248.76,70.49 L 248.91,70.31 L 249.03,70.11 L 249.12,69.88 L 249.17,69.65 L 249.19,69.41 L 249.16,69.17 L 249.10,68.94 L 249.01,68.73 L 248.88,68.53 L 248.72,68.35 L 248.53,68.20 L 248.32,68.08 L 248.10,68.00 L 247.87,67.95 L 247.63,67.94 L 247.39,67.97 L 247.16,68.03 L 246.94,68.13 L 246.74,68.26 L 227.07,83.94 L 227.01,83.99 L 226.94,84.06 L 226.88,84.12 L 226.83,84.19 L 226.77,84.26 L 226.72,84.33 L 226.68,84.41 L 226.64,84.49 L 226.61,84.57 L 226.58,84.66 L 226.55,84.74 L 226.53,84.83 L 226.52,84.91 L 226.51,85.00 L 226.51,85.09 L 226.51,85.18 L 238.05,276.75" fill="none" stroke="#999999" stroke-width="0.508" /><circle cx="228.0109864743251" cy="85.11299228059727" fill="#888" r="1.25" stroke="#444" stroke-width="0.15" /><circle cx="247.68219165238676" cy="69.44035273390739" fill="#654321" r="1.25" stroke="#333" stroke-width="0.15" /><path d="M 254.76,71.88 L 255.00,71.86 L 255.24,71.80 L 255.46,71.71 L 255.66,71.58 L 255.84,71.43 L 255.99,71.24 L 256.12,71.04 L 256.20,70.81 L 256.25,70.58 L 256.27,70.34 L 256.24,70.10 L 256.18,69.87 L 256.08,69.65 L 255.95,69.45 L 255.79,69.27 L 255.60,69.13 L 255.39,69.01 L 255.16,68.93 L 254.93,68.88 L 254.69,68.87 L 254.45,68.91 L 254.22,68.97 L 254.01,69.08 L 253.81,69.21 L 234.14,85.38 L 234.07,85.44 L 234.01,85.50 L 233.95,85.56 L 233.90,85.63 L 233.85,85.70 L 233.80,85.78 L 233.76,85.85 L 233.72,85.93 L 233.69,86.01 L 233.66,86.09 L 233.64,86.18 L 233.62,86.26 L 233.60,86.35 L 233.60,86.43 L 233.59,86.52 L 233.59,86.61 L 244.35,263.05" fill="none" stroke="#999999" stroke-width="0.508" /><circle cx="235.0954960572135" cy="86.54222973212904" fill="#888" r="1.25" stroke="#444" stroke-width="0.15" /><circle cx="254.76361483153542" cy="70.37642294548061" fill="#654321" r="1.25" stroke="#333" stroke-width="0.15" /><path d="M 261.85,72.82 L 262.04,72.80 L 262.23,72.75 L 262.42,72.68 L 262.58,72.57 L 262.73,72.45 L 262.86,72.30 L 262.97,72.13 L 263.04,71.94 L 263.08,71.75 L 263.10,71.55 L 263.08,71.36 L 263.03,71.16 L 262.96,70.98 L 262.85,70.82 L 262.72,70.67 L 262.57,70.54 L 262.40,70.44 L 262.22,70.37 L 262.02,70.32 L 261.83,70.31 L 261.63,70.33 L 261.44,70.38 L 261.26,70.45 L 261.09,70.56 L 241.34,85.42 L 241.29,85.47 L 241.23,85.52 L 241.18,85.58 L 241.13,85.63 L 241.08,85.69 L 241.04,85.76 L 241.00,85.82 L 240.96,85.89 L 240.93,85.96 L 240.91,86.03 L 240.89,86.10 L 240.87,86.18 L 240.86,86.25 L 240.85,86.33 L 240.85,86.40 L 240.85,86.48 L 250.69,250.30" fill="none" stroke="#FF0000" stroke-width="0.508" /><circle cx="242.09895313981337" cy="86.42489334677441" fill="#888" r="1.0" stroke="#444" stroke-width="0.15" /><circle cx="261.845038010684" cy="71.56249315705384" fill="#654321" r="1.0" stroke="#333" stroke-width="0.15" /><path d="M 268.93,73.73 L 269.12,73.71 L 269.31,73.67 L 269.49,73.59 L 269.65,73.49 L 269.80,73.37 L 269.92,73.22 L 270.02,73.05 L 270.10,72.87 L 270.14,72.69 L 270.15,72.49 L 270.14,72.30 L 270.09,72.11 L 270.02,71.93 L 269.92,71.77 L 269.79,71.62 L 269.64,71.50 L 269.48,71.40 L 269.30,71.33 L 269.11,71.28 L 268.92,71.27 L 268.72,71.29 L 268.53,71.33 L 268.36,71.41 L 268.19,71.51 L 248.42,86.22 L 248.36,86.27 L 248.30,86.32 L 248.25,86.37 L 248.20,86.43 L 248.15,86.49 L 248.11,86.55 L 248.07,86.61 L 248.04,86.68 L 248.01,86.75 L 247.98,86.82 L 247.96,86.89 L 247.95,86.96 L 247.93,87.04 L 247.92,87.11 L 247.92,87.19 L 247.92,87.26 L 257.08,238.50" fill="none" stroke="#999999" stroke-width="0.457" /><circle cx="249.14958081492003" cy="87.20762548468201" fill="#888" r="1.0" stroke="#444" stroke-width="0.15" /><circle cx="268.9264611898326" cy="72.49856336862706" fill="#654321" r="1.0" stroke="#333" stroke-width="0.15" /><path d="M 276.01,74.66 L 276.20,74.65 L 276.39,74.60 L 276.57,74.53 L 276.74,74.42 L 276.88,74.30 L 277.01,74.15 L 277.11,73.98 L 277.18,73.80 L 277.22,73.61 L 277.24,73.42 L 277.22,73.22 L 277.17,73.03 L 277.09,72.86 L 276.99,72.69 L 276.86,72.55 L 276.71,72.42 L 276.54,72.33 L 276.36,72.26 L 276.17,72.22 L 275.97,72.21 L 275.78,72.23 L 275.59,72.28 L 275.41,72.36 L 275.25,72.47 L 255.49,87.92 L 255.43,87.97 L 255.38,88.02 L 255.33,88.07 L 255.28,88.13 L 255.24,88.19 L 255.20,88.25 L 255.16,88.31 L 255.13,88.38 L 255.10,88.44 L 255.08,88.51 L 255.06,88.58 L 255.04,88.65 L 255.03,88.73 L 255.02,88.80 L 255.02,88.87 L 255.02,88.94 L 263.51,227.55" fill="none" stroke="#999999" stroke-width="0.457" /><circle cx="256.2473719002294" cy="88.89028909932745" fill="#888" r="1.0" stroke="#444" stroke-width="0.15" /><circle cx="276.0078843689812" cy="73.4346335802004" fill="#654321" r="1.0" stroke="#333" stroke-width="0.15" /><path d="M 283.09,75.60 L 283.28,75.58 L 283.46,75.54 L 283.63,75.47 L 283.80,75.38 L 283.94,75.26 L 284.07,75.12 L 284.17,74.96 L 284.25,74.79 L 284.30,74.60 L 284.32,74.42 L 284.31,74.23 L 284.27,74.04 L 284.21,73.87 L 284.12,73.70 L 284.01,73.55 L 283.87,73.42 L 283.72,73.31 L 283.55,73.23 L 283.37,73.17 L 283.18,73.15 L 282.99,73.15 L 282.81,73.17 L 282.63,73.23 L 282.46,73.32 L 262.49,85.22 L 262.42,85.27 L 262.36,85.32 L 262.29,85.37 L 262.23,85.43 L 262.18,85.49 L 262.13,85.56 L 262.08,85.63 L 262.04,85.70 L 262.00,85.77 L 261.97,85.85 L 261.94,85.92 L 261.92,86.00 L 261.91,86.09 L 261.90,86.17 L 261.89,86.25 L 261.89,86.33 L 269.99,217.40" fill="none" stroke="#0000FF" stroke-width="0.457" /><circle cx="263.1201758321262" cy="86.27994208672442" fill="#888" r="1.0" stroke="#444" stroke-width="0.15" /><circle cx="283.0893075481298" cy="74.37070379177362" fill="#654321" r="1.0" stroke="#333" stroke-width="0.15" /><path d="M 290.17,76.54 L 290.36,76.52 L 290.55,76.48 L 290.73,76.40 L 290.89,76.30 L 291.04,76.18 L 291.16,76.03 L 291.26,75.87 L 291.34,75.69 L 291.38,75.50 L 291.40,75.31 L 291.38,75.12 L 291.34,74.93 L 291.27,74.75 L 291.17,74.59 L 291.04,74.44 L 290.90,74.32 L 290.73,74.22 L 290.56,74.14 L 290.37,74.09 L 290.18,74.08 L 289.99,74.09 L 289.80,74.14 L 289.62,74.21 L 289.46,74.31 L 269.58,88.51 L 269.52,88.56 L 269.47,88.61 L 269.41,88.66 L 269.36,88.72 L 269.31,88.78 L 269.27,88.84 L 269.23,88.91 L 269.20,88.97 L 269.16,89.04 L 269.14,89.11 L 269.11,89.19 L 269.10,89.26 L 269.08,89.34 L 269.07,89.41 L 269.07,89.49 L 269.07,89.56 L 276.51,208.00" fill="none" stroke="#999999" stroke-width="0.457" /><circle cx="270.2991989753243" cy="89.51260570136981" fill="#888" r="1.0" stroke="#444" stroke-width="0.15" /><circle cx="290.1707307272784" cy="75.30677400334685" fill="#654321" r="1.0" stroke="#333" stroke-width="0.15" /><path d="M 297.25,77.45 L 297.44,77.43 L 297.62,77.39 L 297.79,77.32 L 297.95,77.23 L 298.09,77.11 L 298.21,76.97 L 298.31,76.81 L 298.39,76.65 L 298.43,76.47 L 298.45,76.28 L 298.45,76.10 L 298.41,75.92 L 298.35,75.74 L 298.26,75.58 L 298.15,75.44 L 298.01,75.31 L 297.86,75.20 L 297.69,75.12 L 297.52,75.07 L 297.33,75.04 L 297.15,75.04 L 296.97,75.07 L 296.79,75.13 L 296.63,75.21 L 276.63,87.37 L 276.56,87.42 L 276.49,87.47 L 276.43,87.52 L 276.38,87.58 L 276.32,87.64 L 276.27,87.70 L 276.23,87.76 L 276.19,87.83 L 276.15,87.91 L 276.12,87.98 L 276.10,88.06 L 276.08,88.13 L 276.06,88.21 L 276.05,88.29 L 276.05,88.37 L 276.05,88.45 L 283.07,199.35" fill="none" stroke="#999999" stroke-width="0.4065" /><circle cx="277.2506145761457" cy="88.40225868876689" fill="#888" r="1.0" stroke="#444" stroke-width="0.15" /><circle cx="297.252153906427" cy="76.24284421492007" fill="#654321" r="1.0" stroke="#333" stroke-width="0.15" /><path d="M 304.33,78.38 L 304.52,78.37 L 304.69,78.33 L 304.86,78.26 L 305.02,78.17 L 305.16,78.05 L 305.28,77.92 L 305.38,77.77 L 305.46,77.60 L 305.51,77.43 L 305.53,77.25 L 305.53,77.07 L 305.50,76.89 L 305.44,76.71 L 305.36,76.55 L 305.25,76.40 L 305.13,76.27 L 304.98,76.16 L 304.82,76.08 L 304.65,76.02 L 304.47,75.98 L 304.29,75.98 L 304.11,76.00 L 303.93,76.04 L 303.77,76.12 L 283.67,86.88 L 283.60,86.92 L 283.53,86.97 L 283.46,87.02 L 283.40,87.08 L 283.34,87.14 L 283.28,87.20 L 283.24,87.27 L 283.19,87.34 L 283.15,87.42 L 283.12,87.50 L 283.09,87.58 L 283.07,87.66 L 283.05,87.74 L 283.04,87.82 L 283.03,87.91 L 283.03,87.99 L 289.65,191.30" fill="none" stroke="#999999" stroke-width="0.4065" /><circle cx="284.23609164234904" cy="87.94184315290158" fill="#888" r="1.0" stroke="#444" stroke-width="0.15" /><circle cx="304.3335770855756" cy="77.1789144264933" fill="#654321" r="1.0" stroke="#333" stroke-width="0.15" /><path d="M 311.42,79.32 L 311.59,79.30 L 311.77,79.26 L 311.94,79.20 L 312.09,79.11 L 312.24,79.00 L 312.36,78.86 L 312.46,78.71 L 312.54,78.55 L 312.59,78.38 L 312.62,78.20 L 312.61,78.02 L 312.59,77.84 L 312.53,77.67 L 312.45,77.51 L 312.35,77.36 L 312.23,77.23 L 312.09,77.12 L 311.93,77.03 L 311.76,76.96 L 311.58,76.92 L 311.40,76.91 L 311.22,76.93 L 311.05,76.97 L 310.88,77.04 L 290.72,87.00 L 290.64,87.04 L 290.57,87.09 L 290.50,87.14 L 290.44,87.20 L 290.37,87.26 L 290.32,87.33 L 290.27,87.39 L 290.22,87.47 L 290.18,87.54 L 290.14,87.62 L 290.11,87.70 L 290.09,87.79 L 290.07,87.87 L 290.06,87.96 L 290.05,88.04 L 290.05,88.13 L 296.27,183.90" fill="none" stroke="#FF0000" stroke-width="0.4065" /><circle cx="291.2530169672742" cy="88.08149614029867" fill="#888" r="1.0" stroke="#444" stroke-width="0.15" /><circle cx="311.4150002647242" cy="78.11498463806663" fill="#654321" r="1.0" stroke="#333" stroke-width="0.15" /><path d="M 318.50,80.24 L 318.67,80.23 L 318.85,80.19 L 319.01,80.12 L 319.17,80.03 L 319.31,79.92 L 319.43,79.79 L 319.53,79.65 L 319.60,79.49 L 319.66,79.32 L 319.68,79.14 L 319.68,78.96 L 319.66,78.79 L 319.60,78.62 L 319.53,78.46 L 319.43,78.31 L 319.31,78.18 L 319.17,78.07 L 319.01,77.98 L 318.85,77.91 L 318.67,77.87 L 318.50,77.86 L 318.32,77.87 L 318.15,77.91 L 317.98,77.98 L 297.78,87.70 L 297.71,87.74 L 297.63,87.78 L 297.56,87.84 L 297.50,87.89 L 297.44,87.95 L 297.38,88.02 L 297.33,88.08 L 297.28,88.16 L 297.24,88.23 L 297.20,88.31 L 297.17,88.39 L 297.15,88.47 L 297.13,88.56 L 297.11,88.64 L 297.11,88.73 L 297.11,88.82 L 302.92,177.00" fill="none" stroke="#999999" stroke-width="0.381" /><circle cx="298.298762979653" cy="88.77108060443345" fill="#888" r="1.0" stroke="#444" stroke-width="0.15" /><circle cx="318.4964234438728" cy="79.05105484963985" fill="#654321" r="1.0" stroke="#333" stroke-width="0.15" /><path d="M 325.58,81.16 L 325.75,81.15 L 325.93,81.11 L 326.09,81.05 L 326.24,80.96 L 326.38,80.85 L 326.50,80.72 L 326.60,80.57 L 326.68,80.41 L 326.73,80.25 L 326.75,80.07 L 326.75,79.89 L 326.73,79.72 L 326.67,79.55 L 326.60,79.39 L 326.50,79.25 L 326.37,79.12 L 326.24,79.01 L 326.08,78.92 L 325.92,78.86 L 325.75,78.82 L 325.57,78.81 L 325.39,78.82 L 325.22,78.86 L 325.06,78.93 L 304.85,88.85 L 304.77,88.89 L 304.70,88.94 L 304.63,88.99 L 304.57,89.04 L 304.51,89.10 L 304.45,89.17 L 304.40,89.24 L 304.36,89.31 L 304.32,89.38 L 304.28,89.46 L 304.25,89.54 L 304.23,89.62 L 304.21,89.70 L 304.20,89.79 L 304.19,89.87 L 304.19,89.96 L 309.60,170.60" fill="none" stroke="#999999" stroke-width="0.3555" /><circle cx="305.36809608386125" cy="89.91073359183042" fill="#888" r="1.0" stroke="#444" stroke-width="0.15" /><circle cx="325.5778466230215" cy="79.98712506121308" fill="#654321" r="1.0" stroke="#333" stroke-width="0.15" /><path d="M 332.66,82.10 L 332.84,82.09 L 333.01,82.05 L 333.17,81.98 L 333.33,81.89 L 333.47,81.78 L 333.59,81.65 L 333.68,81.50 L 333.76,81.34 L 333.81,81.17 L 333.83,80.99 L 333.83,80.82 L 333.80,80.64 L 333.75,80.47 L 333.67,80.31 L 333.56,80.17 L 333.44,80.04 L 333.30,79.93 L 333.14,79.85 L 332.98,79.79 L 332.80,79.75 L 332.62,79.75 L 332.45,79.76 L 332.28,79.81 L 332.11,79.88 L 311.91,90.46 L 311.84,90.50 L 311.77,90.54 L 311.71,90.59 L 311.65,90.65 L 311.59,90.71 L 311.54,90.77 L 311.49,90.84 L 311.44,90.91 L 311.40,90.98 L 311.37,91.06 L 311.34,91.14 L 311.32,91.21 L 311.30,91.30 L 311.29,91.38 L 311.28,91.46 L 311.28,91.54 L 316.29,164.60" fill="none" stroke="#0000FF" stroke-width="0.3555" /><circle cx="312.4610090975948" cy="91.50031805596518" fill="#888" r="1.0" stroke="#444" stroke-width="0.15" /><circle cx="332.6592698021701" cy="80.9231952727863" fill="#654321" r="1.0" stroke="#333" stroke-width="0.15" /><path d="M 339.74,83.04 L 339.92,83.02 L 340.09,82.98 L 340.26,82.92 L 340.42,82.82 L 340.55,82.71 L 340.67,82.58 L 340.77,82.43 L 340.85,82.26 L 340.90,82.09 L 340.92,81.91 L 340.91,81.73 L 340.88,81.56 L 340.82,81.39 L 340.73,81.23 L 340.63,81.08 L 340.50,80.96 L 340.35,80.85 L 340.19,80.77 L 340.02,80.72 L 339.85,80.69 L 339.67,80.68 L 339.49,80.71 L 339.32,80.76 L 339.15,80.84 L 318.99,92.42 L 318.92,92.46 L 318.85,92.51 L 318.79,92.56 L 318.73,92.61 L 318.68,92.67 L 318.63,92.73 L 318.58,92.80 L 318.54,92.87 L 318.51,92.94 L 318.48,93.01 L 318.45,93.09 L 318.43,93.16 L 318.41,93.24 L 318.40,93.32 L 318.40,93.40 L 318.40,93.48 L 323.01,159.00" fill="none" stroke="#999999" stroke-width="0.3555" /><circle cx="319.5722684252295" cy="93.43997104336222" fill="#888" r="1.0" stroke="#444" stroke-width="0.15" /><circle cx="339.7406929813186" cy="81.85926548435964" fill="#654321" r="1.0" stroke="#333" stroke-width="0.15" /><path d="M 346.82,83.95 L 347.00,83.94 L 347.17,83.90 L 347.33,83.84 L 347.48,83.75 L 347.61,83.64 L 347.73,83.51 L 347.83,83.37 L 347.90,83.21 L 347.95,83.04 L 347.98,82.87 L 347.98,82.70 L 347.95,82.52 L 347.89,82.36 L 347.82,82.20 L 347.72,82.06 L 347.60,81.93 L 347.46,81.83 L 347.31,81.74 L 347.14,81.68 L 346.97,81.65 L 346.80,81.64 L 346.62,81.65 L 346.45,81.70 L 346.29,81.76 L 326.04,92.15 L 325.97,92.19 L 325.90,92.24 L 325.83,92.29 L 325.77,92.34 L 325.72,92.40 L 325.66,92.46 L 325.61,92.53 L 325.57,92.60 L 325.53,92.67 L 325.50,92.74 L 325.47,92.82 L 325.45,92.90 L 325.43,92.98 L 325.42,93.06 L 325.41,93.14 L 325.41,93.22 L 329.74,153.70" fill="none" stroke="#999999" stroke-width="0.3175" /><circle cx="326.56841019604167" cy="93.18305019387287" fill="#888" r="1.0" stroke="#444" stroke-width="0.15" /><circle cx="346.8221161604672" cy="82.79533569593286" fill="#654321" r="1.0" stroke="#333" stroke-width="0.15" /><path d="M 353.90,84.89 L 354.08,84.88 L 354.24,84.84 L 354.40,84.78 L 354.55,84.69 L 354.69,84.58 L 354.81,84.46 L 354.90,84.31 L 354.98,84.16 L 355.03,84.00 L 355.06,83.82 L 355.06,83.65 L 355.03,83.48 L 354.99,83.32 L 354.91,83.16 L 354.82,83.02 L 354.70,82.89 L 354.57,82.78 L 354.42,82.69 L 354.26,82.63 L 354.09,82.59 L 353.92,82.57 L 353.75,82.58 L 353.58,82.62 L 353.42,82.68 L 333.09,92.13 L 333.01,92.16 L 332.94,92.21 L 332.87,92.26 L 332.81,92.31 L 332.75,92.37 L 332.69,92.43 L 332.64,92.50 L 332.59,92.57 L 332.55,92.64 L 332.51,92.72 L 332.48,92.80 L 332.46,92.88 L 332.44,92.96 L 332.43,93.04 L 332.42,93.13 L 332.42,93.21 L 336.48,148.65" fill="none" stroke="#999999" stroke-width="0.3175" /><circle cx="333.57765391167464" cy="93.17612934438341" fill="#888" r="1.0" stroke="#444" stroke-width="0.15" /><circle cx="353.9035393396158" cy="83.73140590750609" fill="#654321" r="1.0" stroke="#333" stroke-width="0.15" /><path d="M 360.98,85.83 L 361.16,85.81 L 361.32,85.78 L 361.48,85.71 L 361.63,85.63 L 361.77,85.52 L 361.88,85.40 L 361.98,85.26 L 362.06,85.11 L 362.11,84.94 L 362.14,84.78 L 362.14,84.60 L 362.12,84.44 L 362.07,84.27 L 362.00,84.11 L 361.91,83.97 L 361.80,83.84 L 361.67,83.73 L 361.52,83.64 L 361.37,83.57 L 361.20,83.53 L 361.03,83.51 L 360.86,83.52 L 360.69,83.55 L 360.53,83.60 L 340.14,92.30 L 340.06,92.34 L 339.99,92.38 L 339.92,92.43 L 339.85,92.48 L 339.78,92.54 L 339.73,92.61 L 339.67,92.67 L 339.62,92.74 L 339.58,92.82 L 339.54,92.90 L 339.51,92.98 L 339.48,93.06 L 339.46,93.14 L 339.45,93.23 L 339.44,93.32 L 339.44,93.40 L 343.24,143.80" fill="none" stroke="#FF0000" stroke-width="0.3175" /><circle cx="340.59737918316415" cy="93.369208494894" fill="#888" r="1.0" stroke="#444" stroke-width="0.15" /><circle cx="360.9849625187644" cy="84.66747611907931" fill="#654321" r="1.0" stroke="#333" stroke-width="0.15" /><path d="M 368.07,86.76 L 368.24,86.75 L 368.40,86.71 L 368.56,86.65 L 368.71,86.57 L 368.84,86.46 L 368.96,86.34 L 369.06,86.20 L 369.14,86.05 L 369.19,85.89 L 369.22,85.72 L 369.22,85.55 L 369.20,85.38 L 369.16,85.22 L 369.09,85.07 L 369.00,84.92 L 368.89,84.79 L 368.77,84.68 L 368.62,84.59 L 368.47,84.52 L 368.30,84.47 L 368.14,84.45 L 367.97,84.45 L 367.80,84.48 L 367.64,84.53 L 347.20,92.69 L 347.12,92.72 L 347.04,92.76 L 346.97,92.81 L 346.90,92.86 L 346.83,92.92 L 346.77,92.99 L 346.71,93.05 L 346.66,93.13 L 346.61,93.20 L 346.57,93.28 L 346.54,93.36 L 346.51,93.44 L 346.49,93.53 L 346.48,93.62 L 346.47,93.71 L 346.47,93.79 L 350.01,139.15" fill="none" stroke="#999999" stroke-width="0.3175" /><circle cx="347.6275860105103" cy="93.76228764540463" fill="#888" r="1.0" stroke="#444" stroke-width="0.15" /><circle cx="368.0663856979131" cy="85.60354633065253" fill="#654321" r="1.0" stroke="#333" stroke-width="0.15" /><path d="M 375.15,87.70 L 375.32,87.69 L 375.48,87.65 L 375.64,87.59 L 375.79,87.51 L 375.92,87.40 L 376.04,87.28 L 376.14,87.15 L 376.21,87.00 L 376.27,86.84 L 376.30,86.67 L 376.31,86.50 L 376.29,86.33 L 376.25,86.17 L 376.18,86.01 L 376.09,85.87 L 375.99,85.74 L 375.86,85.63 L 375.72,85.53 L 375.57,85.46 L 375.41,85.41 L 375.24,85.38 L 375.07,85.38 L 374.90,85.41 L 374.74,85.45 L 354.25,93.12 L 354.17,93.15 L 354.09,93.20 L 354.02,93.24 L 353.94,93.30 L 353.88,93.35 L 353.81,93.42 L 353.75,93.48 L 353.70,93.56 L 353.65,93.63 L 353.61,93.71 L 353.58,93.79 L 353.55,93.88 L 353.53,93.97 L 353.51,94.05 L 353.50,94.14 L 353.50,94.23 L 356.77,134.55" fill="none" stroke="#999999" stroke-width="0.3175" /><circle cx="354.66041322682065" cy="94.20536679591521" fill="#888" r="1.0" stroke="#444" stroke-width="0.15" /><circle cx="375.1478088770617" cy="86.53961654222587" fill="#654321" r="1.0" stroke="#333" stroke-width="0.15" /><path d="M 382.23,88.63 L 382.40,88.62 L 382.56,88.59 L 382.72,88.53 L 382.86,88.44 L 383.00,88.34 L 383.12,88.22 L 383.21,88.09 L 383.29,87.94 L 383.35,87.78 L 383.38,87.61 L 383.39,87.45 L 383.37,87.28 L 383.33,87.12 L 383.27,86.96 L 383.18,86.82 L 383.08,86.69 L 382.95,86.57 L 382.82,86.48 L 382.66,86.40 L 382.50,86.35 L 382.34,86.32 L 382.17,86.32 L 382.00,86.34 L 381.84,86.38 L 361.31,93.66 L 361.23,93.69 L 361.15,93.73 L 361.07,93.78 L 360.99,93.83 L 360.92,93.89 L 360.86,93.95 L 360.80,94.02 L 360.75,94.09 L 360.70,94.17 L 360.65,94.25 L 360.62,94.33 L 360.59,94.41 L 360.57,94.50 L 360.55,94.59 L 360.54,94.68 L 360.54,94.77 L 363.55,130.05" fill="none" stroke="#0000FF" stroke-width="0.3175" /><circle cx="361.6984812210593" cy="94.74844594642582" fill="#888" r="1.0" stroke="#444" stroke-width="0.15" /><circle cx="382.2292320562103" cy="87.4756867537991" fill="#654321" r="1.0" stroke="#333" stroke-width="0.15" /><path d="M 389.31,89.57 L 389.48,89.56 L 389.64,89.52 L 389.80,89.46 L 389.94,89.38 L 390.08,89.28 L 390.19,89.16 L 390.29,89.03 L 390.37,88.88 L 390.43,88.72 L 390.46,88.56 L 390.47,88.39 L 390.45,88.23 L 390.42,88.06 L 390.35,87.91 L 390.27,87.76 L 390.17,87.63 L 390.05,87.52 L 389.91,87.42 L 389.76,87.34 L 389.60,87.29 L 389.44,87.26 L 389.27,87.25 L 389.11,87.27 L 388.95,87.31 L 368.37,94.14 L 368.28,94.17 L 368.20,94.21 L 368.12,94.26 L 368.05,94.31 L 367.97,94.37 L 367.91,94.43 L 367.85,94.50 L 367.79,94.57 L 367.74,94.65 L 367.70,94.73 L 367.66,94.81 L 367.63,94.90 L 367.60,94.99 L 367.59,95.08 L 367.58,95.17 L 367.58,95.26 L 370.32,125.50" fill="none" stroke="#999999" stroke-width="0.3175" /><circle cx="368.7339288263338" cy="95.24152509693636" fill="#888" r="1.0" stroke="#444" stroke-width="0.15" /><circle cx="389.3106552353589" cy="88.41175696537232" fill="#654321" r="1.0" stroke="#333" stroke-width="0.15" /></svg>