<?xml version="1.0" encoding="UTF-8"?>
<svg xmlns="http://www.w3.org/2000/svg"
     width="297mm" height="420mm"
     viewBox="0 0 297 420">
  <!-- Flip Y axis: origin at lower-left -->
  <g transform="translate(0,420) scale(1,-1)">

    <!-- Grid -->
    <line x1="1.0" y1="0" x2="1.0" y2="420" stroke="#b0d8b0" stroke-width="0.0625"/>
    <line x1="2.0" y1="0" x2="2.0" y2="420" stroke="#b0d8b0" stroke-width="0.0625"/>
    <line x1="3.0" y1="0" x2="3.0" y2="420" stroke="#b0d8b0" stroke-width="0.0625"/>
    <line x1="4.0" y1="0" x2="4.0" y2="420" stroke="#b0d8b0" stroke-width="0.0625"/>
    <line x1="5.0" y1="0" x2="5.0" y2="420" stroke="#b0d8b0" stroke-width="0.0625"/>
    <line x1="6.0" y1="0" x2="6.0" y2="420" stroke="#b0d8b0" stroke-width="0.0625"/>
    <line x1="7.0" y1="0" x2="7.0" y2="420" stroke="#b0d8b0" stroke-width="0.0625"/>
    <line x1="8.0" y1="0" x2="8.0" y2="420" stroke="#b0d8b0" stroke-width="0.0625"/>
    <line x1="9.0" y1="0" x2="9.0" y2="420" stroke="#b0d8b0" stroke-width="0.0625"/>
    <line x1="11.0" y1="0" x2="11.0" y2="420" stroke="#b0d8b0" stroke-width="0.0625"/>
    <line x1="12.0" y1="0" x2="12.0" y2="420" stroke="#b0d8b0" stroke-width="0.0625"/>
    <line x1="13.0" y1="0" x2="13.0" y2="420" stroke="#b0d8b0" stroke-width="0.0625"/>
    <line x1="14.0" y1="0" x2="14.0" y2="420" stroke="#b0d8b0" stroke-width="0.0625"/>
    <line x1="15.0" y1="0" x2="15.0" y2="420" stroke="#b0d8b0" stroke-width="0.0625"/>
    <line x1="16.0" y1="0" x2="16.0" y2="420" stroke="#b0d8b0" stroke-width="0.0625"/>
    <line x1="17.0" y1="0" x2="17.0" y2="420" stroke="#b0d8b0" stroke-width="0.0625"/>
    <line x1="18.0" y1="0" x2="18.0" y2="420" stroke="#b0d8b0" stroke-width="0.0625"/>
    <line x1="19.0" y1="0" x2="19.0" y2="420" stroke="#b0d8b0" stroke-width="0.0625"/>
    <line x1="21.0" y1="0" x2="21.0" y2="420" stroke="#b0d8b0" stroke-width="0.0625"/>
    <line x1="22.0" y1="0" x2="22.0" y2="420" stroke="#b0d8b0" stroke-width="0.0625"/>
    <line x1="23.0" y1="0" x2="23.0" y2="420" stroke="#b0d8b0" stroke-width="0.0625"/>
    <line x1="24.0" y1="0" x2="24.0" y2="420" stroke="#b0d8b0" stroke-width="0.0625"/>
    <line x1="25.0" y1="0" x2="25.0" y2="420" stroke="#b0d8b0" stroke-width="0.0625"/>
    <line x1="26.0" y1="0" x2="26.0" y2="420" stroke="#b0d8b0" stroke-width="0.0625"/>
    <line x1="27.0" y1="0" x2="27.0" y2="420" stroke="#b0d8b0" stroke-width="0.0625"/>
    <line x1="28.0" y1="0" x2="28.0" y2="420" stroke="#b0d8b0" stroke-width="0.0625"/>
    <line x1="29.0" y1="0" x2="29.0" y2="420" stroke="#b0d8b0" stroke-width="0.0625"/>
    <line x1="31.0" y1="0" x2="31.0" y2="420" stroke="#b0d8b0" stroke-width="0.0625"/>
    <line x1="32.0" y1="0" x2="32.0" y2="420" stroke="#b0d8b0" stroke-width="0.0625"/>
    <line x1="33.0" y1="0" x2="33.0" y2="420" stroke="#b0d8b0" stroke-width="0.0625"/>
    <line x1="34.0" y1="0" x2="34.0" y2="420" stroke="#b0d8b0" stroke-width="0.0625"/>
    <line x1="35.0" y1="0" x2="35.0" y2="420" stroke="#b0d8b0" stroke-width="0.0625"/>
    <line x1="36.0" y1="0" x2="36.0" y2="420" stroke="#b0d8b0" stroke-width="0.0625"/>
    <line x1="37.0" y1="0" x2="37.0" y2="420" stroke="#b0d8b0" stroke-width="0.0625"/>
    <line x1="38.0" y1="0" x2="38.0" y2="420" stroke="#b0d8b0" stroke-width="0.0625"/>
    <line x1="39.0" y1="0" x2="39.0" y2="420" stroke="#b0d8b0" stroke-width="0.0625"/>
    <line x1="41.0" y1="0" x2="41.0" y2="420" stroke="#b0d8b0" stroke-width="0.0625"/>
    <line x1="42.0" y1="0" x2="42.0" y2="420" stroke="#b0d8b0" stroke-width="0.0625"/>
    <line x1="43.0" y1="0" x2="43.0" y2="420" stroke="#b0d8b0" stroke-width="0.0625"/>
    <line x1="44.0" y1="0" x2="44.0" y2="420" stroke="#b0d8b0" stroke-width="0.0625"/>
    <line x1="45.0" y1="0" x2="45.0" y2="420" stroke="#b0d8b0" stroke-width="0.0625"/>
    <line x1="46.0" y1="0" x2="46.0" y2="420" stroke="#b0d8b0" stroke-width="0.0625"/>
    <line x1="47.0" y1="0" x2="47.0" y2="420" stroke="#b0d8b0" stroke-width="0.0625"/>
    <line x1="48.0" y1="0" x2="48.0" y2="420" stroke="#b0d8b0" stroke-width="0.0625"/>
    <line x1="49.0" y1="0" x2="49.0" y2="420" stroke="#b0d8b0" stroke-width="0.0625"/>
    <line x1="51.0" y1="0" x2="51.0" y2="420" stroke="#b0d8b0" stroke-width="0.0625"/>
    <line x1="52.0" y1="0" x2="52.0" y2="420" stroke="#b0d8b0" stroke-width="0.0625"/>
    <line x1="53.0" y1="0" x2="53.0" y2="420" stroke="#b0d8b0" stroke-width="0.0625"/>
    <line x1="54.0" y1="0" x2="54.0" y2="420" stroke="#b0d8b0" stroke-width="0.0625"/>
    <line x1="55.0" y1="0" x2="55.0" y2="420" stroke="#b0d8b0" stroke-width="0.0625"/>
    <line x1="56.0" y1="0" x2="56.0" y2="420" stroke="#b0d8b0" stroke-width="0.0625"/>
    <line x1="57.0" y1="0" x2="57.0" y2="420" stroke="#b0d8b0" stroke-width="0.0625"/>
    <line x1="58.0" y1="0" x2="58.0" y2="420" stroke="#b0d8b0" stroke-width="0.0625"/>
    <line x1="59.0" y1="0" x2="59.0" y2="420" stroke="#b0d8b0" stroke-width="0.0625"/>
    <line x1="61.0" y1="0" x2="61.0" y2="420" stroke="#b0d8b0" stroke-width="0.0625"/>
    <line x1="62.0" y1="0" x2="62.0" y2="420" stroke="#b0d8b0" stroke-width="0.0625"/>
    <line x1="63.0" y1="0" x2="63.0" y2="420" stroke="#b0d8b0" stroke-width="0.0625"/>
    <line x1="64.0" y1="0" x2="64.0" y2="420" stroke="#b0d8b0" stroke-width="0.0625"/>
    <line x1="65.0" y1="0" x2="65.0" y2="420" stroke="#b0d8b0" stroke-width="0.0625"/>
    <line x1="66.0" y1="0" x2="66.0" y2="420" stroke="#b0d8b0" stroke-width="0.0625"/>
    <line x1="67.0" y1="0" x2="67.0" y2="420" stroke="#b0d8b0" stroke-width="0.0625"/>
    <line x1="68.0" y1="0" x2="68.0" y2="420" stroke="#b0d8b0" stroke-width="0.0625"/>
    <line x1="69.0" y1="0" x2="69.0" y2="420" stroke="#b0d8b0" stroke-width="0.0625"/>
    <line x1="71.0" y1="0" x2="71.0" y2="420" stroke="#b0d8b0" stroke-width="0.0625"/>
    <line x1="72.0" y1="0" x2="72.0" y2="420" stroke="#b0d8b0" stroke-width="0.0625"/>
    <line x1="73.0" y1="0" x2="73.0" y2="420" stroke="#b0d8b0" stroke-width="0.0625"/>
    <line x1="74.0" y1="0" x2="74.0" y2="420" stroke="#b0d8b0" stroke-width="0.0625"/>
    <line x1="75.0" y1="0" x2="75.0" y2="420" stroke="#b0d8b0" stroke-width="0.0625"/>
    <line x1="76.0" y1="0" x2="76.0" y2="420" stroke="#b0d8b0" stroke-width="0.0625"/>
    <line x1="77.0" y1="0" x2="77.0" y2="420" stroke="#b0d8b0" stroke-width="0.0625"/>
    <line x1="78.0" y1="0" x2="78.0" y2="420" stroke="#b0d8b0" stroke-width="0.0625"/>
    <line x1="79.0" y1="0" x2="79.0" y2="420" stroke="#b0d8b0" stroke-width="0.0625"/>
    <line x1="81.0" y1="0" x2="81.0" y2="420" stroke="#b0d8b0" stroke-width="0.0625"/>
    <line x1="82.0" y1="0" x2="82.0" y2="420" stroke="#b0d8b0" stroke-width="0.0625"/>
    <line x1="83.0" y1="0" x2="83.0" y2="420" stroke="#b0d8b0" stroke-width="0.0625"/>
    <line x1="84.0" y1="0" x2="84.0" y2="420" stroke="#b0d8b0" stroke-width="0.0625"/>
    <line x1="85.0" y1="0" x2="85.0" y2="420" stroke="#b0d8b0" stroke-width="0.0625"/>
    <line x1="86.0" y1="0" x2="86.0" y2="420" stroke="#b0d8b0" stroke-width="0.0625"/>
    <line x1="87.0" y1="0" x2="87.0" y2="420" stroke="#b0d8b0" stroke-width="0.0625"/>
    <line x1="88.0" y1="0" x2="88.0" y2="420" stroke="#b0d8b0" stroke-width="0.0625"/>
    <line x1="89.0" y1="0" x2="89.0" y2="420" stroke="#b0d8b0" stroke-width="0.0625"/>
    <line x1="91.0" y1="0" x2="91.0" y2="420" stroke="#b0d8b0" stroke-width="0.0625"/>
    <line x1="92.0" y1="0" x2="92.0" y2="420" stroke="#b0d8b0" stroke-width="0.0625"/>
    <line x1="93.0" y1="0" x2="93.0" y2="420" stroke="#b0d8b0" stroke-width="0.0625"/>
    <line x1="94.0" y1="0" x2="94.0" y2="420" stroke="#b0d8b0" stroke-width="0.0625"/>
    <line x1="95.0" y1="0" x2="95.0" y2="420" stroke="#b0d8b0" stroke-width="0.0625"/>
    <line x1="96.0" y1="0" x2="96.0" y2="420" stroke="#b0d8b0" stroke-width="0.0625"/>
    <line x1="97.0" y1="0" x2="97.0" y2="420" stroke="#b0d8b0" stroke-width="0.0625"/>
    <line x1="98.0" y1="0" x2="98.0" y2="420" stroke="#b0d8b0" stroke-width="0.0625"/>
    <line x1="99.0" y1="0" x2="99.0" y2="420" stroke="#b0d8b0" stroke-width="0.0625"/>
    <line x1="101.0" y1="0" x2="101.0" y2="420" stroke="#b0d8b0" stroke-width="0.0625"/>
    <line x1="102.0" y1="0" x2="102.0" y2="420" stroke="#b0d8b0" stroke-width="0.0625"/>
    <line x1="103.0" y1="0" x2="103.0" y2="420" stroke="#b0d8b0" stroke-width="0.0625"/>
    <line x1="104.0" y1="0" x2="104.0" y2="420" stroke="#b0d8b0" stroke-width="0.0625"/>
    <line x1="105.0" y1="0" x2="105.0" y2="420" stroke="#b0d8b0" stroke-width="0.0625"/>
    <line x1="106.0" y1="0" x2="106.0" y2="420" stroke="#b0d8b0" stroke-width="0.0625"/>
    <line x1="107.0" y1="0" x2="107.0" y2="420" stroke="#b0d8b0" stroke-width="0.0625"/>
    <line x1="108.0" y1="0" x2="108.0" y2="420" stroke="#b0d8b0" stroke-width="0.0625"/>
    <line x1="109.0" y1="0" x2="109.0" y2="420" stroke="#b0d8b0" stroke-width="0.0625"/>
    <line x1="111.0" y1="0" x2="111.0" y2="420" stroke="#b0d8b0" stroke-width="0.0625"/>
    <line x1="112.0" y1="0" x2="112.0" y2="420" stroke="#b0d8b0" stroke-width="0.0625"/>
    <line x1="113.0" y1="0" x2="113.0" y2="420" stroke="#b0d8b0" stroke-width="0.0625"/>
    <line x1="114.0" y1="0" x2="114.0" y2="420" stroke="#b0d8b0" stroke-width="0.0625"/>
    <line x1="115.0" y1="0" x2="115.0" y2="420" stroke="#b0d8b0" stroke-width="0.0625"/>
    <line x1="116.0" y1="0" x2="116.0" y2="420" stroke="#b0d8b0" stroke-width="0.0625"/>
    <line x1="117.0" y1="0" x2="117.0" y2="420" stroke="#b0d8b0" stroke-width="0.0625"/>
    <line x1="118.0" y1="0" x2="118.0" y2="420" stroke="#b0d8b0" stroke-width="0.0625"/>
    <line x1="119.0" y1="0" x2="119.0" y2="420" stroke="#b0d8b0" stroke-width="0.0625"/>
    <line x1="121.0" y1="0" x2="121.0" y2="420" stroke="#b0d8b0" stroke-width="0.0625"/>
    <line x1="122.0" y1="0" x2="122.0" y2="420" stroke="#b0d8b0" stroke-width="0.0625"/>
    <line x1="123.0" y1="0" x2="123.0" y2="420" stroke="#b0d8b0" stroke-width="0.0625"/>
    <line x1="124.0" y1="0" x2="124.0" y2="420" stroke="#b0d8b0" stroke-width="0.0625"/>
    <line x1="125.0" y1="0" x2="125.0" y2="420" stroke="#b0d8b0" stroke-width="0.0625"/>
    <line x1="126.0" y1="0" x2="126.0" y2="420" stroke="#b0d8b0" stroke-width="0.0625"/>
    <line x1="127.0" y1="0" x2="127.0" y2="420" stroke="#b0d8b0" stroke-width="0.0625"/>
    <line x1="128.0" y1="0" x2="128.0" y2="420" stroke="#b0d8b0" stroke-width="0.0625"/>
    <line x1="129.0" y1="0" x2="129.0" y2="420" stroke="#b0d8b0" stroke-width="0.0625"/>
    <line x1="131.0" y1="0" x2="131.0" y2="420" stroke="#b0d8b0" stroke-width="0.0625"/>
    <line x1="132.0" y1="0" x2="132.0" y2="420" stroke="#b0d8b0" stroke-width="0.0625"/>
    <line x1="133.0" y1="0" x2="133.0" y2="420" stroke="#b0d8b0" stroke-width="0.0625"/>
    <line x1="134.0" y1="0" x2="134.0" y2="420" stroke="#b0d8b0" stroke-width="0.0625"/>
    <line x1="135.0" y1="0" x2="135.0" y2="420" stroke="#b0d8b0" stroke-width="0.0625"/>
    <line x1="136.0" y1="0" x2="136.0" y2="420" stroke="#b0d8b0" stroke-width="0.0625"/>
    <line x1="137.0" y1="0" x2="137.0" y2="420" stroke="#b0d8b0" stroke-width="0.0625"/>
    <line x1="138.0" y1="0" x2="138.0" y2="420" stroke="#b0d8b0" stroke-width="0.0625"/>
    <line x1="139.0" y1="0" x2="139.0" y2="420" stroke="#b0d8b0" stroke-width="0.0625"/>
    <line x1="141.0" y1="0" x2="141.0" y2="420" stroke="#b0d8b0" stroke-width="0.0625"/>
    <line x1="142.0" y1="0" x2="142.0" y2="420" stroke="#b0d8b0" stroke-width="0.0625"/>
    <line x1="143.0" y1="0" x2="143.0" y2="420" stroke="#b0d8b0" stroke-width="0.0625"/>
    <line x1="144.0" y1="0" x2="144.0" y2="420" stroke="#b0d8b0" stroke-width="0.0625"/>
    <line x1="145.0" y1="0" x2="145.0" y2="420" stroke="#b0d8b0" stroke-width="0.0625"/>
    <line x1="146.0" y1="0" x2="146.0" y2="420" stroke="#b0d8b0" stroke-width="0.0625"/>
    <line x1="147.0" y1="0" x2="147.0" y2="420" stroke="#b0d8b0" stroke-width="0.0625"/>
    <line x1="148.0" y1="0" x2="148.0" y2="420" stroke="#b0d8b0" stroke-width="0.0625"/>
    <line x1="149.0" y1="0" x2="149.0" y2="420" stroke="#b0d8b0" stroke-width="0.0625"/>
    <line x1="151.0" y1="0" x2="151.0" y2="420" stroke="#b0d8b0" stroke-width="0.0625"/>
    <line x1="152.0" y1="0" x2="152.0" y2="420" stroke="#b0d8b0" stroke-width="0.0625"/>
    <line x1="153.0" y1="0" x2="153.0" y2="420" stroke="#b0d8b0" stroke-width="0.0625"/>
    <line x1="154.0" y1="0" x2="154.0" y2="420" stroke="#b0d8b0" stroke-width="0.0625"/>
    <line x1="155.0" y1="0" x2="155.0" y2="420" stroke="#b0d8b0" stroke-width="0.0625"/>
    <line x1="156.0" y1="0" x2="156.0" y2="420" stroke="#b0d8b0" stroke-width="0.0625"/>
    <line x1="157.0" y1="0" x2="157.0" y2="420" stroke="#b0d8b0" stroke-width="0.0625"/>
    <line x1="158.0" y1="0" x2="158.0" y2="420" stroke="#b0d8b0" stroke-width="0.0625"/>
    <line x1="159.0" y1="0" x2="159.0" y2="420" stroke="#b0d8b0" stroke-width="0.0625"/>
    <line x1="161.0" y1="0" x2="161.0" y2="420" stroke="#b0d8b0" stroke-width="0.0625"/>
    <line x1="162.0" y1="0" x2="162.0" y2="420" stroke="#b0d8b0" stroke-width="0.0625"/>
    <line x1="163.0" y1="0" x2="163.0" y2="420" stroke="#b0d8b0" stroke-width="0.0625"/>
    <line x1="164.0" y1="0" x2="164.0" y2="420" stroke="#b0d8b0" stroke-width="0.0625"/>
    <line x1="165.0" y1="0" x2="165.0" y2="420" stroke="#b0d8b0" stroke-width="0.0625"/>
    <line x1="166.0" y1="0" x2="166.0" y2="420" stroke="#b0d8b0" stroke-width="0.0625"/>
    <line x1="167.0" y1="0" x2="167.0" y2="420" stroke="#b0d8b0" stroke-width="0.0625"/>
    <line x1="168.0" y1="0" x2="168.0" y2="420" stroke="#b0d8b0" stroke-width="0.0625"/>
    <line x1="169.0" y1="0" x2="169.0" y2="420" stroke="#b0d8b0" stroke-width="0.0625"/>
    <line x1="171.0" y1="0" x2="171.0" y2="420" stroke="#b0d8b0" stroke-width="0.0625"/>
    <line x1="172.0" y1="0" x2="172.0" y2="420" stroke="#b0d8b0" stroke-width="0.0625"/>
    <line x1="173.0" y1="0" x2="173.0" y2="420" stroke="#b0d8b0" stroke-width="0.0625"/>
    <line x1="174.0" y1="0" x2="174.0" y2="420" stroke="#b0d8b0" stroke-width="0.0625"/>
    <line x1="175.0" y1="0" x2="175.0" y2="420" stroke="#b0d8b0" stroke-width="0.0625"/>
    <line x1="176.0" y1="0" x2="176.0" y2="420" stroke="#b0d8b0" stroke-width="0.0625"/>
    <line x1="177.0" y1="0" x2="177.0" y2="420" stroke="#b0d8b0" stroke-width="0.0625"/>
    <line x1="178.0" y1="0" x2="178.0" y2="420" stroke="#b0d8b0" stroke-width="0.0625"/>
    <line x1="179.0" y1="0" x2="179.0" y2="420" stroke="#b0d8b0" stroke-width="0.0625"/>
    <line x1="181.0" y1="0" x2="181.0" y2="420" stroke="#b0d8b0" stroke-width="0.0625"/>
    <line x1="182.0" y1="0" x2="182.0" y2="420" stroke="#b0d8b0" stroke-width="0.0625"/>
    <line x1="183.0" y1="0" x2="183.0" y2="420" stroke="#b0d8b0" stroke-width="0.0625"/>
    <line x1="184.0" y1="0" x2="184.0" y2="420" stroke="#b0d8b0" stroke-width="0.0625"/>
    <line x1="185.0" y1="0" x2="185.0" y2="420" stroke="#b0d8b0" stroke-width="0.0625"/>
    <line x1="186.0" y1="0" x2="186.0" y2="420" stroke="#b0d8b0" stroke-width="0.0625"/>
    <line x1="187.0" y1="0" x2="187.0" y2="420" stroke="#b0d8b0" stroke-width="0.0625"/>
    <line x1="188.0" y1="0" x2="188.0" y2="420" stroke="#b0d8b0" stroke-width="0.0625"/>
    <line x1="189.0" y1="0" x2="189.0" y2="420" stroke="#b0d8b0" stroke-width="0.0625"/>
    <line x1="191.0" y1="0" x2="191.0" y2="420" stroke="#b0d8b0" stroke-width="0.0625"/>
    <line x1="192.0" y1="0" x2="192.0" y2="420" stroke="#b0d8b0" stroke-width="0.0625"/>
    <line x1="193.0" y1="0" x2="193.0" y2="420" stroke="#b0d8b0" stroke-width="0.0625"/>
    <line x1="194.0" y1="0" x2="194.0" y2="420" stroke="#b0d8b0" stroke-width="0.0625"/>
    <line x1="195.0" y1="0" x2="195.0" y2="420" stroke="#b0d8b0" stroke-width="0.0625"/>
    <line x1="196.0" y1="0" x2="196.0" y2="420" stroke="#b0d8b0" stroke-width="0.0625"/>
    <line x1="197.0" y1="0" x2="197.0" y2="420" stroke="#b0d8b0" stroke-width="0.0625"/>
    <line x1="198.0" y1="0" x2="198.0" y2="420" stroke="#b0d8b0" stroke-width="0.0625"/>
    <line x1="199.0" y1="0" x2="199.0" y2="420" stroke="#b0d8b0" stroke-width="0.0625"/>
    <line x1="201.0" y1="0" x2="201.0" y2="420" stroke="#b0d8b0" stroke-width="0.0625"/>
    <line x1="202.0" y1="0" x2="202.0" y2="420" stroke="#b0d8b0" stroke-width="0.0625"/>
    <line x1="203.0" y1="0" x2="203.0" y2="420" stroke="#b0d8b0" stroke-width="0.0625"/>
    <line x1="204.0" y1="0" x2="204.0" y2="420" stroke="#b0d8b0" stroke-width="0.0625"/>
    <line x1="205.0" y1="0" x2="205.0" y2="420" stroke="#b0d8b0" stroke-width="0.0625"/>
    <line x1="206.0" y1="0" x2="206.0" y2="420" stroke="#b0d8b0" stroke-width="0.0625"/>
    <line x1="207.0" y1="0" x2="207.0" y2="420" stroke="#b0d8b0" stroke-width="0.0625"/>
    <line x1="208.0" y1="0" x2="208.0" y2="420" stroke="#b0d8b0" stroke-width="0.0625"/>
    <line x1="209.0" y1="0" x2="209.0" y2="420" stroke="#b0d8b0" stroke-width="0.0625"/>
    <line x1="211.0" y1="0" x2="211.0" y2="420" stroke="#b0d8b0" stroke-width="0.0625"/>
    <line x1="212.0" y1="0" x2="212.0" y2="420" stroke="#b0d8b0" stroke-width="0.0625"/>
    <line x1="213.0" y1="0" x2="213.0" y2="420" stroke="#b0d8b0" stroke-width="0.0625"/>
    <line x1="214.0" y1="0" x2="214.0" y2="420" stroke="#b0d8b0" stroke-width="0.0625"/>
    <line x1="215.0" y1="0" x2="215.0" y2="420" stroke="#b0d8b0" stroke-width="0.0625"/>
    <line x1="216.0" y1="0" x2="216.0" y2="420" stroke="#b0d8b0" stroke-width="0.0625"/>
    <line x1="217.0" y1="0" x2="217.0" y2="420" stroke="#b0d8b0" stroke-width="0.0625"/>
    <line x1="218.0" y1="0" x2="218.0" y2="420" stroke="#b0d8b0" stroke-width="0.0625"/>
    <line x1="219.0" y1="0" x2="219.0" y2="420" stroke="#b0d8b0" stroke-width="0.0625"/>
    <line x1="221.0" y1="0" x2="221.0" y2="420" stroke="#b0d8b0" stroke-width="0.0625"/>
    <line x1="222.0" y1="0" x2="222.0" y2="420" stroke="#b0d8b0" stroke-width="0.0625"/>
    <line x1="223.0" y1="0" x2="223.0" y2="420" stroke="#b0d8b0" stroke-width="0.0625"/>
    <line x1="224.0" y1="0" x2="224.0" y2="420" stroke="#b0d8b0" stroke-width="0.0625"/>
    <line x1="225.0" y1="0" x2="225.0" y2="420" stroke="#b0d8b0" stroke-width="0.0625"/>
    <line x1="226.0" y1="0" x2="226.0" y2="420" stroke="#b0d8b0" stroke-width="0.0625"/>
    <line x1="227.0" y1="0" x2="227.0" y2="420" stroke="#b0d8b0" stroke-width="0.0625"/>
    <line x1="228.0" y1="0" x2="228.0" y2="420" stroke="#b0d8b0" stroke-width="0.0625"/>
    <line x1="229.0" y1="0" x2="229.0" y2="420" stroke="#b0d8b0" stroke-width="0.0625"/>
    <line x1="231.0" y1="0" x2="231.0" y2="420" stroke="#b0d8b0" stroke-width="0.0625"/>
    <line x1="232.0" y1="0" x2="232.0" y2="420" stroke="#b0d8b0" stroke-width="0.0625"/>
    <line x1="233.0" y1="0" x2="233.0" y2="420" stroke="#b0d8b0" stroke-width="0.0625"/>
    <line x1="234.0" y1="0" x2="234.0" y2="420" stroke="#b0d8b0" stroke-width="0.0625"/>
    <line x1="235.0" y1="0" x2="235.0" y2="420" stroke="#b0d8b0" stroke-width="0.0625"/>
    <line x1="236.0" y1="0" x2="236.0" y2="420" stroke="#b0d8b0" stroke-width="0.0625"/>
    <line x1="237.0" y1="0" x2="237.0" y2="420" stroke="#b0d8b0" stroke-width="0.0625"/>
    <line x1="238.0" y1="0" x2="238.0" y2="420" stroke="#b0d8b0" stroke-width="0.0625"/>
    <line x1="239.0" y1="0" x2="239.0" y2="420" stroke="#b0d8b0" stroke-width="0.0625"/>
    <line x1="241.0" y1="0" x2="241.0" y2="420" stroke="#b0d8b0" stroke-width="0.0625"/>
    <line x1="242.0" y1="0" x2="242.0" y2="420" stroke="#b0d8b0" stroke-width="0.0625"/>
    <line x1="243.0" y1="0" x2="243.0" y2="420" stroke="#b0d8b0" stroke-width="0.0625"/>
    <line x1="244.0" y1="0" x2="244.0" y2="420" stroke="#b0d8b0" stroke-width="0.0625"/>
    <line x1="245.0" y1="0" x2="245.0" y2="420" stroke="#b0d8b0" stroke-width="0.0625"/>
    <line x1="246.0" y1="0" x2="246.0" y2="420" stroke="#b0d8b0" stroke-width="0.0625"/>
    <line x1="247.0" y1="0" x2="247.0" y2="420" stroke="#b0d8b0" stroke-width="0.0625"/>
    <line x1="248.0" y1="0" x2="248.0" y2="420" stroke="#b0d8b0" stroke-width="0.0625"/>
    <line x1="249.0" y1="0" x2="249.0" y2="420" stroke="#b0d8b0" stroke-width="0.0625"/>
    <line x1="251.0" y1="0" x2="251.0" y2="420" stroke="#b0d8b0" stroke-width="0.0625"/>
    <line x1="252.0" y1="0" x2="252.0" y2="420" stroke="#b0d8b0" stroke-width="0.0625"/>
    <line x1="253.0" y1="0" x2="253.0" y2="420" stroke="#b0d8b0" stroke-width="0.0625"/>
    <line x1="254.0" y1="0" x2="254.0" y2="420" stroke="#b0d8b0" stroke-width="0.0625"/>
    <line x1="255.0" y1="0" x2="255.0" y2="420" stroke="#b0d8b0" stroke-width="0.0625"/>
    <line x1="256.0" y1="0" x2="256.0" y2="420" stroke="#b0d8b0" stroke-width="0.0625"/>
    <line x1="257.0" y1="0" x2="257.0" y2="420" stroke="#b0d8b0" stroke-width="0.0625"/>
    <line x1="258.0" y1="0" x2="258.0" y2="420" stroke="#b0d8b0" stroke-width="0.0625"/>
    <line x1="259.0" y1="0" x2="259.0" y2="420" stroke="#b0d8b0" stroke-width="0.0625"/>
    <line x1="261.0" y1="0" x2="261.0" y2="420" stroke="#b0d8b0" stroke-width="0.0625"/>
    <line x1="262.0" y1="0" x2="262.0" y2="420" stroke="#b0d8b0" stroke-width="0.0625"/>
    <line x1="263.0" y1="0" x2="263.0" y2="420" stroke="#b0d8b0" stroke-width="0.0625"/>
    <line x1="264.0" y1="0" x2="264.0" y2="420" stroke="#b0d8b0" stroke-width="0.0625"/>
    <line x1="265.0" y1="0" x2="265.0" y2="420" stroke="#b0d8b0" stroke-width="0.0625"/>
    <line x1="266.0" y1="0" x2="266.0" y2="420" stroke="#b0d8b0" stroke-width="0.0625"/>
    <line x1="267.0" y1="0" x2="267.0" y2="420" stroke="#b0d8b0" stroke-width="0.0625"/>
    <line x1="268.0" y1="0" x2="268.0" y2="420" stroke="#b0d8b0" stroke-width="0.0625"/>
    <line x1="269.0" y1="0" x2="269.0" y2="420" stroke="#b0d8b0" stroke-width="0.0625"/>
    <line x1="271.0" y1="0" x2="271.0" y2="420" stroke="#b0d8b0" stroke-width="0.0625"/>
    <line x1="272.0" y1="0" x2="272.0" y2="420" stroke="#b0d8b0" stroke-width="0.0625"/>
    <line x1="273.0" y1="0" x2="273.0" y2="420" stroke="#b0d8b0" stroke-width="0.0625"/>
    <line x1="274.0" y1="0" x2="274.0" y2="420" stroke="#b0d8b0" stroke-width="0.0625"/>
    <line x1="275.0" y1="0" x2="275.0" y2="420" stroke="#b0d8b0" stroke-width="0.0625"/>
    <line x1="276.0" y1="0" x2="276.0" y2="420" stroke="#b0d8b0" stroke-width="0.0625"/>
    <line x1="277.0" y1="0" x2="277.0" y2="420" stroke="#b0d8b0" stroke-width="0.0625"/>
    <line x1="278.0" y1="0" x2="278.0" y2="420" stroke="#b0d8b0" stroke-width="0.0625"/>
    <line x1="279.0" y1="0" x2="279.0" y2="420" stroke="#b0d8b0" stroke-width="0.0625"/>
    <line x1="281.0" y1="0" x2="281.0" y2="420" stroke="#b0d8b0" stroke-width="0.0625"/>
    <line x1="282.0" y1="0" x2="282.0" y2="420" stroke="#b0d8b0" stroke-width="0.0625"/>
    <line x1="283.0" y1="0" x2="283.0" y2="420" stroke="#b0d8b0" stroke-width="0.0625"/>
    <line x1="284.0" y1="0" x2="284.0" y2="420" stroke="#b0d8b0" stroke-width="0.0625"/>
    <line x1="285.0" y1="0" x2="285.0" y2="420" stroke="#b0d8b0" stroke-width="0.0625"/>
    <line x1="286.0" y1="0" x2="286.0" y2="420" stroke="#b0d8b0" stroke-width="0.0625"/>
    <line x1="287.0" y1="0" x2="287.0" y2="420" stroke="#b0d8b0" stroke-width="0.0625"/>
    <line x1="288.0" y1="0" x2="288.0" y2="420" stroke="#b0d8b0" stroke-width="0.0625"/>
    <line x1="289.0" y1="0" x2="289.0" y2="420" stroke="#b0d8b0" stroke-width="0.0625"/>
    <line x1="291.0" y1="0" x2="291.0" y2="420" stroke="#b0d8b0" stroke-width="0.0625"/>
    <line x1="292.0" y1="0" x2="292.0" y2="420" stroke="#b0d8b0" stroke-width="0.0625"/>
    <line x1="293.0" y1="0" x2="293.0" y2="420" stroke="#b0d8b0" stroke-width="0.0625"/>
    <line x1="294.0" y1="0" x2="294.0" y2="420" stroke="#b0d8b0" stroke-width="0.0625"/>
    <line x1="295.0" y1="0" x2="295.0" y2="420" stroke="#b0d8b0" stroke-width="0.0625"/>
    <line x1="296.0" y1="0" x2="296.0" y2="420" stroke="#b0d8b0" stroke-width="0.0625"/>
    <line x1="297.0" y1="0" x2="297.0" y2="420" stroke="#b0d8b0" stroke-width="0.0625"/>
    <line x1="0" y1="1.0" x2="297" y2="1.0" stroke="#b0d8b0" stroke-width="0.0625"/>
    <line x1="0" y1="2.0" x2="297" y2="2.0" stroke="#b0d8b0" stroke-width="0.0625"/>
    <line x1="0" y1="3.0" x2="297" y2="3.0" stroke="#b0d8b0" stroke-width="0.0625"/>
    <line x1="0" y1="4.0" x2="297" y2="4.0" stroke="#b0d8b0" stroke-width="0.0625"/>
    <line x1="0" y1="5.0" x2="297" y2="5.0" stroke="#b0d8b0" stroke-width="0.0625"/>
    <line x1="0" y1="6.0" x2="297" y2="6.0" stroke="#b0d8b0" stroke-width="0.0625"/>
    <line x1="0" y1="7.0" x2="297" y2="7.0" stroke="#b0d8b0" stroke-width="0.0625"/>
    <line x1="0" y1="8.0" x2="297" y2="8.0" stroke="#b0d8b0" stroke-width="0.0625"/>
    <line x1="0" y1="9.0" x2="297" y2="9.0" stroke="#b0d8b0" stroke-width="0.0625"/>
    <line x1="0" y1="11.0" x2="297" y2="11.0" stroke="#b0d8b0" stroke-width="0.0625"/>
    <line x1="0" y1="12.0" x2="297" y2="12.0" stroke="#b0d8b0" stroke-width="0.0625"/>
    <line x1="0" y1="13.0" x2="297" y2="13.0" stroke="#b0d8b0" stroke-width="0.0625"/>
    <line x1="0" y1="14.0" x2="297" y2="14.0" stroke="#b0d8b0" stroke-width="0.0625"/>
    <line x1="0" y1="15.0" x2="297" y2="15.0" stroke="#b0d8b0" stroke-width="0.0625"/>
    <line x1="0" y1="16.0" x2="297" y2="16.0" stroke="#b0d8b0" stroke-width="0.0625"/>
    <line x1="0" y1="17.0" x2="297" y2="17.0" stroke="#b0d8b0" stroke-width="0.0625"/>
    <line x1="0" y1="18.0" x2="297" y2="18.0" stroke="#b0d8b0" stroke-width="0.0625"/>
    <line x1="0" y1="19.0" x2="297" y2="19.0" stroke="#b0d8b0" stroke-width="0.0625"/>
    <line x1="0" y1="21.0" x2="297" y2="21.0" stroke="#b0d8b0" stroke-width="0.0625"/>
    <line x1="0" y1="22.0" x2="297" y2="22.0" stroke="#b0d8b0" stroke-width="0.0625"/>
    <line x1="0" y1="23.0" x2="297" y2="23.0" stroke="#b0d8b0" stroke-width="0.0625"/>
    <line x1="0" y1="24.0" x2="297" y2="24.0" stroke="#b0d8b0" stroke-width="0.0625"/>
    <line x1="0" y1="25.0" x2="297" y2="25.0" stroke="#b0d8b0" stroke-width="0.0625"/>
    <line x1="0" y1="26.0" x2="297" y2="26.0" stroke="#b0d8b0" stroke-width="0.0625"/>
    <line x1="0" y1="27.0" x2="297" y2="27.0" stroke="#b0d8b0" stroke-width="0.0625"/>
    <line x1="0" y1="28.0" x2="297" y2="28.0" stroke="#b0d8b0" stroke-width="0.0625"/>
    <line x1="0" y1="29.0" x2="297" y2="29.0" stroke="#b0d8b0" stroke-width="0.0625"/>
    <line x1="0" y1="31.0" x2="297" y2="31.0" stroke="#b0d8b0" stroke-width="0.0625"/>
    <line x1="0" y1="32.0" x2="297" y2="32.0" stroke="#b0d8b0" stroke-width="0.0625"/>
    <line x1="0" y1="33.0" x2="297" y2="33.0" stroke="#b0d8b0" stroke-width="0.0625"/>
    <line x1="0" y1="34.0" x2="297" y2="34.0" stroke="#b0d8b0" stroke-width="0.0625"/>
    <line x1="0" y1="35.0" x2="297" y2="35.0" stroke="#b0d8b0" stroke-width="0.0625"/>
    <line x1="0" y1="36.0" x2="297" y2="36.0" stroke="#b0d8b0" stroke-width="0.0625"/>
    <line x1="0" y1="37.0" x2="297" y2="37.0" stroke="#b0d8b0" stroke-width="0.0625"/>
    <line x1="0" y1="38.0" x2="297" y2="38.0" stroke="#b0d8b0" stroke-width="0.0625"/>
    <line x1="0" y1="39.0" x2="297" y2="39.0" stroke="#b0d8b0" stroke-width="0.0625"/>
    <line x1="0" y1="41.0" x2="297" y2="41.0" stroke="#b0d8b0" stroke-width="0.0625"/>
    <line x1="0" y1="42.0" x2="297" y2="42.0" stroke="#b0d8b0" stroke-width="0.0625"/>
    <line x1="0" y1="43.0" x2="297" y2="43.0" stroke="#b0d8b0" stroke-width="0.0625"/>
    <line x1="0" y1="44.0" x2="297" y2="44.0" stroke="#b0d8b0" stroke-width="0.0625"/>
    <line x1="0" y1="45.0" x2="297" y2="45.0" stroke="#b0d8b0" stroke-width="0.0625"/>
    <line x1="0" y1="46.0" x2="297" y2="46.0" stroke="#b0d8b0" stroke-width="0.0625"/>
    <line x1="0" y1="47.0" x2="297" y2="47.0" stroke="#b0d8b0" stroke-width="0.0625"/>
    <line x1="0" y1="48.0" x2="297" y2="48.0" stroke="#b0d8b0" stroke-width="0.0625"/>
    <line x1="0" y1="49.0" x2="297" y2="49.0" stroke="#b0d8b0" stroke-width="0.0625"/>
    <line x1="0" y1="51.0" x2="297" y2="51.0" stroke="#b0d8b0" stroke-width="0.0625"/>
    <line x1="0" y1="52.0" x2="297" y2="52.0" stroke="#b0d8b0" stroke-width="0.0625"/>
    <line x1="0" y1="53.0" x2="297" y2="53.0" stroke="#b0d8b0" stroke-width="0.0625"/>
    <line x1="0" y1="54.0" x2="297" y2="54.0" stroke="#b0d8b0" stroke-width="0.0625"/>
    <line x1="0" y1="55.0" x2="297" y2="55.0" stroke="#b0d8b0" stroke-width="0.0625"/>
    <line x1="0" y1="56.0" x2="297" y2="56.0" stroke="#b0d8b0" stroke-width="0.0625"/>
    <line x1="0" y1="57.0" x2="297" y2="57.0" stroke="#b0d8b0" stroke-width="0.0625"/>
    <line x1="0" y1="58.0" x2="297" y2="58.0" stroke="#b0d8b0" stroke-width="0.0625"/>
    <line x1="0" y1="59.0" x2="297" y2="59.0" stroke="#b0d8b0" stroke-width="0.0625"/>
    <line x1="0" y1="61.0" x2="297" y2="61.0" stroke="#b0d8b0" stroke-width="0.0625"/>
    <line x1="0" y1="62.0" x2="297" y2="62.0" stroke="#b0d8b0" stroke-width="0.0625"/>
    <line x1="0" y1="63.0" x2="297" y2="63.0" stroke="#b0d8b0" stroke-width="0.0625"/>
    <line x1="0" y1="64.0" x2="297" y2="64.0" stroke="#b0d8b0" stroke-width="0.0625"/>
    <line x1="0" y1="65.0" x2="297" y2="65.0" stroke="#b0d8b0" stroke-width="0.0625"/>
    <line x1="0" y1="66.0" x2="297" y2="66.0" stroke="#b0d8b0" stroke-width="0.0625"/>
    <line x1="0" y1="67.0" x2="297" y2="67.0" stroke="#b0d8b0" stroke-width="0.0625"/>
    <line x1="0" y1="68.0" x2="297" y2="68.0" stroke="#b0d8b0" stroke-width="0.0625"/>
    <line x1="0" y1="69.0" x2="297" y2="69.0" stroke="#b0d8b0" stroke-width="0.0625"/>
    <line x1="0" y1="71.0" x2="297" y2="71.0" stroke="#b0d8b0" stroke-width="0.0625"/>
    <line x1="0" y1="72.0" x2="297" y2="72.0" stroke="#b0d8b0" stroke-width="0.0625"/>
    <line x1="0" y1="73.0" x2="297" y2="73.0" stroke="#b0d8b0" stroke-width="0.0625"/>
    <line x1="0" y1="74.0" x2="297" y2="74.0" stroke="#b0d8b0" stroke-width="0.0625"/>
    <line x1="0" y1="75.0" x2="297" y2="75.0" stroke="#b0d8b0" stroke-width="0.0625"/>
    <line x1="0" y1="76.0" x2="297" y2="76.0" stroke="#b0d8b0" stroke-width="0.0625"/>
    <line x1="0" y1="77.0" x2="297" y2="77.0" stroke="#b0d8b0" stroke-width="0.0625"/>
    <line x1="0" y1="78.0" x2="297" y2="78.0" stroke="#b0d8b0" stroke-width="0.0625"/>
    <line x1="0" y1="79.0" x2="297" y2="79.0" stroke="#b0d8b0" stroke-width="0.0625"/>
    <line x1="0" y1="81.0" x2="297" y2="81.0" stroke="#b0d8b0" stroke-width="0.0625"/>
    <line x1="0" y1="82.0" x2="297" y2="82.0" stroke="#b0d8b0" stroke-width="0.0625"/>
    <line x1="0" y1="83.0" x2="297" y2="83.0" stroke="#b0d8b0" stroke-width="0.0625"/>
    <line x1="0" y1="84.0" x2="297" y2="84.0" stroke="#b0d8b0" stroke-width="0.0625"/>
    <line x1="0" y1="85.0" x2="297" y2="85.0" stroke="#b0d8b0" stroke-width="0.0625"/>
    <line x1="0" y1="86.0" x2="297" y2="86.0" stroke="#b0d8b0" stroke-width="0.0625"/>
    <line x1="0" y1="87.0" x2="297" y2="87.0" stroke="#b0d8b0" stroke-width="0.0625"/>
    <line x1="0" y1="88.0" x2="297" y2="88.0" stroke="#b0d8b0" stroke-width="0.0625"/>
    <line x1="0" y1="89.0" x2="297" y2="89.0" stroke="#b0d8b0" stroke-width="0.0625"/>
    <line x1="0" y1="91.0" x2="297" y2="91.0" stroke="#b0d8b0" stroke-width="0.0625"/>
    <line x1="0" y1="92.0" x2="297" y2="92.0" stroke="#b0d8b0" stroke-width="0.0625"/>
    <line x1="0" y1="93.0" x2="297" y2="93.0" stroke="#b0d8b0" stroke-width="0.0625"/>
    <line x1="0" y1="94.0" x2="297" y2="94.0" stroke="#b0d8b0" stroke-width="0.0625"/>
    <line x1="0" y1="95.0" x2="297" y2="95.0" stroke="#b0d8b0" stroke-width="0.0625"/>
    <line x1="0" y1="96.0" x2="297" y2="96.0" stroke="#b0d8b0" stroke-width="0.0625"/>
    <line x1="0" y1="97.0" x2="297" y2="97.0" stroke="#b0d8b0" stroke-width="0.0625"/>
    <line x1="0" y1="98.0" x2="297" y2="98.0" stroke="#b0d8b0" stroke-width="0.0625"/>
    <line x1="0" y1="99.0" x2="297" y2="99.0" stroke="#b0d8b0" stroke-width="0.0625"/>
    <line x1="0" y1="101.0" x2="297" y2="101.0" stroke="#b0d8b0" stroke-width="0.0625"/>
    <line x1="0" y1="102.0" x2="297" y2="102.0" stroke="#b0d8b0" stroke-width="0.0625"/>
    <line x1="0" y1="103.0" x2="297" y2="103.0" stroke="#b0d8b0" stroke-width="0.0625"/>
    <line x1="0" y1="104.0" x2="297" y2="104.0" stroke="#b0d8b0" stroke-width="0.0625"/>
    <line x1="0" y1="105.0" x2="297" y2="105.0" stroke="#b0d8b0" stroke-width="0.0625"/>
    <line x1="0" y1="106.0" x2="297" y2="106.0" stroke="#b0d8b0" stroke-width="0.0625"/>
    <line x1="0" y1="107.0" x2="297" y2="107.0" stroke="#b0d8b0" stroke-width="0.0625"/>
    <line x1="0" y1="108.0" x2="297" y2="108.0" stroke="#b0d8b0" stroke-width="0.0625"/>
    <line x1="0" y1="109.0" x2="297" y2="109.0" stroke="#b0d8b0" stroke-width="0.0625"/>
    <line x1="0" y1="111.0" x2="297" y2="111.0" stroke="#b0d8b0" stroke-width="0.0625"/>
    <line x1="0" y1="112.0" x2="297" y2="112.0" stroke="#b0d8b0" stroke-width="0.0625"/>
    <line x1="0" y1="113.0" x2="297" y2="113.0" stroke="#b0d8b0" stroke-width="0.0625"/>
    <line x1="0" y1="114.0" x2="297" y2="114.0" stroke="#b0d8b0" stroke-width="0.0625"/>
    <line x1="0" y1="115.0" x2="297" y2="115.0" stroke="#b0d8b0" stroke-width="0.0625"/>
    <line x1="0" y1="116.0" x2="297" y2="116.0" stroke="#b0d8b0" stroke-width="0.0625"/>
    <line x1="0" y1="117.0" x2="297" y2="117.0" stroke="#b0d8b0" stroke-width="0.0625"/>
    <line x1="0" y1="118.0" x2="297" y2="118.0" stroke="#b0d8b0" stroke-width="0.0625"/>
    <line x1="0" y1="119.0" x2="297" y2="119.0" stroke="#b0d8b0" stroke-width="0.0625"/>
    <line x1="0" y1="121.0" x2="297" y2="121.0" stroke="#b0d8b0" stroke-width="0.0625"/>
    <line x1="0" y1="122.0" x2="297" y2="122.0" stroke="#b0d8b0" stroke-width="0.0625"/>
    <line x1="0" y1="123.0" x2="297" y2="123.0" stroke="#b0d8b0" stroke-width="0.0625"/>
    <line x1="0" y1="124.0" x2="297" y2="124.0" stroke="#b0d8b0" stroke-width="0.0625"/>
    <line x1="0" y1="125.0" x2="297" y2="125.0" stroke="#b0d8b0" stroke-width="0.0625"/>
    <line x1="0" y1="126.0" x2="297" y2="126.0" stroke="#b0d8b0" stroke-width="0.0625"/>
    <line x1="0" y1="127.0" x2="297" y2="127.0" stroke="#b0d8b0" stroke-width="0.0625"/>
    <line x1="0" y1="128.0" x2="297" y2="128.0" stroke="#b0d8b0" stroke-width="0.0625"/>
    <line x1="0" y1="129.0" x2="297" y2="129.0" stroke="#b0d8b0" stroke-width="0.0625"/>
    <line x1="0" y1="131.0" x2="297" y2="131.0" stroke="#b0d8b0" stroke-width="0.0625"/>
    <line x1="0" y1="132.0" x2="297" y2="132.0" stroke="#b0d8b0" stroke-width="0.0625"/>
    <line x1="0" y1="133.0" x2="297" y2="133.0" stroke="#b0d8b0" stroke-width="0.0625"/>
    <line x1="0" y1="134.0" x2="297" y2="134.0" stroke="#b0d8b0" stroke-width="0.0625"/>
    <line x1="0" y1="135.0" x2="297" y2="135.0" stroke="#b0d8b0" stroke-width="0.0625"/>
    <line x1="0" y1="136.0" x2="297" y2="136.0" stroke="#b0d8b0" stroke-width="0.0625"/>
    <line x1="0" y1="137.0" x2="297" y2="137.0" stroke="#b0d8b0" stroke-width="0.0625"/>
    <line x1="0" y1="138.0" x2="297" y2="138.0" stroke="#b0d8b0" stroke-width="0.0625"/>
    <line x1="0" y1="139.0" x2="297" y2="139.0" stroke="#b0d8b0" stroke-width="0.0625"/>
    <line x1="0" y1="141.0" x2="297" y2="141.0" stroke="#b0d8b0" stroke-width="0.0625"/>
    <line x1="0" y1="142.0" x2="297" y2="142.0" stroke="#b0d8b0" stroke-width="0.0625"/>
    <line x1="0" y1="143.0" x2="297" y2="143.0" stroke="#b0d8b0" stroke-width="0.0625"/>
    <line x1="0" y1="144.0" x2="297" y2="144.0" stroke="#b0d8b0" stroke-width="0.0625"/>
    <line x1="0" y1="145.0" x2="297" y2="145.0" stroke="#b0d8b0" stroke-width="0.0625"/>
    <line x1="0" y1="146.0" x2="297" y2="146.0" stroke="#b0d8b0" stroke-width="0.0625"/>
    <line x1="0" y1="147.0" x2="297" y2="147.0" stroke="#b0d8b0" stroke-width="0.0625"/>
    <line x1="0" y1="148.0" x2="297" y2="148.0" stroke="#b0d8b0" stroke-width="0.0625"/>
    <line x1="0" y1="149.0" x2="297" y2="149.0" stroke="#b0d8b0" stroke-width="0.0625"/>
    <line x1="0" y1="151.0" x2="297" y2="151.0" stroke="#b0d8b0" stroke-width="0.0625"/>
    <line x1="0" y1="152.0" x2="297" y2="152.0" stroke="#b0d8b0" stroke-width="0.0625"/>
    <line x1="0" y1="153.0" x2="297" y2="153.0" stroke="#b0d8b0" stroke-width="0.0625"/>
    <line x1="0" y1="154.0" x2="297" y2="154.0" stroke="#b0d8b0" stroke-width="0.0625"/>
    <line x1="0" y1="155.0" x2="297" y2="155.0" stroke="#b0d8b0" stroke-width="0.0625"/>
    <line x1="0" y1="156.0" x2="297" y2="156.0" stroke="#b0d8b0" stroke-width="0.0625"/>
    <line x1="0" y1="157.0" x2="297" y2="157.0" stroke="#b0d8b0" stroke-width="0.0625"/>
    <line x1="0" y1="158.0" x2="297" y2="158.0" stroke="#b0d8b0" stroke-width="0.0625"/>
    <line x1="0" y1="159.0" x2="297" y2="159.0" stroke="#b0d8b0" stroke-width="0.0625"/>
    <line x1="0" y1="161.0" x2="297" y2="161.0" stroke="#b0d8b0" stroke-width="0.0625"/>
    <line x1="0" y1="162.0" x2="297" y2="162.0" stroke="#b0d8b0" stroke-width="0.0625"/>
    <line x1="0" y1="163.0" x2="297" y2="163.0" stroke="#b0d8b0" stroke-width="0.0625"/>
    <line x1="0" y1="164.0" x2="297" y2="164.0" stroke="#b0d8b0" stroke-width="0.0625"/>
    <line x1="0" y1="165.0" x2="297" y2="165.0" stroke="#b0d8b0" stroke-width="0.0625"/>
    <line x1="0" y1="166.0" x2="297" y2="166.0" stroke="#b0d8b0" stroke-width="0.0625"/>
    <line x1="0" y1="167.0" x2="297" y2="167.0" stroke="#b0d8b0" stroke-width="0.0625"/>
    <line x1="0" y1="168.0" x2="297" y2="168.0" stroke="#b0d8b0" stroke-width="0.0625"/>
    <line x1="0" y1="169.0" x2="297" y2="169.0" stroke="#b0d8b0" stroke-width="0.0625"/>
    <line x1="0" y1="171.0" x2="297" y2="171.0" stroke="#b0d8b0" stroke-width="0.0625"/>
    <line x1="0" y1="172.0" x2="297" y2="172.0" stroke="#b0d8b0" stroke-width="0.0625"/>
    <line x1="0" y1="173.0" x2="297" y2="173.0" stroke="#b0d8b0" stroke-width="0.0625"/>
    <line x1="0" y1="174.0" x2="297" y2="174.0" stroke="#b0d8b0" stroke-width="0.0625"/>
    <line x1="0" y1="175.0" x2="297" y2="175.0" stroke="#b0d8b0" stroke-width="0.0625"/>
    <line x1="0" y1="176.0" x2="297" y2="176.0" stroke="#b0d8b0" stroke-width="0.0625"/>
    <line x1="0" y1="177.0" x2="297" y2="177.0" stroke="#b0d8b0" stroke-width="0.0625"/>
    <line x1="0" y1="178.0" x2="297" y2="178.0" stroke="#b0d8b0" stroke-width="0.0625"/>
    <line x1="0" y1="179.0" x2="297" y2="179.0" stroke="#b0d8b0" stroke-width="0.0625"/>
    <line x1="0" y1="181.0" x2="297" y2="181.0" stroke="#b0d8b0" stroke-width="0.0625"/>
    <line x1="0" y1="182.0" x2="297" y2="182.0" stroke="#b0d8b0" stroke-width="0.0625"/>
    <line x1="0" y1="183.0" x2="297" y2="183.0" stroke="#b0d8b0" stroke-width="0.0625"/>
    <line x1="0" y1="184.0" x2="297" y2="184.0" stroke="#b0d8b0" stroke-width="0.0625"/>
    <line x1="0" y1="185.0" x2="297" y2="185.0" stroke="#b0d8b0" stroke-width="0.0625"/>
    <line x1="0" y1="186.0" x2="297" y2="186.0" stroke="#b0d8b0" stroke-width="0.0625"/>
    <line x1="0" y1="187.0" x2="297" y2="187.0" stroke="#b0d8b0" stroke-width="0.0625"/>
    <line x1="0" y1="188.0" x2="297" y2="188.0" stroke="#b0d8b0" stroke-width="0.0625"/>
    <line x1="0" y1="189.0" x2="297" y2="189.0" stroke="#b0d8b0" stroke-width="0.0625"/>
    <line x1="0" y1="191.0" x2="297" y2="191.0" stroke="#b0d8b0" stroke-width="0.0625"/>
    <line x1="0" y1="192.0" x2="297" y2="192.0" stroke="#b0d8b0" stroke-width="0.0625"/>
    <line x1="0" y1="193.0" x2="297" y2="193.0" stroke="#b0d8b0" stroke-width="0.0625"/>
    <line x1="0" y1="194.0" x2="297" y2="194.0" stroke="#b0d8b0" stroke-width="0.0625"/>
    <line x1="0" y1="195.0" x2="297" y2="195.0" stroke="#b0d8b0" stroke-width="0.0625"/>
    <line x1="0" y1="196.0" x2="297" y2="196.0" stroke="#b0d8b0" stroke-width="0.0625"/>
    <line x1="0" y1="197.0" x2="297" y2="197.0" stroke="#b0d8b0" stroke-width="0.0625"/>
    <line x1="0" y1="198.0" x2="297" y2="198.0" stroke="#b0d8b0" stroke-width="0.0625"/>
    <line x1="0" y1="199.0" x2="297" y2="199.0" stroke="#b0d8b0" stroke-width="0.0625"/>
    <line x1="0" y1="201.0" x2="297" y2="201.0" stroke="#b0d8b0" stroke-width="0.0625"/>
    <line x1="0" y1="202.0" x2="297" y2="202.0" stroke="#b0d8b0" stroke-width="0.0625"/>
    <line x1="0" y1="203.0" x2="297" y2="203.0" stroke="#b0d8b0" stroke-width="0.0625"/>
    <line x1="0" y1="204.0" x2="297" y2="204.0" stroke="#b0d8b0" stroke-width="0.0625"/>
    <line x1="0" y1="205.0" x2="297" y2="205.0" stroke="#b0d8b0" stroke-width="0.0625"/>
    <line x1="0" y1="206.0" x2="297" y2="206.0" stroke="#b0d8b0" stroke-width="0.0625"/>
    <line x1="0" y1="207.0" x2="297" y2="207.0" stroke="#b0d8b0" stroke-width="0.0625"/>
    <line x1="0" y1="208.0" x2="297" y2="208.0" stroke="#b0d8b0" stroke-width="0.0625"/>
    <line x1="0" y1="209.0" x2="297" y2="209.0" stroke="#b0d8b0" stroke-width="0.0625"/>
    <line x1="0" y1="211.0" x2="297" y2="211.0" stroke="#b0d8b0" stroke-width="0.0625"/>
    <line x1="0" y1="212.0" x2="297" y2="212.0" stroke="#b0d8b0" stroke-width="0.0625"/>
    <line x1="0" y1="213.0" x2="297" y2="213.0" stroke="#b0d8b0" stroke-width="0.0625"/>
    <line x1="0" y1="214.0" x2="297" y2="214.0" stroke="#b0d8b0" stroke-width="0.0625"/>
    <line x1="0" y1="215.0" x2="297" y2="215.0" stroke="#b0d8b0" stroke-width="0.0625"/>
    <line x1="0" y1="216.0" x2="297" y2="216.0" stroke="#b0d8b0" stroke-width="0.0625"/>
    <line x1="0" y1="217.0" x2="297" y2="217.0" stroke="#b0d8b0" stroke-width="0.0625"/>
    <line x1="0" y1="218.0" x2="297" y2="218.0" stroke="#b0d8b0" stroke-width="0.0625"/>
    <line x1="0" y1="219.0" x2="297" y2="219.0" stroke="#b0d8b0" stroke-width="0.0625"/>
    <line x1="0" y1="221.0" x2="297" y2="221.0" stroke="#b0d8b0" stroke-width="0.0625"/>
    <line x1="0" y1="222.0" x2="297" y2="222.0" stroke="#b0d8b0" stroke-width="0.0625"/>
    <line x1="0" y1="223.0" x2="297" y2="223.0" stroke="#b0d8b0" stroke-width="0.0625"/>
    <line x1="0" y1="224.0" x2="297" y2="224.0" stroke="#b0d8b0" stroke-width="0.0625"/>
    <line x1="0" y1="225.0" x2="297" y2="225.0" stroke="#b0d8b0" stroke-width="0.0625"/>
    <line x1="0" y1="226.0" x2="297" y2="226.0" stroke="#b0d8b0" stroke-width="0.0625"/>
    <line x1="0" y1="227.0" x2="297" y2="227.0" stroke="#b0d8b0" stroke-width="0.0625"/>
    <line x1="0" y1="228.0" x2="297" y2="228.0" stroke="#b0d8b0" stroke-width="0.0625"/>
    <line x1="0" y1="229.0" x2="297" y2="229.0" stroke="#b0d8b0" stroke-width="0.0625"/>
    <line x1="0" y1="231.0" x2="297" y2="231.0" stroke="#b0d8b0" stroke-width="0.0625"/>
    <line x1="0" y1="232.0" x2="297" y2="232.0" stroke="#b0d8b0" stroke-width="0.0625"/>
    <line x1="0" y1="233.0" x2="297" y2="233.0" stroke="#b0d8b0" stroke-width="0.0625"/>
    <line x1="0" y1="234.0" x2="297" y2="234.0" stroke="#b0d8b0" stroke-width="0.0625"/>
    <line x1="0" y1="235.0" x2="297" y2="235.0" stroke="#b0d8b0" stroke-width="0.0625"/>
    <line x1="0" y1="236.0" x2="297" y2="236.0" stroke="#b0d8b0" stroke-width="0.0625"/>
    <line x1="0" y1="237.0" x2="297" y2="237.0" stroke="#b0d8b0" stroke-width="0.0625"/>
    <line x1="0" y1="238.0" x2="297" y2="238.0" stroke="#b0d8b0" stroke-width="0.0625"/>
    <line x1="0" y1="239.0" x2="297" y2="239.0" stroke="#b0d8b0" stroke-width="0.0625"/>
    <line x1="0" y1="241.0" x2="297" y2="241.0" stroke="#b0d8b0" stroke-width="0.0625"/>
    <line x1="0" y1="242.0" x2="297" y2="242.0" stroke="#b0d8b0" stroke-width="0.0625"/>
    <line x1="0" y1="243.0" x2="297" y2="243.0" stroke="#b0d8b0" stroke-width="0.0625"/>
    <line x1="0" y1="244.0" x2="297" y2="244.0" stroke="#b0d8b0" stroke-width="0.0625"/>
    <line x1="0" y1="245.0" x2="297" y2="245.0" stroke="#b0d8b0" stroke-width="0.0625"/>
    <line x1="0" y1="246.0" x2="297" y2="246.0" stroke="#b0d8b0" stroke-width="0.0625"/>
    <line x1="0" y1="247.0" x2="297" y2="247.0" stroke="#b0d8b0" stroke-width="0.0625"/>
    <line x1="0" y1="248.0" x2="297" y2="248.0" stroke="#b0d8b0" stroke-width="0.0625"/>
    <line x1="0" y1="249.0" x2="297" y2="249.0" stroke="#b0d8b0" stroke-width="0.0625"/>
    <line x1="0" y1="251.0" x2="297" y2="251.0" stroke="#b0d8b0" stroke-width="0.0625"/>
    <line x1="0" y1="252.0" x2="297" y2="252.0" stroke="#b0d8b0" stroke-width="0.0625"/>
    <line x1="0" y1="253.0" x2="297" y2="253.0" stroke="#b0d8b0" stroke-width="0.0625"/>
    <line x1="0" y1="254.0" x2="297" y2="254.0" stroke="#b0d8b0" stroke-width="0.0625"/>
    <line x1="0" y1="255.0" x2="297" y2="255.0" stroke="#b0d8b0" stroke-width="0.0625"/>
    <line x1="0" y1="256.0" x2="297" y2="256.0" stroke="#b0d8b0" stroke-width="0.0625"/>
    <line x1="0" y1="257.0" x2="297" y2="257.0" stroke="#b0d8b0" stroke-width="0.0625"/>
    <line x1="0" y1="258.0" x2="297" y2="258.0" stroke="#b0d8b0" stroke-width="0.0625"/>
    <line x1="0" y1="259.0" x2="297" y2="259.0" stroke="#b0d8b0" stroke-width="0.0625"/>
    <line x1="0" y1="261.0" x2="297" y2="261.0" stroke="#b0d8b0" stroke-width="0.0625"/>
    <line x1="0" y1="262.0" x2="297" y2="262.0" stroke="#b0d8b0" stroke-width="0.0625"/>
    <line x1="0" y1="263.0" x2="297" y2="263.0" stroke="#b0d8b0" stroke-width="0.0625"/>
    <line x1="0" y1="264.0" x2="297" y2="264.0" stroke="#b0d8b0" stroke-width="0.0625"/>
    <line x1="0" y1="265.0" x2="297" y2="265.0" stroke="#b0d8b0" stroke-width="0.0625"/>
    <line x1="0" y1="266.0" x2="297" y2="266.0" stroke="#b0d8b0" stroke-width="0.0625"/>
    <line x1="0" y1="267.0" x2="297" y2="267.0" stroke="#b0d8b0" stroke-width="0.0625"/>
    <line x1="0" y1="268.0" x2="297" y2="268.0" stroke="#b0d8b0" stroke-width="0.0625"/>
    <line x1="0" y1="269.0" x2="297" y2="269.0" stroke="#b0d8b0" stroke-width="0.0625"/>
    <line x1="0" y1="271.0" x2="297" y2="271.0" stroke="#b0d8b0" stroke-width="0.0625"/>
    <line x1="0" y1="272.0" x2="297" y2="272.0" stroke="#b0d8b0" stroke-width="0.0625"/>
    <line x1="0" y1="273.0" x2="297" y2="273.0" stroke="#b0d8b0" stroke-width="0.0625"/>
    <line x1="0" y1="274.0" x2="297" y2="274.0" stroke="#b0d8b0" stroke-width="0.0625"/>
    <line x1="0" y1="275.0" x2="297" y2="275.0" stroke="#b0d8b0" stroke-width="0.0625"/>
    <line x1="0" y1="276.0" x2="297" y2="276.0" stroke="#b0d8b0" stroke-width="0.0625"/>
    <line x1="0" y1="277.0" x2="297" y2="277.0" stroke="#b0d8b0" stroke-width="0.0625"/>
    <line x1="0" y1="278.0" x2="297" y2="278.0" stroke="#b0d8b0" stroke-width="0.0625"/>
    <line x1="0" y1="279.0" x2="297" y2="279.0" stroke="#b0d8b0" stroke-width="0.0625"/>
    <line x1="0" y1="281.0" x2="297" y2="281.0" stroke="#b0d8b0" stroke-width="0.0625"/>
    <line x1="0" y1="282.0" x2="297" y2="282.0" stroke="#b0d8b0" stroke-width="0.0625"/>
    <line x1="0" y1="283.0" x2="297" y2="283.0" stroke="#b0d8b0" stroke-width="0.0625"/>
    <line x1="0" y1="284.0" x2="297" y2="284.0" stroke="#b0d8b0" stroke-width="0.0625"/>
    <line x1="0" y1="285.0" x2="297" y2="285.0" stroke="#b0d8b0" stroke-width="0.0625"/>
    <line x1="0" y1="286.0" x2="297" y2="286.0" stroke="#b0d8b0" stroke-width="0.0625"/>
    <line x1="0" y1="287.0" x2="297" y2="287.0" stroke="#b0d8b0" stroke-width="0.0625"/>
    <line x1="0" y1="288.0" x2="297" y2="288.0" stroke="#b0d8b0" stroke-width="0.0625"/>
    <line x1="0" y1="289.0" x2="297" y2="289.0" stroke="#b0d8b0" stroke-width="0.0625"/>
    <line x1="0" y1="291.0" x2="297" y2="291.0" stroke="#b0d8b0" stroke-width="0.0625"/>
    <line x1="0" y1="292.0" x2="297" y2="292.0" stroke="#b0d8b0" stroke-width="0.0625"/>
    <line x1="0" y1="293.0" x2="297" y2="293.0" stroke="#b0d8b0" stroke-width="0.0625"/>
    <line x1="0" y1="294.0" x2="297" y2="294.0" stroke="#b0d8b0" stroke-width="0.0625"/>
    <line x1="0" y1="295.0" x2="297" y2="295.0" stroke="#b0d8b0" stroke-width="0.0625"/>
    <line x1="0" y1="296.0" x2="297" y2="296.0" stroke="#b0d8b0" stroke-width="0.0625"/>
    <line x1="0" y1="297.0" x2="297" y2="297.0" stroke="#b0d8b0" stroke-width="0.0625"/>
    <line x1="0" y1="298.0" x2="297" y2="298.0" stroke="#b0d8b0" stroke-width="0.0625"/>
    <line x1="0" y1="299.0" x2="297" y2="299.0" stroke="#b0d8b0" stroke-width="0.0625"/>
    <line x1="0" y1="301.0" x2="297" y2="301.0" stroke="#b0d8b0" stroke-width="0.0625"/>
    <line x1="0" y1="302.0" x2="297" y2="302.0" stroke="#b0d8b0" stroke-width="0.0625"/>
    <line x1="0" y1="303.0" x2="297" y2="303.0" stroke="#b0d8b0" stroke-width="0.0625"/>
    <line x1="0" y1="304.0" x2="297" y2="304.0" stroke="#b0d8b0" stroke-width="0.0625"/>
    <line x1="0" y1="305.0" x2="297" y2="305.0" stroke="#b0d8b0" stroke-width="0.0625"/>
    <line x1="0" y1="306.0" x2="297" y2="306.0" stroke="#b0d8b0" stroke-width="0.0625"/>
    <line x1="0" y1="307.0" x2="297" y2="307.0" stroke="#b0d8b0" stroke-width="0.0625"/>
    <line x1="0" y1="308.0" x2="297" y2="308.0" stroke="#b0d8b0" stroke-width="0.0625"/>
    <line x1="0" y1="309.0" x2="297" y2="309.0" stroke="#b0d8b0" stroke-width="0.0625"/>
    <line x1="0" y1="311.0" x2="297" y2="311.0" stroke="#b0d8b0" stroke-width="0.0625"/>
    <line x1="0" y1="312.0" x2="297" y2="312.0" stroke="#b0d8b0" stroke-width="0.0625"/>
    <line x1="0" y1="313.0" x2="297" y2="313.0" stroke="#b0d8b0" stroke-width="0.0625"/>
    <line x1="0" y1="314.0" x2="297" y2="314.0" stroke="#b0d8b0" stroke-width="0.0625"/>
    <line x1="0" y1="315.0" x2="297" y2="315.0" stroke="#b0d8b0" stroke-width="0.0625"/>
    <line x1="0" y1="316.0" x2="297" y2="316.0" stroke="#b0d8b0" stroke-width="0.0625"/>
    <line x1="0" y1="317.0" x2="297" y2="317.0" stroke="#b0d8b0" stroke-width="0.0625"/>
    <line x1="0" y1="318.0" x2="297" y2="318.0" stroke="#b0d8b0" stroke-width="0.0625"/>
    <line x1="0" y1="319.0" x2="297" y2="319.0" stroke="#b0d8b0" stroke-width="0.0625"/>
    <line x1="0" y1="321.0" x2="297" y2="321.0" stroke="#b0d8b0" stroke-width="0.0625"/>
    <line x1="0" y1="322.0" x2="297" y2="322.0" stroke="#b0d8b0" stroke-width="0.0625"/>
    <line x1="0" y1="323.0" x2="297" y2="323.0" stroke="#b0d8b0" stroke-width="0.0625"/>
    <line x1="0" y1="324.0" x2="297" y2="324.0" stroke="#b0d8b0" stroke-width="0.0625"/>
    <line x1="0" y1="325.0" x2="297" y2="325.0" stroke="#b0d8b0" stroke-width="0.0625"/>
    <line x1="0" y1="326.0" x2="297" y2="326.0" stroke="#b0d8b0" stroke-width="0.0625"/>
    <line x1="0" y1="327.0" x2="297" y2="327.0" stroke="#b0d8b0" stroke-width="0.0625"/>
    <line x1="0" y1="328.0" x2="297" y2="328.0" stroke="#b0d8b0" stroke-width="0.0625"/>
    <line x1="0" y1="329.0" x2="297" y2="329.0" stroke="#b0d8b0" stroke-width="0.0625"/>
    <line x1="0" y1="331.0" x2="297" y2="331.0" stroke="#b0d8b0" stroke-width="0.0625"/>
    <line x1="0" y1="332.0" x2="297" y2="332.0" stroke="#b0d8b0" stroke-width="0.0625"/>
    <line x1="0" y1="333.0" x2="297" y2="333.0" stroke="#b0d8b0" stroke-width="0.0625"/>
    <line x1="0" y1="334.0" x2="297" y2="334.0" stroke="#b0d8b0" stroke-width="0.0625"/>
    <line x1="0" y1="335.0" x2="297" y2="335.0" stroke="#b0d8b0" stroke-width="0.0625"/>
    <line x1="0" y1="336.0" x2="297" y2="336.0" stroke="#b0d8b0" stroke-width="0.0625"/>
    <line x1="0" y1="337.0" x2="297" y2="337.0" stroke="#b0d8b0" stroke-width="0.0625"/>
    <line x1="0" y1="338.0" x2="297" y2="338.0" stroke="#b0d8b0" stroke-width="0.0625"/>
    <line x1="0" y1="339.0" x2="297" y2="339.0" stroke="#b0d8b0" stroke-width="0.0625"/>
    <line x1="0" y1="341.0" x2="297" y2="341.0" stroke="#b0d8b0" stroke-width="0.0625"/>
    <line x1="0" y1="342.0" x2="297" y2="342.0" stroke="#b0d8b0" stroke-width="0.0625"/>
    <line x1="0" y1="343.0" x2="297" y2="343.0" stroke="#b0d8b0" stroke-width="0.0625"/>
    <line x1="0" y1="344.0" x2="297" y2="344.0" stroke="#b0d8b0" stroke-width="0.0625"/>
    <line x1="0" y1="345.0" x2="297" y2="345.0" stroke="#b0d8b0" stroke-width="0.0625"/>
    <line x1="0" y1="346.0" x2="297" y2="346.0" stroke="#b0d8b0" stroke-width="0.0625"/>
    <line x1="0" y1="347.0" x2="297" y2="347.0" stroke="#b0d8b0" stroke-width="0.0625"/>
    <line x1="0" y1="348.0" x2="297" y2="348.0" stroke="#b0d8b0" stroke-width="0.0625"/>
    <line x1="0" y1="349.0" x2="297" y2="349.0" stroke="#b0d8b0" stroke-width="0.0625"/>
    <line x1="0" y1="351.0" x2="297" y2="351.0" stroke="#b0d8b0" stroke-width="0.0625"/>
    <line x1="0" y1="352.0" x2="297" y2="352.0" stroke="#b0d8b0" stroke-width="0.0625"/>
    <line x1="0" y1="353.0" x2="297" y2="353.0" stroke="#b0d8b0" stroke-width="0.0625"/>
    <line x1="0" y1="354.0" x2="297" y2="354.0" stroke="#b0d8b0" stroke-width="0.0625"/>
    <line x1="0" y1="355.0" x2="297" y2="355.0" stroke="#b0d8b0" stroke-width="0.0625"/>
    <line x1="0" y1="356.0" x2="297" y2="356.0" stroke="#b0d8b0" stroke-width="0.0625"/>
    <line x1="0" y1="357.0" x2="297" y2="357.0" stroke="#b0d8b0" stroke-width="0.0625"/>
    <line x1="0" y1="358.0" x2="297" y2="358.0" stroke="#b0d8b0" stroke-width="0.0625"/>
    <line x1="0" y1="359.0" x2="297" y2="359.0" stroke="#b0d8b0" stroke-width="0.0625"/>
    <line x1="0" y1="361.0" x2="297" y2="361.0" stroke="#b0d8b0" stroke-width="0.0625"/>
    <line x1="0" y1="362.0" x2="297" y2="362.0" stroke="#b0d8b0" stroke-width="0.0625"/>
    <line x1="0" y1="363.0" x2="297" y2="363.0" stroke="#b0d8b0" stroke-width="0.0625"/>
    <line x1="0" y1="364.0" x2="297" y2="364.0" stroke="#b0d8b0" stroke-width="0.0625"/>
    <line x1="0" y1="365.0" x2="297" y2="365.0" stroke="#b0d8b0" stroke-width="0.0625"/>
    <line x1="0" y1="366.0" x2="297" y2="366.0" stroke="#b0d8b0" stroke-width="0.0625"/>
    <line x1="0" y1="367.0" x2="297" y2="367.0" stroke="#b0d8b0" stroke-width="0.0625"/>
    <line x1="0" y1="368.0" x2="297" y2="368.0" stroke="#b0d8b0" stroke-width="0.0625"/>
    <line x1="0" y1="369.0" x2="297" y2="369.0" stroke="#b0d8b0" stroke-width="0.0625"/>
    <line x1="0" y1="371.0" x2="297" y2="371.0" stroke="#b0d8b0" stroke-width="0.0625"/>
    <line x1="0" y1="372.0" x2="297" y2="372.0" stroke="#b0d8b0" stroke-width="0.0625"/>
    <line x1="0" y1="373.0" x2="297" y2="373.0" stroke="#b0d8b0" stroke-width="0.0625"/>
    <line x1="0" y1="374.0" x2="297" y2="374.0" stroke="#b0d8b0" stroke-width="0.0625"/>
    <line x1="0" y1="375.0" x2="297" y2="375.0" stroke="#b0d8b0" stroke-width="0.0625"/>
    <line x1="0" y1="376.0" x2="297" y2="376.0" stroke="#b0d8b0" stroke-width="0.0625"/>
    <line x1="0" y1="377.0" x2="297" y2="377.0" stroke="#b0d8b0" stroke-width="0.0625"/>
    <line x1="0" y1="378.0" x2="297" y2="378.0" stroke="#b0d8b0" stroke-width="0.0625"/>
    <line x1="0" y1="379.0" x2="297" y2="379.0" stroke="#b0d8b0" stroke-width="0.0625"/>
    <line x1="0" y1="381.0" x2="297" y2="381.0" stroke="#b0d8b0" stroke-width="0.0625"/>
    <line x1="0" y1="382.0" x2="297" y2="382.0" stroke="#b0d8b0" stroke-width="0.0625"/>
    <line x1="0" y1="383.0" x2="297" y2="383.0" stroke="#b0d8b0" stroke-width="0.0625"/>
    <line x1="0" y1="384.0" x2="297" y2="384.0" stroke="#b0d8b0" stroke-width="0.0625"/>
    <line x1="0" y1="385.0" x2="297" y2="385.0" stroke="#b0d8b0" stroke-width="0.0625"/>
    <line x1="0" y1="386.0" x2="297" y2="386.0" stroke="#b0d8b0" stroke-width="0.0625"/>
    <line x1="0" y1="387.0" x2="297" y2="387.0" stroke="#b0d8b0" stroke-width="0.0625"/>
    <line x1="0" y1="388.0" x2="297" y2="388.0" stroke="#b0d8b0" stroke-width="0.0625"/>
    <line x1="0" y1="389.0" x2="297" y2="389.0" stroke="#b0d8b0" stroke-width="0.0625"/>
    <line x1="0" y1="391.0" x2="297" y2="391.0" stroke="#b0d8b0" stroke-width="0.0625"/>
    <line x1="0" y1="392.0" x2="297" y2="392.0" stroke="#b0d8b0" stroke-width="0.0625"/>
    <line x1="0" y1="393.0" x2="297" y2="393.0" stroke="#b0d8b0" stroke-width="0.0625"/>
    <line x1="0" y1="394.0" x2="297" y2="394.0" stroke="#b0d8b0" stroke-width="0.0625"/>
    <line x1="0" y1="395.0" x2="297" y2="395.0" stroke="#b0d8b0" stroke-width="0.0625"/>
    <line x1="0" y1="396.0" x2="297" y2="396.0" stroke="#b0d8b0" stroke-width="0.0625"/>
    <line x1="0" y1="397.0" x2="297" y2="397.0" stroke="#b0d8b0" stroke-width="0.0625"/>
    <line x1="0" y1="398.0" x2="297" y2="398.0" stroke="#b0d8b0" stroke-width="0.0625"/>
    <line x1="0" y1="399.0" x2="297" y2="399.0" stroke="#b0d8b0" stroke-width="0.0625"/>
    <line x1="0" y1="401.0" x2="297" y2="401.0" stroke="#b0d8b0" stroke-width="0.0625"/>
    <line x1="0" y1="402.0" x2="297" y2="402.0" stroke="#b0d8b0" stroke-width="0.0625"/>
    <line x1="0" y1="403.0" x2="297" y2="403.0" stroke="#b0d8b0" stroke-width="0.0625"/>
    <line x1="0" y1="404.0" x2="297" y2="404.0" stroke="#b0d8b0" stroke-width="0.0625"/>
    <line x1="0" y1="405.0" x2="297" y2="405.0" stroke="#b0d8b0" stroke-width="0.0625"/>
    <line x1="0" y1="406.0" x2="297" y2="406.0" stroke="#b0d8b0" stroke-width="0.0625"/>
    <line x1="0" y1="407.0" x2="297" y2="407.0" stroke="#b0d8b0" stroke-width="0.0625"/>
    <line x1="0" y1="408.0" x2="297" y2="408.0" stroke="#b0d8b0" stroke-width="0.0625"/>
    <line x1="0" y1="409.0" x2="297" y2="409.0" stroke="#b0d8b0" stroke-width="0.0625"/>
    <line x1="0" y1="411.0" x2="297" y2="411.0" stroke="#b0d8b0" stroke-width="0.0625"/>
    <line x1="0" y1="412.0" x2="297" y2="412.0" stroke="#b0d8b0" stroke-width="0.0625"/>
    <line x1="0" y1="413.0" x2="297" y2="413.0" stroke="#b0d8b0" stroke-width="0.0625"/>
    <line x1="0" y1="414.0" x2="297" y2="414.0" stroke="#b0d8b0" stroke-width="0.0625"/>
    <line x1="0" y1="415.0" x2="297" y2="415.0" stroke="#b0d8b0" stroke-width="0.0625"/>
    <line x1="0" y1="416.0" x2="297" y2="416.0" stroke="#b0d8b0" stroke-width="0.0625"/>
    <line x1="0" y1="417.0" x2="297" y2="417.0" stroke="#b0d8b0" stroke-width="0.0625"/>
    <line x1="0" y1="418.0" x2="297" y2="418.0" stroke="#b0d8b0" stroke-width="0.0625"/>
    <line x1="0" y1="419.0" x2="297" y2="419.0" stroke="#b0d8b0" stroke-width="0.0625"/>
    <line x1="0" y1="0" x2="0" y2="420" stroke="#70b070" stroke-width="0.125"/>
    <line x1="10.0" y1="0" x2="10.0" y2="420" stroke="#70b070" stroke-width="0.125"/>
    <line x1="20.0" y1="0" x2="20.0" y2="420" stroke="#70b070" stroke-width="0.125"/>
    <line x1="30.0" y1="0" x2="30.0" y2="420" stroke="#70b070" stroke-width="0.125"/>
    <line x1="40.0" y1="0" x2="40.0" y2="420" stroke="#70b070" stroke-width="0.125"/>
    <line x1="50.0" y1="0" x2="50.0" y2="420" stroke="#70b070" stroke-width="0.125"/>
    <line x1="60.0" y1="0" x2="60.0" y2="420" stroke="#70b070" stroke-width="0.125"/>
    <line x1="70.0" y1="0" x2="70.0" y2="420" stroke="#70b070" stroke-width="0.125"/>
    <line x1="80.0" y1="0" x2="80.0" y2="420" stroke="#70b070" stroke-width="0.125"/>
    <line x1="90.0" y1="0" x2="90.0" y2="420" stroke="#70b070" stroke-width="0.125"/>
    <line x1="100.0" y1="0" x2="100.0" y2="420" stroke="#70b070" stroke-width="0.125"/>
    <line x1="110.0" y1="0" x2="110.0" y2="420" stroke="#70b070" stroke-width="0.125"/>
    <line x1="120.0" y1="0" x2="120.0" y2="420" stroke="#70b070" stroke-width="0.125"/>
    <line x1="130.0" y1="0" x2="130.0" y2="420" stroke="#70b070" stroke-width="0.125"/>
    <line x1="140.0" y1="0" x2="140.0" y2="420" stroke="#70b070" stroke-width="0.125"/>
    <line x1="150.0" y1="0" x2="150.0" y2="420" stroke="#70b070" stroke-width="0.125"/>
    <line x1="160.0" y1="0" x2="160.0" y2="420" stroke="#70b070" stroke-width="0.125"/>
    <line x1="170.0" y1="0" x2="170.0" y2="420" stroke="#70b070" stroke-width="0.125"/>
    <line x1="180.0" y1="0" x2="180.0" y2="420" stroke="#70b070" stroke-width="0.125"/>
    <line x1="190.0" y1="0" x2="190.0" y2="420" stroke="#70b070" stroke-width="0.125"/>
    <line x1="200.0" y1="0" x2="200.0" y2="420" stroke="#70b070" stroke-width="0.125"/>
    <line x1="210.0" y1="0" x2="210.0" y2="420" stroke="#70b070" stroke-width="0.125"/>
    <line x1="220.0" y1="0" x2="220.0" y2="420" stroke="#70b070" stroke-width="0.125"/>
    <line x1="230.0" y1="0" x2="230.0" y2="420" stroke="#70b070" stroke-width="0.125"/>
    <line x1="240.0" y1="0" x2="240.0" y2="420" stroke="#70b070" stroke-width="0.125"/>
    <line x1="250.0" y1="0" x2="250.0" y2="420" stroke="#70b070" stroke-width="0.125"/>
    <line x1="260.0" y1="0" x2="260.0" y2="420" stroke="#70b070" stroke-width="0.125"/>
    <line x1="270.0" y1="0" x2="270.0" y2="420" stroke="#70b070" stroke-width="0.125"/>
    <line x1="280.0" y1="0" x2="280.0" y2="420" stroke="#70b070" stroke-width="0.125"/>
    <line x1="290.0" y1="0" x2="290.0" y2="420" stroke="#70b070" stroke-width="0.125"/>
    <line x1="0" y1="0" x2="297" y2="0" stroke="#70b070" stroke-width="0.125"/>
    <line x1="0" y1="10.0" x2="297" y2="10.0" stroke="#70b070" stroke-width="0.125"/>
    <line x1="0" y1="20.0" x2="297" y2="20.0" stroke="#70b070" stroke-width="0.125"/>
    <line x1="0" y1="30.0" x2="297" y2="30.0" stroke="#70b070" stroke-width="0.125"/>
    <line x1="0" y1="40.0" x2="297" y2="40.0" stroke="#70b070" stroke-width="0.125"/>
    <line x1="0" y1="50.0" x2="297" y2="50.0" stroke="#70b070" stroke-width="0.125"/>
    <line x1="0" y1="60.0" x2="297" y2="60.0" stroke="#70b070" stroke-width="0.125"/>
    <line x1="0" y1="70.0" x2="297" y2="70.0" stroke="#70b070" stroke-width="0.125"/>
    <line x1="0" y1="80.0" x2="297" y2="80.0" stroke="#70b070" stroke-width="0.125"/>
    <line x1="0" y1="90.0" x2="297" y2="90.0" stroke="#70b070" stroke-width="0.125"/>
    <line x1="0" y1="100.0" x2="297" y2="100.0" stroke="#70b070" stroke-width="0.125"/>
    <line x1="0" y1="110.0" x2="297" y2="110.0" stroke="#70b070" stroke-width="0.125"/>
    <line x1="0" y1="120.0" x2="297" y2="120.0" stroke="#70b070" stroke-width="0.125"/>
    <line x1="0" y1="130.0" x2="297" y2="130.0" stroke="#70b070" stroke-width="0.125"/>
    <line x1="0" y1="140.0" x2="297" y2="140.0" stroke="#70b070" stroke-width="0.125"/>
    <line x1="0" y1="150.0" x2="297" y2="150.0" stroke="#70b070" stroke-width="0.125"/>
    <line x1="0" y1="160.0" x2="297" y2="160.0" stroke="#70b070" stroke-width="0.125"/>
    <line x1="0" y1="170.0" x2="297" y2="170.0" stroke="#70b070" stroke-width="0.125"/>
    <line x1="0" y1="180.0" x2="297" y2="180.0" stroke="#70b070" stroke-width="0.125"/>
    <line x1="0" y1="190.0" x2="297" y2="190.0" stroke="#70b070" stroke-width="0.125"/>
    <line x1="0" y1="200.0" x2="297" y2="200.0" stroke="#70b070" stroke-width="0.125"/>
    <line x1="0" y1="210.0" x2="297" y2="210.0" stroke="#70b070" stroke-width="0.125"/>
    <line x1="0" y1="220.0" x2="297" y2="220.0" stroke="#70b070" stroke-width="0.125"/>
    <line x1="0" y1="230.0" x2="297" y2="230.0" stroke="#70b070" stroke-width="0.125"/>
    <line x1="0" y1="240.0" x2="297" y2="240.0" stroke="#70b070" stroke-width="0.125"/>
    <line x1="0" y1="250.0" x2="297" y2="250.0" stroke="#70b070" stroke-width="0.125"/>
    <line x1="0" y1="260.0" x2="297" y2="260.0" stroke="#70b070" stroke-width="0.125"/>
    <line x1="0" y1="270.0" x2="297" y2="270.0" stroke="#70b070" stroke-width="0.125"/>
    <line x1="0" y1="280.0" x2="297" y2="280.0" stroke="#70b070" stroke-width="0.125"/>
    <line x1="0" y1="290.0" x2="297" y2="290.0" stroke="#70b070" stroke-width="0.125"/>
    <line x1="0" y1="300.0" x2="297" y2="300.0" stroke="#70b070" stroke-width="0.125"/>
    <line x1="0" y1="310.0" x2="297" y2="310.0" stroke="#70b070" stroke-width="0.125"/>
    <line x1="0" y1="320.0" x2="297" y2="320.0" stroke="#70b070" stroke-width="0.125"/>
    <line x1="0" y1="330.0" x2="297" y2="330.0" stroke="#70b070" stroke-width="0.125"/>
    <line x1="0" y1="340.0" x2="297" y2="340.0" stroke="#70b070" stroke-width="0.125"/>
    <line x1="0" y1="350.0" x2="297" y2="350.0" stroke="#70b070" stroke-width="0.125"/>
    <line x1="0" y1="360.0" x2="297" y2="360.0" stroke="#70b070" stroke-width="0.125"/>
    <line x1="0" y1="370.0" x2="297" y2="370.0" stroke="#70b070" stroke-width="0.125"/>
    <line x1="0" y1="380.0" x2="297" y2="380.0" stroke="#70b070" stroke-width="0.125"/>
    <line x1="0" y1="390.0" x2="297" y2="390.0" stroke="#70b070" stroke-width="0.125"/>
    <line x1="0" y1="400.0" x2="297" y2="400.0" stroke="#70b070" stroke-width="0.125"/>
    <line x1="0" y1="410.0" x2="297" y2="410.0" stroke="#70b070" stroke-width="0.125"/>
    <line x1="0" y1="420.0" x2="297" y2="420.0" stroke="#70b070" stroke-width="0.125"/>

    <!-- Quadrant dividers -->
    <line x1="148.5" y1="0" x2="148.5" y2="420" stroke="#cccccc" stroke-width="0.5"/>
    <line x1="0" y1="210.0" x2="297" y2="210.0" stroke="#cccccc" stroke-width="0.5"/>

    <!-- UL view: XZ -->
    <g>
      <g stroke="#cc8844" stroke-opacity="0.4" stroke-dasharray="2,2" stroke-width="0.8968965517241378" fill="none">
        <path d="M11.9655,212.0000 L10.8499,212.0000 L9.7482,212.0000 L8.6739,212.0000 L7.6415,212.0000 L6.6634,212.0000 L5.7520,212.0000 L4.9189,212.0000 L4.1740,212.0000 L3.5277,212.0000 L2.9871,212.0000 L2.5591,212.0000 L2.2496,212.0000 L2.0628,212.0000 L2.0000,212.0000 "/>
        <path d="M11.9655,216.9828 L10.8499,216.9828 L9.7482,216.9828 L8.6739,216.9828 L7.6415,216.9828 L6.6634,216.9828 L5.7520,216.9828 L4.9189,216.9828 L4.1740,216.9828 L3.5277,216.9828 L2.9871,216.9828 L2.5591,216.9828 L2.2496,216.9828 L2.0628,216.9828 L2.0000,216.9828 "/>
        <path d="M146.5000,212.0000 L146.4372,212.0000 L146.2504,212.0000 L145.9409,212.0000 L145.5129,212.0000 L144.9723,212.0000 L144.3260,212.0000 L143.5811,212.0000 L142.7480,212.0000 L141.8366,212.0000 L140.8585,212.0000 L139.8261,212.0000 L138.7518,212.0000 L137.6501,212.0000 L136.5345,212.0000 "/>
        <path d="M146.5000,216.9828 L146.4372,216.9828 L146.2504,216.9828 L145.9409,216.9828 L145.5129,216.9828 L144.9723,216.9828 L144.3260,216.9828 L143.5811,216.9828 L142.7480,216.9828 L141.8366,216.9828 L140.8585,216.9828 L139.8261,216.9828 L138.7518,216.9828 L137.6501,216.9828 L136.5345,216.9828 "/>
        <path d="M136.5345,212.0000 L11.9655,212.0000 "/>
        <path d="M140.2716,212.0000 L140.1779,212.0000 L139.9013,212.0000 L139.4564,212.0000 L138.8644,212.0000 L138.1559,212.0000 L137.3661,212.0000 L136.5345,212.0000 L135.7029,212.0000 L134.9131,212.0000 L134.2045,212.0000 L133.6126,212.0000 L133.1676,212.0000 L132.8911,212.0000 L132.7974,212.0000 "/>
        <path d="M132.7974,212.0000 L132.8911,212.0000 L133.1676,212.0000 L133.6126,212.0000 L134.2045,212.0000 L134.9131,212.0000 L135.7029,212.0000 L136.5345,212.0000 L137.3661,212.0000 L138.1559,212.0000 L138.8644,212.0000 L139.4564,212.0000 L139.9013,212.0000 L140.1779,212.0000 L140.2716,212.0000 "/>
        <path d="M15.7026,212.0000 L15.6089,212.0000 L15.3324,212.0000 L14.8874,212.0000 L14.2955,212.0000 L13.5869,212.0000 L12.7971,212.0000 L11.9655,212.0000 L11.1339,212.0000 L10.3441,212.0000 L9.6356,212.0000 L9.0436,212.0000 L8.5987,212.0000 L8.3221,212.0000 L8.2284,212.0000 "/>
        <path d="M8.2284,212.0000 L8.3221,212.0000 L8.5987,212.0000 L9.0436,212.0000 L9.6356,212.0000 L10.3441,212.0000 L11.1339,212.0000 L11.9655,212.0000 L12.7971,212.0000 L13.5869,212.0000 L14.2955,212.0000 L14.8874,212.0000 L15.3324,212.0000 L15.6089,212.0000 L15.7026,212.0000 "/>
        <path d="M136.5345,216.9828 L11.9655,216.9828 "/>
        <path d="M140.2716,216.9828 L140.1779,216.9828 L139.9013,216.9828 L139.4564,216.9828 L138.8644,216.9828 L138.1559,216.9828 L137.3661,216.9828 L136.5345,216.9828 L135.7029,216.9828 L134.9131,216.9828 L134.2045,216.9828 L133.6126,216.9828 L133.1676,216.9828 L132.8911,216.9828 L132.7974,216.9828 "/>
        <path d="M132.7974,216.9828 L132.8911,216.9828 L133.1676,216.9828 L133.6126,216.9828 L134.2045,216.9828 L134.9131,216.9828 L135.7029,216.9828 L136.5345,216.9828 L137.3661,216.9828 L138.1559,216.9828 L138.8644,216.9828 L139.4564,216.9828 L139.9013,216.9828 L140.1779,216.9828 L140.2716,216.9828 "/>
        <path d="M15.7026,216.9828 L15.6089,216.9828 L15.3324,216.9828 L14.8874,216.9828 L14.2955,216.9828 L13.5869,216.9828 L12.7971,216.9828 L11.9655,216.9828 L11.1339,216.9828 L10.3441,216.9828 L9.6356,216.9828 L9.0436,216.9828 L8.5987,216.9828 L8.3221,216.9828 L8.2284,216.9828 "/>
        <path d="M8.2284,216.9828 L8.3221,216.9828 L8.5987,216.9828 L9.0436,216.9828 L9.6356,216.9828 L10.3441,216.9828 L11.1339,216.9828 L11.9655,216.9828 L12.7971,216.9828 L13.5869,216.9828 L14.2955,216.9828 L14.8874,216.9828 L15.3324,216.9828 L15.6089,216.9828 L15.7026,216.9828 "/>
        <path d="M140.2716,212.0000 L140.2716,216.9828 "/>
        <path d="M15.7026,212.0000 L15.7026,216.9828 "/>
        <path d="M132.7974,216.9828 L132.7974,212.0000 "/>
        <path d="M8.2284,216.9828 L8.2284,212.0000 "/>
      </g>
      <g stroke="#cc8844" stroke-width="1.4948275862068965" fill="none">
        <path d="M11.9655,212.0000 L136.5345,212.0000 "/>
        <path d="M11.9655,216.9828 L136.5345,216.9828 "/>
        <path d="M2.0000,212.0000 L2.0628,212.0000 L2.2496,212.0000 L2.5591,212.0000 L2.9871,212.0000 L3.5277,212.0000 L4.1740,212.0000 L4.9189,212.0000 L5.7520,212.0000 L6.6634,212.0000 L7.6415,212.0000 L8.6739,212.0000 L9.7482,212.0000 L10.8499,212.0000 L11.9655,212.0000 "/>
        <path d="M2.0000,216.9828 L2.0628,216.9828 L2.2496,216.9828 L2.5591,216.9828 L2.9871,216.9828 L3.5277,216.9828 L4.1740,216.9828 L4.9189,216.9828 L5.7520,216.9828 L6.6634,216.9828 L7.6415,216.9828 L8.6739,216.9828 L9.7482,216.9828 L10.8499,216.9828 L11.9655,216.9828 "/>
        <path d="M136.5345,212.0000 L137.6501,212.0000 L138.7518,212.0000 L139.8261,212.0000 L140.8585,212.0000 L141.8366,212.0000 L142.7480,212.0000 L143.5811,212.0000 L144.3260,212.0000 L144.9723,212.0000 L145.5129,212.0000 L145.9409,212.0000 L146.2504,212.0000 L146.4372,212.0000 L146.5000,212.0000 "/>
        <path d="M136.5345,216.9828 L137.6501,216.9828 L138.7518,216.9828 L139.8261,216.9828 L140.8585,216.9828 L141.8366,216.9828 L142.7480,216.9828 L143.5811,216.9828 L144.3260,216.9828 L144.9723,216.9828 L145.5129,216.9828 L145.9409,216.9828 L146.2504,216.9828 L146.4372,216.9828 L146.5000,216.9828 "/>
        <path d="M11.9655,212.0000 L11.9655,216.9828 "/>
        <path d="M136.5345,212.0000 L136.5345,216.9828 "/>
        <path d="M2.0000,216.9828 L2.0000,212.0000 "/>
        <path d="M146.5000,216.9828 L146.5000,212.0000 "/>
      </g>
    </g>
    <!-- LL view: XY -->
    <g>
      <g stroke="#cc8844" stroke-opacity="0.4" stroke-dasharray="2,2" stroke-width="0.8968965517241378" fill="none">
        <path d="M11.9655,21.9310 L136.5345,21.9310 "/>
        <path d="M11.9655,2.0000 L11.3397,2.0194 L10.7163,2.0787 L10.0980,2.1764 L9.4871,2.3129 L8.8862,2.4878 L8.2972,2.6996 L7.7222,2.9482 L7.1646,3.2327 L6.6255,3.5511 L6.1078,3.9034 L5.6135,4.2871 L5.1436,4.7012 L4.7012,5.1436 L4.2871,5.6135 L3.9034,6.1078 L3.5511,6.6255 L3.2327,7.1646 L2.9482,7.7222 L2.6996,8.2972 L2.4878,8.8862 L2.3129,9.4871 L2.1764,10.0980 L2.0787,10.7163 L2.0194,11.3397 L2.0000,11.9655 L2.0194,12.5914 L2.0787,13.2147 L2.1764,13.8331 L2.3129,14.4439 L2.4878,15.0449 L2.6996,15.6338 L2.9482,16.2088 L3.2327,16.7664 L3.5511,17.3055 L3.9034,17.8232 L4.2871,18.3175 L4.7012,18.7874 L5.1436,19.2299 L5.6135,19.6439 L6.1078,20.0276 L6.6255,20.3799 L7.1646,20.6983 L7.7222,20.9828 L8.2972,21.2315 L8.8862,21.4432 L9.4871,21.6181 L10.0980,21.7546 L10.7163,21.8523 L11.3397,21.9116 L11.9655,21.9310 "/>
        <path d="M136.5345,21.9310 L137.1603,21.9116 L137.7837,21.8523 L138.4020,21.7546 L139.0129,21.6181 L139.6138,21.4432 L140.2028,21.2315 L140.7778,20.9828 L141.3354,20.6983 L141.8745,20.3799 L142.3922,20.0276 L142.8865,19.6439 L143.3564,19.2299 L143.7988,18.7874 L144.2129,18.3175 L144.5966,17.8232 L144.9489,17.3055 L145.2673,16.7664 L145.5518,16.2088 L145.8004,15.6338 L146.0122,15.0449 L146.1871,14.4439 L146.3236,13.8331 L146.4213,13.2147 L146.4806,12.5914 L146.5000,11.9655 L146.4806,11.3397 L146.4213,10.7163 L146.3236,10.0980 L146.1871,9.4871 L146.0122,8.8862 L145.8004,8.2972 L145.5518,7.7222 L145.2673,7.1646 L144.9489,6.6255 L144.5966,6.1078 L144.2129,5.6135 L143.7988,5.1436 L143.3564,4.7012 L142.8865,4.2871 L142.3922,3.9034 L141.8745,3.5511 L141.3354,3.2327 L140.7778,2.9482 L140.2028,2.6996 L139.6138,2.4878 L139.0129,2.3129 L138.4020,2.1764 L137.7837,2.0787 L137.1603,2.0194 L136.5345,2.0000 "/>
        <path d="M136.5345,2.0000 L11.9655,2.0000 "/>
        <path d="M140.2716,11.9655 L140.2516,12.3497 L140.1923,12.7299 L140.0947,13.1021 L139.9586,13.4618 L139.7867,13.8061 L139.5804,14.1310 L139.3413,14.4325 L139.0732,14.7080 L138.7777,14.9547 L138.4583,15.1694 L138.1185,15.3503 L137.7622,15.4953 L137.3930,15.6024 L137.0143,15.6717 L136.6307,15.7016 L136.2460,15.6916 L135.8643,15.6418 L135.4901,15.5536 L135.1269,15.4270 L134.7781,15.2641 L134.4482,15.0663 L134.1408,14.8351 L133.8582,14.5740 L133.6041,14.2850 L133.3814,13.9711 L133.1916,13.6362 L133.0376,13.2840 L132.9205,12.9172 L132.8418,12.5405 L132.8024,12.1579 L132.8024,11.7732 L132.8418,11.3905 L132.9205,11.0138 L133.0376,10.6471 L133.1916,10.2948 L133.3814,9.9600 L133.6041,9.6460 L133.8582,9.3570 L134.1408,9.0959 L134.4482,8.8647 L134.7781,8.6669 L135.1269,8.5040 L135.4901,8.3774 L135.8643,8.2892 L136.2460,8.2394 L136.6307,8.2294 L137.0143,8.2593 L137.3930,8.3286 L137.7622,8.4357 L138.1185,8.5807 L138.4583,8.7616 L138.7777,8.9764 L139.0732,9.2230 L139.3413,9.4986 L139.5804,9.8000 L139.7867,10.1249 L139.9586,10.4692 L140.0947,10.8289 L140.1923,11.2012 L140.2516,11.5813 L140.2716,11.9655 "/>
        <path d="M15.7026,11.9655 L15.6827,12.3497 L15.6234,12.7299 L15.5257,13.1021 L15.3897,13.4618 L15.2178,13.8061 L15.0115,14.1310 L14.7723,14.4325 L14.5042,14.7080 L14.2088,14.9547 L13.8894,15.1694 L13.5495,15.3503 L13.1933,15.4953 L12.8240,15.6024 L12.4454,15.6717 L12.0617,15.7016 L11.6770,15.6916 L11.2953,15.6418 L10.9211,15.5536 L10.5579,15.4270 L10.2091,15.2641 L9.8792,15.0663 L9.5718,14.8351 L9.2893,14.5740 L9.0352,14.2850 L8.8124,13.9711 L8.6226,13.6362 L8.4686,13.2840 L8.3515,12.9172 L8.2728,12.5405 L8.2334,12.1579 L8.2334,11.7732 L8.2728,11.3905 L8.3515,11.0138 L8.4686,10.6471 L8.6226,10.2948 L8.8124,9.9600 L9.0352,9.6460 L9.2893,9.3570 L9.5718,9.0959 L9.8792,8.8647 L10.2091,8.6669 L10.5579,8.5040 L10.9211,8.3774 L11.2953,8.2892 L11.6770,8.2394 L12.0617,8.2294 L12.4454,8.2593 L12.8240,8.3286 L13.1933,8.4357 L13.5495,8.5807 L13.8894,8.7616 L14.2088,8.9764 L14.5042,9.2230 L14.7723,9.4986 L15.0115,9.8000 L15.2178,10.1249 L15.3897,10.4692 L15.5257,10.8289 L15.6234,11.2012 L15.6827,11.5813 L15.7026,11.9655 "/>
      </g>
      <g stroke="#cc8844" stroke-width="1.4948275862068965" fill="none">
        <path d="M11.9655,21.9310 L136.5345,21.9310 "/>
        <path d="M11.9655,2.0000 L11.3397,2.0194 L10.7163,2.0787 L10.0980,2.1764 L9.4871,2.3129 L8.8862,2.4878 L8.2972,2.6996 L7.7222,2.9482 L7.1646,3.2327 L6.6255,3.5511 L6.1078,3.9034 L5.6135,4.2871 L5.1436,4.7012 L4.7012,5.1436 L4.2871,5.6135 L3.9034,6.1078 L3.5511,6.6255 L3.2327,7.1646 L2.9482,7.7222 L2.6996,8.2972 L2.4878,8.8862 L2.3129,9.4871 L2.1764,10.0980 L2.0787,10.7163 L2.0194,11.3397 L2.0000,11.9655 L2.0194,12.5914 L2.0787,13.2147 L2.1764,13.8331 L2.3129,14.4439 L2.4878,15.0449 L2.6996,15.6338 L2.9482,16.2088 L3.2327,16.7664 L3.5511,17.3055 L3.9034,17.8232 L4.2871,18.3175 L4.7012,18.7874 L5.1436,19.2299 L5.6135,19.6439 L6.1078,20.0276 L6.6255,20.3799 L7.1646,20.6983 L7.7222,20.9828 L8.2972,21.2315 L8.8862,21.4432 L9.4871,21.6181 L10.0980,21.7546 L10.7163,21.8523 L11.3397,21.9116 L11.9655,21.9310 "/>
        <path d="M136.5345,21.9310 L137.1603,21.9116 L137.7837,21.8523 L138.4020,21.7546 L139.0129,21.6181 L139.6138,21.4432 L140.2028,21.2315 L140.7778,20.9828 L141.3354,20.6983 L141.8745,20.3799 L142.3922,20.0276 L142.8865,19.6439 L143.3564,19.2299 L143.7988,18.7874 L144.2129,18.3175 L144.5966,17.8232 L144.9489,17.3055 L145.2673,16.7664 L145.5518,16.2088 L145.8004,15.6338 L146.0122,15.0449 L146.1871,14.4439 L146.3236,13.8331 L146.4213,13.2147 L146.4806,12.5914 L146.5000,11.9655 L146.4806,11.3397 L146.4213,10.7163 L146.3236,10.0980 L146.1871,9.4871 L146.0122,8.8862 L145.8004,8.2972 L145.5518,7.7222 L145.2673,7.1646 L144.9489,6.6255 L144.5966,6.1078 L144.2129,5.6135 L143.7988,5.1436 L143.3564,4.7012 L142.8865,4.2871 L142.3922,3.9034 L141.8745,3.5511 L141.3354,3.2327 L140.7778,2.9482 L140.2028,2.6996 L139.6138,2.4878 L139.0129,2.3129 L138.4020,2.1764 L137.7837,2.0787 L137.1603,2.0194 L136.5345,2.0000 "/>
        <path d="M136.5345,2.0000 L11.9655,2.0000 "/>
        <path d="M140.2716,11.9655 L140.2516,11.5813 L140.1923,11.2012 L140.0947,10.8289 L139.9586,10.4692 L139.7867,10.1249 L139.5804,9.8000 L139.3413,9.4986 L139.0732,9.2230 L138.7777,8.9764 L138.4583,8.7616 L138.1185,8.5807 L137.7622,8.4357 L137.3930,8.3286 L137.0143,8.2593 L136.6307,8.2294 L136.2460,8.2394 L135.8643,8.2892 L135.4901,8.3774 L135.1269,8.5040 L134.7781,8.6669 L134.4482,8.8647 L134.1408,9.0959 L133.8582,9.3570 L133.6041,9.6460 L133.3814,9.9600 L133.1916,10.2948 L133.0376,10.6471 L132.9205,11.0138 L132.8418,11.3905 L132.8024,11.7732 L132.8024,12.1579 L132.8418,12.5405 L132.9205,12.9172 L133.0376,13.2840 L133.1916,13.6362 L133.3814,13.9711 L133.6041,14.2850 L133.8582,14.5740 L134.1408,14.8351 L134.4482,15.0663 L134.7781,15.2641 L135.1269,15.4270 L135.4901,15.5536 L135.8643,15.6418 L136.2460,15.6916 L136.6307,15.7016 L137.0143,15.6717 L137.3930,15.6024 L137.7622,15.4953 L138.1185,15.3503 L138.4583,15.1694 L138.7777,14.9547 L139.0732,14.7080 L139.3413,14.4325 L139.5804,14.1310 L139.7867,13.8061 L139.9586,13.4618 L140.0947,13.1021 L140.1923,12.7299 L140.2516,12.3497 L140.2716,11.9655 "/>
        <path d="M15.7026,11.9655 L15.6827,11.5813 L15.6234,11.2012 L15.5257,10.8289 L15.3897,10.4692 L15.2178,10.1249 L15.0115,9.8000 L14.7723,9.4986 L14.5042,9.2230 L14.2088,8.9764 L13.8894,8.7616 L13.5495,8.5807 L13.1933,8.4357 L12.8240,8.3286 L12.4454,8.2593 L12.0617,8.2294 L11.6770,8.2394 L11.2953,8.2892 L10.9211,8.3774 L10.5579,8.5040 L10.2091,8.6669 L9.8792,8.8647 L9.5718,9.0959 L9.2893,9.3570 L9.0352,9.6460 L8.8124,9.9600 L8.6226,10.2948 L8.4686,10.6471 L8.3515,11.0138 L8.2728,11.3905 L8.2334,11.7732 L8.2334,12.1579 L8.2728,12.5405 L8.3515,12.9172 L8.4686,13.2840 L8.6226,13.6362 L8.8124,13.9711 L9.0352,14.2850 L9.2893,14.5740 L9.5718,14.8351 L9.8792,15.0663 L10.2091,15.2641 L10.5579,15.4270 L10.9211,15.5536 L11.2953,15.6418 L11.6770,15.6916 L12.0617,15.7016 L12.4454,15.6717 L12.8240,15.6024 L13.1933,15.4953 L13.5495,15.3503 L13.8894,15.1694 L14.2088,14.9547 L14.5042,14.7080 L14.7723,14.4325 L15.0115,14.1310 L15.2178,13.8061 L15.3897,13.4618 L15.5257,13.1021 L15.6234,12.7299 L15.6827,12.3497 L15.7026,11.9655 "/>
      </g>
    </g>
    <!-- UR view: ISO -->
    <g>
      <g stroke="#cc8844" stroke-opacity="0.4" stroke-dasharray="2,2" stroke-width="0.9389145988405252" fill="none">
        <path d="M160.3466,300.9069 L160.0013,300.8886 L159.6565,300.8829 L159.3122,300.8897 L158.9695,300.9090 L158.6289,300.9413 L158.2899,300.9857 L157.9534,301.0425 L157.6201,301.1119 L157.2899,301.1938 L156.9634,301.2877 L156.6410,301.3941 L156.3239,301.5120 L156.0109,301.6419 L155.7037,301.7832 L155.4022,301.9360 L155.1064,302.1004 "/>
        <path d="M288.6702,328.9006 L289.0019,328.6982 L289.3248,328.4812 L289.6378,328.2502 L289.9408,328.0061 L290.2334,327.7484 L290.5151,327.4777 L290.7848,327.1949 L291.0430,326.9002 L291.2882,326.5940 L291.5213,326.2774 L291.7409,325.9498 L291.9470,325.6123 L292.1389,325.2660 L292.3173,324.9108 L292.4811,324.5472 L292.6298,324.1758 L292.7638,323.7976 L292.8827,323.4132 L292.9865,323.0230 L293.0742,322.6276 L293.1467,322.2281 L293.2030,321.8243 L293.2437,321.4175 L293.2682,321.0085 L293.2771,320.5975 L293.2698,320.1849 L293.2463,319.7723 L293.2072,319.3597 L293.1519,318.9481 L293.0810,318.5376 L292.9939,318.1297 L292.8921,317.7244 L292.7743,317.3228 L292.6412,316.9253 L292.4936,316.5325 L292.3314,316.1455 L292.1540,315.7642 L291.9631,315.3896 L291.7581,315.0224 L291.5396,314.6630 L291.3080,314.3120 L291.0633,313.9703 L290.8062,313.6381 L290.5375,313.3157 L290.2569,313.0043 L289.9653,312.7044 L289.6633,312.4159 L289.3509,312.1394 L289.0290,311.8755 L288.6978,311.6246 L288.3582,311.3873 L288.0108,311.1635 L287.6556,310.9543 L287.2936,310.7592 L286.9253,310.5793 L286.5513,310.4139 L286.1726,310.2647 L285.7892,310.1307 L285.4017,310.0123 L285.0115,309.9106 L284.6182,309.8245 L284.2233,309.7551 L283.8269,309.7019 L283.4305,309.6654 "/>
        <path d="M283.4305,309.6654 L160.3466,300.9069 "/>
        <path d="M286.1810,322.6313 L286.0021,322.8112 L285.8112,322.9771 L285.6088,323.1279 L285.3954,323.2624 "/>
        <path d="M285.3954,323.2624 L285.0793,323.4242 L284.7476,323.5519 L284.4033,323.6443 L284.0491,323.7001 L283.6897,323.7194 L283.3272,323.7011 L282.9662,323.6469 L282.6089,323.5561 L282.2605,323.4294 L281.9225,323.2692 L281.5996,323.0757 L281.2939,322.8519 L281.0091,322.5995 L280.7473,322.3209 L280.5115,322.0184 L280.3039,321.6955 L280.1265,321.3554 L279.9805,321.0007 L279.8683,320.6356 L279.7901,320.2631 L279.7468,319.8865 L279.7390,319.5104 L279.7672,319.1375 L279.8303,318.7718 L279.9278,318.4166 L280.0598,318.0760 L280.2236,317.7526 L280.4187,317.4495 L280.6424,317.1699 L280.8928,316.9164 L281.1682,316.6911 L281.4650,316.4970 "/>
        <path d="M281.4650,316.4970 L281.6883,316.3786 L281.9194,316.2769 L282.1583,316.1935 L282.4029,316.1272 "/>
        <path d="M163.0971,313.8728 L162.9187,314.0527 L162.7278,314.2186 L162.5249,314.3694 L162.3115,314.5039 "/>
        <path d="M162.3115,314.5039 L161.9960,314.6656 L161.6642,314.7934 L161.3194,314.8858 L160.9658,314.9416 L160.6059,314.9609 L160.2438,314.9426 L159.8824,314.8884 L159.5256,314.7971 L159.1766,314.6709 L158.8391,314.5107 L158.5157,314.3172 L158.2106,314.0934 L157.9252,313.8410 L157.6639,313.5624 L157.4281,313.2599 L157.2205,312.9370 L157.0427,312.5969 L156.8971,312.2422 L156.7845,311.8771 L156.7062,311.5046 L156.6629,311.1280 L156.6556,310.7519 L156.6833,310.3790 L156.7464,310.0133 L156.8445,309.6581 L156.9759,309.3175 L157.1397,308.9941 L157.3348,308.6910 L157.5586,308.4114 L157.8095,308.1579 L158.0843,307.9326 L158.3817,307.7385 "/>
        <path d="M158.3817,307.7385 L158.6044,307.6201 L158.8355,307.5184 L159.0744,307.4350 L159.3190,307.3687 "/>
        <path d="M287.1183,322.2615 L285.3954,323.2624 "/>
        <path d="M283.1885,315.4961 L281.4650,316.4970 "/>
        <path d="M164.0350,313.5030 L162.3115,314.5039 "/>
        <path d="M160.1046,306.7376 L158.3817,307.7385 "/>
      </g>
      <g stroke="#cc8844" stroke-width="1.5648576647342087" fill="none">
        <path d="M160.3466,321.3356 L283.4305,330.0941 "/>
        <path d="M162.0695,320.3346 L285.1534,329.0931 "/>
        <path d="M155.1064,302.1004 L154.7747,302.3027 L154.4518,302.5197 L154.1388,302.7508 L153.8358,302.9949 L153.5431,303.2526 L153.2620,303.5233 L152.9918,303.8061 L152.7341,304.1008 L152.4884,304.4070 L152.2558,304.7236 L152.0362,305.0512 L151.8301,305.3886 L151.6377,305.7350 L151.4598,306.0902 L151.2960,306.4538 L151.1468,306.8252 L151.0128,307.2034 L150.8938,307.5878 L150.7905,307.9780 L150.7024,308.3733 L150.6304,308.7729 L150.5741,309.1766 L150.5334,309.5835 L150.5083,309.9925 L150.5000,310.4035 L150.5073,310.8161 L150.5308,311.2287 L150.5699,311.6413 L150.6252,312.0529 L150.6961,312.4634 L150.7827,312.8713 L150.8850,313.2766 L151.0023,313.6782 L151.1353,314.0757 L151.2830,314.4685 L151.4457,314.8555 L151.6225,315.2368 L151.8134,315.6113 L152.0184,315.9786 L152.2370,316.3380 L152.4691,316.6890 L152.7132,317.0307 L152.9704,317.3629 L153.2395,317.6853 L153.5197,317.9967 L153.8112,318.2966 L154.1138,318.5851 L154.4257,318.8615 L154.7481,319.1255 L155.0788,319.3764 L155.4183,319.6137 L155.7663,319.8375 L156.1215,320.0467 L156.4830,320.2418 L156.8512,320.4217 L157.2252,320.5871 L157.6045,320.7362 L157.9878,320.8703 L158.3749,320.9887 L158.7656,321.0904 L159.1584,321.1765 L159.5532,321.2459 L159.9497,321.2991 L160.3466,321.3356 "/>
        <path d="M162.0695,299.9059 L161.7247,299.8876 L161.3794,299.8819 L161.0357,299.8887 L160.6930,299.9080 L160.3518,299.9403 L160.0128,299.9847 L159.6763,300.0415 L159.3430,300.1114 L159.0128,300.1928 L158.6868,300.2867 L158.3645,300.3931 L158.0468,300.5110 L157.7343,300.6409 L157.4266,300.7822 L157.1251,300.9351 L156.8298,301.0994 "/>
        <path d="M156.8298,301.0994 L156.4981,301.3018 L156.1752,301.5188 L155.8622,301.7498 L155.5592,301.9939 L155.2666,302.2516 L154.9849,302.5223 L154.7152,302.8051 L154.4570,303.0998 L154.2118,303.4060 L153.9787,303.7226 L153.7591,304.0502 L153.5530,304.3877 L153.3611,304.7340 L153.1827,305.0892 L153.0189,305.4528 L152.8702,305.8242 L152.7362,306.2024 L152.6173,306.5868 L152.5135,306.9770 L152.4258,307.3724 L152.3533,307.7719 L152.2970,308.1757 L152.2563,308.5825 L152.2318,308.9915 L152.2229,309.4025 L152.2302,309.8151 L152.2537,310.2277 L152.2928,310.6403 L152.3481,311.0519 L152.4190,311.4624 L152.5061,311.8703 L152.6079,312.2756 L152.7257,312.6772 L152.8588,313.0747 L153.0064,313.4675 L153.1686,313.8545 L153.3460,314.2358 L153.5369,314.6104 L153.7419,314.9776 L153.9604,315.3370 L154.1920,315.6880 L154.4367,316.0297 L154.6938,316.3619 L154.9625,316.6843 L155.2431,316.9957 L155.5347,317.2956 L155.8367,317.5841 L156.1491,317.8606 L156.4710,318.1245 L156.8022,318.3754 L157.1418,318.6127 L157.4892,318.8365 L157.8444,319.0457 L158.2064,319.2408 L158.5747,319.4207 L158.9487,319.5861 L159.3274,319.7353 L159.7108,319.8693 L160.0983,319.9877 L160.4885,320.0894 L160.8818,320.1755 L161.2767,320.2449 L161.6731,320.2981 L162.0695,320.3346 "/>
        <path d="M283.4305,330.0941 L283.7753,330.1124 L284.1206,330.1181 L284.4643,330.1113 L284.8070,330.0920 L285.1482,330.0597 L285.4872,330.0153 L285.8237,329.9585 L286.1570,329.8886 L286.4872,329.8072 L286.8132,329.7133 L287.1355,329.6069 L287.4532,329.4890 L287.7657,329.3591 L288.0734,329.2178 L288.3749,329.0649 L288.6702,328.9006 "/>
        <path d="M285.1534,329.0931 L285.4987,329.1114 L285.8435,329.1171 L286.1878,329.1103 L286.5305,329.0910 L286.8711,329.0587 L287.2101,329.0143 L287.5466,328.9575 L287.8799,328.8881 L288.2101,328.8062 L288.5366,328.7123 L288.8590,328.6059 L289.1761,328.4880 L289.4891,328.3581 L289.7963,328.2168 L290.0978,328.0640 L290.3936,327.8996 "/>
        <path d="M290.3936,327.8996 L290.7253,327.6973 L291.0482,327.4803 L291.3612,327.2492 L291.6642,327.0051 L291.9569,326.7474 L292.2380,326.4767 L292.5082,326.1939 L292.7659,325.8992 L293.0116,325.5930 L293.2442,325.2764 L293.4638,324.9488 L293.6699,324.6114 L293.8623,324.2650 L294.0402,323.9098 L294.2040,323.5462 L294.3532,323.1748 L294.4872,322.7966 L294.6062,322.4122 L294.7095,322.0220 L294.7976,321.6267 L294.8696,321.2271 L294.9259,320.8234 L294.9666,320.4165 L294.9917,320.0075 L295.0000,319.5965 L294.9927,319.1839 L294.9692,318.7713 L294.9301,318.3587 L294.8748,317.9471 L294.8039,317.5366 L294.7173,317.1287 L294.6150,316.7234 L294.4977,316.3218 L294.3647,315.9243 L294.2170,315.5315 L294.0543,315.1445 L293.8775,314.7632 L293.6866,314.3887 L293.4816,314.0214 L293.2630,313.6620 L293.0309,313.3110 L292.7868,312.9693 L292.5296,312.6371 L292.2605,312.3147 L291.9803,312.0033 L291.6888,311.7034 L291.3862,311.4149 L291.0743,311.1385 L290.7519,310.8745 L290.4212,310.6236 L290.0817,310.3863 L289.7337,310.1625 L289.3785,309.9533 L289.0170,309.7582 L288.6488,309.5783 L288.2748,309.4129 L287.8955,309.2638 L287.5122,309.1297 L287.1251,309.0113 L286.7344,308.9096 L286.3416,308.8235 L285.9468,308.7541 L285.5503,308.7009 L285.1534,308.6644 "/>
        <path d="M287.1225,320.1426 L287.1074,320.4906 L287.0615,320.8338 L286.9853,321.1687 L286.8794,321.4931 L286.7449,321.8040 L286.5826,322.0992 L286.3938,322.3757 L286.1810,322.6313 "/>
        <path d="M282.4029,316.1272 L282.6100,316.0865 L282.8197,316.0584 L283.0314,316.0432 L283.2443,316.0412 L283.4581,316.0516 L283.6715,316.0745 L283.8843,316.1105 L284.0956,316.1596 L284.3047,316.2206 L284.5108,316.2941 L284.7137,316.3792 L284.9119,316.4767 L285.1049,316.5852 L285.2927,316.7047 L285.4742,316.8351 L285.6484,316.9754 L285.8153,317.1256 L285.9749,317.2852 L286.1252,317.4532 L286.2671,317.6295 L286.3990,317.8131 L286.5211,318.0040 L286.6327,318.2007 L286.7339,318.4036 L286.8236,318.6112 L286.9024,318.8229 L286.9692,319.0384 L287.0239,319.2564 L287.0672,319.4765 L287.0980,319.6982 L287.1168,319.9204 L287.1225,320.1426 "/>
        <path d="M164.0391,311.3841 L164.0235,311.7321 L163.9776,312.0753 L163.9014,312.4102 L163.7956,312.7346 L163.6610,313.0455 L163.4988,313.3407 L163.3104,313.6167 L163.0971,313.8728 "/>
        <path d="M159.3190,307.3687 L159.5261,307.3280 L159.7358,307.2999 L159.9476,307.2847 L160.1609,307.2826 L160.3743,307.2931 L160.5881,307.3160 L160.8009,307.3520 L161.0122,307.4011 L161.2214,307.4621 L161.4274,307.5356 L161.6298,307.6207 L161.8280,307.7182 L162.0215,307.8267 L162.2088,307.9461 L162.3903,308.0765 L162.5651,308.2169 L162.7320,308.3671 L162.8911,308.5262 L163.0418,308.6947 L163.1832,308.8710 L163.3151,309.0546 L163.4372,309.2455 L163.5488,309.4421 L163.6500,309.6451 L163.7397,309.8527 L163.8185,310.0644 L163.8853,310.2793 L163.9406,310.4979 L163.9833,310.7180 L164.0141,310.9397 L164.0329,311.1619 L164.0391,311.3841 "/>
        <path d="M285.1534,308.6644 L162.0695,299.9059 "/>
        <path d="M288.8459,319.1417 L288.8376,318.8861 L288.8131,318.6305 L288.7724,318.3759 L288.7155,318.1235 L288.6430,317.8746 L288.5549,317.6300 L288.4516,317.3911 L288.3337,317.1590 L288.2017,316.9342 L288.0562,316.7182 L287.8982,316.5117 L287.7276,316.3155 L287.5455,316.1309 L287.3531,315.9587 L287.1507,315.7991 L286.9394,315.6531 L286.7203,315.5216 L286.4940,315.4053 L286.2618,315.3041 L286.0250,315.2186 L285.7846,315.1497 L285.5404,315.0970 L285.2953,315.0610 L285.0496,315.0423 L284.8039,315.0407 L284.5598,315.0558 L284.3188,315.0882 L284.0809,315.1372 L283.8483,315.2029 L283.6209,315.2848 L283.4008,315.3823 L283.1885,315.4961 "/>
        <path d="M283.1885,315.4961 L282.8917,315.6901 L282.6162,315.9154 L282.3653,316.1689 L282.1416,316.4485 L281.9465,316.7516 L281.7827,317.0750 L281.6512,317.4156 L281.5532,317.7708 L281.4901,318.1365 L281.4624,318.5095 L281.4702,318.8855 L281.5130,319.2622 L281.5913,319.6346 L281.7039,319.9997 L281.8495,320.3544 L282.0273,320.6945 L282.2349,321.0174 L282.4707,321.3199 L282.7320,321.5985 L283.0174,321.8509 L283.3225,322.0752 L283.6459,322.2682 L283.9834,322.4284 L284.3324,322.5551 L284.6892,322.6459 L285.0506,322.7001 L285.4126,322.7184 L285.7726,322.6991 L286.1262,322.6433 L286.4710,322.5510 L286.8028,322.4232 L287.1183,322.2615 "/>
        <path d="M287.1183,322.2615 L287.3119,322.1404 L287.4965,322.0059 L287.6718,321.8593 L287.8371,321.7007 L287.9915,321.5312 L288.1350,321.3507 L288.2664,321.1608 L288.3853,320.9616 L288.4918,320.7540 L288.5846,320.5386 L288.6639,320.3174 L288.7291,320.0900 L288.7802,319.8578 L288.8167,319.6215 L288.8386,319.3826 L288.8459,319.1417 "/>
        <path d="M165.7621,310.3831 L165.7542,310.1276 L165.7297,309.8720 L165.6885,309.6174 L165.6322,309.3649 L165.5591,309.1161 L165.4710,308.8715 L165.3677,308.6326 L165.2498,308.4005 L165.1184,308.1757 L164.9728,307.9597 L164.8143,307.7531 L164.6437,307.5570 L164.4617,307.3724 L164.2692,307.1997 L164.0668,307.0406 L163.8555,306.8946 L163.6365,306.7631 L163.4106,306.6468 L163.1785,306.5456 L162.9417,306.4601 L162.7007,306.3912 L162.4571,306.3385 L162.2119,306.3025 L161.9657,306.2837 L161.7200,306.2822 L161.4764,306.2973 L161.2349,306.3296 L160.9976,306.3787 L160.7644,306.4444 L160.5375,306.5263 L160.3174,306.6238 L160.1046,306.7376 "/>
        <path d="M160.1046,306.7376 L159.8078,306.9316 L159.5324,307.1569 L159.2820,307.4104 L159.0577,307.6900 L158.8631,307.9931 L158.6988,308.3165 L158.5674,308.6571 L158.4698,309.0123 L158.4067,309.3780 L158.3785,309.7509 L158.3864,310.1270 L158.4297,310.5036 L158.5079,310.8761 L158.6200,311.2412 L158.7661,311.5959 L158.9435,311.9360 L159.1511,312.2589 L159.3868,312.5614 L159.6487,312.8400 L159.9335,313.0924 L160.2392,313.3162 L160.5620,313.5097 L160.8995,313.6699 L161.2485,313.7961 L161.6053,313.8874 L161.9668,313.9416 L162.3293,313.9599 L162.6887,313.9406 L163.0429,313.8848 L163.3871,313.7925 L163.7189,313.6647 L164.0350,313.5030 "/>
        <path d="M164.0350,313.5030 L164.2280,313.3819 L164.4126,313.2474 L164.5879,313.1008 L164.7532,312.9422 L164.9076,312.7727 L165.0511,312.5922 L165.1825,312.4018 L165.3015,312.2026 L165.4079,311.9955 L165.5007,311.7800 L165.5800,311.5589 L165.6452,311.3315 L165.6963,311.0993 L165.7328,310.8630 L165.7548,310.6241 L165.7621,310.3831 "/>
        <path d="M287.1225,320.1426 L288.8459,319.1417 "/>
        <path d="M164.0391,311.3841 L165.7621,310.3831 "/>
        <path d="M160.3466,321.3356 L162.0695,320.3346 "/>
        <path d="M283.4305,330.0941 L285.1534,329.0931 "/>
        <path d="M156.8298,301.0994 L155.1064,302.1004 "/>
        <path d="M290.3936,327.8996 L288.6702,328.9006 "/>
      </g>
    </g>
    <!-- LR view: YZ -->
    <g>
      <g stroke="#cc8844" stroke-opacity="0.4" stroke-dasharray="2,2" stroke-width="0.8968965517241378" fill="none">
        <path d="M150.5000,21.9310 L155.4828,21.9310 "/>
        <path d="M150.5000,2.0000 L155.4828,2.0000 "/>
        <path d="M150.5000,2.0000 L150.5000,2.2496 L150.5000,2.9871 L150.5000,4.1740 L150.5000,5.7520 L150.5000,7.6415 L150.5000,9.7482 L150.5000,11.9655 L150.5000,14.1828 L150.5000,16.2896 L150.5000,18.1790 L150.5000,19.7571 L150.5000,20.9440 L150.5000,21.6814 L150.5000,21.9310 "/>
        <path d="M155.4828,2.0000 L155.4828,2.2496 L155.4828,2.9871 L155.4828,4.1740 L155.4828,5.7520 L155.4828,7.6415 L155.4828,9.7482 L155.4828,11.9655 L155.4828,14.1828 L155.4828,16.2896 L155.4828,18.1790 L155.4828,19.7571 L155.4828,20.9440 L155.4828,21.6814 L155.4828,21.9310 "/>
        <path d="M150.5000,11.9655 L150.5000,12.3841 L150.5000,12.7971 L150.5000,13.1997 L150.5000,13.5869 L150.5000,13.9536 L150.5000,14.2955 L150.5000,14.6079 L150.5000,14.8874 L150.5000,15.1296 L150.5000,15.3324 L150.5000,15.4928 L150.5000,15.6089 L150.5000,15.6792 L150.5000,15.7026 "/>
        <path d="M150.5000,15.7026 L150.5000,15.6089 L150.5000,15.3324 L150.5000,14.8874 L150.5000,14.2955 L150.5000,13.5869 L150.5000,12.7971 L150.5000,11.9655 L150.5000,11.1339 L150.5000,10.3441 L150.5000,9.6356 L150.5000,9.0436 L150.5000,8.5987 L150.5000,8.3221 L150.5000,8.2284 "/>
        <path d="M150.5000,8.2284 L150.5000,8.2519 L150.5000,8.3221 L150.5000,8.4382 L150.5000,8.5987 L150.5000,8.8015 L150.5000,9.0436 L150.5000,9.3232 L150.5000,9.6356 L150.5000,9.9774 L150.5000,10.3441 L150.5000,10.7313 L150.5000,11.1339 L150.5000,11.5470 L150.5000,11.9655 "/>
        <path d="M150.5000,11.9655 L150.5000,12.3841 L150.5000,12.7971 L150.5000,13.1997 L150.5000,13.5869 L150.5000,13.9536 L150.5000,14.2955 L150.5000,14.6079 L150.5000,14.8874 L150.5000,15.1296 L150.5000,15.3324 L150.5000,15.4928 L150.5000,15.6089 L150.5000,15.6792 L150.5000,15.7026 "/>
        <path d="M150.5000,15.7026 L150.5000,15.6089 L150.5000,15.3324 L150.5000,14.8874 L150.5000,14.2955 L150.5000,13.5869 L150.5000,12.7971 L150.5000,11.9655 L150.5000,11.1339 L150.5000,10.3441 L150.5000,9.6356 L150.5000,9.0436 L150.5000,8.5987 L150.5000,8.3221 L150.5000,8.2284 "/>
        <path d="M150.5000,8.2284 L150.5000,8.2519 L150.5000,8.3221 L150.5000,8.4382 L150.5000,8.5987 L150.5000,8.8015 L150.5000,9.0436 L150.5000,9.3232 L150.5000,9.6356 L150.5000,9.9774 L150.5000,10.3441 L150.5000,10.7313 L150.5000,11.1339 L150.5000,11.5470 L150.5000,11.9655 "/>
        <path d="M155.4828,11.9655 L155.4828,11.5470 L155.4828,11.1339 L155.4828,10.7313 L155.4828,10.3441 L155.4828,9.9774 L155.4828,9.6356 L155.4828,9.3232 L155.4828,9.0436 L155.4828,8.8015 L155.4828,8.5987 L155.4828,8.4382 L155.4828,8.3221 L155.4828,8.2519 L155.4828,8.2284 "/>
        <path d="M155.4828,8.2284 L155.4828,8.3221 L155.4828,8.5987 L155.4828,9.0436 L155.4828,9.6356 L155.4828,10.3441 L155.4828,11.1339 L155.4828,11.9655 L155.4828,12.7971 L155.4828,13.5869 L155.4828,14.2955 L155.4828,14.8874 L155.4828,15.3324 L155.4828,15.6089 L155.4828,15.7026 "/>
        <path d="M155.4828,15.7026 L155.4828,15.6792 L155.4828,15.6089 L155.4828,15.4928 L155.4828,15.3324 L155.4828,15.1296 L155.4828,14.8874 L155.4828,14.6079 L155.4828,14.2955 L155.4828,13.9536 L155.4828,13.5869 L155.4828,13.1997 L155.4828,12.7971 L155.4828,12.3841 L155.4828,11.9655 "/>
        <path d="M155.4828,11.9655 L155.4828,11.5470 L155.4828,11.1339 L155.4828,10.7313 L155.4828,10.3441 L155.4828,9.9774 L155.4828,9.6356 L155.4828,9.3232 L155.4828,9.0436 L155.4828,8.8015 L155.4828,8.5987 L155.4828,8.4382 L155.4828,8.3221 L155.4828,8.2519 L155.4828,8.2284 "/>
        <path d="M155.4828,8.2284 L155.4828,8.3221 L155.4828,8.5987 L155.4828,9.0436 L155.4828,9.6356 L155.4828,10.3441 L155.4828,11.1339 L155.4828,11.9655 L155.4828,12.7971 L155.4828,13.5869 L155.4828,14.2955 L155.4828,14.8874 L155.4828,15.3324 L155.4828,15.6089 L155.4828,15.7026 "/>
        <path d="M155.4828,15.7026 L155.4828,15.6792 L155.4828,15.6089 L155.4828,15.4928 L155.4828,15.3324 L155.4828,15.1296 L155.4828,14.8874 L155.4828,14.6079 L155.4828,14.2955 L155.4828,13.9536 L155.4828,13.5869 L155.4828,13.1997 L155.4828,12.7971 L155.4828,12.3841 L155.4828,11.9655 "/>
        <path d="M150.5000,11.9655 L155.4828,11.9655 "/>
        <path d="M150.5000,11.9655 L155.4828,11.9655 "/>
        <path d="M155.4828,8.2284 L150.5000,8.2284 "/>
        <path d="M155.4828,15.7026 L150.5000,15.7026 "/>
        <path d="M155.4828,8.2284 L150.5000,8.2284 "/>
        <path d="M155.4828,15.7026 L150.5000,15.7026 "/>
      </g>
      <g stroke="#cc8844" stroke-width="1.4948275862068965" fill="none">
        <path d="M150.5000,21.9310 L155.4828,21.9310 "/>
        <path d="M150.5000,2.0000 L155.4828,2.0000 "/>
        <path d="M150.5000,21.9310 L150.5000,21.6814 L150.5000,20.9440 L150.5000,19.7571 L150.5000,18.1790 L150.5000,16.2896 L150.5000,14.1828 L150.5000,11.9655 L150.5000,9.7482 L150.5000,7.6415 L150.5000,5.7520 L150.5000,4.1740 L150.5000,2.9871 L150.5000,2.2496 L150.5000,2.0000 "/>
        <path d="M155.4828,21.9310 L155.4828,21.6814 L155.4828,20.9440 L155.4828,19.7571 L155.4828,18.1790 L155.4828,16.2896 L155.4828,14.1828 L155.4828,11.9655 L155.4828,9.7482 L155.4828,7.6415 L155.4828,5.7520 L155.4828,4.1740 L155.4828,2.9871 L155.4828,2.2496 L155.4828,2.0000 "/>
      </g>
    </g>
  </g>
</svg>