<?xml version="1.0" encoding="UTF-8"?>
<svg xmlns="http://www.w3.org/2000/svg"
     width="297mm" height="420mm"
     viewBox="0 0 297 420">
  <!-- Flip Y axis: origin at lower-left -->
  <g transform="translate(0,420) scale(1,-1)">

    <!-- Grid -->
    <line x1="1.0" y1="0" x2="1.0" y2="420" stroke="#b0d8b0" stroke-width="0.0625"/>
    <line x1="2.0" y1="0" x2="2.0" y2="420" stroke="#b0d8b0" stroke-width="0.0625"/>
    <line x1="3.0" y1="0" x2="3.0" y2="420" stroke="#b0d8b0" stroke-width="0.0625"/>
    <line x1="4.0" y1="0" x2="4.0" y2="420" stroke="#b0d8b0" stroke-width="0.0625"/>
    <line x1="5.0" y1="0" x2="5.0" y2="420" stroke="#b0d8b0" stroke-width="0.0625"/>
    <line x1="6.0" y1="0" x2="6.0" y2="420" stroke="#b0d8b0" stroke-width="0.0625"/>
    <line x1="7.0" y1="0" x2="7.0" y2="420" stroke="#b0d8b0" stroke-width="0.0625"/>
    <line x1="8.0" y1="0" x2="8.0" y2="420" stroke="#b0d8b0" stroke-width="0.0625"/>
    <line x1="9.0" y1="0" x2="9.0" y2="420" stroke="#b0d8b0" stroke-width="0.0625"/>
    <line x1="11.0" y1="0" x2="11.0" y2="420" stroke="#b0d8b0" stroke-width="0.0625"/>
    <line x1="12.0" y1="0" x2="12.0" y2="420" stroke="#b0d8b0" stroke-width="0.0625"/>
    <line x1="13.0" y1="0" x2="13.0" y2="420" stroke="#b0d8b0" stroke-width="0.0625"/>
    <line x1="14.0" y1="0" x2="14.0" y2="420" stroke="#b0d8b0" stroke-width="0.0625"/>
    <line x1="15.0" y1="0" x2="15.0" y2="420" stroke="#b0d8b0" stroke-width="0.0625"/>
    <line x1="16.0" y1="0" x2="16.0" y2="420" stroke="#b0d8b0" stroke-width="0.0625"/>
    <line x1="17.0" y1="0" x2="17.0" y2="420" stroke="#b0d8b0" stroke-width="0.0625"/>
    <line x1="18.0" y1="0" x2="18.0" y2="420" stroke="#b0d8b0" stroke-width="0.0625"/>
    <line x1="19.0" y1="0" x2="19.0" y2="420" stroke="#b0d8b0" stroke-width="0.0625"/>
    <line x1="21.0" y1="0" x2="21.0" y2="420" stroke="#b0d8b0" stroke-width="0.0625"/>
    <line x1="22.0" y1="0" x2="22.0" y2="420" stroke="#b0d8b0" stroke-width="0.0625"/>
    <line x1="23.0" y1="0" x2="23.0" y2="420" stroke="#b0d8b0" stroke-width="0.0625"/>
    <line x1="24.0" y1="0" x2="24.0" y2="420" stroke="#b0d8b0" stroke-width="0.0625"/>
    <line x1="25.0" y1="0" x2="25.0" y2="420" stroke="#b0d8b0" stroke-width="0.0625"/>
    <line x1="26.0" y1="0" x2="26.0" y2="420" stroke="#b0d8b0" stroke-width="0.0625"/>
    <line x1="27.0" y1="0" x2="27.0" y2="420" stroke="#b0d8b0" stroke-width="0.0625"/>
    <line x1="28.0" y1="0" x2="28.0" y2="420" stroke="#b0d8b0" stroke-width="0.0625"/>
    <line x1="29.0" y1="0" x2="29.0" y2="420" stroke="#b0d8b0" stroke-width="0.0625"/>
    <line x1="31.0" y1="0" x2="31.0" y2="420" stroke="#b0d8b0" stroke-width="0.0625"/>
    <line x1="32.0" y1="0" x2="32.0" y2="420" stroke="#b0d8b0" stroke-width="0.0625"/>
    <line x1="33.0" y1="0" x2="33.0" y2="420" stroke="#b0d8b0" stroke-width="0.0625"/>
    <line x1="34.0" y1="0" x2="34.0" y2="420" stroke="#b0d8b0" stroke-width="0.0625"/>
    <line x1="35.0" y1="0" x2="35.0" y2="420" stroke="#b0d8b0" stroke-width="0.0625"/>
    <line x1="36.0" y1="0" x2="36.0" y2="420" stroke="#b0d8b0" stroke-width="0.0625"/>
    <line x1="37.0" y1="0" x2="37.0" y2="420" stroke="#b0d8b0" stroke-width="0.0625"/>
    <line x1="38.0" y1="0" x2="38.0" y2="420" stroke="#b0d8b0" stroke-width="0.0625"/>
    <line x1="39.0" y1="0" x2="39.0" y2="420" stroke="#b0d8b0" stroke-width="0.0625"/>
    <line x1="41.0" y1="0" x2="41.0" y2="420" stroke="#b0d8b0" stroke-width="0.0625"/>
    <line x1="42.0" y1="0" x2="42.0" y2="420" stroke="#b0d8b0" stroke-width="0.0625"/>
    <line x1="43.0" y1="0" x2="43.0" y2="420" stroke="#b0d8b0" stroke-width="0.0625"/>
    <line x1="44.0" y1="0" x2="44.0" y2="420" stroke="#b0d8b0" stroke-width="0.0625"/>
    <line x1="45.0" y1="0" x2="45.0" y2="420" stroke="#b0d8b0" stroke-width="0.0625"/>
    <line x1="46.0" y1="0" x2="46.0" y2="420" stroke="#b0d8b0" stroke-width="0.0625"/>
    <line x1="47.0" y1="0" x2="47.0" y2="420" stroke="#b0d8b0" stroke-width="0.0625"/>
    <line x1="48.0" y1="0" x2="48.0" y2="420" stroke="#b0d8b0" stroke-width="0.0625"/>
    <line x1="49.0" y1="0" x2="49.0" y2="420" stroke="#b0d8b0" stroke-width="0.0625"/>
    <line x1="51.0" y1="0" x2="51.0" y2="420" stroke="#b0d8b0" stroke-width="0.0625"/>
    <line x1="52.0" y1="0" x2="52.0" y2="420" stroke="#b0d8b0" stroke-width="0.0625"/>
    <line x1="53.0" y1="0" x2="53.0" y2="420" stroke="#b0d8b0" stroke-width="0.0625"/>
    <line x1="54.0" y1="0" x2="54.0" y2="420" stroke="#b0d8b0" stroke-width="0.0625"/>
    <line x1="55.0" y1="0" x2="55.0" y2="420" stroke="#b0d8b0" stroke-width="0.0625"/>
    <line x1="56.0" y1="0" x2="56.0" y2="420" stroke="#b0d8b0" stroke-width="0.0625"/>
    <line x1="57.0" y1="0" x2="57.0" y2="420" stroke="#b0d8b0" stroke-width="0.0625"/>
    <line x1="58.0" y1="0" x2="58.0" y2="420" stroke="#b0d8b0" stroke-width="0.0625"/>
    <line x1="59.0" y1="0" x2="59.0" y2="420" stroke="#b0d8b0" stroke-width="0.0625"/>
    <line x1="61.0" y1="0" x2="61.0" y2="420" stroke="#b0d8b0" stroke-width="0.0625"/>
    <line x1="62.0" y1="0" x2="62.0" y2="420" stroke="#b0d8b0" stroke-width="0.0625"/>
    <line x1="63.0" y1="0" x2="63.0" y2="420" stroke="#b0d8b0" stroke-width="0.0625"/>
    <line x1="64.0" y1="0" x2="64.0" y2="420" stroke="#b0d8b0" stroke-width="0.0625"/>
    <line x1="65.0" y1="0" x2="65.0" y2="420" stroke="#b0d8b0" stroke-width="0.0625"/>
    <line x1="66.0" y1="0" x2="66.0" y2="420" stroke="#b0d8b0" stroke-width="0.0625"/>
    <line x1="67.0" y1="0" x2="67.0" y2="420" stroke="#b0d8b0" stroke-width="0.0625"/>
    <line x1="68.0" y1="0" x2="68.0" y2="420" stroke="#b0d8b0" stroke-width="0.0625"/>
    <line x1="69.0" y1="0" x2="69.0" y2="420" stroke="#b0d8b0" stroke-width="0.0625"/>
    <line x1="71.0" y1="0" x2="71.0" y2="420" stroke="#b0d8b0" stroke-width="0.0625"/>
    <line x1="72.0" y1="0" x2="72.0" y2="420" stroke="#b0d8b0" stroke-width="0.0625"/>
    <line x1="73.0" y1="0" x2="73.0" y2="420" stroke="#b0d8b0" stroke-width="0.0625"/>
    <line x1="74.0" y1="0" x2="74.0" y2="420" stroke="#b0d8b0" stroke-width="0.0625"/>
    <line x1="75.0" y1="0" x2="75.0" y2="420" stroke="#b0d8b0" stroke-width="0.0625"/>
    <line x1="76.0" y1="0" x2="76.0" y2="420" stroke="#b0d8b0" stroke-width="0.0625"/>
    <line x1="77.0" y1="0" x2="77.0" y2="420" stroke="#b0d8b0" stroke-width="0.0625"/>
    <line x1="78.0" y1="0" x2="78.0" y2="420" stroke="#b0d8b0" stroke-width="0.0625"/>
    <line x1="79.0" y1="0" x2="79.0" y2="420" stroke="#b0d8b0" stroke-width="0.0625"/>
    <line x1="81.0" y1="0" x2="81.0" y2="420" stroke="#b0d8b0" stroke-width="0.0625"/>
    <line x1="82.0" y1="0" x2="82.0" y2="420" stroke="#b0d8b0" stroke-width="0.0625"/>
    <line x1="83.0" y1="0" x2="83.0" y2="420" stroke="#b0d8b0" stroke-width="0.0625"/>
    <line x1="84.0" y1="0" x2="84.0" y2="420" stroke="#b0d8b0" stroke-width="0.0625"/>
    <line x1="85.0" y1="0" x2="85.0" y2="420" stroke="#b0d8b0" stroke-width="0.0625"/>
    <line x1="86.0" y1="0" x2="86.0" y2="420" stroke="#b0d8b0" stroke-width="0.0625"/>
    <line x1="87.0" y1="0" x2="87.0" y2="420" stroke="#b0d8b0" stroke-width="0.0625"/>
    <line x1="88.0" y1="0" x2="88.0" y2="420" stroke="#b0d8b0" stroke-width="0.0625"/>
    <line x1="89.0" y1="0" x2="89.0" y2="420" stroke="#b0d8b0" stroke-width="0.0625"/>
    <line x1="91.0" y1="0" x2="91.0" y2="420" stroke="#b0d8b0" stroke-width="0.0625"/>
    <line x1="92.0" y1="0" x2="92.0" y2="420" stroke="#b0d8b0" stroke-width="0.0625"/>
    <line x1="93.0" y1="0" x2="93.0" y2="420" stroke="#b0d8b0" stroke-width="0.0625"/>
    <line x1="94.0" y1="0" x2="94.0" y2="420" stroke="#b0d8b0" stroke-width="0.0625"/>
    <line x1="95.0" y1="0" x2="95.0" y2="420" stroke="#b0d8b0" stroke-width="0.0625"/>
    <line x1="96.0" y1="0" x2="96.0" y2="420" stroke="#b0d8b0" stroke-width="0.0625"/>
    <line x1="97.0" y1="0" x2="97.0" y2="420" stroke="#b0d8b0" stroke-width="0.0625"/>
    <line x1="98.0" y1="0" x2="98.0" y2="420" stroke="#b0d8b0" stroke-width="0.0625"/>
    <line x1="99.0" y1="0" x2="99.0" y2="420" stroke="#b0d8b0" stroke-width="0.0625"/>
    <line x1="101.0" y1="0" x2="101.0" y2="420" stroke="#b0d8b0" stroke-width="0.0625"/>
    <line x1="102.0" y1="0" x2="102.0" y2="420" stroke="#b0d8b0" stroke-width="0.0625"/>
    <line x1="103.0" y1="0" x2="103.0" y2="420" stroke="#b0d8b0" stroke-width="0.0625"/>
    <line x1="104.0" y1="0" x2="104.0" y2="420" stroke="#b0d8b0" stroke-width="0.0625"/>
    <line x1="105.0" y1="0" x2="105.0" y2="420" stroke="#b0d8b0" stroke-width="0.0625"/>
    <line x1="106.0" y1="0" x2="106.0" y2="420" stroke="#b0d8b0" stroke-width="0.0625"/>
    <line x1="107.0" y1="0" x2="107.0" y2="420" stroke="#b0d8b0" stroke-width="0.0625"/>
    <line x1="108.0" y1="0" x2="108.0" y2="420" stroke="#b0d8b0" stroke-width="0.0625"/>
    <line x1="109.0" y1="0" x2="109.0" y2="420" stroke="#b0d8b0" stroke-width="0.0625"/>
    <line x1="111.0" y1="0" x2="111.0" y2="420" stroke="#b0d8b0" stroke-width="0.0625"/>
    <line x1="112.0" y1="0" x2="112.0" y2="420" stroke="#b0d8b0" stroke-width="0.0625"/>
    <line x1="113.0" y1="0" x2="113.0" y2="420" stroke="#b0d8b0" stroke-width="0.0625"/>
    <line x1="114.0" y1="0" x2="114.0" y2="420" stroke="#b0d8b0" stroke-width="0.0625"/>
    <line x1="115.0" y1="0" x2="115.0" y2="420" stroke="#b0d8b0" stroke-width="0.0625"/>
    <line x1="116.0" y1="0" x2="116.0" y2="420" stroke="#b0d8b0" stroke-width="0.0625"/>
    <line x1="117.0" y1="0" x2="117.0" y2="420" stroke="#b0d8b0" stroke-width="0.0625"/>
    <line x1="118.0" y1="0" x2="118.0" y2="420" stroke="#b0d8b0" stroke-width="0.0625"/>
    <line x1="119.0" y1="0" x2="119.0" y2="420" stroke="#b0d8b0" stroke-width="0.0625"/>
    <line x1="121.0" y1="0" x2="121.0" y2="420" stroke="#b0d8b0" stroke-width="0.0625"/>
    <line x1="122.0" y1="0" x2="122.0" y2="420" stroke="#b0d8b0" stroke-width="0.0625"/>
    <line x1="123.0" y1="0" x2="123.0" y2="420" stroke="#b0d8b0" stroke-width="0.0625"/>
    <line x1="124.0" y1="0" x2="124.0" y2="420" stroke="#b0d8b0" stroke-width="0.0625"/>
    <line x1="125.0" y1="0" x2="125.0" y2="420" stroke="#b0d8b0" stroke-width="0.0625"/>
    <line x1="126.0" y1="0" x2="126.0" y2="420" stroke="#b0d8b0" stroke-width="0.0625"/>
    <line x1="127.0" y1="0" x2="127.0" y2="420" stroke="#b0d8b0" stroke-width="0.0625"/>
    <line x1="128.0" y1="0" x2="128.0" y2="420" stroke="#b0d8b0" stroke-width="0.0625"/>
    <line x1="129.0" y1="0" x2="129.0" y2="420" stroke="#b0d8b0" stroke-width="0.0625"/>
    <line x1="131.0" y1="0" x2="131.0" y2="420" stroke="#b0d8b0" stroke-width="0.0625"/>
    <line x1="132.0" y1="0" x2="132.0" y2="420" stroke="#b0d8b0" stroke-width="0.0625"/>
    <line x1="133.0" y1="0" x2="133.0" y2="420" stroke="#b0d8b0" stroke-width="0.0625"/>
    <line x1="134.0" y1="0" x2="134.0" y2="420" stroke="#b0d8b0" stroke-width="0.0625"/>
    <line x1="135.0" y1="0" x2="135.0" y2="420" stroke="#b0d8b0" stroke-width="0.0625"/>
    <line x1="136.0" y1="0" x2="136.0" y2="420" stroke="#b0d8b0" stroke-width="0.0625"/>
    <line x1="137.0" y1="0" x2="137.0" y2="420" stroke="#b0d8b0" stroke-width="0.0625"/>
    <line x1="138.0" y1="0" x2="138.0" y2="420" stroke="#b0d8b0" stroke-width="0.0625"/>
    <line x1="139.0" y1="0" x2="139.0" y2="420" stroke="#b0d8b0" stroke-width="0.0625"/>
    <line x1="141.0" y1="0" x2="141.0" y2="420" stroke="#b0d8b0" stroke-width="0.0625"/>
    <line x1="142.0" y1="0" x2="142.0" y2="420" stroke="#b0d8b0" stroke-width="0.0625"/>
    <line x1="143.0" y1="0" x2="143.0" y2="420" stroke="#b0d8b0" stroke-width="0.0625"/>
    <line x1="144.0" y1="0" x2="144.0" y2="420" stroke="#b0d8b0" stroke-width="0.0625"/>
    <line x1="145.0" y1="0" x2="145.0" y2="420" stroke="#b0d8b0" stroke-width="0.0625"/>
    <line x1="146.0" y1="0" x2="146.0" y2="420" stroke="#b0d8b0" stroke-width="0.0625"/>
    <line x1="147.0" y1="0" x2="147.0" y2="420" stroke="#b0d8b0" stroke-width="0.0625"/>
    <line x1="148.0" y1="0" x2="148.0" y2="420" stroke="#b0d8b0" stroke-width="0.0625"/>
    <line x1="149.0" y1="0" x2="149.0" y2="420" stroke="#b0d8b0" stroke-width="0.0625"/>
    <line x1="151.0" y1="0" x2="151.0" y2="420" stroke="#b0d8b0" stroke-width="0.0625"/>
    <line x1="152.0" y1="0" x2="152.0" y2="420" stroke="#b0d8b0" stroke-width="0.0625"/>
    <line x1="153.0" y1="0" x2="153.0" y2="420" stroke="#b0d8b0" stroke-width="0.0625"/>
    <line x1="154.0" y1="0" x2="154.0" y2="420" stroke="#b0d8b0" stroke-width="0.0625"/>
    <line x1="155.0" y1="0" x2="155.0" y2="420" stroke="#b0d8b0" stroke-width="0.0625"/>
    <line x1="156.0" y1="0" x2="156.0" y2="420" stroke="#b0d8b0" stroke-width="0.0625"/>
    <line x1="157.0" y1="0" x2="157.0" y2="420" stroke="#b0d8b0" stroke-width="0.0625"/>
    <line x1="158.0" y1="0" x2="158.0" y2="420" stroke="#b0d8b0" stroke-width="0.0625"/>
    <line x1="159.0" y1="0" x2="159.0" y2="420" stroke="#b0d8b0" stroke-width="0.0625"/>
    <line x1="161.0" y1="0" x2="161.0" y2="420" stroke="#b0d8b0" stroke-width="0.0625"/>
    <line x1="162.0" y1="0" x2="162.0" y2="420" stroke="#b0d8b0" stroke-width="0.0625"/>
    <line x1="163.0" y1="0" x2="163.0" y2="420" stroke="#b0d8b0" stroke-width="0.0625"/>
    <line x1="164.0" y1="0" x2="164.0" y2="420" stroke="#b0d8b0" stroke-width="0.0625"/>
    <line x1="165.0" y1="0" x2="165.0" y2="420" stroke="#b0d8b0" stroke-width="0.0625"/>
    <line x1="166.0" y1="0" x2="166.0" y2="420" stroke="#b0d8b0" stroke-width="0.0625"/>
    <line x1="167.0" y1="0" x2="167.0" y2="420" stroke="#b0d8b0" stroke-width="0.0625"/>
    <line x1="168.0" y1="0" x2="168.0" y2="420" stroke="#b0d8b0" stroke-width="0.0625"/>
    <line x1="169.0" y1="0" x2="169.0" y2="420" stroke="#b0d8b0" stroke-width="0.0625"/>
    <line x1="171.0" y1="0" x2="171.0" y2="420" stroke="#b0d8b0" stroke-width="0.0625"/>
    <line x1="172.0" y1="0" x2="172.0" y2="420" stroke="#b0d8b0" stroke-width="0.0625"/>
    <line x1="173.0" y1="0" x2="173.0" y2="420" stroke="#b0d8b0" stroke-width="0.0625"/>
    <line x1="174.0" y1="0" x2="174.0" y2="420" stroke="#b0d8b0" stroke-width="0.0625"/>
    <line x1="175.0" y1="0" x2="175.0" y2="420" stroke="#b0d8b0" stroke-width="0.0625"/>
    <line x1="176.0" y1="0" x2="176.0" y2="420" stroke="#b0d8b0" stroke-width="0.0625"/>
    <line x1="177.0" y1="0" x2="177.0" y2="420" stroke="#b0d8b0" stroke-width="0.0625"/>
    <line x1="178.0" y1="0" x2="178.0" y2="420" stroke="#b0d8b0" stroke-width="0.0625"/>
    <line x1="179.0" y1="0" x2="179.0" y2="420" stroke="#b0d8b0" stroke-width="0.0625"/>
    <line x1="181.0" y1="0" x2="181.0" y2="420" stroke="#b0d8b0" stroke-width="0.0625"/>
    <line x1="182.0" y1="0" x2="182.0" y2="420" stroke="#b0d8b0" stroke-width="0.0625"/>
    <line x1="183.0" y1="0" x2="183.0" y2="420" stroke="#b0d8b0" stroke-width="0.0625"/>
    <line x1="184.0" y1="0" x2="184.0" y2="420" stroke="#b0d8b0" stroke-width="0.0625"/>
    <line x1="185.0" y1="0" x2="185.0" y2="420" stroke="#b0d8b0" stroke-width="0.0625"/>
    <line x1="186.0" y1="0" x2="186.0" y2="420" stroke="#b0d8b0" stroke-width="0.0625"/>
    <line x1="187.0" y1="0" x2="187.0" y2="420" stroke="#b0d8b0" stroke-width="0.0625"/>
    <line x1="188.0" y1="0" x2="188.0" y2="420" stroke="#b0d8b0" stroke-width="0.0625"/>
    <line x1="189.0" y1="0" x2="189.0" y2="420" stroke="#b0d8b0" stroke-width="0.0625"/>
    <line x1="191.0" y1="0" x2="191.0" y2="420" stroke="#b0d8b0" stroke-width="0.0625"/>
    <line x1="192.0" y1="0" x2="192.0" y2="420" stroke="#b0d8b0" stroke-width="0.0625"/>
    <line x1="193.0" y1="0" x2="193.0" y2="420" stroke="#b0d8b0" stroke-width="0.0625"/>
    <line x1="194.0" y1="0" x2="194.0" y2="420" stroke="#b0d8b0" stroke-width="0.0625"/>
    <line x1="195.0" y1="0" x2="195.0" y2="420" stroke="#b0d8b0" stroke-width="0.0625"/>
    <line x1="196.0" y1="0" x2="196.0" y2="420" stroke="#b0d8b0" stroke-width="0.0625"/>
    <line x1="197.0" y1="0" x2="197.0" y2="420" stroke="#b0d8b0" stroke-width="0.0625"/>
    <line x1="198.0" y1="0" x2="198.0" y2="420" stroke="#b0d8b0" stroke-width="0.0625"/>
    <line x1="199.0" y1="0" x2="199.0" y2="420" stroke="#b0d8b0" stroke-width="0.0625"/>
    <line x1="201.0" y1="0" x2="201.0" y2="420" stroke="#b0d8b0" stroke-width="0.0625"/>
    <line x1="202.0" y1="0" x2="202.0" y2="420" stroke="#b0d8b0" stroke-width="0.0625"/>
    <line x1="203.0" y1="0" x2="203.0" y2="420" stroke="#b0d8b0" stroke-width="0.0625"/>
    <line x1="204.0" y1="0" x2="204.0" y2="420" stroke="#b0d8b0" stroke-width="0.0625"/>
    <line x1="205.0" y1="0" x2="205.0" y2="420" stroke="#b0d8b0" stroke-width="0.0625"/>
    <line x1="206.0" y1="0" x2="206.0" y2="420" stroke="#b0d8b0" stroke-width="0.0625"/>
    <line x1="207.0" y1="0" x2="207.0" y2="420" stroke="#b0d8b0" stroke-width="0.0625"/>
    <line x1="208.0" y1="0" x2="208.0" y2="420" stroke="#b0d8b0" stroke-width="0.0625"/>
    <line x1="209.0" y1="0" x2="209.0" y2="420" stroke="#b0d8b0" stroke-width="0.0625"/>
    <line x1="211.0" y1="0" x2="211.0" y2="420" stroke="#b0d8b0" stroke-width="0.0625"/>
    <line x1="212.0" y1="0" x2="212.0" y2="420" stroke="#b0d8b0" stroke-width="0.0625"/>
    <line x1="213.0" y1="0" x2="213.0" y2="420" stroke="#b0d8b0" stroke-width="0.0625"/>
    <line x1="214.0" y1="0" x2="214.0" y2="420" stroke="#b0d8b0" stroke-width="0.0625"/>
    <line x1="215.0" y1="0" x2="215.0" y2="420" stroke="#b0d8b0" stroke-width="0.0625"/>
    <line x1="216.0" y1="0" x2="216.0" y2="420" stroke="#b0d8b0" stroke-width="0.0625"/>
    <line x1="217.0" y1="0" x2="217.0" y2="420" stroke="#b0d8b0" stroke-width="0.0625"/>
    <line x1="218.0" y1="0" x2="218.0" y2="420" stroke="#b0d8b0" stroke-width="0.0625"/>
    <line x1="219.0" y1="0" x2="219.0" y2="420" stroke="#b0d8b0" stroke-width="0.0625"/>
    <line x1="221.0" y1="0" x2="221.0" y2="420" stroke="#b0d8b0" stroke-width="0.0625"/>
    <line x1="222.0" y1="0" x2="222.0" y2="420" stroke="#b0d8b0" stroke-width="0.0625"/>
    <line x1="223.0" y1="0" x2="223.0" y2="420" stroke="#b0d8b0" stroke-width="0.0625"/>
    <line x1="224.0" y1="0" x2="224.0" y2="420" stroke="#b0d8b0" stroke-width="0.0625"/>
    <line x1="225.0" y1="0" x2="225.0" y2="420" stroke="#b0d8b0" stroke-width="0.0625"/>
    <line x1="226.0" y1="0" x2="226.0" y2="420" stroke="#b0d8b0" stroke-width="0.0625"/>
    <line x1="227.0" y1="0" x2="227.0" y2="420" stroke="#b0d8b0" stroke-width="0.0625"/>
    <line x1="228.0" y1="0" x2="228.0" y2="420" stroke="#b0d8b0" stroke-width="0.0625"/>
    <line x1="229.0" y1="0" x2="229.0" y2="420" stroke="#b0d8b0" stroke-width="0.0625"/>
    <line x1="231.0" y1="0" x2="231.0" y2="420" stroke="#b0d8b0" stroke-width="0.0625"/>
    <line x1="232.0" y1="0" x2="232.0" y2="420" stroke="#b0d8b0" stroke-width="0.0625"/>
    <line x1="233.0" y1="0" x2="233.0" y2="420" stroke="#b0d8b0" stroke-width="0.0625"/>
    <line x1="234.0" y1="0" x2="234.0" y2="420" stroke="#b0d8b0" stroke-width="0.0625"/>
    <line x1="235.0" y1="0" x2="235.0" y2="420" stroke="#b0d8b0" stroke-width="0.0625"/>
    <line x1="236.0" y1="0" x2="236.0" y2="420" stroke="#b0d8b0" stroke-width="0.0625"/>
    <line x1="237.0" y1="0" x2="237.0" y2="420" stroke="#b0d8b0" stroke-width="0.0625"/>
    <line x1="238.0" y1="0" x2="238.0" y2="420" stroke="#b0d8b0" stroke-width="0.0625"/>
    <line x1="239.0" y1="0" x2="239.0" y2="420" stroke="#b0d8b0" stroke-width="0.0625"/>
    <line x1="241.0" y1="0" x2="241.0" y2="420" stroke="#b0d8b0" stroke-width="0.0625"/>
    <line x1="242.0" y1="0" x2="242.0" y2="420" stroke="#b0d8b0" stroke-width="0.0625"/>
    <line x1="243.0" y1="0" x2="243.0" y2="420" stroke="#b0d8b0" stroke-width="0.0625"/>
    <line x1="244.0" y1="0" x2="244.0" y2="420" stroke="#b0d8b0" stroke-width="0.0625"/>
    <line x1="245.0" y1="0" x2="245.0" y2="420" stroke="#b0d8b0" stroke-width="0.0625"/>
    <line x1="246.0" y1="0" x2="246.0" y2="420" stroke="#b0d8b0" stroke-width="0.0625"/>
    <line x1="247.0" y1="0" x2="247.0" y2="420" stroke="#b0d8b0" stroke-width="0.0625"/>
    <line x1="248.0" y1="0" x2="248.0" y2="420" stroke="#b0d8b0" stroke-width="0.0625"/>
    <line x1="249.0" y1="0" x2="249.0" y2="420" stroke="#b0d8b0" stroke-width="0.0625"/>
    <line x1="251.0" y1="0" x2="251.0" y2="420" stroke="#b0d8b0" stroke-width="0.0625"/>
    <line x1="252.0" y1="0" x2="252.0" y2="420" stroke="#b0d8b0" stroke-width="0.0625"/>
    <line x1="253.0" y1="0" x2="253.0" y2="420" stroke="#b0d8b0" stroke-width="0.0625"/>
    <line x1="254.0" y1="0" x2="254.0" y2="420" stroke="#b0d8b0" stroke-width="0.0625"/>
    <line x1="255.0" y1="0" x2="255.0" y2="420" stroke="#b0d8b0" stroke-width="0.0625"/>
    <line x1="256.0" y1="0" x2="256.0" y2="420" stroke="#b0d8b0" stroke-width="0.0625"/>
    <line x1="257.0" y1="0" x2="257.0" y2="420" stroke="#b0d8b0" stroke-width="0.0625"/>
    <line x1="258.0" y1="0" x2="258.0" y2="420" stroke="#b0d8b0" stroke-width="0.0625"/>
    <line x1="259.0" y1="0" x2="259.0" y2="420" stroke="#b0d8b0" stroke-width="0.0625"/>
    <line x1="261.0" y1="0" x2="261.0" y2="420" stroke="#b0d8b0" stroke-width="0.0625"/>
    <line x1="262.0" y1="0" x2="262.0" y2="420" stroke="#b0d8b0" stroke-width="0.0625"/>
    <line x1="263.0" y1="0" x2="263.0" y2="420" stroke="#b0d8b0" stroke-width="0.0625"/>
    <line x1="264.0" y1="0" x2="264.0" y2="420" stroke="#b0d8b0" stroke-width="0.0625"/>
    <line x1="265.0" y1="0" x2="265.0" y2="420" stroke="#b0d8b0" stroke-width="0.0625"/>
    <line x1="266.0" y1="0" x2="266.0" y2="420" stroke="#b0d8b0" stroke-width="0.0625"/>
    <line x1="267.0" y1="0" x2="267.0" y2="420" stroke="#b0d8b0" stroke-width="0.0625"/>
    <line x1="268.0" y1="0" x2="268.0" y2="420" stroke="#b0d8b0" stroke-width="0.0625"/>
    <line x1="269.0" y1="0" x2="269.0" y2="420" stroke="#b0d8b0" stroke-width="0.0625"/>
    <line x1="271.0" y1="0" x2="271.0" y2="420" stroke="#b0d8b0" stroke-width="0.0625"/>
    <line x1="272.0" y1="0" x2="272.0" y2="420" stroke="#b0d8b0" stroke-width="0.0625"/>
    <line x1="273.0" y1="0" x2="273.0" y2="420" stroke="#b0d8b0" stroke-width="0.0625"/>
    <line x1="274.0" y1="0" x2="274.0" y2="420" stroke="#b0d8b0" stroke-width="0.0625"/>
    <line x1="275.0" y1="0" x2="275.0" y2="420" stroke="#b0d8b0" stroke-width="0.0625"/>
    <line x1="276.0" y1="0" x2="276.0" y2="420" stroke="#b0d8b0" stroke-width="0.0625"/>
    <line x1="277.0" y1="0" x2="277.0" y2="420" stroke="#b0d8b0" stroke-width="0.0625"/>
    <line x1="278.0" y1="0" x2="278.0" y2="420" stroke="#b0d8b0" stroke-width="0.0625"/>
    <line x1="279.0" y1="0" x2="279.0" y2="420" stroke="#b0d8b0" stroke-width="0.0625"/>
    <line x1="281.0" y1="0" x2="281.0" y2="420" stroke="#b0d8b0" stroke-width="0.0625"/>
    <line x1="282.0" y1="0" x2="282.0" y2="420" stroke="#b0d8b0" stroke-width="0.0625"/>
    <line x1="283.0" y1="0" x2="283.0" y2="420" stroke="#b0d8b0" stroke-width="0.0625"/>
    <line x1="284.0" y1="0" x2="284.0" y2="420" stroke="#b0d8b0" stroke-width="0.0625"/>
    <line x1="285.0" y1="0" x2="285.0" y2="420" stroke="#b0d8b0" stroke-width="0.0625"/>
    <line x1="286.0" y1="0" x2="286.0" y2="420" stroke="#b0d8b0" stroke-width="0.0625"/>
    <line x1="287.0" y1="0" x2="287.0" y2="420" stroke="#b0d8b0" stroke-width="0.0625"/>
    <line x1="288.0" y1="0" x2="288.0" y2="420" stroke="#b0d8b0" stroke-width="0.0625"/>
    <line x1="289.0" y1="0" x2="289.0" y2="420" stroke="#b0d8b0" stroke-width="0.0625"/>
    <line x1="291.0" y1="0" x2="291.0" y2="420" stroke="#b0d8b0" stroke-width="0.0625"/>
    <line x1="292.0" y1="0" x2="292.0" y2="420" stroke="#b0d8b0" stroke-width="0.0625"/>
    <line x1="293.0" y1="0" x2="293.0" y2="420" stroke="#b0d8b0" stroke-width="0.0625"/>
    <line x1="294.0" y1="0" x2="294.0" y2="420" stroke="#b0d8b0" stroke-width="0.0625"/>
    <line x1="295.0" y1="0" x2="295.0" y2="420" stroke="#b0d8b0" stroke-width="0.0625"/>
    <line x1="296.0" y1="0" x2="296.0" y2="420" stroke="#b0d8b0" stroke-width="0.0625"/>
    <line x1="297.0" y1="0" x2="297.0" y2="420" stroke="#b0d8b0" stroke-width="0.0625"/>
    <line x1="0" y1="1.0" x2="297" y2="1.0" stroke="#b0d8b0" stroke-width="0.0625"/>
    <line x1="0" y1="2.0" x2="297" y2="2.0" stroke="#b0d8b0" stroke-width="0.0625"/>
    <line x1="0" y1="3.0" x2="297" y2="3.0" stroke="#b0d8b0" stroke-width="0.0625"/>
    <line x1="0" y1="4.0" x2="297" y2="4.0" stroke="#b0d8b0" stroke-width="0.0625"/>
    <line x1="0" y1="5.0" x2="297" y2="5.0" stroke="#b0d8b0" stroke-width="0.0625"/>
    <line x1="0" y1="6.0" x2="297" y2="6.0" stroke="#b0d8b0" stroke-width="0.0625"/>
    <line x1="0" y1="7.0" x2="297" y2="7.0" stroke="#b0d8b0" stroke-width="0.0625"/>
    <line x1="0" y1="8.0" x2="297" y2="8.0" stroke="#b0d8b0" stroke-width="0.0625"/>
    <line x1="0" y1="9.0" x2="297" y2="9.0" stroke="#b0d8b0" stroke-width="0.0625"/>
    <line x1="0" y1="11.0" x2="297" y2="11.0" stroke="#b0d8b0" stroke-width="0.0625"/>
    <line x1="0" y1="12.0" x2="297" y2="12.0" stroke="#b0d8b0" stroke-width="0.0625"/>
    <line x1="0" y1="13.0" x2="297" y2="13.0" stroke="#b0d8b0" stroke-width="0.0625"/>
    <line x1="0" y1="14.0" x2="297" y2="14.0" stroke="#b0d8b0" stroke-width="0.0625"/>
    <line x1="0" y1="15.0" x2="297" y2="15.0" stroke="#b0d8b0" stroke-width="0.0625"/>
    <line x1="0" y1="16.0" x2="297" y2="16.0" stroke="#b0d8b0" stroke-width="0.0625"/>
    <line x1="0" y1="17.0" x2="297" y2="17.0" stroke="#b0d8b0" stroke-width="0.0625"/>
    <line x1="0" y1="18.0" x2="297" y2="18.0" stroke="#b0d8b0" stroke-width="0.0625"/>
    <line x1="0" y1="19.0" x2="297" y2="19.0" stroke="#b0d8b0" stroke-width="0.0625"/>
    <line x1="0" y1="21.0" x2="297" y2="21.0" stroke="#b0d8b0" stroke-width="0.0625"/>
    <line x1="0" y1="22.0" x2="297" y2="22.0" stroke="#b0d8b0" stroke-width="0.0625"/>
    <line x1="0" y1="23.0" x2="297" y2="23.0" stroke="#b0d8b0" stroke-width="0.0625"/>
    <line x1="0" y1="24.0" x2="297" y2="24.0" stroke="#b0d8b0" stroke-width="0.0625"/>
    <line x1="0" y1="25.0" x2="297" y2="25.0" stroke="#b0d8b0" stroke-width="0.0625"/>
    <line x1="0" y1="26.0" x2="297" y2="26.0" stroke="#b0d8b0" stroke-width="0.0625"/>
    <line x1="0" y1="27.0" x2="297" y2="27.0" stroke="#b0d8b0" stroke-width="0.0625"/>
    <line x1="0" y1="28.0" x2="297" y2="28.0" stroke="#b0d8b0" stroke-width="0.0625"/>
    <line x1="0" y1="29.0" x2="297" y2="29.0" stroke="#b0d8b0" stroke-width="0.0625"/>
    <line x1="0" y1="31.0" x2="297" y2="31.0" stroke="#b0d8b0" stroke-width="0.0625"/>
    <line x1="0" y1="32.0" x2="297" y2="32.0" stroke="#b0d8b0" stroke-width="0.0625"/>
    <line x1="0" y1="33.0" x2="297" y2="33.0" stroke="#b0d8b0" stroke-width="0.0625"/>
    <line x1="0" y1="34.0" x2="297" y2="34.0" stroke="#b0d8b0" stroke-width="0.0625"/>
    <line x1="0" y1="35.0" x2="297" y2="35.0" stroke="#b0d8b0" stroke-width="0.0625"/>
    <line x1="0" y1="36.0" x2="297" y2="36.0" stroke="#b0d8b0" stroke-width="0.0625"/>
    <line x1="0" y1="37.0" x2="297" y2="37.0" stroke="#b0d8b0" stroke-width="0.0625"/>
    <line x1="0" y1="38.0" x2="297" y2="38.0" stroke="#b0d8b0" stroke-width="0.0625"/>
    <line x1="0" y1="39.0" x2="297" y2="39.0" stroke="#b0d8b0" stroke-width="0.0625"/>
    <line x1="0" y1="41.0" x2="297" y2="41.0" stroke="#b0d8b0" stroke-width="0.0625"/>
    <line x1="0" y1="42.0" x2="297" y2="42.0" stroke="#b0d8b0" stroke-width="0.0625"/>
    <line x1="0" y1="43.0" x2="297" y2="43.0" stroke="#b0d8b0" stroke-width="0.0625"/>
    <line x1="0" y1="44.0" x2="297" y2="44.0" stroke="#b0d8b0" stroke-width="0.0625"/>
    <line x1="0" y1="45.0" x2="297" y2="45.0" stroke="#b0d8b0" stroke-width="0.0625"/>
    <line x1="0" y1="46.0" x2="297" y2="46.0" stroke="#b0d8b0" stroke-width="0.0625"/>
    <line x1="0" y1="47.0" x2="297" y2="47.0" stroke="#b0d8b0" stroke-width="0.0625"/>
    <line x1="0" y1="48.0" x2="297" y2="48.0" stroke="#b0d8b0" stroke-width="0.0625"/>
    <line x1="0" y1="49.0" x2="297" y2="49.0" stroke="#b0d8b0" stroke-width="0.0625"/>
    <line x1="0" y1="51.0" x2="297" y2="51.0" stroke="#b0d8b0" stroke-width="0.0625"/>
    <line x1="0" y1="52.0" x2="297" y2="52.0" stroke="#b0d8b0" stroke-width="0.0625"/>
    <line x1="0" y1="53.0" x2="297" y2="53.0" stroke="#b0d8b0" stroke-width="0.0625"/>
    <line x1="0" y1="54.0" x2="297" y2="54.0" stroke="#b0d8b0" stroke-width="0.0625"/>
    <line x1="0" y1="55.0" x2="297" y2="55.0" stroke="#b0d8b0" stroke-width="0.0625"/>
    <line x1="0" y1="56.0" x2="297" y2="56.0" stroke="#b0d8b0" stroke-width="0.0625"/>
    <line x1="0" y1="57.0" x2="297" y2="57.0" stroke="#b0d8b0" stroke-width="0.0625"/>
    <line x1="0" y1="58.0" x2="297" y2="58.0" stroke="#b0d8b0" stroke-width="0.0625"/>
    <line x1="0" y1="59.0" x2="297" y2="59.0" stroke="#b0d8b0" stroke-width="0.0625"/>
    <line x1="0" y1="61.0" x2="297" y2="61.0" stroke="#b0d8b0" stroke-width="0.0625"/>
    <line x1="0" y1="62.0" x2="297" y2="62.0" stroke="#b0d8b0" stroke-width="0.0625"/>
    <line x1="0" y1="63.0" x2="297" y2="63.0" stroke="#b0d8b0" stroke-width="0.0625"/>
    <line x1="0" y1="64.0" x2="297" y2="64.0" stroke="#b0d8b0" stroke-width="0.0625"/>
    <line x1="0" y1="65.0" x2="297" y2="65.0" stroke="#b0d8b0" stroke-width="0.0625"/>
    <line x1="0" y1="66.0" x2="297" y2="66.0" stroke="#b0d8b0" stroke-width="0.0625"/>
    <line x1="0" y1="67.0" x2="297" y2="67.0" stroke="#b0d8b0" stroke-width="0.0625"/>
    <line x1="0" y1="68.0" x2="297" y2="68.0" stroke="#b0d8b0" stroke-width="0.0625"/>
    <line x1="0" y1="69.0" x2="297" y2="69.0" stroke="#b0d8b0" stroke-width="0.0625"/>
    <line x1="0" y1="71.0" x2="297" y2="71.0" stroke="#b0d8b0" stroke-width="0.0625"/>
    <line x1="0" y1="72.0" x2="297" y2="72.0" stroke="#b0d8b0" stroke-width="0.0625"/>
    <line x1="0" y1="73.0" x2="297" y2="73.0" stroke="#b0d8b0" stroke-width="0.0625"/>
    <line x1="0" y1="74.0" x2="297" y2="74.0" stroke="#b0d8b0" stroke-width="0.0625"/>
    <line x1="0" y1="75.0" x2="297" y2="75.0" stroke="#b0d8b0" stroke-width="0.0625"/>
    <line x1="0" y1="76.0" x2="297" y2="76.0" stroke="#b0d8b0" stroke-width="0.0625"/>
    <line x1="0" y1="77.0" x2="297" y2="77.0" stroke="#b0d8b0" stroke-width="0.0625"/>
    <line x1="0" y1="78.0" x2="297" y2="78.0" stroke="#b0d8b0" stroke-width="0.0625"/>
    <line x1="0" y1="79.0" x2="297" y2="79.0" stroke="#b0d8b0" stroke-width="0.0625"/>
    <line x1="0" y1="81.0" x2="297" y2="81.0" stroke="#b0d8b0" stroke-width="0.0625"/>
    <line x1="0" y1="82.0" x2="297" y2="82.0" stroke="#b0d8b0" stroke-width="0.0625"/>
    <line x1="0" y1="83.0" x2="297" y2="83.0" stroke="#b0d8b0" stroke-width="0.0625"/>
    <line x1="0" y1="84.0" x2="297" y2="84.0" stroke="#b0d8b0" stroke-width="0.0625"/>
    <line x1="0" y1="85.0" x2="297" y2="85.0" stroke="#b0d8b0" stroke-width="0.0625"/>
    <line x1="0" y1="86.0" x2="297" y2="86.0" stroke="#b0d8b0" stroke-width="0.0625"/>
    <line x1="0" y1="87.0" x2="297" y2="87.0" stroke="#b0d8b0" stroke-width="0.0625"/>
    <line x1="0" y1="88.0" x2="297" y2="88.0" stroke="#b0d8b0" stroke-width="0.0625"/>
    <line x1="0" y1="89.0" x2="297" y2="89.0" stroke="#b0d8b0" stroke-width="0.0625"/>
    <line x1="0" y1="91.0" x2="297" y2="91.0" stroke="#b0d8b0" stroke-width="0.0625"/>
    <line x1="0" y1="92.0" x2="297" y2="92.0" stroke="#b0d8b0" stroke-width="0.0625"/>
    <line x1="0" y1="93.0" x2="297" y2="93.0" stroke="#b0d8b0" stroke-width="0.0625"/>
    <line x1="0" y1="94.0" x2="297" y2="94.0" stroke="#b0d8b0" stroke-width="0.0625"/>
    <line x1="0" y1="95.0" x2="297" y2="95.0" stroke="#b0d8b0" stroke-width="0.0625"/>
    <line x1="0" y1="96.0" x2="297" y2="96.0" stroke="#b0d8b0" stroke-width="0.0625"/>
    <line x1="0" y1="97.0" x2="297" y2="97.0" stroke="#b0d8b0" stroke-width="0.0625"/>
    <line x1="0" y1="98.0" x2="297" y2="98.0" stroke="#b0d8b0" stroke-width="0.0625"/>
    <line x1="0" y1="99.0" x2="297" y2="99.0" stroke="#b0d8b0" stroke-width="0.0625"/>
    <line x1="0" y1="101.0" x2="297" y2="101.0" stroke="#b0d8b0" stroke-width="0.0625"/>
    <line x1="0" y1="102.0" x2="297" y2="102.0" stroke="#b0d8b0" stroke-width="0.0625"/>
    <line x1="0" y1="103.0" x2="297" y2="103.0" stroke="#b0d8b0" stroke-width="0.0625"/>
    <line x1="0" y1="104.0" x2="297" y2="104.0" stroke="#b0d8b0" stroke-width="0.0625"/>
    <line x1="0" y1="105.0" x2="297" y2="105.0" stroke="#b0d8b0" stroke-width="0.0625"/>
    <line x1="0" y1="106.0" x2="297" y2="106.0" stroke="#b0d8b0" stroke-width="0.0625"/>
    <line x1="0" y1="107.0" x2="297" y2="107.0" stroke="#b0d8b0" stroke-width="0.0625"/>
    <line x1="0" y1="108.0" x2="297" y2="108.0" stroke="#b0d8b0" stroke-width="0.0625"/>
    <line x1="0" y1="109.0" x2="297" y2="109.0" stroke="#b0d8b0" stroke-width="0.0625"/>
    <line x1="0" y1="111.0" x2="297" y2="111.0" stroke="#b0d8b0" stroke-width="0.0625"/>
    <line x1="0" y1="112.0" x2="297" y2="112.0" stroke="#b0d8b0" stroke-width="0.0625"/>
    <line x1="0" y1="113.0" x2="297" y2="113.0" stroke="#b0d8b0" stroke-width="0.0625"/>
    <line x1="0" y1="114.0" x2="297" y2="114.0" stroke="#b0d8b0" stroke-width="0.0625"/>
    <line x1="0" y1="115.0" x2="297" y2="115.0" stroke="#b0d8b0" stroke-width="0.0625"/>
    <line x1="0" y1="116.0" x2="297" y2="116.0" stroke="#b0d8b0" stroke-width="0.0625"/>
    <line x1="0" y1="117.0" x2="297" y2="117.0" stroke="#b0d8b0" stroke-width="0.0625"/>
    <line x1="0" y1="118.0" x2="297" y2="118.0" stroke="#b0d8b0" stroke-width="0.0625"/>
    <line x1="0" y1="119.0" x2="297" y2="119.0" stroke="#b0d8b0" stroke-width="0.0625"/>
    <line x1="0" y1="121.0" x2="297" y2="121.0" stroke="#b0d8b0" stroke-width="0.0625"/>
    <line x1="0" y1="122.0" x2="297" y2="122.0" stroke="#b0d8b0" stroke-width="0.0625"/>
    <line x1="0" y1="123.0" x2="297" y2="123.0" stroke="#b0d8b0" stroke-width="0.0625"/>
    <line x1="0" y1="124.0" x2="297" y2="124.0" stroke="#b0d8b0" stroke-width="0.0625"/>
    <line x1="0" y1="125.0" x2="297" y2="125.0" stroke="#b0d8b0" stroke-width="0.0625"/>
    <line x1="0" y1="126.0" x2="297" y2="126.0" stroke="#b0d8b0" stroke-width="0.0625"/>
    <line x1="0" y1="127.0" x2="297" y2="127.0" stroke="#b0d8b0" stroke-width="0.0625"/>
    <line x1="0" y1="128.0" x2="297" y2="128.0" stroke="#b0d8b0" stroke-width="0.0625"/>
    <line x1="0" y1="129.0" x2="297" y2="129.0" stroke="#b0d8b0" stroke-width="0.0625"/>
    <line x1="0" y1="131.0" x2="297" y2="131.0" stroke="#b0d8b0" stroke-width="0.0625"/>
    <line x1="0" y1="132.0" x2="297" y2="132.0" stroke="#b0d8b0" stroke-width="0.0625"/>
    <line x1="0" y1="133.0" x2="297" y2="133.0" stroke="#b0d8b0" stroke-width="0.0625"/>
    <line x1="0" y1="134.0" x2="297" y2="134.0" stroke="#b0d8b0" stroke-width="0.0625"/>
    <line x1="0" y1="135.0" x2="297" y2="135.0" stroke="#b0d8b0" stroke-width="0.0625"/>
    <line x1="0" y1="136.0" x2="297" y2="136.0" stroke="#b0d8b0" stroke-width="0.0625"/>
    <line x1="0" y1="137.0" x2="297" y2="137.0" stroke="#b0d8b0" stroke-width="0.0625"/>
    <line x1="0" y1="138.0" x2="297" y2="138.0" stroke="#b0d8b0" stroke-width="0.0625"/>
    <line x1="0" y1="139.0" x2="297" y2="139.0" stroke="#b0d8b0" stroke-width="0.0625"/>
    <line x1="0" y1="141.0" x2="297" y2="141.0" stroke="#b0d8b0" stroke-width="0.0625"/>
    <line x1="0" y1="142.0" x2="297" y2="142.0" stroke="#b0d8b0" stroke-width="0.0625"/>
    <line x1="0" y1="143.0" x2="297" y2="143.0" stroke="#b0d8b0" stroke-width="0.0625"/>
    <line x1="0" y1="144.0" x2="297" y2="144.0" stroke="#b0d8b0" stroke-width="0.0625"/>
    <line x1="0" y1="145.0" x2="297" y2="145.0" stroke="#b0d8b0" stroke-width="0.0625"/>
    <line x1="0" y1="146.0" x2="297" y2="146.0" stroke="#b0d8b0" stroke-width="0.0625"/>
    <line x1="0" y1="147.0" x2="297" y2="147.0" stroke="#b0d8b0" stroke-width="0.0625"/>
    <line x1="0" y1="148.0" x2="297" y2="148.0" stroke="#b0d8b0" stroke-width="0.0625"/>
    <line x1="0" y1="149.0" x2="297" y2="149.0" stroke="#b0d8b0" stroke-width="0.0625"/>
    <line x1="0" y1="151.0" x2="297" y2="151.0" stroke="#b0d8b0" stroke-width="0.0625"/>
    <line x1="0" y1="152.0" x2="297" y2="152.0" stroke="#b0d8b0" stroke-width="0.0625"/>
    <line x1="0" y1="153.0" x2="297" y2="153.0" stroke="#b0d8b0" stroke-width="0.0625"/>
    <line x1="0" y1="154.0" x2="297" y2="154.0" stroke="#b0d8b0" stroke-width="0.0625"/>
    <line x1="0" y1="155.0" x2="297" y2="155.0" stroke="#b0d8b0" stroke-width="0.0625"/>
    <line x1="0" y1="156.0" x2="297" y2="156.0" stroke="#b0d8b0" stroke-width="0.0625"/>
    <line x1="0" y1="157.0" x2="297" y2="157.0" stroke="#b0d8b0" stroke-width="0.0625"/>
    <line x1="0" y1="158.0" x2="297" y2="158.0" stroke="#b0d8b0" stroke-width="0.0625"/>
    <line x1="0" y1="159.0" x2="297" y2="159.0" stroke="#b0d8b0" stroke-width="0.0625"/>
    <line x1="0" y1="161.0" x2="297" y2="161.0" stroke="#b0d8b0" stroke-width="0.0625"/>
    <line x1="0" y1="162.0" x2="297" y2="162.0" stroke="#b0d8b0" stroke-width="0.0625"/>
    <line x1="0" y1="163.0" x2="297" y2="163.0" stroke="#b0d8b0" stroke-width="0.0625"/>
    <line x1="0" y1="164.0" x2="297" y2="164.0" stroke="#b0d8b0" stroke-width="0.0625"/>
    <line x1="0" y1="165.0" x2="297" y2="165.0" stroke="#b0d8b0" stroke-width="0.0625"/>
    <line x1="0" y1="166.0" x2="297" y2="166.0" stroke="#b0d8b0" stroke-width="0.0625"/>
    <line x1="0" y1="167.0" x2="297" y2="167.0" stroke="#b0d8b0" stroke-width="0.0625"/>
    <line x1="0" y1="168.0" x2="297" y2="168.0" stroke="#b0d8b0" stroke-width="0.0625"/>
    <line x1="0" y1="169.0" x2="297" y2="169.0" stroke="#b0d8b0" stroke-width="0.0625"/>
    <line x1="0" y1="171.0" x2="297" y2="171.0" stroke="#b0d8b0" stroke-width="0.0625"/>
    <line x1="0" y1="172.0" x2="297" y2="172.0" stroke="#b0d8b0" stroke-width="0.0625"/>
    <line x1="0" y1="173.0" x2="297" y2="173.0" stroke="#b0d8b0" stroke-width="0.0625"/>
    <line x1="0" y1="174.0" x2="297" y2="174.0" stroke="#b0d8b0" stroke-width="0.0625"/>
    <line x1="0" y1="175.0" x2="297" y2="175.0" stroke="#b0d8b0" stroke-width="0.0625"/>
    <line x1="0" y1="176.0" x2="297" y2="176.0" stroke="#b0d8b0" stroke-width="0.0625"/>
    <line x1="0" y1="177.0" x2="297" y2="177.0" stroke="#b0d8b0" stroke-width="0.0625"/>
    <line x1="0" y1="178.0" x2="297" y2="178.0" stroke="#b0d8b0" stroke-width="0.0625"/>
    <line x1="0" y1="179.0" x2="297" y2="179.0" stroke="#b0d8b0" stroke-width="0.0625"/>
    <line x1="0" y1="181.0" x2="297" y2="181.0" stroke="#b0d8b0" stroke-width="0.0625"/>
    <line x1="0" y1="182.0" x2="297" y2="182.0" stroke="#b0d8b0" stroke-width="0.0625"/>
    <line x1="0" y1="183.0" x2="297" y2="183.0" stroke="#b0d8b0" stroke-width="0.0625"/>
    <line x1="0" y1="184.0" x2="297" y2="184.0" stroke="#b0d8b0" stroke-width="0.0625"/>
    <line x1="0" y1="185.0" x2="297" y2="185.0" stroke="#b0d8b0" stroke-width="0.0625"/>
    <line x1="0" y1="186.0" x2="297" y2="186.0" stroke="#b0d8b0" stroke-width="0.0625"/>
    <line x1="0" y1="187.0" x2="297" y2="187.0" stroke="#b0d8b0" stroke-width="0.0625"/>
    <line x1="0" y1="188.0" x2="297" y2="188.0" stroke="#b0d8b0" stroke-width="0.0625"/>
    <line x1="0" y1="189.0" x2="297" y2="189.0" stroke="#b0d8b0" stroke-width="0.0625"/>
    <line x1="0" y1="191.0" x2="297" y2="191.0" stroke="#b0d8b0" stroke-width="0.0625"/>
    <line x1="0" y1="192.0" x2="297" y2="192.0" stroke="#b0d8b0" stroke-width="0.0625"/>
    <line x1="0" y1="193.0" x2="297" y2="193.0" stroke="#b0d8b0" stroke-width="0.0625"/>
    <line x1="0" y1="194.0" x2="297" y2="194.0" stroke="#b0d8b0" stroke-width="0.0625"/>
    <line x1="0" y1="195.0" x2="297" y2="195.0" stroke="#b0d8b0" stroke-width="0.0625"/>
    <line x1="0" y1="196.0" x2="297" y2="196.0" stroke="#b0d8b0" stroke-width="0.0625"/>
    <line x1="0" y1="197.0" x2="297" y2="197.0" stroke="#b0d8b0" stroke-width="0.0625"/>
    <line x1="0" y1="198.0" x2="297" y2="198.0" stroke="#b0d8b0" stroke-width="0.0625"/>
    <line x1="0" y1="199.0" x2="297" y2="199.0" stroke="#b0d8b0" stroke-width="0.0625"/>
    <line x1="0" y1="201.0" x2="297" y2="201.0" stroke="#b0d8b0" stroke-width="0.0625"/>
    <line x1="0" y1="202.0" x2="297" y2="202.0" stroke="#b0d8b0" stroke-width="0.0625"/>
    <line x1="0" y1="203.0" x2="297" y2="203.0" stroke="#b0d8b0" stroke-width="0.0625"/>
    <line x1="0" y1="204.0" x2="297" y2="204.0" stroke="#b0d8b0" stroke-width="0.0625"/>
    <line x1="0" y1="205.0" x2="297" y2="205.0" stroke="#b0d8b0" stroke-width="0.0625"/>
    <line x1="0" y1="206.0" x2="297" y2="206.0" stroke="#b0d8b0" stroke-width="0.0625"/>
    <line x1="0" y1="207.0" x2="297" y2="207.0" stroke="#b0d8b0" stroke-width="0.0625"/>
    <line x1="0" y1="208.0" x2="297" y2="208.0" stroke="#b0d8b0" stroke-width="0.0625"/>
    <line x1="0" y1="209.0" x2="297" y2="209.0" stroke="#b0d8b0" stroke-width="0.0625"/>
    <line x1="0" y1="211.0" x2="297" y2="211.0" stroke="#b0d8b0" stroke-width="0.0625"/>
    <line x1="0" y1="212.0" x2="297" y2="212.0" stroke="#b0d8b0" stroke-width="0.0625"/>
    <line x1="0" y1="213.0" x2="297" y2="213.0" stroke="#b0d8b0" stroke-width="0.0625"/>
    <line x1="0" y1="214.0" x2="297" y2="214.0" stroke="#b0d8b0" stroke-width="0.0625"/>
    <line x1="0" y1="215.0" x2="297" y2="215.0" stroke="#b0d8b0" stroke-width="0.0625"/>
    <line x1="0" y1="216.0" x2="297" y2="216.0" stroke="#b0d8b0" stroke-width="0.0625"/>
    <line x1="0" y1="217.0" x2="297" y2="217.0" stroke="#b0d8b0" stroke-width="0.0625"/>
    <line x1="0" y1="218.0" x2="297" y2="218.0" stroke="#b0d8b0" stroke-width="0.0625"/>
    <line x1="0" y1="219.0" x2="297" y2="219.0" stroke="#b0d8b0" stroke-width="0.0625"/>
    <line x1="0" y1="221.0" x2="297" y2="221.0" stroke="#b0d8b0" stroke-width="0.0625"/>
    <line x1="0" y1="222.0" x2="297" y2="222.0" stroke="#b0d8b0" stroke-width="0.0625"/>
    <line x1="0" y1="223.0" x2="297" y2="223.0" stroke="#b0d8b0" stroke-width="0.0625"/>
    <line x1="0" y1="224.0" x2="297" y2="224.0" stroke="#b0d8b0" stroke-width="0.0625"/>
    <line x1="0" y1="225.0" x2="297" y2="225.0" stroke="#b0d8b0" stroke-width="0.0625"/>
    <line x1="0" y1="226.0" x2="297" y2="226.0" stroke="#b0d8b0" stroke-width="0.0625"/>
    <line x1="0" y1="227.0" x2="297" y2="227.0" stroke="#b0d8b0" stroke-width="0.0625"/>
    <line x1="0" y1="228.0" x2="297" y2="228.0" stroke="#b0d8b0" stroke-width="0.0625"/>
    <line x1="0" y1="229.0" x2="297" y2="229.0" stroke="#b0d8b0" stroke-width="0.0625"/>
    <line x1="0" y1="231.0" x2="297" y2="231.0" stroke="#b0d8b0" stroke-width="0.0625"/>
    <line x1="0" y1="232.0" x2="297" y2="232.0" stroke="#b0d8b0" stroke-width="0.0625"/>
    <line x1="0" y1="233.0" x2="297" y2="233.0" stroke="#b0d8b0" stroke-width="0.0625"/>
    <line x1="0" y1="234.0" x2="297" y2="234.0" stroke="#b0d8b0" stroke-width="0.0625"/>
    <line x1="0" y1="235.0" x2="297" y2="235.0" stroke="#b0d8b0" stroke-width="0.0625"/>
    <line x1="0" y1="236.0" x2="297" y2="236.0" stroke="#b0d8b0" stroke-width="0.0625"/>
    <line x1="0" y1="237.0" x2="297" y2="237.0" stroke="#b0d8b0" stroke-width="0.0625"/>
    <line x1="0" y1="238.0" x2="297" y2="238.0" stroke="#b0d8b0" stroke-width="0.0625"/>
    <line x1="0" y1="239.0" x2="297" y2="239.0" stroke="#b0d8b0" stroke-width="0.0625"/>
    <line x1="0" y1="241.0" x2="297" y2="241.0" stroke="#b0d8b0" stroke-width="0.0625"/>
    <line x1="0" y1="242.0" x2="297" y2="242.0" stroke="#b0d8b0" stroke-width="0.0625"/>
    <line x1="0" y1="243.0" x2="297" y2="243.0" stroke="#b0d8b0" stroke-width="0.0625"/>
    <line x1="0" y1="244.0" x2="297" y2="244.0" stroke="#b0d8b0" stroke-width="0.0625"/>
    <line x1="0" y1="245.0" x2="297" y2="245.0" stroke="#b0d8b0" stroke-width="0.0625"/>
    <line x1="0" y1="246.0" x2="297" y2="246.0" stroke="#b0d8b0" stroke-width="0.0625"/>
    <line x1="0" y1="247.0" x2="297" y2="247.0" stroke="#b0d8b0" stroke-width="0.0625"/>
    <line x1="0" y1="248.0" x2="297" y2="248.0" stroke="#b0d8b0" stroke-width="0.0625"/>
    <line x1="0" y1="249.0" x2="297" y2="249.0" stroke="#b0d8b0" stroke-width="0.0625"/>
    <line x1="0" y1="251.0" x2="297" y2="251.0" stroke="#b0d8b0" stroke-width="0.0625"/>
    <line x1="0" y1="252.0" x2="297" y2="252.0" stroke="#b0d8b0" stroke-width="0.0625"/>
    <line x1="0" y1="253.0" x2="297" y2="253.0" stroke="#b0d8b0" stroke-width="0.0625"/>
    <line x1="0" y1="254.0" x2="297" y2="254.0" stroke="#b0d8b0" stroke-width="0.0625"/>
    <line x1="0" y1="255.0" x2="297" y2="255.0" stroke="#b0d8b0" stroke-width="0.0625"/>
    <line x1="0" y1="256.0" x2="297" y2="256.0" stroke="#b0d8b0" stroke-width="0.0625"/>
    <line x1="0" y1="257.0" x2="297" y2="257.0" stroke="#b0d8b0" stroke-width="0.0625"/>
    <line x1="0" y1="258.0" x2="297" y2="258.0" stroke="#b0d8b0" stroke-width="0.0625"/>
    <line x1="0" y1="259.0" x2="297" y2="259.0" stroke="#b0d8b0" stroke-width="0.0625"/>
    <line x1="0" y1="261.0" x2="297" y2="261.0" stroke="#b0d8b0" stroke-width="0.0625"/>
    <line x1="0" y1="262.0" x2="297" y2="262.0" stroke="#b0d8b0" stroke-width="0.0625"/>
    <line x1="0" y1="263.0" x2="297" y2="263.0" stroke="#b0d8b0" stroke-width="0.0625"/>
    <line x1="0" y1="264.0" x2="297" y2="264.0" stroke="#b0d8b0" stroke-width="0.0625"/>
    <line x1="0" y1="265.0" x2="297" y2="265.0" stroke="#b0d8b0" stroke-width="0.0625"/>
    <line x1="0" y1="266.0" x2="297" y2="266.0" stroke="#b0d8b0" stroke-width="0.0625"/>
    <line x1="0" y1="267.0" x2="297" y2="267.0" stroke="#b0d8b0" stroke-width="0.0625"/>
    <line x1="0" y1="268.0" x2="297" y2="268.0" stroke="#b0d8b0" stroke-width="0.0625"/>
    <line x1="0" y1="269.0" x2="297" y2="269.0" stroke="#b0d8b0" stroke-width="0.0625"/>
    <line x1="0" y1="271.0" x2="297" y2="271.0" stroke="#b0d8b0" stroke-width="0.0625"/>
    <line x1="0" y1="272.0" x2="297" y2="272.0" stroke="#b0d8b0" stroke-width="0.0625"/>
    <line x1="0" y1="273.0" x2="297" y2="273.0" stroke="#b0d8b0" stroke-width="0.0625"/>
    <line x1="0" y1="274.0" x2="297" y2="274.0" stroke="#b0d8b0" stroke-width="0.0625"/>
    <line x1="0" y1="275.0" x2="297" y2="275.0" stroke="#b0d8b0" stroke-width="0.0625"/>
    <line x1="0" y1="276.0" x2="297" y2="276.0" stroke="#b0d8b0" stroke-width="0.0625"/>
    <line x1="0" y1="277.0" x2="297" y2="277.0" stroke="#b0d8b0" stroke-width="0.0625"/>
    <line x1="0" y1="278.0" x2="297" y2="278.0" stroke="#b0d8b0" stroke-width="0.0625"/>
    <line x1="0" y1="279.0" x2="297" y2="279.0" stroke="#b0d8b0" stroke-width="0.0625"/>
    <line x1="0" y1="281.0" x2="297" y2="281.0" stroke="#b0d8b0" stroke-width="0.0625"/>
    <line x1="0" y1="282.0" x2="297" y2="282.0" stroke="#b0d8b0" stroke-width="0.0625"/>
    <line x1="0" y1="283.0" x2="297" y2="283.0" stroke="#b0d8b0" stroke-width="0.0625"/>
    <line x1="0" y1="284.0" x2="297" y2="284.0" stroke="#b0d8b0" stroke-width="0.0625"/>
    <line x1="0" y1="285.0" x2="297" y2="285.0" stroke="#b0d8b0" stroke-width="0.0625"/>
    <line x1="0" y1="286.0" x2="297" y2="286.0" stroke="#b0d8b0" stroke-width="0.0625"/>
    <line x1="0" y1="287.0" x2="297" y2="287.0" stroke="#b0d8b0" stroke-width="0.0625"/>
    <line x1="0" y1="288.0" x2="297" y2="288.0" stroke="#b0d8b0" stroke-width="0.0625"/>
    <line x1="0" y1="289.0" x2="297" y2="289.0" stroke="#b0d8b0" stroke-width="0.0625"/>
    <line x1="0" y1="291.0" x2="297" y2="291.0" stroke="#b0d8b0" stroke-width="0.0625"/>
    <line x1="0" y1="292.0" x2="297" y2="292.0" stroke="#b0d8b0" stroke-width="0.0625"/>
    <line x1="0" y1="293.0" x2="297" y2="293.0" stroke="#b0d8b0" stroke-width="0.0625"/>
    <line x1="0" y1="294.0" x2="297" y2="294.0" stroke="#b0d8b0" stroke-width="0.0625"/>
    <line x1="0" y1="295.0" x2="297" y2="295.0" stroke="#b0d8b0" stroke-width="0.0625"/>
    <line x1="0" y1="296.0" x2="297" y2="296.0" stroke="#b0d8b0" stroke-width="0.0625"/>
    <line x1="0" y1="297.0" x2="297" y2="297.0" stroke="#b0d8b0" stroke-width="0.0625"/>
    <line x1="0" y1="298.0" x2="297" y2="298.0" stroke="#b0d8b0" stroke-width="0.0625"/>
    <line x1="0" y1="299.0" x2="297" y2="299.0" stroke="#b0d8b0" stroke-width="0.0625"/>
    <line x1="0" y1="301.0" x2="297" y2="301.0" stroke="#b0d8b0" stroke-width="0.0625"/>
    <line x1="0" y1="302.0" x2="297" y2="302.0" stroke="#b0d8b0" stroke-width="0.0625"/>
    <line x1="0" y1="303.0" x2="297" y2="303.0" stroke="#b0d8b0" stroke-width="0.0625"/>
    <line x1="0" y1="304.0" x2="297" y2="304.0" stroke="#b0d8b0" stroke-width="0.0625"/>
    <line x1="0" y1="305.0" x2="297" y2="305.0" stroke="#b0d8b0" stroke-width="0.0625"/>
    <line x1="0" y1="306.0" x2="297" y2="306.0" stroke="#b0d8b0" stroke-width="0.0625"/>
    <line x1="0" y1="307.0" x2="297" y2="307.0" stroke="#b0d8b0" stroke-width="0.0625"/>
    <line x1="0" y1="308.0" x2="297" y2="308.0" stroke="#b0d8b0" stroke-width="0.0625"/>
    <line x1="0" y1="309.0" x2="297" y2="309.0" stroke="#b0d8b0" stroke-width="0.0625"/>
    <line x1="0" y1="311.0" x2="297" y2="311.0" stroke="#b0d8b0" stroke-width="0.0625"/>
    <line x1="0" y1="312.0" x2="297" y2="312.0" stroke="#b0d8b0" stroke-width="0.0625"/>
    <line x1="0" y1="313.0" x2="297" y2="313.0" stroke="#b0d8b0" stroke-width="0.0625"/>
    <line x1="0" y1="314.0" x2="297" y2="314.0" stroke="#b0d8b0" stroke-width="0.0625"/>
    <line x1="0" y1="315.0" x2="297" y2="315.0" stroke="#b0d8b0" stroke-width="0.0625"/>
    <line x1="0" y1="316.0" x2="297" y2="316.0" stroke="#b0d8b0" stroke-width="0.0625"/>
    <line x1="0" y1="317.0" x2="297" y2="317.0" stroke="#b0d8b0" stroke-width="0.0625"/>
    <line x1="0" y1="318.0" x2="297" y2="318.0" stroke="#b0d8b0" stroke-width="0.0625"/>
    <line x1="0" y1="319.0" x2="297" y2="319.0" stroke="#b0d8b0" stroke-width="0.0625"/>
    <line x1="0" y1="321.0" x2="297" y2="321.0" stroke="#b0d8b0" stroke-width="0.0625"/>
    <line x1="0" y1="322.0" x2="297" y2="322.0" stroke="#b0d8b0" stroke-width="0.0625"/>
    <line x1="0" y1="323.0" x2="297" y2="323.0" stroke="#b0d8b0" stroke-width="0.0625"/>
    <line x1="0" y1="324.0" x2="297" y2="324.0" stroke="#b0d8b0" stroke-width="0.0625"/>
    <line x1="0" y1="325.0" x2="297" y2="325.0" stroke="#b0d8b0" stroke-width="0.0625"/>
    <line x1="0" y1="326.0" x2="297" y2="326.0" stroke="#b0d8b0" stroke-width="0.0625"/>
    <line x1="0" y1="327.0" x2="297" y2="327.0" stroke="#b0d8b0" stroke-width="0.0625"/>
    <line x1="0" y1="328.0" x2="297" y2="328.0" stroke="#b0d8b0" stroke-width="0.0625"/>
    <line x1="0" y1="329.0" x2="297" y2="329.0" stroke="#b0d8b0" stroke-width="0.0625"/>
    <line x1="0" y1="331.0" x2="297" y2="331.0" stroke="#b0d8b0" stroke-width="0.0625"/>
    <line x1="0" y1="332.0" x2="297" y2="332.0" stroke="#b0d8b0" stroke-width="0.0625"/>
    <line x1="0" y1="333.0" x2="297" y2="333.0" stroke="#b0d8b0" stroke-width="0.0625"/>
    <line x1="0" y1="334.0" x2="297" y2="334.0" stroke="#b0d8b0" stroke-width="0.0625"/>
    <line x1="0" y1="335.0" x2="297" y2="335.0" stroke="#b0d8b0" stroke-width="0.0625"/>
    <line x1="0" y1="336.0" x2="297" y2="336.0" stroke="#b0d8b0" stroke-width="0.0625"/>
    <line x1="0" y1="337.0" x2="297" y2="337.0" stroke="#b0d8b0" stroke-width="0.0625"/>
    <line x1="0" y1="338.0" x2="297" y2="338.0" stroke="#b0d8b0" stroke-width="0.0625"/>
    <line x1="0" y1="339.0" x2="297" y2="339.0" stroke="#b0d8b0" stroke-width="0.0625"/>
    <line x1="0" y1="341.0" x2="297" y2="341.0" stroke="#b0d8b0" stroke-width="0.0625"/>
    <line x1="0" y1="342.0" x2="297" y2="342.0" stroke="#b0d8b0" stroke-width="0.0625"/>
    <line x1="0" y1="343.0" x2="297" y2="343.0" stroke="#b0d8b0" stroke-width="0.0625"/>
    <line x1="0" y1="344.0" x2="297" y2="344.0" stroke="#b0d8b0" stroke-width="0.0625"/>
    <line x1="0" y1="345.0" x2="297" y2="345.0" stroke="#b0d8b0" stroke-width="0.0625"/>
    <line x1="0" y1="346.0" x2="297" y2="346.0" stroke="#b0d8b0" stroke-width="0.0625"/>
    <line x1="0" y1="347.0" x2="297" y2="347.0" stroke="#b0d8b0" stroke-width="0.0625"/>
    <line x1="0" y1="348.0" x2="297" y2="348.0" stroke="#b0d8b0" stroke-width="0.0625"/>
    <line x1="0" y1="349.0" x2="297" y2="349.0" stroke="#b0d8b0" stroke-width="0.0625"/>
    <line x1="0" y1="351.0" x2="297" y2="351.0" stroke="#b0d8b0" stroke-width="0.0625"/>
    <line x1="0" y1="352.0" x2="297" y2="352.0" stroke="#b0d8b0" stroke-width="0.0625"/>
    <line x1="0" y1="353.0" x2="297" y2="353.0" stroke="#b0d8b0" stroke-width="0.0625"/>
    <line x1="0" y1="354.0" x2="297" y2="354.0" stroke="#b0d8b0" stroke-width="0.0625"/>
    <line x1="0" y1="355.0" x2="297" y2="355.0" stroke="#b0d8b0" stroke-width="0.0625"/>
    <line x1="0" y1="356.0" x2="297" y2="356.0" stroke="#b0d8b0" stroke-width="0.0625"/>
    <line x1="0" y1="357.0" x2="297" y2="357.0" stroke="#b0d8b0" stroke-width="0.0625"/>
    <line x1="0" y1="358.0" x2="297" y2="358.0" stroke="#b0d8b0" stroke-width="0.0625"/>
    <line x1="0" y1="359.0" x2="297" y2="359.0" stroke="#b0d8b0" stroke-width="0.0625"/>
    <line x1="0" y1="361.0" x2="297" y2="361.0" stroke="#b0d8b0" stroke-width="0.0625"/>
    <line x1="0" y1="362.0" x2="297" y2="362.0" stroke="#b0d8b0" stroke-width="0.0625"/>
    <line x1="0" y1="363.0" x2="297" y2="363.0" stroke="#b0d8b0" stroke-width="0.0625"/>
    <line x1="0" y1="364.0" x2="297" y2="364.0" stroke="#b0d8b0" stroke-width="0.0625"/>
    <line x1="0" y1="365.0" x2="297" y2="365.0" stroke="#b0d8b0" stroke-width="0.0625"/>
    <line x1="0" y1="366.0" x2="297" y2="366.0" stroke="#b0d8b0" stroke-width="0.0625"/>
    <line x1="0" y1="367.0" x2="297" y2="367.0" stroke="#b0d8b0" stroke-width="0.0625"/>
    <line x1="0" y1="368.0" x2="297" y2="368.0" stroke="#b0d8b0" stroke-width="0.0625"/>
    <line x1="0" y1="369.0" x2="297" y2="369.0" stroke="#b0d8b0" stroke-width="0.0625"/>
    <line x1="0" y1="371.0" x2="297" y2="371.0" stroke="#b0d8b0" stroke-width="0.0625"/>
    <line x1="0" y1="372.0" x2="297" y2="372.0" stroke="#b0d8b0" stroke-width="0.0625"/>
    <line x1="0" y1="373.0" x2="297" y2="373.0" stroke="#b0d8b0" stroke-width="0.0625"/>
    <line x1="0" y1="374.0" x2="297" y2="374.0" stroke="#b0d8b0" stroke-width="0.0625"/>
    <line x1="0" y1="375.0" x2="297" y2="375.0" stroke="#b0d8b0" stroke-width="0.0625"/>
    <line x1="0" y1="376.0" x2="297" y2="376.0" stroke="#b0d8b0" stroke-width="0.0625"/>
    <line x1="0" y1="377.0" x2="297" y2="377.0" stroke="#b0d8b0" stroke-width="0.0625"/>
    <line x1="0" y1="378.0" x2="297" y2="378.0" stroke="#b0d8b0" stroke-width="0.0625"/>
    <line x1="0" y1="379.0" x2="297" y2="379.0" stroke="#b0d8b0" stroke-width="0.0625"/>
    <line x1="0" y1="381.0" x2="297" y2="381.0" stroke="#b0d8b0" stroke-width="0.0625"/>
    <line x1="0" y1="382.0" x2="297" y2="382.0" stroke="#b0d8b0" stroke-width="0.0625"/>
    <line x1="0" y1="383.0" x2="297" y2="383.0" stroke="#b0d8b0" stroke-width="0.0625"/>
    <line x1="0" y1="384.0" x2="297" y2="384.0" stroke="#b0d8b0" stroke-width="0.0625"/>
    <line x1="0" y1="385.0" x2="297" y2="385.0" stroke="#b0d8b0" stroke-width="0.0625"/>
    <line x1="0" y1="386.0" x2="297" y2="386.0" stroke="#b0d8b0" stroke-width="0.0625"/>
    <line x1="0" y1="387.0" x2="297" y2="387.0" stroke="#b0d8b0" stroke-width="0.0625"/>
    <line x1="0" y1="388.0" x2="297" y2="388.0" stroke="#b0d8b0" stroke-width="0.0625"/>
    <line x1="0" y1="389.0" x2="297" y2="389.0" stroke="#b0d8b0" stroke-width="0.0625"/>
    <line x1="0" y1="391.0" x2="297" y2="391.0" stroke="#b0d8b0" stroke-width="0.0625"/>
    <line x1="0" y1="392.0" x2="297" y2="392.0" stroke="#b0d8b0" stroke-width="0.0625"/>
    <line x1="0" y1="393.0" x2="297" y2="393.0" stroke="#b0d8b0" stroke-width="0.0625"/>
    <line x1="0" y1="394.0" x2="297" y2="394.0" stroke="#b0d8b0" stroke-width="0.0625"/>
    <line x1="0" y1="395.0" x2="297" y2="395.0" stroke="#b0d8b0" stroke-width="0.0625"/>
    <line x1="0" y1="396.0" x2="297" y2="396.0" stroke="#b0d8b0" stroke-width="0.0625"/>
    <line x1="0" y1="397.0" x2="297" y2="397.0" stroke="#b0d8b0" stroke-width="0.0625"/>
    <line x1="0" y1="398.0" x2="297" y2="398.0" stroke="#b0d8b0" stroke-width="0.0625"/>
    <line x1="0" y1="399.0" x2="297" y2="399.0" stroke="#b0d8b0" stroke-width="0.0625"/>
    <line x1="0" y1="401.0" x2="297" y2="401.0" stroke="#b0d8b0" stroke-width="0.0625"/>
    <line x1="0" y1="402.0" x2="297" y2="402.0" stroke="#b0d8b0" stroke-width="0.0625"/>
    <line x1="0" y1="403.0" x2="297" y2="403.0" stroke="#b0d8b0" stroke-width="0.0625"/>
    <line x1="0" y1="404.0" x2="297" y2="404.0" stroke="#b0d8b0" stroke-width="0.0625"/>
    <line x1="0" y1="405.0" x2="297" y2="405.0" stroke="#b0d8b0" stroke-width="0.0625"/>
    <line x1="0" y1="406.0" x2="297" y2="406.0" stroke="#b0d8b0" stroke-width="0.0625"/>
    <line x1="0" y1="407.0" x2="297" y2="407.0" stroke="#b0d8b0" stroke-width="0.0625"/>
    <line x1="0" y1="408.0" x2="297" y2="408.0" stroke="#b0d8b0" stroke-width="0.0625"/>
    <line x1="0" y1="409.0" x2="297" y2="409.0" stroke="#b0d8b0" stroke-width="0.0625"/>
    <line x1="0" y1="411.0" x2="297" y2="411.0" stroke="#b0d8b0" stroke-width="0.0625"/>
    <line x1="0" y1="412.0" x2="297" y2="412.0" stroke="#b0d8b0" stroke-width="0.0625"/>
    <line x1="0" y1="413.0" x2="297" y2="413.0" stroke="#b0d8b0" stroke-width="0.0625"/>
    <line x1="0" y1="414.0" x2="297" y2="414.0" stroke="#b0d8b0" stroke-width="0.0625"/>
    <line x1="0" y1="415.0" x2="297" y2="415.0" stroke="#b0d8b0" stroke-width="0.0625"/>
    <line x1="0" y1="416.0" x2="297" y2="416.0" stroke="#b0d8b0" stroke-width="0.0625"/>
    <line x1="0" y1="417.0" x2="297" y2="417.0" stroke="#b0d8b0" stroke-width="0.0625"/>
    <line x1="0" y1="418.0" x2="297" y2="418.0" stroke="#b0d8b0" stroke-width="0.0625"/>
    <line x1="0" y1="419.0" x2="297" y2="419.0" stroke="#b0d8b0" stroke-width="0.0625"/>
    <line x1="0" y1="0" x2="0" y2="420" stroke="#70b070" stroke-width="0.125"/>
    <line x1="10.0" y1="0" x2="10.0" y2="420" stroke="#70b070" stroke-width="0.125"/>
    <line x1="20.0" y1="0" x2="20.0" y2="420" stroke="#70b070" stroke-width="0.125"/>
    <line x1="30.0" y1="0" x2="30.0" y2="420" stroke="#70b070" stroke-width="0.125"/>
    <line x1="40.0" y1="0" x2="40.0" y2="420" stroke="#70b070" stroke-width="0.125"/>
    <line x1="50.0" y1="0" x2="50.0" y2="420" stroke="#70b070" stroke-width="0.125"/>
    <line x1="60.0" y1="0" x2="60.0" y2="420" stroke="#70b070" stroke-width="0.125"/>
    <line x1="70.0" y1="0" x2="70.0" y2="420" stroke="#70b070" stroke-width="0.125"/>
    <line x1="80.0" y1="0" x2="80.0" y2="420" stroke="#70b070" stroke-width="0.125"/>
    <line x1="90.0" y1="0" x2="90.0" y2="420" stroke="#70b070" stroke-width="0.125"/>
    <line x1="100.0" y1="0" x2="100.0" y2="420" stroke="#70b070" stroke-width="0.125"/>
    <line x1="110.0" y1="0" x2="110.0" y2="420" stroke="#70b070" stroke-width="0.125"/>
    <line x1="120.0" y1="0" x2="120.0" y2="420" stroke="#70b070" stroke-width="0.125"/>
    <line x1="130.0" y1="0" x2="130.0" y2="420" stroke="#70b070" stroke-width="0.125"/>
    <line x1="140.0" y1="0" x2="140.0" y2="420" stroke="#70b070" stroke-width="0.125"/>
    <line x1="150.0" y1="0" x2="150.0" y2="420" stroke="#70b070" stroke-width="0.125"/>
    <line x1="160.0" y1="0" x2="160.0" y2="420" stroke="#70b070" stroke-width="0.125"/>
    <line x1="170.0" y1="0" x2="170.0" y2="420" stroke="#70b070" stroke-width="0.125"/>
    <line x1="180.0" y1="0" x2="180.0" y2="420" stroke="#70b070" stroke-width="0.125"/>
    <line x1="190.0" y1="0" x2="190.0" y2="420" stroke="#70b070" stroke-width="0.125"/>
    <line x1="200.0" y1="0" x2="200.0" y2="420" stroke="#70b070" stroke-width="0.125"/>
    <line x1="210.0" y1="0" x2="210.0" y2="420" stroke="#70b070" stroke-width="0.125"/>
    <line x1="220.0" y1="0" x2="220.0" y2="420" stroke="#70b070" stroke-width="0.125"/>
    <line x1="230.0" y1="0" x2="230.0" y2="420" stroke="#70b070" stroke-width="0.125"/>
    <line x1="240.0" y1="0" x2="240.0" y2="420" stroke="#70b070" stroke-width="0.125"/>
    <line x1="250.0" y1="0" x2="250.0" y2="420" stroke="#70b070" stroke-width="0.125"/>
    <line x1="260.0" y1="0" x2="260.0" y2="420" stroke="#70b070" stroke-width="0.125"/>
    <line x1="270.0" y1="0" x2="270.0" y2="420" stroke="#70b070" stroke-width="0.125"/>
    <line x1="280.0" y1="0" x2="280.0" y2="420" stroke="#70b070" stroke-width="0.125"/>
    <line x1="290.0" y1="0" x2="290.0" y2="420" stroke="#70b070" stroke-width="0.125"/>
    <line x1="0" y1="0" x2="297" y2="0" stroke="#70b070" stroke-width="0.125"/>
    <line x1="0" y1="10.0" x2="297" y2="10.0" stroke="#70b070" stroke-width="0.125"/>
    <line x1="0" y1="20.0" x2="297" y2="20.0" stroke="#70b070" stroke-width="0.125"/>
    <line x1="0" y1="30.0" x2="297" y2="30.0" stroke="#70b070" stroke-width="0.125"/>
    <line x1="0" y1="40.0" x2="297" y2="40.0" stroke="#70b070" stroke-width="0.125"/>
    <line x1="0" y1="50.0" x2="297" y2="50.0" stroke="#70b070" stroke-width="0.125"/>
    <line x1="0" y1="60.0" x2="297" y2="60.0" stroke="#70b070" stroke-width="0.125"/>
    <line x1="0" y1="70.0" x2="297" y2="70.0" stroke="#70b070" stroke-width="0.125"/>
    <line x1="0" y1="80.0" x2="297" y2="80.0" stroke="#70b070" stroke-width="0.125"/>
    <line x1="0" y1="90.0" x2="297" y2="90.0" stroke="#70b070" stroke-width="0.125"/>
    <line x1="0" y1="100.0" x2="297" y2="100.0" stroke="#70b070" stroke-width="0.125"/>
    <line x1="0" y1="110.0" x2="297" y2="110.0" stroke="#70b070" stroke-width="0.125"/>
    <line x1="0" y1="120.0" x2="297" y2="120.0" stroke="#70b070" stroke-width="0.125"/>
    <line x1="0" y1="130.0" x2="297" y2="130.0" stroke="#70b070" stroke-width="0.125"/>
    <line x1="0" y1="140.0" x2="297" y2="140.0" stroke="#70b070" stroke-width="0.125"/>
    <line x1="0" y1="150.0" x2="297" y2="150.0" stroke="#70b070" stroke-width="0.125"/>
    <line x1="0" y1="160.0" x2="297" y2="160.0" stroke="#70b070" stroke-width="0.125"/>
    <line x1="0" y1="170.0" x2="297" y2="170.0" stroke="#70b070" stroke-width="0.125"/>
    <line x1="0" y1="180.0" x2="297" y2="180.0" stroke="#70b070" stroke-width="0.125"/>
    <line x1="0" y1="190.0" x2="297" y2="190.0" stroke="#70b070" stroke-width="0.125"/>
    <line x1="0" y1="200.0" x2="297" y2="200.0" stroke="#70b070" stroke-width="0.125"/>
    <line x1="0" y1="210.0" x2="297" y2="210.0" stroke="#70b070" stroke-width="0.125"/>
    <line x1="0" y1="220.0" x2="297" y2="220.0" stroke="#70b070" stroke-width="0.125"/>
    <line x1="0" y1="230.0" x2="297" y2="230.0" stroke="#70b070" stroke-width="0.125"/>
    <line x1="0" y1="240.0" x2="297" y2="240.0" stroke="#70b070" stroke-width="0.125"/>
    <line x1="0" y1="250.0" x2="297" y2="250.0" stroke="#70b070" stroke-width="0.125"/>
    <line x1="0" y1="260.0" x2="297" y2="260.0" stroke="#70b070" stroke-width="0.125"/>
    <line x1="0" y1="270.0" x2="297" y2="270.0" stroke="#70b070" stroke-width="0.125"/>
    <line x1="0" y1="280.0" x2="297" y2="280.0" stroke="#70b070" stroke-width="0.125"/>
    <line x1="0" y1="290.0" x2="297" y2="290.0" stroke="#70b070" stroke-width="0.125"/>
    <line x1="0" y1="300.0" x2="297" y2="300.0" stroke="#70b070" stroke-width="0.125"/>
    <line x1="0" y1="310.0" x2="297" y2="310.0" stroke="#70b070" stroke-width="0.125"/>
    <line x1="0" y1="320.0" x2="297" y2="320.0" stroke="#70b070" stroke-width="0.125"/>
    <line x1="0" y1="330.0" x2="297" y2="330.0" stroke="#70b070" stroke-width="0.125"/>
    <line x1="0" y1="340.0" x2="297" y2="340.0" stroke="#70b070" stroke-width="0.125"/>
    <line x1="0" y1="350.0" x2="297" y2="350.0" stroke="#70b070" stroke-width="0.125"/>
    <line x1="0" y1="360.0" x2="297" y2="360.0" stroke="#70b070" stroke-width="0.125"/>
    <line x1="0" y1="370.0" x2="297" y2="370.0" stroke="#70b070" stroke-width="0.125"/>
    <line x1="0" y1="380.0" x2="297" y2="380.0" stroke="#70b070" stroke-width="0.125"/>
    <line x1="0" y1="390.0" x2="297" y2="390.0" stroke="#70b070" stroke-width="0.125"/>
    <line x1="0" y1="400.0" x2="297" y2="400.0" stroke="#70b070" stroke-width="0.125"/>
    <line x1="0" y1="410.0" x2="297" y2="410.0" stroke="#70b070" stroke-width="0.125"/>
    <line x1="0" y1="420.0" x2="297" y2="420.0" stroke="#70b070" stroke-width="0.125"/>

    <!-- Quadrant dividers -->
    <line x1="148.5" y1="0" x2="148.5" y2="420" stroke="#cccccc" stroke-width="0.5"/>
    <line x1="0" y1="210.0" x2="297" y2="210.0" stroke="#cccccc" stroke-width="0.5"/>

    <!-- UL view: XZ -->
    <g>
      <g stroke="#cc8844" stroke-opacity="0.4" stroke-dasharray="2,2" stroke-width="0.8968965517241378" fill="none">
        <path d="M10.7198,212.0000 L9.7437,212.0000 L8.7795,212.0000 L7.8398,212.0000 L6.9364,212.0000 L6.0804,212.0000 L5.2831,212.0000 L4.5542,212.0000 L3.9024,212.0000 L3.3364,212.0000 L2.8635,212.0000 L2.4893,212.0000 L2.2187,212.0000 L2.0548,212.0000 L2.0000,212.0000 "/>
        <path d="M10.7198,216.9828 L9.7437,216.9828 L8.7795,216.9828 L7.8398,216.9828 L6.9364,216.9828 L6.0804,216.9828 L5.2831,216.9828 L4.5542,216.9828 L3.9024,216.9828 L3.3364,216.9828 L2.8635,216.9828 L2.4893,216.9828 L2.2187,216.9828 L2.0548,216.9828 L2.0000,216.9828 "/>
        <path d="M146.5000,212.0000 L146.4452,212.0000 L146.2813,212.0000 L146.0107,212.0000 L145.6365,212.0000 L145.1636,212.0000 L144.5976,212.0000 L143.9458,212.0000 L143.2169,212.0000 L142.4196,212.0000 L141.5636,212.0000 L140.6602,212.0000 L139.7205,212.0000 L138.7563,212.0000 L137.7802,212.0000 "/>
        <path d="M146.5000,216.9828 L146.4452,216.9828 L146.2813,216.9828 L146.0107,216.9828 L145.6365,216.9828 L145.1636,216.9828 L144.5976,216.9828 L143.9458,216.9828 L143.2169,216.9828 L142.4196,216.9828 L141.5636,216.9828 L140.6602,216.9828 L139.7205,216.9828 L138.7563,216.9828 L137.7802,216.9828 "/>
        <path d="M137.7802,212.0000 L10.7198,212.0000 "/>
        <path d="M141.5172,212.0000 L141.4236,212.0000 L141.1470,212.0000 L140.7021,212.0000 L140.1101,212.0000 L139.4016,212.0000 L138.6118,212.0000 L137.7802,212.0000 L136.9486,212.0000 L136.1588,212.0000 L135.4502,212.0000 L134.8583,212.0000 L134.4133,212.0000 L134.1368,212.0000 L134.0431,212.0000 "/>
        <path d="M134.0431,212.0000 L134.1368,212.0000 L134.4133,212.0000 L134.8583,212.0000 L135.4502,212.0000 L136.1588,212.0000 L136.9486,212.0000 L137.7802,212.0000 L138.6118,212.0000 L139.4016,212.0000 L140.1101,212.0000 L140.7021,212.0000 L141.1470,212.0000 L141.4236,212.0000 L141.5172,212.0000 "/>
        <path d="M14.4569,212.0000 L14.3632,212.0000 L14.0867,212.0000 L13.6417,212.0000 L13.0498,212.0000 L12.3412,212.0000 L11.5515,212.0000 L10.7198,212.0000 L9.8882,212.0000 L9.0984,212.0000 L8.3899,212.0000 L7.7979,212.0000 L7.3530,212.0000 L7.0764,212.0000 L6.9828,212.0000 "/>
        <path d="M6.9828,212.0000 L7.0764,212.0000 L7.3530,212.0000 L7.7979,212.0000 L8.3899,212.0000 L9.0984,212.0000 L9.8882,212.0000 L10.7198,212.0000 L11.5515,212.0000 L12.3412,212.0000 L13.0498,212.0000 L13.6417,212.0000 L14.0867,212.0000 L14.3632,212.0000 L14.4569,212.0000 "/>
        <path d="M137.7802,216.9828 L10.7198,216.9828 "/>
        <path d="M141.5172,216.9828 L141.4236,216.9828 L141.1470,216.9828 L140.7021,216.9828 L140.1101,216.9828 L139.4016,216.9828 L138.6118,216.9828 L137.7802,216.9828 L136.9486,216.9828 L136.1588,216.9828 L135.4502,216.9828 L134.8583,216.9828 L134.4133,216.9828 L134.1368,216.9828 L134.0431,216.9828 "/>
        <path d="M134.0431,216.9828 L134.1368,216.9828 L134.4133,216.9828 L134.8583,216.9828 L135.4502,216.9828 L136.1588,216.9828 L136.9486,216.9828 L137.7802,216.9828 L138.6118,216.9828 L139.4016,216.9828 L140.1101,216.9828 L140.7021,216.9828 L141.1470,216.9828 L141.4236,216.9828 L141.5172,216.9828 "/>
        <path d="M14.4569,216.9828 L14.3632,216.9828 L14.0867,216.9828 L13.6417,216.9828 L13.0498,216.9828 L12.3412,216.9828 L11.5515,216.9828 L10.7198,216.9828 L9.8882,216.9828 L9.0984,216.9828 L8.3899,216.9828 L7.7979,216.9828 L7.3530,216.9828 L7.0764,216.9828 L6.9828,216.9828 "/>
        <path d="M6.9828,216.9828 L7.0764,216.9828 L7.3530,216.9828 L7.7979,216.9828 L8.3899,216.9828 L9.0984,216.9828 L9.8882,216.9828 L10.7198,216.9828 L11.5515,216.9828 L12.3412,216.9828 L13.0498,216.9828 L13.6417,216.9828 L14.0867,216.9828 L14.3632,216.9828 L14.4569,216.9828 "/>
        <path d="M141.5172,212.0000 L141.5172,216.9828 "/>
        <path d="M14.4569,212.0000 L14.4569,216.9828 "/>
        <path d="M134.0431,216.9828 L134.0431,212.0000 "/>
        <path d="M6.9828,216.9828 L6.9828,212.0000 "/>
      </g>
      <g stroke="#cc8844" stroke-width="1.4948275862068965" fill="none">
        <path d="M10.7198,212.0000 L137.7802,212.0000 "/>
        <path d="M10.7198,216.9828 L137.7802,216.9828 "/>
        <path d="M2.0000,212.0000 L2.0548,212.0000 L2.2187,212.0000 L2.4893,212.0000 L2.8635,212.0000 L3.3364,212.0000 L3.9024,212.0000 L4.5542,212.0000 L5.2831,212.0000 L6.0804,212.0000 L6.9364,212.0000 L7.8398,212.0000 L8.7795,212.0000 L9.7437,212.0000 L10.7198,212.0000 "/>
        <path d="M2.0000,216.9828 L2.0548,216.9828 L2.2187,216.9828 L2.4893,216.9828 L2.8635,216.9828 L3.3364,216.9828 L3.9024,216.9828 L4.5542,216.9828 L5.2831,216.9828 L6.0804,216.9828 L6.9364,216.9828 L7.8398,216.9828 L8.7795,216.9828 L9.7437,216.9828 L10.7198,216.9828 "/>
        <path d="M137.7802,212.0000 L138.7563,212.0000 L139.7205,212.0000 L140.6602,212.0000 L141.5636,212.0000 L142.4196,212.0000 L143.2169,212.0000 L143.9458,212.0000 L144.5976,212.0000 L145.1636,212.0000 L145.6365,212.0000 L146.0107,212.0000 L146.2813,212.0000 L146.4452,212.0000 L146.5000,212.0000 "/>
        <path d="M137.7802,216.9828 L138.7563,216.9828 L139.7205,216.9828 L140.6602,216.9828 L141.5636,216.9828 L142.4196,216.9828 L143.2169,216.9828 L143.9458,216.9828 L144.5976,216.9828 L145.1636,216.9828 L145.6365,216.9828 L146.0107,216.9828 L146.2813,216.9828 L146.4452,216.9828 L146.5000,216.9828 "/>
        <path d="M10.7198,212.0000 L10.7198,216.9828 "/>
        <path d="M137.7802,212.0000 L137.7802,216.9828 "/>
        <path d="M2.0000,216.9828 L2.0000,212.0000 "/>
        <path d="M146.5000,216.9828 L146.5000,212.0000 "/>
      </g>
    </g>
    <!-- LL view: XY -->
    <g>
      <g stroke="#cc8844" stroke-opacity="0.4" stroke-dasharray="2,2" stroke-width="0.8968965517241378" fill="none">
        <path d="M10.7198,19.4397 L137.7802,19.4397 "/>
        <path d="M10.7198,2.0000 L10.1373,2.0194 L9.5573,2.0777 L8.9828,2.1749 L8.4163,2.3099 L7.8597,2.4823 L7.3156,2.6921 L6.7869,2.9373 L6.2762,3.2173 L5.7849,3.5307 L5.3155,3.8765 L4.8706,4.2527 L4.4520,4.6578 L4.0609,5.0903 L3.6996,5.5472 L3.3698,6.0281 L3.0728,6.5293 L2.8102,7.0495 L2.5825,7.5857 L2.3916,8.1363 L2.2377,8.6983 L2.1216,9.2693 L2.0438,9.8468 L2.0050,10.4283 L2.0050,11.0113 L2.0438,11.5928 L2.1216,12.1703 L2.2377,12.7413 L2.3916,13.3034 L2.5825,13.8540 L2.8102,14.3901 L3.0728,14.9103 L3.3698,15.4116 L3.6996,15.8924 L4.0609,16.3493 L4.4520,16.7819 L4.8706,17.1869 L5.3155,17.5631 L5.7849,17.9090 L6.2762,18.2224 L6.7869,18.5024 L7.3156,18.7476 L7.8597,18.9573 L8.4163,19.1297 L8.9828,19.2648 L9.5573,19.3619 L10.1373,19.4202 L10.7198,19.4397 "/>
        <path d="M137.7802,19.4397 L138.3627,19.4202 L138.9427,19.3619 L139.5172,19.2648 L140.0837,19.1297 L140.6403,18.9573 L141.1844,18.7476 L141.7131,18.5024 L142.2238,18.2224 L142.7151,17.9090 L143.1845,17.5631 L143.6294,17.1869 L144.0480,16.7819 L144.4391,16.3493 L144.8004,15.8924 L145.1302,15.4116 L145.4272,14.9103 L145.6898,14.3901 L145.9175,13.8540 L146.1084,13.3034 L146.2623,12.7413 L146.3784,12.1703 L146.4562,11.5928 L146.4950,11.0113 L146.4950,10.4283 L146.4562,9.8468 L146.3784,9.2693 L146.2623,8.6983 L146.1084,8.1363 L145.9175,7.5857 L145.6898,7.0495 L145.4272,6.5293 L145.1302,6.0281 L144.8004,5.5472 L144.4391,5.0903 L144.0480,4.6578 L143.6294,4.2527 L143.1845,3.8765 L142.7151,3.5307 L142.2238,3.2173 L141.7131,2.9373 L141.1844,2.6921 L140.6403,2.4823 L140.0837,2.3099 L139.5172,2.1749 L138.9427,2.0777 L138.3627,2.0194 L137.7802,2.0000 "/>
        <path d="M137.7802,2.0000 L10.7198,2.0000 "/>
        <path d="M141.5172,10.7198 L141.4973,11.1040 L141.4380,11.4842 L141.3404,11.8564 L141.2043,12.2162 L141.0324,12.5605 L140.8261,12.8853 L140.5870,13.1868 L140.3189,13.4623 L140.0234,13.7090 L139.7040,13.9237 L139.3642,14.1046 L139.0079,14.2496 L138.6387,14.3567 L138.2600,14.4260 L137.8763,14.4559 L137.4917,14.4459 L137.1100,14.3961 L136.7358,14.3079 L136.3725,14.1814 L136.0238,14.0184 L135.6939,13.8206 L135.3865,13.5894 L135.1039,13.3283 L134.8498,13.0393 L134.6271,12.7254 L134.4372,12.3905 L134.2833,12.0383 L134.1662,11.6715 L134.0874,11.2948 L134.0481,10.9122 L134.0481,10.5275 L134.0874,10.1448 L134.1662,9.7681 L134.2833,9.4014 L134.4372,9.0491 L134.6271,8.7143 L134.8498,8.4004 L135.1039,8.1114 L135.3865,7.8503 L135.6939,7.6191 L136.0238,7.4212 L136.3725,7.2583 L136.7358,7.1317 L137.1100,7.0435 L137.4917,6.9937 L137.8763,6.9838 L138.2600,7.0137 L138.6387,7.0829 L139.0079,7.1900 L139.3642,7.3350 L139.7040,7.5159 L140.0234,7.7307 L140.3189,7.9773 L140.5870,8.2529 L140.8261,8.5543 L141.0324,8.8792 L141.2043,9.2235 L141.3404,9.5833 L141.4380,9.9555 L141.4973,10.3357 L141.5172,10.7198 "/>
        <path d="M14.4569,10.7198 L14.4370,11.1040 L14.3777,11.4842 L14.2800,11.8564 L14.1440,12.2162 L13.9721,12.5605 L13.7658,12.8853 L13.5266,13.1868 L13.2585,13.4623 L12.9631,13.7090 L12.6437,13.9237 L12.3038,14.1046 L11.9476,14.2496 L11.5784,14.3567 L11.1997,14.4260 L10.8160,14.4559 L10.4313,14.4459 L10.0496,14.3961 L9.6754,14.3079 L9.3122,14.1814 L8.9634,14.0184 L8.6335,13.8206 L8.3261,13.5894 L8.0436,13.3283 L7.7895,13.0393 L7.5667,12.7254 L7.3769,12.3905 L7.2229,12.0383 L7.1058,11.6715 L7.0271,11.2948 L6.9877,10.9122 L6.9877,10.5275 L7.0271,10.1448 L7.1058,9.7681 L7.2229,9.4014 L7.3769,9.0491 L7.5667,8.7143 L7.7895,8.4004 L8.0436,8.1114 L8.3261,7.8503 L8.6335,7.6191 L8.9634,7.4212 L9.3122,7.2583 L9.6754,7.1317 L10.0496,7.0435 L10.4313,6.9937 L10.8160,6.9838 L11.1997,7.0137 L11.5784,7.0829 L11.9476,7.1900 L12.3038,7.3350 L12.6437,7.5159 L12.9631,7.7307 L13.2585,7.9773 L13.5266,8.2529 L13.7658,8.5543 L13.9721,8.8792 L14.1440,9.2235 L14.2800,9.5833 L14.3777,9.9555 L14.4370,10.3357 L14.4569,10.7198 "/>
      </g>
      <g stroke="#cc8844" stroke-width="1.4948275862068965" fill="none">
        <path d="M10.7198,19.4397 L137.7802,19.4397 "/>
        <path d="M10.7198,2.0000 L10.1373,2.0194 L9.5573,2.0777 L8.9828,2.1749 L8.4163,2.3099 L7.8597,2.4823 L7.3156,2.6921 L6.7869,2.9373 L6.2762,3.2173 L5.7849,3.5307 L5.3155,3.8765 L4.8706,4.2527 L4.4520,4.6578 L4.0609,5.0903 L3.6996,5.5472 L3.3698,6.0281 L3.0728,6.5293 L2.8102,7.0495 L2.5825,7.5857 L2.3916,8.1363 L2.2377,8.6983 L2.1216,9.2693 L2.0438,9.8468 L2.0050,10.4283 L2.0050,11.0113 L2.0438,11.5928 L2.1216,12.1703 L2.2377,12.7413 L2.3916,13.3034 L2.5825,13.8540 L2.8102,14.3901 L3.0728,14.9103 L3.3698,15.4116 L3.6996,15.8924 L4.0609,16.3493 L4.4520,16.7819 L4.8706,17.1869 L5.3155,17.5631 L5.7849,17.9090 L6.2762,18.2224 L6.7869,18.5024 L7.3156,18.7476 L7.8597,18.9573 L8.4163,19.1297 L8.9828,19.2648 L9.5573,19.3619 L10.1373,19.4202 L10.7198,19.4397 "/>
        <path d="M137.7802,19.4397 L138.3627,19.4202 L138.9427,19.3619 L139.5172,19.2648 L140.0837,19.1297 L140.6403,18.9573 L141.1844,18.7476 L141.7131,18.5024 L142.2238,18.2224 L142.7151,17.9090 L143.1845,17.5631 L143.6294,17.1869 L144.0480,16.7819 L144.4391,16.3493 L144.8004,15.8924 L145.1302,15.4116 L145.4272,14.9103 L145.6898,14.3901 L145.9175,13.8540 L146.1084,13.3034 L146.2623,12.7413 L146.3784,12.1703 L146.4562,11.5928 L146.4950,11.0113 L146.4950,10.4283 L146.4562,9.8468 L146.3784,9.2693 L146.2623,8.6983 L146.1084,8.1363 L145.9175,7.5857 L145.6898,7.0495 L145.4272,6.5293 L145.1302,6.0281 L144.8004,5.5472 L144.4391,5.0903 L144.0480,4.6578 L143.6294,4.2527 L143.1845,3.8765 L142.7151,3.5307 L142.2238,3.2173 L141.7131,2.9373 L141.1844,2.6921 L140.6403,2.4823 L140.0837,2.3099 L139.5172,2.1749 L138.9427,2.0777 L138.3627,2.0194 L137.7802,2.0000 "/>
        <path d="M137.7802,2.0000 L10.7198,2.0000 "/>
        <path d="M141.5172,10.7198 L141.4973,10.3357 L141.4380,9.9555 L141.3404,9.5833 L141.2043,9.2235 L141.0324,8.8792 L140.8261,8.5543 L140.5870,8.2529 L140.3189,7.9773 L140.0234,7.7307 L139.7040,7.5159 L139.3642,7.3350 L139.0079,7.1900 L138.6387,7.0829 L138.2600,7.0137 L137.8763,6.9838 L137.4917,6.9937 L137.1100,7.0435 L136.7358,7.1317 L136.3725,7.2583 L136.0238,7.4212 L135.6939,7.6191 L135.3865,7.8503 L135.1039,8.1114 L134.8498,8.4004 L134.6271,8.7143 L134.4372,9.0491 L134.2833,9.4014 L134.1662,9.7681 L134.0874,10.1448 L134.0481,10.5275 L134.0481,10.9122 L134.0874,11.2948 L134.1662,11.6715 L134.2833,12.0383 L134.4372,12.3905 L134.6271,12.7254 L134.8498,13.0393 L135.1039,13.3283 L135.3865,13.5894 L135.6939,13.8206 L136.0238,14.0184 L136.3725,14.1814 L136.7358,14.3079 L137.1100,14.3961 L137.4917,14.4459 L137.8763,14.4559 L138.2600,14.4260 L138.6387,14.3567 L139.0079,14.2496 L139.3642,14.1046 L139.7040,13.9237 L140.0234,13.7090 L140.3189,13.4623 L140.5870,13.1868 L140.8261,12.8853 L141.0324,12.5605 L141.2043,12.2162 L141.3404,11.8564 L141.4380,11.4842 L141.4973,11.1040 L141.5172,10.7198 "/>
        <path d="M14.4569,10.7198 L14.4370,10.3357 L14.3777,9.9555 L14.2800,9.5833 L14.1440,9.2235 L13.9721,8.8792 L13.7658,8.5543 L13.5266,8.2529 L13.2585,7.9773 L12.9631,7.7307 L12.6437,7.5159 L12.3038,7.3350 L11.9476,7.1900 L11.5784,7.0829 L11.1997,7.0137 L10.8160,6.9838 L10.4313,6.9937 L10.0496,7.0435 L9.6754,7.1317 L9.3122,7.2583 L8.9634,7.4212 L8.6335,7.6191 L8.3261,7.8503 L8.0436,8.1114 L7.7895,8.4004 L7.5667,8.7143 L7.3769,9.0491 L7.2229,9.4014 L7.1058,9.7681 L7.0271,10.1448 L6.9877,10.5275 L6.9877,10.9122 L7.0271,11.2948 L7.1058,11.6715 L7.2229,12.0383 L7.3769,12.3905 L7.5667,12.7254 L7.7895,13.0393 L8.0436,13.3283 L8.3261,13.5894 L8.6335,13.8206 L8.9634,14.0184 L9.3122,14.1814 L9.6754,14.3079 L10.0496,14.3961 L10.4313,14.4459 L10.8160,14.4559 L11.1997,14.4260 L11.5784,14.3567 L11.9476,14.2496 L12.3038,14.1046 L12.6437,13.9237 L12.9631,13.7090 L13.2585,13.4623 L13.5266,13.1868 L13.7658,12.8853 L13.9721,12.5605 L14.1440,12.2162 L14.2800,11.8564 L14.3777,11.4842 L14.4370,11.1040 L14.4569,10.7198 "/>
      </g>
    </g>
    <!-- UR view: ISO -->
    <g>
      <g stroke="#cc8844" stroke-opacity="0.4" stroke-dasharray="2,2" stroke-width="0.9389145988405252" fill="none">
        <path d="M159.1156,302.0962 L158.8136,302.0800 L158.5121,302.0748 L158.2111,302.0811 L157.9112,302.0983 L157.6128,302.1259 L157.3160,302.1650 L157.0218,302.2151 L156.7297,302.2756 L156.4412,302.3471 L156.1554,302.4295 L155.8737,302.5223 L155.5957,302.6256 L155.3218,302.7388 L155.0532,302.8630 L154.7893,302.9965 L154.5306,303.1405 "/>
        <path d="M289.2460,327.8605 L289.5366,327.6832 L289.8188,327.4938 L290.0931,327.2914 L290.3581,327.0776 L290.6137,326.8522 L290.8604,326.6154 L291.0962,326.3682 L291.3221,326.1105 L291.5370,325.8424 L291.7404,325.5649 L291.9329,325.2785 L292.1134,324.9833 L292.2813,324.6802 L292.4373,324.3693 L292.5802,324.0511 L292.7106,323.7267 L292.8280,323.3955 L292.9323,323.0590 L293.0225,322.7179 L293.0997,322.3720 L293.1629,322.0220 L293.2124,321.6689 L293.2479,321.3132 L293.2693,320.9548 L293.2771,320.5954 L293.2703,320.2344 L293.2500,319.8735 L293.2155,319.5125 L293.1676,319.1521 L293.1055,318.7932 L293.0293,318.4359 L292.9401,318.0817 L292.8374,317.7302 L292.7210,317.3822 L292.5917,317.0385 L292.4493,316.6994 L292.2949,316.3661 L292.1274,316.0385 L291.9480,315.7172 L291.7566,315.4027 L291.5542,315.0955 L291.3398,314.7966 L291.1150,314.5060 L290.8797,314.2238 L290.6346,313.9515 L290.3795,313.6886 L290.1150,313.4362 L289.8417,313.1947 L289.5600,312.9636 L289.2705,312.7440 L288.9732,312.5364 L288.6691,312.3408 L288.3582,312.1577 L288.0416,311.9871 L287.7192,311.8291 L287.3922,311.6851 L287.0604,311.5542 L286.7250,311.4368 L286.3865,311.3335 L286.0448,311.2443 L285.7006,311.1687 L285.3553,311.1082 L285.0084,311.0618 L284.6610,311.0294 "/>
        <path d="M284.6610,311.0294 L159.1156,302.0962 "/>
        <path d="M287.4115,322.7184 L287.2331,322.8989 L287.0422,323.0648 L286.8393,323.2155 L286.6259,323.3501 "/>
        <path d="M286.6259,323.3501 L286.3103,323.5118 L285.9786,323.6396 L285.6338,323.7319 L285.2801,323.7877 L284.9202,323.8070 L284.5582,323.7888 L284.1967,323.7345 L283.8400,323.6432 L283.4910,323.5170 L283.1535,323.3569 L282.8301,323.1633 L282.5250,322.9396 L282.2402,322.6871 L281.9783,322.4086 L281.7425,322.1060 L281.5349,321.7831 L281.3576,321.4430 L281.2115,321.0883 L281.0988,320.7232 L281.0206,320.3508 L280.9778,319.9742 L280.9700,319.5981 L280.9977,319.2251 L281.0608,318.8595 L281.1588,318.5042 L281.2903,318.1636 L281.4546,317.8402 L281.6492,317.5372 L281.8729,317.2576 L282.1238,317.0041 L282.3992,316.7787 L282.6960,316.5847 "/>
        <path d="M282.6960,316.5847 L282.9188,316.4663 L283.1504,316.3646 L283.3888,316.2811 L283.6339,316.2149 "/>
        <path d="M161.8661,313.7851 L161.6877,313.9651 L161.4968,314.1310 L161.2939,314.2817 L161.0810,314.4163 "/>
        <path d="M161.0810,314.4163 L160.7649,314.5780 L160.4332,314.7058 L160.0889,314.7981 L159.7347,314.8539 L159.3748,314.8732 L159.0128,314.8555 L158.6513,314.8007 L158.2946,314.7100 L157.9456,314.5832 L157.6081,314.4231 L157.2852,314.2301 L156.9796,314.0058 L156.6947,313.7533 L156.4329,313.4748 L156.1971,313.1722 L155.9895,312.8499 L155.8122,312.5093 L155.6661,312.1546 L155.5540,311.7894 L155.4757,311.4170 L155.4324,311.0404 L155.4246,310.6643 L155.4528,310.2913 L155.5159,309.9257 L155.6134,309.5710 L155.7449,309.2298 L155.9092,308.9064 L156.1038,308.6034 L156.3281,308.3238 L156.5784,308.0703 L156.8538,307.8449 L157.1506,307.6509 "/>
        <path d="M157.1506,307.6509 L157.3734,307.5325 L157.6050,307.4308 L157.8434,307.3473 L158.0885,307.2816 "/>
        <path d="M288.3494,322.3491 L286.6259,323.3501 "/>
        <path d="M284.4190,315.5837 L282.6960,316.5847 "/>
        <path d="M162.8040,313.4153 L161.0810,314.4163 "/>
        <path d="M158.8741,306.6499 L157.1506,307.6509 "/>
      </g>
      <g stroke="#cc8844" stroke-width="1.5648576647342087" fill="none">
        <path d="M159.1156,319.9716 L284.6610,328.9048 "/>
        <path d="M160.8390,318.9706 L286.3844,327.9038 "/>
        <path d="M154.5306,303.1405 L154.2405,303.3178 L153.9578,303.5072 L153.6840,303.7096 L153.4190,303.9234 L153.1629,304.1488 L152.9167,304.3856 L152.6804,304.6328 L152.4550,304.8905 L152.2401,305.1586 L152.0362,305.4361 L151.8442,305.7225 L151.6637,306.0177 L151.4952,306.3208 L151.3398,306.6317 L151.1964,306.9499 L151.0660,307.2743 L150.9486,307.6055 L150.8448,307.9420 L150.7540,308.2831 L150.6774,308.6289 L150.6142,308.9789 L150.5647,309.3321 L150.5292,309.6878 L150.5073,310.0462 L150.5000,310.4056 L150.5063,310.7665 L150.5266,311.1275 L150.5610,311.4885 L150.6095,311.8489 L150.6716,312.2078 L150.7472,312.5651 L150.8370,312.9193 L150.9397,313.2708 L151.0560,313.6188 L151.1854,313.9625 L151.3273,314.3016 L151.4822,314.6349 L151.6496,314.9624 L151.8291,315.2838 L152.0200,315.5983 L152.2229,315.9055 L152.4368,316.2044 L152.6616,316.4950 L152.8968,316.7772 L153.1425,317.0494 L153.3976,317.3123 L153.6621,317.5648 L153.9354,317.8063 L154.2171,318.0374 L154.5066,318.2570 L154.8039,318.4646 L155.1080,318.6602 L155.4183,318.8433 L155.7355,319.0139 L156.0573,319.1719 L156.3844,319.3159 L156.7161,319.4468 L157.0515,319.5642 L157.3906,319.6674 L157.7323,319.7566 L158.0760,319.8323 L158.4218,319.8928 L158.7687,319.9392 L159.1156,319.9716 "/>
        <path d="M160.8390,301.0952 L160.5370,301.0790 L160.2350,301.0738 L159.9340,301.0801 L159.6341,301.0973 L159.3357,301.1249 L159.0394,301.1641 L158.7447,301.2141 L158.4531,301.2746 L158.1642,301.3461 L157.8788,301.4285 L157.5966,301.5214 L157.3186,301.6246 L157.0453,301.7378 L156.7761,301.8620 L156.5122,301.9955 L156.2540,302.1395 "/>
        <path d="M156.2540,302.1395 L155.9634,302.3168 L155.6812,302.5062 L155.4069,302.7086 L155.1419,302.9224 L154.8863,303.1478 L154.6396,303.3846 L154.4038,303.6318 L154.1779,303.8895 L153.9630,304.1576 L153.7596,304.4351 L153.5671,304.7215 L153.3866,305.0167 L153.2187,305.3198 L153.0627,305.6307 L152.9198,305.9489 L152.7894,306.2733 L152.6720,306.6045 L152.5677,306.9410 L152.4775,307.2821 L152.4003,307.6280 L152.3371,307.9780 L152.2876,308.3311 L152.2521,308.6868 L152.2307,309.0452 L152.2229,309.4046 L152.2297,309.7656 L152.2500,310.1265 L152.2845,310.4875 L152.3324,310.8479 L152.3945,311.2068 L152.4707,311.5641 L152.5599,311.9183 L152.6626,312.2698 L152.7790,312.6178 L152.9083,312.9615 L153.0507,313.3006 L153.2051,313.6339 L153.3726,313.9615 L153.5520,314.2828 L153.7434,314.5973 L153.9458,314.9045 L154.1602,315.2034 L154.3850,315.4940 L154.6203,315.7762 L154.8654,316.0485 L155.1205,316.3114 L155.3850,316.5638 L155.6583,316.8053 L155.9400,317.0364 L156.2295,317.2560 L156.5268,317.4636 L156.8309,317.6592 L157.1418,317.8423 L157.4584,318.0129 L157.7808,318.1709 L158.1078,318.3149 L158.4396,318.4458 L158.7750,318.5632 L159.1135,318.6665 L159.4552,318.7557 L159.7994,318.8313 L160.1447,318.8918 L160.4916,318.9382 L160.8390,318.9706 "/>
        <path d="M284.6610,328.9048 L284.9630,328.9210 L285.2650,328.9262 L285.5660,328.9199 L285.8659,328.9027 L286.1643,328.8751 L286.4606,328.8359 L286.7553,328.7859 L287.0469,328.7254 L287.3358,328.6539 L287.6212,328.5715 L287.9034,328.4786 L288.1814,328.3754 L288.4547,328.2622 L288.7239,328.1380 L288.9878,328.0045 L289.2460,327.8605 "/>
        <path d="M286.3844,327.9038 L286.6864,327.9200 L286.9879,327.9252 L287.2889,327.9189 L287.5888,327.9017 L287.8872,327.8741 L288.1840,327.8350 L288.4782,327.7849 L288.7703,327.7244 L289.0588,327.6529 L289.3446,327.5705 L289.6263,327.4777 L289.9043,327.3744 L290.1782,327.2612 L290.4468,327.1370 L290.7107,327.0035 L290.9694,326.8595 "/>
        <path d="M290.9694,326.8595 L291.2595,326.6822 L291.5422,326.4928 L291.8160,326.2904 L292.0810,326.0766 L292.3371,325.8512 L292.5833,325.6144 L292.8196,325.3672 L293.0450,325.1095 L293.2599,324.8414 L293.4638,324.5639 L293.6558,324.2775 L293.8363,323.9823 L294.0048,323.6792 L294.1602,323.3683 L294.3036,323.0501 L294.4340,322.7257 L294.5514,322.3945 L294.6552,322.0580 L294.7460,321.7169 L294.8226,321.3711 L294.8858,321.0211 L294.9353,320.6679 L294.9708,320.3122 L294.9927,319.9538 L295.0000,319.5944 L294.9937,319.2335 L294.9734,318.8725 L294.9390,318.5115 L294.8905,318.1511 L294.8284,317.7922 L294.7528,317.4349 L294.6630,317.0807 L294.5603,316.7292 L294.4440,316.3812 L294.3146,316.0375 L294.1727,315.6984 L294.0178,315.3651 L293.8504,315.0376 L293.6709,314.7162 L293.4800,314.4017 L293.2771,314.0945 L293.0632,313.7956 L292.8384,313.5050 L292.6032,313.2228 L292.3575,312.9506 L292.1024,312.6877 L291.8379,312.4352 L291.5646,312.1937 L291.2829,311.9626 L290.9934,311.7430 L290.6961,311.5354 L290.3920,311.3398 L290.0817,311.1567 L289.7645,310.9861 L289.4427,310.8281 L289.1156,310.6841 L288.7839,310.5532 L288.4485,310.4358 L288.1094,310.3326 L287.7677,310.2434 L287.4240,310.1677 L287.0782,310.1072 L286.7313,310.0608 L286.3844,310.0284 "/>
        <path d="M288.3535,320.2303 L288.3384,320.5782 L288.2920,320.9214 L288.2158,321.2563 L288.1099,321.5807 L287.9754,321.8916 L287.8131,322.1869 L287.6248,322.4628 L287.4115,322.7184 "/>
        <path d="M283.6339,316.2149 L283.8405,316.1742 L284.0502,316.1460 L284.2619,316.1309 L284.4753,316.1288 L284.6892,316.1392 L284.9025,316.1622 L285.1153,316.1982 L285.3266,316.2472 L285.5357,316.3082 L285.7418,316.3818 L285.9442,316.4668 L286.1424,316.5643 L286.3359,316.6728 L286.5232,316.7923 L286.7047,316.9227 L286.8794,317.0630 L287.0464,317.2132 L287.2054,317.3723 L287.3562,317.5408 L287.4976,317.7171 L287.6295,317.9007 L287.7516,318.0911 L287.8637,318.2883 L287.9644,318.4912 L288.0546,318.6983 L288.1329,318.9106 L288.2002,319.1255 L288.2549,319.3440 L288.2982,319.5642 L288.3290,319.7859 L288.3473,320.0081 L288.3535,320.2303 "/>
        <path d="M162.8081,311.2965 L162.7930,311.6444 L162.7471,311.9876 L162.6704,312.3225 L162.5645,312.6470 L162.4300,312.9579 L162.2677,313.2531 L162.0794,313.5296 L161.8661,313.7851 "/>
        <path d="M158.0885,307.2816 L158.2956,307.2404 L158.5053,307.2127 L158.7165,307.1971 L158.9299,307.1950 L159.1438,307.2054 L159.3571,307.2284 L159.5699,307.2644 L159.7812,307.3134 L159.9903,307.3744 L160.1964,307.4480 L160.3988,307.5330 L160.5970,307.6306 L160.7905,307.7391 L160.9783,307.8585 L161.1593,307.9889 L161.3340,308.1292 L161.5009,308.2795 L161.6600,308.4391 L161.8108,308.6070 L161.9522,308.7833 L162.0841,308.9670 L162.2067,309.1579 L162.3183,309.3545 L162.4190,309.5574 L162.5092,309.7650 L162.5875,309.9768 L162.6548,310.1922 L162.7095,310.4103 L162.7528,310.6304 L162.7836,310.8521 L162.8019,311.0743 L162.8081,311.2965 "/>
        <path d="M286.3844,310.0284 L160.8390,301.0952 "/>
        <path d="M290.0770,319.2293 L290.0686,318.9737 L290.0441,318.7181 L290.0034,318.4636 L289.9466,318.2111 L289.8735,317.9623 L289.7859,317.7176 L289.6826,317.4787 L289.5647,317.2466 L289.4328,317.0218 L289.2872,316.8058 L289.1287,316.5993 L288.9581,316.4032 L288.7760,316.2185 L288.5836,316.0458 L288.3812,315.8868 L288.1699,315.7407 L287.9508,315.6093 L287.7250,315.4929 L287.4929,315.3917 L287.2560,315.3062 L287.0151,315.2373 L286.7715,315.1847 L286.5263,315.1487 L286.2801,315.1299 L286.0349,315.1283 L285.7908,315.1434 L285.5493,315.1758 L285.3120,315.2248 L285.0788,315.2905 L284.8519,315.3724 L284.6318,315.4700 L284.4190,315.5837 "/>
        <path d="M284.4190,315.5837 L284.1222,315.7777 L283.8473,316.0031 L283.5964,316.2566 L283.3726,316.5362 L283.1775,316.8392 L283.0137,317.1626 L282.8817,317.5033 L282.7842,317.8585 L282.7211,318.2241 L282.6934,318.5971 L282.7007,318.9732 L282.7440,319.3498 L282.8223,319.7222 L282.9349,320.0874 L283.0805,320.4421 L283.2578,320.7821 L283.4660,321.1050 L283.7017,321.4076 L283.9631,321.6861 L284.2479,321.9386 L284.5535,322.1624 L284.8764,322.3559 L285.2144,322.5160 L285.5634,322.6422 L285.9202,322.7335 L286.2811,322.7878 L286.6437,322.8060 L287.0036,322.7867 L287.3572,322.7309 L287.7015,322.6386 L288.0333,322.5108 L288.3494,322.3491 "/>
        <path d="M288.3494,322.3491 L288.5424,322.2281 L288.7270,322.0935 L288.9023,321.9469 L289.0676,321.7884 L289.2225,321.6188 L289.3655,321.4383 L289.4969,321.2480 L289.6164,321.0487 L289.7223,320.8416 L289.8151,320.6262 L289.8944,320.4045 L289.9596,320.1776 L290.0107,319.9455 L290.0472,319.7092 L290.0697,319.4703 L290.0770,319.2293 "/>
        <path d="M164.5316,310.2955 L164.5232,310.0399 L164.4987,309.7843 L164.4580,309.5298 L164.4012,309.2773 L164.3286,309.0285 L164.2405,308.7839 L164.1372,308.5450 L164.0193,308.3128 L163.8874,308.0880 L163.7418,307.8721 L163.5833,307.6655 L163.4127,307.4694 L163.2312,307.2847 L163.0382,307.1126 L162.8358,306.9530 L162.6250,306.8069 L162.4054,306.6755 L162.1796,306.5592 L161.9475,306.4580 L161.7106,306.3724 L161.4697,306.3036 L161.2261,306.2509 L160.9809,306.2154 L160.7347,306.1961 L160.4895,306.1945 L160.2454,306.2097 L160.0039,306.2420 L159.7666,306.2910 L159.5339,306.3568 L159.3065,306.4387 L159.0864,306.5362 L158.8741,306.6499 "/>
        <path d="M158.8741,306.6499 L158.5768,306.8440 L158.3019,307.0693 L158.0510,307.3228 L157.8272,307.6024 L157.6321,307.9055 L157.4683,308.2289 L157.3369,308.5700 L157.2388,308.9247 L157.1757,309.2904 L157.1480,309.6633 L157.1553,310.0394 L157.1986,310.4160 L157.2769,310.7884 L157.3895,311.1536 L157.5351,311.5083 L157.7130,311.8489 L157.9206,312.1713 L158.1563,312.4738 L158.4177,312.7523 L158.7025,313.0048 L159.0081,313.2291 L159.3315,313.4221 L159.6690,313.5822 L160.0180,313.7090 L160.3748,313.7998 L160.7357,313.8545 L161.0983,313.8723 L161.4582,313.8530 L161.8118,313.7971 L162.1561,313.7048 L162.4879,313.5770 L162.8040,313.4153 "/>
        <path d="M162.8040,313.4153 L162.9970,313.2943 L163.1816,313.1602 L163.3574,313.0132 L163.5222,312.8546 L163.6771,312.6851 L163.8206,312.5046 L163.9520,312.3147 L164.0710,312.1154 L164.1769,311.9078 L164.2697,311.6924 L164.3490,311.4712 L164.4142,311.2438 L164.4653,311.0117 L164.5018,310.7754 L164.5243,310.5365 L164.5316,310.2955 "/>
        <path d="M288.3535,320.2303 L290.0770,319.2293 "/>
        <path d="M162.8081,311.2965 L164.5316,310.2955 "/>
        <path d="M159.1156,319.9716 L160.8390,318.9706 "/>
        <path d="M284.6610,328.9048 L286.3844,327.9038 "/>
        <path d="M156.2540,302.1395 L154.5306,303.1405 "/>
        <path d="M290.9694,326.8595 L289.2460,327.8605 "/>
      </g>
    </g>
    <!-- LR view: YZ -->
    <g>
      <g stroke="#cc8844" stroke-opacity="0.4" stroke-dasharray="2,2" stroke-width="0.8968965517241378" fill="none">
        <path d="M150.5000,19.4397 L155.4828,19.4397 "/>
        <path d="M150.5000,2.0000 L155.4828,2.0000 "/>
        <path d="M150.5000,2.0000 L150.5000,2.2187 L150.5000,2.8635 L150.5000,3.9024 L150.5000,5.2831 L150.5000,6.9364 L150.5000,8.7795 L150.5000,10.7198 L150.5000,12.6601 L150.5000,14.5032 L150.5000,16.1565 L150.5000,17.5372 L150.5000,18.5761 L150.5000,19.2209 L150.5000,19.4397 "/>
        <path d="M155.4828,2.0000 L155.4828,2.2187 L155.4828,2.8635 L155.4828,3.9024 L155.4828,5.2831 L155.4828,6.9364 L155.4828,8.7795 L155.4828,10.7198 L155.4828,12.6601 L155.4828,14.5032 L155.4828,16.1565 L155.4828,17.5372 L155.4828,18.5761 L155.4828,19.2209 L155.4828,19.4397 "/>
        <path d="M150.5000,10.7198 L150.5000,11.1384 L150.5000,11.5515 L150.5000,11.9541 L150.5000,12.3412 L150.5000,12.7079 L150.5000,13.0498 L150.5000,13.3622 L150.5000,13.6417 L150.5000,13.8839 L150.5000,14.0867 L150.5000,14.2471 L150.5000,14.3632 L150.5000,14.4335 L150.5000,14.4569 "/>
        <path d="M150.5000,14.4569 L150.5000,14.3632 L150.5000,14.0867 L150.5000,13.6417 L150.5000,13.0498 L150.5000,12.3412 L150.5000,11.5515 L150.5000,10.7198 L150.5000,9.8882 L150.5000,9.0984 L150.5000,8.3899 L150.5000,7.7979 L150.5000,7.3530 L150.5000,7.0764 L150.5000,6.9828 "/>
        <path d="M150.5000,6.9828 L150.5000,7.0062 L150.5000,7.0764 L150.5000,7.1925 L150.5000,7.3530 L150.5000,7.5558 L150.5000,7.7979 L150.5000,8.0775 L150.5000,8.3899 L150.5000,8.7317 L150.5000,9.0984 L150.5000,9.4856 L150.5000,9.8882 L150.5000,10.3013 L150.5000,10.7198 "/>
        <path d="M150.5000,10.7198 L150.5000,11.1384 L150.5000,11.5515 L150.5000,11.9541 L150.5000,12.3412 L150.5000,12.7079 L150.5000,13.0498 L150.5000,13.3622 L150.5000,13.6417 L150.5000,13.8839 L150.5000,14.0867 L150.5000,14.2471 L150.5000,14.3632 L150.5000,14.4335 L150.5000,14.4569 "/>
        <path d="M150.5000,14.4569 L150.5000,14.3632 L150.5000,14.0867 L150.5000,13.6417 L150.5000,13.0498 L150.5000,12.3412 L150.5000,11.5515 L150.5000,10.7198 L150.5000,9.8882 L150.5000,9.0984 L150.5000,8.3899 L150.5000,7.7979 L150.5000,7.3530 L150.5000,7.0764 L150.5000,6.9828 "/>
        <path d="M150.5000,6.9828 L150.5000,7.0062 L150.5000,7.0764 L150.5000,7.1925 L150.5000,7.3530 L150.5000,7.5558 L150.5000,7.7979 L150.5000,8.0775 L150.5000,8.3899 L150.5000,8.7317 L150.5000,9.0984 L150.5000,9.4856 L150.5000,9.8882 L150.5000,10.3013 L150.5000,10.7198 "/>
        <path d="M155.4828,10.7198 L155.4828,10.3013 L155.4828,9.8882 L155.4828,9.4856 L155.4828,9.0984 L155.4828,8.7317 L155.4828,8.3899 L155.4828,8.0775 L155.4828,7.7979 L155.4828,7.5558 L155.4828,7.3530 L155.4828,7.1925 L155.4828,7.0764 L155.4828,7.0062 L155.4828,6.9828 "/>
        <path d="M155.4828,6.9828 L155.4828,7.0764 L155.4828,7.3530 L155.4828,7.7979 L155.4828,8.3899 L155.4828,9.0984 L155.4828,9.8882 L155.4828,10.7198 L155.4828,11.5515 L155.4828,12.3412 L155.4828,13.0498 L155.4828,13.6417 L155.4828,14.0867 L155.4828,14.3632 L155.4828,14.4569 "/>
        <path d="M155.4828,14.4569 L155.4828,14.4335 L155.4828,14.3632 L155.4828,14.2471 L155.4828,14.0867 L155.4828,13.8839 L155.4828,13.6417 L155.4828,13.3622 L155.4828,13.0498 L155.4828,12.7079 L155.4828,12.3412 L155.4828,11.9541 L155.4828,11.5515 L155.4828,11.1384 L155.4828,10.7198 "/>
        <path d="M155.4828,10.7198 L155.4828,10.3013 L155.4828,9.8882 L155.4828,9.4856 L155.4828,9.0984 L155.4828,8.7317 L155.4828,8.3899 L155.4828,8.0775 L155.4828,7.7979 L155.4828,7.5558 L155.4828,7.3530 L155.4828,7.1925 L155.4828,7.0764 L155.4828,7.0062 L155.4828,6.9828 "/>
        <path d="M155.4828,6.9828 L155.4828,7.0764 L155.4828,7.3530 L155.4828,7.7979 L155.4828,8.3899 L155.4828,9.0984 L155.4828,9.8882 L155.4828,10.7198 L155.4828,11.5515 L155.4828,12.3412 L155.4828,13.0498 L155.4828,13.6417 L155.4828,14.0867 L155.4828,14.3632 L155.4828,14.4569 "/>
        <path d="M155.4828,14.4569 L155.4828,14.4335 L155.4828,14.3632 L155.4828,14.2471 L155.4828,14.0867 L155.4828,13.8839 L155.4828,13.6417 L155.4828,13.3622 L155.4828,13.0498 L155.4828,12.7079 L155.4828,12.3412 L155.4828,11.9541 L155.4828,11.5515 L155.4828,11.1384 L155.4828,10.7198 "/>
        <path d="M150.5000,10.7198 L155.4828,10.7198 "/>
        <path d="M150.5000,10.7198 L155.4828,10.7198 "/>
        <path d="M155.4828,6.9828 L150.5000,6.9828 "/>
        <path d="M155.4828,14.4569 L150.5000,14.4569 "/>
        <path d="M155.4828,6.9828 L150.5000,6.9828 "/>
        <path d="M155.4828,14.4569 L150.5000,14.4569 "/>
      </g>
      <g stroke="#cc8844" stroke-width="1.4948275862068965" fill="none">
        <path d="M150.5000,19.4397 L155.4828,19.4397 "/>
        <path d="M150.5000,2.0000 L155.4828,2.0000 "/>
        <path d="M150.5000,19.4397 L150.5000,19.2209 L150.5000,18.5761 L150.5000,17.5372 L150.5000,16.1565 L150.5000,14.5032 L150.5000,12.6601 L150.5000,10.7198 L150.5000,8.7795 L150.5000,6.9364 L150.5000,5.2831 L150.5000,3.9024 L150.5000,2.8635 L150.5000,2.2187 L150.5000,2.0000 "/>
        <path d="M155.4828,19.4397 L155.4828,19.2209 L155.4828,18.5761 L155.4828,17.5372 L155.4828,16.1565 L155.4828,14.5032 L155.4828,12.6601 L155.4828,10.7198 L155.4828,8.7795 L155.4828,6.9364 L155.4828,5.2831 L155.4828,3.9024 L155.4828,2.8635 L155.4828,2.2187 L155.4828,2.0000 "/>
      </g>
    </g>
  </g>
</svg>