<?xml version="1.0" encoding="UTF-8"?>
<svg xmlns="http://www.w3.org/2000/svg"
     width="297mm" height="420mm"
     viewBox="0 0 297 420">
  <!-- Flip Y axis: origin at lower-left -->
  <g transform="translate(0,420) scale(1,-1)">

    <!-- Grid -->
    <line x1="1.0" y1="0" x2="1.0" y2="420" stroke="#b0d8b0" stroke-width="0.0625"/>
    <line x1="2.0" y1="0" x2="2.0" y2="420" stroke="#b0d8b0" stroke-width="0.0625"/>
    <line x1="3.0" y1="0" x2="3.0" y2="420" stroke="#b0d8b0" stroke-width="0.0625"/>
    <line x1="4.0" y1="0" x2="4.0" y2="420" stroke="#b0d8b0" stroke-width="0.0625"/>
    <line x1="5.0" y1="0" x2="5.0" y2="420" stroke="#b0d8b0" stroke-width="0.0625"/>
    <line x1="6.0" y1="0" x2="6.0" y2="420" stroke="#b0d8b0" stroke-width="0.0625"/>
    <line x1="7.0" y1="0" x2="7.0" y2="420" stroke="#b0d8b0" stroke-width="0.0625"/>
    <line x1="8.0" y1="0" x2="8.0" y2="420" stroke="#b0d8b0" stroke-width="0.0625"/>
    <line x1="9.0" y1="0" x2="9.0" y2="420" stroke="#b0d8b0" stroke-width="0.0625"/>
    <line x1="11.0" y1="0" x2="11.0" y2="420" stroke="#b0d8b0" stroke-width="0.0625"/>
    <line x1="12.0" y1="0" x2="12.0" y2="420" stroke="#b0d8b0" stroke-width="0.0625"/>
    <line x1="13.0" y1="0" x2="13.0" y2="420" stroke="#b0d8b0" stroke-width="0.0625"/>
    <line x1="14.0" y1="0" x2="14.0" y2="420" stroke="#b0d8b0" stroke-width="0.0625"/>
    <line x1="15.0" y1="0" x2="15.0" y2="420" stroke="#b0d8b0" stroke-width="0.0625"/>
    <line x1="16.0" y1="0" x2="16.0" y2="420" stroke="#b0d8b0" stroke-width="0.0625"/>
    <line x1="17.0" y1="0" x2="17.0" y2="420" stroke="#b0d8b0" stroke-width="0.0625"/>
    <line x1="18.0" y1="0" x2="18.0" y2="420" stroke="#b0d8b0" stroke-width="0.0625"/>
    <line x1="19.0" y1="0" x2="19.0" y2="420" stroke="#b0d8b0" stroke-width="0.0625"/>
    <line x1="21.0" y1="0" x2="21.0" y2="420" stroke="#b0d8b0" stroke-width="0.0625"/>
    <line x1="22.0" y1="0" x2="22.0" y2="420" stroke="#b0d8b0" stroke-width="0.0625"/>
    <line x1="23.0" y1="0" x2="23.0" y2="420" stroke="#b0d8b0" stroke-width="0.0625"/>
    <line x1="24.0" y1="0" x2="24.0" y2="420" stroke="#b0d8b0" stroke-width="0.0625"/>
    <line x1="25.0" y1="0" x2="25.0" y2="420" stroke="#b0d8b0" stroke-width="0.0625"/>
    <line x1="26.0" y1="0" x2="26.0" y2="420" stroke="#b0d8b0" stroke-width="0.0625"/>
    <line x1="27.0" y1="0" x2="27.0" y2="420" stroke="#b0d8b0" stroke-width="0.0625"/>
    <line x1="28.0" y1="0" x2="28.0" y2="420" stroke="#b0d8b0" stroke-width="0.0625"/>
    <line x1="29.0" y1="0" x2="29.0" y2="420" stroke="#b0d8b0" stroke-width="0.0625"/>
    <line x1="31.0" y1="0" x2="31.0" y2="420" stroke="#b0d8b0" stroke-width="0.0625"/>
    <line x1="32.0" y1="0" x2="32.0" y2="420" stroke="#b0d8b0" stroke-width="0.0625"/>
    <line x1="33.0" y1="0" x2="33.0" y2="420" stroke="#b0d8b0" stroke-width="0.0625"/>
    <line x1="34.0" y1="0" x2="34.0" y2="420" stroke="#b0d8b0" stroke-width="0.0625"/>
    <line x1="35.0" y1="0" x2="35.0" y2="420" stroke="#b0d8b0" stroke-width="0.0625"/>
    <line x1="36.0" y1="0" x2="36.0" y2="420" stroke="#b0d8b0" stroke-width="0.0625"/>
    <line x1="37.0" y1="0" x2="37.0" y2="420" stroke="#b0d8b0" stroke-width="0.0625"/>
    <line x1="38.0" y1="0" x2="38.0" y2="420" stroke="#b0d8b0" stroke-width="0.0625"/>
    <line x1="39.0" y1="0" x2="39.0" y2="420" stroke="#b0d8b0" stroke-width="0.0625"/>
    <line x1="41.0" y1="0" x2="41.0" y2="420" stroke="#b0d8b0" stroke-width="0.0625"/>
    <line x1="42.0" y1="0" x2="42.0" y2="420" stroke="#b0d8b0" stroke-width="0.0625"/>
    <line x1="43.0" y1="0" x2="43.0" y2="420" stroke="#b0d8b0" stroke-width="0.0625"/>
    <line x1="44.0" y1="0" x2="44.0" y2="420" stroke="#b0d8b0" stroke-width="0.0625"/>
    <line x1="45.0" y1="0" x2="45.0" y2="420" stroke="#b0d8b0" stroke-width="0.0625"/>
    <line x1="46.0" y1="0" x2="46.0" y2="420" stroke="#b0d8b0" stroke-width="0.0625"/>
    <line x1="47.0" y1="0" x2="47.0" y2="420" stroke="#b0d8b0" stroke-width="0.0625"/>
    <line x1="48.0" y1="0" x2="48.0" y2="420" stroke="#b0d8b0" stroke-width="0.0625"/>
    <line x1="49.0" y1="0" x2="49.0" y2="420" stroke="#b0d8b0" stroke-width="0.0625"/>
    <line x1="51.0" y1="0" x2="51.0" y2="420" stroke="#b0d8b0" stroke-width="0.0625"/>
    <line x1="52.0" y1="0" x2="52.0" y2="420" stroke="#b0d8b0" stroke-width="0.0625"/>
    <line x1="53.0" y1="0" x2="53.0" y2="420" stroke="#b0d8b0" stroke-width="0.0625"/>
    <line x1="54.0" y1="0" x2="54.0" y2="420" stroke="#b0d8b0" stroke-width="0.0625"/>
    <line x1="55.0" y1="0" x2="55.0" y2="420" stroke="#b0d8b0" stroke-width="0.0625"/>
    <line x1="56.0" y1="0" x2="56.0" y2="420" stroke="#b0d8b0" stroke-width="0.0625"/>
    <line x1="57.0" y1="0" x2="57.0" y2="420" stroke="#b0d8b0" stroke-width="0.0625"/>
    <line x1="58.0" y1="0" x2="58.0" y2="420" stroke="#b0d8b0" stroke-width="0.0625"/>
    <line x1="59.0" y1="0" x2="59.0" y2="420" stroke="#b0d8b0" stroke-width="0.0625"/>
    <line x1="61.0" y1="0" x2="61.0" y2="420" stroke="#b0d8b0" stroke-width="0.0625"/>
    <line x1="62.0" y1="0" x2="62.0" y2="420" stroke="#b0d8b0" stroke-width="0.0625"/>
    <line x1="63.0" y1="0" x2="63.0" y2="420" stroke="#b0d8b0" stroke-width="0.0625"/>
    <line x1="64.0" y1="0" x2="64.0" y2="420" stroke="#b0d8b0" stroke-width="0.0625"/>
    <line x1="65.0" y1="0" x2="65.0" y2="420" stroke="#b0d8b0" stroke-width="0.0625"/>
    <line x1="66.0" y1="0" x2="66.0" y2="420" stroke="#b0d8b0" stroke-width="0.0625"/>
    <line x1="67.0" y1="0" x2="67.0" y2="420" stroke="#b0d8b0" stroke-width="0.0625"/>
    <line x1="68.0" y1="0" x2="68.0" y2="420" stroke="#b0d8b0" stroke-width="0.0625"/>
    <line x1="69.0" y1="0" x2="69.0" y2="420" stroke="#b0d8b0" stroke-width="0.0625"/>
    <line x1="71.0" y1="0" x2="71.0" y2="420" stroke="#b0d8b0" stroke-width="0.0625"/>
    <line x1="72.0" y1="0" x2="72.0" y2="420" stroke="#b0d8b0" stroke-width="0.0625"/>
    <line x1="73.0" y1="0" x2="73.0" y2="420" stroke="#b0d8b0" stroke-width="0.0625"/>
    <line x1="74.0" y1="0" x2="74.0" y2="420" stroke="#b0d8b0" stroke-width="0.0625"/>
    <line x1="75.0" y1="0" x2="75.0" y2="420" stroke="#b0d8b0" stroke-width="0.0625"/>
    <line x1="76.0" y1="0" x2="76.0" y2="420" stroke="#b0d8b0" stroke-width="0.0625"/>
    <line x1="77.0" y1="0" x2="77.0" y2="420" stroke="#b0d8b0" stroke-width="0.0625"/>
    <line x1="78.0" y1="0" x2="78.0" y2="420" stroke="#b0d8b0" stroke-width="0.0625"/>
    <line x1="79.0" y1="0" x2="79.0" y2="420" stroke="#b0d8b0" stroke-width="0.0625"/>
    <line x1="81.0" y1="0" x2="81.0" y2="420" stroke="#b0d8b0" stroke-width="0.0625"/>
    <line x1="82.0" y1="0" x2="82.0" y2="420" stroke="#b0d8b0" stroke-width="0.0625"/>
    <line x1="83.0" y1="0" x2="83.0" y2="420" stroke="#b0d8b0" stroke-width="0.0625"/>
    <line x1="84.0" y1="0" x2="84.0" y2="420" stroke="#b0d8b0" stroke-width="0.0625"/>
    <line x1="85.0" y1="0" x2="85.0" y2="420" stroke="#b0d8b0" stroke-width="0.0625"/>
    <line x1="86.0" y1="0" x2="86.0" y2="420" stroke="#b0d8b0" stroke-width="0.0625"/>
    <line x1="87.0" y1="0" x2="87.0" y2="420" stroke="#b0d8b0" stroke-width="0.0625"/>
    <line x1="88.0" y1="0" x2="88.0" y2="420" stroke="#b0d8b0" stroke-width="0.0625"/>
    <line x1="89.0" y1="0" x2="89.0" y2="420" stroke="#b0d8b0" stroke-width="0.0625"/>
    <line x1="91.0" y1="0" x2="91.0" y2="420" stroke="#b0d8b0" stroke-width="0.0625"/>
    <line x1="92.0" y1="0" x2="92.0" y2="420" stroke="#b0d8b0" stroke-width="0.0625"/>
    <line x1="93.0" y1="0" x2="93.0" y2="420" stroke="#b0d8b0" stroke-width="0.0625"/>
    <line x1="94.0" y1="0" x2="94.0" y2="420" stroke="#b0d8b0" stroke-width="0.0625"/>
    <line x1="95.0" y1="0" x2="95.0" y2="420" stroke="#b0d8b0" stroke-width="0.0625"/>
    <line x1="96.0" y1="0" x2="96.0" y2="420" stroke="#b0d8b0" stroke-width="0.0625"/>
    <line x1="97.0" y1="0" x2="97.0" y2="420" stroke="#b0d8b0" stroke-width="0.0625"/>
    <line x1="98.0" y1="0" x2="98.0" y2="420" stroke="#b0d8b0" stroke-width="0.0625"/>
    <line x1="99.0" y1="0" x2="99.0" y2="420" stroke="#b0d8b0" stroke-width="0.0625"/>
    <line x1="101.0" y1="0" x2="101.0" y2="420" stroke="#b0d8b0" stroke-width="0.0625"/>
    <line x1="102.0" y1="0" x2="102.0" y2="420" stroke="#b0d8b0" stroke-width="0.0625"/>
    <line x1="103.0" y1="0" x2="103.0" y2="420" stroke="#b0d8b0" stroke-width="0.0625"/>
    <line x1="104.0" y1="0" x2="104.0" y2="420" stroke="#b0d8b0" stroke-width="0.0625"/>
    <line x1="105.0" y1="0" x2="105.0" y2="420" stroke="#b0d8b0" stroke-width="0.0625"/>
    <line x1="106.0" y1="0" x2="106.0" y2="420" stroke="#b0d8b0" stroke-width="0.0625"/>
    <line x1="107.0" y1="0" x2="107.0" y2="420" stroke="#b0d8b0" stroke-width="0.0625"/>
    <line x1="108.0" y1="0" x2="108.0" y2="420" stroke="#b0d8b0" stroke-width="0.0625"/>
    <line x1="109.0" y1="0" x2="109.0" y2="420" stroke="#b0d8b0" stroke-width="0.0625"/>
    <line x1="111.0" y1="0" x2="111.0" y2="420" stroke="#b0d8b0" stroke-width="0.0625"/>
    <line x1="112.0" y1="0" x2="112.0" y2="420" stroke="#b0d8b0" stroke-width="0.0625"/>
    <line x1="113.0" y1="0" x2="113.0" y2="420" stroke="#b0d8b0" stroke-width="0.0625"/>
    <line x1="114.0" y1="0" x2="114.0" y2="420" stroke="#b0d8b0" stroke-width="0.0625"/>
    <line x1="115.0" y1="0" x2="115.0" y2="420" stroke="#b0d8b0" stroke-width="0.0625"/>
    <line x1="116.0" y1="0" x2="116.0" y2="420" stroke="#b0d8b0" stroke-width="0.0625"/>
    <line x1="117.0" y1="0" x2="117.0" y2="420" stroke="#b0d8b0" stroke-width="0.0625"/>
    <line x1="118.0" y1="0" x2="118.0" y2="420" stroke="#b0d8b0" stroke-width="0.0625"/>
    <line x1="119.0" y1="0" x2="119.0" y2="420" stroke="#b0d8b0" stroke-width="0.0625"/>
    <line x1="121.0" y1="0" x2="121.0" y2="420" stroke="#b0d8b0" stroke-width="0.0625"/>
    <line x1="122.0" y1="0" x2="122.0" y2="420" stroke="#b0d8b0" stroke-width="0.0625"/>
    <line x1="123.0" y1="0" x2="123.0" y2="420" stroke="#b0d8b0" stroke-width="0.0625"/>
    <line x1="124.0" y1="0" x2="124.0" y2="420" stroke="#b0d8b0" stroke-width="0.0625"/>
    <line x1="125.0" y1="0" x2="125.0" y2="420" stroke="#b0d8b0" stroke-width="0.0625"/>
    <line x1="126.0" y1="0" x2="126.0" y2="420" stroke="#b0d8b0" stroke-width="0.0625"/>
    <line x1="127.0" y1="0" x2="127.0" y2="420" stroke="#b0d8b0" stroke-width="0.0625"/>
    <line x1="128.0" y1="0" x2="128.0" y2="420" stroke="#b0d8b0" stroke-width="0.0625"/>
    <line x1="129.0" y1="0" x2="129.0" y2="420" stroke="#b0d8b0" stroke-width="0.0625"/>
    <line x1="131.0" y1="0" x2="131.0" y2="420" stroke="#b0d8b0" stroke-width="0.0625"/>
    <line x1="132.0" y1="0" x2="132.0" y2="420" stroke="#b0d8b0" stroke-width="0.0625"/>
    <line x1="133.0" y1="0" x2="133.0" y2="420" stroke="#b0d8b0" stroke-width="0.0625"/>
    <line x1="134.0" y1="0" x2="134.0" y2="420" stroke="#b0d8b0" stroke-width="0.0625"/>
    <line x1="135.0" y1="0" x2="135.0" y2="420" stroke="#b0d8b0" stroke-width="0.0625"/>
    <line x1="136.0" y1="0" x2="136.0" y2="420" stroke="#b0d8b0" stroke-width="0.0625"/>
    <line x1="137.0" y1="0" x2="137.0" y2="420" stroke="#b0d8b0" stroke-width="0.0625"/>
    <line x1="138.0" y1="0" x2="138.0" y2="420" stroke="#b0d8b0" stroke-width="0.0625"/>
    <line x1="139.0" y1="0" x2="139.0" y2="420" stroke="#b0d8b0" stroke-width="0.0625"/>
    <line x1="141.0" y1="0" x2="141.0" y2="420" stroke="#b0d8b0" stroke-width="0.0625"/>
    <line x1="142.0" y1="0" x2="142.0" y2="420" stroke="#b0d8b0" stroke-width="0.0625"/>
    <line x1="143.0" y1="0" x2="143.0" y2="420" stroke="#b0d8b0" stroke-width="0.0625"/>
    <line x1="144.0" y1="0" x2="144.0" y2="420" stroke="#b0d8b0" stroke-width="0.0625"/>
    <line x1="145.0" y1="0" x2="145.0" y2="420" stroke="#b0d8b0" stroke-width="0.0625"/>
    <line x1="146.0" y1="0" x2="146.0" y2="420" stroke="#b0d8b0" stroke-width="0.0625"/>
    <line x1="147.0" y1="0" x2="147.0" y2="420" stroke="#b0d8b0" stroke-width="0.0625"/>
    <line x1="148.0" y1="0" x2="148.0" y2="420" stroke="#b0d8b0" stroke-width="0.0625"/>
    <line x1="149.0" y1="0" x2="149.0" y2="420" stroke="#b0d8b0" stroke-width="0.0625"/>
    <line x1="151.0" y1="0" x2="151.0" y2="420" stroke="#b0d8b0" stroke-width="0.0625"/>
    <line x1="152.0" y1="0" x2="152.0" y2="420" stroke="#b0d8b0" stroke-width="0.0625"/>
    <line x1="153.0" y1="0" x2="153.0" y2="420" stroke="#b0d8b0" stroke-width="0.0625"/>
    <line x1="154.0" y1="0" x2="154.0" y2="420" stroke="#b0d8b0" stroke-width="0.0625"/>
    <line x1="155.0" y1="0" x2="155.0" y2="420" stroke="#b0d8b0" stroke-width="0.0625"/>
    <line x1="156.0" y1="0" x2="156.0" y2="420" stroke="#b0d8b0" stroke-width="0.0625"/>
    <line x1="157.0" y1="0" x2="157.0" y2="420" stroke="#b0d8b0" stroke-width="0.0625"/>
    <line x1="158.0" y1="0" x2="158.0" y2="420" stroke="#b0d8b0" stroke-width="0.0625"/>
    <line x1="159.0" y1="0" x2="159.0" y2="420" stroke="#b0d8b0" stroke-width="0.0625"/>
    <line x1="161.0" y1="0" x2="161.0" y2="420" stroke="#b0d8b0" stroke-width="0.0625"/>
    <line x1="162.0" y1="0" x2="162.0" y2="420" stroke="#b0d8b0" stroke-width="0.0625"/>
    <line x1="163.0" y1="0" x2="163.0" y2="420" stroke="#b0d8b0" stroke-width="0.0625"/>
    <line x1="164.0" y1="0" x2="164.0" y2="420" stroke="#b0d8b0" stroke-width="0.0625"/>
    <line x1="165.0" y1="0" x2="165.0" y2="420" stroke="#b0d8b0" stroke-width="0.0625"/>
    <line x1="166.0" y1="0" x2="166.0" y2="420" stroke="#b0d8b0" stroke-width="0.0625"/>
    <line x1="167.0" y1="0" x2="167.0" y2="420" stroke="#b0d8b0" stroke-width="0.0625"/>
    <line x1="168.0" y1="0" x2="168.0" y2="420" stroke="#b0d8b0" stroke-width="0.0625"/>
    <line x1="169.0" y1="0" x2="169.0" y2="420" stroke="#b0d8b0" stroke-width="0.0625"/>
    <line x1="171.0" y1="0" x2="171.0" y2="420" stroke="#b0d8b0" stroke-width="0.0625"/>
    <line x1="172.0" y1="0" x2="172.0" y2="420" stroke="#b0d8b0" stroke-width="0.0625"/>
    <line x1="173.0" y1="0" x2="173.0" y2="420" stroke="#b0d8b0" stroke-width="0.0625"/>
    <line x1="174.0" y1="0" x2="174.0" y2="420" stroke="#b0d8b0" stroke-width="0.0625"/>
    <line x1="175.0" y1="0" x2="175.0" y2="420" stroke="#b0d8b0" stroke-width="0.0625"/>
    <line x1="176.0" y1="0" x2="176.0" y2="420" stroke="#b0d8b0" stroke-width="0.0625"/>
    <line x1="177.0" y1="0" x2="177.0" y2="420" stroke="#b0d8b0" stroke-width="0.0625"/>
    <line x1="178.0" y1="0" x2="178.0" y2="420" stroke="#b0d8b0" stroke-width="0.0625"/>
    <line x1="179.0" y1="0" x2="179.0" y2="420" stroke="#b0d8b0" stroke-width="0.0625"/>
    <line x1="181.0" y1="0" x2="181.0" y2="420" stroke="#b0d8b0" stroke-width="0.0625"/>
    <line x1="182.0" y1="0" x2="182.0" y2="420" stroke="#b0d8b0" stroke-width="0.0625"/>
    <line x1="183.0" y1="0" x2="183.0" y2="420" stroke="#b0d8b0" stroke-width="0.0625"/>
    <line x1="184.0" y1="0" x2="184.0" y2="420" stroke="#b0d8b0" stroke-width="0.0625"/>
    <line x1="185.0" y1="0" x2="185.0" y2="420" stroke="#b0d8b0" stroke-width="0.0625"/>
    <line x1="186.0" y1="0" x2="186.0" y2="420" stroke="#b0d8b0" stroke-width="0.0625"/>
    <line x1="187.0" y1="0" x2="187.0" y2="420" stroke="#b0d8b0" stroke-width="0.0625"/>
    <line x1="188.0" y1="0" x2="188.0" y2="420" stroke="#b0d8b0" stroke-width="0.0625"/>
    <line x1="189.0" y1="0" x2="189.0" y2="420" stroke="#b0d8b0" stroke-width="0.0625"/>
    <line x1="191.0" y1="0" x2="191.0" y2="420" stroke="#b0d8b0" stroke-width="0.0625"/>
    <line x1="192.0" y1="0" x2="192.0" y2="420" stroke="#b0d8b0" stroke-width="0.0625"/>
    <line x1="193.0" y1="0" x2="193.0" y2="420" stroke="#b0d8b0" stroke-width="0.0625"/>
    <line x1="194.0" y1="0" x2="194.0" y2="420" stroke="#b0d8b0" stroke-width="0.0625"/>
    <line x1="195.0" y1="0" x2="195.0" y2="420" stroke="#b0d8b0" stroke-width="0.0625"/>
    <line x1="196.0" y1="0" x2="196.0" y2="420" stroke="#b0d8b0" stroke-width="0.0625"/>
    <line x1="197.0" y1="0" x2="197.0" y2="420" stroke="#b0d8b0" stroke-width="0.0625"/>
    <line x1="198.0" y1="0" x2="198.0" y2="420" stroke="#b0d8b0" stroke-width="0.0625"/>
    <line x1="199.0" y1="0" x2="199.0" y2="420" stroke="#b0d8b0" stroke-width="0.0625"/>
    <line x1="201.0" y1="0" x2="201.0" y2="420" stroke="#b0d8b0" stroke-width="0.0625"/>
    <line x1="202.0" y1="0" x2="202.0" y2="420" stroke="#b0d8b0" stroke-width="0.0625"/>
    <line x1="203.0" y1="0" x2="203.0" y2="420" stroke="#b0d8b0" stroke-width="0.0625"/>
    <line x1="204.0" y1="0" x2="204.0" y2="420" stroke="#b0d8b0" stroke-width="0.0625"/>
    <line x1="205.0" y1="0" x2="205.0" y2="420" stroke="#b0d8b0" stroke-width="0.0625"/>
    <line x1="206.0" y1="0" x2="206.0" y2="420" stroke="#b0d8b0" stroke-width="0.0625"/>
    <line x1="207.0" y1="0" x2="207.0" y2="420" stroke="#b0d8b0" stroke-width="0.0625"/>
    <line x1="208.0" y1="0" x2="208.0" y2="420" stroke="#b0d8b0" stroke-width="0.0625"/>
    <line x1="209.0" y1="0" x2="209.0" y2="420" stroke="#b0d8b0" stroke-width="0.0625"/>
    <line x1="211.0" y1="0" x2="211.0" y2="420" stroke="#b0d8b0" stroke-width="0.0625"/>
    <line x1="212.0" y1="0" x2="212.0" y2="420" stroke="#b0d8b0" stroke-width="0.0625"/>
    <line x1="213.0" y1="0" x2="213.0" y2="420" stroke="#b0d8b0" stroke-width="0.0625"/>
    <line x1="214.0" y1="0" x2="214.0" y2="420" stroke="#b0d8b0" stroke-width="0.0625"/>
    <line x1="215.0" y1="0" x2="215.0" y2="420" stroke="#b0d8b0" stroke-width="0.0625"/>
    <line x1="216.0" y1="0" x2="216.0" y2="420" stroke="#b0d8b0" stroke-width="0.0625"/>
    <line x1="217.0" y1="0" x2="217.0" y2="420" stroke="#b0d8b0" stroke-width="0.0625"/>
    <line x1="218.0" y1="0" x2="218.0" y2="420" stroke="#b0d8b0" stroke-width="0.0625"/>
    <line x1="219.0" y1="0" x2="219.0" y2="420" stroke="#b0d8b0" stroke-width="0.0625"/>
    <line x1="221.0" y1="0" x2="221.0" y2="420" stroke="#b0d8b0" stroke-width="0.0625"/>
    <line x1="222.0" y1="0" x2="222.0" y2="420" stroke="#b0d8b0" stroke-width="0.0625"/>
    <line x1="223.0" y1="0" x2="223.0" y2="420" stroke="#b0d8b0" stroke-width="0.0625"/>
    <line x1="224.0" y1="0" x2="224.0" y2="420" stroke="#b0d8b0" stroke-width="0.0625"/>
    <line x1="225.0" y1="0" x2="225.0" y2="420" stroke="#b0d8b0" stroke-width="0.0625"/>
    <line x1="226.0" y1="0" x2="226.0" y2="420" stroke="#b0d8b0" stroke-width="0.0625"/>
    <line x1="227.0" y1="0" x2="227.0" y2="420" stroke="#b0d8b0" stroke-width="0.0625"/>
    <line x1="228.0" y1="0" x2="228.0" y2="420" stroke="#b0d8b0" stroke-width="0.0625"/>
    <line x1="229.0" y1="0" x2="229.0" y2="420" stroke="#b0d8b0" stroke-width="0.0625"/>
    <line x1="231.0" y1="0" x2="231.0" y2="420" stroke="#b0d8b0" stroke-width="0.0625"/>
    <line x1="232.0" y1="0" x2="232.0" y2="420" stroke="#b0d8b0" stroke-width="0.0625"/>
    <line x1="233.0" y1="0" x2="233.0" y2="420" stroke="#b0d8b0" stroke-width="0.0625"/>
    <line x1="234.0" y1="0" x2="234.0" y2="420" stroke="#b0d8b0" stroke-width="0.0625"/>
    <line x1="235.0" y1="0" x2="235.0" y2="420" stroke="#b0d8b0" stroke-width="0.0625"/>
    <line x1="236.0" y1="0" x2="236.0" y2="420" stroke="#b0d8b0" stroke-width="0.0625"/>
    <line x1="237.0" y1="0" x2="237.0" y2="420" stroke="#b0d8b0" stroke-width="0.0625"/>
    <line x1="238.0" y1="0" x2="238.0" y2="420" stroke="#b0d8b0" stroke-width="0.0625"/>
    <line x1="239.0" y1="0" x2="239.0" y2="420" stroke="#b0d8b0" stroke-width="0.0625"/>
    <line x1="241.0" y1="0" x2="241.0" y2="420" stroke="#b0d8b0" stroke-width="0.0625"/>
    <line x1="242.0" y1="0" x2="242.0" y2="420" stroke="#b0d8b0" stroke-width="0.0625"/>
    <line x1="243.0" y1="0" x2="243.0" y2="420" stroke="#b0d8b0" stroke-width="0.0625"/>
    <line x1="244.0" y1="0" x2="244.0" y2="420" stroke="#b0d8b0" stroke-width="0.0625"/>
    <line x1="245.0" y1="0" x2="245.0" y2="420" stroke="#b0d8b0" stroke-width="0.0625"/>
    <line x1="246.0" y1="0" x2="246.0" y2="420" stroke="#b0d8b0" stroke-width="0.0625"/>
    <line x1="247.0" y1="0" x2="247.0" y2="420" stroke="#b0d8b0" stroke-width="0.0625"/>
    <line x1="248.0" y1="0" x2="248.0" y2="420" stroke="#b0d8b0" stroke-width="0.0625"/>
    <line x1="249.0" y1="0" x2="249.0" y2="420" stroke="#b0d8b0" stroke-width="0.0625"/>
    <line x1="251.0" y1="0" x2="251.0" y2="420" stroke="#b0d8b0" stroke-width="0.0625"/>
    <line x1="252.0" y1="0" x2="252.0" y2="420" stroke="#b0d8b0" stroke-width="0.0625"/>
    <line x1="253.0" y1="0" x2="253.0" y2="420" stroke="#b0d8b0" stroke-width="0.0625"/>
    <line x1="254.0" y1="0" x2="254.0" y2="420" stroke="#b0d8b0" stroke-width="0.0625"/>
    <line x1="255.0" y1="0" x2="255.0" y2="420" stroke="#b0d8b0" stroke-width="0.0625"/>
    <line x1="256.0" y1="0" x2="256.0" y2="420" stroke="#b0d8b0" stroke-width="0.0625"/>
    <line x1="257.0" y1="0" x2="257.0" y2="420" stroke="#b0d8b0" stroke-width="0.0625"/>
    <line x1="258.0" y1="0" x2="258.0" y2="420" stroke="#b0d8b0" stroke-width="0.0625"/>
    <line x1="259.0" y1="0" x2="259.0" y2="420" stroke="#b0d8b0" stroke-width="0.0625"/>
    <line x1="261.0" y1="0" x2="261.0" y2="420" stroke="#b0d8b0" stroke-width="0.0625"/>
    <line x1="262.0" y1="0" x2="262.0" y2="420" stroke="#b0d8b0" stroke-width="0.0625"/>
    <line x1="263.0" y1="0" x2="263.0" y2="420" stroke="#b0d8b0" stroke-width="0.0625"/>
    <line x1="264.0" y1="0" x2="264.0" y2="420" stroke="#b0d8b0" stroke-width="0.0625"/>
    <line x1="265.0" y1="0" x2="265.0" y2="420" stroke="#b0d8b0" stroke-width="0.0625"/>
    <line x1="266.0" y1="0" x2="266.0" y2="420" stroke="#b0d8b0" stroke-width="0.0625"/>
    <line x1="267.0" y1="0" x2="267.0" y2="420" stroke="#b0d8b0" stroke-width="0.0625"/>
    <line x1="268.0" y1="0" x2="268.0" y2="420" stroke="#b0d8b0" stroke-width="0.0625"/>
    <line x1="269.0" y1="0" x2="269.0" y2="420" stroke="#b0d8b0" stroke-width="0.0625"/>
    <line x1="271.0" y1="0" x2="271.0" y2="420" stroke="#b0d8b0" stroke-width="0.0625"/>
    <line x1="272.0" y1="0" x2="272.0" y2="420" stroke="#b0d8b0" stroke-width="0.0625"/>
    <line x1="273.0" y1="0" x2="273.0" y2="420" stroke="#b0d8b0" stroke-width="0.0625"/>
    <line x1="274.0" y1="0" x2="274.0" y2="420" stroke="#b0d8b0" stroke-width="0.0625"/>
    <line x1="275.0" y1="0" x2="275.0" y2="420" stroke="#b0d8b0" stroke-width="0.0625"/>
    <line x1="276.0" y1="0" x2="276.0" y2="420" stroke="#b0d8b0" stroke-width="0.0625"/>
    <line x1="277.0" y1="0" x2="277.0" y2="420" stroke="#b0d8b0" stroke-width="0.0625"/>
    <line x1="278.0" y1="0" x2="278.0" y2="420" stroke="#b0d8b0" stroke-width="0.0625"/>
    <line x1="279.0" y1="0" x2="279.0" y2="420" stroke="#b0d8b0" stroke-width="0.0625"/>
    <line x1="281.0" y1="0" x2="281.0" y2="420" stroke="#b0d8b0" stroke-width="0.0625"/>
    <line x1="282.0" y1="0" x2="282.0" y2="420" stroke="#b0d8b0" stroke-width="0.0625"/>
    <line x1="283.0" y1="0" x2="283.0" y2="420" stroke="#b0d8b0" stroke-width="0.0625"/>
    <line x1="284.0" y1="0" x2="284.0" y2="420" stroke="#b0d8b0" stroke-width="0.0625"/>
    <line x1="285.0" y1="0" x2="285.0" y2="420" stroke="#b0d8b0" stroke-width="0.0625"/>
    <line x1="286.0" y1="0" x2="286.0" y2="420" stroke="#b0d8b0" stroke-width="0.0625"/>
    <line x1="287.0" y1="0" x2="287.0" y2="420" stroke="#b0d8b0" stroke-width="0.0625"/>
    <line x1="288.0" y1="0" x2="288.0" y2="420" stroke="#b0d8b0" stroke-width="0.0625"/>
    <line x1="289.0" y1="0" x2="289.0" y2="420" stroke="#b0d8b0" stroke-width="0.0625"/>
    <line x1="291.0" y1="0" x2="291.0" y2="420" stroke="#b0d8b0" stroke-width="0.0625"/>
    <line x1="292.0" y1="0" x2="292.0" y2="420" stroke="#b0d8b0" stroke-width="0.0625"/>
    <line x1="293.0" y1="0" x2="293.0" y2="420" stroke="#b0d8b0" stroke-width="0.0625"/>
    <line x1="294.0" y1="0" x2="294.0" y2="420" stroke="#b0d8b0" stroke-width="0.0625"/>
    <line x1="295.0" y1="0" x2="295.0" y2="420" stroke="#b0d8b0" stroke-width="0.0625"/>
    <line x1="296.0" y1="0" x2="296.0" y2="420" stroke="#b0d8b0" stroke-width="0.0625"/>
    <line x1="297.0" y1="0" x2="297.0" y2="420" stroke="#b0d8b0" stroke-width="0.0625"/>
    <line x1="0" y1="1.0" x2="297" y2="1.0" stroke="#b0d8b0" stroke-width="0.0625"/>
    <line x1="0" y1="2.0" x2="297" y2="2.0" stroke="#b0d8b0" stroke-width="0.0625"/>
    <line x1="0" y1="3.0" x2="297" y2="3.0" stroke="#b0d8b0" stroke-width="0.0625"/>
    <line x1="0" y1="4.0" x2="297" y2="4.0" stroke="#b0d8b0" stroke-width="0.0625"/>
    <line x1="0" y1="5.0" x2="297" y2="5.0" stroke="#b0d8b0" stroke-width="0.0625"/>
    <line x1="0" y1="6.0" x2="297" y2="6.0" stroke="#b0d8b0" stroke-width="0.0625"/>
    <line x1="0" y1="7.0" x2="297" y2="7.0" stroke="#b0d8b0" stroke-width="0.0625"/>
    <line x1="0" y1="8.0" x2="297" y2="8.0" stroke="#b0d8b0" stroke-width="0.0625"/>
    <line x1="0" y1="9.0" x2="297" y2="9.0" stroke="#b0d8b0" stroke-width="0.0625"/>
    <line x1="0" y1="11.0" x2="297" y2="11.0" stroke="#b0d8b0" stroke-width="0.0625"/>
    <line x1="0" y1="12.0" x2="297" y2="12.0" stroke="#b0d8b0" stroke-width="0.0625"/>
    <line x1="0" y1="13.0" x2="297" y2="13.0" stroke="#b0d8b0" stroke-width="0.0625"/>
    <line x1="0" y1="14.0" x2="297" y2="14.0" stroke="#b0d8b0" stroke-width="0.0625"/>
    <line x1="0" y1="15.0" x2="297" y2="15.0" stroke="#b0d8b0" stroke-width="0.0625"/>
    <line x1="0" y1="16.0" x2="297" y2="16.0" stroke="#b0d8b0" stroke-width="0.0625"/>
    <line x1="0" y1="17.0" x2="297" y2="17.0" stroke="#b0d8b0" stroke-width="0.0625"/>
    <line x1="0" y1="18.0" x2="297" y2="18.0" stroke="#b0d8b0" stroke-width="0.0625"/>
    <line x1="0" y1="19.0" x2="297" y2="19.0" stroke="#b0d8b0" stroke-width="0.0625"/>
    <line x1="0" y1="21.0" x2="297" y2="21.0" stroke="#b0d8b0" stroke-width="0.0625"/>
    <line x1="0" y1="22.0" x2="297" y2="22.0" stroke="#b0d8b0" stroke-width="0.0625"/>
    <line x1="0" y1="23.0" x2="297" y2="23.0" stroke="#b0d8b0" stroke-width="0.0625"/>
    <line x1="0" y1="24.0" x2="297" y2="24.0" stroke="#b0d8b0" stroke-width="0.0625"/>
    <line x1="0" y1="25.0" x2="297" y2="25.0" stroke="#b0d8b0" stroke-width="0.0625"/>
    <line x1="0" y1="26.0" x2="297" y2="26.0" stroke="#b0d8b0" stroke-width="0.0625"/>
    <line x1="0" y1="27.0" x2="297" y2="27.0" stroke="#b0d8b0" stroke-width="0.0625"/>
    <line x1="0" y1="28.0" x2="297" y2="28.0" stroke="#b0d8b0" stroke-width="0.0625"/>
    <line x1="0" y1="29.0" x2="297" y2="29.0" stroke="#b0d8b0" stroke-width="0.0625"/>
    <line x1="0" y1="31.0" x2="297" y2="31.0" stroke="#b0d8b0" stroke-width="0.0625"/>
    <line x1="0" y1="32.0" x2="297" y2="32.0" stroke="#b0d8b0" stroke-width="0.0625"/>
    <line x1="0" y1="33.0" x2="297" y2="33.0" stroke="#b0d8b0" stroke-width="0.0625"/>
    <line x1="0" y1="34.0" x2="297" y2="34.0" stroke="#b0d8b0" stroke-width="0.0625"/>
    <line x1="0" y1="35.0" x2="297" y2="35.0" stroke="#b0d8b0" stroke-width="0.0625"/>
    <line x1="0" y1="36.0" x2="297" y2="36.0" stroke="#b0d8b0" stroke-width="0.0625"/>
    <line x1="0" y1="37.0" x2="297" y2="37.0" stroke="#b0d8b0" stroke-width="0.0625"/>
    <line x1="0" y1="38.0" x2="297" y2="38.0" stroke="#b0d8b0" stroke-width="0.0625"/>
    <line x1="0" y1="39.0" x2="297" y2="39.0" stroke="#b0d8b0" stroke-width="0.0625"/>
    <line x1="0" y1="41.0" x2="297" y2="41.0" stroke="#b0d8b0" stroke-width="0.0625"/>
    <line x1="0" y1="42.0" x2="297" y2="42.0" stroke="#b0d8b0" stroke-width="0.0625"/>
    <line x1="0" y1="43.0" x2="297" y2="43.0" stroke="#b0d8b0" stroke-width="0.0625"/>
    <line x1="0" y1="44.0" x2="297" y2="44.0" stroke="#b0d8b0" stroke-width="0.0625"/>
    <line x1="0" y1="45.0" x2="297" y2="45.0" stroke="#b0d8b0" stroke-width="0.0625"/>
    <line x1="0" y1="46.0" x2="297" y2="46.0" stroke="#b0d8b0" stroke-width="0.0625"/>
    <line x1="0" y1="47.0" x2="297" y2="47.0" stroke="#b0d8b0" stroke-width="0.0625"/>
    <line x1="0" y1="48.0" x2="297" y2="48.0" stroke="#b0d8b0" stroke-width="0.0625"/>
    <line x1="0" y1="49.0" x2="297" y2="49.0" stroke="#b0d8b0" stroke-width="0.0625"/>
    <line x1="0" y1="51.0" x2="297" y2="51.0" stroke="#b0d8b0" stroke-width="0.0625"/>
    <line x1="0" y1="52.0" x2="297" y2="52.0" stroke="#b0d8b0" stroke-width="0.0625"/>
    <line x1="0" y1="53.0" x2="297" y2="53.0" stroke="#b0d8b0" stroke-width="0.0625"/>
    <line x1="0" y1="54.0" x2="297" y2="54.0" stroke="#b0d8b0" stroke-width="0.0625"/>
    <line x1="0" y1="55.0" x2="297" y2="55.0" stroke="#b0d8b0" stroke-width="0.0625"/>
    <line x1="0" y1="56.0" x2="297" y2="56.0" stroke="#b0d8b0" stroke-width="0.0625"/>
    <line x1="0" y1="57.0" x2="297" y2="57.0" stroke="#b0d8b0" stroke-width="0.0625"/>
    <line x1="0" y1="58.0" x2="297" y2="58.0" stroke="#b0d8b0" stroke-width="0.0625"/>
    <line x1="0" y1="59.0" x2="297" y2="59.0" stroke="#b0d8b0" stroke-width="0.0625"/>
    <line x1="0" y1="61.0" x2="297" y2="61.0" stroke="#b0d8b0" stroke-width="0.0625"/>
    <line x1="0" y1="62.0" x2="297" y2="62.0" stroke="#b0d8b0" stroke-width="0.0625"/>
    <line x1="0" y1="63.0" x2="297" y2="63.0" stroke="#b0d8b0" stroke-width="0.0625"/>
    <line x1="0" y1="64.0" x2="297" y2="64.0" stroke="#b0d8b0" stroke-width="0.0625"/>
    <line x1="0" y1="65.0" x2="297" y2="65.0" stroke="#b0d8b0" stroke-width="0.0625"/>
    <line x1="0" y1="66.0" x2="297" y2="66.0" stroke="#b0d8b0" stroke-width="0.0625"/>
    <line x1="0" y1="67.0" x2="297" y2="67.0" stroke="#b0d8b0" stroke-width="0.0625"/>
    <line x1="0" y1="68.0" x2="297" y2="68.0" stroke="#b0d8b0" stroke-width="0.0625"/>
    <line x1="0" y1="69.0" x2="297" y2="69.0" stroke="#b0d8b0" stroke-width="0.0625"/>
    <line x1="0" y1="71.0" x2="297" y2="71.0" stroke="#b0d8b0" stroke-width="0.0625"/>
    <line x1="0" y1="72.0" x2="297" y2="72.0" stroke="#b0d8b0" stroke-width="0.0625"/>
    <line x1="0" y1="73.0" x2="297" y2="73.0" stroke="#b0d8b0" stroke-width="0.0625"/>
    <line x1="0" y1="74.0" x2="297" y2="74.0" stroke="#b0d8b0" stroke-width="0.0625"/>
    <line x1="0" y1="75.0" x2="297" y2="75.0" stroke="#b0d8b0" stroke-width="0.0625"/>
    <line x1="0" y1="76.0" x2="297" y2="76.0" stroke="#b0d8b0" stroke-width="0.0625"/>
    <line x1="0" y1="77.0" x2="297" y2="77.0" stroke="#b0d8b0" stroke-width="0.0625"/>
    <line x1="0" y1="78.0" x2="297" y2="78.0" stroke="#b0d8b0" stroke-width="0.0625"/>
    <line x1="0" y1="79.0" x2="297" y2="79.0" stroke="#b0d8b0" stroke-width="0.0625"/>
    <line x1="0" y1="81.0" x2="297" y2="81.0" stroke="#b0d8b0" stroke-width="0.0625"/>
    <line x1="0" y1="82.0" x2="297" y2="82.0" stroke="#b0d8b0" stroke-width="0.0625"/>
    <line x1="0" y1="83.0" x2="297" y2="83.0" stroke="#b0d8b0" stroke-width="0.0625"/>
    <line x1="0" y1="84.0" x2="297" y2="84.0" stroke="#b0d8b0" stroke-width="0.0625"/>
    <line x1="0" y1="85.0" x2="297" y2="85.0" stroke="#b0d8b0" stroke-width="0.0625"/>
    <line x1="0" y1="86.0" x2="297" y2="86.0" stroke="#b0d8b0" stroke-width="0.0625"/>
    <line x1="0" y1="87.0" x2="297" y2="87.0" stroke="#b0d8b0" stroke-width="0.0625"/>
    <line x1="0" y1="88.0" x2="297" y2="88.0" stroke="#b0d8b0" stroke-width="0.0625"/>
    <line x1="0" y1="89.0" x2="297" y2="89.0" stroke="#b0d8b0" stroke-width="0.0625"/>
    <line x1="0" y1="91.0" x2="297" y2="91.0" stroke="#b0d8b0" stroke-width="0.0625"/>
    <line x1="0" y1="92.0" x2="297" y2="92.0" stroke="#b0d8b0" stroke-width="0.0625"/>
    <line x1="0" y1="93.0" x2="297" y2="93.0" stroke="#b0d8b0" stroke-width="0.0625"/>
    <line x1="0" y1="94.0" x2="297" y2="94.0" stroke="#b0d8b0" stroke-width="0.0625"/>
    <line x1="0" y1="95.0" x2="297" y2="95.0" stroke="#b0d8b0" stroke-width="0.0625"/>
    <line x1="0" y1="96.0" x2="297" y2="96.0" stroke="#b0d8b0" stroke-width="0.0625"/>
    <line x1="0" y1="97.0" x2="297" y2="97.0" stroke="#b0d8b0" stroke-width="0.0625"/>
    <line x1="0" y1="98.0" x2="297" y2="98.0" stroke="#b0d8b0" stroke-width="0.0625"/>
    <line x1="0" y1="99.0" x2="297" y2="99.0" stroke="#b0d8b0" stroke-width="0.0625"/>
    <line x1="0" y1="101.0" x2="297" y2="101.0" stroke="#b0d8b0" stroke-width="0.0625"/>
    <line x1="0" y1="102.0" x2="297" y2="102.0" stroke="#b0d8b0" stroke-width="0.0625"/>
    <line x1="0" y1="103.0" x2="297" y2="103.0" stroke="#b0d8b0" stroke-width="0.0625"/>
    <line x1="0" y1="104.0" x2="297" y2="104.0" stroke="#b0d8b0" stroke-width="0.0625"/>
    <line x1="0" y1="105.0" x2="297" y2="105.0" stroke="#b0d8b0" stroke-width="0.0625"/>
    <line x1="0" y1="106.0" x2="297" y2="106.0" stroke="#b0d8b0" stroke-width="0.0625"/>
    <line x1="0" y1="107.0" x2="297" y2="107.0" stroke="#b0d8b0" stroke-width="0.0625"/>
    <line x1="0" y1="108.0" x2="297" y2="108.0" stroke="#b0d8b0" stroke-width="0.0625"/>
    <line x1="0" y1="109.0" x2="297" y2="109.0" stroke="#b0d8b0" stroke-width="0.0625"/>
    <line x1="0" y1="111.0" x2="297" y2="111.0" stroke="#b0d8b0" stroke-width="0.0625"/>
    <line x1="0" y1="112.0" x2="297" y2="112.0" stroke="#b0d8b0" stroke-width="0.0625"/>
    <line x1="0" y1="113.0" x2="297" y2="113.0" stroke="#b0d8b0" stroke-width="0.0625"/>
    <line x1="0" y1="114.0" x2="297" y2="114.0" stroke="#b0d8b0" stroke-width="0.0625"/>
    <line x1="0" y1="115.0" x2="297" y2="115.0" stroke="#b0d8b0" stroke-width="0.0625"/>
    <line x1="0" y1="116.0" x2="297" y2="116.0" stroke="#b0d8b0" stroke-width="0.0625"/>
    <line x1="0" y1="117.0" x2="297" y2="117.0" stroke="#b0d8b0" stroke-width="0.0625"/>
    <line x1="0" y1="118.0" x2="297" y2="118.0" stroke="#b0d8b0" stroke-width="0.0625"/>
    <line x1="0" y1="119.0" x2="297" y2="119.0" stroke="#b0d8b0" stroke-width="0.0625"/>
    <line x1="0" y1="121.0" x2="297" y2="121.0" stroke="#b0d8b0" stroke-width="0.0625"/>
    <line x1="0" y1="122.0" x2="297" y2="122.0" stroke="#b0d8b0" stroke-width="0.0625"/>
    <line x1="0" y1="123.0" x2="297" y2="123.0" stroke="#b0d8b0" stroke-width="0.0625"/>
    <line x1="0" y1="124.0" x2="297" y2="124.0" stroke="#b0d8b0" stroke-width="0.0625"/>
    <line x1="0" y1="125.0" x2="297" y2="125.0" stroke="#b0d8b0" stroke-width="0.0625"/>
    <line x1="0" y1="126.0" x2="297" y2="126.0" stroke="#b0d8b0" stroke-width="0.0625"/>
    <line x1="0" y1="127.0" x2="297" y2="127.0" stroke="#b0d8b0" stroke-width="0.0625"/>
    <line x1="0" y1="128.0" x2="297" y2="128.0" stroke="#b0d8b0" stroke-width="0.0625"/>
    <line x1="0" y1="129.0" x2="297" y2="129.0" stroke="#b0d8b0" stroke-width="0.0625"/>
    <line x1="0" y1="131.0" x2="297" y2="131.0" stroke="#b0d8b0" stroke-width="0.0625"/>
    <line x1="0" y1="132.0" x2="297" y2="132.0" stroke="#b0d8b0" stroke-width="0.0625"/>
    <line x1="0" y1="133.0" x2="297" y2="133.0" stroke="#b0d8b0" stroke-width="0.0625"/>
    <line x1="0" y1="134.0" x2="297" y2="134.0" stroke="#b0d8b0" stroke-width="0.0625"/>
    <line x1="0" y1="135.0" x2="297" y2="135.0" stroke="#b0d8b0" stroke-width="0.0625"/>
    <line x1="0" y1="136.0" x2="297" y2="136.0" stroke="#b0d8b0" stroke-width="0.0625"/>
    <line x1="0" y1="137.0" x2="297" y2="137.0" stroke="#b0d8b0" stroke-width="0.0625"/>
    <line x1="0" y1="138.0" x2="297" y2="138.0" stroke="#b0d8b0" stroke-width="0.0625"/>
    <line x1="0" y1="139.0" x2="297" y2="139.0" stroke="#b0d8b0" stroke-width="0.0625"/>
    <line x1="0" y1="141.0" x2="297" y2="141.0" stroke="#b0d8b0" stroke-width="0.0625"/>
    <line x1="0" y1="142.0" x2="297" y2="142.0" stroke="#b0d8b0" stroke-width="0.0625"/>
    <line x1="0" y1="143.0" x2="297" y2="143.0" stroke="#b0d8b0" stroke-width="0.0625"/>
    <line x1="0" y1="144.0" x2="297" y2="144.0" stroke="#b0d8b0" stroke-width="0.0625"/>
    <line x1="0" y1="145.0" x2="297" y2="145.0" stroke="#b0d8b0" stroke-width="0.0625"/>
    <line x1="0" y1="146.0" x2="297" y2="146.0" stroke="#b0d8b0" stroke-width="0.0625"/>
    <line x1="0" y1="147.0" x2="297" y2="147.0" stroke="#b0d8b0" stroke-width="0.0625"/>
    <line x1="0" y1="148.0" x2="297" y2="148.0" stroke="#b0d8b0" stroke-width="0.0625"/>
    <line x1="0" y1="149.0" x2="297" y2="149.0" stroke="#b0d8b0" stroke-width="0.0625"/>
    <line x1="0" y1="151.0" x2="297" y2="151.0" stroke="#b0d8b0" stroke-width="0.0625"/>
    <line x1="0" y1="152.0" x2="297" y2="152.0" stroke="#b0d8b0" stroke-width="0.0625"/>
    <line x1="0" y1="153.0" x2="297" y2="153.0" stroke="#b0d8b0" stroke-width="0.0625"/>
    <line x1="0" y1="154.0" x2="297" y2="154.0" stroke="#b0d8b0" stroke-width="0.0625"/>
    <line x1="0" y1="155.0" x2="297" y2="155.0" stroke="#b0d8b0" stroke-width="0.0625"/>
    <line x1="0" y1="156.0" x2="297" y2="156.0" stroke="#b0d8b0" stroke-width="0.0625"/>
    <line x1="0" y1="157.0" x2="297" y2="157.0" stroke="#b0d8b0" stroke-width="0.0625"/>
    <line x1="0" y1="158.0" x2="297" y2="158.0" stroke="#b0d8b0" stroke-width="0.0625"/>
    <line x1="0" y1="159.0" x2="297" y2="159.0" stroke="#b0d8b0" stroke-width="0.0625"/>
    <line x1="0" y1="161.0" x2="297" y2="161.0" stroke="#b0d8b0" stroke-width="0.0625"/>
    <line x1="0" y1="162.0" x2="297" y2="162.0" stroke="#b0d8b0" stroke-width="0.0625"/>
    <line x1="0" y1="163.0" x2="297" y2="163.0" stroke="#b0d8b0" stroke-width="0.0625"/>
    <line x1="0" y1="164.0" x2="297" y2="164.0" stroke="#b0d8b0" stroke-width="0.0625"/>
    <line x1="0" y1="165.0" x2="297" y2="165.0" stroke="#b0d8b0" stroke-width="0.0625"/>
    <line x1="0" y1="166.0" x2="297" y2="166.0" stroke="#b0d8b0" stroke-width="0.0625"/>
    <line x1="0" y1="167.0" x2="297" y2="167.0" stroke="#b0d8b0" stroke-width="0.0625"/>
    <line x1="0" y1="168.0" x2="297" y2="168.0" stroke="#b0d8b0" stroke-width="0.0625"/>
    <line x1="0" y1="169.0" x2="297" y2="169.0" stroke="#b0d8b0" stroke-width="0.0625"/>
    <line x1="0" y1="171.0" x2="297" y2="171.0" stroke="#b0d8b0" stroke-width="0.0625"/>
    <line x1="0" y1="172.0" x2="297" y2="172.0" stroke="#b0d8b0" stroke-width="0.0625"/>
    <line x1="0" y1="173.0" x2="297" y2="173.0" stroke="#b0d8b0" stroke-width="0.0625"/>
    <line x1="0" y1="174.0" x2="297" y2="174.0" stroke="#b0d8b0" stroke-width="0.0625"/>
    <line x1="0" y1="175.0" x2="297" y2="175.0" stroke="#b0d8b0" stroke-width="0.0625"/>
    <line x1="0" y1="176.0" x2="297" y2="176.0" stroke="#b0d8b0" stroke-width="0.0625"/>
    <line x1="0" y1="177.0" x2="297" y2="177.0" stroke="#b0d8b0" stroke-width="0.0625"/>
    <line x1="0" y1="178.0" x2="297" y2="178.0" stroke="#b0d8b0" stroke-width="0.0625"/>
    <line x1="0" y1="179.0" x2="297" y2="179.0" stroke="#b0d8b0" stroke-width="0.0625"/>
    <line x1="0" y1="181.0" x2="297" y2="181.0" stroke="#b0d8b0" stroke-width="0.0625"/>
    <line x1="0" y1="182.0" x2="297" y2="182.0" stroke="#b0d8b0" stroke-width="0.0625"/>
    <line x1="0" y1="183.0" x2="297" y2="183.0" stroke="#b0d8b0" stroke-width="0.0625"/>
    <line x1="0" y1="184.0" x2="297" y2="184.0" stroke="#b0d8b0" stroke-width="0.0625"/>
    <line x1="0" y1="185.0" x2="297" y2="185.0" stroke="#b0d8b0" stroke-width="0.0625"/>
    <line x1="0" y1="186.0" x2="297" y2="186.0" stroke="#b0d8b0" stroke-width="0.0625"/>
    <line x1="0" y1="187.0" x2="297" y2="187.0" stroke="#b0d8b0" stroke-width="0.0625"/>
    <line x1="0" y1="188.0" x2="297" y2="188.0" stroke="#b0d8b0" stroke-width="0.0625"/>
    <line x1="0" y1="189.0" x2="297" y2="189.0" stroke="#b0d8b0" stroke-width="0.0625"/>
    <line x1="0" y1="191.0" x2="297" y2="191.0" stroke="#b0d8b0" stroke-width="0.0625"/>
    <line x1="0" y1="192.0" x2="297" y2="192.0" stroke="#b0d8b0" stroke-width="0.0625"/>
    <line x1="0" y1="193.0" x2="297" y2="193.0" stroke="#b0d8b0" stroke-width="0.0625"/>
    <line x1="0" y1="194.0" x2="297" y2="194.0" stroke="#b0d8b0" stroke-width="0.0625"/>
    <line x1="0" y1="195.0" x2="297" y2="195.0" stroke="#b0d8b0" stroke-width="0.0625"/>
    <line x1="0" y1="196.0" x2="297" y2="196.0" stroke="#b0d8b0" stroke-width="0.0625"/>
    <line x1="0" y1="197.0" x2="297" y2="197.0" stroke="#b0d8b0" stroke-width="0.0625"/>
    <line x1="0" y1="198.0" x2="297" y2="198.0" stroke="#b0d8b0" stroke-width="0.0625"/>
    <line x1="0" y1="199.0" x2="297" y2="199.0" stroke="#b0d8b0" stroke-width="0.0625"/>
    <line x1="0" y1="201.0" x2="297" y2="201.0" stroke="#b0d8b0" stroke-width="0.0625"/>
    <line x1="0" y1="202.0" x2="297" y2="202.0" stroke="#b0d8b0" stroke-width="0.0625"/>
    <line x1="0" y1="203.0" x2="297" y2="203.0" stroke="#b0d8b0" stroke-width="0.0625"/>
    <line x1="0" y1="204.0" x2="297" y2="204.0" stroke="#b0d8b0" stroke-width="0.0625"/>
    <line x1="0" y1="205.0" x2="297" y2="205.0" stroke="#b0d8b0" stroke-width="0.0625"/>
    <line x1="0" y1="206.0" x2="297" y2="206.0" stroke="#b0d8b0" stroke-width="0.0625"/>
    <line x1="0" y1="207.0" x2="297" y2="207.0" stroke="#b0d8b0" stroke-width="0.0625"/>
    <line x1="0" y1="208.0" x2="297" y2="208.0" stroke="#b0d8b0" stroke-width="0.0625"/>
    <line x1="0" y1="209.0" x2="297" y2="209.0" stroke="#b0d8b0" stroke-width="0.0625"/>
    <line x1="0" y1="211.0" x2="297" y2="211.0" stroke="#b0d8b0" stroke-width="0.0625"/>
    <line x1="0" y1="212.0" x2="297" y2="212.0" stroke="#b0d8b0" stroke-width="0.0625"/>
    <line x1="0" y1="213.0" x2="297" y2="213.0" stroke="#b0d8b0" stroke-width="0.0625"/>
    <line x1="0" y1="214.0" x2="297" y2="214.0" stroke="#b0d8b0" stroke-width="0.0625"/>
    <line x1="0" y1="215.0" x2="297" y2="215.0" stroke="#b0d8b0" stroke-width="0.0625"/>
    <line x1="0" y1="216.0" x2="297" y2="216.0" stroke="#b0d8b0" stroke-width="0.0625"/>
    <line x1="0" y1="217.0" x2="297" y2="217.0" stroke="#b0d8b0" stroke-width="0.0625"/>
    <line x1="0" y1="218.0" x2="297" y2="218.0" stroke="#b0d8b0" stroke-width="0.0625"/>
    <line x1="0" y1="219.0" x2="297" y2="219.0" stroke="#b0d8b0" stroke-width="0.0625"/>
    <line x1="0" y1="221.0" x2="297" y2="221.0" stroke="#b0d8b0" stroke-width="0.0625"/>
    <line x1="0" y1="222.0" x2="297" y2="222.0" stroke="#b0d8b0" stroke-width="0.0625"/>
    <line x1="0" y1="223.0" x2="297" y2="223.0" stroke="#b0d8b0" stroke-width="0.0625"/>
    <line x1="0" y1="224.0" x2="297" y2="224.0" stroke="#b0d8b0" stroke-width="0.0625"/>
    <line x1="0" y1="225.0" x2="297" y2="225.0" stroke="#b0d8b0" stroke-width="0.0625"/>
    <line x1="0" y1="226.0" x2="297" y2="226.0" stroke="#b0d8b0" stroke-width="0.0625"/>
    <line x1="0" y1="227.0" x2="297" y2="227.0" stroke="#b0d8b0" stroke-width="0.0625"/>
    <line x1="0" y1="228.0" x2="297" y2="228.0" stroke="#b0d8b0" stroke-width="0.0625"/>
    <line x1="0" y1="229.0" x2="297" y2="229.0" stroke="#b0d8b0" stroke-width="0.0625"/>
    <line x1="0" y1="231.0" x2="297" y2="231.0" stroke="#b0d8b0" stroke-width="0.0625"/>
    <line x1="0" y1="232.0" x2="297" y2="232.0" stroke="#b0d8b0" stroke-width="0.0625"/>
    <line x1="0" y1="233.0" x2="297" y2="233.0" stroke="#b0d8b0" stroke-width="0.0625"/>
    <line x1="0" y1="234.0" x2="297" y2="234.0" stroke="#b0d8b0" stroke-width="0.0625"/>
    <line x1="0" y1="235.0" x2="297" y2="235.0" stroke="#b0d8b0" stroke-width="0.0625"/>
    <line x1="0" y1="236.0" x2="297" y2="236.0" stroke="#b0d8b0" stroke-width="0.0625"/>
    <line x1="0" y1="237.0" x2="297" y2="237.0" stroke="#b0d8b0" stroke-width="0.0625"/>
    <line x1="0" y1="238.0" x2="297" y2="238.0" stroke="#b0d8b0" stroke-width="0.0625"/>
    <line x1="0" y1="239.0" x2="297" y2="239.0" stroke="#b0d8b0" stroke-width="0.0625"/>
    <line x1="0" y1="241.0" x2="297" y2="241.0" stroke="#b0d8b0" stroke-width="0.0625"/>
    <line x1="0" y1="242.0" x2="297" y2="242.0" stroke="#b0d8b0" stroke-width="0.0625"/>
    <line x1="0" y1="243.0" x2="297" y2="243.0" stroke="#b0d8b0" stroke-width="0.0625"/>
    <line x1="0" y1="244.0" x2="297" y2="244.0" stroke="#b0d8b0" stroke-width="0.0625"/>
    <line x1="0" y1="245.0" x2="297" y2="245.0" stroke="#b0d8b0" stroke-width="0.0625"/>
    <line x1="0" y1="246.0" x2="297" y2="246.0" stroke="#b0d8b0" stroke-width="0.0625"/>
    <line x1="0" y1="247.0" x2="297" y2="247.0" stroke="#b0d8b0" stroke-width="0.0625"/>
    <line x1="0" y1="248.0" x2="297" y2="248.0" stroke="#b0d8b0" stroke-width="0.0625"/>
    <line x1="0" y1="249.0" x2="297" y2="249.0" stroke="#b0d8b0" stroke-width="0.0625"/>
    <line x1="0" y1="251.0" x2="297" y2="251.0" stroke="#b0d8b0" stroke-width="0.0625"/>
    <line x1="0" y1="252.0" x2="297" y2="252.0" stroke="#b0d8b0" stroke-width="0.0625"/>
    <line x1="0" y1="253.0" x2="297" y2="253.0" stroke="#b0d8b0" stroke-width="0.0625"/>
    <line x1="0" y1="254.0" x2="297" y2="254.0" stroke="#b0d8b0" stroke-width="0.0625"/>
    <line x1="0" y1="255.0" x2="297" y2="255.0" stroke="#b0d8b0" stroke-width="0.0625"/>
    <line x1="0" y1="256.0" x2="297" y2="256.0" stroke="#b0d8b0" stroke-width="0.0625"/>
    <line x1="0" y1="257.0" x2="297" y2="257.0" stroke="#b0d8b0" stroke-width="0.0625"/>
    <line x1="0" y1="258.0" x2="297" y2="258.0" stroke="#b0d8b0" stroke-width="0.0625"/>
    <line x1="0" y1="259.0" x2="297" y2="259.0" stroke="#b0d8b0" stroke-width="0.0625"/>
    <line x1="0" y1="261.0" x2="297" y2="261.0" stroke="#b0d8b0" stroke-width="0.0625"/>
    <line x1="0" y1="262.0" x2="297" y2="262.0" stroke="#b0d8b0" stroke-width="0.0625"/>
    <line x1="0" y1="263.0" x2="297" y2="263.0" stroke="#b0d8b0" stroke-width="0.0625"/>
    <line x1="0" y1="264.0" x2="297" y2="264.0" stroke="#b0d8b0" stroke-width="0.0625"/>
    <line x1="0" y1="265.0" x2="297" y2="265.0" stroke="#b0d8b0" stroke-width="0.0625"/>
    <line x1="0" y1="266.0" x2="297" y2="266.0" stroke="#b0d8b0" stroke-width="0.0625"/>
    <line x1="0" y1="267.0" x2="297" y2="267.0" stroke="#b0d8b0" stroke-width="0.0625"/>
    <line x1="0" y1="268.0" x2="297" y2="268.0" stroke="#b0d8b0" stroke-width="0.0625"/>
    <line x1="0" y1="269.0" x2="297" y2="269.0" stroke="#b0d8b0" stroke-width="0.0625"/>
    <line x1="0" y1="271.0" x2="297" y2="271.0" stroke="#b0d8b0" stroke-width="0.0625"/>
    <line x1="0" y1="272.0" x2="297" y2="272.0" stroke="#b0d8b0" stroke-width="0.0625"/>
    <line x1="0" y1="273.0" x2="297" y2="273.0" stroke="#b0d8b0" stroke-width="0.0625"/>
    <line x1="0" y1="274.0" x2="297" y2="274.0" stroke="#b0d8b0" stroke-width="0.0625"/>
    <line x1="0" y1="275.0" x2="297" y2="275.0" stroke="#b0d8b0" stroke-width="0.0625"/>
    <line x1="0" y1="276.0" x2="297" y2="276.0" stroke="#b0d8b0" stroke-width="0.0625"/>
    <line x1="0" y1="277.0" x2="297" y2="277.0" stroke="#b0d8b0" stroke-width="0.0625"/>
    <line x1="0" y1="278.0" x2="297" y2="278.0" stroke="#b0d8b0" stroke-width="0.0625"/>
    <line x1="0" y1="279.0" x2="297" y2="279.0" stroke="#b0d8b0" stroke-width="0.0625"/>
    <line x1="0" y1="281.0" x2="297" y2="281.0" stroke="#b0d8b0" stroke-width="0.0625"/>
    <line x1="0" y1="282.0" x2="297" y2="282.0" stroke="#b0d8b0" stroke-width="0.0625"/>
    <line x1="0" y1="283.0" x2="297" y2="283.0" stroke="#b0d8b0" stroke-width="0.0625"/>
    <line x1="0" y1="284.0" x2="297" y2="284.0" stroke="#b0d8b0" stroke-width="0.0625"/>
    <line x1="0" y1="285.0" x2="297" y2="285.0" stroke="#b0d8b0" stroke-width="0.0625"/>
    <line x1="0" y1="286.0" x2="297" y2="286.0" stroke="#b0d8b0" stroke-width="0.0625"/>
    <line x1="0" y1="287.0" x2="297" y2="287.0" stroke="#b0d8b0" stroke-width="0.0625"/>
    <line x1="0" y1="288.0" x2="297" y2="288.0" stroke="#b0d8b0" stroke-width="0.0625"/>
    <line x1="0" y1="289.0" x2="297" y2="289.0" stroke="#b0d8b0" stroke-width="0.0625"/>
    <line x1="0" y1="291.0" x2="297" y2="291.0" stroke="#b0d8b0" stroke-width="0.0625"/>
    <line x1="0" y1="292.0" x2="297" y2="292.0" stroke="#b0d8b0" stroke-width="0.0625"/>
    <line x1="0" y1="293.0" x2="297" y2="293.0" stroke="#b0d8b0" stroke-width="0.0625"/>
    <line x1="0" y1="294.0" x2="297" y2="294.0" stroke="#b0d8b0" stroke-width="0.0625"/>
    <line x1="0" y1="295.0" x2="297" y2="295.0" stroke="#b0d8b0" stroke-width="0.0625"/>
    <line x1="0" y1="296.0" x2="297" y2="296.0" stroke="#b0d8b0" stroke-width="0.0625"/>
    <line x1="0" y1="297.0" x2="297" y2="297.0" stroke="#b0d8b0" stroke-width="0.0625"/>
    <line x1="0" y1="298.0" x2="297" y2="298.0" stroke="#b0d8b0" stroke-width="0.0625"/>
    <line x1="0" y1="299.0" x2="297" y2="299.0" stroke="#b0d8b0" stroke-width="0.0625"/>
    <line x1="0" y1="301.0" x2="297" y2="301.0" stroke="#b0d8b0" stroke-width="0.0625"/>
    <line x1="0" y1="302.0" x2="297" y2="302.0" stroke="#b0d8b0" stroke-width="0.0625"/>
    <line x1="0" y1="303.0" x2="297" y2="303.0" stroke="#b0d8b0" stroke-width="0.0625"/>
    <line x1="0" y1="304.0" x2="297" y2="304.0" stroke="#b0d8b0" stroke-width="0.0625"/>
    <line x1="0" y1="305.0" x2="297" y2="305.0" stroke="#b0d8b0" stroke-width="0.0625"/>
    <line x1="0" y1="306.0" x2="297" y2="306.0" stroke="#b0d8b0" stroke-width="0.0625"/>
    <line x1="0" y1="307.0" x2="297" y2="307.0" stroke="#b0d8b0" stroke-width="0.0625"/>
    <line x1="0" y1="308.0" x2="297" y2="308.0" stroke="#b0d8b0" stroke-width="0.0625"/>
    <line x1="0" y1="309.0" x2="297" y2="309.0" stroke="#b0d8b0" stroke-width="0.0625"/>
    <line x1="0" y1="311.0" x2="297" y2="311.0" stroke="#b0d8b0" stroke-width="0.0625"/>
    <line x1="0" y1="312.0" x2="297" y2="312.0" stroke="#b0d8b0" stroke-width="0.0625"/>
    <line x1="0" y1="313.0" x2="297" y2="313.0" stroke="#b0d8b0" stroke-width="0.0625"/>
    <line x1="0" y1="314.0" x2="297" y2="314.0" stroke="#b0d8b0" stroke-width="0.0625"/>
    <line x1="0" y1="315.0" x2="297" y2="315.0" stroke="#b0d8b0" stroke-width="0.0625"/>
    <line x1="0" y1="316.0" x2="297" y2="316.0" stroke="#b0d8b0" stroke-width="0.0625"/>
    <line x1="0" y1="317.0" x2="297" y2="317.0" stroke="#b0d8b0" stroke-width="0.0625"/>
    <line x1="0" y1="318.0" x2="297" y2="318.0" stroke="#b0d8b0" stroke-width="0.0625"/>
    <line x1="0" y1="319.0" x2="297" y2="319.0" stroke="#b0d8b0" stroke-width="0.0625"/>
    <line x1="0" y1="321.0" x2="297" y2="321.0" stroke="#b0d8b0" stroke-width="0.0625"/>
    <line x1="0" y1="322.0" x2="297" y2="322.0" stroke="#b0d8b0" stroke-width="0.0625"/>
    <line x1="0" y1="323.0" x2="297" y2="323.0" stroke="#b0d8b0" stroke-width="0.0625"/>
    <line x1="0" y1="324.0" x2="297" y2="324.0" stroke="#b0d8b0" stroke-width="0.0625"/>
    <line x1="0" y1="325.0" x2="297" y2="325.0" stroke="#b0d8b0" stroke-width="0.0625"/>
    <line x1="0" y1="326.0" x2="297" y2="326.0" stroke="#b0d8b0" stroke-width="0.0625"/>
    <line x1="0" y1="327.0" x2="297" y2="327.0" stroke="#b0d8b0" stroke-width="0.0625"/>
    <line x1="0" y1="328.0" x2="297" y2="328.0" stroke="#b0d8b0" stroke-width="0.0625"/>
    <line x1="0" y1="329.0" x2="297" y2="329.0" stroke="#b0d8b0" stroke-width="0.0625"/>
    <line x1="0" y1="331.0" x2="297" y2="331.0" stroke="#b0d8b0" stroke-width="0.0625"/>
    <line x1="0" y1="332.0" x2="297" y2="332.0" stroke="#b0d8b0" stroke-width="0.0625"/>
    <line x1="0" y1="333.0" x2="297" y2="333.0" stroke="#b0d8b0" stroke-width="0.0625"/>
    <line x1="0" y1="334.0" x2="297" y2="334.0" stroke="#b0d8b0" stroke-width="0.0625"/>
    <line x1="0" y1="335.0" x2="297" y2="335.0" stroke="#b0d8b0" stroke-width="0.0625"/>
    <line x1="0" y1="336.0" x2="297" y2="336.0" stroke="#b0d8b0" stroke-width="0.0625"/>
    <line x1="0" y1="337.0" x2="297" y2="337.0" stroke="#b0d8b0" stroke-width="0.0625"/>
    <line x1="0" y1="338.0" x2="297" y2="338.0" stroke="#b0d8b0" stroke-width="0.0625"/>
    <line x1="0" y1="339.0" x2="297" y2="339.0" stroke="#b0d8b0" stroke-width="0.0625"/>
    <line x1="0" y1="341.0" x2="297" y2="341.0" stroke="#b0d8b0" stroke-width="0.0625"/>
    <line x1="0" y1="342.0" x2="297" y2="342.0" stroke="#b0d8b0" stroke-width="0.0625"/>
    <line x1="0" y1="343.0" x2="297" y2="343.0" stroke="#b0d8b0" stroke-width="0.0625"/>
    <line x1="0" y1="344.0" x2="297" y2="344.0" stroke="#b0d8b0" stroke-width="0.0625"/>
    <line x1="0" y1="345.0" x2="297" y2="345.0" stroke="#b0d8b0" stroke-width="0.0625"/>
    <line x1="0" y1="346.0" x2="297" y2="346.0" stroke="#b0d8b0" stroke-width="0.0625"/>
    <line x1="0" y1="347.0" x2="297" y2="347.0" stroke="#b0d8b0" stroke-width="0.0625"/>
    <line x1="0" y1="348.0" x2="297" y2="348.0" stroke="#b0d8b0" stroke-width="0.0625"/>
    <line x1="0" y1="349.0" x2="297" y2="349.0" stroke="#b0d8b0" stroke-width="0.0625"/>
    <line x1="0" y1="351.0" x2="297" y2="351.0" stroke="#b0d8b0" stroke-width="0.0625"/>
    <line x1="0" y1="352.0" x2="297" y2="352.0" stroke="#b0d8b0" stroke-width="0.0625"/>
    <line x1="0" y1="353.0" x2="297" y2="353.0" stroke="#b0d8b0" stroke-width="0.0625"/>
    <line x1="0" y1="354.0" x2="297" y2="354.0" stroke="#b0d8b0" stroke-width="0.0625"/>
    <line x1="0" y1="355.0" x2="297" y2="355.0" stroke="#b0d8b0" stroke-width="0.0625"/>
    <line x1="0" y1="356.0" x2="297" y2="356.0" stroke="#b0d8b0" stroke-width="0.0625"/>
    <line x1="0" y1="357.0" x2="297" y2="357.0" stroke="#b0d8b0" stroke-width="0.0625"/>
    <line x1="0" y1="358.0" x2="297" y2="358.0" stroke="#b0d8b0" stroke-width="0.0625"/>
    <line x1="0" y1="359.0" x2="297" y2="359.0" stroke="#b0d8b0" stroke-width="0.0625"/>
    <line x1="0" y1="361.0" x2="297" y2="361.0" stroke="#b0d8b0" stroke-width="0.0625"/>
    <line x1="0" y1="362.0" x2="297" y2="362.0" stroke="#b0d8b0" stroke-width="0.0625"/>
    <line x1="0" y1="363.0" x2="297" y2="363.0" stroke="#b0d8b0" stroke-width="0.0625"/>
    <line x1="0" y1="364.0" x2="297" y2="364.0" stroke="#b0d8b0" stroke-width="0.0625"/>
    <line x1="0" y1="365.0" x2="297" y2="365.0" stroke="#b0d8b0" stroke-width="0.0625"/>
    <line x1="0" y1="366.0" x2="297" y2="366.0" stroke="#b0d8b0" stroke-width="0.0625"/>
    <line x1="0" y1="367.0" x2="297" y2="367.0" stroke="#b0d8b0" stroke-width="0.0625"/>
    <line x1="0" y1="368.0" x2="297" y2="368.0" stroke="#b0d8b0" stroke-width="0.0625"/>
    <line x1="0" y1="369.0" x2="297" y2="369.0" stroke="#b0d8b0" stroke-width="0.0625"/>
    <line x1="0" y1="371.0" x2="297" y2="371.0" stroke="#b0d8b0" stroke-width="0.0625"/>
    <line x1="0" y1="372.0" x2="297" y2="372.0" stroke="#b0d8b0" stroke-width="0.0625"/>
    <line x1="0" y1="373.0" x2="297" y2="373.0" stroke="#b0d8b0" stroke-width="0.0625"/>
    <line x1="0" y1="374.0" x2="297" y2="374.0" stroke="#b0d8b0" stroke-width="0.0625"/>
    <line x1="0" y1="375.0" x2="297" y2="375.0" stroke="#b0d8b0" stroke-width="0.0625"/>
    <line x1="0" y1="376.0" x2="297" y2="376.0" stroke="#b0d8b0" stroke-width="0.0625"/>
    <line x1="0" y1="377.0" x2="297" y2="377.0" stroke="#b0d8b0" stroke-width="0.0625"/>
    <line x1="0" y1="378.0" x2="297" y2="378.0" stroke="#b0d8b0" stroke-width="0.0625"/>
    <line x1="0" y1="379.0" x2="297" y2="379.0" stroke="#b0d8b0" stroke-width="0.0625"/>
    <line x1="0" y1="381.0" x2="297" y2="381.0" stroke="#b0d8b0" stroke-width="0.0625"/>
    <line x1="0" y1="382.0" x2="297" y2="382.0" stroke="#b0d8b0" stroke-width="0.0625"/>
    <line x1="0" y1="383.0" x2="297" y2="383.0" stroke="#b0d8b0" stroke-width="0.0625"/>
    <line x1="0" y1="384.0" x2="297" y2="384.0" stroke="#b0d8b0" stroke-width="0.0625"/>
    <line x1="0" y1="385.0" x2="297" y2="385.0" stroke="#b0d8b0" stroke-width="0.0625"/>
    <line x1="0" y1="386.0" x2="297" y2="386.0" stroke="#b0d8b0" stroke-width="0.0625"/>
    <line x1="0" y1="387.0" x2="297" y2="387.0" stroke="#b0d8b0" stroke-width="0.0625"/>
    <line x1="0" y1="388.0" x2="297" y2="388.0" stroke="#b0d8b0" stroke-width="0.0625"/>
    <line x1="0" y1="389.0" x2="297" y2="389.0" stroke="#b0d8b0" stroke-width="0.0625"/>
    <line x1="0" y1="391.0" x2="297" y2="391.0" stroke="#b0d8b0" stroke-width="0.0625"/>
    <line x1="0" y1="392.0" x2="297" y2="392.0" stroke="#b0d8b0" stroke-width="0.0625"/>
    <line x1="0" y1="393.0" x2="297" y2="393.0" stroke="#b0d8b0" stroke-width="0.0625"/>
    <line x1="0" y1="394.0" x2="297" y2="394.0" stroke="#b0d8b0" stroke-width="0.0625"/>
    <line x1="0" y1="395.0" x2="297" y2="395.0" stroke="#b0d8b0" stroke-width="0.0625"/>
    <line x1="0" y1="396.0" x2="297" y2="396.0" stroke="#b0d8b0" stroke-width="0.0625"/>
    <line x1="0" y1="397.0" x2="297" y2="397.0" stroke="#b0d8b0" stroke-width="0.0625"/>
    <line x1="0" y1="398.0" x2="297" y2="398.0" stroke="#b0d8b0" stroke-width="0.0625"/>
    <line x1="0" y1="399.0" x2="297" y2="399.0" stroke="#b0d8b0" stroke-width="0.0625"/>
    <line x1="0" y1="401.0" x2="297" y2="401.0" stroke="#b0d8b0" stroke-width="0.0625"/>
    <line x1="0" y1="402.0" x2="297" y2="402.0" stroke="#b0d8b0" stroke-width="0.0625"/>
    <line x1="0" y1="403.0" x2="297" y2="403.0" stroke="#b0d8b0" stroke-width="0.0625"/>
    <line x1="0" y1="404.0" x2="297" y2="404.0" stroke="#b0d8b0" stroke-width="0.0625"/>
    <line x1="0" y1="405.0" x2="297" y2="405.0" stroke="#b0d8b0" stroke-width="0.0625"/>
    <line x1="0" y1="406.0" x2="297" y2="406.0" stroke="#b0d8b0" stroke-width="0.0625"/>
    <line x1="0" y1="407.0" x2="297" y2="407.0" stroke="#b0d8b0" stroke-width="0.0625"/>
    <line x1="0" y1="408.0" x2="297" y2="408.0" stroke="#b0d8b0" stroke-width="0.0625"/>
    <line x1="0" y1="409.0" x2="297" y2="409.0" stroke="#b0d8b0" stroke-width="0.0625"/>
    <line x1="0" y1="411.0" x2="297" y2="411.0" stroke="#b0d8b0" stroke-width="0.0625"/>
    <line x1="0" y1="412.0" x2="297" y2="412.0" stroke="#b0d8b0" stroke-width="0.0625"/>
    <line x1="0" y1="413.0" x2="297" y2="413.0" stroke="#b0d8b0" stroke-width="0.0625"/>
    <line x1="0" y1="414.0" x2="297" y2="414.0" stroke="#b0d8b0" stroke-width="0.0625"/>
    <line x1="0" y1="415.0" x2="297" y2="415.0" stroke="#b0d8b0" stroke-width="0.0625"/>
    <line x1="0" y1="416.0" x2="297" y2="416.0" stroke="#b0d8b0" stroke-width="0.0625"/>
    <line x1="0" y1="417.0" x2="297" y2="417.0" stroke="#b0d8b0" stroke-width="0.0625"/>
    <line x1="0" y1="418.0" x2="297" y2="418.0" stroke="#b0d8b0" stroke-width="0.0625"/>
    <line x1="0" y1="419.0" x2="297" y2="419.0" stroke="#b0d8b0" stroke-width="0.0625"/>
    <line x1="0" y1="0" x2="0" y2="420" stroke="#70b070" stroke-width="0.125"/>
    <line x1="10.0" y1="0" x2="10.0" y2="420" stroke="#70b070" stroke-width="0.125"/>
    <line x1="20.0" y1="0" x2="20.0" y2="420" stroke="#70b070" stroke-width="0.125"/>
    <line x1="30.0" y1="0" x2="30.0" y2="420" stroke="#70b070" stroke-width="0.125"/>
    <line x1="40.0" y1="0" x2="40.0" y2="420" stroke="#70b070" stroke-width="0.125"/>
    <line x1="50.0" y1="0" x2="50.0" y2="420" stroke="#70b070" stroke-width="0.125"/>
    <line x1="60.0" y1="0" x2="60.0" y2="420" stroke="#70b070" stroke-width="0.125"/>
    <line x1="70.0" y1="0" x2="70.0" y2="420" stroke="#70b070" stroke-width="0.125"/>
    <line x1="80.0" y1="0" x2="80.0" y2="420" stroke="#70b070" stroke-width="0.125"/>
    <line x1="90.0" y1="0" x2="90.0" y2="420" stroke="#70b070" stroke-width="0.125"/>
    <line x1="100.0" y1="0" x2="100.0" y2="420" stroke="#70b070" stroke-width="0.125"/>
    <line x1="110.0" y1="0" x2="110.0" y2="420" stroke="#70b070" stroke-width="0.125"/>
    <line x1="120.0" y1="0" x2="120.0" y2="420" stroke="#70b070" stroke-width="0.125"/>
    <line x1="130.0" y1="0" x2="130.0" y2="420" stroke="#70b070" stroke-width="0.125"/>
    <line x1="140.0" y1="0" x2="140.0" y2="420" stroke="#70b070" stroke-width="0.125"/>
    <line x1="150.0" y1="0" x2="150.0" y2="420" stroke="#70b070" stroke-width="0.125"/>
    <line x1="160.0" y1="0" x2="160.0" y2="420" stroke="#70b070" stroke-width="0.125"/>
    <line x1="170.0" y1="0" x2="170.0" y2="420" stroke="#70b070" stroke-width="0.125"/>
    <line x1="180.0" y1="0" x2="180.0" y2="420" stroke="#70b070" stroke-width="0.125"/>
    <line x1="190.0" y1="0" x2="190.0" y2="420" stroke="#70b070" stroke-width="0.125"/>
    <line x1="200.0" y1="0" x2="200.0" y2="420" stroke="#70b070" stroke-width="0.125"/>
    <line x1="210.0" y1="0" x2="210.0" y2="420" stroke="#70b070" stroke-width="0.125"/>
    <line x1="220.0" y1="0" x2="220.0" y2="420" stroke="#70b070" stroke-width="0.125"/>
    <line x1="230.0" y1="0" x2="230.0" y2="420" stroke="#70b070" stroke-width="0.125"/>
    <line x1="240.0" y1="0" x2="240.0" y2="420" stroke="#70b070" stroke-width="0.125"/>
    <line x1="250.0" y1="0" x2="250.0" y2="420" stroke="#70b070" stroke-width="0.125"/>
    <line x1="260.0" y1="0" x2="260.0" y2="420" stroke="#70b070" stroke-width="0.125"/>
    <line x1="270.0" y1="0" x2="270.0" y2="420" stroke="#70b070" stroke-width="0.125"/>
    <line x1="280.0" y1="0" x2="280.0" y2="420" stroke="#70b070" stroke-width="0.125"/>
    <line x1="290.0" y1="0" x2="290.0" y2="420" stroke="#70b070" stroke-width="0.125"/>
    <line x1="0" y1="0" x2="297" y2="0" stroke="#70b070" stroke-width="0.125"/>
    <line x1="0" y1="10.0" x2="297" y2="10.0" stroke="#70b070" stroke-width="0.125"/>
    <line x1="0" y1="20.0" x2="297" y2="20.0" stroke="#70b070" stroke-width="0.125"/>
    <line x1="0" y1="30.0" x2="297" y2="30.0" stroke="#70b070" stroke-width="0.125"/>
    <line x1="0" y1="40.0" x2="297" y2="40.0" stroke="#70b070" stroke-width="0.125"/>
    <line x1="0" y1="50.0" x2="297" y2="50.0" stroke="#70b070" stroke-width="0.125"/>
    <line x1="0" y1="60.0" x2="297" y2="60.0" stroke="#70b070" stroke-width="0.125"/>
    <line x1="0" y1="70.0" x2="297" y2="70.0" stroke="#70b070" stroke-width="0.125"/>
    <line x1="0" y1="80.0" x2="297" y2="80.0" stroke="#70b070" stroke-width="0.125"/>
    <line x1="0" y1="90.0" x2="297" y2="90.0" stroke="#70b070" stroke-width="0.125"/>
    <line x1="0" y1="100.0" x2="297" y2="100.0" stroke="#70b070" stroke-width="0.125"/>
    <line x1="0" y1="110.0" x2="297" y2="110.0" stroke="#70b070" stroke-width="0.125"/>
    <line x1="0" y1="120.0" x2="297" y2="120.0" stroke="#70b070" stroke-width="0.125"/>
    <line x1="0" y1="130.0" x2="297" y2="130.0" stroke="#70b070" stroke-width="0.125"/>
    <line x1="0" y1="140.0" x2="297" y2="140.0" stroke="#70b070" stroke-width="0.125"/>
    <line x1="0" y1="150.0" x2="297" y2="150.0" stroke="#70b070" stroke-width="0.125"/>
    <line x1="0" y1="160.0" x2="297" y2="160.0" stroke="#70b070" stroke-width="0.125"/>
    <line x1="0" y1="170.0" x2="297" y2="170.0" stroke="#70b070" stroke-width="0.125"/>
    <line x1="0" y1="180.0" x2="297" y2="180.0" stroke="#70b070" stroke-width="0.125"/>
    <line x1="0" y1="190.0" x2="297" y2="190.0" stroke="#70b070" stroke-width="0.125"/>
    <line x1="0" y1="200.0" x2="297" y2="200.0" stroke="#70b070" stroke-width="0.125"/>
    <line x1="0" y1="210.0" x2="297" y2="210.0" stroke="#70b070" stroke-width="0.125"/>
    <line x1="0" y1="220.0" x2="297" y2="220.0" stroke="#70b070" stroke-width="0.125"/>
    <line x1="0" y1="230.0" x2="297" y2="230.0" stroke="#70b070" stroke-width="0.125"/>
    <line x1="0" y1="240.0" x2="297" y2="240.0" stroke="#70b070" stroke-width="0.125"/>
    <line x1="0" y1="250.0" x2="297" y2="250.0" stroke="#70b070" stroke-width="0.125"/>
    <line x1="0" y1="260.0" x2="297" y2="260.0" stroke="#70b070" stroke-width="0.125"/>
    <line x1="0" y1="270.0" x2="297" y2="270.0" stroke="#70b070" stroke-width="0.125"/>
    <line x1="0" y1="280.0" x2="297" y2="280.0" stroke="#70b070" stroke-width="0.125"/>
    <line x1="0" y1="290.0" x2="297" y2="290.0" stroke="#70b070" stroke-width="0.125"/>
    <line x1="0" y1="300.0" x2="297" y2="300.0" stroke="#70b070" stroke-width="0.125"/>
    <line x1="0" y1="310.0" x2="297" y2="310.0" stroke="#70b070" stroke-width="0.125"/>
    <line x1="0" y1="320.0" x2="297" y2="320.0" stroke="#70b070" stroke-width="0.125"/>
    <line x1="0" y1="330.0" x2="297" y2="330.0" stroke="#70b070" stroke-width="0.125"/>
    <line x1="0" y1="340.0" x2="297" y2="340.0" stroke="#70b070" stroke-width="0.125"/>
    <line x1="0" y1="350.0" x2="297" y2="350.0" stroke="#70b070" stroke-width="0.125"/>
    <line x1="0" y1="360.0" x2="297" y2="360.0" stroke="#70b070" stroke-width="0.125"/>
    <line x1="0" y1="370.0" x2="297" y2="370.0" stroke="#70b070" stroke-width="0.125"/>
    <line x1="0" y1="380.0" x2="297" y2="380.0" stroke="#70b070" stroke-width="0.125"/>
    <line x1="0" y1="390.0" x2="297" y2="390.0" stroke="#70b070" stroke-width="0.125"/>
    <line x1="0" y1="400.0" x2="297" y2="400.0" stroke="#70b070" stroke-width="0.125"/>
    <line x1="0" y1="410.0" x2="297" y2="410.0" stroke="#70b070" stroke-width="0.125"/>
    <line x1="0" y1="420.0" x2="297" y2="420.0" stroke="#70b070" stroke-width="0.125"/>

    <!-- Quadrant dividers -->
    <line x1="148.5" y1="0" x2="148.5" y2="420" stroke="#cccccc" stroke-width="0.5"/>
    <line x1="0" y1="210.0" x2="297" y2="210.0" stroke="#cccccc" stroke-width="0.5"/>

    <!-- UL view: XZ -->
    <g>
      <g stroke="#cc8844" stroke-opacity="0.4" stroke-dasharray="2,2" stroke-width="0.8968965517241378" fill="none">
        <path d="M10.7198,212.0000 L9.7437,212.0000 L8.7795,212.0000 L7.8398,212.0000 L6.9364,212.0000 L6.0804,212.0000 L5.2831,212.0000 L4.5542,212.0000 L3.9024,212.0000 L3.3364,212.0000 L2.8635,212.0000 L2.4893,212.0000 L2.2187,212.0000 L2.0548,212.0000 L2.0000,212.0000 "/>
        <path d="M10.7198,219.4741 L9.7437,219.4741 L8.7795,219.4741 L7.8398,219.4741 L6.9364,219.4741 L6.0804,219.4741 L5.2831,219.4741 L4.5542,219.4741 L3.9024,219.4741 L3.3364,219.4741 L2.8635,219.4741 L2.4893,219.4741 L2.2187,219.4741 L2.0548,219.4741 L2.0000,219.4741 "/>
        <path d="M146.5000,212.0000 L146.4452,212.0000 L146.2813,212.0000 L146.0107,212.0000 L145.6365,212.0000 L145.1636,212.0000 L144.5976,212.0000 L143.9458,212.0000 L143.2169,212.0000 L142.4196,212.0000 L141.5636,212.0000 L140.6602,212.0000 L139.7205,212.0000 L138.7563,212.0000 L137.7802,212.0000 "/>
        <path d="M146.5000,219.4741 L146.4452,219.4741 L146.2813,219.4741 L146.0107,219.4741 L145.6365,219.4741 L145.1636,219.4741 L144.5976,219.4741 L143.9458,219.4741 L143.2169,219.4741 L142.4196,219.4741 L141.5636,219.4741 L140.6602,219.4741 L139.7205,219.4741 L138.7563,219.4741 L137.7802,219.4741 "/>
        <path d="M137.7802,212.0000 L10.7198,212.0000 "/>
        <path d="M141.5172,212.0000 L141.4236,212.0000 L141.1470,212.0000 L140.7021,212.0000 L140.1101,212.0000 L139.4016,212.0000 L138.6118,212.0000 L137.7802,212.0000 L136.9486,212.0000 L136.1588,212.0000 L135.4502,212.0000 L134.8583,212.0000 L134.4133,212.0000 L134.1368,212.0000 L134.0431,212.0000 "/>
        <path d="M134.0431,212.0000 L134.1368,212.0000 L134.4133,212.0000 L134.8583,212.0000 L135.4502,212.0000 L136.1588,212.0000 L136.9486,212.0000 L137.7802,212.0000 L138.6118,212.0000 L139.4016,212.0000 L140.1101,212.0000 L140.7021,212.0000 L141.1470,212.0000 L141.4236,212.0000 L141.5172,212.0000 "/>
        <path d="M14.4569,212.0000 L14.3632,212.0000 L14.0867,212.0000 L13.6417,212.0000 L13.0498,212.0000 L12.3412,212.0000 L11.5515,212.0000 L10.7198,212.0000 L9.8882,212.0000 L9.0984,212.0000 L8.3899,212.0000 L7.7979,212.0000 L7.3530,212.0000 L7.0764,212.0000 L6.9828,212.0000 "/>
        <path d="M6.9828,212.0000 L7.0764,212.0000 L7.3530,212.0000 L7.7979,212.0000 L8.3899,212.0000 L9.0984,212.0000 L9.8882,212.0000 L10.7198,212.0000 L11.5515,212.0000 L12.3412,212.0000 L13.0498,212.0000 L13.6417,212.0000 L14.0867,212.0000 L14.3632,212.0000 L14.4569,212.0000 "/>
        <path d="M137.7802,219.4741 L10.7198,219.4741 "/>
        <path d="M141.5172,219.4741 L141.4236,219.4741 L141.1470,219.4741 L140.7021,219.4741 L140.1101,219.4741 L139.4016,219.4741 L138.6118,219.4741 L137.7802,219.4741 L136.9486,219.4741 L136.1588,219.4741 L135.4502,219.4741 L134.8583,219.4741 L134.4133,219.4741 L134.1368,219.4741 L134.0431,219.4741 "/>
        <path d="M134.0431,219.4741 L134.1368,219.4741 L134.4133,219.4741 L134.8583,219.4741 L135.4502,219.4741 L136.1588,219.4741 L136.9486,219.4741 L137.7802,219.4741 L138.6118,219.4741 L139.4016,219.4741 L140.1101,219.4741 L140.7021,219.4741 L141.1470,219.4741 L141.4236,219.4741 L141.5172,219.4741 "/>
        <path d="M14.4569,219.4741 L14.3632,219.4741 L14.0867,219.4741 L13.6417,219.4741 L13.0498,219.4741 L12.3412,219.4741 L11.5515,219.4741 L10.7198,219.4741 L9.8882,219.4741 L9.0984,219.4741 L8.3899,219.4741 L7.7979,219.4741 L7.3530,219.4741 L7.0764,219.4741 L6.9828,219.4741 "/>
        <path d="M6.9828,219.4741 L7.0764,219.4741 L7.3530,219.4741 L7.7979,219.4741 L8.3899,219.4741 L9.0984,219.4741 L9.8882,219.4741 L10.7198,219.4741 L11.5515,219.4741 L12.3412,219.4741 L13.0498,219.4741 L13.6417,219.4741 L14.0867,219.4741 L14.3632,219.4741 L14.4569,219.4741 "/>
        <path d="M141.5172,212.0000 L141.5172,219.4741 "/>
        <path d="M14.4569,212.0000 L14.4569,219.4741 "/>
        <path d="M134.0431,219.4741 L134.0431,212.0000 "/>
        <path d="M6.9828,219.4741 L6.9828,212.0000 "/>
      </g>
      <g stroke="#cc8844" stroke-width="1.4948275862068965" fill="none">
        <path d="M10.7198,212.0000 L137.7802,212.0000 "/>
        <path d="M10.7198,219.4741 L137.7802,219.4741 "/>
        <path d="M2.0000,212.0000 L2.0548,212.0000 L2.2187,212.0000 L2.4893,212.0000 L2.8635,212.0000 L3.3364,212.0000 L3.9024,212.0000 L4.5542,212.0000 L5.2831,212.0000 L6.0804,212.0000 L6.9364,212.0000 L7.8398,212.0000 L8.7795,212.0000 L9.7437,212.0000 L10.7198,212.0000 "/>
        <path d="M2.0000,219.4741 L2.0548,219.4741 L2.2187,219.4741 L2.4893,219.4741 L2.8635,219.4741 L3.3364,219.4741 L3.9024,219.4741 L4.5542,219.4741 L5.2831,219.4741 L6.0804,219.4741 L6.9364,219.4741 L7.8398,219.4741 L8.7795,219.4741 L9.7437,219.4741 L10.7198,219.4741 "/>
        <path d="M137.7802,212.0000 L138.7563,212.0000 L139.7205,212.0000 L140.6602,212.0000 L141.5636,212.0000 L142.4196,212.0000 L143.2169,212.0000 L143.9458,212.0000 L144.5976,212.0000 L145.1636,212.0000 L145.6365,212.0000 L146.0107,212.0000 L146.2813,212.0000 L146.4452,212.0000 L146.5000,212.0000 "/>
        <path d="M137.7802,219.4741 L138.7563,219.4741 L139.7205,219.4741 L140.6602,219.4741 L141.5636,219.4741 L142.4196,219.4741 L143.2169,219.4741 L143.9458,219.4741 L144.5976,219.4741 L145.1636,219.4741 L145.6365,219.4741 L146.0107,219.4741 L146.2813,219.4741 L146.4452,219.4741 L146.5000,219.4741 "/>
        <path d="M10.7198,212.0000 L10.7198,219.4741 "/>
        <path d="M137.7802,212.0000 L137.7802,219.4741 "/>
        <path d="M2.0000,219.4741 L2.0000,212.0000 "/>
        <path d="M146.5000,219.4741 L146.5000,212.0000 "/>
      </g>
    </g>
    <!-- LL view: XY -->
    <g>
      <g stroke="#cc8844" stroke-opacity="0.4" stroke-dasharray="2,2" stroke-width="0.8968965517241378" fill="none">
        <path d="M10.7198,19.4397 L137.7802,19.4397 "/>
        <path d="M10.7198,2.0000 L10.1373,2.0194 L9.5573,2.0777 L8.9828,2.1749 L8.4163,2.3099 L7.8597,2.4823 L7.3156,2.6921 L6.7869,2.9373 L6.2762,3.2173 L5.7849,3.5307 L5.3155,3.8765 L4.8706,4.2527 L4.4520,4.6578 L4.0609,5.0903 L3.6996,5.5472 L3.3698,6.0281 L3.0728,6.5293 L2.8102,7.0495 L2.5825,7.5857 L2.3916,8.1363 L2.2377,8.6983 L2.1216,9.2693 L2.0438,9.8468 L2.0050,10.4283 L2.0050,11.0113 L2.0438,11.5928 L2.1216,12.1703 L2.2377,12.7413 L2.3916,13.3034 L2.5825,13.8540 L2.8102,14.3901 L3.0728,14.9103 L3.3698,15.4116 L3.6996,15.8924 L4.0609,16.3493 L4.4520,16.7819 L4.8706,17.1869 L5.3155,17.5631 L5.7849,17.9090 L6.2762,18.2224 L6.7869,18.5024 L7.3156,18.7476 L7.8597,18.9573 L8.4163,19.1297 L8.9828,19.2648 L9.5573,19.3619 L10.1373,19.4202 L10.7198,19.4397 "/>
        <path d="M137.7802,19.4397 L138.3627,19.4202 L138.9427,19.3619 L139.5172,19.2648 L140.0837,19.1297 L140.6403,18.9573 L141.1844,18.7476 L141.7131,18.5024 L142.2238,18.2224 L142.7151,17.9090 L143.1845,17.5631 L143.6294,17.1869 L144.0480,16.7819 L144.4391,16.3493 L144.8004,15.8924 L145.1302,15.4116 L145.4272,14.9103 L145.6898,14.3901 L145.9175,13.8540 L146.1084,13.3034 L146.2623,12.7413 L146.3784,12.1703 L146.4562,11.5928 L146.4950,11.0113 L146.4950,10.4283 L146.4562,9.8468 L146.3784,9.2693 L146.2623,8.6983 L146.1084,8.1363 L145.9175,7.5857 L145.6898,7.0495 L145.4272,6.5293 L145.1302,6.0281 L144.8004,5.5472 L144.4391,5.0903 L144.0480,4.6578 L143.6294,4.2527 L143.1845,3.8765 L142.7151,3.5307 L142.2238,3.2173 L141.7131,2.9373 L141.1844,2.6921 L140.6403,2.4823 L140.0837,2.3099 L139.5172,2.1749 L138.9427,2.0777 L138.3627,2.0194 L137.7802,2.0000 "/>
        <path d="M137.7802,2.0000 L10.7198,2.0000 "/>
        <path d="M141.5172,10.7198 L141.4973,11.1040 L141.4380,11.4842 L141.3404,11.8564 L141.2043,12.2162 L141.0324,12.5605 L140.8261,12.8853 L140.5870,13.1868 L140.3189,13.4623 L140.0234,13.7090 L139.7040,13.9237 L139.3642,14.1046 L139.0079,14.2496 L138.6387,14.3567 L138.2600,14.4260 L137.8763,14.4559 L137.4917,14.4459 L137.1100,14.3961 L136.7358,14.3079 L136.3725,14.1814 L136.0238,14.0184 L135.6939,13.8206 L135.3865,13.5894 L135.1039,13.3283 L134.8498,13.0393 L134.6271,12.7254 L134.4372,12.3905 L134.2833,12.0383 L134.1662,11.6715 L134.0874,11.2948 L134.0481,10.9122 L134.0481,10.5275 L134.0874,10.1448 L134.1662,9.7681 L134.2833,9.4014 L134.4372,9.0491 L134.6271,8.7143 L134.8498,8.4004 L135.1039,8.1114 L135.3865,7.8503 L135.6939,7.6191 L136.0238,7.4212 L136.3725,7.2583 L136.7358,7.1317 L137.1100,7.0435 L137.4917,6.9937 L137.8763,6.9838 L138.2600,7.0137 L138.6387,7.0829 L139.0079,7.1900 L139.3642,7.3350 L139.7040,7.5159 L140.0234,7.7307 L140.3189,7.9773 L140.5870,8.2529 L140.8261,8.5543 L141.0324,8.8792 L141.2043,9.2235 L141.3404,9.5833 L141.4380,9.9555 L141.4973,10.3357 L141.5172,10.7198 "/>
        <path d="M14.4569,10.7198 L14.4370,11.1040 L14.3777,11.4842 L14.2800,11.8564 L14.1440,12.2162 L13.9721,12.5605 L13.7658,12.8853 L13.5266,13.1868 L13.2585,13.4623 L12.9631,13.7090 L12.6437,13.9237 L12.3038,14.1046 L11.9476,14.2496 L11.5784,14.3567 L11.1997,14.4260 L10.8160,14.4559 L10.4313,14.4459 L10.0496,14.3961 L9.6754,14.3079 L9.3122,14.1814 L8.9634,14.0184 L8.6335,13.8206 L8.3261,13.5894 L8.0436,13.3283 L7.7895,13.0393 L7.5667,12.7254 L7.3769,12.3905 L7.2229,12.0383 L7.1058,11.6715 L7.0271,11.2948 L6.9877,10.9122 L6.9877,10.5275 L7.0271,10.1448 L7.1058,9.7681 L7.2229,9.4014 L7.3769,9.0491 L7.5667,8.7143 L7.7895,8.4004 L8.0436,8.1114 L8.3261,7.8503 L8.6335,7.6191 L8.9634,7.4212 L9.3122,7.2583 L9.6754,7.1317 L10.0496,7.0435 L10.4313,6.9937 L10.8160,6.9838 L11.1997,7.0137 L11.5784,7.0829 L11.9476,7.1900 L12.3038,7.3350 L12.6437,7.5159 L12.9631,7.7307 L13.2585,7.9773 L13.5266,8.2529 L13.7658,8.5543 L13.9721,8.8792 L14.1440,9.2235 L14.2800,9.5833 L14.3777,9.9555 L14.4370,10.3357 L14.4569,10.7198 "/>
      </g>
      <g stroke="#cc8844" stroke-width="1.4948275862068965" fill="none">
        <path d="M10.7198,19.4397 L137.7802,19.4397 "/>
        <path d="M10.7198,2.0000 L10.1373,2.0194 L9.5573,2.0777 L8.9828,2.1749 L8.4163,2.3099 L7.8597,2.4823 L7.3156,2.6921 L6.7869,2.9373 L6.2762,3.2173 L5.7849,3.5307 L5.3155,3.8765 L4.8706,4.2527 L4.4520,4.6578 L4.0609,5.0903 L3.6996,5.5472 L3.3698,6.0281 L3.0728,6.5293 L2.8102,7.0495 L2.5825,7.5857 L2.3916,8.1363 L2.2377,8.6983 L2.1216,9.2693 L2.0438,9.8468 L2.0050,10.4283 L2.0050,11.0113 L2.0438,11.5928 L2.1216,12.1703 L2.2377,12.7413 L2.3916,13.3034 L2.5825,13.8540 L2.8102,14.3901 L3.0728,14.9103 L3.3698,15.4116 L3.6996,15.8924 L4.0609,16.3493 L4.4520,16.7819 L4.8706,17.1869 L5.3155,17.5631 L5.7849,17.9090 L6.2762,18.2224 L6.7869,18.5024 L7.3156,18.7476 L7.8597,18.9573 L8.4163,19.1297 L8.9828,19.2648 L9.5573,19.3619 L10.1373,19.4202 L10.7198,19.4397 "/>
        <path d="M137.7802,19.4397 L138.3627,19.4202 L138.9427,19.3619 L139.5172,19.2648 L140.0837,19.1297 L140.6403,18.9573 L141.1844,18.7476 L141.7131,18.5024 L142.2238,18.2224 L142.7151,17.9090 L143.1845,17.5631 L143.6294,17.1869 L144.0480,16.7819 L144.4391,16.3493 L144.8004,15.8924 L145.1302,15.4116 L145.4272,14.9103 L145.6898,14.3901 L145.9175,13.8540 L146.1084,13.3034 L146.2623,12.7413 L146.3784,12.1703 L146.4562,11.5928 L146.4950,11.0113 L146.4950,10.4283 L146.4562,9.8468 L146.3784,9.2693 L146.2623,8.6983 L146.1084,8.1363 L145.9175,7.5857 L145.6898,7.0495 L145.4272,6.5293 L145.1302,6.0281 L144.8004,5.5472 L144.4391,5.0903 L144.0480,4.6578 L143.6294,4.2527 L143.1845,3.8765 L142.7151,3.5307 L142.2238,3.2173 L141.7131,2.9373 L141.1844,2.6921 L140.6403,2.4823 L140.0837,2.3099 L139.5172,2.1749 L138.9427,2.0777 L138.3627,2.0194 L137.7802,2.0000 "/>
        <path d="M137.7802,2.0000 L10.7198,2.0000 "/>
        <path d="M141.5172,10.7198 L141.4973,10.3357 L141.4380,9.9555 L141.3404,9.5833 L141.2043,9.2235 L141.0324,8.8792 L140.8261,8.5543 L140.5870,8.2529 L140.3189,7.9773 L140.0234,7.7307 L139.7040,7.5159 L139.3642,7.3350 L139.0079,7.1900 L138.6387,7.0829 L138.2600,7.0137 L137.8763,6.9838 L137.4917,6.9937 L137.1100,7.0435 L136.7358,7.1317 L136.3725,7.2583 L136.0238,7.4212 L135.6939,7.6191 L135.3865,7.8503 L135.1039,8.1114 L134.8498,8.4004 L134.6271,8.7143 L134.4372,9.0491 L134.2833,9.4014 L134.1662,9.7681 L134.0874,10.1448 L134.0481,10.5275 L134.0481,10.9122 L134.0874,11.2948 L134.1662,11.6715 L134.2833,12.0383 L134.4372,12.3905 L134.6271,12.7254 L134.8498,13.0393 L135.1039,13.3283 L135.3865,13.5894 L135.6939,13.8206 L136.0238,14.0184 L136.3725,14.1814 L136.7358,14.3079 L137.1100,14.3961 L137.4917,14.4459 L137.8763,14.4559 L138.2600,14.4260 L138.6387,14.3567 L139.0079,14.2496 L139.3642,14.1046 L139.7040,13.9237 L140.0234,13.7090 L140.3189,13.4623 L140.5870,13.1868 L140.8261,12.8853 L141.0324,12.5605 L141.2043,12.2162 L141.3404,11.8564 L141.4380,11.4842 L141.4973,11.1040 L141.5172,10.7198 "/>
        <path d="M14.4569,10.7198 L14.4370,10.3357 L14.3777,9.9555 L14.2800,9.5833 L14.1440,9.2235 L13.9721,8.8792 L13.7658,8.5543 L13.5266,8.2529 L13.2585,7.9773 L12.9631,7.7307 L12.6437,7.5159 L12.3038,7.3350 L11.9476,7.1900 L11.5784,7.0829 L11.1997,7.0137 L10.8160,6.9838 L10.4313,6.9937 L10.0496,7.0435 L9.6754,7.1317 L9.3122,7.2583 L8.9634,7.4212 L8.6335,7.6191 L8.3261,7.8503 L8.0436,8.1114 L7.7895,8.4004 L7.5667,8.7143 L7.3769,9.0491 L7.2229,9.4014 L7.1058,9.7681 L7.0271,10.1448 L6.9877,10.5275 L6.9877,10.9122 L7.0271,11.2948 L7.1058,11.6715 L7.2229,12.0383 L7.3769,12.3905 L7.5667,12.7254 L7.7895,13.0393 L8.0436,13.3283 L8.3261,13.5894 L8.6335,13.8206 L8.9634,14.0184 L9.3122,14.1814 L9.6754,14.3079 L10.0496,14.3961 L10.4313,14.4459 L10.8160,14.4559 L11.1997,14.4260 L11.5784,14.3567 L11.9476,14.2496 L12.3038,14.1046 L12.6437,13.9237 L12.9631,13.7090 L13.2585,13.4623 L13.5266,13.1868 L13.7658,12.8853 L13.9721,12.5605 L14.1440,12.2162 L14.2800,11.8564 L14.3777,11.4842 L14.4370,11.1040 L14.4569,10.7198 "/>
      </g>
    </g>
    <!-- UR view: ISO -->
    <g>
      <g stroke="#cc8844" stroke-opacity="0.4" stroke-dasharray="2,2" stroke-width="0.9333486439352073" fill="none">
        <path d="M159.0645,302.4211 L158.7643,302.4055 L158.4646,302.4003 L158.1654,302.4065 L157.8672,302.4231 L157.5706,302.4511 L157.2756,302.4900 L156.9831,302.5393 L156.6928,302.5999 L156.4060,302.6710 L156.1219,302.7529 L155.8419,302.8447 L155.5655,302.9474 L155.2938,303.0604 L155.0262,303.1833 L154.7638,303.3165 L154.5067,303.4597 "/>
        <path d="M288.4235,328.0332 L288.7123,327.8569 L288.9929,327.6681 L289.2656,327.4675 L289.5290,327.2549 L289.7836,327.0309 L290.0284,326.7955 L290.2627,326.5497 L290.4873,326.2930 L290.7009,326.0270 L290.9031,325.7511 L291.0945,325.4665 L291.2739,325.1730 L291.4408,324.8717 L291.5959,324.5627 L291.7385,324.2464 L291.8681,323.9233 L291.9842,323.5946 L292.0880,323.2601 L292.1777,322.9210 L292.2544,322.5767 L292.3171,322.2293 L292.3664,321.8783 L292.4017,321.5241 L292.4229,321.1684 L292.4307,320.8106 L292.4240,320.4523 L292.4037,320.0930 L292.3695,319.7342 L292.3218,319.3764 L292.2601,319.0191 L292.1844,318.6644 L292.0957,318.3118 L291.9936,317.9623 L291.8779,317.6170 L291.7494,317.2753 L291.6078,316.9383 L291.4543,316.6069 L291.2879,316.2808 L291.1095,315.9613 L290.9197,315.6487 L290.7180,315.3438 L290.5054,315.0467 L290.2819,314.7573 L290.0475,314.4773 L289.8038,314.2067 L289.5503,313.9453 L289.2874,313.6943 L289.0157,313.4538 L288.7357,313.2246 L288.4479,313.0063 L288.1523,312.7999 L287.8500,312.6054 L287.5410,312.4229 L287.2262,312.2534 L286.9058,312.0968 L286.5807,311.9531 L286.2509,311.8230 L285.9175,311.7068 L285.5810,311.6042 L285.2413,311.5150 L284.8991,311.4403 L284.5558,311.3802 L284.2110,311.3335 L283.8657,311.3019 "/>
        <path d="M283.8657,311.3019 L159.0645,302.4211 "/>
        <path d="M286.9291,322.5026 L286.8171,322.6607 L286.6968,322.8116 L286.5682,322.9558 L286.4324,323.0916 L286.2887,323.2192 L286.1389,323.3384 L285.9818,323.4484 L285.8195,323.5495 "/>
        <path d="M285.8195,323.5495 L285.5053,323.7102 L285.1755,323.8367 L284.8332,323.9285 L284.4812,323.9845 L284.1234,324.0032 L283.7635,323.9856 L283.4042,323.9311 L283.0495,323.8409 L282.7026,323.7154 L282.3671,323.5557 L282.0462,323.3638 L281.7423,323.1414 L281.4592,322.8904 L281.1989,322.6130 L280.9645,322.3128 L280.7581,321.9918 L280.5818,321.6537 L280.4366,321.3011 L280.3252,320.9382 L280.2474,320.5674 L280.2043,320.1936 L280.1966,319.8192 L280.2246,319.4490 L280.2873,319.0855 L280.3843,318.7324 L280.5149,318.3938 L280.6783,318.0718 L280.8717,317.7705 L281.0947,317.4926 L281.3436,317.2406 L281.6173,317.0171 L281.9124,316.8237 "/>
        <path d="M281.9124,316.8237 L282.0809,316.7324 L282.2541,316.6510 L282.4319,316.5794 L282.6139,316.5182 L282.7996,316.4674 L282.9878,316.4270 L283.1791,316.3974 L283.3720,316.3782 "/>
        <path d="M162.1280,313.6218 L162.0160,313.7799 L161.8957,313.9313 L161.7671,314.0749 L161.6312,314.2108 L161.4876,314.3384 L161.3377,314.4576 L161.1806,314.5675 L161.0183,314.6687 "/>
        <path d="M161.0183,314.6687 L160.7041,314.8294 L160.3743,314.9564 L160.0321,315.0477 L159.6800,315.1037 L159.3227,315.1224 L158.9624,315.1047 L158.6030,315.0508 L158.2483,314.9601 L157.9015,314.8346 L157.5660,314.6754 L157.2450,314.4830 L156.9411,314.2606 L156.6580,314.0096 L156.3977,313.7327 L156.1634,313.4320 L155.9570,313.1110 L155.7807,312.7729 L155.6355,312.4203 L155.5240,312.0574 L155.4462,311.6866 L155.4032,311.3128 L155.3954,310.9389 L155.4234,310.5681 L155.4862,310.2047 L155.5831,309.8515 L155.7138,309.5129 L155.8771,309.1909 L156.0705,308.8902 L156.2935,308.6117 L156.5424,308.3597 L156.8162,308.1363 L157.1112,307.9434 "/>
        <path d="M157.1112,307.9434 L157.2797,307.8516 L157.4529,307.7702 L157.6308,307.6986 L157.8128,307.6374 L157.9984,307.5866 L158.1866,307.5462 L158.3780,307.5166 L158.5709,307.4974 "/>
        <path d="M288.3888,322.0566 L285.8195,323.5495 "/>
        <path d="M284.4817,315.3313 L281.9124,316.8237 "/>
        <path d="M163.5876,313.1763 L161.0183,314.6687 "/>
        <path d="M159.6805,306.4505 L157.1112,307.9434 "/>
      </g>
      <g stroke="#cc8844" stroke-width="1.5555810732253457" fill="none">
        <path d="M159.0645,320.1905 L283.8657,329.0713 "/>
        <path d="M161.6343,318.6981 L286.4355,327.5789 "/>
        <path d="M154.5067,303.4597 L154.2184,303.6354 L153.9373,303.8242 L153.6651,304.0249 L153.4017,304.2375 L153.1471,304.4620 L152.9023,304.6969 L152.6674,304.9432 L152.4434,305.1993 L152.2298,305.4653 L152.0271,305.7412 L151.8362,306.0259 L151.6568,306.3193 L151.4899,306.6211 L151.3348,306.9302 L151.1922,307.2465 L151.0626,307.5690 L150.9459,307.8977 L150.8427,308.2322 L150.7525,308.5718 L150.6763,308.9156 L150.6136,309.2635 L150.5643,309.6146 L150.5290,309.9682 L150.5073,310.3244 L150.5000,310.6817 L150.5062,311.0405 L150.5264,311.3993 L150.5607,311.7582 L150.6089,312.1165 L150.6706,312.4732 L150.7458,312.8279 L150.8350,313.1805 L150.9371,313.5300 L151.0527,313.8758 L151.1813,314.2175 L151.3224,314.5541 L151.4764,314.8859 L151.6428,315.2116 L151.8212,315.5310 L152.0110,315.8436 L152.2127,316.1491 L152.4253,316.4462 L152.6488,316.7350 L152.8826,317.0150 L153.1269,317.2862 L153.3804,317.5470 L153.6433,317.7980 L153.9150,318.0386 L154.1950,318.2683 L154.4828,318.4861 L154.7784,318.6929 L155.0807,318.8874 L155.3897,319.0694 L155.7045,319.2390 L156.0244,319.3956 L156.3500,319.5392 L156.6793,319.6693 L157.0127,319.7860 L157.3497,319.8887 L157.6894,319.9773 L158.0311,320.0520 L158.3749,320.1127 L158.7197,320.1588 L159.0645,320.1905 "/>
        <path d="M161.6343,300.9287 L161.3336,300.9127 L161.0339,300.9080 L160.7347,300.9137 L160.4365,300.9308 L160.1399,300.9588 L159.8449,300.9972 L159.5524,301.0470 L159.2626,301.1071 L158.9753,301.1787 L158.6917,301.2601 L158.4112,301.3524 L158.1348,301.4550 L157.8631,301.5681 L157.5955,301.6910 L157.3331,301.8242 L157.0765,301.9668 "/>
        <path d="M157.0765,301.9668 L156.7877,302.1431 L156.5071,302.3319 L156.2344,302.5325 L155.9710,302.7451 L155.7164,302.9691 L155.4716,303.2045 L155.2373,303.4503 L155.0127,303.7070 L154.7991,303.9730 L154.5969,304.2489 L154.4055,304.5335 L154.2261,304.8270 L154.0592,305.1283 L153.9041,305.4373 L153.7615,305.7536 L153.6319,306.0767 L153.5158,306.4054 L153.4120,306.7399 L153.3223,307.0790 L153.2456,307.4233 L153.1829,307.7707 L153.1336,308.1217 L153.0983,308.4759 L153.0771,308.8316 L153.0693,309.1894 L153.0760,309.5477 L153.0963,309.9070 L153.1305,310.2658 L153.1782,310.6236 L153.2399,310.9809 L153.3156,311.3356 L153.4043,311.6882 L153.5064,312.0377 L153.6221,312.3830 L153.7506,312.7247 L153.8922,313.0617 L154.0457,313.3931 L154.2121,313.7192 L154.3905,314.0387 L154.5803,314.3513 L154.7820,314.6562 L154.9946,314.9533 L155.2181,315.2427 L155.4525,315.5227 L155.6962,315.7933 L155.9497,316.0547 L156.2126,316.3057 L156.4843,316.5462 L156.7643,316.7754 L157.0521,316.9937 L157.3477,317.2001 L157.6500,317.3946 L157.9590,317.5771 L158.2738,317.7466 L158.5942,317.9032 L158.9193,318.0469 L159.2491,318.1770 L159.5825,318.2932 L159.9190,318.3958 L160.2587,318.4850 L160.6009,318.5597 L160.9442,318.6198 L161.2890,318.6665 L161.6343,318.6981 "/>
        <path d="M283.8657,329.0713 L284.1664,329.0873 L284.4661,329.0920 L284.7653,329.0863 L285.0635,329.0692 L285.3601,329.0412 L285.6551,329.0028 L285.9476,328.9530 L286.2374,328.8929 L286.5247,328.8213 L286.8083,328.7399 L287.0888,328.6476 L287.3652,328.5450 L287.6369,328.4319 L287.9045,328.3090 L288.1669,328.1758 L288.4235,328.0332 "/>
        <path d="M286.4355,327.5789 L286.7357,327.5945 L287.0354,327.5997 L287.3346,327.5935 L287.6328,327.5769 L287.9294,327.5489 L288.2244,327.5100 L288.5169,327.4607 L288.8072,327.4001 L289.0940,327.3290 L289.3781,327.2471 L289.6581,327.1553 L289.9345,327.0526 L290.2062,326.9396 L290.4738,326.8167 L290.7362,326.6835 L290.9933,326.5403 "/>
        <path d="M290.9933,326.5403 L291.2816,326.3646 L291.5627,326.1758 L291.8349,325.9751 L292.0983,325.7625 L292.3529,325.5380 L292.5977,325.3031 L292.8326,325.0568 L293.0566,324.8007 L293.2702,324.5347 L293.4729,324.2588 L293.6638,323.9741 L293.8432,323.6807 L294.0101,323.3789 L294.1652,323.0698 L294.3078,322.7535 L294.4374,322.4310 L294.5541,322.1023 L294.6573,321.7678 L294.7475,321.4282 L294.8237,321.0844 L294.8864,320.7365 L294.9357,320.3854 L294.9710,320.0318 L294.9927,319.6756 L295.0000,319.3183 L294.9938,318.9595 L294.9736,318.6007 L294.9393,318.2418 L294.8911,317.8835 L294.8294,317.5268 L294.7542,317.1721 L294.6650,316.8195 L294.5629,316.4700 L294.4473,316.1242 L294.3187,315.7825 L294.1776,315.4459 L294.0236,315.1141 L293.8572,314.7884 L293.6788,314.4690 L293.4890,314.1564 L293.2873,313.8509 L293.0747,313.5538 L292.8512,313.2650 L292.6174,312.9850 L292.3731,312.7138 L292.1196,312.4530 L291.8567,312.2020 L291.5850,311.9614 L291.3050,311.7317 L291.0172,311.5139 L290.7216,311.3071 L290.4193,311.1126 L290.1103,310.9306 L289.7955,310.7610 L289.4756,310.6044 L289.1500,310.4608 L288.8207,310.3307 L288.4873,310.2140 L288.1503,310.1113 L287.8106,310.0227 L287.4689,309.9480 L287.1251,309.8873 L286.7803,309.8412 L286.4355,309.8095 "/>
        <path d="M287.5363,320.4476 L287.5265,320.7245 L287.4974,320.9983 L287.4487,321.2680 L287.3813,321.5319 L287.2952,321.7886 L287.1905,322.0369 L287.0686,322.2749 L286.9291,322.5026 "/>
        <path d="M283.3720,316.3782 L283.5665,316.3705 L283.7620,316.3731 L283.9574,316.3865 L284.1529,316.4109 L284.3474,316.4462 L284.5403,316.4918 L284.7316,316.5478 L284.9204,316.6147 L285.1065,316.6914 L285.2885,316.7780 L285.4669,316.8745 L285.6406,316.9797 L285.9724,317.2183 L286.2804,317.4905 L286.5610,317.7933 L286.8109,318.1231 L287.0271,318.4767 L287.2076,318.8495 L287.3502,319.2374 L287.4534,319.6362 L287.5156,320.0411 L287.5311,320.2444 L287.5363,320.4476 "/>
        <path d="M162.7352,311.5674 L162.7258,311.8437 L162.6963,312.1180 L162.6481,312.3871 L162.5801,312.6511 L162.4940,312.9077 L162.3893,313.1561 L162.2675,313.3941 L162.1280,313.6218 "/>
        <path d="M158.5709,307.4974 L158.7653,307.4897 L158.9608,307.4922 L159.1563,307.5057 L159.3518,307.5301 L159.5462,307.5654 L159.7396,307.6110 L159.9305,307.6675 L160.1197,307.7339 L160.3053,307.8106 L160.4879,307.8972 L160.6657,307.9937 L160.8394,308.0994 L161.1713,308.3374 L161.4793,308.6097 L161.7598,308.9125 L162.0097,309.2423 L162.2260,309.5959 L162.4064,309.9687 L162.5490,310.3566 L162.6522,310.7553 L162.7144,311.1603 L162.7300,311.3641 L162.7352,311.5674 "/>
        <path d="M286.4355,309.8095 L161.6343,300.9287 "/>
        <path d="M290.1061,318.9553 L290.0978,318.7012 L290.0735,318.4472 L290.0330,318.1941 L289.9765,317.9432 L289.9039,317.6958 L289.8163,317.4526 L289.7141,317.2151 L289.5969,316.9844 L289.4658,316.7609 L289.3211,316.5462 L289.1635,316.3409 L288.9939,316.1459 L288.8129,315.9624 L288.6216,315.7913 L288.4204,315.6326 L288.2104,315.4874 L287.9926,315.3567 L287.7681,315.2411 L287.5374,315.1405 L287.3019,315.0555 L287.0624,314.9870 L286.8202,314.9347 L286.5765,314.8994 L286.3318,314.8807 L286.0881,314.8787 L285.8454,314.8937 L285.6053,314.9259 L285.3694,314.9746 L285.1376,315.0399 L284.9121,315.1213 L284.6932,315.2188 L284.4817,315.3313 "/>
        <path d="M284.4817,315.3313 L284.1866,315.5242 L283.9134,315.7482 L283.6640,316.0002 L283.4415,316.2782 L283.2476,316.5794 L283.0848,316.9009 L282.9536,317.2400 L282.8566,317.5926 L282.7939,317.9561 L282.7659,318.3269 L282.7737,318.7007 L282.8167,319.0751 L282.8945,319.4453 L283.0060,319.8088 L283.1511,320.1609 L283.3274,320.4995 L283.5338,320.8205 L283.7682,321.1207 L284.0285,321.3976 L284.3116,321.6486 L284.6155,321.8715 L284.9364,322.0634 L285.2724,322.2231 L285.6188,322.3486 L285.9740,322.4388 L286.3328,322.4932 L286.6932,322.5109 L287.0505,322.4917 L287.4025,322.4362 L287.7448,322.3444 L288.0746,322.2174 L288.3888,322.0566 "/>
        <path d="M288.3888,322.0566 L288.5806,321.9363 L288.7642,321.8031 L288.9384,321.6568 L289.1028,321.4992 L289.2568,321.3307 L289.3989,321.1513 L289.5295,320.9625 L289.6483,320.7645 L289.7535,320.5581 L289.8458,320.3445 L289.9247,320.1241 L289.9895,319.8980 L290.0403,319.6673 L290.0766,319.4324 L290.0984,319.1949 L290.1061,318.9553 "/>
        <path d="M165.3050,310.0745 L165.2967,309.8204 L165.2723,309.5664 L165.2319,309.3133 L165.1754,309.0623 L165.1028,308.8150 L165.0156,308.5718 L164.9130,308.3343 L164.7958,308.1036 L164.6646,307.8801 L164.5199,307.6654 L164.3623,307.4601 L164.1927,307.2651 L164.0118,307.0816 L163.8204,306.9105 L163.6193,306.7518 L163.4092,306.6071 L163.1915,306.4765 L162.9669,306.3603 L162.7362,306.2597 L162.5008,306.1747 L162.2612,306.1062 L162.0191,306.0539 L161.7754,306.0186 L161.5306,305.9999 L161.2869,305.9979 L161.0442,306.0129 L160.8042,306.0450 L160.5682,306.0938 L160.3365,306.1591 L160.1109,306.2405 L159.8921,306.3380 L159.6805,306.4505 "/>
        <path d="M159.6805,306.4505 L159.3855,306.6439 L159.1122,306.8674 L158.8628,307.1194 L158.6404,307.3974 L158.4464,307.6986 L158.2836,308.0201 L158.1524,308.3592 L158.0555,308.7118 L157.9927,309.0753 L157.9652,309.4461 L157.9725,309.8204 L158.0155,310.1943 L158.0933,310.5645 L158.2053,310.9280 L158.3500,311.2801 L158.5263,311.6187 L158.7332,311.9397 L158.9675,312.2399 L159.2273,312.5168 L159.5104,312.7683 L159.8143,312.9907 L160.1353,313.1826 L160.4713,313.3423 L160.8182,313.4678 L161.1728,313.5580 L161.5317,313.6124 L161.8920,313.6301 L162.2498,313.6109 L162.6014,313.5554 L162.9436,313.4636 L163.2734,313.3371 L163.5876,313.1763 "/>
        <path d="M163.5876,313.1763 L163.7795,313.0555 L163.9630,312.9223 L164.1373,312.7766 L164.3016,312.6189 L164.4556,312.4499 L164.5977,312.2705 L164.7284,312.0817 L164.8471,311.8837 L164.9524,311.6773 L165.0447,311.4636 L165.1235,311.2433 L165.1883,311.0172 L165.2391,310.7864 L165.2754,310.5516 L165.2977,310.3141 L165.3050,310.0745 "/>
        <path d="M287.5363,320.4476 L290.1061,318.9553 "/>
        <path d="M162.7352,311.5674 L165.3050,310.0745 "/>
        <path d="M159.0645,320.1905 L161.6343,318.6981 "/>
        <path d="M283.8657,329.0713 L286.4355,327.5789 "/>
        <path d="M157.0765,301.9668 L154.5067,303.4597 "/>
        <path d="M290.9933,326.5403 L288.4235,328.0332 "/>
      </g>
    </g>
    <!-- LR view: YZ -->
    <g>
      <g stroke="#cc8844" stroke-opacity="0.4" stroke-dasharray="2,2" stroke-width="0.8968965517241378" fill="none">
        <path d="M150.5000,19.4397 L157.9741,19.4397 "/>
        <path d="M150.5000,2.0000 L157.9741,2.0000 "/>
        <path d="M150.5000,2.0000 L150.5000,2.2187 L150.5000,2.8635 L150.5000,3.9024 L150.5000,5.2831 L150.5000,6.9364 L150.5000,8.7795 L150.5000,10.7198 L150.5000,12.6601 L150.5000,14.5032 L150.5000,16.1565 L150.5000,17.5372 L150.5000,18.5761 L150.5000,19.2209 L150.5000,19.4397 "/>
        <path d="M157.9741,2.0000 L157.9741,2.2187 L157.9741,2.8635 L157.9741,3.9024 L157.9741,5.2831 L157.9741,6.9364 L157.9741,8.7795 L157.9741,10.7198 L157.9741,12.6601 L157.9741,14.5032 L157.9741,16.1565 L157.9741,17.5372 L157.9741,18.5761 L157.9741,19.2209 L157.9741,19.4397 "/>
        <path d="M150.5000,10.7198 L150.5000,11.1384 L150.5000,11.5515 L150.5000,11.9541 L150.5000,12.3412 L150.5000,12.7079 L150.5000,13.0498 L150.5000,13.3622 L150.5000,13.6417 L150.5000,13.8839 L150.5000,14.0867 L150.5000,14.2471 L150.5000,14.3632 L150.5000,14.4335 L150.5000,14.4569 "/>
        <path d="M150.5000,14.4569 L150.5000,14.3632 L150.5000,14.0867 L150.5000,13.6417 L150.5000,13.0498 L150.5000,12.3412 L150.5000,11.5515 L150.5000,10.7198 L150.5000,9.8882 L150.5000,9.0984 L150.5000,8.3899 L150.5000,7.7979 L150.5000,7.3530 L150.5000,7.0764 L150.5000,6.9828 "/>
        <path d="M150.5000,6.9828 L150.5000,7.0062 L150.5000,7.0764 L150.5000,7.1925 L150.5000,7.3530 L150.5000,7.5558 L150.5000,7.7979 L150.5000,8.0775 L150.5000,8.3899 L150.5000,8.7317 L150.5000,9.0984 L150.5000,9.4856 L150.5000,9.8882 L150.5000,10.3013 L150.5000,10.7198 "/>
        <path d="M150.5000,10.7198 L150.5000,11.1384 L150.5000,11.5515 L150.5000,11.9541 L150.5000,12.3412 L150.5000,12.7079 L150.5000,13.0498 L150.5000,13.3622 L150.5000,13.6417 L150.5000,13.8839 L150.5000,14.0867 L150.5000,14.2471 L150.5000,14.3632 L150.5000,14.4335 L150.5000,14.4569 "/>
        <path d="M150.5000,14.4569 L150.5000,14.3632 L150.5000,14.0867 L150.5000,13.6417 L150.5000,13.0498 L150.5000,12.3412 L150.5000,11.5515 L150.5000,10.7198 L150.5000,9.8882 L150.5000,9.0984 L150.5000,8.3899 L150.5000,7.7979 L150.5000,7.3530 L150.5000,7.0764 L150.5000,6.9828 "/>
        <path d="M150.5000,6.9828 L150.5000,7.0062 L150.5000,7.0764 L150.5000,7.1925 L150.5000,7.3530 L150.5000,7.5558 L150.5000,7.7979 L150.5000,8.0775 L150.5000,8.3899 L150.5000,8.7317 L150.5000,9.0984 L150.5000,9.4856 L150.5000,9.8882 L150.5000,10.3013 L150.5000,10.7198 "/>
        <path d="M157.9741,10.7198 L157.9741,10.3013 L157.9741,9.8882 L157.9741,9.4856 L157.9741,9.0984 L157.9741,8.7317 L157.9741,8.3899 L157.9741,8.0775 L157.9741,7.7979 L157.9741,7.5558 L157.9741,7.3530 L157.9741,7.1925 L157.9741,7.0764 L157.9741,7.0062 L157.9741,6.9828 "/>
        <path d="M157.9741,6.9828 L157.9741,7.0764 L157.9741,7.3530 L157.9741,7.7979 L157.9741,8.3899 L157.9741,9.0984 L157.9741,9.8882 L157.9741,10.7198 L157.9741,11.5515 L157.9741,12.3412 L157.9741,13.0498 L157.9741,13.6417 L157.9741,14.0867 L157.9741,14.3632 L157.9741,14.4569 "/>
        <path d="M157.9741,14.4569 L157.9741,14.4335 L157.9741,14.3632 L157.9741,14.2471 L157.9741,14.0867 L157.9741,13.8839 L157.9741,13.6417 L157.9741,13.3622 L157.9741,13.0498 L157.9741,12.7079 L157.9741,12.3412 L157.9741,11.9541 L157.9741,11.5515 L157.9741,11.1384 L157.9741,10.7198 "/>
        <path d="M157.9741,10.7198 L157.9741,10.3013 L157.9741,9.8882 L157.9741,9.4856 L157.9741,9.0984 L157.9741,8.7317 L157.9741,8.3899 L157.9741,8.0775 L157.9741,7.7979 L157.9741,7.5558 L157.9741,7.3530 L157.9741,7.1925 L157.9741,7.0764 L157.9741,7.0062 L157.9741,6.9828 "/>
        <path d="M157.9741,6.9828 L157.9741,7.0764 L157.9741,7.3530 L157.9741,7.7979 L157.9741,8.3899 L157.9741,9.0984 L157.9741,9.8882 L157.9741,10.7198 L157.9741,11.5515 L157.9741,12.3412 L157.9741,13.0498 L157.9741,13.6417 L157.9741,14.0867 L157.9741,14.3632 L157.9741,14.4569 "/>
        <path d="M157.9741,14.4569 L157.9741,14.4335 L157.9741,14.3632 L157.9741,14.2471 L157.9741,14.0867 L157.9741,13.8839 L157.9741,13.6417 L157.9741,13.3622 L157.9741,13.0498 L157.9741,12.7079 L157.9741,12.3412 L157.9741,11.9541 L157.9741,11.5515 L157.9741,11.1384 L157.9741,10.7198 "/>
        <path d="M150.5000,10.7198 L157.9741,10.7198 "/>
        <path d="M150.5000,10.7198 L157.9741,10.7198 "/>
        <path d="M157.9741,6.9828 L150.5000,6.9828 "/>
        <path d="M157.9741,14.4569 L150.5000,14.4569 "/>
        <path d="M157.9741,6.9828 L150.5000,6.9828 "/>
        <path d="M157.9741,14.4569 L150.5000,14.4569 "/>
      </g>
      <g stroke="#cc8844" stroke-width="1.4948275862068965" fill="none">
        <path d="M150.5000,19.4397 L157.9741,19.4397 "/>
        <path d="M150.5000,2.0000 L157.9741,2.0000 "/>
        <path d="M150.5000,19.4397 L150.5000,19.2209 L150.5000,18.5761 L150.5000,17.5372 L150.5000,16.1565 L150.5000,14.5032 L150.5000,12.6601 L150.5000,10.7198 L150.5000,8.7795 L150.5000,6.9364 L150.5000,5.2831 L150.5000,3.9024 L150.5000,2.8635 L150.5000,2.2187 L150.5000,2.0000 "/>
        <path d="M157.9741,19.4397 L157.9741,19.2209 L157.9741,18.5761 L157.9741,17.5372 L157.9741,16.1565 L157.9741,14.5032 L157.9741,12.6601 L157.9741,10.7198 L157.9741,8.7795 L157.9741,6.9364 L157.9741,5.2831 L157.9741,3.9024 L157.9741,2.8635 L157.9741,2.2187 L157.9741,2.0000 "/>
      </g>
    </g>
  </g>
</svg>